G04 (created by PCBNEW (2013-may-18)-stable) date Wed 07 May 2014 10:09:02 PM EDT*
%MOIN*%
G04 Gerber Fmt 3.4, Leading zero omitted, Abs format*
%FSLAX34Y34*%
G01*
G70*
G90*
G04 APERTURE LIST*
%ADD10C,0.00590551*%
%ADD11C,0.0001*%
G04 APERTURE END LIST*
G54D10*
X81531Y-31276D02*
X81138Y-31276D01*
X81531Y-30981D02*
X81138Y-30981D01*
X81531Y-30958D02*
X81138Y-30958D01*
X81531Y-30663D02*
X81138Y-30663D01*
X79419Y-35749D02*
X79419Y-36142D01*
X79124Y-35749D02*
X79124Y-36142D01*
G54D11*
G36*
X71981Y-35980D02*
X71981Y-36023D01*
X71984Y-36055D01*
X71990Y-36077D01*
X72001Y-36094D01*
X72017Y-36108D01*
X72029Y-36116D01*
X72038Y-36119D01*
X72038Y-35976D01*
X72042Y-35943D01*
X72052Y-35916D01*
X72064Y-35901D01*
X72086Y-35891D01*
X72111Y-35893D01*
X72134Y-35904D01*
X72136Y-35906D01*
X72143Y-35920D01*
X72148Y-35944D01*
X72150Y-35973D01*
X72150Y-36002D01*
X72148Y-36027D01*
X72145Y-36037D01*
X72130Y-36058D01*
X72108Y-36069D01*
X72083Y-36068D01*
X72064Y-36059D01*
X72049Y-36038D01*
X72040Y-36009D01*
X72038Y-35976D01*
X72038Y-36119D01*
X72062Y-36128D01*
X72097Y-36126D01*
X72124Y-36116D01*
X72151Y-36102D01*
X72151Y-36212D01*
X72151Y-36322D01*
X72132Y-36307D01*
X72107Y-36295D01*
X72076Y-36291D01*
X72045Y-36296D01*
X72027Y-36303D01*
X72011Y-36314D01*
X72000Y-36326D01*
X71992Y-36343D01*
X71987Y-36365D01*
X71984Y-36396D01*
X71983Y-36438D01*
X71983Y-36470D01*
X71983Y-36585D01*
X72008Y-36585D01*
X72033Y-36585D01*
X72035Y-36486D01*
X72036Y-36446D01*
X72038Y-36418D01*
X72040Y-36399D01*
X72044Y-36386D01*
X72049Y-36377D01*
X72056Y-36369D01*
X72079Y-36353D01*
X72104Y-36351D01*
X72128Y-36363D01*
X72133Y-36368D01*
X72141Y-36376D01*
X72146Y-36385D01*
X72149Y-36396D01*
X72150Y-36414D01*
X72151Y-36442D01*
X72151Y-36480D01*
X72151Y-36485D01*
X72151Y-36585D01*
X72181Y-36585D01*
X72210Y-36585D01*
X72210Y-36211D01*
X72210Y-35837D01*
X72181Y-35837D01*
X72160Y-35839D01*
X72151Y-35845D01*
X72151Y-35847D01*
X72149Y-35852D01*
X72139Y-35850D01*
X72124Y-35843D01*
X72087Y-35831D01*
X72053Y-35833D01*
X72029Y-35844D01*
X72009Y-35857D01*
X71996Y-35872D01*
X71987Y-35891D01*
X71983Y-35917D01*
X71981Y-35954D01*
X71981Y-35980D01*
X71981Y-35980D01*
X71981Y-35980D01*
G37*
G36*
X71704Y-36585D02*
X71733Y-36585D01*
X71753Y-36583D01*
X71762Y-36578D01*
X71763Y-36573D01*
X71763Y-36485D01*
X71763Y-36460D01*
X71805Y-36460D01*
X71840Y-36463D01*
X71865Y-36473D01*
X71878Y-36488D01*
X71880Y-36497D01*
X71873Y-36513D01*
X71856Y-36526D01*
X71831Y-36533D01*
X71821Y-36533D01*
X71799Y-36530D01*
X71779Y-36522D01*
X71779Y-36522D01*
X71766Y-36506D01*
X71763Y-36485D01*
X71763Y-36573D01*
X71764Y-36565D01*
X71769Y-36567D01*
X71776Y-36573D01*
X71794Y-36581D01*
X71821Y-36585D01*
X71851Y-36584D01*
X71880Y-36579D01*
X71899Y-36571D01*
X71922Y-36549D01*
X71935Y-36520D01*
X71937Y-36489D01*
X71927Y-36459D01*
X71909Y-36436D01*
X71897Y-36426D01*
X71885Y-36420D01*
X71869Y-36417D01*
X71844Y-36416D01*
X71825Y-36416D01*
X71763Y-36416D01*
X71763Y-36391D01*
X71765Y-36372D01*
X71771Y-36359D01*
X71772Y-36359D01*
X71796Y-36348D01*
X71825Y-36346D01*
X71854Y-36353D01*
X71873Y-36360D01*
X71885Y-36360D01*
X71899Y-36352D01*
X71903Y-36349D01*
X71917Y-36338D01*
X71919Y-36329D01*
X71916Y-36323D01*
X71894Y-36307D01*
X71863Y-36296D01*
X71826Y-36291D01*
X71789Y-36293D01*
X71756Y-36301D01*
X71751Y-36303D01*
X71734Y-36312D01*
X71722Y-36324D01*
X71714Y-36339D01*
X71709Y-36361D01*
X71706Y-36392D01*
X71704Y-36434D01*
X71704Y-36471D01*
X71704Y-36585D01*
X71704Y-36585D01*
X71704Y-36585D01*
G37*
G36*
X71449Y-36317D02*
X71458Y-36332D01*
X71466Y-36342D01*
X71480Y-36356D01*
X71491Y-36360D01*
X71499Y-36357D01*
X71525Y-36350D01*
X71549Y-36358D01*
X71561Y-36368D01*
X71569Y-36376D01*
X71574Y-36385D01*
X71577Y-36396D01*
X71578Y-36414D01*
X71579Y-36442D01*
X71579Y-36480D01*
X71579Y-36485D01*
X71579Y-36585D01*
X71609Y-36585D01*
X71638Y-36585D01*
X71638Y-36438D01*
X71638Y-36291D01*
X71609Y-36291D01*
X71590Y-36293D01*
X71581Y-36297D01*
X71579Y-36307D01*
X71579Y-36322D01*
X71560Y-36307D01*
X71537Y-36296D01*
X71508Y-36291D01*
X71479Y-36293D01*
X71462Y-36299D01*
X71450Y-36307D01*
X71449Y-36317D01*
X71449Y-36317D01*
X71449Y-36317D01*
G37*
G36*
X71213Y-36585D02*
X71242Y-36585D01*
X71262Y-36583D01*
X71271Y-36577D01*
X71271Y-36576D01*
X71271Y-36460D01*
X71271Y-36427D01*
X71276Y-36396D01*
X71284Y-36373D01*
X71287Y-36369D01*
X71307Y-36353D01*
X71331Y-36350D01*
X71355Y-36359D01*
X71367Y-36370D01*
X71375Y-36383D01*
X71380Y-36396D01*
X71381Y-36416D01*
X71380Y-36445D01*
X71380Y-36448D01*
X71377Y-36483D01*
X71370Y-36506D01*
X71359Y-36519D01*
X71340Y-36525D01*
X71322Y-36526D01*
X71299Y-36523D01*
X71284Y-36511D01*
X71283Y-36510D01*
X71275Y-36489D01*
X71271Y-36460D01*
X71271Y-36576D01*
X71271Y-36573D01*
X71273Y-36566D01*
X71279Y-36568D01*
X71288Y-36573D01*
X71308Y-36581D01*
X71336Y-36584D01*
X71366Y-36583D01*
X71391Y-36576D01*
X71396Y-36574D01*
X71414Y-36561D01*
X71427Y-36544D01*
X71435Y-36520D01*
X71439Y-36486D01*
X71439Y-36442D01*
X71439Y-36428D01*
X71436Y-36342D01*
X71409Y-36317D01*
X71389Y-36301D01*
X71371Y-36293D01*
X71347Y-36291D01*
X71346Y-36291D01*
X71321Y-36294D01*
X71302Y-36299D01*
X71297Y-36302D01*
X71284Y-36311D01*
X71277Y-36313D01*
X71275Y-36306D01*
X71273Y-36288D01*
X71271Y-36262D01*
X71271Y-36244D01*
X71271Y-36174D01*
X71242Y-36174D01*
X71213Y-36174D01*
X71213Y-36379D01*
X71213Y-36585D01*
X71213Y-36585D01*
X71213Y-36585D01*
G37*
G36*
X70767Y-36297D02*
X70767Y-36301D01*
X70770Y-36310D01*
X70777Y-36331D01*
X70787Y-36362D01*
X70799Y-36400D01*
X70812Y-36442D01*
X70814Y-36447D01*
X70857Y-36585D01*
X70884Y-36585D01*
X70894Y-36585D01*
X70903Y-36583D01*
X70909Y-36578D01*
X70916Y-36567D01*
X70923Y-36549D01*
X70931Y-36522D01*
X70942Y-36483D01*
X70949Y-36460D01*
X70957Y-36433D01*
X70964Y-36412D01*
X70969Y-36400D01*
X70970Y-36399D01*
X70974Y-36404D01*
X70981Y-36420D01*
X70990Y-36446D01*
X71000Y-36478D01*
X71004Y-36489D01*
X71032Y-36585D01*
X71060Y-36585D01*
X71078Y-36584D01*
X71088Y-36583D01*
X71088Y-36582D01*
X71090Y-36575D01*
X71096Y-36555D01*
X71105Y-36526D01*
X71117Y-36490D01*
X71130Y-36448D01*
X71132Y-36442D01*
X71146Y-36399D01*
X71157Y-36361D01*
X71167Y-36330D01*
X71173Y-36308D01*
X71176Y-36298D01*
X71176Y-36297D01*
X71170Y-36294D01*
X71153Y-36292D01*
X71145Y-36293D01*
X71115Y-36295D01*
X71087Y-36394D01*
X71077Y-36429D01*
X71068Y-36456D01*
X71061Y-36475D01*
X71057Y-36483D01*
X71056Y-36482D01*
X71052Y-36471D01*
X71045Y-36449D01*
X71035Y-36420D01*
X71024Y-36385D01*
X71024Y-36383D01*
X71012Y-36347D01*
X71004Y-36322D01*
X70997Y-36306D01*
X70990Y-36298D01*
X70983Y-36294D01*
X70973Y-36293D01*
X70973Y-36293D01*
X70950Y-36291D01*
X70919Y-36390D01*
X70906Y-36427D01*
X70896Y-36456D01*
X70888Y-36475D01*
X70883Y-36481D01*
X70882Y-36480D01*
X70878Y-36470D01*
X70872Y-36449D01*
X70863Y-36419D01*
X70854Y-36384D01*
X70853Y-36381D01*
X70829Y-36291D01*
X70796Y-36291D01*
X70775Y-36293D01*
X70767Y-36297D01*
X70767Y-36297D01*
X70767Y-36297D01*
G37*
G36*
X70531Y-36585D02*
X70560Y-36585D01*
X70578Y-36583D01*
X70589Y-36579D01*
X70589Y-36577D01*
X70589Y-36489D01*
X70589Y-36460D01*
X70628Y-36460D01*
X70664Y-36464D01*
X70690Y-36473D01*
X70704Y-36488D01*
X70705Y-36494D01*
X70701Y-36510D01*
X70686Y-36523D01*
X70664Y-36531D01*
X70639Y-36534D01*
X70614Y-36530D01*
X70604Y-36526D01*
X70593Y-36515D01*
X70589Y-36495D01*
X70589Y-36489D01*
X70589Y-36577D01*
X70594Y-36573D01*
X70604Y-36577D01*
X70624Y-36583D01*
X70652Y-36585D01*
X70683Y-36583D01*
X70710Y-36578D01*
X70723Y-36572D01*
X70744Y-36552D01*
X70756Y-36523D01*
X70758Y-36496D01*
X70754Y-36464D01*
X70742Y-36442D01*
X70720Y-36427D01*
X70687Y-36418D01*
X70645Y-36416D01*
X70589Y-36416D01*
X70589Y-36391D01*
X70592Y-36370D01*
X70604Y-36356D01*
X70626Y-36348D01*
X70631Y-36347D01*
X70663Y-36347D01*
X70680Y-36354D01*
X70698Y-36361D01*
X70709Y-36361D01*
X70722Y-36354D01*
X70725Y-36352D01*
X70739Y-36338D01*
X70739Y-36325D01*
X70725Y-36312D01*
X70714Y-36305D01*
X70686Y-36296D01*
X70650Y-36292D01*
X70613Y-36293D01*
X70581Y-36301D01*
X70579Y-36302D01*
X70562Y-36310D01*
X70550Y-36319D01*
X70541Y-36332D01*
X70536Y-36350D01*
X70532Y-36377D01*
X70531Y-36414D01*
X70531Y-36463D01*
X70531Y-36465D01*
X70531Y-36585D01*
X70531Y-36585D01*
X70531Y-36585D01*
G37*
G36*
X70268Y-36310D02*
X70270Y-36317D01*
X70280Y-36330D01*
X70285Y-36337D01*
X70299Y-36353D01*
X70309Y-36359D01*
X70322Y-36356D01*
X70326Y-36355D01*
X70353Y-36351D01*
X70378Y-36359D01*
X70396Y-36378D01*
X70397Y-36379D01*
X70401Y-36397D01*
X70404Y-36428D01*
X70406Y-36471D01*
X70406Y-36491D01*
X70406Y-36585D01*
X70435Y-36585D01*
X70465Y-36585D01*
X70465Y-36438D01*
X70465Y-36291D01*
X70435Y-36291D01*
X70416Y-36293D01*
X70408Y-36298D01*
X70406Y-36306D01*
X70405Y-36315D01*
X70401Y-36316D01*
X70389Y-36310D01*
X70382Y-36306D01*
X70352Y-36295D01*
X70319Y-36292D01*
X70287Y-36299D01*
X70268Y-36310D01*
X70268Y-36310D01*
X70268Y-36310D01*
G37*
G36*
X70023Y-36460D02*
X70087Y-36460D01*
X70087Y-36397D01*
X70095Y-36379D01*
X70107Y-36363D01*
X70121Y-36351D01*
X70123Y-36350D01*
X70150Y-36347D01*
X70176Y-36357D01*
X70195Y-36378D01*
X70196Y-36378D01*
X70203Y-36395D01*
X70205Y-36407D01*
X70204Y-36409D01*
X70195Y-36412D01*
X70176Y-36415D01*
X70151Y-36416D01*
X70125Y-36416D01*
X70103Y-36414D01*
X70089Y-36411D01*
X70087Y-36409D01*
X70087Y-36397D01*
X70087Y-36460D01*
X70116Y-36460D01*
X70210Y-36460D01*
X70205Y-36480D01*
X70191Y-36508D01*
X70169Y-36526D01*
X70141Y-36532D01*
X70109Y-36525D01*
X70099Y-36521D01*
X70071Y-36507D01*
X70051Y-36523D01*
X70038Y-36535D01*
X70032Y-36543D01*
X70032Y-36544D01*
X70037Y-36550D01*
X70051Y-36561D01*
X70059Y-36566D01*
X70091Y-36580D01*
X70128Y-36586D01*
X70166Y-36584D01*
X70199Y-36574D01*
X70208Y-36568D01*
X70234Y-36546D01*
X70251Y-36519D01*
X70260Y-36485D01*
X70263Y-36442D01*
X70258Y-36389D01*
X70245Y-36348D01*
X70222Y-36317D01*
X70190Y-36299D01*
X70150Y-36291D01*
X70146Y-36291D01*
X70104Y-36298D01*
X70070Y-36316D01*
X70045Y-36345D01*
X70030Y-36384D01*
X70026Y-36412D01*
X70023Y-36460D01*
X70023Y-36460D01*
X70023Y-36460D01*
G37*
G36*
X72265Y-35980D02*
X72265Y-36015D01*
X72267Y-36040D01*
X72270Y-36057D01*
X72276Y-36069D01*
X72280Y-36076D01*
X72311Y-36107D01*
X72320Y-36111D01*
X72320Y-35980D01*
X72321Y-35952D01*
X72324Y-35935D01*
X72331Y-35922D01*
X72342Y-35909D01*
X72359Y-35894D01*
X72373Y-35890D01*
X72388Y-35891D01*
X72413Y-35899D01*
X72429Y-35913D01*
X72438Y-35936D01*
X72441Y-35969D01*
X72441Y-35979D01*
X72439Y-36014D01*
X72434Y-36038D01*
X72423Y-36054D01*
X72405Y-36064D01*
X72380Y-36070D01*
X72360Y-36065D01*
X72342Y-36050D01*
X72330Y-36037D01*
X72323Y-36024D01*
X72321Y-36005D01*
X72320Y-35980D01*
X72320Y-36111D01*
X72347Y-36125D01*
X72386Y-36129D01*
X72427Y-36119D01*
X72437Y-36114D01*
X72467Y-36094D01*
X72487Y-36068D01*
X72499Y-36034D01*
X72503Y-35989D01*
X72503Y-35980D01*
X72500Y-35933D01*
X72490Y-35897D01*
X72471Y-35870D01*
X72444Y-35849D01*
X72437Y-35845D01*
X72397Y-35832D01*
X72357Y-35832D01*
X72320Y-35847D01*
X72287Y-35874D01*
X72280Y-35884D01*
X72273Y-35895D01*
X72269Y-35909D01*
X72266Y-35928D01*
X72265Y-35957D01*
X72265Y-35980D01*
X72265Y-35980D01*
X72265Y-35980D01*
G37*
G36*
X71695Y-36005D02*
X71763Y-36005D01*
X71763Y-35938D01*
X71768Y-35921D01*
X71779Y-35905D01*
X71801Y-35891D01*
X71826Y-35888D01*
X71849Y-35897D01*
X71868Y-35914D01*
X71877Y-35934D01*
X71882Y-35954D01*
X71822Y-35954D01*
X71793Y-35954D01*
X71775Y-35952D01*
X71766Y-35949D01*
X71763Y-35944D01*
X71763Y-35938D01*
X71763Y-36005D01*
X71787Y-36005D01*
X71827Y-36006D01*
X71854Y-36007D01*
X71871Y-36009D01*
X71878Y-36015D01*
X71878Y-36023D01*
X71873Y-36035D01*
X71871Y-36037D01*
X71852Y-36060D01*
X71826Y-36071D01*
X71793Y-36069D01*
X71767Y-36059D01*
X71749Y-36052D01*
X71739Y-36051D01*
X71727Y-36059D01*
X71722Y-36064D01*
X71711Y-36078D01*
X71712Y-36090D01*
X71725Y-36102D01*
X71751Y-36116D01*
X71752Y-36116D01*
X71795Y-36128D01*
X71839Y-36126D01*
X71873Y-36114D01*
X71903Y-36091D01*
X71924Y-36057D01*
X71937Y-36016D01*
X71940Y-35969D01*
X71932Y-35919D01*
X71931Y-35914D01*
X71914Y-35879D01*
X71887Y-35852D01*
X71854Y-35836D01*
X71815Y-35831D01*
X71775Y-35839D01*
X71773Y-35840D01*
X71740Y-35859D01*
X71717Y-35888D01*
X71703Y-35928D01*
X71699Y-35958D01*
X71695Y-36005D01*
X71695Y-36005D01*
X71695Y-36005D01*
G37*
G36*
X71010Y-36037D02*
X71015Y-36067D01*
X71031Y-36092D01*
X71057Y-36112D01*
X71090Y-36125D01*
X71129Y-36129D01*
X71172Y-36124D01*
X71183Y-36121D01*
X71213Y-36109D01*
X71247Y-36088D01*
X71256Y-36081D01*
X71254Y-36075D01*
X71244Y-36062D01*
X71239Y-36057D01*
X71218Y-36036D01*
X71198Y-36050D01*
X71173Y-36064D01*
X71143Y-36070D01*
X71115Y-36070D01*
X71090Y-36064D01*
X71074Y-36051D01*
X71073Y-36049D01*
X71071Y-36033D01*
X71081Y-36019D01*
X71101Y-36009D01*
X71128Y-36005D01*
X71157Y-36003D01*
X71185Y-35996D01*
X71190Y-35994D01*
X71217Y-35976D01*
X71234Y-35950D01*
X71240Y-35920D01*
X71234Y-35888D01*
X71220Y-35863D01*
X71196Y-35845D01*
X71164Y-35834D01*
X71126Y-35831D01*
X71086Y-35836D01*
X71048Y-35849D01*
X71044Y-35851D01*
X71015Y-35866D01*
X71031Y-35888D01*
X71045Y-35904D01*
X71057Y-35909D01*
X71074Y-35903D01*
X71081Y-35899D01*
X71105Y-35890D01*
X71132Y-35888D01*
X71156Y-35893D01*
X71171Y-35902D01*
X71180Y-35918D01*
X71175Y-35934D01*
X71163Y-35942D01*
X71149Y-35945D01*
X71126Y-35948D01*
X71106Y-35951D01*
X71069Y-35957D01*
X71044Y-35969D01*
X71026Y-35986D01*
X71017Y-36004D01*
X71010Y-36037D01*
X71010Y-36037D01*
X71010Y-36037D01*
G37*
G36*
X70736Y-35980D02*
X70741Y-36030D01*
X70756Y-36071D01*
X70780Y-36103D01*
X70789Y-36111D01*
X70798Y-36115D01*
X70798Y-35980D01*
X70799Y-35950D01*
X70802Y-35931D01*
X70807Y-35918D01*
X70815Y-35909D01*
X70838Y-35895D01*
X70864Y-35893D01*
X70890Y-35901D01*
X70899Y-35908D01*
X70909Y-35927D01*
X70916Y-35954D01*
X70919Y-35985D01*
X70917Y-36014D01*
X70910Y-36035D01*
X70892Y-36057D01*
X70867Y-36067D01*
X70840Y-36065D01*
X70815Y-36051D01*
X70813Y-36049D01*
X70805Y-36038D01*
X70801Y-36024D01*
X70799Y-36001D01*
X70798Y-35980D01*
X70798Y-36115D01*
X70813Y-36122D01*
X70845Y-36127D01*
X70879Y-36127D01*
X70907Y-36121D01*
X70909Y-36120D01*
X70940Y-36098D01*
X70962Y-36066D01*
X70974Y-36023D01*
X70977Y-35971D01*
X70976Y-35961D01*
X70968Y-35913D01*
X70952Y-35876D01*
X70927Y-35851D01*
X70893Y-35837D01*
X70857Y-35833D01*
X70814Y-35839D01*
X70781Y-35856D01*
X70757Y-35884D01*
X70742Y-35924D01*
X70736Y-35975D01*
X70736Y-35980D01*
X70736Y-35980D01*
X70736Y-35980D01*
G37*
G36*
X70457Y-36123D02*
X70487Y-36123D01*
X70507Y-36121D01*
X70516Y-36115D01*
X70516Y-36112D01*
X70518Y-36106D01*
X70527Y-36108D01*
X70540Y-36115D01*
X70574Y-36128D01*
X70610Y-36126D01*
X70631Y-36119D01*
X70650Y-36109D01*
X70664Y-36096D01*
X70674Y-36079D01*
X70680Y-36054D01*
X70683Y-36019D01*
X70685Y-35973D01*
X70685Y-35949D01*
X70685Y-35837D01*
X70655Y-35837D01*
X70626Y-35837D01*
X70626Y-35935D01*
X70625Y-35982D01*
X70623Y-36017D01*
X70618Y-36041D01*
X70609Y-36056D01*
X70597Y-36064D01*
X70579Y-36067D01*
X70571Y-36067D01*
X70551Y-36065D01*
X70537Y-36059D01*
X70527Y-36047D01*
X70521Y-36027D01*
X70517Y-35996D01*
X70516Y-35953D01*
X70516Y-35935D01*
X70516Y-35837D01*
X70487Y-35837D01*
X70457Y-35837D01*
X70457Y-35980D01*
X70457Y-36123D01*
X70457Y-36123D01*
X70457Y-36123D01*
G37*
G36*
X69962Y-35880D02*
X69983Y-35900D01*
X69997Y-35913D01*
X70007Y-35916D01*
X70016Y-35912D01*
X70049Y-35895D01*
X70080Y-35892D01*
X70106Y-35901D01*
X70126Y-35923D01*
X70138Y-35955D01*
X70140Y-35967D01*
X70139Y-36004D01*
X70128Y-36033D01*
X70110Y-36055D01*
X70087Y-36068D01*
X70060Y-36070D01*
X70034Y-36059D01*
X70023Y-36052D01*
X70007Y-36046D01*
X69988Y-36053D01*
X69974Y-36067D01*
X69969Y-36081D01*
X69976Y-36095D01*
X69993Y-36108D01*
X70017Y-36118D01*
X70045Y-36125D01*
X70076Y-36128D01*
X70105Y-36125D01*
X70116Y-36123D01*
X70147Y-36106D01*
X70172Y-36079D01*
X70190Y-36045D01*
X70199Y-36005D01*
X70200Y-35965D01*
X70193Y-35925D01*
X70177Y-35888D01*
X70151Y-35858D01*
X70150Y-35857D01*
X70118Y-35839D01*
X70080Y-35831D01*
X70040Y-35834D01*
X70003Y-35848D01*
X69983Y-35862D01*
X69962Y-35880D01*
X69962Y-35880D01*
X69962Y-35880D01*
G37*
G36*
X69708Y-36005D02*
X69768Y-36005D01*
X69768Y-35946D01*
X69772Y-35931D01*
X69783Y-35912D01*
X69795Y-35897D01*
X69801Y-35893D01*
X69831Y-35888D01*
X69858Y-35897D01*
X69879Y-35917D01*
X69889Y-35938D01*
X69891Y-35945D01*
X69888Y-35950D01*
X69879Y-35953D01*
X69861Y-35954D01*
X69831Y-35954D01*
X69798Y-35953D01*
X69777Y-35951D01*
X69768Y-35947D01*
X69768Y-35946D01*
X69768Y-36005D01*
X69801Y-36005D01*
X69839Y-36005D01*
X69865Y-36006D01*
X69881Y-36007D01*
X69888Y-36010D01*
X69891Y-36014D01*
X69889Y-36021D01*
X69889Y-36022D01*
X69876Y-36045D01*
X69855Y-36062D01*
X69830Y-36071D01*
X69826Y-36071D01*
X69803Y-36068D01*
X69780Y-36060D01*
X69778Y-36059D01*
X69761Y-36052D01*
X69750Y-36052D01*
X69739Y-36061D01*
X69735Y-36064D01*
X69724Y-36078D01*
X69725Y-36090D01*
X69738Y-36103D01*
X69764Y-36116D01*
X69764Y-36116D01*
X69808Y-36128D01*
X69851Y-36126D01*
X69884Y-36114D01*
X69913Y-36095D01*
X69932Y-36069D01*
X69943Y-36033D01*
X69947Y-35987D01*
X69948Y-35980D01*
X69944Y-35930D01*
X69932Y-35893D01*
X69911Y-35864D01*
X69882Y-35844D01*
X69846Y-35832D01*
X69813Y-35832D01*
X69778Y-35843D01*
X69747Y-35863D01*
X69726Y-35891D01*
X69714Y-35927D01*
X69711Y-35956D01*
X69708Y-36005D01*
X69708Y-36005D01*
X69708Y-36005D01*
G37*
G36*
X71418Y-36123D02*
X71447Y-36123D01*
X71477Y-36123D01*
X71477Y-36025D01*
X71477Y-35978D01*
X71480Y-35945D01*
X71484Y-35922D01*
X71492Y-35906D01*
X71504Y-35897D01*
X71521Y-35892D01*
X71525Y-35891D01*
X71545Y-35891D01*
X71563Y-35900D01*
X71569Y-35905D01*
X71590Y-35923D01*
X71593Y-36023D01*
X71596Y-36123D01*
X71624Y-36123D01*
X71653Y-36123D01*
X71653Y-35980D01*
X71653Y-35837D01*
X71623Y-35837D01*
X71603Y-35839D01*
X71595Y-35844D01*
X71594Y-35848D01*
X71593Y-35856D01*
X71588Y-35857D01*
X71575Y-35851D01*
X71563Y-35844D01*
X71530Y-35832D01*
X71496Y-35832D01*
X71464Y-35844D01*
X71438Y-35867D01*
X71433Y-35875D01*
X71427Y-35886D01*
X71423Y-35898D01*
X71420Y-35915D01*
X71419Y-35939D01*
X71418Y-35972D01*
X71418Y-36011D01*
X71418Y-36123D01*
X71418Y-36123D01*
X71418Y-36123D01*
G37*
G36*
X70193Y-35852D02*
X70212Y-35877D01*
X70225Y-35894D01*
X70233Y-35901D01*
X70241Y-35901D01*
X70254Y-35895D01*
X70255Y-35894D01*
X70279Y-35891D01*
X70303Y-35899D01*
X70321Y-35916D01*
X70324Y-35922D01*
X70328Y-35937D01*
X70331Y-35963D01*
X70332Y-35998D01*
X70333Y-36031D01*
X70333Y-36123D01*
X70362Y-36123D01*
X70391Y-36123D01*
X70391Y-35980D01*
X70391Y-35837D01*
X70362Y-35837D01*
X70342Y-35839D01*
X70333Y-35844D01*
X70333Y-35848D01*
X70331Y-35853D01*
X70322Y-35852D01*
X70305Y-35844D01*
X70270Y-35831D01*
X70236Y-35832D01*
X70215Y-35841D01*
X70193Y-35852D01*
X70193Y-35852D01*
X70193Y-35852D01*
G37*
G36*
X70017Y-34740D02*
X70018Y-34790D01*
X70019Y-34832D01*
X70020Y-34863D01*
X70023Y-34881D01*
X70025Y-34887D01*
X70033Y-34889D01*
X70053Y-34894D01*
X70081Y-34900D01*
X70116Y-34907D01*
X70155Y-34914D01*
X70193Y-34922D01*
X70230Y-34929D01*
X70262Y-34935D01*
X70286Y-34940D01*
X70299Y-34942D01*
X70301Y-34942D01*
X70304Y-34948D01*
X70311Y-34966D01*
X70322Y-34993D01*
X70336Y-35027D01*
X70347Y-35055D01*
X70392Y-35168D01*
X70318Y-35276D01*
X70294Y-35311D01*
X70272Y-35343D01*
X70255Y-35369D01*
X70244Y-35387D01*
X70239Y-35395D01*
X70243Y-35404D01*
X70258Y-35423D01*
X70283Y-35452D01*
X70319Y-35489D01*
X70337Y-35507D01*
X70369Y-35539D01*
X70397Y-35566D01*
X70420Y-35588D01*
X70436Y-35603D01*
X70444Y-35609D01*
X70445Y-35609D01*
X70452Y-35605D01*
X70470Y-35594D01*
X70496Y-35578D01*
X70527Y-35556D01*
X70562Y-35533D01*
X70673Y-35457D01*
X70730Y-35485D01*
X70787Y-35514D01*
X70795Y-35498D01*
X70801Y-35485D01*
X70812Y-35462D01*
X70826Y-35429D01*
X70842Y-35390D01*
X70861Y-35345D01*
X70880Y-35297D01*
X70901Y-35248D01*
X70920Y-35200D01*
X70939Y-35155D01*
X70955Y-35114D01*
X70969Y-35079D01*
X70979Y-35053D01*
X70984Y-35038D01*
X70985Y-35034D01*
X70980Y-35026D01*
X70965Y-35013D01*
X70944Y-34997D01*
X70941Y-34995D01*
X70888Y-34949D01*
X70848Y-34899D01*
X70822Y-34843D01*
X70808Y-34779D01*
X70806Y-34744D01*
X70809Y-34688D01*
X70821Y-34640D01*
X70842Y-34595D01*
X70864Y-34562D01*
X70905Y-34517D01*
X70956Y-34481D01*
X71012Y-34455D01*
X71071Y-34441D01*
X71130Y-34440D01*
X71151Y-34443D01*
X71213Y-34461D01*
X71271Y-34492D01*
X71320Y-34533D01*
X71322Y-34535D01*
X71363Y-34588D01*
X71391Y-34645D01*
X71405Y-34705D01*
X71407Y-34765D01*
X71396Y-34825D01*
X71372Y-34882D01*
X71335Y-34935D01*
X71286Y-34982D01*
X71275Y-34991D01*
X71252Y-35008D01*
X71236Y-35024D01*
X71228Y-35035D01*
X71227Y-35037D01*
X71230Y-35046D01*
X71238Y-35067D01*
X71249Y-35097D01*
X71265Y-35135D01*
X71282Y-35179D01*
X71301Y-35226D01*
X71322Y-35276D01*
X71342Y-35325D01*
X71361Y-35371D01*
X71379Y-35414D01*
X71395Y-35451D01*
X71408Y-35480D01*
X71416Y-35498D01*
X71420Y-35505D01*
X71427Y-35508D01*
X71439Y-35505D01*
X71460Y-35496D01*
X71481Y-35485D01*
X71535Y-35455D01*
X71648Y-35532D01*
X71684Y-35557D01*
X71717Y-35578D01*
X71742Y-35594D01*
X71760Y-35605D01*
X71768Y-35609D01*
X71768Y-35609D01*
X71775Y-35604D01*
X71790Y-35591D01*
X71812Y-35569D01*
X71840Y-35543D01*
X71871Y-35512D01*
X71875Y-35509D01*
X71906Y-35477D01*
X71933Y-35449D01*
X71955Y-35426D01*
X71969Y-35410D01*
X71975Y-35402D01*
X71975Y-35402D01*
X71972Y-35394D01*
X71960Y-35376D01*
X71944Y-35351D01*
X71922Y-35319D01*
X71898Y-35283D01*
X71897Y-35282D01*
X71819Y-35168D01*
X71862Y-35060D01*
X71876Y-35023D01*
X71890Y-34991D01*
X71900Y-34966D01*
X71907Y-34951D01*
X71909Y-34947D01*
X71917Y-34945D01*
X71937Y-34940D01*
X71965Y-34934D01*
X72000Y-34926D01*
X72038Y-34918D01*
X72077Y-34911D01*
X72113Y-34903D01*
X72146Y-34897D01*
X72170Y-34893D01*
X72185Y-34891D01*
X72186Y-34891D01*
X72187Y-34884D01*
X72187Y-34864D01*
X72188Y-34834D01*
X72188Y-34797D01*
X72188Y-34753D01*
X72188Y-34740D01*
X72188Y-34690D01*
X72188Y-34652D01*
X72187Y-34625D01*
X72186Y-34607D01*
X72184Y-34596D01*
X72181Y-34591D01*
X72176Y-34588D01*
X72172Y-34587D01*
X72159Y-34584D01*
X72135Y-34579D01*
X72102Y-34573D01*
X72063Y-34566D01*
X72030Y-34560D01*
X71990Y-34553D01*
X71954Y-34546D01*
X71927Y-34540D01*
X71909Y-34537D01*
X71904Y-34535D01*
X71900Y-34528D01*
X71892Y-34510D01*
X71880Y-34484D01*
X71867Y-34453D01*
X71853Y-34420D01*
X71839Y-34388D01*
X71828Y-34360D01*
X71819Y-34338D01*
X71814Y-34326D01*
X71814Y-34324D01*
X71818Y-34317D01*
X71829Y-34299D01*
X71846Y-34273D01*
X71868Y-34241D01*
X71892Y-34205D01*
X71895Y-34201D01*
X71920Y-34165D01*
X71942Y-34133D01*
X71959Y-34106D01*
X71971Y-34088D01*
X71975Y-34079D01*
X71975Y-34079D01*
X71970Y-34072D01*
X71957Y-34056D01*
X71936Y-34035D01*
X71911Y-34009D01*
X71883Y-33981D01*
X71854Y-33952D01*
X71827Y-33925D01*
X71802Y-33902D01*
X71782Y-33884D01*
X71770Y-33873D01*
X71766Y-33871D01*
X71758Y-33875D01*
X71740Y-33886D01*
X71714Y-33903D01*
X71682Y-33925D01*
X71645Y-33950D01*
X71642Y-33952D01*
X71605Y-33977D01*
X71572Y-33999D01*
X71545Y-34016D01*
X71526Y-34028D01*
X71516Y-34033D01*
X71516Y-34033D01*
X71505Y-34030D01*
X71483Y-34022D01*
X71455Y-34011D01*
X71423Y-33998D01*
X71390Y-33985D01*
X71360Y-33971D01*
X71336Y-33960D01*
X71321Y-33952D01*
X71318Y-33950D01*
X71314Y-33941D01*
X71309Y-33921D01*
X71302Y-33891D01*
X71294Y-33855D01*
X71286Y-33816D01*
X71277Y-33776D01*
X71270Y-33737D01*
X71263Y-33703D01*
X71259Y-33677D01*
X71257Y-33660D01*
X71257Y-33658D01*
X71250Y-33656D01*
X71230Y-33654D01*
X71200Y-33653D01*
X71161Y-33652D01*
X71115Y-33651D01*
X71107Y-33651D01*
X71057Y-33651D01*
X71019Y-33652D01*
X70993Y-33652D01*
X70974Y-33654D01*
X70964Y-33656D01*
X70958Y-33659D01*
X70955Y-33663D01*
X70954Y-33668D01*
X70951Y-33680D01*
X70947Y-33704D01*
X70940Y-33737D01*
X70933Y-33777D01*
X70926Y-33813D01*
X70918Y-33855D01*
X70910Y-33892D01*
X70904Y-33922D01*
X70898Y-33942D01*
X70895Y-33950D01*
X70885Y-33956D01*
X70865Y-33965D01*
X70837Y-33978D01*
X70806Y-33991D01*
X70773Y-34005D01*
X70743Y-34017D01*
X70717Y-34026D01*
X70700Y-34032D01*
X70696Y-34033D01*
X70687Y-34029D01*
X70669Y-34018D01*
X70642Y-34001D01*
X70610Y-33979D01*
X70573Y-33955D01*
X70569Y-33952D01*
X70532Y-33927D01*
X70499Y-33905D01*
X70473Y-33888D01*
X70454Y-33876D01*
X70445Y-33871D01*
X70445Y-33871D01*
X70438Y-33876D01*
X70423Y-33890D01*
X70400Y-33911D01*
X70373Y-33938D01*
X70341Y-33969D01*
X70336Y-33974D01*
X70301Y-34009D01*
X70276Y-34036D01*
X70258Y-34055D01*
X70247Y-34068D01*
X70241Y-34078D01*
X70240Y-34085D01*
X70242Y-34091D01*
X70245Y-34095D01*
X70252Y-34107D01*
X70267Y-34129D01*
X70286Y-34158D01*
X70309Y-34192D01*
X70328Y-34219D01*
X70400Y-34324D01*
X70358Y-34422D01*
X70343Y-34458D01*
X70329Y-34489D01*
X70318Y-34513D01*
X70311Y-34527D01*
X70310Y-34529D01*
X70300Y-34533D01*
X70279Y-34539D01*
X70249Y-34546D01*
X70211Y-34554D01*
X70177Y-34560D01*
X70134Y-34568D01*
X70096Y-34576D01*
X70065Y-34583D01*
X70043Y-34588D01*
X70034Y-34590D01*
X70028Y-34593D01*
X70024Y-34597D01*
X70021Y-34605D01*
X70019Y-34618D01*
X70018Y-34639D01*
X70017Y-34669D01*
X70017Y-34711D01*
X70017Y-34740D01*
X70017Y-34740D01*
X70017Y-34740D01*
G37*
M02*
