M48
;DRILL file {KiCad 4.0.5} date Sun Mar 19 22:27:37 2017
;FORMAT={2:4/ absolute / inch / keep zeros}
FMAT,2
INCH,TZ
T1C0.010
T2C0.012
T3C0.013
T4C0.028
T5C0.034
T6C0.045
%
G90
G05
M72
T1
X060195Y-029420
X060264Y-037114
X060391Y-036881
X060445Y-033785
X060611Y-036312
X060735Y-034655
X061079Y-037181
X061142Y-036780
X061175Y-034960
X061224Y-031929
X061405Y-036004
X062102Y-035134
X062307Y-033587
X062352Y-032670
X063220Y-033386
X063240Y-033650
X063403Y-029909
X063476Y-035693
X063661Y-029579
X063904Y-029582
X063961Y-034169
X064256Y-035043
X064299Y-034185
X064339Y-029319
X064820Y-035181
X065421Y-034181
X065539Y-029362
X065551Y-036465
X065642Y-028650
X065799Y-036492
X065965Y-030416
X065988Y-034209
X066024Y-036476
X066083Y-029744
X066173Y-033142
X066217Y-030421
X066272Y-035952
X066480Y-035189
X066693Y-029539
X066697Y-034614
X066756Y-034008
X066762Y-036001
X066886Y-031697
X066896Y-036188
X066921Y-031421
X067047Y-034587
X067244Y-035748
X067453Y-035917
X067705Y-031134
X068098Y-030933
X068130Y-035228
X068350Y-034177
X068563Y-033051
X069381Y-032319
X069650Y-034630
X070012Y-034803
X070051Y-035110
X070087Y-036882
X070264Y-028677
X070354Y-030126
X070378Y-034587
X070913Y-030047
X071339Y-035433
X071358Y-034409
X071476Y-035827
X071575Y-036122
X071811Y-036043
X071870Y-034035
X071872Y-035821
X071874Y-029543
X071945Y-030165
X072657Y-033957
X072677Y-034843
X072720Y-036213
X072870Y-028720
X072874Y-032925
X072894Y-035867
X072960Y-029875
X072976Y-036283
X073287Y-031437
X073327Y-031673
X073449Y-032835
X074046Y-037151
X074075Y-034803
X074373Y-036513
X074545Y-036900
X074630Y-031925
X074685Y-034783
X074781Y-032756
X074902Y-034764
X075217Y-031417
X075244Y-035528
X075492Y-031850
X075512Y-034646
X076775Y-035559
X076955Y-033380
X077756Y-028740
X077865Y-030180
X077913Y-035771
X077913Y-030827
X078228Y-032264
X078233Y-035537
X078325Y-033380
X078327Y-031457
X078423Y-036063
X078543Y-029252
X079266Y-036368
X079371Y-035489
X079646Y-032520
X079724Y-028858
X079925Y-033375
X080114Y-034398
X080204Y-035828
X080520Y-029865
X080571Y-031339
X081063Y-034191
X081083Y-029803
X081260Y-032480
X081293Y-031024
X081437Y-030157
X081437Y-031791
X081545Y-036599
X081605Y-033500
X081917Y-034858
X082158Y-033972
X082638Y-028976
X082780Y-036785
X083001Y-031248
X083366Y-032067
X083406Y-036299
X083563Y-029291
X083642Y-035866
X084827Y-032205
X084827Y-034173
T2
X082226Y-035288
X082226Y-035642
X082226Y-035996
X082580Y-035288
X082580Y-035642
X082580Y-035996
X082934Y-035288
X082934Y-035642
X082934Y-035996
T3
X068307Y-029547
X068839Y-028976
X077382Y-032677
X080236Y-033858
X081535Y-034173
X082264Y-031161
X084827Y-028654
X084827Y-030622
X084827Y-035776
X084827Y-037744
T4
X062374Y-036100
X062874Y-036100
X063374Y-036100
X063833Y-028850
X063874Y-036100
X064333Y-028850
X064374Y-036100
X064874Y-036100
X067260Y-029340
X067760Y-029340
X070764Y-032559
X070972Y-031551
X071890Y-028701
X072665Y-031995
X073790Y-031715
X074260Y-031575
X075426Y-030759
X075928Y-031298
X076375Y-028790
X076580Y-031075
X076840Y-031530
X077475Y-030005
X080535Y-036323
X080618Y-035501
X081081Y-034682
X081102Y-036624
X082835Y-029646
T5
X061571Y-030698
X061571Y-032666
T6
X060508Y-030304
X060508Y-033060
T0
M30
