G04 (created by PCBNEW (2013-may-18)-stable) date Wed 07 May 2014 10:09:02 PM EDT*
%MOIN*%
G04 Gerber Fmt 3.4, Leading zero omitted, Abs format*
%FSLAX34Y34*%
G01*
G70*
G90*
G04 APERTURE LIST*
%ADD10C,0.00590551*%
%ADD11C,0.00787402*%
%ADD12C,0.011811*%
%ADD13C,0.0001*%
%ADD14C,0.125984*%
%ADD15C,0.04*%
%ADD16R,0.04X0.04*%
%ADD17R,0.019685X0.023622*%
%ADD18R,0.023622X0.019685*%
G04 APERTURE END LIST*
G54D10*
G54D11*
X83169Y-29563D02*
X82963Y-29563D01*
X83210Y-29687D02*
X83066Y-29254D01*
X82922Y-29687D01*
X82592Y-29398D02*
X82592Y-29687D01*
X82777Y-29398D02*
X82777Y-29625D01*
X82757Y-29666D01*
X82715Y-29687D01*
X82653Y-29687D01*
X82612Y-29666D01*
X82592Y-29645D01*
X82200Y-29687D02*
X82200Y-29254D01*
X82200Y-29666D02*
X82241Y-29687D01*
X82323Y-29687D01*
X82365Y-29666D01*
X82385Y-29645D01*
X82406Y-29604D01*
X82406Y-29480D01*
X82385Y-29439D01*
X82365Y-29419D01*
X82323Y-29398D01*
X82241Y-29398D01*
X82200Y-29419D01*
X81994Y-29687D02*
X81994Y-29398D01*
X81994Y-29254D02*
X82014Y-29274D01*
X81994Y-29295D01*
X81973Y-29274D01*
X81994Y-29254D01*
X81994Y-29295D01*
X81725Y-29687D02*
X81767Y-29666D01*
X81787Y-29645D01*
X81808Y-29604D01*
X81808Y-29480D01*
X81787Y-29439D01*
X81767Y-29419D01*
X81725Y-29398D01*
X81664Y-29398D01*
X81622Y-29419D01*
X81602Y-29439D01*
X81581Y-29480D01*
X81581Y-29604D01*
X81602Y-29645D01*
X81622Y-29666D01*
X81664Y-29687D01*
X81725Y-29687D01*
X81395Y-29687D02*
X81395Y-29254D01*
X81230Y-29254D01*
X81189Y-29274D01*
X81169Y-29295D01*
X81148Y-29336D01*
X81148Y-29398D01*
X81169Y-29439D01*
X81189Y-29460D01*
X81230Y-29480D01*
X81395Y-29480D01*
X80777Y-29398D02*
X80777Y-29687D01*
X80962Y-29398D02*
X80962Y-29625D01*
X80942Y-29666D01*
X80901Y-29687D01*
X80839Y-29687D01*
X80797Y-29666D01*
X80777Y-29645D01*
X80509Y-29687D02*
X80550Y-29666D01*
X80571Y-29625D01*
X80571Y-29254D01*
X80364Y-29666D02*
X80323Y-29687D01*
X80241Y-29687D01*
X80199Y-29666D01*
X80179Y-29625D01*
X80179Y-29604D01*
X80199Y-29563D01*
X80241Y-29542D01*
X80302Y-29542D01*
X80344Y-29522D01*
X80364Y-29480D01*
X80364Y-29460D01*
X80344Y-29419D01*
X80302Y-29398D01*
X80241Y-29398D01*
X80199Y-29419D01*
X79828Y-29666D02*
X79869Y-29687D01*
X79952Y-29687D01*
X79993Y-29666D01*
X80014Y-29625D01*
X80014Y-29460D01*
X79993Y-29419D01*
X79952Y-29398D01*
X79869Y-29398D01*
X79828Y-29419D01*
X79808Y-29460D01*
X79808Y-29501D01*
X80014Y-29542D01*
X79292Y-29687D02*
X79292Y-29398D01*
X79292Y-29480D02*
X79271Y-29439D01*
X79251Y-29419D01*
X79209Y-29398D01*
X79168Y-29398D01*
X78859Y-29666D02*
X78900Y-29687D01*
X78983Y-29687D01*
X79024Y-29666D01*
X79044Y-29625D01*
X79044Y-29460D01*
X79024Y-29419D01*
X78983Y-29398D01*
X78900Y-29398D01*
X78859Y-29419D01*
X78838Y-29460D01*
X78838Y-29501D01*
X79044Y-29542D01*
X78694Y-29398D02*
X78591Y-29687D01*
X78488Y-29398D01*
X78343Y-29295D02*
X78323Y-29274D01*
X78281Y-29254D01*
X78178Y-29254D01*
X78137Y-29274D01*
X78116Y-29295D01*
X78096Y-29336D01*
X78096Y-29377D01*
X78116Y-29439D01*
X78364Y-29687D01*
X78096Y-29687D01*
X77725Y-29687D02*
X77725Y-29460D01*
X77745Y-29419D01*
X77787Y-29398D01*
X77869Y-29398D01*
X77910Y-29419D01*
X77725Y-29666D02*
X77766Y-29687D01*
X77869Y-29687D01*
X77910Y-29666D01*
X77931Y-29625D01*
X77931Y-29583D01*
X77910Y-29542D01*
X77869Y-29522D01*
X77766Y-29522D01*
X77725Y-29501D01*
X81179Y-29980D02*
X81158Y-29959D01*
X81117Y-29939D01*
X81014Y-29939D01*
X80973Y-29959D01*
X80952Y-29980D01*
X80931Y-30021D01*
X80931Y-30062D01*
X80952Y-30124D01*
X81200Y-30372D01*
X80931Y-30372D01*
X80663Y-29939D02*
X80622Y-29939D01*
X80581Y-29959D01*
X80560Y-29980D01*
X80540Y-30021D01*
X80519Y-30104D01*
X80519Y-30207D01*
X80540Y-30289D01*
X80560Y-30330D01*
X80581Y-30351D01*
X80622Y-30372D01*
X80663Y-30372D01*
X80705Y-30351D01*
X80725Y-30330D01*
X80746Y-30289D01*
X80766Y-30207D01*
X80766Y-30104D01*
X80746Y-30021D01*
X80725Y-29980D01*
X80705Y-29959D01*
X80663Y-29939D01*
X80107Y-30372D02*
X80354Y-30372D01*
X80230Y-30372D02*
X80230Y-29939D01*
X80272Y-30000D01*
X80313Y-30042D01*
X80354Y-30062D01*
X79735Y-30083D02*
X79735Y-30372D01*
X79838Y-29918D02*
X79942Y-30227D01*
X79673Y-30227D01*
G54D12*
X60600Y-32344D02*
X60566Y-32242D01*
X60532Y-32209D01*
X60465Y-32175D01*
X60363Y-32175D01*
X60296Y-32209D01*
X60262Y-32242D01*
X60228Y-32310D01*
X60228Y-32580D01*
X60937Y-32580D01*
X60937Y-32344D01*
X60903Y-32276D01*
X60870Y-32242D01*
X60802Y-32209D01*
X60735Y-32209D01*
X60667Y-32242D01*
X60633Y-32276D01*
X60600Y-32344D01*
X60600Y-32580D01*
X60228Y-31466D02*
X60566Y-31703D01*
X60228Y-31871D02*
X60937Y-31871D01*
X60937Y-31601D01*
X60903Y-31534D01*
X60870Y-31500D01*
X60802Y-31466D01*
X60701Y-31466D01*
X60633Y-31500D01*
X60600Y-31534D01*
X60566Y-31601D01*
X60566Y-31871D01*
X60228Y-31163D02*
X60937Y-31163D01*
X60228Y-30758D01*
X60937Y-30758D01*
G54D13*
G36*
X72752Y-30753D02*
X72407Y-30753D01*
X72062Y-30753D01*
X71998Y-31012D01*
X71962Y-31144D01*
X71932Y-31223D01*
X71902Y-31261D01*
X71868Y-31270D01*
X71836Y-31263D01*
X71813Y-31235D01*
X71797Y-31172D01*
X71783Y-31063D01*
X71774Y-30970D01*
X71756Y-30793D01*
X71740Y-30676D01*
X71725Y-30614D01*
X71708Y-30601D01*
X71689Y-30631D01*
X71683Y-30645D01*
X71655Y-30691D01*
X71605Y-30713D01*
X71513Y-30720D01*
X71487Y-30720D01*
X71421Y-30720D01*
X71372Y-30714D01*
X71336Y-30694D01*
X71312Y-30651D01*
X71297Y-30577D01*
X71287Y-30464D01*
X71281Y-30302D01*
X71276Y-30084D01*
X71275Y-30037D01*
X71269Y-29827D01*
X71262Y-29672D01*
X71251Y-29557D01*
X71235Y-29471D01*
X71213Y-29401D01*
X71192Y-29353D01*
X71080Y-29160D01*
X70950Y-29026D01*
X70791Y-28945D01*
X70593Y-28909D01*
X70485Y-28905D01*
X70265Y-28926D01*
X70090Y-28989D01*
X69948Y-29101D01*
X69829Y-29270D01*
X69779Y-29370D01*
X69746Y-29447D01*
X69725Y-29522D01*
X69712Y-29611D01*
X69706Y-29730D01*
X69705Y-29895D01*
X69705Y-29970D01*
X69709Y-30142D01*
X69718Y-30297D01*
X69730Y-30418D01*
X69744Y-30491D01*
X69746Y-30495D01*
X69784Y-30587D01*
X70168Y-30587D01*
X70338Y-30588D01*
X70452Y-30593D01*
X70520Y-30606D01*
X70552Y-30630D01*
X70559Y-30666D01*
X70555Y-30697D01*
X70563Y-30777D01*
X70597Y-30881D01*
X70646Y-30981D01*
X70693Y-31043D01*
X70806Y-31114D01*
X70962Y-31172D01*
X71136Y-31210D01*
X71274Y-31220D01*
X71452Y-31220D01*
X71452Y-31708D01*
X71452Y-32197D01*
X71321Y-32321D01*
X71315Y-32325D01*
X71315Y-31966D01*
X71314Y-31840D01*
X71311Y-31734D01*
X71302Y-31370D01*
X71102Y-31346D01*
X70864Y-31300D01*
X70682Y-31225D01*
X70551Y-31117D01*
X70464Y-30973D01*
X70434Y-30878D01*
X70399Y-30737D01*
X70137Y-30727D01*
X70010Y-30725D01*
X69909Y-30730D01*
X69853Y-30741D01*
X69848Y-30743D01*
X69854Y-30781D01*
X69891Y-30858D01*
X69953Y-30961D01*
X69981Y-31004D01*
X70069Y-31142D01*
X70123Y-31253D01*
X70151Y-31359D01*
X70160Y-31421D01*
X70205Y-31677D01*
X70281Y-31901D01*
X70384Y-32090D01*
X70507Y-32237D01*
X70646Y-32338D01*
X70795Y-32386D01*
X70950Y-32377D01*
X71045Y-32339D01*
X71129Y-32283D01*
X71217Y-32206D01*
X71228Y-32195D01*
X71269Y-32149D01*
X71295Y-32106D01*
X71309Y-32050D01*
X71315Y-31966D01*
X71315Y-32325D01*
X71212Y-32404D01*
X71078Y-32478D01*
X70943Y-32530D01*
X70831Y-32551D01*
X70821Y-32551D01*
X70758Y-32538D01*
X70664Y-32510D01*
X70636Y-32500D01*
X70452Y-32398D01*
X70294Y-32237D01*
X70165Y-32022D01*
X70068Y-31756D01*
X70003Y-31444D01*
X70002Y-31437D01*
X69973Y-31315D01*
X69925Y-31204D01*
X69904Y-31170D01*
X69845Y-31082D01*
X69777Y-30966D01*
X69740Y-30896D01*
X69674Y-30787D01*
X69620Y-30743D01*
X69578Y-30765D01*
X69548Y-30853D01*
X69540Y-30897D01*
X69505Y-31088D01*
X69465Y-31214D01*
X69419Y-31275D01*
X69391Y-31280D01*
X69355Y-31253D01*
X69328Y-31180D01*
X69309Y-31069D01*
X69285Y-30895D01*
X69268Y-30777D01*
X69254Y-30707D01*
X69240Y-30675D01*
X69223Y-30672D01*
X69201Y-30689D01*
X69189Y-30700D01*
X69149Y-30724D01*
X69085Y-30739D01*
X68985Y-30749D01*
X68836Y-30753D01*
X68724Y-30753D01*
X68319Y-30753D01*
X68319Y-30653D01*
X68319Y-30553D01*
X68681Y-30553D01*
X69044Y-30553D01*
X69079Y-30462D01*
X69109Y-30374D01*
X69144Y-30258D01*
X69159Y-30203D01*
X69194Y-30098D01*
X69231Y-30047D01*
X69268Y-30037D01*
X69316Y-30053D01*
X69349Y-30108D01*
X69370Y-30210D01*
X69380Y-30367D01*
X69382Y-30450D01*
X69384Y-30575D01*
X69391Y-30644D01*
X69404Y-30668D01*
X69427Y-30658D01*
X69446Y-30642D01*
X69510Y-30599D01*
X69550Y-30586D01*
X69577Y-30566D01*
X69578Y-30498D01*
X69573Y-30462D01*
X69530Y-30079D01*
X69535Y-29741D01*
X69589Y-29449D01*
X69692Y-29203D01*
X69839Y-29005D01*
X69980Y-28882D01*
X70124Y-28804D01*
X70292Y-28764D01*
X70484Y-28753D01*
X70738Y-28777D01*
X70948Y-28849D01*
X71121Y-28974D01*
X71260Y-29155D01*
X71353Y-29346D01*
X71385Y-29436D01*
X71408Y-29529D01*
X71423Y-29641D01*
X71434Y-29787D01*
X71441Y-29982D01*
X71442Y-30020D01*
X71448Y-30195D01*
X71455Y-30349D01*
X71462Y-30467D01*
X71469Y-30537D01*
X71471Y-30549D01*
X71498Y-30577D01*
X71534Y-30554D01*
X71571Y-30490D01*
X71598Y-30396D01*
X71602Y-30376D01*
X71638Y-30199D01*
X71680Y-30086D01*
X71731Y-30032D01*
X71767Y-30027D01*
X71802Y-30040D01*
X71826Y-30075D01*
X71843Y-30148D01*
X71858Y-30270D01*
X71862Y-30303D01*
X71878Y-30432D01*
X71897Y-30535D01*
X71916Y-30595D01*
X71920Y-30601D01*
X71948Y-30611D01*
X71952Y-30593D01*
X71974Y-30575D01*
X72043Y-30562D01*
X72167Y-30555D01*
X72351Y-30553D01*
X72352Y-30553D01*
X72752Y-30553D01*
X72752Y-30653D01*
X72752Y-30753D01*
X72752Y-30753D01*
X72752Y-30753D01*
G37*
G54D14*
X83858Y-32952D03*
G54D15*
X84399Y-31435D03*
G54D16*
X84399Y-30935D03*
G54D15*
X62860Y-36010D03*
G54D16*
X62860Y-36510D03*
G54D15*
X64195Y-29325D03*
G54D16*
X63695Y-29325D03*
G54D15*
X84494Y-36442D03*
G54D16*
X84494Y-35942D03*
G54D15*
X84494Y-35062D03*
G54D16*
X84494Y-34562D03*
G54D15*
X84427Y-29269D03*
G54D16*
X84427Y-29769D03*
G54D15*
X67760Y-29340D03*
G54D16*
X67260Y-29340D03*
G54D15*
X66650Y-36120D03*
X66150Y-36120D03*
X65150Y-36120D03*
X65650Y-36120D03*
X64650Y-36120D03*
G54D16*
X64150Y-36120D03*
G54D17*
X81138Y-31129D03*
X81531Y-31129D03*
X81138Y-30811D03*
X81531Y-30811D03*
G54D18*
X79272Y-36142D03*
X79272Y-35749D03*
G54D15*
X75928Y-31298D03*
X75426Y-30759D03*
X62205Y-30816D03*
X73317Y-35649D03*
X73926Y-35658D03*
X61089Y-33509D03*
X81081Y-34682D03*
X80618Y-35501D03*
X80535Y-36323D03*
X81102Y-36624D03*
G54D14*
X61417Y-35157D03*
M02*
