G04 (created by PCBNEW (2013-may-18)-stable) date Sat 28 Jun 2014 08:59:17 PM EDT*
%MOIN*%
G04 Gerber Fmt 3.4, Leading zero omitted, Abs format*
%FSLAX34Y34*%
G01*
G70*
G90*
G04 APERTURE LIST*
%ADD10C,0.00590551*%
%ADD11C,0.011811*%
%ADD12C,0.04*%
%ADD13R,0.04X0.04*%
%ADD14R,0.011811X0.0314961*%
%ADD15C,0.0492*%
%ADD16R,0.063X0.0591*%
%ADD17R,0.0591X0.0157*%
%ADD18C,0.063*%
%ADD19R,0.0314961X0.011811*%
%ADD20R,0.0255906X0.00984252*%
%ADD21R,0.0649606X0.173228*%
%ADD22R,0.00984252X0.0255906*%
%ADD23R,0.173228X0.0649606*%
%ADD24R,0.00984252X0.0275591*%
%ADD25R,0.0925197X0.0629921*%
%ADD26R,0.019685X0.023622*%
%ADD27R,0.023622X0.019685*%
%ADD28R,0.0354331X0.023622*%
%ADD29R,0.0275591X0.0511811*%
%ADD30R,0.0511811X0.0275591*%
%ADD31R,0.0354331X0.0629921*%
%ADD32R,0.102362X0.0354331*%
%ADD33R,0.0354331X0.102362*%
%ADD34R,0.0137795X0.019685*%
%ADD35R,0.0755905X0.0472441*%
%ADD36R,0.0334646X0.0110236*%
%ADD37R,0.0110236X0.0334646*%
%ADD38R,0.106299X0.106299*%
%ADD39R,0.0669291X0.0944882*%
%ADD40R,0.0165354X0.0251968*%
%ADD41R,0.0629921X0.0354331*%
%ADD42R,0.023622X0.0354331*%
%ADD43C,0.0846457*%
%ADD44R,0.0433071X0.0472441*%
%ADD45C,0.09*%
G04 APERTURE END LIST*
G54D10*
G54D11*
X61308Y-36395D02*
X60108Y-36395D01*
X60708Y-36995D02*
X60708Y-35795D01*
G54D12*
X84494Y-35062D03*
G54D13*
X84494Y-34562D03*
G54D14*
X76597Y-32272D03*
X76341Y-32272D03*
X75829Y-32272D03*
X76085Y-32272D03*
X75061Y-32272D03*
X74806Y-32272D03*
X75317Y-32272D03*
X75573Y-32272D03*
X73526Y-32272D03*
X73270Y-32272D03*
X73014Y-32272D03*
X74038Y-32272D03*
X73782Y-32272D03*
X74294Y-32272D03*
X74550Y-32272D03*
X74550Y-35107D03*
X74294Y-35107D03*
X73782Y-35107D03*
X74038Y-35107D03*
X73014Y-35107D03*
X73270Y-35107D03*
X73526Y-35107D03*
X75573Y-35107D03*
X75317Y-35107D03*
X74806Y-35107D03*
X75061Y-35107D03*
X76085Y-35107D03*
X75829Y-35107D03*
X76341Y-35107D03*
X76597Y-35107D03*
G54D15*
X61571Y-32666D03*
G54D16*
X60508Y-32764D03*
X60508Y-30599D03*
X60508Y-32075D03*
G54D17*
X61587Y-31182D03*
X61587Y-31432D03*
X61587Y-31682D03*
X61587Y-31932D03*
X61587Y-32182D03*
G54D18*
X60508Y-33060D03*
X60508Y-30304D03*
G54D16*
X60508Y-31288D03*
G54D15*
X61571Y-30698D03*
G54D14*
X65558Y-34783D03*
X65755Y-34783D03*
X66148Y-34783D03*
X65952Y-34783D03*
X66739Y-34783D03*
X66936Y-34783D03*
X66542Y-34783D03*
X66345Y-34783D03*
X64771Y-34783D03*
X64967Y-34783D03*
X65361Y-34783D03*
X65164Y-34783D03*
X64377Y-34783D03*
X64574Y-34783D03*
X64180Y-34783D03*
X63983Y-34783D03*
X63983Y-30256D03*
X64180Y-30256D03*
X64574Y-30256D03*
X64377Y-30256D03*
X65164Y-30256D03*
X65361Y-30256D03*
X64967Y-30256D03*
X64771Y-30256D03*
X66345Y-30256D03*
X66542Y-30256D03*
X66936Y-30256D03*
X66739Y-30256D03*
X65952Y-30256D03*
X66148Y-30256D03*
X65755Y-30256D03*
X65558Y-30256D03*
G54D19*
X67723Y-31043D03*
X67723Y-31240D03*
X67723Y-31634D03*
X67723Y-31437D03*
X67723Y-32224D03*
X67723Y-32421D03*
X67723Y-32027D03*
X67723Y-31831D03*
X67723Y-33405D03*
X67723Y-33602D03*
X67723Y-33996D03*
X67723Y-33799D03*
X67723Y-33012D03*
X67723Y-33208D03*
X67723Y-32815D03*
X67723Y-32618D03*
X63196Y-32618D03*
X63196Y-32815D03*
X63196Y-33208D03*
X63196Y-33012D03*
X63196Y-33799D03*
X63196Y-33996D03*
X63196Y-33602D03*
X63196Y-33405D03*
X63196Y-31831D03*
X63196Y-32027D03*
X63196Y-32421D03*
X63196Y-32224D03*
X63196Y-31437D03*
X63196Y-31634D03*
X63196Y-31240D03*
X63196Y-31043D03*
G54D12*
X84496Y-31753D03*
G54D13*
X84496Y-31253D03*
G54D12*
X62860Y-36010D03*
G54D13*
X62860Y-36510D03*
G54D12*
X64195Y-29325D03*
G54D13*
X63695Y-29325D03*
G54D12*
X84500Y-36564D03*
G54D13*
X84500Y-36064D03*
G54D12*
X84492Y-29253D03*
G54D13*
X84492Y-29753D03*
G54D12*
X67760Y-29340D03*
G54D13*
X67260Y-29340D03*
G54D12*
X66650Y-36120D03*
X66150Y-36120D03*
X65150Y-36120D03*
X65650Y-36120D03*
X64650Y-36120D03*
G54D13*
X64150Y-36120D03*
G54D20*
X80750Y-30342D03*
X81891Y-30342D03*
X81891Y-30735D03*
X81891Y-30538D03*
X80750Y-31129D03*
X80750Y-30932D03*
X80750Y-30735D03*
X80750Y-30538D03*
X81891Y-30932D03*
X81891Y-31129D03*
X81891Y-31523D03*
X81891Y-31326D03*
X81891Y-31719D03*
X80750Y-31326D03*
X80750Y-31523D03*
X80750Y-31719D03*
G54D21*
X81321Y-31031D03*
G54D22*
X80059Y-34918D03*
X80059Y-36059D03*
X79666Y-36059D03*
X79863Y-36059D03*
X79272Y-34918D03*
X79469Y-34918D03*
X79666Y-34918D03*
X79863Y-34918D03*
X79469Y-36059D03*
X79272Y-36059D03*
X78878Y-36059D03*
X79075Y-36059D03*
X78682Y-36059D03*
X79075Y-34918D03*
X78878Y-34918D03*
X78682Y-34918D03*
G54D23*
X79371Y-35489D03*
G54D24*
X73185Y-30658D03*
X73382Y-30658D03*
X73776Y-30658D03*
X73579Y-30658D03*
X73579Y-29555D03*
X73776Y-29555D03*
X73382Y-29555D03*
G54D25*
X73481Y-30107D03*
G54D24*
X73185Y-29555D03*
G54D26*
X64549Y-35301D03*
X64156Y-35301D03*
X67724Y-30121D03*
X68117Y-30121D03*
G54D27*
X62704Y-33543D03*
X62704Y-33936D03*
G54D26*
X68110Y-35374D03*
X68503Y-35374D03*
X67728Y-35377D03*
X67334Y-35377D03*
G54D27*
X62550Y-32779D03*
X62550Y-33172D03*
X63543Y-36736D03*
X63543Y-36342D03*
X80337Y-31570D03*
X80337Y-31963D03*
G54D26*
X62890Y-29691D03*
X62497Y-29691D03*
X80536Y-32685D03*
X80929Y-32685D03*
X82226Y-31503D03*
X82619Y-31503D03*
X62887Y-29262D03*
X62494Y-29262D03*
X73900Y-29128D03*
X74293Y-29128D03*
G54D27*
X76388Y-31450D03*
X76388Y-31057D03*
G54D26*
X76175Y-31762D03*
X76568Y-31762D03*
G54D27*
X77710Y-32124D03*
X77710Y-31730D03*
G54D26*
X72955Y-31044D03*
X73348Y-31044D03*
X73353Y-31402D03*
X73746Y-31402D03*
G54D27*
X82638Y-30337D03*
X82638Y-30730D03*
X82266Y-30733D03*
X82266Y-30340D03*
X72630Y-29946D03*
X72630Y-29552D03*
G54D26*
X82861Y-31187D03*
X82468Y-31187D03*
G54D27*
X78498Y-31248D03*
X78498Y-30855D03*
G54D26*
X74811Y-31842D03*
X74418Y-31842D03*
G54D27*
X83000Y-30337D03*
X83000Y-30730D03*
G54D26*
X82082Y-29980D03*
X82476Y-29980D03*
X73213Y-28803D03*
X73606Y-28803D03*
X73900Y-28803D03*
X74293Y-28803D03*
X75501Y-31852D03*
X75894Y-31852D03*
G54D27*
X76280Y-30790D03*
X76280Y-30397D03*
X75932Y-30792D03*
X75932Y-30399D03*
G54D26*
X73216Y-29128D03*
X73609Y-29128D03*
G54D27*
X74921Y-36119D03*
X74921Y-36512D03*
G54D26*
X74949Y-31388D03*
X75342Y-31388D03*
X76965Y-32081D03*
X77358Y-32081D03*
G54D27*
X79987Y-30721D03*
X79987Y-31114D03*
G54D26*
X79440Y-34228D03*
X79047Y-34228D03*
X78078Y-34988D03*
X77685Y-34988D03*
X77318Y-35116D03*
X76925Y-35116D03*
X78082Y-35370D03*
X77689Y-35370D03*
X78877Y-34534D03*
X79270Y-34534D03*
G54D27*
X76294Y-36606D03*
X76294Y-36213D03*
X76260Y-35882D03*
X76260Y-35489D03*
X76632Y-36262D03*
X76632Y-35869D03*
X78098Y-36256D03*
X78098Y-35863D03*
X75936Y-36610D03*
X75936Y-36217D03*
X75934Y-35888D03*
X75934Y-35495D03*
G54D26*
X69499Y-31353D03*
X69892Y-31353D03*
X79570Y-36444D03*
X79963Y-36444D03*
X83684Y-37016D03*
X83291Y-37016D03*
X83680Y-36652D03*
X83287Y-36652D03*
X81404Y-35166D03*
X81011Y-35166D03*
X81400Y-35512D03*
X81007Y-35512D03*
X81410Y-35846D03*
X81017Y-35846D03*
X81414Y-36146D03*
X81021Y-36146D03*
X82886Y-34382D03*
X82493Y-34382D03*
X81783Y-34382D03*
X82176Y-34382D03*
X82420Y-31866D03*
X82813Y-31866D03*
G54D27*
X75567Y-36277D03*
X75567Y-35884D03*
X69559Y-36519D03*
X69559Y-36125D03*
X83364Y-31198D03*
X83364Y-30805D03*
X74274Y-29857D03*
X74274Y-29464D03*
X70128Y-29669D03*
X70128Y-30062D03*
G54D26*
X73831Y-31038D03*
X74224Y-31038D03*
G54D27*
X69925Y-32594D03*
X69925Y-32988D03*
X70303Y-32599D03*
X70303Y-32992D03*
X69225Y-33511D03*
X69225Y-33118D03*
G54D26*
X62548Y-32404D03*
X62155Y-32404D03*
X62686Y-32050D03*
X62293Y-32050D03*
X78050Y-34238D03*
X77657Y-34238D03*
X71028Y-29267D03*
X71421Y-29267D03*
G54D27*
X70912Y-31108D03*
X70912Y-30715D03*
G54D26*
X71221Y-30734D03*
X71614Y-30734D03*
G54D27*
X71346Y-30430D03*
X71346Y-30037D03*
G54D26*
X70568Y-30736D03*
X70175Y-30736D03*
X70590Y-31356D03*
X70196Y-31356D03*
X71193Y-31098D03*
X71586Y-31098D03*
X68781Y-31354D03*
X69174Y-31354D03*
X65855Y-29365D03*
X66248Y-29365D03*
X78064Y-34622D03*
X77671Y-34622D03*
X77322Y-34630D03*
X76929Y-34630D03*
G54D27*
X83835Y-31399D03*
X83835Y-31006D03*
G54D28*
X62175Y-32758D03*
X62175Y-33349D03*
X69678Y-29602D03*
X69678Y-30193D03*
X62734Y-31361D03*
X62734Y-30770D03*
G54D29*
X80713Y-34272D03*
X79964Y-34272D03*
X69829Y-29116D03*
X70578Y-29116D03*
X71873Y-28982D03*
X72622Y-28982D03*
G54D30*
X69102Y-29425D03*
X69102Y-30174D03*
G54D29*
X76980Y-32625D03*
X77729Y-32625D03*
X80889Y-29496D03*
X81637Y-29496D03*
X75764Y-29176D03*
X76513Y-29176D03*
G54D30*
X79009Y-31048D03*
X79009Y-31797D03*
X74868Y-30288D03*
X74868Y-31037D03*
G54D31*
X68279Y-30786D03*
X69420Y-30786D03*
G54D32*
X79800Y-29109D03*
X79800Y-30250D03*
G54D33*
X69765Y-33747D03*
X70906Y-33747D03*
G54D32*
X78540Y-32369D03*
X78540Y-33510D03*
G54D34*
X68799Y-32725D03*
X69174Y-32725D03*
X69548Y-32725D03*
G54D35*
X69174Y-32214D03*
G54D34*
X69548Y-31702D03*
X69174Y-31702D03*
X68799Y-31702D03*
G54D12*
X75928Y-31298D03*
X75426Y-30759D03*
X62185Y-30547D03*
X61089Y-33509D03*
X81081Y-34682D03*
X80618Y-35501D03*
X80535Y-36323D03*
X81102Y-36624D03*
G54D36*
X83367Y-35248D03*
X83367Y-35445D03*
X83367Y-35838D03*
X83367Y-35642D03*
X83367Y-36035D03*
G54D37*
X82973Y-34854D03*
X82580Y-34854D03*
X82776Y-34854D03*
X82383Y-34854D03*
X82186Y-34854D03*
X82186Y-36429D03*
X82383Y-36429D03*
X82776Y-36429D03*
X82580Y-36429D03*
X82973Y-36429D03*
G54D36*
X81792Y-36035D03*
X81792Y-35642D03*
X81792Y-35838D03*
X81792Y-35445D03*
X81792Y-35248D03*
G54D38*
X82580Y-35642D03*
G54D39*
X67527Y-36149D03*
X68984Y-36149D03*
G54D30*
X77565Y-30420D03*
X77565Y-31169D03*
G54D27*
X80339Y-30721D03*
X80339Y-31114D03*
G54D40*
X71021Y-30416D03*
X70804Y-30416D03*
X70430Y-30416D03*
X70627Y-30416D03*
X70627Y-29667D03*
X70430Y-29667D03*
X70824Y-29667D03*
G54D41*
X70726Y-30042D03*
G54D40*
X71021Y-29667D03*
G54D28*
X79596Y-31690D03*
X79596Y-31099D03*
G54D42*
X82889Y-32318D03*
X83480Y-32318D03*
X81049Y-32271D03*
X80458Y-32271D03*
X81858Y-32293D03*
X82449Y-32293D03*
G54D43*
X61417Y-35157D03*
G54D26*
X62887Y-28827D03*
X62494Y-28827D03*
G54D30*
X62002Y-29692D03*
X60683Y-29692D03*
X60683Y-29259D03*
X62002Y-29259D03*
X62002Y-28825D03*
X60683Y-28825D03*
G54D27*
X83381Y-30066D03*
X83381Y-30460D03*
G54D44*
X72059Y-35503D03*
X72059Y-34598D03*
X71059Y-34598D03*
X71059Y-35503D03*
G54D26*
X72027Y-35976D03*
X72421Y-35976D03*
G54D45*
X71743Y-32284D03*
G54D27*
X83307Y-34476D03*
X83307Y-34082D03*
G54D12*
X70763Y-32559D03*
X70972Y-31551D03*
M02*
