G04 #@! TF.FileFunction,Legend,Top*
%FSLAX46Y46*%
G04 Gerber Fmt 4.6, Leading zero omitted, Abs format (unit mm)*
G04 Created by KiCad (PCBNEW 4.0.4-stable) date Tue Nov 15 23:40:00 2016*
%MOMM*%
%LPD*%
G01*
G04 APERTURE LIST*
%ADD10C,0.150000*%
%ADD11C,0.200000*%
%ADD12C,0.250000*%
%ADD13C,0.184150*%
G04 APERTURE END LIST*
D10*
D11*
X192957643Y-75393605D02*
X193224310Y-76193605D01*
X193490977Y-75393605D01*
X194214786Y-76117414D02*
X194176691Y-76155510D01*
X194062405Y-76193605D01*
X193986215Y-76193605D01*
X193871929Y-76155510D01*
X193795738Y-76079319D01*
X193757643Y-76003129D01*
X193719548Y-75850748D01*
X193719548Y-75736462D01*
X193757643Y-75584081D01*
X193795738Y-75507890D01*
X193871929Y-75431700D01*
X193986215Y-75393605D01*
X194062405Y-75393605D01*
X194176691Y-75431700D01*
X194214786Y-75469795D01*
X194710024Y-75393605D02*
X194862405Y-75393605D01*
X194938596Y-75431700D01*
X195014786Y-75507890D01*
X195052881Y-75660271D01*
X195052881Y-75926938D01*
X195014786Y-76079319D01*
X194938596Y-76155510D01*
X194862405Y-76193605D01*
X194710024Y-76193605D01*
X194633834Y-76155510D01*
X194557643Y-76079319D01*
X194519548Y-75926938D01*
X194519548Y-75660271D01*
X194557643Y-75507890D01*
X194633834Y-75431700D01*
X194710024Y-75393605D01*
X195395738Y-76193605D02*
X195395738Y-75393605D01*
X195662405Y-75965033D01*
X195929072Y-75393605D01*
X195929072Y-76193605D01*
X191668691Y-74555333D02*
X192049643Y-74555333D01*
X191592500Y-74783905D02*
X191859167Y-73983905D01*
X192125834Y-74783905D01*
X192811548Y-74022000D02*
X192735357Y-73983905D01*
X192621072Y-73983905D01*
X192506786Y-74022000D01*
X192430595Y-74098190D01*
X192392500Y-74174381D01*
X192354405Y-74326762D01*
X192354405Y-74441048D01*
X192392500Y-74593429D01*
X192430595Y-74669619D01*
X192506786Y-74745810D01*
X192621072Y-74783905D01*
X192697262Y-74783905D01*
X192811548Y-74745810D01*
X192849643Y-74707714D01*
X192849643Y-74441048D01*
X192697262Y-74441048D01*
X193192500Y-74783905D02*
X193192500Y-73983905D01*
X193649643Y-74783905D01*
X193649643Y-73983905D01*
X194030595Y-74783905D02*
X194030595Y-73983905D01*
X194221071Y-73983905D01*
X194335357Y-74022000D01*
X194411548Y-74098190D01*
X194449643Y-74174381D01*
X194487738Y-74326762D01*
X194487738Y-74441048D01*
X194449643Y-74593429D01*
X194411548Y-74669619D01*
X194335357Y-74745810D01*
X194221071Y-74783905D01*
X194030595Y-74783905D01*
X194640119Y-74860095D02*
X195249643Y-74860095D01*
X195440119Y-74783905D02*
X195440119Y-73983905D01*
X195821071Y-74783905D02*
X195821071Y-73983905D01*
X196278214Y-74783905D01*
X196278214Y-73983905D01*
D12*
X181638096Y-73700000D02*
X181542858Y-73652381D01*
X181400001Y-73652381D01*
X181257143Y-73700000D01*
X181161905Y-73795238D01*
X181114286Y-73890476D01*
X181066667Y-74080952D01*
X181066667Y-74223810D01*
X181114286Y-74414286D01*
X181161905Y-74509524D01*
X181257143Y-74604762D01*
X181400001Y-74652381D01*
X181495239Y-74652381D01*
X181638096Y-74604762D01*
X181685715Y-74557143D01*
X181685715Y-74223810D01*
X181495239Y-74223810D01*
X182114286Y-74652381D02*
X182114286Y-73652381D01*
X182685715Y-74652381D01*
X182685715Y-73652381D01*
X183161905Y-74652381D02*
X183161905Y-73652381D01*
X183400000Y-73652381D01*
X183542858Y-73700000D01*
X183638096Y-73795238D01*
X183685715Y-73890476D01*
X183733334Y-74080952D01*
X183733334Y-74223810D01*
X183685715Y-74414286D01*
X183638096Y-74509524D01*
X183542858Y-74604762D01*
X183400000Y-74652381D01*
X183161905Y-74652381D01*
D11*
X157181600Y-85921805D02*
X157181600Y-85121805D01*
X157562552Y-85921805D02*
X157562552Y-85121805D01*
X157753028Y-85121805D01*
X157867314Y-85159900D01*
X157943505Y-85236090D01*
X157981600Y-85312281D01*
X158019695Y-85464662D01*
X158019695Y-85578948D01*
X157981600Y-85731329D01*
X157943505Y-85807519D01*
X157867314Y-85883710D01*
X157753028Y-85921805D01*
X157562552Y-85921805D01*
X210992857Y-73461905D02*
X210992857Y-72661905D01*
X211259524Y-73233333D01*
X211526191Y-72661905D01*
X211526191Y-73461905D01*
X211907143Y-73461905D02*
X211907143Y-72661905D01*
X212745238Y-73385714D02*
X212707143Y-73423810D01*
X212592857Y-73461905D01*
X212516667Y-73461905D01*
X212402381Y-73423810D01*
X212326190Y-73347619D01*
X212288095Y-73271429D01*
X212250000Y-73119048D01*
X212250000Y-73004762D01*
X212288095Y-72852381D01*
X212326190Y-72776190D01*
X212402381Y-72700000D01*
X212516667Y-72661905D01*
X212592857Y-72661905D01*
X212707143Y-72700000D01*
X212745238Y-72738095D01*
D13*
X178824620Y-80546624D02*
X178684315Y-80546624D01*
X178614163Y-80581700D01*
X178579086Y-80616776D01*
X178508934Y-80722005D01*
X178473858Y-80862310D01*
X178473858Y-81142919D01*
X178508934Y-81213071D01*
X178544010Y-81248148D01*
X178614163Y-81283224D01*
X178754467Y-81283224D01*
X178824620Y-81248148D01*
X178859696Y-81213071D01*
X178894772Y-81142919D01*
X178894772Y-80967538D01*
X178859696Y-80897386D01*
X178824620Y-80862310D01*
X178754467Y-80827233D01*
X178614163Y-80827233D01*
X178544010Y-80862310D01*
X178508934Y-80897386D01*
X178473858Y-80967538D01*
X179105229Y-80546624D02*
X179350763Y-81283224D01*
X179596296Y-80546624D01*
X180326696Y-83543624D02*
X179975934Y-83543624D01*
X179940858Y-83894386D01*
X179975934Y-83859310D01*
X180046086Y-83824233D01*
X180221467Y-83824233D01*
X180291620Y-83859310D01*
X180326696Y-83894386D01*
X180361772Y-83964538D01*
X180361772Y-84139919D01*
X180326696Y-84210071D01*
X180291620Y-84245148D01*
X180221467Y-84280224D01*
X180046086Y-84280224D01*
X179975934Y-84245148D01*
X179940858Y-84210071D01*
X180572229Y-83543624D02*
X180817763Y-84280224D01*
X181063296Y-83543624D01*
X204927995Y-89233224D02*
X204682462Y-88882462D01*
X204507081Y-89233224D02*
X204507081Y-88496624D01*
X204787690Y-88496624D01*
X204857843Y-88531700D01*
X204892919Y-88566776D01*
X204927995Y-88636929D01*
X204927995Y-88742157D01*
X204892919Y-88812310D01*
X204857843Y-88847386D01*
X204787690Y-88882462D01*
X204507081Y-88882462D01*
X204737996Y-94013224D02*
X204387234Y-94013224D01*
X204387234Y-93276624D01*
X191492005Y-77213224D02*
X191141243Y-77213224D01*
X191141243Y-76476624D01*
X191737538Y-76932614D02*
X192298757Y-76932614D01*
X193408472Y-80965524D02*
X193057043Y-80965524D01*
X193057043Y-80228924D01*
X193654472Y-80684914D02*
X194216758Y-80684914D01*
X193935615Y-80965524D02*
X193935615Y-80404305D01*
D12*
X169601905Y-93370000D02*
X169506667Y-93322381D01*
X169363810Y-93322381D01*
X169220952Y-93370000D01*
X169125714Y-93465238D01*
X169078095Y-93560476D01*
X169030476Y-93750952D01*
X169030476Y-93893810D01*
X169078095Y-94084286D01*
X169125714Y-94179524D01*
X169220952Y-94274762D01*
X169363810Y-94322381D01*
X169459048Y-94322381D01*
X169601905Y-94274762D01*
X169649524Y-94227143D01*
X169649524Y-93893810D01*
X169459048Y-93893810D01*
X167646667Y-93322381D02*
X168265715Y-93322381D01*
X167932381Y-93703333D01*
X168075239Y-93703333D01*
X168170477Y-93750952D01*
X168218096Y-93798571D01*
X168265715Y-93893810D01*
X168265715Y-94131905D01*
X168218096Y-94227143D01*
X168170477Y-94274762D01*
X168075239Y-94322381D01*
X167789524Y-94322381D01*
X167694286Y-94274762D01*
X167646667Y-94227143D01*
X167089524Y-94227143D02*
X167041905Y-94274762D01*
X166899048Y-94322381D01*
X166803810Y-94322381D01*
X166660952Y-94274762D01*
X166565714Y-94179524D01*
X166518095Y-94084286D01*
X166470476Y-93893810D01*
X166470476Y-93750952D01*
X166518095Y-93560476D01*
X166565714Y-93465238D01*
X166660952Y-93370000D01*
X166803810Y-93322381D01*
X166899048Y-93322381D01*
X167041905Y-93370000D01*
X167089524Y-93417619D01*
X165364762Y-93292381D02*
X165555239Y-93292381D01*
X165650477Y-93340000D01*
X165745715Y-93435238D01*
X165793334Y-93625714D01*
X165793334Y-93959048D01*
X165745715Y-94149524D01*
X165650477Y-94244762D01*
X165555239Y-94292381D01*
X165364762Y-94292381D01*
X165269524Y-94244762D01*
X165174286Y-94149524D01*
X165126667Y-93959048D01*
X165126667Y-93625714D01*
X165174286Y-93435238D01*
X165269524Y-93340000D01*
X165364762Y-93292381D01*
X164200000Y-94302381D02*
X164200000Y-93302381D01*
X163259524Y-94242381D02*
X162926190Y-93766190D01*
X162688095Y-94242381D02*
X162688095Y-93242381D01*
X163069048Y-93242381D01*
X163164286Y-93290000D01*
X163211905Y-93337619D01*
X163259524Y-93432857D01*
X163259524Y-93575714D01*
X163211905Y-93670952D01*
X163164286Y-93718571D01*
X163069048Y-93766190D01*
X162688095Y-93766190D01*
X214063628Y-72791629D02*
X214825533Y-72791629D01*
X214444581Y-73172581D02*
X214444581Y-72410676D01*
X214229048Y-77541429D02*
X214990953Y-77541429D01*
X170139048Y-73001429D02*
X170900953Y-73001429D01*
X170520001Y-73382381D02*
X170520001Y-72620476D01*
X172139048Y-73001429D02*
X172900953Y-73001429D01*
X161253333Y-72332381D02*
X161824762Y-72332381D01*
X161539047Y-73332381D02*
X161539047Y-72332381D01*
X163491429Y-73332381D02*
X163158095Y-72856190D01*
X162920000Y-73332381D02*
X162920000Y-72332381D01*
X163300953Y-72332381D01*
X163396191Y-72380000D01*
X163443810Y-72427619D01*
X163491429Y-72522857D01*
X163491429Y-72665714D01*
X163443810Y-72760952D01*
X163396191Y-72808571D01*
X163300953Y-72856190D01*
X162920000Y-72856190D01*
D10*
X180525000Y-82975000D02*
X180525000Y-81075000D01*
X181975000Y-82975000D02*
X181975000Y-81075000D01*
X160300000Y-85550000D02*
X161400000Y-86650000D01*
X161400000Y-86650000D02*
X169700000Y-86650000D01*
X169700000Y-86650000D02*
X169700000Y-77250000D01*
X169700000Y-77250000D02*
X160300000Y-77250000D01*
X160300000Y-77250000D02*
X160300000Y-85550000D01*
X194467795Y-83572600D02*
G75*
G03X194467795Y-83572600I-360555J0D01*
G01*
X194857240Y-88372600D02*
X185157240Y-88372600D01*
X185157240Y-88372600D02*
X185157240Y-82772600D01*
X185157240Y-82772600D02*
X194857240Y-82772600D01*
X194857240Y-82772600D02*
X194857240Y-88372600D01*
X164625000Y-88150000D02*
X164625000Y-89150000D01*
X165375000Y-88150000D02*
X165375000Y-89150000D01*
X159623000Y-85985000D02*
X158623000Y-85985000D01*
X159623000Y-86735000D02*
X158623000Y-86735000D01*
X164285300Y-89769000D02*
X159285300Y-89769000D01*
X159285300Y-89769000D02*
X159285300Y-87269000D01*
X159285300Y-87269000D02*
X164285300Y-87269000D01*
X164285300Y-87269000D02*
X164285300Y-89769000D01*
X155875000Y-86925000D02*
X157775000Y-86925000D01*
X155875000Y-88375000D02*
X157775000Y-88375000D01*
X211335000Y-74390000D02*
X211335000Y-75390000D01*
X212085000Y-74390000D02*
X212085000Y-75390000D01*
X207160000Y-74395000D02*
X205660000Y-74395000D01*
X207160000Y-75445000D02*
X205660000Y-75445000D01*
X211195000Y-78056360D02*
X211195000Y-77056360D01*
X210445000Y-78056360D02*
X210445000Y-77056360D01*
X199300000Y-76845600D02*
X199300000Y-74945600D01*
X200750000Y-76845600D02*
X200750000Y-74945600D01*
X205073600Y-75303000D02*
X205073600Y-74303000D01*
X204323600Y-75303000D02*
X204323600Y-74303000D01*
X198037100Y-76741400D02*
X198037100Y-77741400D01*
X198787100Y-76741400D02*
X198787100Y-77741400D01*
X209469100Y-79589980D02*
X210469100Y-79589980D01*
X209469100Y-78839980D02*
X210469100Y-78839980D01*
X187877800Y-79570200D02*
X187877800Y-78570200D01*
X187127800Y-79570200D02*
X187127800Y-78570200D01*
X186075000Y-79400000D02*
X186075000Y-78400000D01*
X185325000Y-79400000D02*
X185325000Y-78400000D01*
X201454100Y-80738600D02*
X201454100Y-79738600D01*
X200704100Y-80738600D02*
X200704100Y-79738600D01*
X202625000Y-79738600D02*
X202625000Y-80738600D01*
X203375000Y-79738600D02*
X203375000Y-80738600D01*
X197406700Y-83592500D02*
X195506700Y-83592500D01*
X197406700Y-82142500D02*
X195506700Y-82142500D01*
X196491480Y-81110740D02*
X195491480Y-81110740D01*
X196491480Y-81860740D02*
X195491480Y-81860740D01*
X158819360Y-78157640D02*
X158819360Y-79657640D01*
X159869360Y-78157640D02*
X159869360Y-79657640D01*
X168190800Y-75583700D02*
X167190800Y-75583700D01*
X168190800Y-76333700D02*
X167190800Y-76333700D01*
X178299490Y-80019240D02*
X179299490Y-80019240D01*
X178299490Y-79269240D02*
X179299490Y-79269240D01*
X178244880Y-78444440D02*
X179244880Y-78444440D01*
X178244880Y-77694440D02*
X179244880Y-77694440D01*
X181830600Y-78613920D02*
X180830600Y-78613920D01*
X181830600Y-79363920D02*
X180830600Y-79363920D01*
X178500120Y-76359640D02*
X178500120Y-75359640D01*
X177750120Y-76359640D02*
X177750120Y-75359640D01*
X177357120Y-76440920D02*
X177357120Y-75440920D01*
X176607120Y-76440920D02*
X176607120Y-75440920D01*
X174794080Y-76617000D02*
X174794080Y-74717000D01*
X176244080Y-76617000D02*
X176244080Y-74717000D01*
X175704120Y-79264160D02*
X174704120Y-79264160D01*
X175704120Y-80014160D02*
X174704120Y-80014160D01*
X177527840Y-79261620D02*
X176527840Y-79261620D01*
X177527840Y-80011620D02*
X176527840Y-80011620D01*
X178175000Y-82800000D02*
X178175000Y-81800000D01*
X177425000Y-82800000D02*
X177425000Y-81800000D01*
X179075000Y-82800000D02*
X179075000Y-81800000D01*
X178325000Y-82800000D02*
X178325000Y-81800000D01*
X176150000Y-83875000D02*
X174650000Y-83875000D01*
X176150000Y-84925000D02*
X174650000Y-84925000D01*
X200779760Y-87314120D02*
X201779760Y-87314120D01*
X200779760Y-86564120D02*
X201779760Y-86564120D01*
X201347960Y-87341360D02*
X200347960Y-87341360D01*
X201347960Y-88091360D02*
X200347960Y-88091360D01*
X197993920Y-91092400D02*
X197993920Y-92092400D01*
X198743920Y-91092400D02*
X198743920Y-92092400D01*
X203108180Y-92192760D02*
X202108180Y-92192760D01*
X203108180Y-92942760D02*
X202108180Y-92942760D01*
X197249160Y-87339520D02*
X198249160Y-87339520D01*
X197249160Y-86589520D02*
X198249160Y-86589520D01*
X197330440Y-90214800D02*
X198330440Y-90214800D01*
X197330440Y-89464800D02*
X198330440Y-89464800D01*
X194270280Y-91107640D02*
X194270280Y-92107640D01*
X195020280Y-91107640D02*
X195020280Y-92107640D01*
X191565180Y-91145740D02*
X191565180Y-92145740D01*
X192315180Y-91145740D02*
X192315180Y-92145740D01*
X205768320Y-89475000D02*
X206768320Y-89475000D01*
X205768320Y-88725000D02*
X206768320Y-88725000D01*
X205783560Y-91475000D02*
X206783560Y-91475000D01*
X205783560Y-90725000D02*
X206783560Y-90725000D01*
X205758160Y-90475000D02*
X206758160Y-90475000D01*
X205758160Y-89725000D02*
X206758160Y-89725000D01*
X205793720Y-92425000D02*
X206793720Y-92425000D01*
X205793720Y-91675000D02*
X206793720Y-91675000D01*
X208729200Y-86955280D02*
X207729200Y-86955280D01*
X208729200Y-87705280D02*
X207729200Y-87705280D01*
X209532600Y-87705280D02*
X210532600Y-87705280D01*
X209532600Y-86955280D02*
X210532600Y-86955280D01*
X203136060Y-86325880D02*
X205036060Y-86325880D01*
X203136060Y-87775880D02*
X205036060Y-87775880D01*
X210770000Y-94555000D02*
X211770000Y-94555000D01*
X210770000Y-93805000D02*
X211770000Y-93805000D01*
X211450000Y-93625000D02*
X212450000Y-93625000D01*
X211450000Y-92875000D02*
X212450000Y-92875000D01*
X204436060Y-79031720D02*
X204436060Y-78031720D01*
X203686060Y-79031720D02*
X203686060Y-78031720D01*
X212165000Y-77370000D02*
X212165000Y-76370000D01*
X211415000Y-77370000D02*
X211415000Y-76370000D01*
X182100000Y-86175000D02*
X181100000Y-86175000D01*
X182100000Y-86925000D02*
X181100000Y-86925000D01*
X209532600Y-86747700D02*
X210532600Y-86747700D01*
X209532600Y-85997700D02*
X210532600Y-85997700D01*
X154825000Y-86725000D02*
X152925000Y-86725000D01*
X154825000Y-85275000D02*
X152925000Y-85275000D01*
X153800000Y-88725000D02*
X152800000Y-88725000D01*
X153800000Y-89475000D02*
X152800000Y-89475000D01*
X154336620Y-72700000D02*
X157336620Y-72700000D01*
X157336620Y-72700000D02*
X157336620Y-75900000D01*
X157336620Y-75900000D02*
X154336620Y-75900000D01*
X154336620Y-75900000D02*
X154336620Y-72700000D01*
X154836620Y-72000000D02*
G75*
G03X154836620Y-72000000I-250000J0D01*
G01*
X154875000Y-88475000D02*
X152975000Y-88475000D01*
X154875000Y-87025000D02*
X152975000Y-87025000D01*
X171475400Y-75158600D02*
X170205400Y-75158600D01*
X170205400Y-73888600D02*
X171475400Y-73888600D01*
X171475400Y-73761600D02*
X170205400Y-73761600D01*
X170205400Y-73634600D02*
X171475400Y-73634600D01*
X171475400Y-75285600D02*
X170205400Y-75285600D01*
X170205400Y-75412600D02*
X171348400Y-75412600D01*
X170205400Y-73507600D02*
X170205400Y-75539600D01*
X169951400Y-75539600D02*
X169951400Y-73507600D01*
X171475400Y-73507600D02*
X171475400Y-75539600D01*
X170078400Y-73507600D02*
X170078400Y-75539600D01*
X169824400Y-73507600D02*
X173126400Y-73507600D01*
X173126400Y-73507600D02*
X173126400Y-75539600D01*
X173126400Y-75539600D02*
X169824400Y-75539600D01*
X169824400Y-75539600D02*
X169824400Y-73507600D01*
X179243160Y-74679640D02*
X177343160Y-74679640D01*
X179243160Y-73229640D02*
X177343160Y-73229640D01*
X163576000Y-92379800D02*
X162306000Y-92379800D01*
X162306000Y-91109800D02*
X163576000Y-91109800D01*
X163576000Y-90982800D02*
X162306000Y-90982800D01*
X162306000Y-90855800D02*
X163576000Y-90855800D01*
X163576000Y-92506800D02*
X162306000Y-92506800D01*
X162306000Y-92633800D02*
X163449000Y-92633800D01*
X162306000Y-90728800D02*
X162306000Y-92760800D01*
X162052000Y-92760800D02*
X162052000Y-90728800D01*
X163576000Y-90728800D02*
X163576000Y-92760800D01*
X162179000Y-90728800D02*
X162179000Y-92760800D01*
X161925000Y-90728800D02*
X170307000Y-90728800D01*
X170307000Y-90728800D02*
X170307000Y-92760800D01*
X170307000Y-92760800D02*
X161925000Y-92760800D01*
X161925000Y-92760800D02*
X161925000Y-90728800D01*
X210347180Y-80564640D02*
X209347180Y-80564640D01*
X210347180Y-81314640D02*
X209347180Y-81314640D01*
X199009920Y-78372080D02*
X199009920Y-79372080D01*
X199759920Y-78372080D02*
X199759920Y-79372080D01*
X203435300Y-79036800D02*
X203435300Y-78036800D01*
X202685300Y-79036800D02*
X202685300Y-78036800D01*
X208580640Y-77063980D02*
X208580640Y-78063980D01*
X209330640Y-77063980D02*
X209330640Y-78063980D01*
X211369560Y-78245080D02*
X211369560Y-79245080D01*
X212119560Y-78245080D02*
X212119560Y-79245080D01*
X209854420Y-79642620D02*
X208854420Y-79642620D01*
X209854420Y-80392620D02*
X208854420Y-80392620D01*
X202406600Y-80725900D02*
X202406600Y-79725900D01*
X201656600Y-80725900D02*
X201656600Y-79725900D01*
X209490000Y-75775000D02*
X208490000Y-75775000D01*
X209490000Y-76525000D02*
X208490000Y-76525000D01*
X203575000Y-79750000D02*
X203575000Y-80750000D01*
X204325000Y-79750000D02*
X204325000Y-80750000D01*
X192492280Y-77213840D02*
X192492280Y-78213840D01*
X193242280Y-77213840D02*
X193242280Y-78213840D01*
X193376200Y-77208760D02*
X193376200Y-78208760D01*
X194126200Y-77208760D02*
X194126200Y-78208760D01*
X161025000Y-92310000D02*
X161025000Y-93310000D01*
X161775000Y-92310000D02*
X161775000Y-93310000D01*
X190674340Y-92742640D02*
X190674340Y-91742640D01*
X189924340Y-92742640D02*
X189924340Y-91742640D01*
X176305000Y-91760000D02*
X176305000Y-92760000D01*
X177055000Y-91760000D02*
X177055000Y-92760000D01*
X158750000Y-75775000D02*
X159750000Y-75775000D01*
X158750000Y-75025000D02*
X159750000Y-75025000D01*
X158735140Y-74700480D02*
X159735140Y-74700480D01*
X158735140Y-73950480D02*
X159735140Y-73950480D01*
X179741480Y-78016480D02*
X179741480Y-79016480D01*
X180491480Y-78016480D02*
X180491480Y-79016480D01*
X181901720Y-77689360D02*
X180901720Y-77689360D01*
X181901720Y-78439360D02*
X180901720Y-78439360D01*
X180843840Y-76294360D02*
X180843840Y-77294360D01*
X181593840Y-76294360D02*
X181593840Y-77294360D01*
X180075000Y-73500000D02*
X180075000Y-74500000D01*
X180825000Y-73500000D02*
X180825000Y-74500000D01*
X168272080Y-74212100D02*
X167272080Y-74212100D01*
X168272080Y-74962100D02*
X167272080Y-74962100D01*
X158700000Y-73575000D02*
X159700000Y-73575000D01*
X158700000Y-72825000D02*
X159700000Y-72825000D01*
X195400040Y-88335200D02*
X196400040Y-88335200D01*
X195400040Y-87585200D02*
X196400040Y-87585200D01*
X195389880Y-89569640D02*
X196389880Y-89569640D01*
X195389880Y-88819640D02*
X196389880Y-88819640D01*
X193325400Y-90142440D02*
X193325400Y-91142440D01*
X194075400Y-90142440D02*
X194075400Y-91142440D01*
X192497360Y-90157680D02*
X192497360Y-91157680D01*
X193247360Y-90157680D02*
X193247360Y-91157680D01*
X197284720Y-88314880D02*
X198284720Y-88314880D01*
X197284720Y-87564880D02*
X198284720Y-87564880D01*
X197320280Y-89244520D02*
X198320280Y-89244520D01*
X197320280Y-88494520D02*
X198320280Y-88494520D01*
X193411760Y-91981400D02*
X193411760Y-92981400D01*
X194161760Y-91981400D02*
X194161760Y-92981400D01*
X192502440Y-91991560D02*
X192502440Y-92991560D01*
X193252440Y-91991560D02*
X193252440Y-92991560D01*
X210275520Y-78056360D02*
X210275520Y-77056360D01*
X209525520Y-78056360D02*
X209525520Y-77056360D01*
X177951960Y-80123560D02*
G75*
G03X177951960Y-80123560I-250000J0D01*
G01*
X177151960Y-83473560D02*
X174251960Y-83473560D01*
X174251960Y-83473560D02*
X174251960Y-80173560D01*
X174251960Y-80173560D02*
X177151960Y-80173560D01*
X177151960Y-80173560D02*
X177151960Y-83473560D01*
X198825947Y-91042060D02*
G75*
G03X198825947Y-91042060I-223607J0D01*
G01*
X199102340Y-88642060D02*
X199102340Y-91642060D01*
X199102340Y-91642060D02*
X204102340Y-91642060D01*
X204102340Y-91642060D02*
X204102340Y-88642060D01*
X204102340Y-88642060D02*
X199102340Y-88642060D01*
X207753200Y-88530680D02*
X211753200Y-88530680D01*
X211753200Y-88530680D02*
X211753200Y-92530680D01*
X211753200Y-92530680D02*
X207753200Y-92530680D01*
X207753200Y-92530680D02*
X207753200Y-88530680D01*
X207503200Y-88030680D02*
G75*
G03X207503200Y-88030680I-250000J0D01*
G01*
X178500000Y-90450000D02*
X183500000Y-90450000D01*
X183500000Y-90450000D02*
X183500000Y-87250000D01*
X183500000Y-87250000D02*
X178500000Y-87250000D01*
X178500000Y-87250000D02*
X178500000Y-90450000D01*
X179300000Y-91850000D02*
G75*
G03X179300000Y-91850000I-500000J0D01*
G01*
X162400000Y-75285000D02*
X161130000Y-75285000D01*
X161130000Y-74015000D02*
X162400000Y-74015000D01*
X162400000Y-73888000D02*
X161130000Y-73888000D01*
X161130000Y-73761000D02*
X162400000Y-73761000D01*
X162400000Y-75412000D02*
X161130000Y-75412000D01*
X161130000Y-75539000D02*
X162273000Y-75539000D01*
X161130000Y-73634000D02*
X161130000Y-75666000D01*
X160876000Y-75666000D02*
X160876000Y-73634000D01*
X162400000Y-73634000D02*
X162400000Y-75666000D01*
X161003000Y-73634000D02*
X161003000Y-75666000D01*
X160749000Y-73634000D02*
X164051000Y-73634000D01*
X164051000Y-73634000D02*
X164051000Y-75666000D01*
X164051000Y-75666000D02*
X160749000Y-75666000D01*
X160749000Y-75666000D02*
X160749000Y-73634000D01*
X156875000Y-89875000D02*
X158775000Y-89875000D01*
X156875000Y-91325000D02*
X158775000Y-91325000D01*
X158725000Y-92975000D02*
X156825000Y-92975000D01*
X158725000Y-91525000D02*
X156825000Y-91525000D01*
X158380000Y-93500000D02*
X158150000Y-93270000D01*
X158150000Y-93270000D02*
X157220000Y-93270000D01*
X157220000Y-93270000D02*
X157220000Y-94130000D01*
X157220000Y-94130000D02*
X158380000Y-94130000D01*
X158380000Y-94130000D02*
X158380000Y-93500000D01*
X191400000Y-80625000D02*
X190400000Y-80625000D01*
X191400000Y-81375000D02*
X190400000Y-81375000D01*
X211790000Y-81715000D02*
X210790000Y-81715000D01*
X211790000Y-82465000D02*
X210790000Y-82465000D01*
X209171160Y-81649220D02*
X208171160Y-81649220D01*
X209171160Y-82399220D02*
X208171160Y-82399220D01*
X198774400Y-79392400D02*
X198774400Y-78392400D01*
X198024400Y-79392400D02*
X198024400Y-78392400D01*
X178769040Y-75294180D02*
X178769040Y-77306680D01*
X178769040Y-77306680D02*
X178906540Y-77294180D01*
X178906540Y-77294180D02*
X178919040Y-75319180D01*
X178919040Y-75319180D02*
X179031540Y-75319180D01*
X179031540Y-75319180D02*
X179031540Y-77256680D01*
X178644040Y-75306680D02*
X180644040Y-75306680D01*
X180644040Y-75306680D02*
X180644040Y-77306680D01*
X180644040Y-77306680D02*
X178644040Y-77306680D01*
X178644040Y-77306680D02*
X178644040Y-75306680D01*
X207823607Y-81800000D02*
G75*
G03X207823607Y-81800000I-223607J0D01*
G01*
X205200000Y-81300000D02*
X208200000Y-81300000D01*
X208200000Y-81300000D02*
X208200000Y-76300000D01*
X208200000Y-76300000D02*
X205200000Y-76300000D01*
X205200000Y-76300000D02*
X205200000Y-81300000D01*
X175804000Y-78921440D02*
X173904000Y-78921440D01*
X175804000Y-77471440D02*
X173904000Y-77471440D01*
X190325000Y-78775000D02*
X188425000Y-78775000D01*
X190325000Y-77325000D02*
X188425000Y-77325000D01*
X217560000Y-70780000D02*
X213360000Y-70780000D01*
X213360000Y-70780000D02*
X213360000Y-79780000D01*
X213360000Y-79780000D02*
X217560000Y-79780000D01*
X217560000Y-79780000D02*
X217560000Y-78330000D01*
X217560000Y-78330000D02*
X217560000Y-70780000D01*
X217560000Y-79800000D02*
X213360000Y-79800000D01*
X213360000Y-79800000D02*
X213360000Y-88800000D01*
X213360000Y-88800000D02*
X217560000Y-88800000D01*
X217560000Y-88800000D02*
X217560000Y-87350000D01*
X217560000Y-87350000D02*
X217560000Y-79800000D01*
X217560000Y-88870000D02*
X213360000Y-88870000D01*
X213360000Y-88870000D02*
X213360000Y-97870000D01*
X213360000Y-97870000D02*
X217560000Y-97870000D01*
X217560000Y-97870000D02*
X217560000Y-96420000D01*
X217560000Y-96420000D02*
X217560000Y-88870000D01*
X191525000Y-80525000D02*
X189625000Y-80525000D01*
X191525000Y-79075000D02*
X189625000Y-79075000D01*
X204017500Y-81400300D02*
X203017500Y-81400300D01*
X204017500Y-82150300D02*
X203017500Y-82150300D01*
X195154900Y-77716000D02*
X195154900Y-76716000D01*
X194404900Y-77716000D02*
X194404900Y-76716000D01*
X156833000Y-85450000D02*
G75*
G03X156833000Y-85450000I-433000J0D01*
G01*
X156940180Y-82971640D02*
G75*
G03X156940180Y-82971640I-549840J0D01*
G01*
X154415420Y-83972400D02*
G75*
G03X154415420Y-83972400I-725100J0D01*
G01*
X154415420Y-76972160D02*
G75*
G03X154415420Y-76972160I-725100J0D01*
G01*
X156940180Y-77972920D02*
G75*
G03X156940180Y-77972920I-549840J0D01*
G01*
X172543400Y-74523600D02*
G75*
G03X172543400Y-74523600I-433000J0D01*
G01*
X169724000Y-91744800D02*
G75*
G03X169724000Y-91744800I-433000J0D01*
G01*
X168454000Y-91744800D02*
G75*
G03X168454000Y-91744800I-433000J0D01*
G01*
X165914000Y-91744800D02*
G75*
G03X165914000Y-91744800I-433000J0D01*
G01*
X167184000Y-91744800D02*
G75*
G03X167184000Y-91744800I-433000J0D01*
G01*
X164644000Y-91744800D02*
G75*
G03X164644000Y-91744800I-433000J0D01*
G01*
X192015040Y-78127860D02*
G75*
G03X192015040Y-78127860I-433000J0D01*
G01*
X193290120Y-79496920D02*
G75*
G03X193290120Y-79496920I-433000J0D01*
G01*
X180173000Y-82700000D02*
G75*
G03X180173000Y-82700000I-433000J0D01*
G01*
X180703000Y-80140000D02*
G75*
G03X180703000Y-80140000I-433000J0D01*
G01*
X206378740Y-88092280D02*
G75*
G03X206378740Y-88092280I-433000J0D01*
G01*
X205202720Y-90172540D02*
G75*
G03X205202720Y-90172540I-433000J0D01*
G01*
X204991900Y-92260420D02*
G75*
G03X204991900Y-92260420I-433000J0D01*
G01*
X206432080Y-93024960D02*
G75*
G03X206432080Y-93024960I-433000J0D01*
G01*
X163468000Y-74650000D02*
G75*
G03X163468000Y-74650000I-433000J0D01*
G01*
X183033000Y-72900000D02*
G75*
G03X183033000Y-72900000I-433000J0D01*
G01*
X194425500Y-73126600D02*
G75*
G03X194425500Y-73126600I-433000J0D01*
G01*
X197219500Y-76212700D02*
G75*
G03X197219500Y-76212700I-433000J0D01*
G01*
X210833000Y-75300000D02*
G75*
G03X210833000Y-75300000I-433000J0D01*
G01*
X194946200Y-78930500D02*
G75*
G03X194946200Y-78930500I-433000J0D01*
G01*
X195606600Y-80086200D02*
G75*
G03X195606600Y-80086200I-433000J0D01*
G01*
M02*
