M48
;DRILL file {Pcbnew (2013-may-18)-stable} date Wed 07 May 2014 10:09:05 PM EDT
;FORMAT={2:4/ absolute / inch / keep zeros}
FMAT,2
INCH,TZ
T1C0.012
T2C0.013
T3C0.028
T4C0.034
T5C0.045
T6C0.126
%
G90
G05
M72
T1
X082226Y-035288
X082226Y-035642
X082226Y-035996
X082580Y-035288
X082580Y-035642
X082580Y-035996
X082934Y-035288
X082934Y-035642
X082934Y-035996
T2
X060173Y-028941
X060205Y-029622
X061228Y-034217
X062186Y-033026
X062230Y-031216
X062339Y-033732
X062929Y-034461
X063130Y-030689
X063563Y-031693
X063732Y-035083
X064008Y-031677
X064134Y-033685
X064189Y-034299
X064622Y-033949
X064771Y-029823
X064841Y-031017
X065540Y-032180
X065620Y-029410
X065688Y-035164
X065787Y-035481
X065976Y-032139
X066420Y-031170
X066504Y-029880
X066627Y-028998
X066744Y-030690
X066752Y-031418
X066984Y-031658
X067095Y-032004
X067172Y-034002
X067199Y-032337
X067276Y-030998
X067293Y-032679
X067311Y-033039
X068549Y-031928
X068740Y-036504
X068768Y-030465
X069516Y-031394
X069602Y-035740
X069886Y-033134
X069949Y-032350
X070335Y-036469
X070343Y-032457
X070354Y-030126
X070500Y-036880
X070913Y-030047
X071575Y-033142
X071874Y-029543
X071882Y-031634
X071898Y-035713
X071945Y-030165
X072067Y-031252
X072268Y-031794
X072661Y-033091
X072673Y-035709
X072705Y-032323
X072713Y-034854
X072720Y-030327
X072858Y-030736
X072872Y-032756
X072998Y-034664
X073193Y-030000
X073382Y-034671
X073425Y-033917
X073480Y-032762
X073539Y-033098
X073713Y-034647
X073724Y-030244
X073872Y-033120
X074134Y-033366
X074180Y-030454
X074199Y-031905
X074301Y-032631
X074373Y-036513
X074376Y-030173
X074528Y-034685
X074642Y-036950
X074781Y-032756
X075216Y-031650
X075219Y-032739
X075244Y-035528
X075510Y-029262
X075843Y-032733
X075866Y-034685
X075870Y-033795
X075909Y-030079
X076407Y-032736
X076614Y-030350
X076614Y-031016
X076693Y-034232
X076775Y-035559
X076980Y-031421
X077007Y-033292
X077256Y-030084
X077270Y-029500
X077362Y-033957
X077370Y-028800
X077672Y-033509
X077913Y-035771
X078028Y-031976
X078039Y-031291
X078233Y-035537
X078423Y-036063
X078699Y-031776
X078782Y-035604
X079009Y-031367
X079266Y-036368
X079335Y-035433
X079413Y-032807
X079898Y-031402
X080055Y-035487
X080114Y-034398
X080564Y-034515
X080860Y-029010
X081063Y-034191
X081291Y-030462
X081345Y-031624
X081396Y-034258
X081501Y-032826
X081545Y-036599
X082158Y-033972
X082227Y-031167
X082250Y-029000
X082452Y-036888
X082980Y-037000
X083001Y-031248
X083060Y-028800
X083323Y-034075
X083630Y-028910
X083780Y-029580
X083858Y-035950
X083892Y-036711
T3
X061089Y-033509
X062205Y-030816
X062860Y-036010
X062860Y-036510
X063695Y-029325
X064150Y-036120
X064195Y-029325
X064650Y-036120
X065150Y-036120
X065650Y-036120
X066150Y-036120
X066650Y-036120
X067260Y-029340
X067760Y-029340
X073317Y-035649
X073926Y-035658
X075426Y-030759
X075928Y-031298
X080535Y-036323
X080618Y-035501
X081081Y-034682
X081102Y-036624
X084399Y-030935
X084399Y-031435
X084427Y-029269
X084427Y-029769
X084494Y-034562
X084494Y-035062
X084494Y-035942
X084494Y-036442
T4
X061571Y-030698
X061571Y-032666
T5
X060508Y-030304
X060508Y-033060
T6
X061417Y-035157
X083858Y-032953
T0
M30
