M48
;DRILL file {KiCad 4.0.4-stable} date Wed Dec  7 21:18:31 2016
;FORMAT={3:3/ absolute / metric / keep zeros}
FMAT,2
METRIC,TZ
T1C0.254
T2C0.300
T3C0.330
T4C0.711
T5C0.851
T6C1.151
%
G90
G05
M71
T1
X152895Y-074727
X153035Y-090310
X153530Y-085814
X154267Y-088024
X155385Y-088798
X156793Y-093557
X157353Y-092113
X157418Y-090600
X158700Y-093300
X159369Y-091331
X159480Y-080330
X160350Y-077950
X160490Y-073279
X161798Y-084353
X162572Y-079550
X162600Y-081950
X163128Y-086055
X163398Y-078740
X163414Y-081106
X163415Y-079560
X163716Y-073990
X163932Y-086068
X164122Y-083604
X164172Y-079550
X164250Y-081900
X164980Y-090220
X165024Y-083566
X165029Y-082054
X165036Y-079577
X165041Y-084328
X165772Y-079550
X165900Y-077950
X166586Y-079550
X166586Y-081128
X166599Y-085166
X166738Y-075794
X167278Y-077857
X167356Y-081970
X167405Y-079573
X168719Y-075756
X169233Y-073655
X169405Y-081394
X169532Y-082436
X169995Y-086166
X170027Y-085480
X170216Y-082616
X170320Y-083223
X172000Y-094500
X172974Y-090068
X173444Y-090640
X173507Y-091351
X174150Y-083950
X175750Y-094500
X176228Y-082090
X177100Y-090400
X178020Y-093680
X178350Y-090850
X178700Y-076520
X179100Y-094450
X179730Y-087700
X179900Y-090950
X180120Y-076320
X181200Y-090000
X181250Y-082000
X181250Y-087400
X181550Y-091000
X181650Y-094400
X181800Y-091750
X182400Y-091550
X182550Y-086450
X182554Y-090986
X182560Y-075040
X182740Y-076620
X184550Y-086250
X184600Y-088500
X184770Y-091520
X185090Y-072949
X185150Y-090800
X185318Y-075882
X185350Y-092250
X186150Y-079850
X186250Y-080450
X188076Y-094364
X188150Y-088400
X188907Y-092743
X189344Y-093726
X189560Y-081090
X189700Y-088350
X189944Y-083200
X190250Y-088300
X191050Y-079800
X191120Y-090241
X191750Y-080900
X191800Y-088000
X195009Y-090320
X195466Y-084785
X197500Y-073000
X197777Y-076657
X197899Y-090858
X197900Y-078300
X198700Y-081950
X198712Y-090264
X198946Y-084785
X198950Y-079900
X199194Y-091600
X199500Y-074300
X201336Y-092375
X201602Y-090142
X202300Y-082600
X202500Y-073300
X203010Y-084773
X203490Y-087371
X203717Y-091004
X204521Y-075857
X204650Y-079600
X205900Y-086845
X205950Y-075700
X206400Y-082500
X206485Y-078800
X206850Y-076600
X206850Y-080750
X207124Y-092961
X207277Y-085090
X208070Y-088540
X208681Y-086289
X209900Y-073600
X210261Y-093434
X210823Y-079370
X211750Y-081450
X211850Y-092200
X212250Y-074400
X212450Y-091100
X215460Y-081800
X215460Y-086800
T2
X208853Y-089631
X208853Y-090531
X208853Y-091431
X209753Y-089631
X209753Y-090531
X209753Y-091431
X210653Y-089631
X210653Y-090531
X210653Y-091431
T3
X166702Y-074728
X173500Y-075050
X174850Y-073600
X196550Y-083000
X203800Y-086000
X207100Y-086800
X208950Y-079150
X215460Y-072780
X215460Y-077780
X215460Y-090870
X215460Y-095870
T4
X156400Y-085450
X161765Y-074650
X162941Y-091745
X163035Y-074650
X164211Y-091745
X165481Y-091745
X166751Y-091745
X168021Y-091745
X169291Y-091745
X170840Y-074524
X172110Y-074524
X179740Y-082700
X180270Y-080140
X182600Y-072900
X184569Y-081267
X187427Y-080556
X188620Y-080201
X191582Y-078128
X192857Y-079497
X193992Y-073127
X194513Y-078931
X195174Y-080086
X196786Y-076213
X204559Y-092260
X204770Y-090173
X205946Y-088092
X205999Y-093025
X210400Y-075300
T5
X156390Y-077973
X156390Y-082972
T6
X153690Y-076972
X153690Y-083972
T0
M30
