G04 #@! TF.FileFunction,Legend,Bot*
%FSLAX46Y46*%
G04 Gerber Fmt 4.6, Leading zero omitted, Abs format (unit mm)*
G04 Created by KiCad (PCBNEW 4.0.4-stable) date Wed Dec  7 21:18:21 2016*
%MOMM*%
%LPD*%
G01*
G04 APERTURE LIST*
%ADD10C,0.150000*%
G04 APERTURE END LIST*
D10*
X207090900Y-79225000D02*
X206090900Y-79225000D01*
X207090900Y-78475000D02*
X206090900Y-78475000D01*
X164041200Y-83953000D02*
X165041200Y-83953000D01*
X164041200Y-84703000D02*
X165041200Y-84703000D01*
X207090900Y-78634940D02*
X206090900Y-78634940D01*
X207090900Y-77884940D02*
X206090900Y-77884940D01*
X163300000Y-84725000D02*
X162300000Y-84725000D01*
X163300000Y-83975000D02*
X162300000Y-83975000D01*
X166801800Y-86862000D02*
X165801800Y-86862000D01*
X166801800Y-86112000D02*
X165801800Y-86112000D01*
X166800000Y-84725000D02*
X165800000Y-84725000D01*
X166800000Y-83975000D02*
X165800000Y-83975000D01*
X201725880Y-90802840D02*
X201725880Y-91802840D01*
X200975880Y-90802840D02*
X200975880Y-91802840D01*
X163300000Y-85675000D02*
X162300000Y-85675000D01*
X163300000Y-84925000D02*
X162300000Y-84925000D01*
X165003100Y-82988500D02*
X164003100Y-82988500D01*
X165003100Y-82238500D02*
X164003100Y-82238500D01*
X165545200Y-85970600D02*
X164045200Y-85970600D01*
X165545200Y-84920600D02*
X164045200Y-84920600D01*
X162400000Y-80425000D02*
X163900000Y-80425000D01*
X162400000Y-81475000D02*
X163900000Y-81475000D01*
X166800000Y-83825000D02*
X165800000Y-83825000D01*
X166800000Y-83075000D02*
X165800000Y-83075000D01*
X165750000Y-80875000D02*
X164750000Y-80875000D01*
X165750000Y-80125000D02*
X164750000Y-80125000D01*
X165750000Y-81775000D02*
X164750000Y-81775000D01*
X165750000Y-81025000D02*
X164750000Y-81025000D01*
X163300000Y-82875000D02*
X162300000Y-82875000D01*
X163300000Y-82125000D02*
X162300000Y-82125000D01*
X167265000Y-83405600D02*
X167265000Y-82405600D01*
X168015000Y-83405600D02*
X168015000Y-82405600D01*
X163300000Y-83775000D02*
X162300000Y-83775000D01*
X163300000Y-83025000D02*
X162300000Y-83025000D01*
X166800000Y-82925000D02*
X165800000Y-82925000D01*
X166800000Y-82175000D02*
X165800000Y-82175000D01*
X196450300Y-78095600D02*
X196450300Y-79095600D01*
X195700300Y-78095600D02*
X195700300Y-79095600D01*
X197428200Y-78108300D02*
X197428200Y-79108300D01*
X196678200Y-78108300D02*
X196678200Y-79108300D01*
X182700000Y-79425000D02*
X184200000Y-79425000D01*
X182700000Y-80475000D02*
X184200000Y-80475000D01*
X184200000Y-93075000D02*
X182700000Y-93075000D01*
X184200000Y-92025000D02*
X182700000Y-92025000D01*
M02*
