G04 (created by PCBNEW (2013-may-18)-stable) date Sat 28 Jun 2014 08:59:17 PM EDT*
%MOIN*%
G04 Gerber Fmt 3.4, Leading zero omitted, Abs format*
%FSLAX34Y34*%
G01*
G70*
G90*
G04 APERTURE LIST*
%ADD10C,0.00590551*%
%ADD11C,0.00787402*%
%ADD12C,0.00725*%
%ADD13C,0.00984252*%
%ADD14C,0.00669291*%
G04 APERTURE END LIST*
G54D10*
G54D11*
X61464Y-33993D02*
X61464Y-33678D01*
X61614Y-33993D02*
X61614Y-33678D01*
X61689Y-33678D01*
X61734Y-33693D01*
X61764Y-33723D01*
X61779Y-33753D01*
X61794Y-33813D01*
X61794Y-33858D01*
X61779Y-33918D01*
X61764Y-33948D01*
X61734Y-33978D01*
X61689Y-33993D01*
X61614Y-33993D01*
X62455Y-35379D02*
X62455Y-35064D01*
X62575Y-35064D01*
X62605Y-35079D01*
X62620Y-35094D01*
X62635Y-35124D01*
X62635Y-35169D01*
X62620Y-35199D01*
X62605Y-35214D01*
X62575Y-35229D01*
X62455Y-35229D01*
X62935Y-35079D02*
X62905Y-35064D01*
X62860Y-35064D01*
X62815Y-35079D01*
X62785Y-35109D01*
X62770Y-35139D01*
X62755Y-35199D01*
X62755Y-35244D01*
X62770Y-35304D01*
X62785Y-35334D01*
X62815Y-35364D01*
X62860Y-35379D01*
X62890Y-35379D01*
X62935Y-35364D01*
X62950Y-35349D01*
X62950Y-35244D01*
X62890Y-35244D01*
X63070Y-35289D02*
X63220Y-35289D01*
X63040Y-35379D02*
X63145Y-35064D01*
X63250Y-35379D01*
X84072Y-32341D02*
X83757Y-32341D01*
X83982Y-32236D01*
X83757Y-32131D01*
X84072Y-32131D01*
X84072Y-31981D02*
X83757Y-31981D01*
X84042Y-31651D02*
X84057Y-31666D01*
X84072Y-31711D01*
X84072Y-31741D01*
X84057Y-31786D01*
X84027Y-31816D01*
X83997Y-31831D01*
X83937Y-31846D01*
X83892Y-31846D01*
X83832Y-31831D01*
X83802Y-31816D01*
X83772Y-31786D01*
X83757Y-31741D01*
X83757Y-31711D01*
X83772Y-31666D01*
X83787Y-31651D01*
X83769Y-29254D02*
X83769Y-29149D01*
X83934Y-29104D02*
X83934Y-29254D01*
X83619Y-29254D01*
X83619Y-29104D01*
X83619Y-28999D02*
X83934Y-28789D01*
X83619Y-28789D02*
X83934Y-28999D01*
X83619Y-28714D02*
X83619Y-28534D01*
X83934Y-28624D02*
X83619Y-28624D01*
G54D12*
X71486Y-31378D02*
X71430Y-31378D01*
X71403Y-31392D01*
X71389Y-31406D01*
X71361Y-31447D01*
X71347Y-31502D01*
X71347Y-31613D01*
X71361Y-31640D01*
X71375Y-31654D01*
X71403Y-31668D01*
X71458Y-31668D01*
X71486Y-31654D01*
X71499Y-31640D01*
X71513Y-31613D01*
X71513Y-31544D01*
X71499Y-31516D01*
X71486Y-31502D01*
X71458Y-31489D01*
X71403Y-31489D01*
X71375Y-31502D01*
X71361Y-31516D01*
X71347Y-31544D01*
X71596Y-31378D02*
X71693Y-31668D01*
X71789Y-31378D01*
X70704Y-31937D02*
X70566Y-31937D01*
X70552Y-32075D01*
X70566Y-32061D01*
X70594Y-32048D01*
X70663Y-32048D01*
X70690Y-32061D01*
X70704Y-32075D01*
X70718Y-32103D01*
X70718Y-32172D01*
X70704Y-32199D01*
X70690Y-32213D01*
X70663Y-32227D01*
X70594Y-32227D01*
X70566Y-32213D01*
X70552Y-32199D01*
X70801Y-31937D02*
X70897Y-32227D01*
X70994Y-31937D01*
X80680Y-35117D02*
X80583Y-34979D01*
X80514Y-35117D02*
X80514Y-34827D01*
X80625Y-34827D01*
X80652Y-34841D01*
X80666Y-34855D01*
X80680Y-34882D01*
X80680Y-34924D01*
X80666Y-34951D01*
X80652Y-34965D01*
X80625Y-34979D01*
X80514Y-34979D01*
X80605Y-36999D02*
X80467Y-36999D01*
X80467Y-36709D01*
X75390Y-30385D02*
X75252Y-30385D01*
X75252Y-30095D01*
X75487Y-30274D02*
X75708Y-30274D01*
X76847Y-31479D02*
X76708Y-31479D01*
X76708Y-31189D01*
X76943Y-31369D02*
X77165Y-31369D01*
X77054Y-31479D02*
X77054Y-31258D01*
G54D13*
X62090Y-36564D02*
X62390Y-36564D01*
X62074Y-36021D02*
X62374Y-36021D01*
X62224Y-36171D02*
X62224Y-35871D01*
X66772Y-36741D02*
X66734Y-36722D01*
X66678Y-36722D01*
X66622Y-36741D01*
X66584Y-36778D01*
X66566Y-36816D01*
X66547Y-36891D01*
X66547Y-36947D01*
X66566Y-37022D01*
X66584Y-37059D01*
X66622Y-37097D01*
X66678Y-37116D01*
X66716Y-37116D01*
X66772Y-37097D01*
X66791Y-37078D01*
X66791Y-36947D01*
X66716Y-36947D01*
X66002Y-36722D02*
X66246Y-36722D01*
X66115Y-36872D01*
X66171Y-36872D01*
X66208Y-36891D01*
X66227Y-36909D01*
X66246Y-36947D01*
X66246Y-37041D01*
X66227Y-37078D01*
X66208Y-37097D01*
X66171Y-37116D01*
X66058Y-37116D01*
X66021Y-37097D01*
X66002Y-37078D01*
X65783Y-37078D02*
X65764Y-37097D01*
X65708Y-37116D01*
X65670Y-37116D01*
X65614Y-37097D01*
X65577Y-37059D01*
X65558Y-37022D01*
X65539Y-36947D01*
X65539Y-36891D01*
X65558Y-36816D01*
X65577Y-36778D01*
X65614Y-36741D01*
X65670Y-36722D01*
X65708Y-36722D01*
X65764Y-36741D01*
X65783Y-36759D01*
X65104Y-36710D02*
X65179Y-36710D01*
X65216Y-36729D01*
X65254Y-36766D01*
X65272Y-36841D01*
X65272Y-36973D01*
X65254Y-37047D01*
X65216Y-37085D01*
X65179Y-37104D01*
X65104Y-37104D01*
X65066Y-37085D01*
X65029Y-37047D01*
X65010Y-36973D01*
X65010Y-36841D01*
X65029Y-36766D01*
X65066Y-36729D01*
X65104Y-36710D01*
X64645Y-37108D02*
X64645Y-36714D01*
X64275Y-37084D02*
X64144Y-36897D01*
X64050Y-37084D02*
X64050Y-36690D01*
X64200Y-36690D01*
X64237Y-36709D01*
X64256Y-36728D01*
X64275Y-36765D01*
X64275Y-36822D01*
X64256Y-36859D01*
X64237Y-36878D01*
X64200Y-36897D01*
X64050Y-36897D01*
X84277Y-28639D02*
X84576Y-28639D01*
X84427Y-28789D02*
X84427Y-28489D01*
X84342Y-30509D02*
X84642Y-30509D01*
X84255Y-32352D02*
X84555Y-32352D01*
X84405Y-32502D02*
X84405Y-32203D01*
X66983Y-28721D02*
X67283Y-28721D01*
X67133Y-28871D02*
X67133Y-28571D01*
X67771Y-28721D02*
X68071Y-28721D01*
X63485Y-28458D02*
X63710Y-28458D01*
X63598Y-28852D02*
X63598Y-28458D01*
X64366Y-28852D02*
X64235Y-28664D01*
X64141Y-28852D02*
X64141Y-28458D01*
X64291Y-28458D01*
X64329Y-28477D01*
X64347Y-28496D01*
X64366Y-28533D01*
X64366Y-28589D01*
X64347Y-28627D01*
X64329Y-28646D01*
X64291Y-28664D01*
X64141Y-28664D01*
G54D10*
X84244Y-34812D02*
X84244Y-34312D01*
X84744Y-34312D02*
X84744Y-34812D01*
X84794Y-34812D02*
X84794Y-34312D01*
X84844Y-34312D02*
X84844Y-34812D01*
X84194Y-34812D02*
X84194Y-34312D01*
X84144Y-34312D02*
X84144Y-34762D01*
X84894Y-34312D02*
X84094Y-34312D01*
X84094Y-34212D02*
X84894Y-34212D01*
X84894Y-34812D02*
X84094Y-34812D01*
X84894Y-34262D02*
X84094Y-34262D01*
X84894Y-34162D02*
X84894Y-35462D01*
X84894Y-35462D02*
X84094Y-35462D01*
X84094Y-35462D02*
X84094Y-34162D01*
X84094Y-34162D02*
X84894Y-34162D01*
X76562Y-32902D02*
G75*
G03X76562Y-32902I-141J0D01*
G74*
G01*
X76715Y-34792D02*
X72896Y-34792D01*
X72896Y-34792D02*
X72896Y-32587D01*
X72896Y-32587D02*
X76715Y-32587D01*
X76715Y-32587D02*
X76715Y-34792D01*
X64203Y-31043D02*
G75*
G03X64203Y-31043I-220J0D01*
G74*
G01*
X63491Y-30551D02*
X67428Y-30551D01*
X67428Y-30551D02*
X67428Y-34488D01*
X67428Y-34488D02*
X63491Y-34488D01*
X63491Y-34488D02*
X63491Y-30551D01*
X84246Y-31503D02*
X84246Y-31003D01*
X84746Y-31003D02*
X84746Y-31503D01*
X84796Y-31503D02*
X84796Y-31003D01*
X84846Y-31003D02*
X84846Y-31503D01*
X84196Y-31503D02*
X84196Y-31003D01*
X84146Y-31003D02*
X84146Y-31453D01*
X84896Y-31003D02*
X84096Y-31003D01*
X84096Y-30903D02*
X84896Y-30903D01*
X84896Y-31503D02*
X84096Y-31503D01*
X84896Y-30953D02*
X84096Y-30953D01*
X84896Y-30853D02*
X84896Y-32153D01*
X84896Y-32153D02*
X84096Y-32153D01*
X84096Y-32153D02*
X84096Y-30853D01*
X84096Y-30853D02*
X84896Y-30853D01*
X63110Y-36260D02*
X63110Y-36760D01*
X62610Y-36760D02*
X62610Y-36260D01*
X62560Y-36260D02*
X62560Y-36760D01*
X62510Y-36760D02*
X62510Y-36260D01*
X63160Y-36260D02*
X63160Y-36760D01*
X63210Y-36760D02*
X63210Y-36310D01*
X62460Y-36760D02*
X63260Y-36760D01*
X63260Y-36860D02*
X62460Y-36860D01*
X62460Y-36260D02*
X63260Y-36260D01*
X62460Y-36810D02*
X63260Y-36810D01*
X62460Y-36910D02*
X62460Y-35610D01*
X62460Y-35610D02*
X63260Y-35610D01*
X63260Y-35610D02*
X63260Y-36910D01*
X63260Y-36910D02*
X62460Y-36910D01*
X63945Y-29575D02*
X63445Y-29575D01*
X63445Y-29075D02*
X63945Y-29075D01*
X63945Y-29025D02*
X63445Y-29025D01*
X63445Y-28975D02*
X63945Y-28975D01*
X63945Y-29625D02*
X63445Y-29625D01*
X63445Y-29675D02*
X63895Y-29675D01*
X63445Y-28925D02*
X63445Y-29725D01*
X63345Y-29725D02*
X63345Y-28925D01*
X63945Y-28925D02*
X63945Y-29725D01*
X63395Y-28925D02*
X63395Y-29725D01*
X63295Y-28925D02*
X64595Y-28925D01*
X64595Y-28925D02*
X64595Y-29725D01*
X64595Y-29725D02*
X63295Y-29725D01*
X63295Y-29725D02*
X63295Y-28925D01*
X84250Y-36314D02*
X84250Y-35814D01*
X84750Y-35814D02*
X84750Y-36314D01*
X84800Y-36314D02*
X84800Y-35814D01*
X84850Y-35814D02*
X84850Y-36314D01*
X84200Y-36314D02*
X84200Y-35814D01*
X84150Y-35814D02*
X84150Y-36264D01*
X84900Y-35814D02*
X84100Y-35814D01*
X84100Y-35714D02*
X84900Y-35714D01*
X84900Y-36314D02*
X84100Y-36314D01*
X84900Y-35764D02*
X84100Y-35764D01*
X84900Y-35664D02*
X84900Y-36964D01*
X84900Y-36964D02*
X84100Y-36964D01*
X84100Y-36964D02*
X84100Y-35664D01*
X84100Y-35664D02*
X84900Y-35664D01*
X84742Y-29503D02*
X84742Y-30003D01*
X84242Y-30003D02*
X84242Y-29503D01*
X84192Y-29503D02*
X84192Y-30003D01*
X84142Y-30003D02*
X84142Y-29503D01*
X84792Y-29503D02*
X84792Y-30003D01*
X84842Y-30003D02*
X84842Y-29553D01*
X84092Y-30003D02*
X84892Y-30003D01*
X84892Y-30103D02*
X84092Y-30103D01*
X84092Y-29503D02*
X84892Y-29503D01*
X84092Y-30053D02*
X84892Y-30053D01*
X84092Y-30153D02*
X84092Y-28853D01*
X84092Y-28853D02*
X84892Y-28853D01*
X84892Y-28853D02*
X84892Y-30153D01*
X84892Y-30153D02*
X84092Y-30153D01*
X67510Y-29590D02*
X67010Y-29590D01*
X67010Y-29090D02*
X67510Y-29090D01*
X67510Y-29040D02*
X67010Y-29040D01*
X67010Y-28990D02*
X67510Y-28990D01*
X67510Y-29640D02*
X67010Y-29640D01*
X67010Y-29690D02*
X67460Y-29690D01*
X67010Y-28940D02*
X67010Y-29740D01*
X66910Y-29740D02*
X66910Y-28940D01*
X67510Y-28940D02*
X67510Y-29740D01*
X66960Y-28940D02*
X66960Y-29740D01*
X66860Y-28940D02*
X68160Y-28940D01*
X68160Y-28940D02*
X68160Y-29740D01*
X68160Y-29740D02*
X66860Y-29740D01*
X66860Y-29740D02*
X66860Y-28940D01*
X64400Y-36370D02*
X63900Y-36370D01*
X63900Y-35870D02*
X64400Y-35870D01*
X64400Y-35820D02*
X63900Y-35820D01*
X63900Y-35770D02*
X64400Y-35770D01*
X64400Y-36420D02*
X63900Y-36420D01*
X63900Y-36470D02*
X64350Y-36470D01*
X63900Y-35720D02*
X63900Y-36520D01*
X63800Y-36520D02*
X63800Y-35720D01*
X64400Y-35720D02*
X64400Y-36520D01*
X63850Y-35720D02*
X63850Y-36520D01*
X63750Y-35720D02*
X67050Y-35720D01*
X67050Y-35720D02*
X67050Y-36520D01*
X67050Y-36520D02*
X63750Y-36520D01*
X63750Y-36520D02*
X63750Y-35720D01*
X81763Y-32212D02*
G75*
G03X81763Y-32212I-88J0D01*
G74*
G01*
X80730Y-32015D02*
X81911Y-32015D01*
X81911Y-32015D02*
X81911Y-30046D01*
X81911Y-30046D02*
X80730Y-30046D01*
X80730Y-30046D02*
X80730Y-32015D01*
X78277Y-35843D02*
G75*
G03X78277Y-35843I-88J0D01*
G74*
G01*
X78386Y-34898D02*
X78386Y-36079D01*
X78386Y-36079D02*
X80355Y-36079D01*
X80355Y-36079D02*
X80355Y-34898D01*
X80355Y-34898D02*
X78386Y-34898D01*
X72772Y-30461D02*
G75*
G03X72772Y-30461I-98J0D01*
G74*
G01*
X72890Y-29516D02*
X74071Y-29516D01*
X74071Y-29516D02*
X74071Y-30697D01*
X74071Y-30697D02*
X72890Y-30697D01*
X72890Y-30697D02*
X72890Y-29516D01*
X64156Y-35448D02*
X64549Y-35448D01*
X64156Y-35153D02*
X64549Y-35153D01*
X68117Y-29973D02*
X67724Y-29973D01*
X68117Y-30268D02*
X67724Y-30268D01*
X62851Y-33936D02*
X62851Y-33543D01*
X62556Y-33936D02*
X62556Y-33543D01*
X68503Y-35226D02*
X68110Y-35226D01*
X68503Y-35521D02*
X68110Y-35521D01*
X67334Y-35525D02*
X67728Y-35525D01*
X67334Y-35230D02*
X67728Y-35230D01*
X62697Y-33172D02*
X62697Y-32779D01*
X62402Y-33172D02*
X62402Y-32779D01*
X63395Y-36342D02*
X63395Y-36736D01*
X63690Y-36342D02*
X63690Y-36736D01*
X80484Y-31963D02*
X80484Y-31570D01*
X80189Y-31963D02*
X80189Y-31570D01*
X62497Y-29838D02*
X62890Y-29838D01*
X62497Y-29543D02*
X62890Y-29543D01*
X80929Y-32537D02*
X80536Y-32537D01*
X80929Y-32832D02*
X80536Y-32832D01*
X82619Y-31355D02*
X82226Y-31355D01*
X82619Y-31650D02*
X82226Y-31650D01*
X62494Y-29409D02*
X62887Y-29409D01*
X62494Y-29114D02*
X62887Y-29114D01*
X74293Y-28980D02*
X73900Y-28980D01*
X74293Y-29276D02*
X73900Y-29276D01*
X76240Y-31057D02*
X76240Y-31450D01*
X76535Y-31057D02*
X76535Y-31450D01*
X76568Y-31614D02*
X76175Y-31614D01*
X76568Y-31909D02*
X76175Y-31909D01*
X77562Y-31730D02*
X77562Y-32124D01*
X77858Y-31730D02*
X77858Y-32124D01*
X73348Y-30896D02*
X72955Y-30896D01*
X73348Y-31191D02*
X72955Y-31191D01*
X73746Y-31254D02*
X73353Y-31254D01*
X73746Y-31549D02*
X73353Y-31549D01*
X82785Y-30730D02*
X82785Y-30337D01*
X82490Y-30730D02*
X82490Y-30337D01*
X82118Y-30340D02*
X82118Y-30733D01*
X82413Y-30340D02*
X82413Y-30733D01*
X72482Y-29552D02*
X72482Y-29946D01*
X72777Y-29552D02*
X72777Y-29946D01*
X82468Y-31334D02*
X82861Y-31334D01*
X82468Y-31039D02*
X82861Y-31039D01*
X78350Y-30855D02*
X78350Y-31248D01*
X78645Y-30855D02*
X78645Y-31248D01*
X74418Y-31989D02*
X74811Y-31989D01*
X74418Y-31694D02*
X74811Y-31694D01*
X83147Y-30730D02*
X83147Y-30337D01*
X82852Y-30730D02*
X82852Y-30337D01*
X82476Y-29832D02*
X82082Y-29832D01*
X82476Y-30127D02*
X82082Y-30127D01*
X73606Y-28655D02*
X73213Y-28655D01*
X73606Y-28950D02*
X73213Y-28950D01*
X74293Y-28655D02*
X73900Y-28655D01*
X74293Y-28950D02*
X73900Y-28950D01*
X75894Y-31704D02*
X75501Y-31704D01*
X75894Y-31999D02*
X75501Y-31999D01*
X76132Y-30397D02*
X76132Y-30790D01*
X76427Y-30397D02*
X76427Y-30790D01*
X75784Y-30399D02*
X75784Y-30792D01*
X76079Y-30399D02*
X76079Y-30792D01*
X73609Y-28980D02*
X73216Y-28980D01*
X73609Y-29276D02*
X73216Y-29276D01*
X75068Y-36512D02*
X75068Y-36119D01*
X74773Y-36512D02*
X74773Y-36119D01*
X75342Y-31240D02*
X74949Y-31240D01*
X75342Y-31535D02*
X74949Y-31535D01*
X77358Y-31933D02*
X76965Y-31933D01*
X77358Y-32228D02*
X76965Y-32228D01*
X80134Y-31114D02*
X80134Y-30721D01*
X79839Y-31114D02*
X79839Y-30721D01*
X79047Y-34375D02*
X79440Y-34375D01*
X79047Y-34080D02*
X79440Y-34080D01*
X77685Y-35135D02*
X78078Y-35135D01*
X77685Y-34840D02*
X78078Y-34840D01*
X76925Y-35263D02*
X77318Y-35263D01*
X76925Y-34968D02*
X77318Y-34968D01*
X77689Y-35517D02*
X78082Y-35517D01*
X77689Y-35222D02*
X78082Y-35222D01*
X79270Y-34386D02*
X78877Y-34386D01*
X79270Y-34681D02*
X78877Y-34681D01*
X76146Y-36213D02*
X76146Y-36606D01*
X76441Y-36213D02*
X76441Y-36606D01*
X76112Y-35489D02*
X76112Y-35882D01*
X76407Y-35489D02*
X76407Y-35882D01*
X76484Y-35869D02*
X76484Y-36262D01*
X76779Y-35869D02*
X76779Y-36262D01*
X77950Y-35863D02*
X77950Y-36256D01*
X78245Y-35863D02*
X78245Y-36256D01*
X75788Y-36217D02*
X75788Y-36610D01*
X76083Y-36217D02*
X76083Y-36610D01*
X75786Y-35495D02*
X75786Y-35888D01*
X76081Y-35495D02*
X76081Y-35888D01*
X69892Y-31205D02*
X69499Y-31205D01*
X69892Y-31500D02*
X69499Y-31500D01*
X79963Y-36296D02*
X79570Y-36296D01*
X79963Y-36591D02*
X79570Y-36591D01*
X83291Y-37163D02*
X83684Y-37163D01*
X83291Y-36868D02*
X83684Y-36868D01*
X83287Y-36799D02*
X83680Y-36799D01*
X83287Y-36504D02*
X83680Y-36504D01*
X81011Y-35313D02*
X81404Y-35313D01*
X81011Y-35018D02*
X81404Y-35018D01*
X81007Y-35659D02*
X81400Y-35659D01*
X81007Y-35364D02*
X81400Y-35364D01*
X81017Y-35993D02*
X81410Y-35993D01*
X81017Y-35698D02*
X81410Y-35698D01*
X81021Y-36293D02*
X81414Y-36293D01*
X81021Y-35998D02*
X81414Y-35998D01*
X82493Y-34529D02*
X82886Y-34529D01*
X82493Y-34234D02*
X82886Y-34234D01*
X82176Y-34234D02*
X81783Y-34234D01*
X82176Y-34529D02*
X81783Y-34529D01*
X82813Y-31718D02*
X82420Y-31718D01*
X82813Y-32013D02*
X82420Y-32013D01*
X75419Y-35884D02*
X75419Y-36277D01*
X75714Y-35884D02*
X75714Y-36277D01*
X69411Y-36125D02*
X69411Y-36519D01*
X69706Y-36125D02*
X69706Y-36519D01*
X83216Y-30805D02*
X83216Y-31198D01*
X83511Y-30805D02*
X83511Y-31198D01*
X74126Y-29464D02*
X74126Y-29857D01*
X74421Y-29464D02*
X74421Y-29857D01*
X70275Y-30062D02*
X70275Y-29669D01*
X69980Y-30062D02*
X69980Y-29669D01*
X74224Y-30890D02*
X73831Y-30890D01*
X74224Y-31185D02*
X73831Y-31185D01*
X70073Y-32988D02*
X70073Y-32594D01*
X69777Y-32988D02*
X69777Y-32594D01*
X70451Y-32992D02*
X70451Y-32599D01*
X70155Y-32992D02*
X70155Y-32599D01*
X69077Y-33118D02*
X69077Y-33511D01*
X69372Y-33118D02*
X69372Y-33511D01*
X62155Y-32552D02*
X62548Y-32552D01*
X62155Y-32256D02*
X62548Y-32256D01*
X62293Y-32197D02*
X62686Y-32197D01*
X62293Y-31902D02*
X62686Y-31902D01*
X77657Y-34385D02*
X78050Y-34385D01*
X77657Y-34090D02*
X78050Y-34090D01*
X71421Y-29119D02*
X71028Y-29119D01*
X71421Y-29414D02*
X71028Y-29414D01*
X70764Y-30715D02*
X70764Y-31108D01*
X71059Y-30715D02*
X71059Y-31108D01*
X71614Y-30586D02*
X71221Y-30586D01*
X71614Y-30881D02*
X71221Y-30881D01*
X71198Y-30037D02*
X71198Y-30430D01*
X71493Y-30037D02*
X71493Y-30430D01*
X70175Y-30883D02*
X70568Y-30883D01*
X70175Y-30588D02*
X70568Y-30588D01*
X70196Y-31503D02*
X70590Y-31503D01*
X70196Y-31208D02*
X70590Y-31208D01*
X71586Y-30950D02*
X71193Y-30950D01*
X71586Y-31245D02*
X71193Y-31245D01*
X69174Y-31206D02*
X68781Y-31206D01*
X69174Y-31501D02*
X68781Y-31501D01*
X66248Y-29217D02*
X65855Y-29217D01*
X66248Y-29512D02*
X65855Y-29512D01*
X77671Y-34769D02*
X78064Y-34769D01*
X77671Y-34474D02*
X78064Y-34474D01*
X76929Y-34777D02*
X77322Y-34777D01*
X76929Y-34482D02*
X77322Y-34482D01*
X83687Y-31006D02*
X83687Y-31399D01*
X83982Y-31006D02*
X83982Y-31399D01*
X62381Y-33349D02*
X62381Y-32758D01*
X61968Y-33349D02*
X61968Y-32758D01*
X69884Y-30193D02*
X69884Y-29602D01*
X69471Y-30193D02*
X69471Y-29602D01*
X62527Y-30770D02*
X62527Y-31361D01*
X62940Y-30770D02*
X62940Y-31361D01*
X79974Y-33986D02*
X80722Y-33986D01*
X79974Y-34557D02*
X80722Y-34557D01*
X70568Y-29401D02*
X69820Y-29401D01*
X70568Y-28830D02*
X69820Y-28830D01*
X72612Y-29267D02*
X71864Y-29267D01*
X72612Y-28696D02*
X71864Y-28696D01*
X68816Y-30164D02*
X68816Y-29416D01*
X69387Y-30164D02*
X69387Y-29416D01*
X77719Y-32910D02*
X76971Y-32910D01*
X77719Y-32339D02*
X76971Y-32339D01*
X81627Y-29781D02*
X80879Y-29781D01*
X81627Y-29210D02*
X80879Y-29210D01*
X76503Y-29461D02*
X75755Y-29461D01*
X76503Y-28890D02*
X75755Y-28890D01*
X78723Y-31787D02*
X78723Y-31039D01*
X79294Y-31787D02*
X79294Y-31039D01*
X74582Y-31027D02*
X74582Y-30279D01*
X75153Y-31027D02*
X75153Y-30279D01*
X69020Y-31126D02*
X69020Y-30446D01*
X69020Y-30446D02*
X68980Y-30446D01*
X68980Y-30446D02*
X68980Y-31126D01*
X69210Y-31126D02*
X69210Y-30446D01*
X69210Y-30446D02*
X69170Y-30446D01*
X69170Y-30446D02*
X69170Y-31126D01*
X69170Y-31126D02*
X69120Y-31126D01*
X69120Y-31126D02*
X69120Y-30446D01*
X69120Y-30446D02*
X69070Y-30446D01*
X69070Y-30446D02*
X69070Y-31126D01*
X69070Y-31126D02*
X69010Y-31126D01*
X69420Y-31130D02*
X68279Y-31130D01*
X69420Y-30441D02*
X68279Y-30441D01*
X79260Y-29850D02*
X80330Y-29850D01*
X80330Y-29850D02*
X80330Y-29800D01*
X80330Y-29800D02*
X79260Y-29800D01*
X79260Y-29800D02*
X79260Y-29750D01*
X79260Y-29750D02*
X80330Y-29750D01*
X79260Y-29900D02*
X80340Y-29900D01*
X80340Y-29900D02*
X80340Y-29950D01*
X80340Y-29950D02*
X79260Y-29950D01*
X79260Y-29950D02*
X79260Y-30000D01*
X79260Y-30000D02*
X80340Y-30000D01*
X80340Y-30000D02*
X80340Y-30050D01*
X80340Y-30050D02*
X79260Y-30050D01*
X79258Y-30250D02*
X79258Y-29109D01*
X80341Y-30250D02*
X80341Y-29109D01*
X70506Y-34287D02*
X70506Y-33217D01*
X70506Y-33217D02*
X70456Y-33217D01*
X70456Y-33217D02*
X70456Y-34287D01*
X70456Y-34287D02*
X70406Y-34287D01*
X70406Y-34287D02*
X70406Y-33217D01*
X70556Y-34287D02*
X70556Y-33207D01*
X70556Y-33207D02*
X70606Y-33207D01*
X70606Y-33207D02*
X70606Y-34287D01*
X70606Y-34287D02*
X70656Y-34287D01*
X70656Y-34287D02*
X70656Y-33207D01*
X70656Y-33207D02*
X70706Y-33207D01*
X70706Y-33207D02*
X70706Y-34287D01*
X70906Y-34288D02*
X69765Y-34288D01*
X70906Y-33205D02*
X69765Y-33205D01*
X78000Y-33110D02*
X79070Y-33110D01*
X79070Y-33110D02*
X79070Y-33060D01*
X79070Y-33060D02*
X78000Y-33060D01*
X78000Y-33060D02*
X78000Y-33010D01*
X78000Y-33010D02*
X79070Y-33010D01*
X78000Y-33160D02*
X79080Y-33160D01*
X79080Y-33160D02*
X79080Y-33210D01*
X79080Y-33210D02*
X78000Y-33210D01*
X78000Y-33210D02*
X78000Y-33260D01*
X78000Y-33260D02*
X79080Y-33260D01*
X79080Y-33260D02*
X79080Y-33310D01*
X79080Y-33310D02*
X78000Y-33310D01*
X77998Y-33510D02*
X77998Y-32369D01*
X79081Y-33510D02*
X79081Y-32369D01*
X70059Y-31544D02*
G75*
G03X70059Y-31544I-98J0D01*
G74*
G01*
X69744Y-32863D02*
X68603Y-32863D01*
X68603Y-32863D02*
X68603Y-31564D01*
X68603Y-31564D02*
X69744Y-31564D01*
X69744Y-31564D02*
X69744Y-32863D01*
X81792Y-34854D02*
X83367Y-34854D01*
X83367Y-34854D02*
X83367Y-36429D01*
X83367Y-36429D02*
X81792Y-36429D01*
X81792Y-36429D02*
X81792Y-34854D01*
X81694Y-34657D02*
G75*
G03X81694Y-34657I-98J0D01*
G74*
G01*
X69240Y-36641D02*
X67271Y-36641D01*
X67271Y-36641D02*
X67271Y-35657D01*
X67271Y-35657D02*
X69240Y-35657D01*
X69240Y-35657D02*
X69240Y-36641D01*
X77279Y-31159D02*
X77279Y-30411D01*
X77850Y-31159D02*
X77850Y-30411D01*
X80486Y-31114D02*
X80486Y-30721D01*
X80191Y-31114D02*
X80191Y-30721D01*
X70381Y-29643D02*
X70381Y-30435D01*
X70381Y-30435D02*
X70435Y-30430D01*
X70435Y-30430D02*
X70440Y-29653D01*
X70440Y-29653D02*
X70484Y-29653D01*
X70484Y-29653D02*
X70484Y-30416D01*
X70332Y-29648D02*
X71119Y-29648D01*
X71119Y-29648D02*
X71119Y-30435D01*
X71119Y-30435D02*
X70332Y-30435D01*
X70332Y-30435D02*
X70332Y-29648D01*
X79389Y-31099D02*
X79389Y-31690D01*
X79802Y-31099D02*
X79802Y-31690D01*
X83480Y-32112D02*
X82889Y-32112D01*
X83480Y-32525D02*
X82889Y-32525D01*
X80458Y-32477D02*
X81049Y-32477D01*
X80458Y-32064D02*
X81049Y-32064D01*
X82449Y-32086D02*
X81858Y-32086D01*
X82449Y-32499D02*
X81858Y-32499D01*
X62494Y-28974D02*
X62887Y-28974D01*
X62494Y-28679D02*
X62887Y-28679D01*
X60762Y-28629D02*
X61943Y-28629D01*
X61943Y-28629D02*
X61943Y-29888D01*
X61943Y-29888D02*
X60762Y-29888D01*
X60762Y-29888D02*
X60762Y-28629D01*
X60959Y-28353D02*
G75*
G03X60959Y-28353I-98J0D01*
G74*
G01*
X83529Y-30460D02*
X83529Y-30066D01*
X83234Y-30460D02*
X83234Y-30066D01*
X70574Y-35681D02*
X72543Y-35681D01*
X72543Y-35681D02*
X72543Y-34421D01*
X72543Y-34421D02*
X70574Y-34421D01*
X70574Y-34421D02*
X70574Y-35681D01*
X70889Y-36232D02*
G75*
G03X70889Y-36232I-196J0D01*
G74*
G01*
X72421Y-35828D02*
X72027Y-35828D01*
X72421Y-36124D02*
X72027Y-36124D01*
X83159Y-34082D02*
X83159Y-34476D01*
X83454Y-34082D02*
X83454Y-34476D01*
X84664Y-35062D02*
G75*
G03X84664Y-35062I-170J0D01*
G74*
G01*
X84323Y-34391D02*
X84323Y-34732D01*
X84664Y-34732D01*
X84664Y-34391D01*
X84323Y-34391D01*
X61787Y-32666D02*
G75*
G03X61787Y-32666I-216J0D01*
G74*
G01*
X60793Y-33060D02*
G75*
G03X60793Y-33060I-285J0D01*
G74*
G01*
X60793Y-30304D02*
G75*
G03X60793Y-30304I-285J0D01*
G74*
G01*
X61787Y-30698D02*
G75*
G03X61787Y-30698I-216J0D01*
G74*
G01*
X84666Y-31753D02*
G75*
G03X84666Y-31753I-170J0D01*
G74*
G01*
X84325Y-31083D02*
X84325Y-31424D01*
X84666Y-31424D01*
X84666Y-31083D01*
X84325Y-31083D01*
X63030Y-36010D02*
G75*
G03X63030Y-36010I-170J0D01*
G74*
G01*
X62689Y-36339D02*
X62689Y-36680D01*
X63030Y-36680D01*
X63030Y-36339D01*
X62689Y-36339D01*
X64365Y-29325D02*
G75*
G03X64365Y-29325I-170J0D01*
G74*
G01*
X63524Y-29154D02*
X63524Y-29495D01*
X63865Y-29495D01*
X63865Y-29154D01*
X63524Y-29154D01*
X84670Y-36564D02*
G75*
G03X84670Y-36564I-170J0D01*
G74*
G01*
X84329Y-35894D02*
X84329Y-36235D01*
X84670Y-36235D01*
X84670Y-35894D01*
X84329Y-35894D01*
X84662Y-29253D02*
G75*
G03X84662Y-29253I-170J0D01*
G74*
G01*
X84321Y-29583D02*
X84321Y-29924D01*
X84662Y-29924D01*
X84662Y-29583D01*
X84321Y-29583D01*
X67930Y-29340D02*
G75*
G03X67930Y-29340I-170J0D01*
G74*
G01*
X67089Y-29169D02*
X67089Y-29510D01*
X67430Y-29510D01*
X67430Y-29169D01*
X67089Y-29169D01*
X66820Y-36120D02*
G75*
G03X66820Y-36120I-170J0D01*
G74*
G01*
X66320Y-36120D02*
G75*
G03X66320Y-36120I-170J0D01*
G74*
G01*
X65320Y-36120D02*
G75*
G03X65320Y-36120I-170J0D01*
G74*
G01*
X65820Y-36120D02*
G75*
G03X65820Y-36120I-170J0D01*
G74*
G01*
X64820Y-36120D02*
G75*
G03X64820Y-36120I-170J0D01*
G74*
G01*
X63979Y-35949D02*
X63979Y-36290D01*
X64320Y-36290D01*
X64320Y-35949D01*
X63979Y-35949D01*
X76098Y-31298D02*
G75*
G03X76098Y-31298I-170J0D01*
G74*
G01*
X75596Y-30759D02*
G75*
G03X75596Y-30759I-170J0D01*
G74*
G01*
X62355Y-30547D02*
G75*
G03X62355Y-30547I-170J0D01*
G74*
G01*
X61259Y-33509D02*
G75*
G03X61259Y-33509I-170J0D01*
G74*
G01*
X81251Y-34682D02*
G75*
G03X81251Y-34682I-170J0D01*
G74*
G01*
X80788Y-35501D02*
G75*
G03X80788Y-35501I-170J0D01*
G74*
G01*
X80705Y-36323D02*
G75*
G03X80705Y-36323I-170J0D01*
G74*
G01*
X81272Y-36624D02*
G75*
G03X81272Y-36624I-170J0D01*
G74*
G01*
X61811Y-35157D02*
G75*
G03X61811Y-35157I-393J0D01*
G74*
G01*
X72163Y-32284D02*
G75*
G03X72163Y-32284I-420J0D01*
G74*
G01*
X70934Y-32559D02*
G75*
G03X70934Y-32559I-170J0D01*
G74*
G01*
X71142Y-31551D02*
G75*
G03X71142Y-31551I-170J0D01*
G74*
G01*
G54D14*
X83997Y-34846D02*
X83997Y-35015D01*
X83643Y-35015D01*
X83812Y-34610D02*
X83812Y-34728D01*
X83997Y-34728D02*
X83643Y-34728D01*
X83643Y-34559D01*
X83643Y-34475D02*
X83643Y-34272D01*
X83997Y-34374D02*
X83643Y-34374D01*
X84281Y-37257D02*
X84163Y-37088D01*
X84079Y-37257D02*
X84079Y-36903D01*
X84214Y-36903D01*
X84248Y-36920D01*
X84264Y-36937D01*
X84281Y-36970D01*
X84281Y-37021D01*
X84264Y-37055D01*
X84248Y-37071D01*
X84214Y-37088D01*
X84079Y-37088D01*
X84619Y-36920D02*
X84585Y-36903D01*
X84534Y-36903D01*
X84484Y-36920D01*
X84450Y-36953D01*
X84433Y-36987D01*
X84416Y-37055D01*
X84416Y-37105D01*
X84433Y-37173D01*
X84450Y-37206D01*
X84484Y-37240D01*
X84534Y-37257D01*
X84568Y-37257D01*
X84619Y-37240D01*
X84636Y-37223D01*
X84636Y-37105D01*
X84568Y-37105D01*
X84737Y-36903D02*
X84939Y-36903D01*
X84838Y-37257D02*
X84838Y-36903D01*
X82997Y-29896D02*
X82866Y-29988D01*
X82997Y-30053D02*
X82721Y-30053D01*
X82721Y-29948D01*
X82734Y-29922D01*
X82748Y-29909D01*
X82774Y-29896D01*
X82813Y-29896D01*
X82839Y-29909D01*
X82853Y-29922D01*
X82866Y-29948D01*
X82866Y-30053D01*
X82813Y-29817D02*
X82813Y-29712D01*
X82997Y-29778D02*
X82761Y-29778D01*
X82734Y-29765D01*
X82721Y-29738D01*
X82721Y-29712D01*
X82997Y-29476D02*
X82997Y-29633D01*
X82997Y-29555D02*
X82721Y-29555D01*
X82761Y-29581D01*
X82787Y-29607D01*
X82800Y-29633D01*
X62344Y-29978D02*
X62546Y-29978D01*
X62445Y-30332D02*
X62445Y-29978D01*
X62664Y-30332D02*
X62664Y-29978D01*
X62799Y-29978D01*
X62833Y-29994D01*
X62850Y-30011D01*
X62867Y-30045D01*
X62867Y-30096D01*
X62850Y-30129D01*
X62833Y-30146D01*
X62799Y-30163D01*
X62664Y-30163D01*
X63170Y-30096D02*
X63170Y-30332D01*
X63086Y-29961D02*
X63002Y-30214D01*
X63221Y-30214D01*
M02*
