M48
;DRILL file {Pcbnew (2013-may-18)-stable} date Fri 15 May 2015 12:15:06 AM EDT
;FORMAT={2:4/ absolute / inch / keep zeros}
FMAT,2
INCH,TZ
T1C0.010
T2C0.012
T3C0.013
T4C0.028
T5C0.034
T6C0.045
%
G90
G05
M72
T1
X062787Y-031626
X062854Y-033358
X063110Y-034287
X063732Y-034937
X064177Y-031252
X064453Y-034295
X064910Y-032539
X065106Y-031134
X065185Y-029945
X065225Y-031909
X065225Y-032539
X065539Y-031909
X065540Y-031594
X066217Y-032260
X066650Y-031378
X066681Y-031634
X066945Y-031370
X067087Y-030594
X068413Y-031697
X071516Y-032748
X071972Y-031224
X072480Y-032256
X078189Y-030220
X078988Y-029118
X081917Y-034858
X083406Y-036299
X083642Y-035866
T2
X082226Y-035288
X082226Y-035642
X082226Y-035996
X082580Y-035288
X082580Y-035642
X082580Y-035996
X082934Y-035288
X082934Y-035642
X082934Y-035996
T3
X060173Y-028941
X060205Y-029622
X061228Y-034217
X062186Y-033026
X062230Y-031216
X063130Y-030689
X063563Y-031693
X064771Y-029823
X064841Y-031017
X065620Y-029410
X065688Y-035164
X065787Y-035481
X066627Y-028998
X066984Y-031658
X067095Y-032004
X067172Y-034002
X067199Y-032337
X067293Y-032679
X067311Y-033039
X067752Y-035028
X068244Y-031972
X068792Y-030951
X069012Y-032202
X069381Y-032319
X069591Y-033034
X069944Y-031680
X070087Y-036882
X070354Y-030126
X070913Y-030047
X071591Y-035713
X071874Y-029543
X071945Y-030165
X072661Y-033091
X072673Y-035709
X072713Y-034854
X072720Y-030327
X072858Y-030736
X072872Y-032756
X072998Y-034664
X073193Y-030000
X073382Y-034671
X073425Y-033917
X073480Y-032762
X073539Y-033098
X073689Y-037122
X073713Y-034647
X073724Y-030244
X073872Y-033120
X074134Y-033366
X074180Y-030454
X074199Y-031905
X074301Y-032631
X074373Y-036513
X074376Y-030173
X074484Y-036083
X074528Y-034685
X074642Y-036950
X074781Y-032756
X075216Y-031650
X075219Y-032739
X075244Y-035528
X075510Y-029262
X075843Y-032733
X075866Y-034685
X075870Y-033795
X075909Y-030079
X076407Y-032736
X076614Y-030350
X076614Y-031016
X076693Y-034232
X076775Y-035559
X076980Y-031421
X077007Y-033292
X077256Y-030084
X077270Y-029500
X077362Y-033957
X077370Y-028800
X077672Y-033509
X077913Y-035771
X078028Y-031976
X078039Y-031291
X078233Y-035537
X078423Y-036063
X078699Y-031776
X078782Y-035604
X079009Y-031367
X079266Y-036368
X079335Y-035433
X079413Y-032807
X079898Y-031402
X080055Y-035487
X080114Y-034398
X080564Y-034515
X081063Y-034191
X081291Y-030462
X081345Y-031624
X081545Y-036599
X081876Y-032796
X082158Y-033972
X082227Y-031167
X082452Y-036888
X083001Y-031248
X083602Y-031906
T4
X061089Y-033509
X062185Y-030547
X062860Y-036010
X062860Y-036510
X063695Y-029325
X064150Y-036120
X064195Y-029325
X064650Y-036120
X065150Y-036120
X065650Y-036120
X066150Y-036120
X066650Y-036120
X067260Y-029340
X067760Y-029340
X070764Y-032559
X070972Y-031551
X075426Y-030759
X075928Y-031298
X080535Y-036323
X080618Y-035501
X081081Y-034682
X081102Y-036624
X081915Y-028811
X082415Y-028811
T5
X061571Y-030698
X061571Y-032666
T6
X060508Y-030304
X060508Y-033060
T0
M30
