G04 #@! TF.FileFunction,Soldermask,Bot*
%FSLAX46Y46*%
G04 Gerber Fmt 4.6, Leading zero omitted, Abs format (unit mm)*
G04 Created by KiCad (PCBNEW 4.0.5) date Sun Mar 19 22:32:23 2017*
%MOMM*%
%LPD*%
G01*
G04 APERTURE LIST*
%ADD10C,0.150000*%
%ADD11C,0.200000*%
%ADD12C,0.300000*%
%ADD13R,0.500000X0.600000*%
%ADD14R,0.600000X0.900000*%
%ADD15R,0.600000X0.500000*%
%ADD16C,1.016000*%
%ADD17R,1.016000X1.016000*%
%ADD18R,4.200000X1.100000*%
%ADD19R,0.700000X1.300000*%
G04 APERTURE END LIST*
D10*
D11*
X209290475Y-75058333D02*
X208766666Y-75058333D01*
X209395237Y-75372619D02*
X209028570Y-74272619D01*
X208661904Y-75372619D01*
X207823809Y-74639286D02*
X207823809Y-75372619D01*
X208295237Y-74639286D02*
X208295237Y-75215476D01*
X208242856Y-75320238D01*
X208138094Y-75372619D01*
X207980952Y-75372619D01*
X207876190Y-75320238D01*
X207823809Y-75267857D01*
X206828571Y-75372619D02*
X206828571Y-74272619D01*
X206828571Y-75320238D02*
X206933333Y-75372619D01*
X207142856Y-75372619D01*
X207247618Y-75320238D01*
X207299999Y-75267857D01*
X207352380Y-75163095D01*
X207352380Y-74848810D01*
X207299999Y-74744048D01*
X207247618Y-74691667D01*
X207142856Y-74639286D01*
X206933333Y-74639286D01*
X206828571Y-74691667D01*
X206304761Y-75372619D02*
X206304761Y-74639286D01*
X206304761Y-74272619D02*
X206357142Y-74325000D01*
X206304761Y-74377381D01*
X206252380Y-74325000D01*
X206304761Y-74272619D01*
X206304761Y-74377381D01*
X205623808Y-75372619D02*
X205728570Y-75320238D01*
X205780951Y-75267857D01*
X205833332Y-75163095D01*
X205833332Y-74848810D01*
X205780951Y-74744048D01*
X205728570Y-74691667D01*
X205623808Y-74639286D01*
X205466666Y-74639286D01*
X205361904Y-74691667D01*
X205309523Y-74744048D01*
X205257142Y-74848810D01*
X205257142Y-75163095D01*
X205309523Y-75267857D01*
X205361904Y-75320238D01*
X205466666Y-75372619D01*
X205623808Y-75372619D01*
X204785713Y-75372619D02*
X204785713Y-74272619D01*
X204366666Y-74272619D01*
X204261904Y-74325000D01*
X204209523Y-74377381D01*
X204157142Y-74482143D01*
X204157142Y-74639286D01*
X204209523Y-74744048D01*
X204261904Y-74796429D01*
X204366666Y-74848810D01*
X204785713Y-74848810D01*
X203214285Y-74639286D02*
X203214285Y-75372619D01*
X203685713Y-74639286D02*
X203685713Y-75215476D01*
X203633332Y-75320238D01*
X203528570Y-75372619D01*
X203371428Y-75372619D01*
X203266666Y-75320238D01*
X203214285Y-75267857D01*
X202533332Y-75372619D02*
X202638094Y-75320238D01*
X202690475Y-75215476D01*
X202690475Y-74272619D01*
X202166666Y-75320238D02*
X202061904Y-75372619D01*
X201852380Y-75372619D01*
X201747619Y-75320238D01*
X201695238Y-75215476D01*
X201695238Y-75163095D01*
X201747619Y-75058333D01*
X201852380Y-75005952D01*
X202009523Y-75005952D01*
X202114285Y-74953571D01*
X202166666Y-74848810D01*
X202166666Y-74796429D01*
X202114285Y-74691667D01*
X202009523Y-74639286D01*
X201852380Y-74639286D01*
X201747619Y-74691667D01*
X200804762Y-75320238D02*
X200909524Y-75372619D01*
X201119047Y-75372619D01*
X201223809Y-75320238D01*
X201276190Y-75215476D01*
X201276190Y-74796429D01*
X201223809Y-74691667D01*
X201119047Y-74639286D01*
X200909524Y-74639286D01*
X200804762Y-74691667D01*
X200752381Y-74796429D01*
X200752381Y-74901190D01*
X201276190Y-75005952D01*
X199442857Y-75372619D02*
X199442857Y-74639286D01*
X199442857Y-74848810D02*
X199390476Y-74744048D01*
X199338095Y-74691667D01*
X199233333Y-74639286D01*
X199128572Y-74639286D01*
X198342858Y-75320238D02*
X198447620Y-75372619D01*
X198657143Y-75372619D01*
X198761905Y-75320238D01*
X198814286Y-75215476D01*
X198814286Y-74796429D01*
X198761905Y-74691667D01*
X198657143Y-74639286D01*
X198447620Y-74639286D01*
X198342858Y-74691667D01*
X198290477Y-74796429D01*
X198290477Y-74901190D01*
X198814286Y-75005952D01*
X197923810Y-74639286D02*
X197661905Y-75372619D01*
X197400001Y-74639286D01*
X196509525Y-74639286D02*
X196509525Y-75372619D01*
X196771429Y-74220238D02*
X197033334Y-75005952D01*
X196352382Y-75005952D01*
X195461906Y-75372619D02*
X195461906Y-74796429D01*
X195514287Y-74691667D01*
X195619049Y-74639286D01*
X195828572Y-74639286D01*
X195933334Y-74691667D01*
X195461906Y-75320238D02*
X195566668Y-75372619D01*
X195828572Y-75372619D01*
X195933334Y-75320238D01*
X195985715Y-75215476D01*
X195985715Y-75110714D01*
X195933334Y-75005952D01*
X195828572Y-74953571D01*
X195566668Y-74953571D01*
X195461906Y-74901190D01*
X204235714Y-76227381D02*
X204183333Y-76175000D01*
X204078571Y-76122619D01*
X203816667Y-76122619D01*
X203711905Y-76175000D01*
X203659524Y-76227381D01*
X203607143Y-76332143D01*
X203607143Y-76436905D01*
X203659524Y-76594048D01*
X204288095Y-77222619D01*
X203607143Y-77222619D01*
X202926190Y-76122619D02*
X202821429Y-76122619D01*
X202716667Y-76175000D01*
X202664286Y-76227381D01*
X202611905Y-76332143D01*
X202559524Y-76541667D01*
X202559524Y-76803571D01*
X202611905Y-77013095D01*
X202664286Y-77117857D01*
X202716667Y-77170238D01*
X202821429Y-77222619D01*
X202926190Y-77222619D01*
X203030952Y-77170238D01*
X203083333Y-77117857D01*
X203135714Y-77013095D01*
X203188095Y-76803571D01*
X203188095Y-76541667D01*
X203135714Y-76332143D01*
X203083333Y-76227381D01*
X203030952Y-76175000D01*
X202926190Y-76122619D01*
X201511905Y-77222619D02*
X202140476Y-77222619D01*
X201826190Y-77222619D02*
X201826190Y-76122619D01*
X201930952Y-76279762D01*
X202035714Y-76384524D01*
X202140476Y-76436905D01*
X201145238Y-76122619D02*
X200411905Y-76122619D01*
X200883333Y-77222619D01*
D12*
X153838571Y-82154286D02*
X153752857Y-81897143D01*
X153667143Y-81811428D01*
X153495714Y-81725714D01*
X153238571Y-81725714D01*
X153067143Y-81811428D01*
X152981429Y-81897143D01*
X152895714Y-82068571D01*
X152895714Y-82754286D01*
X154695714Y-82754286D01*
X154695714Y-82154286D01*
X154610000Y-81982857D01*
X154524286Y-81897143D01*
X154352857Y-81811428D01*
X154181429Y-81811428D01*
X154010000Y-81897143D01*
X153924286Y-81982857D01*
X153838571Y-82154286D01*
X153838571Y-82754286D01*
X152895714Y-79925714D02*
X153752857Y-80525714D01*
X152895714Y-80954286D02*
X154695714Y-80954286D01*
X154695714Y-80268571D01*
X154610000Y-80097143D01*
X154524286Y-80011428D01*
X154352857Y-79925714D01*
X154095714Y-79925714D01*
X153924286Y-80011428D01*
X153838571Y-80097143D01*
X153752857Y-80268571D01*
X153752857Y-80954286D01*
X152895714Y-79154286D02*
X154695714Y-79154286D01*
X152895714Y-78125714D01*
X154695714Y-78125714D01*
D13*
X206090900Y-78850000D03*
X207090900Y-78850000D03*
X206090900Y-78259940D03*
X207090900Y-78259940D03*
D14*
X167040000Y-74480000D03*
X168540000Y-74480000D03*
D15*
X201350880Y-91802840D03*
X201350880Y-90802840D03*
D16*
X172110400Y-74523600D03*
D17*
X170840400Y-74523600D03*
D16*
X164781000Y-91694800D03*
X163511000Y-91694800D03*
X160971000Y-91694800D03*
X162241000Y-91694800D03*
X159701000Y-91694800D03*
D17*
X158431000Y-91694800D03*
D16*
X191582040Y-78127860D03*
X192857120Y-79496920D03*
X179740000Y-82700000D03*
X180270000Y-80140000D03*
X205945740Y-88092280D03*
X204769720Y-90172540D03*
X204558900Y-92260420D03*
X205999080Y-93024960D03*
X163405000Y-73280000D03*
D17*
X162135000Y-73280000D03*
D16*
X182600000Y-72900000D03*
X193992500Y-73126600D03*
X196786500Y-76212700D03*
X210400000Y-75300000D03*
D13*
X160170000Y-74630000D03*
X161170000Y-74630000D03*
D15*
X196075300Y-79095600D03*
X196075300Y-78095600D03*
X197053200Y-79108300D03*
X197053200Y-78108300D03*
D16*
X194513200Y-78930500D03*
X195173600Y-80086200D03*
D18*
X215460000Y-77780000D03*
X215460000Y-72780000D03*
X215460000Y-86800000D03*
X215460000Y-81800000D03*
X215460000Y-95870000D03*
X215460000Y-90870000D03*
D14*
X184200000Y-79950000D03*
X182700000Y-79950000D03*
X182700000Y-92550000D03*
X184200000Y-92550000D03*
D16*
X188620400Y-80200500D03*
X187426600Y-80556100D03*
X184569100Y-81267300D03*
D19*
X168880000Y-89760000D03*
X166980000Y-89760000D03*
X163650000Y-76230000D03*
X161750000Y-76230000D03*
D13*
X167290000Y-87170000D03*
X166290000Y-87170000D03*
M02*
