G04 (created by PCBNEW (2013-may-18)-stable) date Sat 28 Jun 2014 08:59:17 PM EDT*
%MOIN*%
G04 Gerber Fmt 3.4, Leading zero omitted, Abs format*
%FSLAX34Y34*%
G01*
G70*
G90*
G04 APERTURE LIST*
%ADD10C,0.00590551*%
%ADD11C,0.00787402*%
%ADD12C,0.011811*%
%ADD13C,0.0001*%
%ADD14C,0.04*%
%ADD15R,0.04X0.04*%
%ADD16R,0.019685X0.023622*%
%ADD17R,0.023622X0.019685*%
%ADD18C,0.0846457*%
%ADD19C,0.09*%
G04 APERTURE END LIST*
G54D10*
G54D11*
X83169Y-29563D02*
X82963Y-29563D01*
X83210Y-29687D02*
X83066Y-29254D01*
X82922Y-29687D01*
X82592Y-29398D02*
X82592Y-29687D01*
X82777Y-29398D02*
X82777Y-29625D01*
X82757Y-29666D01*
X82715Y-29687D01*
X82653Y-29687D01*
X82612Y-29666D01*
X82592Y-29645D01*
X82200Y-29687D02*
X82200Y-29254D01*
X82200Y-29666D02*
X82241Y-29687D01*
X82323Y-29687D01*
X82365Y-29666D01*
X82385Y-29645D01*
X82406Y-29604D01*
X82406Y-29480D01*
X82385Y-29439D01*
X82365Y-29419D01*
X82323Y-29398D01*
X82241Y-29398D01*
X82200Y-29419D01*
X81994Y-29687D02*
X81994Y-29398D01*
X81994Y-29254D02*
X82014Y-29274D01*
X81994Y-29295D01*
X81973Y-29274D01*
X81994Y-29254D01*
X81994Y-29295D01*
X81725Y-29687D02*
X81767Y-29666D01*
X81787Y-29645D01*
X81808Y-29604D01*
X81808Y-29480D01*
X81787Y-29439D01*
X81767Y-29419D01*
X81725Y-29398D01*
X81664Y-29398D01*
X81622Y-29419D01*
X81602Y-29439D01*
X81581Y-29480D01*
X81581Y-29604D01*
X81602Y-29645D01*
X81622Y-29666D01*
X81664Y-29687D01*
X81725Y-29687D01*
X81395Y-29687D02*
X81395Y-29254D01*
X81230Y-29254D01*
X81189Y-29274D01*
X81169Y-29295D01*
X81148Y-29336D01*
X81148Y-29398D01*
X81169Y-29439D01*
X81189Y-29460D01*
X81230Y-29480D01*
X81395Y-29480D01*
X80777Y-29398D02*
X80777Y-29687D01*
X80962Y-29398D02*
X80962Y-29625D01*
X80942Y-29666D01*
X80901Y-29687D01*
X80839Y-29687D01*
X80797Y-29666D01*
X80777Y-29645D01*
X80509Y-29687D02*
X80550Y-29666D01*
X80571Y-29625D01*
X80571Y-29254D01*
X80364Y-29666D02*
X80323Y-29687D01*
X80241Y-29687D01*
X80199Y-29666D01*
X80179Y-29625D01*
X80179Y-29604D01*
X80199Y-29563D01*
X80241Y-29542D01*
X80302Y-29542D01*
X80344Y-29522D01*
X80364Y-29480D01*
X80364Y-29460D01*
X80344Y-29419D01*
X80302Y-29398D01*
X80241Y-29398D01*
X80199Y-29419D01*
X79828Y-29666D02*
X79869Y-29687D01*
X79952Y-29687D01*
X79993Y-29666D01*
X80014Y-29625D01*
X80014Y-29460D01*
X79993Y-29419D01*
X79952Y-29398D01*
X79869Y-29398D01*
X79828Y-29419D01*
X79808Y-29460D01*
X79808Y-29501D01*
X80014Y-29542D01*
X79292Y-29687D02*
X79292Y-29398D01*
X79292Y-29480D02*
X79271Y-29439D01*
X79251Y-29419D01*
X79209Y-29398D01*
X79168Y-29398D01*
X78859Y-29666D02*
X78900Y-29687D01*
X78983Y-29687D01*
X79024Y-29666D01*
X79044Y-29625D01*
X79044Y-29460D01*
X79024Y-29419D01*
X78983Y-29398D01*
X78900Y-29398D01*
X78859Y-29419D01*
X78838Y-29460D01*
X78838Y-29501D01*
X79044Y-29542D01*
X78694Y-29398D02*
X78591Y-29687D01*
X78488Y-29398D01*
X78343Y-29295D02*
X78323Y-29274D01*
X78281Y-29254D01*
X78178Y-29254D01*
X78137Y-29274D01*
X78116Y-29295D01*
X78096Y-29336D01*
X78096Y-29377D01*
X78116Y-29439D01*
X78364Y-29687D01*
X78096Y-29687D01*
X77910Y-29687D02*
X77910Y-29254D01*
X77910Y-29419D02*
X77869Y-29398D01*
X77787Y-29398D01*
X77745Y-29419D01*
X77725Y-29439D01*
X77704Y-29480D01*
X77704Y-29604D01*
X77725Y-29645D01*
X77745Y-29666D01*
X77787Y-29687D01*
X77869Y-29687D01*
X77910Y-29666D01*
X81179Y-29980D02*
X81158Y-29959D01*
X81117Y-29939D01*
X81014Y-29939D01*
X80973Y-29959D01*
X80952Y-29980D01*
X80931Y-30021D01*
X80931Y-30062D01*
X80952Y-30124D01*
X81200Y-30372D01*
X80931Y-30372D01*
X80663Y-29939D02*
X80622Y-29939D01*
X80581Y-29959D01*
X80560Y-29980D01*
X80540Y-30021D01*
X80519Y-30104D01*
X80519Y-30207D01*
X80540Y-30289D01*
X80560Y-30330D01*
X80581Y-30351D01*
X80622Y-30372D01*
X80663Y-30372D01*
X80705Y-30351D01*
X80725Y-30330D01*
X80746Y-30289D01*
X80766Y-30207D01*
X80766Y-30104D01*
X80746Y-30021D01*
X80725Y-29980D01*
X80705Y-29959D01*
X80663Y-29939D01*
X80107Y-30372D02*
X80354Y-30372D01*
X80230Y-30372D02*
X80230Y-29939D01*
X80272Y-30000D01*
X80313Y-30042D01*
X80354Y-30062D01*
X79735Y-30083D02*
X79735Y-30372D01*
X79838Y-29918D02*
X79942Y-30227D01*
X79673Y-30227D01*
G54D12*
X60600Y-32344D02*
X60566Y-32242D01*
X60532Y-32209D01*
X60465Y-32175D01*
X60363Y-32175D01*
X60296Y-32209D01*
X60262Y-32242D01*
X60228Y-32310D01*
X60228Y-32580D01*
X60937Y-32580D01*
X60937Y-32344D01*
X60903Y-32276D01*
X60870Y-32242D01*
X60802Y-32209D01*
X60735Y-32209D01*
X60667Y-32242D01*
X60633Y-32276D01*
X60600Y-32344D01*
X60600Y-32580D01*
X60228Y-31466D02*
X60566Y-31703D01*
X60228Y-31871D02*
X60937Y-31871D01*
X60937Y-31601D01*
X60903Y-31534D01*
X60870Y-31500D01*
X60802Y-31466D01*
X60701Y-31466D01*
X60633Y-31500D01*
X60600Y-31534D01*
X60566Y-31601D01*
X60566Y-31871D01*
X60228Y-31163D02*
X60937Y-31163D01*
X60228Y-30758D01*
X60937Y-30758D01*
G54D13*
G36*
X71833Y-30670D02*
X71488Y-30670D01*
X71143Y-30670D01*
X71079Y-30929D01*
X71043Y-31061D01*
X71013Y-31140D01*
X70983Y-31178D01*
X70949Y-31187D01*
X70917Y-31180D01*
X70894Y-31152D01*
X70878Y-31089D01*
X70864Y-30980D01*
X70855Y-30887D01*
X70837Y-30710D01*
X70821Y-30593D01*
X70806Y-30531D01*
X70789Y-30518D01*
X70770Y-30548D01*
X70764Y-30562D01*
X70736Y-30608D01*
X70686Y-30630D01*
X70594Y-30637D01*
X70568Y-30637D01*
X70502Y-30637D01*
X70453Y-30631D01*
X70417Y-30611D01*
X70393Y-30568D01*
X70378Y-30494D01*
X70368Y-30381D01*
X70362Y-30219D01*
X70357Y-30001D01*
X70356Y-29954D01*
X70350Y-29744D01*
X70343Y-29589D01*
X70332Y-29474D01*
X70316Y-29388D01*
X70294Y-29318D01*
X70273Y-29270D01*
X70161Y-29077D01*
X70031Y-28943D01*
X69872Y-28862D01*
X69674Y-28826D01*
X69566Y-28822D01*
X69346Y-28843D01*
X69171Y-28906D01*
X69029Y-29018D01*
X68910Y-29187D01*
X68860Y-29287D01*
X68827Y-29364D01*
X68806Y-29439D01*
X68793Y-29528D01*
X68787Y-29647D01*
X68786Y-29812D01*
X68786Y-29887D01*
X68790Y-30059D01*
X68799Y-30214D01*
X68811Y-30335D01*
X68825Y-30408D01*
X68827Y-30412D01*
X68865Y-30504D01*
X69249Y-30504D01*
X69419Y-30505D01*
X69533Y-30510D01*
X69601Y-30523D01*
X69633Y-30547D01*
X69640Y-30583D01*
X69636Y-30614D01*
X69644Y-30694D01*
X69678Y-30798D01*
X69727Y-30898D01*
X69774Y-30960D01*
X69887Y-31031D01*
X70043Y-31089D01*
X70217Y-31127D01*
X70355Y-31137D01*
X70533Y-31137D01*
X70533Y-31625D01*
X70533Y-32114D01*
X70402Y-32238D01*
X70396Y-32242D01*
X70396Y-31883D01*
X70395Y-31757D01*
X70392Y-31651D01*
X70383Y-31287D01*
X70183Y-31263D01*
X69945Y-31217D01*
X69763Y-31142D01*
X69632Y-31034D01*
X69545Y-30890D01*
X69515Y-30795D01*
X69480Y-30654D01*
X69218Y-30644D01*
X69091Y-30642D01*
X68990Y-30647D01*
X68934Y-30658D01*
X68929Y-30660D01*
X68935Y-30698D01*
X68972Y-30775D01*
X69034Y-30878D01*
X69062Y-30921D01*
X69150Y-31059D01*
X69204Y-31170D01*
X69232Y-31276D01*
X69241Y-31338D01*
X69286Y-31594D01*
X69362Y-31818D01*
X69465Y-32007D01*
X69588Y-32154D01*
X69727Y-32255D01*
X69876Y-32303D01*
X70031Y-32294D01*
X70126Y-32256D01*
X70210Y-32200D01*
X70298Y-32123D01*
X70309Y-32112D01*
X70350Y-32066D01*
X70376Y-32023D01*
X70390Y-31967D01*
X70396Y-31883D01*
X70396Y-32242D01*
X70293Y-32321D01*
X70159Y-32395D01*
X70024Y-32447D01*
X69912Y-32468D01*
X69902Y-32468D01*
X69839Y-32455D01*
X69745Y-32427D01*
X69717Y-32417D01*
X69533Y-32315D01*
X69375Y-32154D01*
X69246Y-31939D01*
X69149Y-31673D01*
X69084Y-31361D01*
X69083Y-31354D01*
X69054Y-31232D01*
X69006Y-31121D01*
X68985Y-31087D01*
X68926Y-30999D01*
X68858Y-30883D01*
X68821Y-30813D01*
X68755Y-30704D01*
X68701Y-30660D01*
X68659Y-30682D01*
X68629Y-30770D01*
X68621Y-30814D01*
X68586Y-31005D01*
X68546Y-31131D01*
X68500Y-31192D01*
X68472Y-31197D01*
X68436Y-31170D01*
X68409Y-31097D01*
X68390Y-30986D01*
X68366Y-30812D01*
X68349Y-30694D01*
X68335Y-30624D01*
X68321Y-30592D01*
X68304Y-30589D01*
X68282Y-30606D01*
X68270Y-30617D01*
X68230Y-30641D01*
X68166Y-30656D01*
X68066Y-30666D01*
X67917Y-30670D01*
X67805Y-30670D01*
X67400Y-30670D01*
X67400Y-30570D01*
X67400Y-30470D01*
X67762Y-30470D01*
X68125Y-30470D01*
X68160Y-30379D01*
X68190Y-30291D01*
X68225Y-30175D01*
X68240Y-30120D01*
X68275Y-30015D01*
X68312Y-29964D01*
X68349Y-29954D01*
X68397Y-29970D01*
X68430Y-30025D01*
X68451Y-30127D01*
X68461Y-30284D01*
X68463Y-30367D01*
X68465Y-30492D01*
X68472Y-30561D01*
X68485Y-30585D01*
X68508Y-30575D01*
X68527Y-30559D01*
X68591Y-30516D01*
X68631Y-30503D01*
X68658Y-30483D01*
X68659Y-30415D01*
X68654Y-30379D01*
X68611Y-29996D01*
X68616Y-29658D01*
X68670Y-29366D01*
X68773Y-29120D01*
X68920Y-28922D01*
X69061Y-28799D01*
X69205Y-28721D01*
X69373Y-28681D01*
X69565Y-28670D01*
X69819Y-28694D01*
X70029Y-28766D01*
X70202Y-28891D01*
X70341Y-29072D01*
X70434Y-29263D01*
X70466Y-29353D01*
X70489Y-29446D01*
X70504Y-29558D01*
X70515Y-29704D01*
X70522Y-29899D01*
X70523Y-29937D01*
X70529Y-30112D01*
X70536Y-30266D01*
X70543Y-30384D01*
X70550Y-30454D01*
X70552Y-30466D01*
X70579Y-30494D01*
X70615Y-30471D01*
X70652Y-30407D01*
X70679Y-30313D01*
X70683Y-30293D01*
X70719Y-30116D01*
X70761Y-30003D01*
X70812Y-29949D01*
X70848Y-29944D01*
X70883Y-29957D01*
X70907Y-29992D01*
X70924Y-30065D01*
X70939Y-30187D01*
X70943Y-30220D01*
X70959Y-30349D01*
X70978Y-30452D01*
X70997Y-30512D01*
X71001Y-30518D01*
X71029Y-30528D01*
X71033Y-30510D01*
X71055Y-30492D01*
X71124Y-30479D01*
X71248Y-30472D01*
X71432Y-30470D01*
X71433Y-30470D01*
X71833Y-30470D01*
X71833Y-30570D01*
X71833Y-30670D01*
X71833Y-30670D01*
X71833Y-30670D01*
G37*
G54D14*
X84494Y-35062D03*
G54D15*
X84494Y-34562D03*
G54D14*
X84496Y-31753D03*
G54D15*
X84496Y-31253D03*
G54D14*
X62860Y-36010D03*
G54D15*
X62860Y-36510D03*
G54D14*
X64195Y-29325D03*
G54D15*
X63695Y-29325D03*
G54D14*
X84500Y-36564D03*
G54D15*
X84500Y-36064D03*
G54D14*
X84492Y-29253D03*
G54D15*
X84492Y-29753D03*
G54D14*
X67760Y-29340D03*
G54D15*
X67260Y-29340D03*
G54D14*
X66650Y-36120D03*
X66150Y-36120D03*
X65150Y-36120D03*
X65650Y-36120D03*
X64650Y-36120D03*
G54D15*
X64150Y-36120D03*
G54D16*
X81138Y-31129D03*
X81531Y-31129D03*
X81138Y-30811D03*
X81531Y-30811D03*
G54D17*
X79272Y-36142D03*
X79272Y-35749D03*
G54D14*
X75928Y-31298D03*
X75426Y-30759D03*
X62185Y-30547D03*
X61089Y-33509D03*
X81081Y-34682D03*
X80618Y-35501D03*
X80535Y-36323D03*
X81102Y-36624D03*
G54D18*
X61417Y-35157D03*
G54D19*
X71743Y-32284D03*
G54D14*
X70763Y-32559D03*
X70972Y-31551D03*
M02*
