G04 #@! TF.FileFunction,Copper,L3,Inr,Mixed*
%FSLAX46Y46*%
G04 Gerber Fmt 4.6, Leading zero omitted, Abs format (unit mm)*
G04 Created by KiCad (PCBNEW 4.0.5) date Sun Mar 19 22:32:23 2017*
%MOMM*%
%LPD*%
G01*
G04 APERTURE LIST*
%ADD10C,0.150000*%
%ADD11C,1.249680*%
%ADD12C,1.600200*%
%ADD13C,1.016000*%
%ADD14R,1.016000X1.016000*%
%ADD15C,0.400000*%
%ADD16C,0.457200*%
%ADD17C,0.685800*%
%ADD18C,0.457200*%
%ADD19C,0.177800*%
%ADD20C,0.330200*%
%ADD21C,0.152400*%
G04 APERTURE END LIST*
D10*
D11*
X156390340Y-82971640D03*
D12*
X153690320Y-83972400D03*
X153690320Y-76972160D03*
D11*
X156390340Y-77972920D03*
D13*
X172110400Y-74523600D03*
D14*
X170840400Y-74523600D03*
D13*
X164781000Y-91694800D03*
X163511000Y-91694800D03*
X160971000Y-91694800D03*
X162241000Y-91694800D03*
X159701000Y-91694800D03*
D14*
X158431000Y-91694800D03*
D13*
X191582040Y-78127860D03*
X192857120Y-79496920D03*
X179740000Y-82700000D03*
X180270000Y-80140000D03*
X205945740Y-88092280D03*
X204769720Y-90172540D03*
X204558900Y-92260420D03*
X205999080Y-93024960D03*
D15*
X208853200Y-89630680D03*
X208853200Y-91430680D03*
X210653200Y-90530680D03*
X209753200Y-89630680D03*
X209753200Y-91430680D03*
X208853200Y-90530680D03*
X210653200Y-89630680D03*
X209753200Y-90530680D03*
X210653200Y-91430680D03*
D13*
X163405000Y-73280000D03*
D14*
X162135000Y-73280000D03*
D13*
X182600000Y-72900000D03*
X193992500Y-73126600D03*
X196786500Y-76212700D03*
X210400000Y-75300000D03*
X194513200Y-78930500D03*
X195173600Y-80086200D03*
X188620400Y-80200500D03*
X187426600Y-80556100D03*
X184569100Y-81267300D03*
D16*
X185150000Y-91101810D03*
D17*
X208950000Y-79150000D03*
D16*
X182553713Y-90986383D03*
X186250000Y-80450000D03*
X186150000Y-79850000D03*
X198950000Y-79900000D03*
D17*
X207100000Y-86800000D03*
D16*
X211850000Y-92200000D03*
X208070000Y-88540000D03*
X212450000Y-91100000D03*
D17*
X203489560Y-87370920D03*
X201335640Y-92374720D03*
D16*
X185100000Y-83630000D03*
X186560000Y-83400000D03*
X178470000Y-72840000D03*
X169400000Y-75030000D03*
X173610000Y-86810000D03*
X168080000Y-84180000D03*
X171970000Y-79080000D03*
X172970000Y-78570000D03*
X188075921Y-94363621D03*
X189344300Y-93726012D03*
X173050000Y-89480000D03*
X169916245Y-91918719D03*
X177930000Y-89180000D03*
X163210000Y-89010000D03*
X177830000Y-88400000D03*
X163320000Y-86830000D03*
X158260000Y-85310000D03*
X164641614Y-89360955D03*
X161230000Y-90660000D03*
X163420000Y-74470000D03*
X189560200Y-81089500D03*
X185089800Y-72948800D03*
X185318400Y-75882500D03*
X209900000Y-73600000D03*
X197500000Y-73000000D03*
X202500000Y-73300000D03*
X198700000Y-81950000D03*
X202300000Y-82600000D03*
X206400000Y-82500000D03*
X184550000Y-86250000D03*
X184600000Y-88500000D03*
X206850000Y-80750010D03*
X191800000Y-88000000D03*
X199500000Y-74300000D03*
X197900000Y-78300000D03*
X211750000Y-81450000D03*
X212250000Y-74400000D03*
X206850000Y-76600000D03*
X206485298Y-78800000D03*
X205950000Y-75700000D03*
X191750000Y-80900000D03*
X191050000Y-79800000D03*
X188150000Y-88400000D03*
D17*
X210822540Y-79369920D03*
X215460000Y-72780000D03*
X215460000Y-77780000D03*
X189943740Y-83200240D03*
X196550000Y-83000000D03*
D16*
X190250000Y-88300000D03*
X189700000Y-88350000D03*
X155140000Y-94440000D03*
X153070000Y-94270000D03*
X166730000Y-72770000D03*
X155384500Y-88798400D03*
X154266900Y-88023700D03*
X204650000Y-79600000D03*
X197777100Y-76657200D03*
X204520800Y-75857100D03*
X198711820Y-90263980D03*
X199194420Y-91600020D03*
X170800002Y-90800000D03*
X168331750Y-91318250D03*
X171330000Y-91230000D03*
X169576617Y-91443383D03*
D17*
X207124300Y-92961460D03*
X188907420Y-92743020D03*
D16*
X162460000Y-86790000D03*
X169410000Y-87920000D03*
X185360000Y-92160000D03*
X184710000Y-91980000D03*
X210261200Y-93433900D03*
X195465700Y-84785200D03*
X198945500Y-84785200D03*
X203009500Y-84772500D03*
X207276700Y-85090000D03*
X215460000Y-81800000D03*
X215460000Y-86800000D03*
X201602340Y-90142060D03*
X203716984Y-91004337D03*
D17*
X215460000Y-95870000D03*
X215460000Y-90870000D03*
X195008500Y-90319860D03*
X197899020Y-90858340D03*
X208681320Y-86288880D03*
X205900020Y-86845140D03*
X203800000Y-86000000D03*
D16*
X170300000Y-87850000D03*
X167610000Y-86890000D03*
X168190000Y-77270000D03*
X169890000Y-80510000D03*
X176910000Y-87960000D03*
X160580000Y-84800000D03*
X161700000Y-75130000D03*
X152895300Y-74726800D03*
X181550000Y-91000000D03*
X182550000Y-86450000D03*
X182400000Y-91550000D03*
X181800000Y-91750000D03*
X181200000Y-90000000D03*
X181250000Y-87400000D03*
X174150000Y-83950000D03*
D17*
X176227740Y-82090260D03*
X174850000Y-73600000D03*
X173500000Y-75050000D03*
D16*
X155969409Y-91450591D03*
X155300000Y-93420000D03*
X153530300Y-85813900D03*
D17*
X178700000Y-76520000D03*
X182740000Y-76620000D03*
X180120000Y-76320000D03*
X182560000Y-75040000D03*
D16*
X153392730Y-93677270D03*
X169560000Y-86380000D03*
X178760000Y-87850000D03*
X168860000Y-89380000D03*
X166500000Y-92620000D03*
X167130000Y-92690000D03*
X167700000Y-92650000D03*
X167551973Y-77255455D03*
X160630000Y-85470000D03*
X169980000Y-79810000D03*
X167850000Y-75550000D03*
X166470000Y-74580000D03*
X161044398Y-75970000D03*
X157740000Y-89240000D03*
X153953000Y-92233100D03*
D17*
X191119760Y-90241120D03*
X178020000Y-93680000D03*
D16*
X162315589Y-75138453D03*
X155510002Y-81100000D03*
X158375290Y-82981910D03*
X166170000Y-86819998D03*
D18*
X185473289Y-91101810D02*
X185150000Y-91101810D01*
X185493289Y-91101810D02*
X185473289Y-91101810D01*
X185948320Y-91556841D02*
X185493289Y-91101810D01*
X198286623Y-91556841D02*
X185948320Y-91556841D01*
X199104502Y-92374720D02*
X198286623Y-91556841D01*
X201335640Y-92374720D02*
X199104502Y-92374720D01*
D19*
X209292899Y-79492899D02*
X208950000Y-79150000D01*
X209300000Y-79500000D02*
X209292899Y-79492899D01*
X209300000Y-80950000D02*
X209300000Y-79500000D01*
D20*
X178020000Y-93680000D02*
X178760000Y-92940000D01*
X178760000Y-92940000D02*
X178760000Y-89120638D01*
X178760000Y-89120638D02*
X178760000Y-87850000D01*
D21*
G36*
X168423800Y-75184000D02*
X168166543Y-75184000D01*
X168123728Y-75141110D01*
X167946416Y-75067484D01*
X167754426Y-75067316D01*
X167576986Y-75140633D01*
X167533543Y-75184000D01*
X162798150Y-75184000D01*
X162798273Y-75042879D01*
X162724956Y-74865439D01*
X162589317Y-74729563D01*
X162412005Y-74655937D01*
X162220015Y-74655769D01*
X162042575Y-74729086D01*
X162012079Y-74759528D01*
X161973728Y-74721110D01*
X161796416Y-74647484D01*
X161604426Y-74647316D01*
X161426986Y-74720633D01*
X161291110Y-74856272D01*
X161217484Y-75033584D01*
X161217352Y-75184000D01*
X159893000Y-75184000D01*
X159797422Y-75202669D01*
X159713395Y-75258395D01*
X158570395Y-76401395D01*
X158516012Y-76482180D01*
X158496000Y-76581000D01*
X158496000Y-82509482D01*
X158471706Y-82499394D01*
X158279716Y-82499226D01*
X158102276Y-82572543D01*
X157966400Y-82708182D01*
X157892774Y-82885494D01*
X157892606Y-83077484D01*
X157965923Y-83254924D01*
X158101562Y-83390800D01*
X158278874Y-83464426D01*
X158470864Y-83464594D01*
X158496000Y-83454208D01*
X158496000Y-84885444D01*
X158356416Y-84827484D01*
X158164426Y-84827316D01*
X157986986Y-84900633D01*
X157851110Y-85036272D01*
X157777484Y-85213584D01*
X157777316Y-85405574D01*
X157850633Y-85583014D01*
X157986272Y-85718890D01*
X158163584Y-85792516D01*
X158355574Y-85792684D01*
X158496000Y-85734661D01*
X158496000Y-85873790D01*
X156157395Y-88212395D01*
X156103012Y-88293180D01*
X156083000Y-88392000D01*
X156083000Y-90975207D01*
X156065825Y-90968075D01*
X155873835Y-90967907D01*
X155696395Y-91041224D01*
X155560519Y-91176863D01*
X155486893Y-91354175D01*
X155486725Y-91546165D01*
X155560042Y-91723605D01*
X155695681Y-91859481D01*
X155872993Y-91933107D01*
X156064983Y-91933275D01*
X156083000Y-91925830D01*
X156083000Y-93853000D01*
X156101669Y-93948578D01*
X156157395Y-94032605D01*
X156845790Y-94721000D01*
X152279000Y-94721000D01*
X152279000Y-93772844D01*
X152910046Y-93772844D01*
X152983363Y-93950284D01*
X153119002Y-94086160D01*
X153296314Y-94159786D01*
X153488304Y-94159954D01*
X153665744Y-94086637D01*
X153801620Y-93950998D01*
X153875246Y-93773686D01*
X153875414Y-93581696D01*
X153848093Y-93515574D01*
X154817316Y-93515574D01*
X154890633Y-93693014D01*
X155026272Y-93828890D01*
X155203584Y-93902516D01*
X155395574Y-93902684D01*
X155573014Y-93829367D01*
X155708890Y-93693728D01*
X155782516Y-93516416D01*
X155782684Y-93324426D01*
X155709367Y-93146986D01*
X155573728Y-93011110D01*
X155396416Y-92937484D01*
X155204426Y-92937316D01*
X155026986Y-93010633D01*
X154891110Y-93146272D01*
X154817484Y-93323584D01*
X154817316Y-93515574D01*
X153848093Y-93515574D01*
X153802097Y-93404256D01*
X153666458Y-93268380D01*
X153489146Y-93194754D01*
X153297156Y-93194586D01*
X153119716Y-93267903D01*
X152983840Y-93403542D01*
X152910214Y-93580854D01*
X152910046Y-93772844D01*
X152279000Y-93772844D01*
X152279000Y-92328674D01*
X153470316Y-92328674D01*
X153543633Y-92506114D01*
X153679272Y-92641990D01*
X153856584Y-92715616D01*
X154048574Y-92715784D01*
X154226014Y-92642467D01*
X154361890Y-92506828D01*
X154435516Y-92329516D01*
X154435684Y-92137526D01*
X154362367Y-91960086D01*
X154226728Y-91824210D01*
X154049416Y-91750584D01*
X153857426Y-91750416D01*
X153679986Y-91823733D01*
X153544110Y-91959372D01*
X153470484Y-92136684D01*
X153470316Y-92328674D01*
X152279000Y-92328674D01*
X152279000Y-85909474D01*
X153047616Y-85909474D01*
X153120933Y-86086914D01*
X153256572Y-86222790D01*
X153433884Y-86296416D01*
X153625874Y-86296584D01*
X153803314Y-86223267D01*
X153939190Y-86087628D01*
X154012816Y-85910316D01*
X154012984Y-85718326D01*
X153939667Y-85540886D01*
X153804028Y-85405010D01*
X153626716Y-85331384D01*
X153434726Y-85331216D01*
X153257286Y-85404533D01*
X153121410Y-85540172D01*
X153047784Y-85717484D01*
X153047616Y-85909474D01*
X152279000Y-85909474D01*
X152279000Y-84181154D01*
X152636037Y-84181154D01*
X152796176Y-84568720D01*
X153092441Y-84865501D01*
X153479727Y-85026317D01*
X153899074Y-85026683D01*
X154286640Y-84866544D01*
X154583421Y-84570279D01*
X154744237Y-84182993D01*
X154744603Y-83763646D01*
X154584464Y-83376080D01*
X154354470Y-83145685D01*
X155511348Y-83145685D01*
X155644862Y-83468812D01*
X155891867Y-83716249D01*
X156214761Y-83850327D01*
X156564385Y-83850632D01*
X156887512Y-83717118D01*
X157134949Y-83470113D01*
X157269027Y-83147219D01*
X157269332Y-82797595D01*
X157135818Y-82474468D01*
X156888813Y-82227031D01*
X156565919Y-82092953D01*
X156216295Y-82092648D01*
X155893168Y-82226162D01*
X155645731Y-82473167D01*
X155511653Y-82796061D01*
X155511348Y-83145685D01*
X154354470Y-83145685D01*
X154288199Y-83079299D01*
X153900913Y-82918483D01*
X153481566Y-82918117D01*
X153094000Y-83078256D01*
X152797219Y-83374521D01*
X152636403Y-83761807D01*
X152636037Y-84181154D01*
X152279000Y-84181154D01*
X152279000Y-81195574D01*
X155027318Y-81195574D01*
X155100635Y-81373014D01*
X155236274Y-81508890D01*
X155413586Y-81582516D01*
X155605576Y-81582684D01*
X155783016Y-81509367D01*
X155918892Y-81373728D01*
X155992518Y-81196416D01*
X155992686Y-81004426D01*
X155919369Y-80826986D01*
X155783730Y-80691110D01*
X155606418Y-80617484D01*
X155414428Y-80617316D01*
X155236988Y-80690633D01*
X155101112Y-80826272D01*
X155027486Y-81003584D01*
X155027318Y-81195574D01*
X152279000Y-81195574D01*
X152279000Y-78146965D01*
X155511348Y-78146965D01*
X155644862Y-78470092D01*
X155891867Y-78717529D01*
X156214761Y-78851607D01*
X156564385Y-78851912D01*
X156887512Y-78718398D01*
X157134949Y-78471393D01*
X157269027Y-78148499D01*
X157269332Y-77798875D01*
X157135818Y-77475748D01*
X156888813Y-77228311D01*
X156565919Y-77094233D01*
X156216295Y-77093928D01*
X155893168Y-77227442D01*
X155645731Y-77474447D01*
X155511653Y-77797341D01*
X155511348Y-78146965D01*
X152279000Y-78146965D01*
X152279000Y-77180914D01*
X152636037Y-77180914D01*
X152796176Y-77568480D01*
X153092441Y-77865261D01*
X153479727Y-78026077D01*
X153899074Y-78026443D01*
X154286640Y-77866304D01*
X154583421Y-77570039D01*
X154744237Y-77182753D01*
X154744603Y-76763406D01*
X154584464Y-76375840D01*
X154288199Y-76079059D01*
X153900913Y-75918243D01*
X153481566Y-75917877D01*
X153094000Y-76078016D01*
X152797219Y-76374281D01*
X152636403Y-76761567D01*
X152636037Y-77180914D01*
X152279000Y-77180914D01*
X152279000Y-74822374D01*
X152412616Y-74822374D01*
X152485933Y-74999814D01*
X152621572Y-75135690D01*
X152798884Y-75209316D01*
X152990874Y-75209484D01*
X153168314Y-75136167D01*
X153304190Y-75000528D01*
X153377816Y-74823216D01*
X153377984Y-74631226D01*
X153304667Y-74453786D01*
X153169028Y-74317910D01*
X152991716Y-74244284D01*
X152799726Y-74244116D01*
X152622286Y-74317433D01*
X152486410Y-74453072D01*
X152412784Y-74630384D01*
X152412616Y-74822374D01*
X152279000Y-74822374D01*
X152279000Y-72772000D01*
X161368024Y-72772000D01*
X161368024Y-73788000D01*
X161385735Y-73882127D01*
X161441364Y-73968576D01*
X161526244Y-74026572D01*
X161627000Y-74046976D01*
X162643000Y-74046976D01*
X162737127Y-74029265D01*
X162823576Y-73973636D01*
X162881572Y-73888756D01*
X162890752Y-73843425D01*
X162972798Y-73925615D01*
X163222658Y-74029366D01*
X163146986Y-74060633D01*
X163011110Y-74196272D01*
X162937484Y-74373584D01*
X162937316Y-74565574D01*
X163010633Y-74743014D01*
X163146272Y-74878890D01*
X163323584Y-74952516D01*
X163515574Y-74952684D01*
X163693014Y-74879367D01*
X163828890Y-74743728D01*
X163857189Y-74675574D01*
X165987316Y-74675574D01*
X166060633Y-74853014D01*
X166196272Y-74988890D01*
X166373584Y-75062516D01*
X166565574Y-75062684D01*
X166743014Y-74989367D01*
X166878890Y-74853728D01*
X166952516Y-74676416D01*
X166952684Y-74484426D01*
X166879367Y-74306986D01*
X166743728Y-74171110D01*
X166566416Y-74097484D01*
X166374426Y-74097316D01*
X166196986Y-74170633D01*
X166061110Y-74306272D01*
X165987484Y-74483584D01*
X165987316Y-74675574D01*
X163857189Y-74675574D01*
X163902516Y-74566416D01*
X163902684Y-74374426D01*
X163829367Y-74196986D01*
X163693728Y-74061110D01*
X163602078Y-74023054D01*
X163836074Y-73926368D01*
X164050615Y-73712202D01*
X164166867Y-73432236D01*
X164167132Y-73129094D01*
X164051368Y-72848926D01*
X163837202Y-72634385D01*
X163557236Y-72518133D01*
X163254094Y-72517868D01*
X162973926Y-72633632D01*
X162891435Y-72715979D01*
X162884265Y-72677873D01*
X162828636Y-72591424D01*
X162743756Y-72533428D01*
X162643000Y-72513024D01*
X161627000Y-72513024D01*
X161532873Y-72530735D01*
X161446424Y-72586364D01*
X161388428Y-72671244D01*
X161368024Y-72772000D01*
X152279000Y-72772000D01*
X152279000Y-72279000D01*
X168423800Y-72279000D01*
X168423800Y-75184000D01*
X168423800Y-75184000D01*
G37*
X168423800Y-75184000D02*
X168166543Y-75184000D01*
X168123728Y-75141110D01*
X167946416Y-75067484D01*
X167754426Y-75067316D01*
X167576986Y-75140633D01*
X167533543Y-75184000D01*
X162798150Y-75184000D01*
X162798273Y-75042879D01*
X162724956Y-74865439D01*
X162589317Y-74729563D01*
X162412005Y-74655937D01*
X162220015Y-74655769D01*
X162042575Y-74729086D01*
X162012079Y-74759528D01*
X161973728Y-74721110D01*
X161796416Y-74647484D01*
X161604426Y-74647316D01*
X161426986Y-74720633D01*
X161291110Y-74856272D01*
X161217484Y-75033584D01*
X161217352Y-75184000D01*
X159893000Y-75184000D01*
X159797422Y-75202669D01*
X159713395Y-75258395D01*
X158570395Y-76401395D01*
X158516012Y-76482180D01*
X158496000Y-76581000D01*
X158496000Y-82509482D01*
X158471706Y-82499394D01*
X158279716Y-82499226D01*
X158102276Y-82572543D01*
X157966400Y-82708182D01*
X157892774Y-82885494D01*
X157892606Y-83077484D01*
X157965923Y-83254924D01*
X158101562Y-83390800D01*
X158278874Y-83464426D01*
X158470864Y-83464594D01*
X158496000Y-83454208D01*
X158496000Y-84885444D01*
X158356416Y-84827484D01*
X158164426Y-84827316D01*
X157986986Y-84900633D01*
X157851110Y-85036272D01*
X157777484Y-85213584D01*
X157777316Y-85405574D01*
X157850633Y-85583014D01*
X157986272Y-85718890D01*
X158163584Y-85792516D01*
X158355574Y-85792684D01*
X158496000Y-85734661D01*
X158496000Y-85873790D01*
X156157395Y-88212395D01*
X156103012Y-88293180D01*
X156083000Y-88392000D01*
X156083000Y-90975207D01*
X156065825Y-90968075D01*
X155873835Y-90967907D01*
X155696395Y-91041224D01*
X155560519Y-91176863D01*
X155486893Y-91354175D01*
X155486725Y-91546165D01*
X155560042Y-91723605D01*
X155695681Y-91859481D01*
X155872993Y-91933107D01*
X156064983Y-91933275D01*
X156083000Y-91925830D01*
X156083000Y-93853000D01*
X156101669Y-93948578D01*
X156157395Y-94032605D01*
X156845790Y-94721000D01*
X152279000Y-94721000D01*
X152279000Y-93772844D01*
X152910046Y-93772844D01*
X152983363Y-93950284D01*
X153119002Y-94086160D01*
X153296314Y-94159786D01*
X153488304Y-94159954D01*
X153665744Y-94086637D01*
X153801620Y-93950998D01*
X153875246Y-93773686D01*
X153875414Y-93581696D01*
X153848093Y-93515574D01*
X154817316Y-93515574D01*
X154890633Y-93693014D01*
X155026272Y-93828890D01*
X155203584Y-93902516D01*
X155395574Y-93902684D01*
X155573014Y-93829367D01*
X155708890Y-93693728D01*
X155782516Y-93516416D01*
X155782684Y-93324426D01*
X155709367Y-93146986D01*
X155573728Y-93011110D01*
X155396416Y-92937484D01*
X155204426Y-92937316D01*
X155026986Y-93010633D01*
X154891110Y-93146272D01*
X154817484Y-93323584D01*
X154817316Y-93515574D01*
X153848093Y-93515574D01*
X153802097Y-93404256D01*
X153666458Y-93268380D01*
X153489146Y-93194754D01*
X153297156Y-93194586D01*
X153119716Y-93267903D01*
X152983840Y-93403542D01*
X152910214Y-93580854D01*
X152910046Y-93772844D01*
X152279000Y-93772844D01*
X152279000Y-92328674D01*
X153470316Y-92328674D01*
X153543633Y-92506114D01*
X153679272Y-92641990D01*
X153856584Y-92715616D01*
X154048574Y-92715784D01*
X154226014Y-92642467D01*
X154361890Y-92506828D01*
X154435516Y-92329516D01*
X154435684Y-92137526D01*
X154362367Y-91960086D01*
X154226728Y-91824210D01*
X154049416Y-91750584D01*
X153857426Y-91750416D01*
X153679986Y-91823733D01*
X153544110Y-91959372D01*
X153470484Y-92136684D01*
X153470316Y-92328674D01*
X152279000Y-92328674D01*
X152279000Y-85909474D01*
X153047616Y-85909474D01*
X153120933Y-86086914D01*
X153256572Y-86222790D01*
X153433884Y-86296416D01*
X153625874Y-86296584D01*
X153803314Y-86223267D01*
X153939190Y-86087628D01*
X154012816Y-85910316D01*
X154012984Y-85718326D01*
X153939667Y-85540886D01*
X153804028Y-85405010D01*
X153626716Y-85331384D01*
X153434726Y-85331216D01*
X153257286Y-85404533D01*
X153121410Y-85540172D01*
X153047784Y-85717484D01*
X153047616Y-85909474D01*
X152279000Y-85909474D01*
X152279000Y-84181154D01*
X152636037Y-84181154D01*
X152796176Y-84568720D01*
X153092441Y-84865501D01*
X153479727Y-85026317D01*
X153899074Y-85026683D01*
X154286640Y-84866544D01*
X154583421Y-84570279D01*
X154744237Y-84182993D01*
X154744603Y-83763646D01*
X154584464Y-83376080D01*
X154354470Y-83145685D01*
X155511348Y-83145685D01*
X155644862Y-83468812D01*
X155891867Y-83716249D01*
X156214761Y-83850327D01*
X156564385Y-83850632D01*
X156887512Y-83717118D01*
X157134949Y-83470113D01*
X157269027Y-83147219D01*
X157269332Y-82797595D01*
X157135818Y-82474468D01*
X156888813Y-82227031D01*
X156565919Y-82092953D01*
X156216295Y-82092648D01*
X155893168Y-82226162D01*
X155645731Y-82473167D01*
X155511653Y-82796061D01*
X155511348Y-83145685D01*
X154354470Y-83145685D01*
X154288199Y-83079299D01*
X153900913Y-82918483D01*
X153481566Y-82918117D01*
X153094000Y-83078256D01*
X152797219Y-83374521D01*
X152636403Y-83761807D01*
X152636037Y-84181154D01*
X152279000Y-84181154D01*
X152279000Y-81195574D01*
X155027318Y-81195574D01*
X155100635Y-81373014D01*
X155236274Y-81508890D01*
X155413586Y-81582516D01*
X155605576Y-81582684D01*
X155783016Y-81509367D01*
X155918892Y-81373728D01*
X155992518Y-81196416D01*
X155992686Y-81004426D01*
X155919369Y-80826986D01*
X155783730Y-80691110D01*
X155606418Y-80617484D01*
X155414428Y-80617316D01*
X155236988Y-80690633D01*
X155101112Y-80826272D01*
X155027486Y-81003584D01*
X155027318Y-81195574D01*
X152279000Y-81195574D01*
X152279000Y-78146965D01*
X155511348Y-78146965D01*
X155644862Y-78470092D01*
X155891867Y-78717529D01*
X156214761Y-78851607D01*
X156564385Y-78851912D01*
X156887512Y-78718398D01*
X157134949Y-78471393D01*
X157269027Y-78148499D01*
X157269332Y-77798875D01*
X157135818Y-77475748D01*
X156888813Y-77228311D01*
X156565919Y-77094233D01*
X156216295Y-77093928D01*
X155893168Y-77227442D01*
X155645731Y-77474447D01*
X155511653Y-77797341D01*
X155511348Y-78146965D01*
X152279000Y-78146965D01*
X152279000Y-77180914D01*
X152636037Y-77180914D01*
X152796176Y-77568480D01*
X153092441Y-77865261D01*
X153479727Y-78026077D01*
X153899074Y-78026443D01*
X154286640Y-77866304D01*
X154583421Y-77570039D01*
X154744237Y-77182753D01*
X154744603Y-76763406D01*
X154584464Y-76375840D01*
X154288199Y-76079059D01*
X153900913Y-75918243D01*
X153481566Y-75917877D01*
X153094000Y-76078016D01*
X152797219Y-76374281D01*
X152636403Y-76761567D01*
X152636037Y-77180914D01*
X152279000Y-77180914D01*
X152279000Y-74822374D01*
X152412616Y-74822374D01*
X152485933Y-74999814D01*
X152621572Y-75135690D01*
X152798884Y-75209316D01*
X152990874Y-75209484D01*
X153168314Y-75136167D01*
X153304190Y-75000528D01*
X153377816Y-74823216D01*
X153377984Y-74631226D01*
X153304667Y-74453786D01*
X153169028Y-74317910D01*
X152991716Y-74244284D01*
X152799726Y-74244116D01*
X152622286Y-74317433D01*
X152486410Y-74453072D01*
X152412784Y-74630384D01*
X152412616Y-74822374D01*
X152279000Y-74822374D01*
X152279000Y-72772000D01*
X161368024Y-72772000D01*
X161368024Y-73788000D01*
X161385735Y-73882127D01*
X161441364Y-73968576D01*
X161526244Y-74026572D01*
X161627000Y-74046976D01*
X162643000Y-74046976D01*
X162737127Y-74029265D01*
X162823576Y-73973636D01*
X162881572Y-73888756D01*
X162890752Y-73843425D01*
X162972798Y-73925615D01*
X163222658Y-74029366D01*
X163146986Y-74060633D01*
X163011110Y-74196272D01*
X162937484Y-74373584D01*
X162937316Y-74565574D01*
X163010633Y-74743014D01*
X163146272Y-74878890D01*
X163323584Y-74952516D01*
X163515574Y-74952684D01*
X163693014Y-74879367D01*
X163828890Y-74743728D01*
X163857189Y-74675574D01*
X165987316Y-74675574D01*
X166060633Y-74853014D01*
X166196272Y-74988890D01*
X166373584Y-75062516D01*
X166565574Y-75062684D01*
X166743014Y-74989367D01*
X166878890Y-74853728D01*
X166952516Y-74676416D01*
X166952684Y-74484426D01*
X166879367Y-74306986D01*
X166743728Y-74171110D01*
X166566416Y-74097484D01*
X166374426Y-74097316D01*
X166196986Y-74170633D01*
X166061110Y-74306272D01*
X165987484Y-74483584D01*
X165987316Y-74675574D01*
X163857189Y-74675574D01*
X163902516Y-74566416D01*
X163902684Y-74374426D01*
X163829367Y-74196986D01*
X163693728Y-74061110D01*
X163602078Y-74023054D01*
X163836074Y-73926368D01*
X164050615Y-73712202D01*
X164166867Y-73432236D01*
X164167132Y-73129094D01*
X164051368Y-72848926D01*
X163837202Y-72634385D01*
X163557236Y-72518133D01*
X163254094Y-72517868D01*
X162973926Y-72633632D01*
X162891435Y-72715979D01*
X162884265Y-72677873D01*
X162828636Y-72591424D01*
X162743756Y-72533428D01*
X162643000Y-72513024D01*
X161627000Y-72513024D01*
X161532873Y-72530735D01*
X161446424Y-72586364D01*
X161388428Y-72671244D01*
X161368024Y-72772000D01*
X152279000Y-72772000D01*
X152279000Y-72279000D01*
X168423800Y-72279000D01*
X168423800Y-75184000D01*
G36*
X161426272Y-75538890D02*
X161603584Y-75612516D01*
X161795574Y-75612684D01*
X161973014Y-75539367D01*
X161998226Y-75514200D01*
X162008776Y-75514200D01*
X162041861Y-75547343D01*
X162219173Y-75620969D01*
X162411163Y-75621137D01*
X162588603Y-75547820D01*
X162622282Y-75514200D01*
X169136045Y-75514200D01*
X172523730Y-78386292D01*
X172487484Y-78473584D01*
X172487316Y-78665574D01*
X172560633Y-78843014D01*
X172696272Y-78978890D01*
X172873584Y-79052516D01*
X173065574Y-79052684D01*
X173229741Y-78984851D01*
X176188533Y-81493326D01*
X176109530Y-81493257D01*
X175890065Y-81583938D01*
X175722008Y-81751702D01*
X175630944Y-81971008D01*
X175630737Y-82208470D01*
X175721418Y-82427935D01*
X175889182Y-82595992D01*
X176108488Y-82687056D01*
X176345950Y-82687263D01*
X176565415Y-82596582D01*
X176733472Y-82428818D01*
X176824536Y-82209512D01*
X176824690Y-82032662D01*
X180743727Y-85355236D01*
X180734414Y-89862812D01*
X180717484Y-89903584D01*
X180717316Y-90095574D01*
X180733850Y-90135589D01*
X180724376Y-94721000D01*
X157312764Y-94721000D01*
X156413200Y-93821436D01*
X156413200Y-91640268D01*
X156451925Y-91547007D01*
X156452093Y-91355017D01*
X156413200Y-91260889D01*
X156413200Y-91186800D01*
X157664024Y-91186800D01*
X157664024Y-92202800D01*
X157681735Y-92296927D01*
X157737364Y-92383376D01*
X157822244Y-92441372D01*
X157923000Y-92461776D01*
X158939000Y-92461776D01*
X159033127Y-92444065D01*
X159119576Y-92388436D01*
X159177572Y-92303556D01*
X159186752Y-92258225D01*
X159268798Y-92340415D01*
X159548764Y-92456667D01*
X159851906Y-92456932D01*
X160132074Y-92341168D01*
X160336168Y-92137430D01*
X160538798Y-92340415D01*
X160818764Y-92456667D01*
X161121906Y-92456932D01*
X161402074Y-92341168D01*
X161606168Y-92137430D01*
X161808798Y-92340415D01*
X162088764Y-92456667D01*
X162391906Y-92456932D01*
X162672074Y-92341168D01*
X162886615Y-92127002D01*
X163002867Y-91847036D01*
X163002868Y-91845706D01*
X164018868Y-91845706D01*
X164134632Y-92125874D01*
X164348798Y-92340415D01*
X164628764Y-92456667D01*
X164931906Y-92456932D01*
X165212074Y-92341168D01*
X165426615Y-92127002D01*
X165542867Y-91847036D01*
X165543132Y-91543894D01*
X165489388Y-91413824D01*
X167849066Y-91413824D01*
X167922383Y-91591264D01*
X168058022Y-91727140D01*
X168235334Y-91800766D01*
X168427324Y-91800934D01*
X168604764Y-91727617D01*
X168740640Y-91591978D01*
X168762656Y-91538957D01*
X169093933Y-91538957D01*
X169167250Y-91716397D01*
X169302889Y-91852273D01*
X169433655Y-91906572D01*
X169433561Y-92014293D01*
X169506878Y-92191733D01*
X169642517Y-92327609D01*
X169819829Y-92401235D01*
X170011819Y-92401403D01*
X170189259Y-92328086D01*
X170325135Y-92192447D01*
X170398761Y-92015135D01*
X170398929Y-91823145D01*
X170325612Y-91645705D01*
X170189973Y-91509829D01*
X170059207Y-91455530D01*
X170059301Y-91347809D01*
X169985984Y-91170369D01*
X169850345Y-91034493D01*
X169673033Y-90960867D01*
X169481043Y-90960699D01*
X169303603Y-91034016D01*
X169167727Y-91169655D01*
X169094101Y-91346967D01*
X169093933Y-91538957D01*
X168762656Y-91538957D01*
X168814266Y-91414666D01*
X168814434Y-91222676D01*
X168741117Y-91045236D01*
X168605478Y-90909360D01*
X168572278Y-90895574D01*
X170317318Y-90895574D01*
X170390635Y-91073014D01*
X170526274Y-91208890D01*
X170703586Y-91282516D01*
X170847354Y-91282642D01*
X170847316Y-91325574D01*
X170920633Y-91503014D01*
X171056272Y-91638890D01*
X171233584Y-91712516D01*
X171425574Y-91712684D01*
X171603014Y-91639367D01*
X171738890Y-91503728D01*
X171812516Y-91326416D01*
X171812684Y-91134426D01*
X171739367Y-90956986D01*
X171603728Y-90821110D01*
X171426416Y-90747484D01*
X171282648Y-90747358D01*
X171282686Y-90704426D01*
X171209369Y-90526986D01*
X171073730Y-90391110D01*
X170896418Y-90317484D01*
X170704428Y-90317316D01*
X170526988Y-90390633D01*
X170391112Y-90526272D01*
X170317486Y-90703584D01*
X170317318Y-90895574D01*
X168572278Y-90895574D01*
X168428166Y-90835734D01*
X168236176Y-90835566D01*
X168058736Y-90908883D01*
X167922860Y-91044522D01*
X167849234Y-91221834D01*
X167849066Y-91413824D01*
X165489388Y-91413824D01*
X165427368Y-91263726D01*
X165213202Y-91049185D01*
X164933236Y-90932933D01*
X164630094Y-90932668D01*
X164349926Y-91048432D01*
X164135385Y-91262598D01*
X164019133Y-91542564D01*
X164018868Y-91845706D01*
X163002868Y-91845706D01*
X163003132Y-91543894D01*
X162887368Y-91263726D01*
X162673202Y-91049185D01*
X162393236Y-90932933D01*
X162090094Y-90932668D01*
X161809926Y-91048432D01*
X161605832Y-91252170D01*
X161446613Y-91092672D01*
X161503014Y-91069367D01*
X161638890Y-90933728D01*
X161712516Y-90756416D01*
X161712684Y-90564426D01*
X161639367Y-90386986D01*
X161503728Y-90251110D01*
X161326416Y-90177484D01*
X161134426Y-90177316D01*
X160956986Y-90250633D01*
X160821110Y-90386272D01*
X160747484Y-90563584D01*
X160747316Y-90755574D01*
X160820490Y-90932668D01*
X160539926Y-91048432D01*
X160335832Y-91252170D01*
X160133202Y-91049185D01*
X159853236Y-90932933D01*
X159550094Y-90932668D01*
X159269926Y-91048432D01*
X159187435Y-91130779D01*
X159180265Y-91092673D01*
X159124636Y-91006224D01*
X159039756Y-90948228D01*
X158939000Y-90927824D01*
X157923000Y-90927824D01*
X157828873Y-90945535D01*
X157742424Y-91001164D01*
X157684428Y-91086044D01*
X157664024Y-91186800D01*
X156413200Y-91186800D01*
X156413200Y-89105574D01*
X162727316Y-89105574D01*
X162800633Y-89283014D01*
X162936272Y-89418890D01*
X163113584Y-89492516D01*
X163305574Y-89492684D01*
X163393075Y-89456529D01*
X164158930Y-89456529D01*
X164232247Y-89633969D01*
X164367886Y-89769845D01*
X164545198Y-89843471D01*
X164737188Y-89843639D01*
X164914628Y-89770322D01*
X165050504Y-89634683D01*
X165075048Y-89575574D01*
X172567316Y-89575574D01*
X172640633Y-89753014D01*
X172776272Y-89888890D01*
X172953584Y-89962516D01*
X173145574Y-89962684D01*
X173323014Y-89889367D01*
X173458890Y-89753728D01*
X173532516Y-89576416D01*
X173532684Y-89384426D01*
X173459367Y-89206986D01*
X173323728Y-89071110D01*
X173146416Y-88997484D01*
X172954426Y-88997316D01*
X172776986Y-89070633D01*
X172641110Y-89206272D01*
X172567484Y-89383584D01*
X172567316Y-89575574D01*
X165075048Y-89575574D01*
X165124130Y-89457371D01*
X165124298Y-89265381D01*
X165050981Y-89087941D01*
X164915342Y-88952065D01*
X164738030Y-88878439D01*
X164546040Y-88878271D01*
X164368600Y-88951588D01*
X164232724Y-89087227D01*
X164159098Y-89264539D01*
X164158930Y-89456529D01*
X163393075Y-89456529D01*
X163483014Y-89419367D01*
X163618890Y-89283728D01*
X163692516Y-89106416D01*
X163692684Y-88914426D01*
X163619367Y-88736986D01*
X163483728Y-88601110D01*
X163306416Y-88527484D01*
X163114426Y-88527316D01*
X162936986Y-88600633D01*
X162801110Y-88736272D01*
X162727484Y-88913584D01*
X162727316Y-89105574D01*
X156413200Y-89105574D01*
X156413200Y-88495574D01*
X177347316Y-88495574D01*
X177420633Y-88673014D01*
X177556272Y-88808890D01*
X177600334Y-88827186D01*
X177521110Y-88906272D01*
X177447484Y-89083584D01*
X177447316Y-89275574D01*
X177520633Y-89453014D01*
X177656272Y-89588890D01*
X177833584Y-89662516D01*
X178025574Y-89662684D01*
X178203014Y-89589367D01*
X178338890Y-89453728D01*
X178412516Y-89276416D01*
X178412684Y-89084426D01*
X178339367Y-88906986D01*
X178203728Y-88771110D01*
X178159666Y-88752814D01*
X178238890Y-88673728D01*
X178312516Y-88496416D01*
X178312684Y-88304426D01*
X178239367Y-88126986D01*
X178103728Y-87991110D01*
X177926416Y-87917484D01*
X177734426Y-87917316D01*
X177556986Y-87990633D01*
X177421110Y-88126272D01*
X177347484Y-88303584D01*
X177347316Y-88495574D01*
X156413200Y-88495574D01*
X156413200Y-88423564D01*
X156821190Y-88015574D01*
X168927316Y-88015574D01*
X169000633Y-88193014D01*
X169136272Y-88328890D01*
X169313584Y-88402516D01*
X169505574Y-88402684D01*
X169683014Y-88329367D01*
X169818890Y-88193728D01*
X169869495Y-88071857D01*
X169890633Y-88123014D01*
X170026272Y-88258890D01*
X170203584Y-88332516D01*
X170395574Y-88332684D01*
X170573014Y-88259367D01*
X170708890Y-88123728D01*
X170737189Y-88055574D01*
X176427316Y-88055574D01*
X176500633Y-88233014D01*
X176636272Y-88368890D01*
X176813584Y-88442516D01*
X177005574Y-88442684D01*
X177183014Y-88369367D01*
X177318890Y-88233728D01*
X177392516Y-88056416D01*
X177392684Y-87864426D01*
X177319367Y-87686986D01*
X177183728Y-87551110D01*
X177006416Y-87477484D01*
X176814426Y-87477316D01*
X176636986Y-87550633D01*
X176501110Y-87686272D01*
X176427484Y-87863584D01*
X176427316Y-88055574D01*
X170737189Y-88055574D01*
X170782516Y-87946416D01*
X170782684Y-87754426D01*
X170709367Y-87576986D01*
X170573728Y-87441110D01*
X170396416Y-87367484D01*
X170204426Y-87367316D01*
X170026986Y-87440633D01*
X169891110Y-87576272D01*
X169840505Y-87698143D01*
X169819367Y-87646986D01*
X169683728Y-87511110D01*
X169506416Y-87437484D01*
X169314426Y-87437316D01*
X169136986Y-87510633D01*
X169001110Y-87646272D01*
X168927484Y-87823584D01*
X168927316Y-88015574D01*
X156821190Y-88015574D01*
X157951190Y-86885574D01*
X161977316Y-86885574D01*
X162050633Y-87063014D01*
X162186272Y-87198890D01*
X162363584Y-87272516D01*
X162555574Y-87272684D01*
X162733014Y-87199367D01*
X162868890Y-87063728D01*
X162881677Y-87032934D01*
X162910633Y-87103014D01*
X163046272Y-87238890D01*
X163223584Y-87312516D01*
X163415574Y-87312684D01*
X163593014Y-87239367D01*
X163728890Y-87103728D01*
X163802516Y-86926416D01*
X163802525Y-86915572D01*
X165687316Y-86915572D01*
X165760633Y-87093012D01*
X165896272Y-87228888D01*
X166073584Y-87302514D01*
X166265574Y-87302682D01*
X166443014Y-87229365D01*
X166578890Y-87093726D01*
X166623798Y-86985574D01*
X167127316Y-86985574D01*
X167200633Y-87163014D01*
X167336272Y-87298890D01*
X167513584Y-87372516D01*
X167705574Y-87372684D01*
X167883014Y-87299367D01*
X168018890Y-87163728D01*
X168092516Y-86986416D01*
X168092586Y-86905574D01*
X173127316Y-86905574D01*
X173200633Y-87083014D01*
X173336272Y-87218890D01*
X173513584Y-87292516D01*
X173705574Y-87292684D01*
X173883014Y-87219367D01*
X174018890Y-87083728D01*
X174092516Y-86906416D01*
X174092684Y-86714426D01*
X174019367Y-86536986D01*
X173883728Y-86401110D01*
X173706416Y-86327484D01*
X173514426Y-86327316D01*
X173336986Y-86400633D01*
X173201110Y-86536272D01*
X173127484Y-86713584D01*
X173127316Y-86905574D01*
X168092586Y-86905574D01*
X168092684Y-86794426D01*
X168019367Y-86616986D01*
X167883728Y-86481110D01*
X167706416Y-86407484D01*
X167514426Y-86407316D01*
X167336986Y-86480633D01*
X167201110Y-86616272D01*
X167127484Y-86793584D01*
X167127316Y-86985574D01*
X166623798Y-86985574D01*
X166652516Y-86916414D01*
X166652684Y-86724424D01*
X166579367Y-86546984D01*
X166443728Y-86411108D01*
X166266416Y-86337482D01*
X166074426Y-86337314D01*
X165896986Y-86410631D01*
X165761110Y-86546270D01*
X165687484Y-86723582D01*
X165687316Y-86915572D01*
X163802525Y-86915572D01*
X163802684Y-86734426D01*
X163729367Y-86556986D01*
X163593728Y-86421110D01*
X163416416Y-86347484D01*
X163224426Y-86347316D01*
X163046986Y-86420633D01*
X162911110Y-86556272D01*
X162898323Y-86587066D01*
X162869367Y-86516986D01*
X162733728Y-86381110D01*
X162556416Y-86307484D01*
X162364426Y-86307316D01*
X162186986Y-86380633D01*
X162051110Y-86516272D01*
X161977484Y-86693584D01*
X161977316Y-86885574D01*
X157951190Y-86885574D01*
X158803882Y-86032882D01*
X158820599Y-86007673D01*
X158826200Y-85979000D01*
X158826200Y-84895574D01*
X160097316Y-84895574D01*
X160170633Y-85073014D01*
X160306272Y-85208890D01*
X160483584Y-85282516D01*
X160675574Y-85282684D01*
X160853014Y-85209367D01*
X160988890Y-85073728D01*
X161062516Y-84896416D01*
X161062684Y-84704426D01*
X160989367Y-84526986D01*
X160853728Y-84391110D01*
X160676416Y-84317484D01*
X160484426Y-84317316D01*
X160306986Y-84390633D01*
X160171110Y-84526272D01*
X160097484Y-84703584D01*
X160097316Y-84895574D01*
X158826200Y-84895574D01*
X158826200Y-84275574D01*
X167597316Y-84275574D01*
X167670633Y-84453014D01*
X167806272Y-84588890D01*
X167983584Y-84662516D01*
X168175574Y-84662684D01*
X168353014Y-84589367D01*
X168488890Y-84453728D01*
X168562516Y-84276416D01*
X168562684Y-84084426D01*
X168546631Y-84045574D01*
X173667316Y-84045574D01*
X173740633Y-84223014D01*
X173876272Y-84358890D01*
X174053584Y-84432516D01*
X174245574Y-84432684D01*
X174423014Y-84359367D01*
X174558890Y-84223728D01*
X174632516Y-84046416D01*
X174632684Y-83854426D01*
X174559367Y-83676986D01*
X174423728Y-83541110D01*
X174246416Y-83467484D01*
X174054426Y-83467316D01*
X173876986Y-83540633D01*
X173741110Y-83676272D01*
X173667484Y-83853584D01*
X173667316Y-84045574D01*
X168546631Y-84045574D01*
X168489367Y-83906986D01*
X168353728Y-83771110D01*
X168176416Y-83697484D01*
X167984426Y-83697316D01*
X167806986Y-83770633D01*
X167671110Y-83906272D01*
X167597484Y-84083584D01*
X167597316Y-84275574D01*
X158826200Y-84275574D01*
X158826200Y-83154442D01*
X158857806Y-83078326D01*
X158857974Y-82886336D01*
X158826200Y-82809437D01*
X158826200Y-80605574D01*
X169407316Y-80605574D01*
X169480633Y-80783014D01*
X169616272Y-80918890D01*
X169793584Y-80992516D01*
X169985574Y-80992684D01*
X170163014Y-80919367D01*
X170298890Y-80783728D01*
X170372516Y-80606416D01*
X170372684Y-80414426D01*
X170299367Y-80236986D01*
X170163728Y-80101110D01*
X169986416Y-80027484D01*
X169794426Y-80027316D01*
X169616986Y-80100633D01*
X169481110Y-80236272D01*
X169407484Y-80413584D01*
X169407316Y-80605574D01*
X158826200Y-80605574D01*
X158826200Y-79175574D01*
X171487316Y-79175574D01*
X171560633Y-79353014D01*
X171696272Y-79488890D01*
X171873584Y-79562516D01*
X172065574Y-79562684D01*
X172243014Y-79489367D01*
X172378890Y-79353728D01*
X172452516Y-79176416D01*
X172452684Y-78984426D01*
X172379367Y-78806986D01*
X172243728Y-78671110D01*
X172066416Y-78597484D01*
X171874426Y-78597316D01*
X171696986Y-78670633D01*
X171561110Y-78806272D01*
X171487484Y-78983584D01*
X171487316Y-79175574D01*
X158826200Y-79175574D01*
X158826200Y-77365574D01*
X167707316Y-77365574D01*
X167780633Y-77543014D01*
X167916272Y-77678890D01*
X168093584Y-77752516D01*
X168285574Y-77752684D01*
X168463014Y-77679367D01*
X168598890Y-77543728D01*
X168672516Y-77366416D01*
X168672684Y-77174426D01*
X168599367Y-76996986D01*
X168463728Y-76861110D01*
X168286416Y-76787484D01*
X168094426Y-76787316D01*
X167916986Y-76860633D01*
X167781110Y-76996272D01*
X167707484Y-77173584D01*
X167707316Y-77365574D01*
X158826200Y-77365574D01*
X158826200Y-76612564D01*
X159924564Y-75514200D01*
X161401625Y-75514200D01*
X161426272Y-75538890D01*
X161426272Y-75538890D01*
G37*
X161426272Y-75538890D02*
X161603584Y-75612516D01*
X161795574Y-75612684D01*
X161973014Y-75539367D01*
X161998226Y-75514200D01*
X162008776Y-75514200D01*
X162041861Y-75547343D01*
X162219173Y-75620969D01*
X162411163Y-75621137D01*
X162588603Y-75547820D01*
X162622282Y-75514200D01*
X169136045Y-75514200D01*
X172523730Y-78386292D01*
X172487484Y-78473584D01*
X172487316Y-78665574D01*
X172560633Y-78843014D01*
X172696272Y-78978890D01*
X172873584Y-79052516D01*
X173065574Y-79052684D01*
X173229741Y-78984851D01*
X176188533Y-81493326D01*
X176109530Y-81493257D01*
X175890065Y-81583938D01*
X175722008Y-81751702D01*
X175630944Y-81971008D01*
X175630737Y-82208470D01*
X175721418Y-82427935D01*
X175889182Y-82595992D01*
X176108488Y-82687056D01*
X176345950Y-82687263D01*
X176565415Y-82596582D01*
X176733472Y-82428818D01*
X176824536Y-82209512D01*
X176824690Y-82032662D01*
X180743727Y-85355236D01*
X180734414Y-89862812D01*
X180717484Y-89903584D01*
X180717316Y-90095574D01*
X180733850Y-90135589D01*
X180724376Y-94721000D01*
X157312764Y-94721000D01*
X156413200Y-93821436D01*
X156413200Y-91640268D01*
X156451925Y-91547007D01*
X156452093Y-91355017D01*
X156413200Y-91260889D01*
X156413200Y-91186800D01*
X157664024Y-91186800D01*
X157664024Y-92202800D01*
X157681735Y-92296927D01*
X157737364Y-92383376D01*
X157822244Y-92441372D01*
X157923000Y-92461776D01*
X158939000Y-92461776D01*
X159033127Y-92444065D01*
X159119576Y-92388436D01*
X159177572Y-92303556D01*
X159186752Y-92258225D01*
X159268798Y-92340415D01*
X159548764Y-92456667D01*
X159851906Y-92456932D01*
X160132074Y-92341168D01*
X160336168Y-92137430D01*
X160538798Y-92340415D01*
X160818764Y-92456667D01*
X161121906Y-92456932D01*
X161402074Y-92341168D01*
X161606168Y-92137430D01*
X161808798Y-92340415D01*
X162088764Y-92456667D01*
X162391906Y-92456932D01*
X162672074Y-92341168D01*
X162886615Y-92127002D01*
X163002867Y-91847036D01*
X163002868Y-91845706D01*
X164018868Y-91845706D01*
X164134632Y-92125874D01*
X164348798Y-92340415D01*
X164628764Y-92456667D01*
X164931906Y-92456932D01*
X165212074Y-92341168D01*
X165426615Y-92127002D01*
X165542867Y-91847036D01*
X165543132Y-91543894D01*
X165489388Y-91413824D01*
X167849066Y-91413824D01*
X167922383Y-91591264D01*
X168058022Y-91727140D01*
X168235334Y-91800766D01*
X168427324Y-91800934D01*
X168604764Y-91727617D01*
X168740640Y-91591978D01*
X168762656Y-91538957D01*
X169093933Y-91538957D01*
X169167250Y-91716397D01*
X169302889Y-91852273D01*
X169433655Y-91906572D01*
X169433561Y-92014293D01*
X169506878Y-92191733D01*
X169642517Y-92327609D01*
X169819829Y-92401235D01*
X170011819Y-92401403D01*
X170189259Y-92328086D01*
X170325135Y-92192447D01*
X170398761Y-92015135D01*
X170398929Y-91823145D01*
X170325612Y-91645705D01*
X170189973Y-91509829D01*
X170059207Y-91455530D01*
X170059301Y-91347809D01*
X169985984Y-91170369D01*
X169850345Y-91034493D01*
X169673033Y-90960867D01*
X169481043Y-90960699D01*
X169303603Y-91034016D01*
X169167727Y-91169655D01*
X169094101Y-91346967D01*
X169093933Y-91538957D01*
X168762656Y-91538957D01*
X168814266Y-91414666D01*
X168814434Y-91222676D01*
X168741117Y-91045236D01*
X168605478Y-90909360D01*
X168572278Y-90895574D01*
X170317318Y-90895574D01*
X170390635Y-91073014D01*
X170526274Y-91208890D01*
X170703586Y-91282516D01*
X170847354Y-91282642D01*
X170847316Y-91325574D01*
X170920633Y-91503014D01*
X171056272Y-91638890D01*
X171233584Y-91712516D01*
X171425574Y-91712684D01*
X171603014Y-91639367D01*
X171738890Y-91503728D01*
X171812516Y-91326416D01*
X171812684Y-91134426D01*
X171739367Y-90956986D01*
X171603728Y-90821110D01*
X171426416Y-90747484D01*
X171282648Y-90747358D01*
X171282686Y-90704426D01*
X171209369Y-90526986D01*
X171073730Y-90391110D01*
X170896418Y-90317484D01*
X170704428Y-90317316D01*
X170526988Y-90390633D01*
X170391112Y-90526272D01*
X170317486Y-90703584D01*
X170317318Y-90895574D01*
X168572278Y-90895574D01*
X168428166Y-90835734D01*
X168236176Y-90835566D01*
X168058736Y-90908883D01*
X167922860Y-91044522D01*
X167849234Y-91221834D01*
X167849066Y-91413824D01*
X165489388Y-91413824D01*
X165427368Y-91263726D01*
X165213202Y-91049185D01*
X164933236Y-90932933D01*
X164630094Y-90932668D01*
X164349926Y-91048432D01*
X164135385Y-91262598D01*
X164019133Y-91542564D01*
X164018868Y-91845706D01*
X163002868Y-91845706D01*
X163003132Y-91543894D01*
X162887368Y-91263726D01*
X162673202Y-91049185D01*
X162393236Y-90932933D01*
X162090094Y-90932668D01*
X161809926Y-91048432D01*
X161605832Y-91252170D01*
X161446613Y-91092672D01*
X161503014Y-91069367D01*
X161638890Y-90933728D01*
X161712516Y-90756416D01*
X161712684Y-90564426D01*
X161639367Y-90386986D01*
X161503728Y-90251110D01*
X161326416Y-90177484D01*
X161134426Y-90177316D01*
X160956986Y-90250633D01*
X160821110Y-90386272D01*
X160747484Y-90563584D01*
X160747316Y-90755574D01*
X160820490Y-90932668D01*
X160539926Y-91048432D01*
X160335832Y-91252170D01*
X160133202Y-91049185D01*
X159853236Y-90932933D01*
X159550094Y-90932668D01*
X159269926Y-91048432D01*
X159187435Y-91130779D01*
X159180265Y-91092673D01*
X159124636Y-91006224D01*
X159039756Y-90948228D01*
X158939000Y-90927824D01*
X157923000Y-90927824D01*
X157828873Y-90945535D01*
X157742424Y-91001164D01*
X157684428Y-91086044D01*
X157664024Y-91186800D01*
X156413200Y-91186800D01*
X156413200Y-89105574D01*
X162727316Y-89105574D01*
X162800633Y-89283014D01*
X162936272Y-89418890D01*
X163113584Y-89492516D01*
X163305574Y-89492684D01*
X163393075Y-89456529D01*
X164158930Y-89456529D01*
X164232247Y-89633969D01*
X164367886Y-89769845D01*
X164545198Y-89843471D01*
X164737188Y-89843639D01*
X164914628Y-89770322D01*
X165050504Y-89634683D01*
X165075048Y-89575574D01*
X172567316Y-89575574D01*
X172640633Y-89753014D01*
X172776272Y-89888890D01*
X172953584Y-89962516D01*
X173145574Y-89962684D01*
X173323014Y-89889367D01*
X173458890Y-89753728D01*
X173532516Y-89576416D01*
X173532684Y-89384426D01*
X173459367Y-89206986D01*
X173323728Y-89071110D01*
X173146416Y-88997484D01*
X172954426Y-88997316D01*
X172776986Y-89070633D01*
X172641110Y-89206272D01*
X172567484Y-89383584D01*
X172567316Y-89575574D01*
X165075048Y-89575574D01*
X165124130Y-89457371D01*
X165124298Y-89265381D01*
X165050981Y-89087941D01*
X164915342Y-88952065D01*
X164738030Y-88878439D01*
X164546040Y-88878271D01*
X164368600Y-88951588D01*
X164232724Y-89087227D01*
X164159098Y-89264539D01*
X164158930Y-89456529D01*
X163393075Y-89456529D01*
X163483014Y-89419367D01*
X163618890Y-89283728D01*
X163692516Y-89106416D01*
X163692684Y-88914426D01*
X163619367Y-88736986D01*
X163483728Y-88601110D01*
X163306416Y-88527484D01*
X163114426Y-88527316D01*
X162936986Y-88600633D01*
X162801110Y-88736272D01*
X162727484Y-88913584D01*
X162727316Y-89105574D01*
X156413200Y-89105574D01*
X156413200Y-88495574D01*
X177347316Y-88495574D01*
X177420633Y-88673014D01*
X177556272Y-88808890D01*
X177600334Y-88827186D01*
X177521110Y-88906272D01*
X177447484Y-89083584D01*
X177447316Y-89275574D01*
X177520633Y-89453014D01*
X177656272Y-89588890D01*
X177833584Y-89662516D01*
X178025574Y-89662684D01*
X178203014Y-89589367D01*
X178338890Y-89453728D01*
X178412516Y-89276416D01*
X178412684Y-89084426D01*
X178339367Y-88906986D01*
X178203728Y-88771110D01*
X178159666Y-88752814D01*
X178238890Y-88673728D01*
X178312516Y-88496416D01*
X178312684Y-88304426D01*
X178239367Y-88126986D01*
X178103728Y-87991110D01*
X177926416Y-87917484D01*
X177734426Y-87917316D01*
X177556986Y-87990633D01*
X177421110Y-88126272D01*
X177347484Y-88303584D01*
X177347316Y-88495574D01*
X156413200Y-88495574D01*
X156413200Y-88423564D01*
X156821190Y-88015574D01*
X168927316Y-88015574D01*
X169000633Y-88193014D01*
X169136272Y-88328890D01*
X169313584Y-88402516D01*
X169505574Y-88402684D01*
X169683014Y-88329367D01*
X169818890Y-88193728D01*
X169869495Y-88071857D01*
X169890633Y-88123014D01*
X170026272Y-88258890D01*
X170203584Y-88332516D01*
X170395574Y-88332684D01*
X170573014Y-88259367D01*
X170708890Y-88123728D01*
X170737189Y-88055574D01*
X176427316Y-88055574D01*
X176500633Y-88233014D01*
X176636272Y-88368890D01*
X176813584Y-88442516D01*
X177005574Y-88442684D01*
X177183014Y-88369367D01*
X177318890Y-88233728D01*
X177392516Y-88056416D01*
X177392684Y-87864426D01*
X177319367Y-87686986D01*
X177183728Y-87551110D01*
X177006416Y-87477484D01*
X176814426Y-87477316D01*
X176636986Y-87550633D01*
X176501110Y-87686272D01*
X176427484Y-87863584D01*
X176427316Y-88055574D01*
X170737189Y-88055574D01*
X170782516Y-87946416D01*
X170782684Y-87754426D01*
X170709367Y-87576986D01*
X170573728Y-87441110D01*
X170396416Y-87367484D01*
X170204426Y-87367316D01*
X170026986Y-87440633D01*
X169891110Y-87576272D01*
X169840505Y-87698143D01*
X169819367Y-87646986D01*
X169683728Y-87511110D01*
X169506416Y-87437484D01*
X169314426Y-87437316D01*
X169136986Y-87510633D01*
X169001110Y-87646272D01*
X168927484Y-87823584D01*
X168927316Y-88015574D01*
X156821190Y-88015574D01*
X157951190Y-86885574D01*
X161977316Y-86885574D01*
X162050633Y-87063014D01*
X162186272Y-87198890D01*
X162363584Y-87272516D01*
X162555574Y-87272684D01*
X162733014Y-87199367D01*
X162868890Y-87063728D01*
X162881677Y-87032934D01*
X162910633Y-87103014D01*
X163046272Y-87238890D01*
X163223584Y-87312516D01*
X163415574Y-87312684D01*
X163593014Y-87239367D01*
X163728890Y-87103728D01*
X163802516Y-86926416D01*
X163802525Y-86915572D01*
X165687316Y-86915572D01*
X165760633Y-87093012D01*
X165896272Y-87228888D01*
X166073584Y-87302514D01*
X166265574Y-87302682D01*
X166443014Y-87229365D01*
X166578890Y-87093726D01*
X166623798Y-86985574D01*
X167127316Y-86985574D01*
X167200633Y-87163014D01*
X167336272Y-87298890D01*
X167513584Y-87372516D01*
X167705574Y-87372684D01*
X167883014Y-87299367D01*
X168018890Y-87163728D01*
X168092516Y-86986416D01*
X168092586Y-86905574D01*
X173127316Y-86905574D01*
X173200633Y-87083014D01*
X173336272Y-87218890D01*
X173513584Y-87292516D01*
X173705574Y-87292684D01*
X173883014Y-87219367D01*
X174018890Y-87083728D01*
X174092516Y-86906416D01*
X174092684Y-86714426D01*
X174019367Y-86536986D01*
X173883728Y-86401110D01*
X173706416Y-86327484D01*
X173514426Y-86327316D01*
X173336986Y-86400633D01*
X173201110Y-86536272D01*
X173127484Y-86713584D01*
X173127316Y-86905574D01*
X168092586Y-86905574D01*
X168092684Y-86794426D01*
X168019367Y-86616986D01*
X167883728Y-86481110D01*
X167706416Y-86407484D01*
X167514426Y-86407316D01*
X167336986Y-86480633D01*
X167201110Y-86616272D01*
X167127484Y-86793584D01*
X167127316Y-86985574D01*
X166623798Y-86985574D01*
X166652516Y-86916414D01*
X166652684Y-86724424D01*
X166579367Y-86546984D01*
X166443728Y-86411108D01*
X166266416Y-86337482D01*
X166074426Y-86337314D01*
X165896986Y-86410631D01*
X165761110Y-86546270D01*
X165687484Y-86723582D01*
X165687316Y-86915572D01*
X163802525Y-86915572D01*
X163802684Y-86734426D01*
X163729367Y-86556986D01*
X163593728Y-86421110D01*
X163416416Y-86347484D01*
X163224426Y-86347316D01*
X163046986Y-86420633D01*
X162911110Y-86556272D01*
X162898323Y-86587066D01*
X162869367Y-86516986D01*
X162733728Y-86381110D01*
X162556416Y-86307484D01*
X162364426Y-86307316D01*
X162186986Y-86380633D01*
X162051110Y-86516272D01*
X161977484Y-86693584D01*
X161977316Y-86885574D01*
X157951190Y-86885574D01*
X158803882Y-86032882D01*
X158820599Y-86007673D01*
X158826200Y-85979000D01*
X158826200Y-84895574D01*
X160097316Y-84895574D01*
X160170633Y-85073014D01*
X160306272Y-85208890D01*
X160483584Y-85282516D01*
X160675574Y-85282684D01*
X160853014Y-85209367D01*
X160988890Y-85073728D01*
X161062516Y-84896416D01*
X161062684Y-84704426D01*
X160989367Y-84526986D01*
X160853728Y-84391110D01*
X160676416Y-84317484D01*
X160484426Y-84317316D01*
X160306986Y-84390633D01*
X160171110Y-84526272D01*
X160097484Y-84703584D01*
X160097316Y-84895574D01*
X158826200Y-84895574D01*
X158826200Y-84275574D01*
X167597316Y-84275574D01*
X167670633Y-84453014D01*
X167806272Y-84588890D01*
X167983584Y-84662516D01*
X168175574Y-84662684D01*
X168353014Y-84589367D01*
X168488890Y-84453728D01*
X168562516Y-84276416D01*
X168562684Y-84084426D01*
X168546631Y-84045574D01*
X173667316Y-84045574D01*
X173740633Y-84223014D01*
X173876272Y-84358890D01*
X174053584Y-84432516D01*
X174245574Y-84432684D01*
X174423014Y-84359367D01*
X174558890Y-84223728D01*
X174632516Y-84046416D01*
X174632684Y-83854426D01*
X174559367Y-83676986D01*
X174423728Y-83541110D01*
X174246416Y-83467484D01*
X174054426Y-83467316D01*
X173876986Y-83540633D01*
X173741110Y-83676272D01*
X173667484Y-83853584D01*
X173667316Y-84045574D01*
X168546631Y-84045574D01*
X168489367Y-83906986D01*
X168353728Y-83771110D01*
X168176416Y-83697484D01*
X167984426Y-83697316D01*
X167806986Y-83770633D01*
X167671110Y-83906272D01*
X167597484Y-84083584D01*
X167597316Y-84275574D01*
X158826200Y-84275574D01*
X158826200Y-83154442D01*
X158857806Y-83078326D01*
X158857974Y-82886336D01*
X158826200Y-82809437D01*
X158826200Y-80605574D01*
X169407316Y-80605574D01*
X169480633Y-80783014D01*
X169616272Y-80918890D01*
X169793584Y-80992516D01*
X169985574Y-80992684D01*
X170163014Y-80919367D01*
X170298890Y-80783728D01*
X170372516Y-80606416D01*
X170372684Y-80414426D01*
X170299367Y-80236986D01*
X170163728Y-80101110D01*
X169986416Y-80027484D01*
X169794426Y-80027316D01*
X169616986Y-80100633D01*
X169481110Y-80236272D01*
X169407484Y-80413584D01*
X169407316Y-80605574D01*
X158826200Y-80605574D01*
X158826200Y-79175574D01*
X171487316Y-79175574D01*
X171560633Y-79353014D01*
X171696272Y-79488890D01*
X171873584Y-79562516D01*
X172065574Y-79562684D01*
X172243014Y-79489367D01*
X172378890Y-79353728D01*
X172452516Y-79176416D01*
X172452684Y-78984426D01*
X172379367Y-78806986D01*
X172243728Y-78671110D01*
X172066416Y-78597484D01*
X171874426Y-78597316D01*
X171696986Y-78670633D01*
X171561110Y-78806272D01*
X171487484Y-78983584D01*
X171487316Y-79175574D01*
X158826200Y-79175574D01*
X158826200Y-77365574D01*
X167707316Y-77365574D01*
X167780633Y-77543014D01*
X167916272Y-77678890D01*
X168093584Y-77752516D01*
X168285574Y-77752684D01*
X168463014Y-77679367D01*
X168598890Y-77543728D01*
X168672516Y-77366416D01*
X168672684Y-77174426D01*
X168599367Y-76996986D01*
X168463728Y-76861110D01*
X168286416Y-76787484D01*
X168094426Y-76787316D01*
X167916986Y-76860633D01*
X167781110Y-76996272D01*
X167707484Y-77173584D01*
X167707316Y-77365574D01*
X158826200Y-77365574D01*
X158826200Y-76612564D01*
X159924564Y-75514200D01*
X161401625Y-75514200D01*
X161426272Y-75538890D01*
G36*
X214954268Y-72441442D02*
X214863204Y-72660748D01*
X214862997Y-72898210D01*
X214953678Y-73117675D01*
X215121442Y-73285732D01*
X215340748Y-73376796D01*
X215578210Y-73377003D01*
X215797675Y-73286322D01*
X215965732Y-73118558D01*
X216056796Y-72899252D01*
X216057003Y-72661790D01*
X215966322Y-72442325D01*
X215803282Y-72279000D01*
X217681000Y-72279000D01*
X217681000Y-80043796D01*
X217611610Y-80090161D01*
X217442494Y-80123800D01*
X213250000Y-80123800D01*
X213235134Y-80125264D01*
X213043792Y-80163324D01*
X213016323Y-80174702D01*
X212854112Y-80283089D01*
X212833089Y-80304112D01*
X212724702Y-80466323D01*
X212713324Y-80493792D01*
X212675264Y-80685134D01*
X212673800Y-80700000D01*
X212673800Y-83492494D01*
X212640161Y-83661610D01*
X212548616Y-83798616D01*
X212411610Y-83890161D01*
X212242494Y-83923800D01*
X195150000Y-83923800D01*
X195135134Y-83925264D01*
X195004000Y-83951348D01*
X195004000Y-83118210D01*
X195952997Y-83118210D01*
X196043678Y-83337675D01*
X196211442Y-83505732D01*
X196430748Y-83596796D01*
X196668210Y-83597003D01*
X196887675Y-83506322D01*
X197055732Y-83338558D01*
X197146796Y-83119252D01*
X197147003Y-82881790D01*
X197070061Y-82695574D01*
X201817316Y-82695574D01*
X201890633Y-82873014D01*
X202026272Y-83008890D01*
X202203584Y-83082516D01*
X202395574Y-83082684D01*
X202573014Y-83009367D01*
X202708890Y-82873728D01*
X202782516Y-82696416D01*
X202782604Y-82595574D01*
X205917316Y-82595574D01*
X205990633Y-82773014D01*
X206126272Y-82908890D01*
X206303584Y-82982516D01*
X206495574Y-82982684D01*
X206673014Y-82909367D01*
X206808890Y-82773728D01*
X206882516Y-82596416D01*
X206882684Y-82404426D01*
X206809367Y-82226986D01*
X206673728Y-82091110D01*
X206496416Y-82017484D01*
X206304426Y-82017316D01*
X206126986Y-82090633D01*
X205991110Y-82226272D01*
X205917484Y-82403584D01*
X205917316Y-82595574D01*
X202782604Y-82595574D01*
X202782684Y-82504426D01*
X202709367Y-82326986D01*
X202573728Y-82191110D01*
X202396416Y-82117484D01*
X202204426Y-82117316D01*
X202026986Y-82190633D01*
X201891110Y-82326272D01*
X201817484Y-82503584D01*
X201817316Y-82695574D01*
X197070061Y-82695574D01*
X197056322Y-82662325D01*
X196888558Y-82494268D01*
X196669252Y-82403204D01*
X196431790Y-82402997D01*
X196212325Y-82493678D01*
X196044268Y-82661442D01*
X195953204Y-82880748D01*
X195952997Y-83118210D01*
X195004000Y-83118210D01*
X195004000Y-82045574D01*
X198217316Y-82045574D01*
X198290633Y-82223014D01*
X198426272Y-82358890D01*
X198603584Y-82432516D01*
X198795574Y-82432684D01*
X198973014Y-82359367D01*
X199108890Y-82223728D01*
X199182516Y-82046416D01*
X199182684Y-81854426D01*
X199109367Y-81676986D01*
X198978185Y-81545574D01*
X211267316Y-81545574D01*
X211340633Y-81723014D01*
X211476272Y-81858890D01*
X211653584Y-81932516D01*
X211845574Y-81932684D01*
X212023014Y-81859367D01*
X212158890Y-81723728D01*
X212232516Y-81546416D01*
X212232684Y-81354426D01*
X212159367Y-81176986D01*
X212023728Y-81041110D01*
X211846416Y-80967484D01*
X211654426Y-80967316D01*
X211476986Y-81040633D01*
X211341110Y-81176272D01*
X211267484Y-81353584D01*
X211267316Y-81545574D01*
X198978185Y-81545574D01*
X198973728Y-81541110D01*
X198796416Y-81467484D01*
X198604426Y-81467316D01*
X198426986Y-81540633D01*
X198291110Y-81676272D01*
X198217484Y-81853584D01*
X198217316Y-82045574D01*
X195004000Y-82045574D01*
X195004000Y-82000000D01*
X194985331Y-81904422D01*
X194929605Y-81820395D01*
X194129605Y-81020395D01*
X194048820Y-80966012D01*
X193950000Y-80946000D01*
X192232560Y-80946000D01*
X192232684Y-80804426D01*
X192159367Y-80626986D01*
X192023728Y-80491110D01*
X191846416Y-80417484D01*
X191654426Y-80417316D01*
X191476986Y-80490633D01*
X191341110Y-80626272D01*
X191267484Y-80803584D01*
X191267359Y-80946000D01*
X190023081Y-80946000D01*
X189969567Y-80816486D01*
X189833928Y-80680610D01*
X189656616Y-80606984D01*
X189464626Y-80606816D01*
X189287186Y-80680133D01*
X189151310Y-80815772D01*
X189097235Y-80946000D01*
X188811558Y-80946000D01*
X189051474Y-80846868D01*
X189266015Y-80632702D01*
X189382267Y-80352736D01*
X189382532Y-80049594D01*
X189318892Y-79895574D01*
X190567316Y-79895574D01*
X190640633Y-80073014D01*
X190776272Y-80208890D01*
X190953584Y-80282516D01*
X191145574Y-80282684D01*
X191323014Y-80209367D01*
X191458890Y-80073728D01*
X191532516Y-79896416D01*
X191532684Y-79704426D01*
X191509298Y-79647826D01*
X192094988Y-79647826D01*
X192210752Y-79927994D01*
X192424918Y-80142535D01*
X192704884Y-80258787D01*
X193008026Y-80259052D01*
X193288194Y-80143288D01*
X193502735Y-79929122D01*
X193618987Y-79649156D01*
X193619252Y-79346014D01*
X193509918Y-79081406D01*
X193751068Y-79081406D01*
X193866832Y-79361574D01*
X194080998Y-79576115D01*
X194360964Y-79692367D01*
X194511998Y-79692499D01*
X194411733Y-79933964D01*
X194411468Y-80237106D01*
X194527232Y-80517274D01*
X194741398Y-80731815D01*
X195021364Y-80848067D01*
X195324506Y-80848332D01*
X195331156Y-80845584D01*
X206367316Y-80845584D01*
X206440633Y-81023024D01*
X206576272Y-81158900D01*
X206753584Y-81232526D01*
X206945574Y-81232694D01*
X207123014Y-81159377D01*
X207258890Y-81023738D01*
X207332516Y-80846426D01*
X207332684Y-80654436D01*
X207259367Y-80476996D01*
X207123728Y-80341120D01*
X206946416Y-80267494D01*
X206754426Y-80267326D01*
X206576986Y-80340643D01*
X206441110Y-80476282D01*
X206367484Y-80653594D01*
X206367316Y-80845584D01*
X195331156Y-80845584D01*
X195604674Y-80732568D01*
X195819215Y-80518402D01*
X195935467Y-80238436D01*
X195935732Y-79935294D01*
X195836681Y-79695574D01*
X204167316Y-79695574D01*
X204240633Y-79873014D01*
X204376272Y-80008890D01*
X204553584Y-80082516D01*
X204745574Y-80082684D01*
X204923014Y-80009367D01*
X205058890Y-79873728D01*
X205132516Y-79696416D01*
X205132684Y-79504426D01*
X205125951Y-79488130D01*
X210225537Y-79488130D01*
X210316218Y-79707595D01*
X210483982Y-79875652D01*
X210703288Y-79966716D01*
X210940750Y-79966923D01*
X211160215Y-79876242D01*
X211328272Y-79708478D01*
X211419336Y-79489172D01*
X211419543Y-79251710D01*
X211328862Y-79032245D01*
X211161098Y-78864188D01*
X210941792Y-78773124D01*
X210704330Y-78772917D01*
X210484865Y-78863598D01*
X210316808Y-79031362D01*
X210225744Y-79250668D01*
X210225537Y-79488130D01*
X205125951Y-79488130D01*
X205059367Y-79326986D01*
X204923728Y-79191110D01*
X204746416Y-79117484D01*
X204554426Y-79117316D01*
X204376986Y-79190633D01*
X204241110Y-79326272D01*
X204167484Y-79503584D01*
X204167316Y-79695574D01*
X195836681Y-79695574D01*
X195819968Y-79655126D01*
X195605802Y-79440585D01*
X195325836Y-79324333D01*
X195174802Y-79324201D01*
X195275067Y-79082736D01*
X195275230Y-78895574D01*
X206002614Y-78895574D01*
X206075931Y-79073014D01*
X206211570Y-79208890D01*
X206388882Y-79282516D01*
X206580872Y-79282684D01*
X206758312Y-79209367D01*
X206894188Y-79073728D01*
X206967814Y-78896416D01*
X206967982Y-78704426D01*
X206894665Y-78526986D01*
X206759026Y-78391110D01*
X206581714Y-78317484D01*
X206389724Y-78317316D01*
X206212284Y-78390633D01*
X206076408Y-78526272D01*
X206002782Y-78703584D01*
X206002614Y-78895574D01*
X195275230Y-78895574D01*
X195275332Y-78779594D01*
X195159568Y-78499426D01*
X195055898Y-78395574D01*
X197417316Y-78395574D01*
X197490633Y-78573014D01*
X197626272Y-78708890D01*
X197803584Y-78782516D01*
X197995574Y-78782684D01*
X198173014Y-78709367D01*
X198308890Y-78573728D01*
X198382516Y-78396416D01*
X198382684Y-78204426D01*
X198309367Y-78026986D01*
X198180816Y-77898210D01*
X214862997Y-77898210D01*
X214953678Y-78117675D01*
X215121442Y-78285732D01*
X215340748Y-78376796D01*
X215578210Y-78377003D01*
X215797675Y-78286322D01*
X215965732Y-78118558D01*
X216056796Y-77899252D01*
X216057003Y-77661790D01*
X215966322Y-77442325D01*
X215798558Y-77274268D01*
X215579252Y-77183204D01*
X215341790Y-77182997D01*
X215122325Y-77273678D01*
X214954268Y-77441442D01*
X214863204Y-77660748D01*
X214862997Y-77898210D01*
X198180816Y-77898210D01*
X198173728Y-77891110D01*
X197996416Y-77817484D01*
X197804426Y-77817316D01*
X197626986Y-77890633D01*
X197491110Y-78026272D01*
X197417484Y-78203584D01*
X197417316Y-78395574D01*
X195055898Y-78395574D01*
X194945402Y-78284885D01*
X194665436Y-78168633D01*
X194362294Y-78168368D01*
X194082126Y-78284132D01*
X193867585Y-78498298D01*
X193751333Y-78778264D01*
X193751068Y-79081406D01*
X193509918Y-79081406D01*
X193503488Y-79065846D01*
X193289322Y-78851305D01*
X193009356Y-78735053D01*
X192706214Y-78734788D01*
X192426046Y-78850552D01*
X192211505Y-79064718D01*
X192095253Y-79344684D01*
X192094988Y-79647826D01*
X191509298Y-79647826D01*
X191459367Y-79526986D01*
X191323728Y-79391110D01*
X191146416Y-79317484D01*
X190954426Y-79317316D01*
X190776986Y-79390633D01*
X190641110Y-79526272D01*
X190567484Y-79703584D01*
X190567316Y-79895574D01*
X189318892Y-79895574D01*
X189266768Y-79769426D01*
X189052602Y-79554885D01*
X188772636Y-79438633D01*
X188469494Y-79438368D01*
X188189326Y-79554132D01*
X187974785Y-79768298D01*
X187899016Y-79950770D01*
X187858802Y-79910485D01*
X187578836Y-79794233D01*
X187275694Y-79793968D01*
X186995526Y-79909732D01*
X186780985Y-80123898D01*
X186664733Y-80403864D01*
X186664468Y-80707006D01*
X186763219Y-80946000D01*
X185260826Y-80946000D01*
X185215468Y-80836226D01*
X185001302Y-80621685D01*
X184721336Y-80505433D01*
X184418194Y-80505168D01*
X184138026Y-80620932D01*
X184076200Y-80682650D01*
X184076200Y-78278766D01*
X190819908Y-78278766D01*
X190935672Y-78558934D01*
X191149838Y-78773475D01*
X191429804Y-78889727D01*
X191732946Y-78889992D01*
X192013114Y-78774228D01*
X192227655Y-78560062D01*
X192343907Y-78280096D01*
X192344172Y-77976954D01*
X192228408Y-77696786D01*
X192014242Y-77482245D01*
X191734276Y-77365993D01*
X191431134Y-77365728D01*
X191150966Y-77481492D01*
X190936425Y-77695658D01*
X190820173Y-77975624D01*
X190819908Y-78278766D01*
X184076200Y-78278766D01*
X184076200Y-75978074D01*
X184835716Y-75978074D01*
X184909033Y-76155514D01*
X185044672Y-76291390D01*
X185221984Y-76365016D01*
X185413974Y-76365184D01*
X185417793Y-76363606D01*
X196024368Y-76363606D01*
X196140132Y-76643774D01*
X196354298Y-76858315D01*
X196634264Y-76974567D01*
X196937406Y-76974832D01*
X197217574Y-76859068D01*
X197303071Y-76773720D01*
X197367733Y-76930214D01*
X197503372Y-77066090D01*
X197680684Y-77139716D01*
X197872674Y-77139884D01*
X198050114Y-77066567D01*
X198185990Y-76930928D01*
X198259616Y-76753616D01*
X198259666Y-76695574D01*
X206367316Y-76695574D01*
X206440633Y-76873014D01*
X206576272Y-77008890D01*
X206753584Y-77082516D01*
X206945574Y-77082684D01*
X207123014Y-77009367D01*
X207258890Y-76873728D01*
X207332516Y-76696416D01*
X207332684Y-76504426D01*
X207259367Y-76326986D01*
X207123728Y-76191110D01*
X206946416Y-76117484D01*
X206754426Y-76117316D01*
X206576986Y-76190633D01*
X206441110Y-76326272D01*
X206367484Y-76503584D01*
X206367316Y-76695574D01*
X198259666Y-76695574D01*
X198259784Y-76561626D01*
X198186467Y-76384186D01*
X198050828Y-76248310D01*
X197873516Y-76174684D01*
X197681526Y-76174516D01*
X197548485Y-76229487D01*
X197548632Y-76061794D01*
X197503545Y-75952674D01*
X204038116Y-75952674D01*
X204111433Y-76130114D01*
X204247072Y-76265990D01*
X204424384Y-76339616D01*
X204616374Y-76339784D01*
X204793814Y-76266467D01*
X204929690Y-76130828D01*
X205003316Y-75953516D01*
X205003454Y-75795574D01*
X205467316Y-75795574D01*
X205540633Y-75973014D01*
X205676272Y-76108890D01*
X205853584Y-76182516D01*
X206045574Y-76182684D01*
X206223014Y-76109367D01*
X206358890Y-75973728D01*
X206432516Y-75796416D01*
X206432684Y-75604426D01*
X206369251Y-75450906D01*
X209637868Y-75450906D01*
X209753632Y-75731074D01*
X209967798Y-75945615D01*
X210247764Y-76061867D01*
X210550906Y-76062132D01*
X210831074Y-75946368D01*
X211045615Y-75732202D01*
X211161867Y-75452236D01*
X211162132Y-75149094D01*
X211046368Y-74868926D01*
X210832202Y-74654385D01*
X210552236Y-74538133D01*
X210249094Y-74537868D01*
X209968926Y-74653632D01*
X209754385Y-74867798D01*
X209638133Y-75147764D01*
X209637868Y-75450906D01*
X206369251Y-75450906D01*
X206359367Y-75426986D01*
X206223728Y-75291110D01*
X206046416Y-75217484D01*
X205854426Y-75217316D01*
X205676986Y-75290633D01*
X205541110Y-75426272D01*
X205467484Y-75603584D01*
X205467316Y-75795574D01*
X205003454Y-75795574D01*
X205003484Y-75761526D01*
X204930167Y-75584086D01*
X204794528Y-75448210D01*
X204617216Y-75374584D01*
X204425226Y-75374416D01*
X204247786Y-75447733D01*
X204111910Y-75583372D01*
X204038284Y-75760684D01*
X204038116Y-75952674D01*
X197503545Y-75952674D01*
X197432868Y-75781626D01*
X197218702Y-75567085D01*
X196938736Y-75450833D01*
X196635594Y-75450568D01*
X196355426Y-75566332D01*
X196140885Y-75780498D01*
X196024633Y-76060464D01*
X196024368Y-76363606D01*
X185417793Y-76363606D01*
X185591414Y-76291867D01*
X185727290Y-76156228D01*
X185800916Y-75978916D01*
X185801084Y-75786926D01*
X185727767Y-75609486D01*
X185592128Y-75473610D01*
X185414816Y-75399984D01*
X185222826Y-75399816D01*
X185045386Y-75473133D01*
X184909510Y-75608772D01*
X184835884Y-75786084D01*
X184835716Y-75978074D01*
X184076200Y-75978074D01*
X184076200Y-74395574D01*
X199017316Y-74395574D01*
X199090633Y-74573014D01*
X199226272Y-74708890D01*
X199403584Y-74782516D01*
X199595574Y-74782684D01*
X199773014Y-74709367D01*
X199908890Y-74573728D01*
X199941342Y-74495574D01*
X211767316Y-74495574D01*
X211840633Y-74673014D01*
X211976272Y-74808890D01*
X212153584Y-74882516D01*
X212345574Y-74882684D01*
X212523014Y-74809367D01*
X212658890Y-74673728D01*
X212732516Y-74496416D01*
X212732684Y-74304426D01*
X212659367Y-74126986D01*
X212523728Y-73991110D01*
X212346416Y-73917484D01*
X212154426Y-73917316D01*
X211976986Y-73990633D01*
X211841110Y-74126272D01*
X211767484Y-74303584D01*
X211767316Y-74495574D01*
X199941342Y-74495574D01*
X199982516Y-74396416D01*
X199982684Y-74204426D01*
X199909367Y-74026986D01*
X199773728Y-73891110D01*
X199596416Y-73817484D01*
X199404426Y-73817316D01*
X199226986Y-73890633D01*
X199091110Y-74026272D01*
X199017484Y-74203584D01*
X199017316Y-74395574D01*
X184076200Y-74395574D01*
X184076200Y-73044374D01*
X184607116Y-73044374D01*
X184680433Y-73221814D01*
X184816072Y-73357690D01*
X184993384Y-73431316D01*
X185185374Y-73431484D01*
X185362814Y-73358167D01*
X185443615Y-73277506D01*
X193230368Y-73277506D01*
X193346132Y-73557674D01*
X193560298Y-73772215D01*
X193840264Y-73888467D01*
X194143406Y-73888732D01*
X194423574Y-73772968D01*
X194638115Y-73558802D01*
X194754367Y-73278836D01*
X194754527Y-73095574D01*
X197017316Y-73095574D01*
X197090633Y-73273014D01*
X197226272Y-73408890D01*
X197403584Y-73482516D01*
X197595574Y-73482684D01*
X197773014Y-73409367D01*
X197786831Y-73395574D01*
X202017316Y-73395574D01*
X202090633Y-73573014D01*
X202226272Y-73708890D01*
X202403584Y-73782516D01*
X202595574Y-73782684D01*
X202773014Y-73709367D01*
X202786831Y-73695574D01*
X209417316Y-73695574D01*
X209490633Y-73873014D01*
X209626272Y-74008890D01*
X209803584Y-74082516D01*
X209995574Y-74082684D01*
X210173014Y-74009367D01*
X210308890Y-73873728D01*
X210382516Y-73696416D01*
X210382684Y-73504426D01*
X210309367Y-73326986D01*
X210173728Y-73191110D01*
X209996416Y-73117484D01*
X209804426Y-73117316D01*
X209626986Y-73190633D01*
X209491110Y-73326272D01*
X209417484Y-73503584D01*
X209417316Y-73695574D01*
X202786831Y-73695574D01*
X202908890Y-73573728D01*
X202982516Y-73396416D01*
X202982684Y-73204426D01*
X202909367Y-73026986D01*
X202773728Y-72891110D01*
X202596416Y-72817484D01*
X202404426Y-72817316D01*
X202226986Y-72890633D01*
X202091110Y-73026272D01*
X202017484Y-73203584D01*
X202017316Y-73395574D01*
X197786831Y-73395574D01*
X197908890Y-73273728D01*
X197982516Y-73096416D01*
X197982684Y-72904426D01*
X197909367Y-72726986D01*
X197773728Y-72591110D01*
X197596416Y-72517484D01*
X197404426Y-72517316D01*
X197226986Y-72590633D01*
X197091110Y-72726272D01*
X197017484Y-72903584D01*
X197017316Y-73095574D01*
X194754527Y-73095574D01*
X194754632Y-72975694D01*
X194638868Y-72695526D01*
X194424702Y-72480985D01*
X194144736Y-72364733D01*
X193841594Y-72364468D01*
X193561426Y-72480232D01*
X193346885Y-72694398D01*
X193230633Y-72974364D01*
X193230368Y-73277506D01*
X185443615Y-73277506D01*
X185498690Y-73222528D01*
X185572316Y-73045216D01*
X185572484Y-72853226D01*
X185499167Y-72675786D01*
X185363528Y-72539910D01*
X185186216Y-72466284D01*
X184994226Y-72466116D01*
X184816786Y-72539433D01*
X184680910Y-72675072D01*
X184607284Y-72852384D01*
X184607116Y-73044374D01*
X184076200Y-73044374D01*
X184076200Y-72507506D01*
X184109839Y-72338390D01*
X184149522Y-72279000D01*
X215116994Y-72279000D01*
X214954268Y-72441442D01*
X214954268Y-72441442D01*
G37*
X214954268Y-72441442D02*
X214863204Y-72660748D01*
X214862997Y-72898210D01*
X214953678Y-73117675D01*
X215121442Y-73285732D01*
X215340748Y-73376796D01*
X215578210Y-73377003D01*
X215797675Y-73286322D01*
X215965732Y-73118558D01*
X216056796Y-72899252D01*
X216057003Y-72661790D01*
X215966322Y-72442325D01*
X215803282Y-72279000D01*
X217681000Y-72279000D01*
X217681000Y-80043796D01*
X217611610Y-80090161D01*
X217442494Y-80123800D01*
X213250000Y-80123800D01*
X213235134Y-80125264D01*
X213043792Y-80163324D01*
X213016323Y-80174702D01*
X212854112Y-80283089D01*
X212833089Y-80304112D01*
X212724702Y-80466323D01*
X212713324Y-80493792D01*
X212675264Y-80685134D01*
X212673800Y-80700000D01*
X212673800Y-83492494D01*
X212640161Y-83661610D01*
X212548616Y-83798616D01*
X212411610Y-83890161D01*
X212242494Y-83923800D01*
X195150000Y-83923800D01*
X195135134Y-83925264D01*
X195004000Y-83951348D01*
X195004000Y-83118210D01*
X195952997Y-83118210D01*
X196043678Y-83337675D01*
X196211442Y-83505732D01*
X196430748Y-83596796D01*
X196668210Y-83597003D01*
X196887675Y-83506322D01*
X197055732Y-83338558D01*
X197146796Y-83119252D01*
X197147003Y-82881790D01*
X197070061Y-82695574D01*
X201817316Y-82695574D01*
X201890633Y-82873014D01*
X202026272Y-83008890D01*
X202203584Y-83082516D01*
X202395574Y-83082684D01*
X202573014Y-83009367D01*
X202708890Y-82873728D01*
X202782516Y-82696416D01*
X202782604Y-82595574D01*
X205917316Y-82595574D01*
X205990633Y-82773014D01*
X206126272Y-82908890D01*
X206303584Y-82982516D01*
X206495574Y-82982684D01*
X206673014Y-82909367D01*
X206808890Y-82773728D01*
X206882516Y-82596416D01*
X206882684Y-82404426D01*
X206809367Y-82226986D01*
X206673728Y-82091110D01*
X206496416Y-82017484D01*
X206304426Y-82017316D01*
X206126986Y-82090633D01*
X205991110Y-82226272D01*
X205917484Y-82403584D01*
X205917316Y-82595574D01*
X202782604Y-82595574D01*
X202782684Y-82504426D01*
X202709367Y-82326986D01*
X202573728Y-82191110D01*
X202396416Y-82117484D01*
X202204426Y-82117316D01*
X202026986Y-82190633D01*
X201891110Y-82326272D01*
X201817484Y-82503584D01*
X201817316Y-82695574D01*
X197070061Y-82695574D01*
X197056322Y-82662325D01*
X196888558Y-82494268D01*
X196669252Y-82403204D01*
X196431790Y-82402997D01*
X196212325Y-82493678D01*
X196044268Y-82661442D01*
X195953204Y-82880748D01*
X195952997Y-83118210D01*
X195004000Y-83118210D01*
X195004000Y-82045574D01*
X198217316Y-82045574D01*
X198290633Y-82223014D01*
X198426272Y-82358890D01*
X198603584Y-82432516D01*
X198795574Y-82432684D01*
X198973014Y-82359367D01*
X199108890Y-82223728D01*
X199182516Y-82046416D01*
X199182684Y-81854426D01*
X199109367Y-81676986D01*
X198978185Y-81545574D01*
X211267316Y-81545574D01*
X211340633Y-81723014D01*
X211476272Y-81858890D01*
X211653584Y-81932516D01*
X211845574Y-81932684D01*
X212023014Y-81859367D01*
X212158890Y-81723728D01*
X212232516Y-81546416D01*
X212232684Y-81354426D01*
X212159367Y-81176986D01*
X212023728Y-81041110D01*
X211846416Y-80967484D01*
X211654426Y-80967316D01*
X211476986Y-81040633D01*
X211341110Y-81176272D01*
X211267484Y-81353584D01*
X211267316Y-81545574D01*
X198978185Y-81545574D01*
X198973728Y-81541110D01*
X198796416Y-81467484D01*
X198604426Y-81467316D01*
X198426986Y-81540633D01*
X198291110Y-81676272D01*
X198217484Y-81853584D01*
X198217316Y-82045574D01*
X195004000Y-82045574D01*
X195004000Y-82000000D01*
X194985331Y-81904422D01*
X194929605Y-81820395D01*
X194129605Y-81020395D01*
X194048820Y-80966012D01*
X193950000Y-80946000D01*
X192232560Y-80946000D01*
X192232684Y-80804426D01*
X192159367Y-80626986D01*
X192023728Y-80491110D01*
X191846416Y-80417484D01*
X191654426Y-80417316D01*
X191476986Y-80490633D01*
X191341110Y-80626272D01*
X191267484Y-80803584D01*
X191267359Y-80946000D01*
X190023081Y-80946000D01*
X189969567Y-80816486D01*
X189833928Y-80680610D01*
X189656616Y-80606984D01*
X189464626Y-80606816D01*
X189287186Y-80680133D01*
X189151310Y-80815772D01*
X189097235Y-80946000D01*
X188811558Y-80946000D01*
X189051474Y-80846868D01*
X189266015Y-80632702D01*
X189382267Y-80352736D01*
X189382532Y-80049594D01*
X189318892Y-79895574D01*
X190567316Y-79895574D01*
X190640633Y-80073014D01*
X190776272Y-80208890D01*
X190953584Y-80282516D01*
X191145574Y-80282684D01*
X191323014Y-80209367D01*
X191458890Y-80073728D01*
X191532516Y-79896416D01*
X191532684Y-79704426D01*
X191509298Y-79647826D01*
X192094988Y-79647826D01*
X192210752Y-79927994D01*
X192424918Y-80142535D01*
X192704884Y-80258787D01*
X193008026Y-80259052D01*
X193288194Y-80143288D01*
X193502735Y-79929122D01*
X193618987Y-79649156D01*
X193619252Y-79346014D01*
X193509918Y-79081406D01*
X193751068Y-79081406D01*
X193866832Y-79361574D01*
X194080998Y-79576115D01*
X194360964Y-79692367D01*
X194511998Y-79692499D01*
X194411733Y-79933964D01*
X194411468Y-80237106D01*
X194527232Y-80517274D01*
X194741398Y-80731815D01*
X195021364Y-80848067D01*
X195324506Y-80848332D01*
X195331156Y-80845584D01*
X206367316Y-80845584D01*
X206440633Y-81023024D01*
X206576272Y-81158900D01*
X206753584Y-81232526D01*
X206945574Y-81232694D01*
X207123014Y-81159377D01*
X207258890Y-81023738D01*
X207332516Y-80846426D01*
X207332684Y-80654436D01*
X207259367Y-80476996D01*
X207123728Y-80341120D01*
X206946416Y-80267494D01*
X206754426Y-80267326D01*
X206576986Y-80340643D01*
X206441110Y-80476282D01*
X206367484Y-80653594D01*
X206367316Y-80845584D01*
X195331156Y-80845584D01*
X195604674Y-80732568D01*
X195819215Y-80518402D01*
X195935467Y-80238436D01*
X195935732Y-79935294D01*
X195836681Y-79695574D01*
X204167316Y-79695574D01*
X204240633Y-79873014D01*
X204376272Y-80008890D01*
X204553584Y-80082516D01*
X204745574Y-80082684D01*
X204923014Y-80009367D01*
X205058890Y-79873728D01*
X205132516Y-79696416D01*
X205132684Y-79504426D01*
X205125951Y-79488130D01*
X210225537Y-79488130D01*
X210316218Y-79707595D01*
X210483982Y-79875652D01*
X210703288Y-79966716D01*
X210940750Y-79966923D01*
X211160215Y-79876242D01*
X211328272Y-79708478D01*
X211419336Y-79489172D01*
X211419543Y-79251710D01*
X211328862Y-79032245D01*
X211161098Y-78864188D01*
X210941792Y-78773124D01*
X210704330Y-78772917D01*
X210484865Y-78863598D01*
X210316808Y-79031362D01*
X210225744Y-79250668D01*
X210225537Y-79488130D01*
X205125951Y-79488130D01*
X205059367Y-79326986D01*
X204923728Y-79191110D01*
X204746416Y-79117484D01*
X204554426Y-79117316D01*
X204376986Y-79190633D01*
X204241110Y-79326272D01*
X204167484Y-79503584D01*
X204167316Y-79695574D01*
X195836681Y-79695574D01*
X195819968Y-79655126D01*
X195605802Y-79440585D01*
X195325836Y-79324333D01*
X195174802Y-79324201D01*
X195275067Y-79082736D01*
X195275230Y-78895574D01*
X206002614Y-78895574D01*
X206075931Y-79073014D01*
X206211570Y-79208890D01*
X206388882Y-79282516D01*
X206580872Y-79282684D01*
X206758312Y-79209367D01*
X206894188Y-79073728D01*
X206967814Y-78896416D01*
X206967982Y-78704426D01*
X206894665Y-78526986D01*
X206759026Y-78391110D01*
X206581714Y-78317484D01*
X206389724Y-78317316D01*
X206212284Y-78390633D01*
X206076408Y-78526272D01*
X206002782Y-78703584D01*
X206002614Y-78895574D01*
X195275230Y-78895574D01*
X195275332Y-78779594D01*
X195159568Y-78499426D01*
X195055898Y-78395574D01*
X197417316Y-78395574D01*
X197490633Y-78573014D01*
X197626272Y-78708890D01*
X197803584Y-78782516D01*
X197995574Y-78782684D01*
X198173014Y-78709367D01*
X198308890Y-78573728D01*
X198382516Y-78396416D01*
X198382684Y-78204426D01*
X198309367Y-78026986D01*
X198180816Y-77898210D01*
X214862997Y-77898210D01*
X214953678Y-78117675D01*
X215121442Y-78285732D01*
X215340748Y-78376796D01*
X215578210Y-78377003D01*
X215797675Y-78286322D01*
X215965732Y-78118558D01*
X216056796Y-77899252D01*
X216057003Y-77661790D01*
X215966322Y-77442325D01*
X215798558Y-77274268D01*
X215579252Y-77183204D01*
X215341790Y-77182997D01*
X215122325Y-77273678D01*
X214954268Y-77441442D01*
X214863204Y-77660748D01*
X214862997Y-77898210D01*
X198180816Y-77898210D01*
X198173728Y-77891110D01*
X197996416Y-77817484D01*
X197804426Y-77817316D01*
X197626986Y-77890633D01*
X197491110Y-78026272D01*
X197417484Y-78203584D01*
X197417316Y-78395574D01*
X195055898Y-78395574D01*
X194945402Y-78284885D01*
X194665436Y-78168633D01*
X194362294Y-78168368D01*
X194082126Y-78284132D01*
X193867585Y-78498298D01*
X193751333Y-78778264D01*
X193751068Y-79081406D01*
X193509918Y-79081406D01*
X193503488Y-79065846D01*
X193289322Y-78851305D01*
X193009356Y-78735053D01*
X192706214Y-78734788D01*
X192426046Y-78850552D01*
X192211505Y-79064718D01*
X192095253Y-79344684D01*
X192094988Y-79647826D01*
X191509298Y-79647826D01*
X191459367Y-79526986D01*
X191323728Y-79391110D01*
X191146416Y-79317484D01*
X190954426Y-79317316D01*
X190776986Y-79390633D01*
X190641110Y-79526272D01*
X190567484Y-79703584D01*
X190567316Y-79895574D01*
X189318892Y-79895574D01*
X189266768Y-79769426D01*
X189052602Y-79554885D01*
X188772636Y-79438633D01*
X188469494Y-79438368D01*
X188189326Y-79554132D01*
X187974785Y-79768298D01*
X187899016Y-79950770D01*
X187858802Y-79910485D01*
X187578836Y-79794233D01*
X187275694Y-79793968D01*
X186995526Y-79909732D01*
X186780985Y-80123898D01*
X186664733Y-80403864D01*
X186664468Y-80707006D01*
X186763219Y-80946000D01*
X185260826Y-80946000D01*
X185215468Y-80836226D01*
X185001302Y-80621685D01*
X184721336Y-80505433D01*
X184418194Y-80505168D01*
X184138026Y-80620932D01*
X184076200Y-80682650D01*
X184076200Y-78278766D01*
X190819908Y-78278766D01*
X190935672Y-78558934D01*
X191149838Y-78773475D01*
X191429804Y-78889727D01*
X191732946Y-78889992D01*
X192013114Y-78774228D01*
X192227655Y-78560062D01*
X192343907Y-78280096D01*
X192344172Y-77976954D01*
X192228408Y-77696786D01*
X192014242Y-77482245D01*
X191734276Y-77365993D01*
X191431134Y-77365728D01*
X191150966Y-77481492D01*
X190936425Y-77695658D01*
X190820173Y-77975624D01*
X190819908Y-78278766D01*
X184076200Y-78278766D01*
X184076200Y-75978074D01*
X184835716Y-75978074D01*
X184909033Y-76155514D01*
X185044672Y-76291390D01*
X185221984Y-76365016D01*
X185413974Y-76365184D01*
X185417793Y-76363606D01*
X196024368Y-76363606D01*
X196140132Y-76643774D01*
X196354298Y-76858315D01*
X196634264Y-76974567D01*
X196937406Y-76974832D01*
X197217574Y-76859068D01*
X197303071Y-76773720D01*
X197367733Y-76930214D01*
X197503372Y-77066090D01*
X197680684Y-77139716D01*
X197872674Y-77139884D01*
X198050114Y-77066567D01*
X198185990Y-76930928D01*
X198259616Y-76753616D01*
X198259666Y-76695574D01*
X206367316Y-76695574D01*
X206440633Y-76873014D01*
X206576272Y-77008890D01*
X206753584Y-77082516D01*
X206945574Y-77082684D01*
X207123014Y-77009367D01*
X207258890Y-76873728D01*
X207332516Y-76696416D01*
X207332684Y-76504426D01*
X207259367Y-76326986D01*
X207123728Y-76191110D01*
X206946416Y-76117484D01*
X206754426Y-76117316D01*
X206576986Y-76190633D01*
X206441110Y-76326272D01*
X206367484Y-76503584D01*
X206367316Y-76695574D01*
X198259666Y-76695574D01*
X198259784Y-76561626D01*
X198186467Y-76384186D01*
X198050828Y-76248310D01*
X197873516Y-76174684D01*
X197681526Y-76174516D01*
X197548485Y-76229487D01*
X197548632Y-76061794D01*
X197503545Y-75952674D01*
X204038116Y-75952674D01*
X204111433Y-76130114D01*
X204247072Y-76265990D01*
X204424384Y-76339616D01*
X204616374Y-76339784D01*
X204793814Y-76266467D01*
X204929690Y-76130828D01*
X205003316Y-75953516D01*
X205003454Y-75795574D01*
X205467316Y-75795574D01*
X205540633Y-75973014D01*
X205676272Y-76108890D01*
X205853584Y-76182516D01*
X206045574Y-76182684D01*
X206223014Y-76109367D01*
X206358890Y-75973728D01*
X206432516Y-75796416D01*
X206432684Y-75604426D01*
X206369251Y-75450906D01*
X209637868Y-75450906D01*
X209753632Y-75731074D01*
X209967798Y-75945615D01*
X210247764Y-76061867D01*
X210550906Y-76062132D01*
X210831074Y-75946368D01*
X211045615Y-75732202D01*
X211161867Y-75452236D01*
X211162132Y-75149094D01*
X211046368Y-74868926D01*
X210832202Y-74654385D01*
X210552236Y-74538133D01*
X210249094Y-74537868D01*
X209968926Y-74653632D01*
X209754385Y-74867798D01*
X209638133Y-75147764D01*
X209637868Y-75450906D01*
X206369251Y-75450906D01*
X206359367Y-75426986D01*
X206223728Y-75291110D01*
X206046416Y-75217484D01*
X205854426Y-75217316D01*
X205676986Y-75290633D01*
X205541110Y-75426272D01*
X205467484Y-75603584D01*
X205467316Y-75795574D01*
X205003454Y-75795574D01*
X205003484Y-75761526D01*
X204930167Y-75584086D01*
X204794528Y-75448210D01*
X204617216Y-75374584D01*
X204425226Y-75374416D01*
X204247786Y-75447733D01*
X204111910Y-75583372D01*
X204038284Y-75760684D01*
X204038116Y-75952674D01*
X197503545Y-75952674D01*
X197432868Y-75781626D01*
X197218702Y-75567085D01*
X196938736Y-75450833D01*
X196635594Y-75450568D01*
X196355426Y-75566332D01*
X196140885Y-75780498D01*
X196024633Y-76060464D01*
X196024368Y-76363606D01*
X185417793Y-76363606D01*
X185591414Y-76291867D01*
X185727290Y-76156228D01*
X185800916Y-75978916D01*
X185801084Y-75786926D01*
X185727767Y-75609486D01*
X185592128Y-75473610D01*
X185414816Y-75399984D01*
X185222826Y-75399816D01*
X185045386Y-75473133D01*
X184909510Y-75608772D01*
X184835884Y-75786084D01*
X184835716Y-75978074D01*
X184076200Y-75978074D01*
X184076200Y-74395574D01*
X199017316Y-74395574D01*
X199090633Y-74573014D01*
X199226272Y-74708890D01*
X199403584Y-74782516D01*
X199595574Y-74782684D01*
X199773014Y-74709367D01*
X199908890Y-74573728D01*
X199941342Y-74495574D01*
X211767316Y-74495574D01*
X211840633Y-74673014D01*
X211976272Y-74808890D01*
X212153584Y-74882516D01*
X212345574Y-74882684D01*
X212523014Y-74809367D01*
X212658890Y-74673728D01*
X212732516Y-74496416D01*
X212732684Y-74304426D01*
X212659367Y-74126986D01*
X212523728Y-73991110D01*
X212346416Y-73917484D01*
X212154426Y-73917316D01*
X211976986Y-73990633D01*
X211841110Y-74126272D01*
X211767484Y-74303584D01*
X211767316Y-74495574D01*
X199941342Y-74495574D01*
X199982516Y-74396416D01*
X199982684Y-74204426D01*
X199909367Y-74026986D01*
X199773728Y-73891110D01*
X199596416Y-73817484D01*
X199404426Y-73817316D01*
X199226986Y-73890633D01*
X199091110Y-74026272D01*
X199017484Y-74203584D01*
X199017316Y-74395574D01*
X184076200Y-74395574D01*
X184076200Y-73044374D01*
X184607116Y-73044374D01*
X184680433Y-73221814D01*
X184816072Y-73357690D01*
X184993384Y-73431316D01*
X185185374Y-73431484D01*
X185362814Y-73358167D01*
X185443615Y-73277506D01*
X193230368Y-73277506D01*
X193346132Y-73557674D01*
X193560298Y-73772215D01*
X193840264Y-73888467D01*
X194143406Y-73888732D01*
X194423574Y-73772968D01*
X194638115Y-73558802D01*
X194754367Y-73278836D01*
X194754527Y-73095574D01*
X197017316Y-73095574D01*
X197090633Y-73273014D01*
X197226272Y-73408890D01*
X197403584Y-73482516D01*
X197595574Y-73482684D01*
X197773014Y-73409367D01*
X197786831Y-73395574D01*
X202017316Y-73395574D01*
X202090633Y-73573014D01*
X202226272Y-73708890D01*
X202403584Y-73782516D01*
X202595574Y-73782684D01*
X202773014Y-73709367D01*
X202786831Y-73695574D01*
X209417316Y-73695574D01*
X209490633Y-73873014D01*
X209626272Y-74008890D01*
X209803584Y-74082516D01*
X209995574Y-74082684D01*
X210173014Y-74009367D01*
X210308890Y-73873728D01*
X210382516Y-73696416D01*
X210382684Y-73504426D01*
X210309367Y-73326986D01*
X210173728Y-73191110D01*
X209996416Y-73117484D01*
X209804426Y-73117316D01*
X209626986Y-73190633D01*
X209491110Y-73326272D01*
X209417484Y-73503584D01*
X209417316Y-73695574D01*
X202786831Y-73695574D01*
X202908890Y-73573728D01*
X202982516Y-73396416D01*
X202982684Y-73204426D01*
X202909367Y-73026986D01*
X202773728Y-72891110D01*
X202596416Y-72817484D01*
X202404426Y-72817316D01*
X202226986Y-72890633D01*
X202091110Y-73026272D01*
X202017484Y-73203584D01*
X202017316Y-73395574D01*
X197786831Y-73395574D01*
X197908890Y-73273728D01*
X197982516Y-73096416D01*
X197982684Y-72904426D01*
X197909367Y-72726986D01*
X197773728Y-72591110D01*
X197596416Y-72517484D01*
X197404426Y-72517316D01*
X197226986Y-72590633D01*
X197091110Y-72726272D01*
X197017484Y-72903584D01*
X197017316Y-73095574D01*
X194754527Y-73095574D01*
X194754632Y-72975694D01*
X194638868Y-72695526D01*
X194424702Y-72480985D01*
X194144736Y-72364733D01*
X193841594Y-72364468D01*
X193561426Y-72480232D01*
X193346885Y-72694398D01*
X193230633Y-72974364D01*
X193230368Y-73277506D01*
X185443615Y-73277506D01*
X185498690Y-73222528D01*
X185572316Y-73045216D01*
X185572484Y-72853226D01*
X185499167Y-72675786D01*
X185363528Y-72539910D01*
X185186216Y-72466284D01*
X184994226Y-72466116D01*
X184816786Y-72539433D01*
X184680910Y-72675072D01*
X184607284Y-72852384D01*
X184607116Y-73044374D01*
X184076200Y-73044374D01*
X184076200Y-72507506D01*
X184109839Y-72338390D01*
X184149522Y-72279000D01*
X215116994Y-72279000D01*
X214954268Y-72441442D01*
G36*
X217611610Y-80509839D02*
X217681000Y-80556204D01*
X217681000Y-96531000D01*
X212815565Y-96531000D01*
X212272776Y-95988210D01*
X214862997Y-95988210D01*
X214953678Y-96207675D01*
X215121442Y-96375732D01*
X215340748Y-96466796D01*
X215578210Y-96467003D01*
X215797675Y-96376322D01*
X215965732Y-96208558D01*
X216056796Y-95989252D01*
X216057003Y-95751790D01*
X215966322Y-95532325D01*
X215798558Y-95364268D01*
X215579252Y-95273204D01*
X215341790Y-95272997D01*
X215122325Y-95363678D01*
X214954268Y-95531442D01*
X214863204Y-95750748D01*
X214862997Y-95988210D01*
X212272776Y-95988210D01*
X211087283Y-94802717D01*
X211042076Y-94772511D01*
X210996769Y-94742238D01*
X210890000Y-94721000D01*
X195004000Y-94721000D01*
X195004000Y-93175866D01*
X205236948Y-93175866D01*
X205352712Y-93456034D01*
X205566878Y-93670575D01*
X205846844Y-93786827D01*
X206149986Y-93787092D01*
X206430154Y-93671328D01*
X206644695Y-93457162D01*
X206683188Y-93364459D01*
X206785742Y-93467192D01*
X207005048Y-93558256D01*
X207242510Y-93558463D01*
X207312668Y-93529474D01*
X209778516Y-93529474D01*
X209851833Y-93706914D01*
X209987472Y-93842790D01*
X210164784Y-93916416D01*
X210356774Y-93916584D01*
X210534214Y-93843267D01*
X210670090Y-93707628D01*
X210743716Y-93530316D01*
X210743884Y-93338326D01*
X210670567Y-93160886D01*
X210534928Y-93025010D01*
X210357616Y-92951384D01*
X210165626Y-92951216D01*
X209988186Y-93024533D01*
X209852310Y-93160172D01*
X209778684Y-93337484D01*
X209778516Y-93529474D01*
X207312668Y-93529474D01*
X207461975Y-93467782D01*
X207630032Y-93300018D01*
X207721096Y-93080712D01*
X207721303Y-92843250D01*
X207630622Y-92623785D01*
X207462858Y-92455728D01*
X207243552Y-92364664D01*
X207006090Y-92364457D01*
X206786625Y-92455138D01*
X206646087Y-92595431D01*
X206645448Y-92593886D01*
X206431282Y-92379345D01*
X206151316Y-92263093D01*
X205848174Y-92262828D01*
X205568006Y-92378592D01*
X205353465Y-92592758D01*
X205237213Y-92872724D01*
X205236948Y-93175866D01*
X195004000Y-93175866D01*
X195004000Y-92411326D01*
X203796768Y-92411326D01*
X203912532Y-92691494D01*
X204126698Y-92906035D01*
X204406664Y-93022287D01*
X204709806Y-93022552D01*
X204989974Y-92906788D01*
X205204515Y-92692622D01*
X205320767Y-92412656D01*
X205321032Y-92109514D01*
X205205268Y-91829346D01*
X204991102Y-91614805D01*
X204711136Y-91498553D01*
X204407994Y-91498288D01*
X204127826Y-91614052D01*
X203913285Y-91828218D01*
X203797033Y-92108184D01*
X203796768Y-92411326D01*
X195004000Y-92411326D01*
X195004000Y-91695594D01*
X198711736Y-91695594D01*
X198785053Y-91873034D01*
X198920692Y-92008910D01*
X199098004Y-92082536D01*
X199289994Y-92082704D01*
X199467434Y-92009387D01*
X199603310Y-91873748D01*
X199676936Y-91696436D01*
X199677104Y-91504446D01*
X199603787Y-91327006D01*
X199468148Y-91191130D01*
X199290836Y-91117504D01*
X199098846Y-91117336D01*
X198921406Y-91190653D01*
X198785530Y-91326292D01*
X198711904Y-91503604D01*
X198711736Y-91695594D01*
X195004000Y-91695594D01*
X195004000Y-90976550D01*
X197302017Y-90976550D01*
X197392698Y-91196015D01*
X197560462Y-91364072D01*
X197779768Y-91455136D01*
X198017230Y-91455343D01*
X198236695Y-91364662D01*
X198404752Y-91196898D01*
X198445024Y-91099911D01*
X203234300Y-91099911D01*
X203307617Y-91277351D01*
X203443256Y-91413227D01*
X203620568Y-91486853D01*
X203812558Y-91487021D01*
X203989998Y-91413704D01*
X204125874Y-91278065D01*
X204199500Y-91100753D01*
X204199668Y-90908763D01*
X204126351Y-90731323D01*
X203990712Y-90595447D01*
X203813400Y-90521821D01*
X203621410Y-90521653D01*
X203443970Y-90594970D01*
X203308094Y-90730609D01*
X203234468Y-90907921D01*
X203234300Y-91099911D01*
X198445024Y-91099911D01*
X198495816Y-90977592D01*
X198496023Y-90740130D01*
X198474474Y-90687977D01*
X198615404Y-90746496D01*
X198807394Y-90746664D01*
X198984834Y-90673347D01*
X199120710Y-90537708D01*
X199194336Y-90360396D01*
X199194443Y-90237634D01*
X201119656Y-90237634D01*
X201192973Y-90415074D01*
X201328612Y-90550950D01*
X201505924Y-90624576D01*
X201697914Y-90624744D01*
X201875354Y-90551427D01*
X202011230Y-90415788D01*
X202049573Y-90323446D01*
X204007588Y-90323446D01*
X204123352Y-90603614D01*
X204337518Y-90818155D01*
X204617484Y-90934407D01*
X204920626Y-90934672D01*
X205200794Y-90818908D01*
X205415335Y-90604742D01*
X205531587Y-90324776D01*
X205531852Y-90021634D01*
X205416088Y-89741466D01*
X205395249Y-89720590D01*
X208399122Y-89720590D01*
X208468093Y-89887514D01*
X208595694Y-90015338D01*
X208753237Y-90080756D01*
X208596366Y-90145573D01*
X208468542Y-90273174D01*
X208399279Y-90439978D01*
X208399122Y-90620590D01*
X208468093Y-90787514D01*
X208595694Y-90915338D01*
X208753237Y-90980756D01*
X208596366Y-91045573D01*
X208468542Y-91173174D01*
X208399279Y-91339978D01*
X208399122Y-91520590D01*
X208468093Y-91687514D01*
X208595694Y-91815338D01*
X208762498Y-91884601D01*
X208943110Y-91884758D01*
X209110034Y-91815787D01*
X209237858Y-91688186D01*
X209303276Y-91530643D01*
X209368093Y-91687514D01*
X209495694Y-91815338D01*
X209662498Y-91884601D01*
X209843110Y-91884758D01*
X210010034Y-91815787D01*
X210137858Y-91688186D01*
X210203276Y-91530643D01*
X210268093Y-91687514D01*
X210395694Y-91815338D01*
X210562498Y-91884601D01*
X210743110Y-91884758D01*
X210910034Y-91815787D01*
X211037858Y-91688186D01*
X211107121Y-91521382D01*
X211107278Y-91340770D01*
X211038307Y-91173846D01*
X210910706Y-91046022D01*
X210771481Y-90988210D01*
X214862997Y-90988210D01*
X214953678Y-91207675D01*
X215121442Y-91375732D01*
X215340748Y-91466796D01*
X215578210Y-91467003D01*
X215797675Y-91376322D01*
X215965732Y-91208558D01*
X216056796Y-90989252D01*
X216057003Y-90751790D01*
X215966322Y-90532325D01*
X215798558Y-90364268D01*
X215579252Y-90273204D01*
X215341790Y-90272997D01*
X215122325Y-90363678D01*
X214954268Y-90531442D01*
X214863204Y-90750748D01*
X214862997Y-90988210D01*
X210771481Y-90988210D01*
X210753163Y-90980604D01*
X210910034Y-90915787D01*
X211037858Y-90788186D01*
X211107121Y-90621382D01*
X211107278Y-90440770D01*
X211038307Y-90273846D01*
X210910706Y-90146022D01*
X210753163Y-90080604D01*
X210910034Y-90015787D01*
X211037858Y-89888186D01*
X211107121Y-89721382D01*
X211107278Y-89540770D01*
X211038307Y-89373846D01*
X210910706Y-89246022D01*
X210743902Y-89176759D01*
X210563290Y-89176602D01*
X210396366Y-89245573D01*
X210268542Y-89373174D01*
X210203124Y-89530717D01*
X210138307Y-89373846D01*
X210010706Y-89246022D01*
X209843902Y-89176759D01*
X209663290Y-89176602D01*
X209496366Y-89245573D01*
X209368542Y-89373174D01*
X209303124Y-89530717D01*
X209238307Y-89373846D01*
X209110706Y-89246022D01*
X208943902Y-89176759D01*
X208763290Y-89176602D01*
X208596366Y-89245573D01*
X208468542Y-89373174D01*
X208399279Y-89539978D01*
X208399122Y-89720590D01*
X205395249Y-89720590D01*
X205201922Y-89526925D01*
X204921956Y-89410673D01*
X204618814Y-89410408D01*
X204338646Y-89526172D01*
X204124105Y-89740338D01*
X204007853Y-90020304D01*
X204007588Y-90323446D01*
X202049573Y-90323446D01*
X202084856Y-90238476D01*
X202085024Y-90046486D01*
X202011707Y-89869046D01*
X201876068Y-89733170D01*
X201698756Y-89659544D01*
X201506766Y-89659376D01*
X201329326Y-89732693D01*
X201193450Y-89868332D01*
X201119824Y-90045644D01*
X201119656Y-90237634D01*
X199194443Y-90237634D01*
X199194504Y-90168406D01*
X199121187Y-89990966D01*
X198985548Y-89855090D01*
X198808236Y-89781464D01*
X198616246Y-89781296D01*
X198438806Y-89854613D01*
X198302930Y-89990252D01*
X198229304Y-90167564D01*
X198229145Y-90349106D01*
X198018272Y-90261544D01*
X197780810Y-90261337D01*
X197561345Y-90352018D01*
X197393288Y-90519782D01*
X197302224Y-90739088D01*
X197302017Y-90976550D01*
X195004000Y-90976550D01*
X195004000Y-90916756D01*
X195126710Y-90916863D01*
X195346175Y-90826182D01*
X195514232Y-90658418D01*
X195605296Y-90439112D01*
X195605503Y-90201650D01*
X195514822Y-89982185D01*
X195347058Y-89814128D01*
X195127752Y-89723064D01*
X195004000Y-89722956D01*
X195004000Y-88243186D01*
X205183608Y-88243186D01*
X205299372Y-88523354D01*
X205513538Y-88737895D01*
X205793504Y-88854147D01*
X206096646Y-88854412D01*
X206376814Y-88738648D01*
X206591355Y-88524482D01*
X206707607Y-88244516D01*
X206707872Y-87941374D01*
X206592108Y-87661206D01*
X206377942Y-87446665D01*
X206193071Y-87369900D01*
X206237695Y-87351462D01*
X206405752Y-87183698D01*
X206496816Y-86964392D01*
X206496875Y-86895574D01*
X214977316Y-86895574D01*
X215050633Y-87073014D01*
X215186272Y-87208890D01*
X215363584Y-87282516D01*
X215555574Y-87282684D01*
X215733014Y-87209367D01*
X215868890Y-87073728D01*
X215942516Y-86896416D01*
X215942684Y-86704426D01*
X215869367Y-86526986D01*
X215733728Y-86391110D01*
X215556416Y-86317484D01*
X215364426Y-86317316D01*
X215186986Y-86390633D01*
X215051110Y-86526272D01*
X214977484Y-86703584D01*
X214977316Y-86895574D01*
X206496875Y-86895574D01*
X206497023Y-86726930D01*
X206406342Y-86507465D01*
X206306142Y-86407090D01*
X208084317Y-86407090D01*
X208174998Y-86626555D01*
X208342762Y-86794612D01*
X208562068Y-86885676D01*
X208799530Y-86885883D01*
X209018995Y-86795202D01*
X209187052Y-86627438D01*
X209278116Y-86408132D01*
X209278323Y-86170670D01*
X209187642Y-85951205D01*
X209019878Y-85783148D01*
X208800572Y-85692084D01*
X208563110Y-85691877D01*
X208343645Y-85782558D01*
X208175588Y-85950322D01*
X208084524Y-86169628D01*
X208084317Y-86407090D01*
X206306142Y-86407090D01*
X206238578Y-86339408D01*
X206019272Y-86248344D01*
X205781810Y-86248137D01*
X205562345Y-86338818D01*
X205394288Y-86506582D01*
X205303224Y-86725888D01*
X205303017Y-86963350D01*
X205393698Y-87182815D01*
X205561462Y-87350872D01*
X205652844Y-87388817D01*
X205514666Y-87445912D01*
X205300125Y-87660078D01*
X205183873Y-87940044D01*
X205183608Y-88243186D01*
X195004000Y-88243186D01*
X195004000Y-86118210D01*
X203202997Y-86118210D01*
X203293678Y-86337675D01*
X203461442Y-86505732D01*
X203680748Y-86596796D01*
X203918210Y-86597003D01*
X204137675Y-86506322D01*
X204305732Y-86338558D01*
X204396796Y-86119252D01*
X204397003Y-85881790D01*
X204306322Y-85662325D01*
X204138558Y-85494268D01*
X203919252Y-85403204D01*
X203681790Y-85402997D01*
X203462325Y-85493678D01*
X203294268Y-85661442D01*
X203203204Y-85880748D01*
X203202997Y-86118210D01*
X195004000Y-86118210D01*
X195004000Y-84931559D01*
X195056333Y-85058214D01*
X195191972Y-85194090D01*
X195369284Y-85267716D01*
X195561274Y-85267884D01*
X195738714Y-85194567D01*
X195874590Y-85058928D01*
X195948216Y-84881616D01*
X195948216Y-84880774D01*
X198462816Y-84880774D01*
X198536133Y-85058214D01*
X198671772Y-85194090D01*
X198849084Y-85267716D01*
X199041074Y-85267884D01*
X199218514Y-85194567D01*
X199354390Y-85058928D01*
X199428016Y-84881616D01*
X199428027Y-84868074D01*
X202526816Y-84868074D01*
X202600133Y-85045514D01*
X202735772Y-85181390D01*
X202913084Y-85255016D01*
X203105074Y-85255184D01*
X203273542Y-85185574D01*
X206794016Y-85185574D01*
X206867333Y-85363014D01*
X207002972Y-85498890D01*
X207180284Y-85572516D01*
X207372274Y-85572684D01*
X207549714Y-85499367D01*
X207685590Y-85363728D01*
X207759216Y-85186416D01*
X207759384Y-84994426D01*
X207686067Y-84816986D01*
X207550428Y-84681110D01*
X207373116Y-84607484D01*
X207181126Y-84607316D01*
X207003686Y-84680633D01*
X206867810Y-84816272D01*
X206794184Y-84993584D01*
X206794016Y-85185574D01*
X203273542Y-85185574D01*
X203282514Y-85181867D01*
X203418390Y-85046228D01*
X203492016Y-84868916D01*
X203492184Y-84676926D01*
X203418867Y-84499486D01*
X203283228Y-84363610D01*
X203105916Y-84289984D01*
X202913926Y-84289816D01*
X202736486Y-84363133D01*
X202600610Y-84498772D01*
X202526984Y-84676084D01*
X202526816Y-84868074D01*
X199428027Y-84868074D01*
X199428184Y-84689626D01*
X199354867Y-84512186D01*
X199219228Y-84376310D01*
X199041916Y-84302684D01*
X198849926Y-84302516D01*
X198672486Y-84375833D01*
X198536610Y-84511472D01*
X198462984Y-84688784D01*
X198462816Y-84880774D01*
X195948216Y-84880774D01*
X195948384Y-84689626D01*
X195875067Y-84512186D01*
X195739428Y-84376310D01*
X195562116Y-84302684D01*
X195370126Y-84302516D01*
X195192686Y-84375833D01*
X195056810Y-84511472D01*
X195004000Y-84638653D01*
X195004000Y-84472299D01*
X195051384Y-84401384D01*
X195188390Y-84309839D01*
X195357506Y-84276200D01*
X212450000Y-84276200D01*
X212464866Y-84274736D01*
X212656208Y-84236676D01*
X212683677Y-84225298D01*
X212845888Y-84116911D01*
X212866911Y-84095888D01*
X212975298Y-83933677D01*
X212986676Y-83906208D01*
X213024736Y-83714866D01*
X213026200Y-83700000D01*
X213026200Y-81895574D01*
X214977316Y-81895574D01*
X215050633Y-82073014D01*
X215186272Y-82208890D01*
X215363584Y-82282516D01*
X215555574Y-82282684D01*
X215733014Y-82209367D01*
X215868890Y-82073728D01*
X215942516Y-81896416D01*
X215942684Y-81704426D01*
X215869367Y-81526986D01*
X215733728Y-81391110D01*
X215556416Y-81317484D01*
X215364426Y-81317316D01*
X215186986Y-81390633D01*
X215051110Y-81526272D01*
X214977484Y-81703584D01*
X214977316Y-81895574D01*
X213026200Y-81895574D01*
X213026200Y-80907506D01*
X213059839Y-80738390D01*
X213151384Y-80601384D01*
X213288390Y-80509839D01*
X213457506Y-80476200D01*
X217442494Y-80476200D01*
X217611610Y-80509839D01*
X217611610Y-80509839D01*
G37*
X217611610Y-80509839D02*
X217681000Y-80556204D01*
X217681000Y-96531000D01*
X212815565Y-96531000D01*
X212272776Y-95988210D01*
X214862997Y-95988210D01*
X214953678Y-96207675D01*
X215121442Y-96375732D01*
X215340748Y-96466796D01*
X215578210Y-96467003D01*
X215797675Y-96376322D01*
X215965732Y-96208558D01*
X216056796Y-95989252D01*
X216057003Y-95751790D01*
X215966322Y-95532325D01*
X215798558Y-95364268D01*
X215579252Y-95273204D01*
X215341790Y-95272997D01*
X215122325Y-95363678D01*
X214954268Y-95531442D01*
X214863204Y-95750748D01*
X214862997Y-95988210D01*
X212272776Y-95988210D01*
X211087283Y-94802717D01*
X211042076Y-94772511D01*
X210996769Y-94742238D01*
X210890000Y-94721000D01*
X195004000Y-94721000D01*
X195004000Y-93175866D01*
X205236948Y-93175866D01*
X205352712Y-93456034D01*
X205566878Y-93670575D01*
X205846844Y-93786827D01*
X206149986Y-93787092D01*
X206430154Y-93671328D01*
X206644695Y-93457162D01*
X206683188Y-93364459D01*
X206785742Y-93467192D01*
X207005048Y-93558256D01*
X207242510Y-93558463D01*
X207312668Y-93529474D01*
X209778516Y-93529474D01*
X209851833Y-93706914D01*
X209987472Y-93842790D01*
X210164784Y-93916416D01*
X210356774Y-93916584D01*
X210534214Y-93843267D01*
X210670090Y-93707628D01*
X210743716Y-93530316D01*
X210743884Y-93338326D01*
X210670567Y-93160886D01*
X210534928Y-93025010D01*
X210357616Y-92951384D01*
X210165626Y-92951216D01*
X209988186Y-93024533D01*
X209852310Y-93160172D01*
X209778684Y-93337484D01*
X209778516Y-93529474D01*
X207312668Y-93529474D01*
X207461975Y-93467782D01*
X207630032Y-93300018D01*
X207721096Y-93080712D01*
X207721303Y-92843250D01*
X207630622Y-92623785D01*
X207462858Y-92455728D01*
X207243552Y-92364664D01*
X207006090Y-92364457D01*
X206786625Y-92455138D01*
X206646087Y-92595431D01*
X206645448Y-92593886D01*
X206431282Y-92379345D01*
X206151316Y-92263093D01*
X205848174Y-92262828D01*
X205568006Y-92378592D01*
X205353465Y-92592758D01*
X205237213Y-92872724D01*
X205236948Y-93175866D01*
X195004000Y-93175866D01*
X195004000Y-92411326D01*
X203796768Y-92411326D01*
X203912532Y-92691494D01*
X204126698Y-92906035D01*
X204406664Y-93022287D01*
X204709806Y-93022552D01*
X204989974Y-92906788D01*
X205204515Y-92692622D01*
X205320767Y-92412656D01*
X205321032Y-92109514D01*
X205205268Y-91829346D01*
X204991102Y-91614805D01*
X204711136Y-91498553D01*
X204407994Y-91498288D01*
X204127826Y-91614052D01*
X203913285Y-91828218D01*
X203797033Y-92108184D01*
X203796768Y-92411326D01*
X195004000Y-92411326D01*
X195004000Y-91695594D01*
X198711736Y-91695594D01*
X198785053Y-91873034D01*
X198920692Y-92008910D01*
X199098004Y-92082536D01*
X199289994Y-92082704D01*
X199467434Y-92009387D01*
X199603310Y-91873748D01*
X199676936Y-91696436D01*
X199677104Y-91504446D01*
X199603787Y-91327006D01*
X199468148Y-91191130D01*
X199290836Y-91117504D01*
X199098846Y-91117336D01*
X198921406Y-91190653D01*
X198785530Y-91326292D01*
X198711904Y-91503604D01*
X198711736Y-91695594D01*
X195004000Y-91695594D01*
X195004000Y-90976550D01*
X197302017Y-90976550D01*
X197392698Y-91196015D01*
X197560462Y-91364072D01*
X197779768Y-91455136D01*
X198017230Y-91455343D01*
X198236695Y-91364662D01*
X198404752Y-91196898D01*
X198445024Y-91099911D01*
X203234300Y-91099911D01*
X203307617Y-91277351D01*
X203443256Y-91413227D01*
X203620568Y-91486853D01*
X203812558Y-91487021D01*
X203989998Y-91413704D01*
X204125874Y-91278065D01*
X204199500Y-91100753D01*
X204199668Y-90908763D01*
X204126351Y-90731323D01*
X203990712Y-90595447D01*
X203813400Y-90521821D01*
X203621410Y-90521653D01*
X203443970Y-90594970D01*
X203308094Y-90730609D01*
X203234468Y-90907921D01*
X203234300Y-91099911D01*
X198445024Y-91099911D01*
X198495816Y-90977592D01*
X198496023Y-90740130D01*
X198474474Y-90687977D01*
X198615404Y-90746496D01*
X198807394Y-90746664D01*
X198984834Y-90673347D01*
X199120710Y-90537708D01*
X199194336Y-90360396D01*
X199194443Y-90237634D01*
X201119656Y-90237634D01*
X201192973Y-90415074D01*
X201328612Y-90550950D01*
X201505924Y-90624576D01*
X201697914Y-90624744D01*
X201875354Y-90551427D01*
X202011230Y-90415788D01*
X202049573Y-90323446D01*
X204007588Y-90323446D01*
X204123352Y-90603614D01*
X204337518Y-90818155D01*
X204617484Y-90934407D01*
X204920626Y-90934672D01*
X205200794Y-90818908D01*
X205415335Y-90604742D01*
X205531587Y-90324776D01*
X205531852Y-90021634D01*
X205416088Y-89741466D01*
X205395249Y-89720590D01*
X208399122Y-89720590D01*
X208468093Y-89887514D01*
X208595694Y-90015338D01*
X208753237Y-90080756D01*
X208596366Y-90145573D01*
X208468542Y-90273174D01*
X208399279Y-90439978D01*
X208399122Y-90620590D01*
X208468093Y-90787514D01*
X208595694Y-90915338D01*
X208753237Y-90980756D01*
X208596366Y-91045573D01*
X208468542Y-91173174D01*
X208399279Y-91339978D01*
X208399122Y-91520590D01*
X208468093Y-91687514D01*
X208595694Y-91815338D01*
X208762498Y-91884601D01*
X208943110Y-91884758D01*
X209110034Y-91815787D01*
X209237858Y-91688186D01*
X209303276Y-91530643D01*
X209368093Y-91687514D01*
X209495694Y-91815338D01*
X209662498Y-91884601D01*
X209843110Y-91884758D01*
X210010034Y-91815787D01*
X210137858Y-91688186D01*
X210203276Y-91530643D01*
X210268093Y-91687514D01*
X210395694Y-91815338D01*
X210562498Y-91884601D01*
X210743110Y-91884758D01*
X210910034Y-91815787D01*
X211037858Y-91688186D01*
X211107121Y-91521382D01*
X211107278Y-91340770D01*
X211038307Y-91173846D01*
X210910706Y-91046022D01*
X210771481Y-90988210D01*
X214862997Y-90988210D01*
X214953678Y-91207675D01*
X215121442Y-91375732D01*
X215340748Y-91466796D01*
X215578210Y-91467003D01*
X215797675Y-91376322D01*
X215965732Y-91208558D01*
X216056796Y-90989252D01*
X216057003Y-90751790D01*
X215966322Y-90532325D01*
X215798558Y-90364268D01*
X215579252Y-90273204D01*
X215341790Y-90272997D01*
X215122325Y-90363678D01*
X214954268Y-90531442D01*
X214863204Y-90750748D01*
X214862997Y-90988210D01*
X210771481Y-90988210D01*
X210753163Y-90980604D01*
X210910034Y-90915787D01*
X211037858Y-90788186D01*
X211107121Y-90621382D01*
X211107278Y-90440770D01*
X211038307Y-90273846D01*
X210910706Y-90146022D01*
X210753163Y-90080604D01*
X210910034Y-90015787D01*
X211037858Y-89888186D01*
X211107121Y-89721382D01*
X211107278Y-89540770D01*
X211038307Y-89373846D01*
X210910706Y-89246022D01*
X210743902Y-89176759D01*
X210563290Y-89176602D01*
X210396366Y-89245573D01*
X210268542Y-89373174D01*
X210203124Y-89530717D01*
X210138307Y-89373846D01*
X210010706Y-89246022D01*
X209843902Y-89176759D01*
X209663290Y-89176602D01*
X209496366Y-89245573D01*
X209368542Y-89373174D01*
X209303124Y-89530717D01*
X209238307Y-89373846D01*
X209110706Y-89246022D01*
X208943902Y-89176759D01*
X208763290Y-89176602D01*
X208596366Y-89245573D01*
X208468542Y-89373174D01*
X208399279Y-89539978D01*
X208399122Y-89720590D01*
X205395249Y-89720590D01*
X205201922Y-89526925D01*
X204921956Y-89410673D01*
X204618814Y-89410408D01*
X204338646Y-89526172D01*
X204124105Y-89740338D01*
X204007853Y-90020304D01*
X204007588Y-90323446D01*
X202049573Y-90323446D01*
X202084856Y-90238476D01*
X202085024Y-90046486D01*
X202011707Y-89869046D01*
X201876068Y-89733170D01*
X201698756Y-89659544D01*
X201506766Y-89659376D01*
X201329326Y-89732693D01*
X201193450Y-89868332D01*
X201119824Y-90045644D01*
X201119656Y-90237634D01*
X199194443Y-90237634D01*
X199194504Y-90168406D01*
X199121187Y-89990966D01*
X198985548Y-89855090D01*
X198808236Y-89781464D01*
X198616246Y-89781296D01*
X198438806Y-89854613D01*
X198302930Y-89990252D01*
X198229304Y-90167564D01*
X198229145Y-90349106D01*
X198018272Y-90261544D01*
X197780810Y-90261337D01*
X197561345Y-90352018D01*
X197393288Y-90519782D01*
X197302224Y-90739088D01*
X197302017Y-90976550D01*
X195004000Y-90976550D01*
X195004000Y-90916756D01*
X195126710Y-90916863D01*
X195346175Y-90826182D01*
X195514232Y-90658418D01*
X195605296Y-90439112D01*
X195605503Y-90201650D01*
X195514822Y-89982185D01*
X195347058Y-89814128D01*
X195127752Y-89723064D01*
X195004000Y-89722956D01*
X195004000Y-88243186D01*
X205183608Y-88243186D01*
X205299372Y-88523354D01*
X205513538Y-88737895D01*
X205793504Y-88854147D01*
X206096646Y-88854412D01*
X206376814Y-88738648D01*
X206591355Y-88524482D01*
X206707607Y-88244516D01*
X206707872Y-87941374D01*
X206592108Y-87661206D01*
X206377942Y-87446665D01*
X206193071Y-87369900D01*
X206237695Y-87351462D01*
X206405752Y-87183698D01*
X206496816Y-86964392D01*
X206496875Y-86895574D01*
X214977316Y-86895574D01*
X215050633Y-87073014D01*
X215186272Y-87208890D01*
X215363584Y-87282516D01*
X215555574Y-87282684D01*
X215733014Y-87209367D01*
X215868890Y-87073728D01*
X215942516Y-86896416D01*
X215942684Y-86704426D01*
X215869367Y-86526986D01*
X215733728Y-86391110D01*
X215556416Y-86317484D01*
X215364426Y-86317316D01*
X215186986Y-86390633D01*
X215051110Y-86526272D01*
X214977484Y-86703584D01*
X214977316Y-86895574D01*
X206496875Y-86895574D01*
X206497023Y-86726930D01*
X206406342Y-86507465D01*
X206306142Y-86407090D01*
X208084317Y-86407090D01*
X208174998Y-86626555D01*
X208342762Y-86794612D01*
X208562068Y-86885676D01*
X208799530Y-86885883D01*
X209018995Y-86795202D01*
X209187052Y-86627438D01*
X209278116Y-86408132D01*
X209278323Y-86170670D01*
X209187642Y-85951205D01*
X209019878Y-85783148D01*
X208800572Y-85692084D01*
X208563110Y-85691877D01*
X208343645Y-85782558D01*
X208175588Y-85950322D01*
X208084524Y-86169628D01*
X208084317Y-86407090D01*
X206306142Y-86407090D01*
X206238578Y-86339408D01*
X206019272Y-86248344D01*
X205781810Y-86248137D01*
X205562345Y-86338818D01*
X205394288Y-86506582D01*
X205303224Y-86725888D01*
X205303017Y-86963350D01*
X205393698Y-87182815D01*
X205561462Y-87350872D01*
X205652844Y-87388817D01*
X205514666Y-87445912D01*
X205300125Y-87660078D01*
X205183873Y-87940044D01*
X205183608Y-88243186D01*
X195004000Y-88243186D01*
X195004000Y-86118210D01*
X203202997Y-86118210D01*
X203293678Y-86337675D01*
X203461442Y-86505732D01*
X203680748Y-86596796D01*
X203918210Y-86597003D01*
X204137675Y-86506322D01*
X204305732Y-86338558D01*
X204396796Y-86119252D01*
X204397003Y-85881790D01*
X204306322Y-85662325D01*
X204138558Y-85494268D01*
X203919252Y-85403204D01*
X203681790Y-85402997D01*
X203462325Y-85493678D01*
X203294268Y-85661442D01*
X203203204Y-85880748D01*
X203202997Y-86118210D01*
X195004000Y-86118210D01*
X195004000Y-84931559D01*
X195056333Y-85058214D01*
X195191972Y-85194090D01*
X195369284Y-85267716D01*
X195561274Y-85267884D01*
X195738714Y-85194567D01*
X195874590Y-85058928D01*
X195948216Y-84881616D01*
X195948216Y-84880774D01*
X198462816Y-84880774D01*
X198536133Y-85058214D01*
X198671772Y-85194090D01*
X198849084Y-85267716D01*
X199041074Y-85267884D01*
X199218514Y-85194567D01*
X199354390Y-85058928D01*
X199428016Y-84881616D01*
X199428027Y-84868074D01*
X202526816Y-84868074D01*
X202600133Y-85045514D01*
X202735772Y-85181390D01*
X202913084Y-85255016D01*
X203105074Y-85255184D01*
X203273542Y-85185574D01*
X206794016Y-85185574D01*
X206867333Y-85363014D01*
X207002972Y-85498890D01*
X207180284Y-85572516D01*
X207372274Y-85572684D01*
X207549714Y-85499367D01*
X207685590Y-85363728D01*
X207759216Y-85186416D01*
X207759384Y-84994426D01*
X207686067Y-84816986D01*
X207550428Y-84681110D01*
X207373116Y-84607484D01*
X207181126Y-84607316D01*
X207003686Y-84680633D01*
X206867810Y-84816272D01*
X206794184Y-84993584D01*
X206794016Y-85185574D01*
X203273542Y-85185574D01*
X203282514Y-85181867D01*
X203418390Y-85046228D01*
X203492016Y-84868916D01*
X203492184Y-84676926D01*
X203418867Y-84499486D01*
X203283228Y-84363610D01*
X203105916Y-84289984D01*
X202913926Y-84289816D01*
X202736486Y-84363133D01*
X202600610Y-84498772D01*
X202526984Y-84676084D01*
X202526816Y-84868074D01*
X199428027Y-84868074D01*
X199428184Y-84689626D01*
X199354867Y-84512186D01*
X199219228Y-84376310D01*
X199041916Y-84302684D01*
X198849926Y-84302516D01*
X198672486Y-84375833D01*
X198536610Y-84511472D01*
X198462984Y-84688784D01*
X198462816Y-84880774D01*
X195948216Y-84880774D01*
X195948384Y-84689626D01*
X195875067Y-84512186D01*
X195739428Y-84376310D01*
X195562116Y-84302684D01*
X195370126Y-84302516D01*
X195192686Y-84375833D01*
X195056810Y-84511472D01*
X195004000Y-84638653D01*
X195004000Y-84472299D01*
X195051384Y-84401384D01*
X195188390Y-84309839D01*
X195357506Y-84276200D01*
X212450000Y-84276200D01*
X212464866Y-84274736D01*
X212656208Y-84236676D01*
X212683677Y-84225298D01*
X212845888Y-84116911D01*
X212866911Y-84095888D01*
X212975298Y-83933677D01*
X212986676Y-83906208D01*
X213024736Y-83714866D01*
X213026200Y-83700000D01*
X213026200Y-81895574D01*
X214977316Y-81895574D01*
X215050633Y-82073014D01*
X215186272Y-82208890D01*
X215363584Y-82282516D01*
X215555574Y-82282684D01*
X215733014Y-82209367D01*
X215868890Y-82073728D01*
X215942516Y-81896416D01*
X215942684Y-81704426D01*
X215869367Y-81526986D01*
X215733728Y-81391110D01*
X215556416Y-81317484D01*
X215364426Y-81317316D01*
X215186986Y-81390633D01*
X215051110Y-81526272D01*
X214977484Y-81703584D01*
X214977316Y-81895574D01*
X213026200Y-81895574D01*
X213026200Y-80907506D01*
X213059839Y-80738390D01*
X213151384Y-80601384D01*
X213288390Y-80509839D01*
X213457506Y-80476200D01*
X217442494Y-80476200D01*
X217611610Y-80509839D01*
G36*
X183806968Y-81418206D02*
X183922732Y-81698374D01*
X184136898Y-81912915D01*
X184416864Y-82029167D01*
X184720006Y-82029432D01*
X185000174Y-81913668D01*
X185214715Y-81699502D01*
X185330967Y-81419536D01*
X185331092Y-81276200D01*
X187173778Y-81276200D01*
X187274364Y-81317967D01*
X187577506Y-81318232D01*
X187679230Y-81276200D01*
X189115169Y-81276200D01*
X189150833Y-81362514D01*
X189286472Y-81498390D01*
X189463784Y-81572016D01*
X189655774Y-81572184D01*
X189833214Y-81498867D01*
X189969090Y-81363228D01*
X190005227Y-81276200D01*
X191443639Y-81276200D01*
X191476272Y-81308890D01*
X191653584Y-81382516D01*
X191845574Y-81382684D01*
X192023014Y-81309367D01*
X192056239Y-81276200D01*
X193918436Y-81276200D01*
X194673800Y-82031564D01*
X194673800Y-89812309D01*
X194670825Y-89813538D01*
X194502768Y-89981302D01*
X194411704Y-90200608D01*
X194411497Y-90438070D01*
X194502178Y-90657535D01*
X194669942Y-90825592D01*
X194673800Y-90827194D01*
X194673800Y-91074241D01*
X186148220Y-91074241D01*
X185834539Y-90760560D01*
X185677972Y-90655946D01*
X185493289Y-90619210D01*
X185150421Y-90619210D01*
X185054426Y-90619126D01*
X184876986Y-90692443D01*
X184741110Y-90828082D01*
X184667484Y-91005394D01*
X184667316Y-91197384D01*
X184740633Y-91374824D01*
X184876272Y-91510700D01*
X185053584Y-91584326D01*
X185245574Y-91584494D01*
X185245777Y-91584410D01*
X185293389Y-91584410D01*
X185386402Y-91677423D01*
X185264426Y-91677316D01*
X185130049Y-91732839D01*
X185119367Y-91706986D01*
X184983728Y-91571110D01*
X184806416Y-91497484D01*
X184614426Y-91497316D01*
X184436986Y-91570633D01*
X184301110Y-91706272D01*
X184227484Y-91883584D01*
X184227316Y-92075574D01*
X184300633Y-92253014D01*
X184436272Y-92388890D01*
X184613584Y-92462516D01*
X184805574Y-92462684D01*
X184939951Y-92407161D01*
X184950633Y-92433014D01*
X185086272Y-92568890D01*
X185263584Y-92642516D01*
X185455574Y-92642684D01*
X185633014Y-92569367D01*
X185768890Y-92433728D01*
X185842516Y-92256416D01*
X185842684Y-92064426D01*
X185821976Y-92014309D01*
X185948320Y-92039441D01*
X194673800Y-92039441D01*
X194673800Y-94721000D01*
X188401014Y-94721000D01*
X188484811Y-94637349D01*
X188558437Y-94460037D01*
X188558605Y-94268047D01*
X188485288Y-94090607D01*
X188349649Y-93954731D01*
X188172337Y-93881105D01*
X187980347Y-93880937D01*
X187802907Y-93954254D01*
X187667031Y-94089893D01*
X187593405Y-94267205D01*
X187593237Y-94459195D01*
X187666554Y-94636635D01*
X187750772Y-94721000D01*
X181076200Y-94721000D01*
X181076200Y-92861230D01*
X188310417Y-92861230D01*
X188401098Y-93080695D01*
X188568862Y-93248752D01*
X188788168Y-93339816D01*
X189025630Y-93340023D01*
X189063572Y-93324346D01*
X188935410Y-93452284D01*
X188861784Y-93629596D01*
X188861616Y-93821586D01*
X188934933Y-93999026D01*
X189070572Y-94134902D01*
X189247884Y-94208528D01*
X189439874Y-94208696D01*
X189617314Y-94135379D01*
X189753190Y-93999740D01*
X189826816Y-93822428D01*
X189826984Y-93630438D01*
X189753667Y-93452998D01*
X189618028Y-93317122D01*
X189440716Y-93243496D01*
X189251117Y-93243330D01*
X189413152Y-93081578D01*
X189504216Y-92862272D01*
X189504423Y-92624810D01*
X189413742Y-92405345D01*
X189245978Y-92237288D01*
X189026672Y-92146224D01*
X188789210Y-92146017D01*
X188569745Y-92236698D01*
X188401688Y-92404462D01*
X188310624Y-92623768D01*
X188310417Y-92861230D01*
X181076200Y-92861230D01*
X181076200Y-91081957D01*
X182071029Y-91081957D01*
X182144346Y-91259397D01*
X182279985Y-91395273D01*
X182457297Y-91468899D01*
X182649287Y-91469067D01*
X182826727Y-91395750D01*
X182962603Y-91260111D01*
X183036229Y-91082799D01*
X183036397Y-90890809D01*
X182963080Y-90713369D01*
X182827441Y-90577493D01*
X182650129Y-90503867D01*
X182458139Y-90503699D01*
X182280699Y-90577016D01*
X182144823Y-90712655D01*
X182071197Y-90889967D01*
X182071029Y-91081957D01*
X181076200Y-91081957D01*
X181076200Y-90359330D01*
X190522757Y-90359330D01*
X190613438Y-90578795D01*
X190781202Y-90746852D01*
X191000508Y-90837916D01*
X191237970Y-90838123D01*
X191457435Y-90747442D01*
X191625492Y-90579678D01*
X191716556Y-90360372D01*
X191716763Y-90122910D01*
X191626082Y-89903445D01*
X191458318Y-89735388D01*
X191239012Y-89644324D01*
X191001550Y-89644117D01*
X190782085Y-89734798D01*
X190614028Y-89902562D01*
X190522964Y-90121868D01*
X190522757Y-90359330D01*
X181076200Y-90359330D01*
X181076200Y-88595574D01*
X184117316Y-88595574D01*
X184190633Y-88773014D01*
X184326272Y-88908890D01*
X184503584Y-88982516D01*
X184695574Y-88982684D01*
X184873014Y-88909367D01*
X185008890Y-88773728D01*
X185082516Y-88596416D01*
X185082604Y-88495574D01*
X187667316Y-88495574D01*
X187740633Y-88673014D01*
X187876272Y-88808890D01*
X188053584Y-88882516D01*
X188245574Y-88882684D01*
X188423014Y-88809367D01*
X188558890Y-88673728D01*
X188632516Y-88496416D01*
X188632560Y-88445574D01*
X189217316Y-88445574D01*
X189290633Y-88623014D01*
X189426272Y-88758890D01*
X189603584Y-88832516D01*
X189795574Y-88832684D01*
X189973014Y-88759367D01*
X190009682Y-88722763D01*
X190153584Y-88782516D01*
X190345574Y-88782684D01*
X190523014Y-88709367D01*
X190658890Y-88573728D01*
X190732516Y-88396416D01*
X190732684Y-88204426D01*
X190687708Y-88095574D01*
X191317316Y-88095574D01*
X191390633Y-88273014D01*
X191526272Y-88408890D01*
X191703584Y-88482516D01*
X191895574Y-88482684D01*
X192073014Y-88409367D01*
X192208890Y-88273728D01*
X192282516Y-88096416D01*
X192282684Y-87904426D01*
X192209367Y-87726986D01*
X192073728Y-87591110D01*
X191896416Y-87517484D01*
X191704426Y-87517316D01*
X191526986Y-87590633D01*
X191391110Y-87726272D01*
X191317484Y-87903584D01*
X191317316Y-88095574D01*
X190687708Y-88095574D01*
X190659367Y-88026986D01*
X190523728Y-87891110D01*
X190346416Y-87817484D01*
X190154426Y-87817316D01*
X189976986Y-87890633D01*
X189940318Y-87927237D01*
X189796416Y-87867484D01*
X189604426Y-87867316D01*
X189426986Y-87940633D01*
X189291110Y-88076272D01*
X189217484Y-88253584D01*
X189217316Y-88445574D01*
X188632560Y-88445574D01*
X188632684Y-88304426D01*
X188559367Y-88126986D01*
X188423728Y-87991110D01*
X188246416Y-87917484D01*
X188054426Y-87917316D01*
X187876986Y-87990633D01*
X187741110Y-88126272D01*
X187667484Y-88303584D01*
X187667316Y-88495574D01*
X185082604Y-88495574D01*
X185082684Y-88404426D01*
X185009367Y-88226986D01*
X184873728Y-88091110D01*
X184696416Y-88017484D01*
X184504426Y-88017316D01*
X184326986Y-88090633D01*
X184191110Y-88226272D01*
X184117484Y-88403584D01*
X184117316Y-88595574D01*
X181076200Y-88595574D01*
X181076200Y-86345574D01*
X184067316Y-86345574D01*
X184140633Y-86523014D01*
X184276272Y-86658890D01*
X184453584Y-86732516D01*
X184645574Y-86732684D01*
X184823014Y-86659367D01*
X184958890Y-86523728D01*
X185032516Y-86346416D01*
X185032684Y-86154426D01*
X184959367Y-85976986D01*
X184823728Y-85841110D01*
X184646416Y-85767484D01*
X184454426Y-85767316D01*
X184276986Y-85840633D01*
X184141110Y-85976272D01*
X184067484Y-86153584D01*
X184067316Y-86345574D01*
X181076200Y-86345574D01*
X181076200Y-83725574D01*
X184617316Y-83725574D01*
X184690633Y-83903014D01*
X184826272Y-84038890D01*
X185003584Y-84112516D01*
X185195574Y-84112684D01*
X185373014Y-84039367D01*
X185508890Y-83903728D01*
X185582516Y-83726416D01*
X185582684Y-83534426D01*
X185566631Y-83495574D01*
X186077316Y-83495574D01*
X186150633Y-83673014D01*
X186286272Y-83808890D01*
X186463584Y-83882516D01*
X186655574Y-83882684D01*
X186833014Y-83809367D01*
X186968890Y-83673728D01*
X187042516Y-83496416D01*
X187042671Y-83318450D01*
X189346737Y-83318450D01*
X189437418Y-83537915D01*
X189605182Y-83705972D01*
X189824488Y-83797036D01*
X190061950Y-83797243D01*
X190281415Y-83706562D01*
X190449472Y-83538798D01*
X190540536Y-83319492D01*
X190540743Y-83082030D01*
X190450062Y-82862565D01*
X190282298Y-82694508D01*
X190062992Y-82603444D01*
X189825530Y-82603237D01*
X189606065Y-82693918D01*
X189438008Y-82861682D01*
X189346944Y-83080988D01*
X189346737Y-83318450D01*
X187042671Y-83318450D01*
X187042684Y-83304426D01*
X186969367Y-83126986D01*
X186833728Y-82991110D01*
X186656416Y-82917484D01*
X186464426Y-82917316D01*
X186286986Y-82990633D01*
X186151110Y-83126272D01*
X186077484Y-83303584D01*
X186077316Y-83495574D01*
X185566631Y-83495574D01*
X185509367Y-83356986D01*
X185373728Y-83221110D01*
X185196416Y-83147484D01*
X185004426Y-83147316D01*
X184826986Y-83220633D01*
X184691110Y-83356272D01*
X184617484Y-83533584D01*
X184617316Y-83725574D01*
X181076200Y-83725574D01*
X181076200Y-81381564D01*
X181181564Y-81276200D01*
X183807092Y-81276200D01*
X183806968Y-81418206D01*
X183806968Y-81418206D01*
G37*
X183806968Y-81418206D02*
X183922732Y-81698374D01*
X184136898Y-81912915D01*
X184416864Y-82029167D01*
X184720006Y-82029432D01*
X185000174Y-81913668D01*
X185214715Y-81699502D01*
X185330967Y-81419536D01*
X185331092Y-81276200D01*
X187173778Y-81276200D01*
X187274364Y-81317967D01*
X187577506Y-81318232D01*
X187679230Y-81276200D01*
X189115169Y-81276200D01*
X189150833Y-81362514D01*
X189286472Y-81498390D01*
X189463784Y-81572016D01*
X189655774Y-81572184D01*
X189833214Y-81498867D01*
X189969090Y-81363228D01*
X190005227Y-81276200D01*
X191443639Y-81276200D01*
X191476272Y-81308890D01*
X191653584Y-81382516D01*
X191845574Y-81382684D01*
X192023014Y-81309367D01*
X192056239Y-81276200D01*
X193918436Y-81276200D01*
X194673800Y-82031564D01*
X194673800Y-89812309D01*
X194670825Y-89813538D01*
X194502768Y-89981302D01*
X194411704Y-90200608D01*
X194411497Y-90438070D01*
X194502178Y-90657535D01*
X194669942Y-90825592D01*
X194673800Y-90827194D01*
X194673800Y-91074241D01*
X186148220Y-91074241D01*
X185834539Y-90760560D01*
X185677972Y-90655946D01*
X185493289Y-90619210D01*
X185150421Y-90619210D01*
X185054426Y-90619126D01*
X184876986Y-90692443D01*
X184741110Y-90828082D01*
X184667484Y-91005394D01*
X184667316Y-91197384D01*
X184740633Y-91374824D01*
X184876272Y-91510700D01*
X185053584Y-91584326D01*
X185245574Y-91584494D01*
X185245777Y-91584410D01*
X185293389Y-91584410D01*
X185386402Y-91677423D01*
X185264426Y-91677316D01*
X185130049Y-91732839D01*
X185119367Y-91706986D01*
X184983728Y-91571110D01*
X184806416Y-91497484D01*
X184614426Y-91497316D01*
X184436986Y-91570633D01*
X184301110Y-91706272D01*
X184227484Y-91883584D01*
X184227316Y-92075574D01*
X184300633Y-92253014D01*
X184436272Y-92388890D01*
X184613584Y-92462516D01*
X184805574Y-92462684D01*
X184939951Y-92407161D01*
X184950633Y-92433014D01*
X185086272Y-92568890D01*
X185263584Y-92642516D01*
X185455574Y-92642684D01*
X185633014Y-92569367D01*
X185768890Y-92433728D01*
X185842516Y-92256416D01*
X185842684Y-92064426D01*
X185821976Y-92014309D01*
X185948320Y-92039441D01*
X194673800Y-92039441D01*
X194673800Y-94721000D01*
X188401014Y-94721000D01*
X188484811Y-94637349D01*
X188558437Y-94460037D01*
X188558605Y-94268047D01*
X188485288Y-94090607D01*
X188349649Y-93954731D01*
X188172337Y-93881105D01*
X187980347Y-93880937D01*
X187802907Y-93954254D01*
X187667031Y-94089893D01*
X187593405Y-94267205D01*
X187593237Y-94459195D01*
X187666554Y-94636635D01*
X187750772Y-94721000D01*
X181076200Y-94721000D01*
X181076200Y-92861230D01*
X188310417Y-92861230D01*
X188401098Y-93080695D01*
X188568862Y-93248752D01*
X188788168Y-93339816D01*
X189025630Y-93340023D01*
X189063572Y-93324346D01*
X188935410Y-93452284D01*
X188861784Y-93629596D01*
X188861616Y-93821586D01*
X188934933Y-93999026D01*
X189070572Y-94134902D01*
X189247884Y-94208528D01*
X189439874Y-94208696D01*
X189617314Y-94135379D01*
X189753190Y-93999740D01*
X189826816Y-93822428D01*
X189826984Y-93630438D01*
X189753667Y-93452998D01*
X189618028Y-93317122D01*
X189440716Y-93243496D01*
X189251117Y-93243330D01*
X189413152Y-93081578D01*
X189504216Y-92862272D01*
X189504423Y-92624810D01*
X189413742Y-92405345D01*
X189245978Y-92237288D01*
X189026672Y-92146224D01*
X188789210Y-92146017D01*
X188569745Y-92236698D01*
X188401688Y-92404462D01*
X188310624Y-92623768D01*
X188310417Y-92861230D01*
X181076200Y-92861230D01*
X181076200Y-91081957D01*
X182071029Y-91081957D01*
X182144346Y-91259397D01*
X182279985Y-91395273D01*
X182457297Y-91468899D01*
X182649287Y-91469067D01*
X182826727Y-91395750D01*
X182962603Y-91260111D01*
X183036229Y-91082799D01*
X183036397Y-90890809D01*
X182963080Y-90713369D01*
X182827441Y-90577493D01*
X182650129Y-90503867D01*
X182458139Y-90503699D01*
X182280699Y-90577016D01*
X182144823Y-90712655D01*
X182071197Y-90889967D01*
X182071029Y-91081957D01*
X181076200Y-91081957D01*
X181076200Y-90359330D01*
X190522757Y-90359330D01*
X190613438Y-90578795D01*
X190781202Y-90746852D01*
X191000508Y-90837916D01*
X191237970Y-90838123D01*
X191457435Y-90747442D01*
X191625492Y-90579678D01*
X191716556Y-90360372D01*
X191716763Y-90122910D01*
X191626082Y-89903445D01*
X191458318Y-89735388D01*
X191239012Y-89644324D01*
X191001550Y-89644117D01*
X190782085Y-89734798D01*
X190614028Y-89902562D01*
X190522964Y-90121868D01*
X190522757Y-90359330D01*
X181076200Y-90359330D01*
X181076200Y-88595574D01*
X184117316Y-88595574D01*
X184190633Y-88773014D01*
X184326272Y-88908890D01*
X184503584Y-88982516D01*
X184695574Y-88982684D01*
X184873014Y-88909367D01*
X185008890Y-88773728D01*
X185082516Y-88596416D01*
X185082604Y-88495574D01*
X187667316Y-88495574D01*
X187740633Y-88673014D01*
X187876272Y-88808890D01*
X188053584Y-88882516D01*
X188245574Y-88882684D01*
X188423014Y-88809367D01*
X188558890Y-88673728D01*
X188632516Y-88496416D01*
X188632560Y-88445574D01*
X189217316Y-88445574D01*
X189290633Y-88623014D01*
X189426272Y-88758890D01*
X189603584Y-88832516D01*
X189795574Y-88832684D01*
X189973014Y-88759367D01*
X190009682Y-88722763D01*
X190153584Y-88782516D01*
X190345574Y-88782684D01*
X190523014Y-88709367D01*
X190658890Y-88573728D01*
X190732516Y-88396416D01*
X190732684Y-88204426D01*
X190687708Y-88095574D01*
X191317316Y-88095574D01*
X191390633Y-88273014D01*
X191526272Y-88408890D01*
X191703584Y-88482516D01*
X191895574Y-88482684D01*
X192073014Y-88409367D01*
X192208890Y-88273728D01*
X192282516Y-88096416D01*
X192282684Y-87904426D01*
X192209367Y-87726986D01*
X192073728Y-87591110D01*
X191896416Y-87517484D01*
X191704426Y-87517316D01*
X191526986Y-87590633D01*
X191391110Y-87726272D01*
X191317484Y-87903584D01*
X191317316Y-88095574D01*
X190687708Y-88095574D01*
X190659367Y-88026986D01*
X190523728Y-87891110D01*
X190346416Y-87817484D01*
X190154426Y-87817316D01*
X189976986Y-87890633D01*
X189940318Y-87927237D01*
X189796416Y-87867484D01*
X189604426Y-87867316D01*
X189426986Y-87940633D01*
X189291110Y-88076272D01*
X189217484Y-88253584D01*
X189217316Y-88445574D01*
X188632560Y-88445574D01*
X188632684Y-88304426D01*
X188559367Y-88126986D01*
X188423728Y-87991110D01*
X188246416Y-87917484D01*
X188054426Y-87917316D01*
X187876986Y-87990633D01*
X187741110Y-88126272D01*
X187667484Y-88303584D01*
X187667316Y-88495574D01*
X185082604Y-88495574D01*
X185082684Y-88404426D01*
X185009367Y-88226986D01*
X184873728Y-88091110D01*
X184696416Y-88017484D01*
X184504426Y-88017316D01*
X184326986Y-88090633D01*
X184191110Y-88226272D01*
X184117484Y-88403584D01*
X184117316Y-88595574D01*
X181076200Y-88595574D01*
X181076200Y-86345574D01*
X184067316Y-86345574D01*
X184140633Y-86523014D01*
X184276272Y-86658890D01*
X184453584Y-86732516D01*
X184645574Y-86732684D01*
X184823014Y-86659367D01*
X184958890Y-86523728D01*
X185032516Y-86346416D01*
X185032684Y-86154426D01*
X184959367Y-85976986D01*
X184823728Y-85841110D01*
X184646416Y-85767484D01*
X184454426Y-85767316D01*
X184276986Y-85840633D01*
X184141110Y-85976272D01*
X184067484Y-86153584D01*
X184067316Y-86345574D01*
X181076200Y-86345574D01*
X181076200Y-83725574D01*
X184617316Y-83725574D01*
X184690633Y-83903014D01*
X184826272Y-84038890D01*
X185003584Y-84112516D01*
X185195574Y-84112684D01*
X185373014Y-84039367D01*
X185508890Y-83903728D01*
X185582516Y-83726416D01*
X185582684Y-83534426D01*
X185566631Y-83495574D01*
X186077316Y-83495574D01*
X186150633Y-83673014D01*
X186286272Y-83808890D01*
X186463584Y-83882516D01*
X186655574Y-83882684D01*
X186833014Y-83809367D01*
X186968890Y-83673728D01*
X187042516Y-83496416D01*
X187042671Y-83318450D01*
X189346737Y-83318450D01*
X189437418Y-83537915D01*
X189605182Y-83705972D01*
X189824488Y-83797036D01*
X190061950Y-83797243D01*
X190281415Y-83706562D01*
X190449472Y-83538798D01*
X190540536Y-83319492D01*
X190540743Y-83082030D01*
X190450062Y-82862565D01*
X190282298Y-82694508D01*
X190062992Y-82603444D01*
X189825530Y-82603237D01*
X189606065Y-82693918D01*
X189438008Y-82861682D01*
X189346944Y-83080988D01*
X189346737Y-83318450D01*
X187042671Y-83318450D01*
X187042684Y-83304426D01*
X186969367Y-83126986D01*
X186833728Y-82991110D01*
X186656416Y-82917484D01*
X186464426Y-82917316D01*
X186286986Y-82990633D01*
X186151110Y-83126272D01*
X186077484Y-83303584D01*
X186077316Y-83495574D01*
X185566631Y-83495574D01*
X185509367Y-83356986D01*
X185373728Y-83221110D01*
X185196416Y-83147484D01*
X185004426Y-83147316D01*
X184826986Y-83220633D01*
X184691110Y-83356272D01*
X184617484Y-83533584D01*
X184617316Y-83725574D01*
X181076200Y-83725574D01*
X181076200Y-81381564D01*
X181181564Y-81276200D01*
X183807092Y-81276200D01*
X183806968Y-81418206D01*
M02*
