G04 #@! TF.FileFunction,Copper,L4,Bot,Signal*
%FSLAX46Y46*%
G04 Gerber Fmt 4.6, Leading zero omitted, Abs format (unit mm)*
G04 Created by KiCad (PCBNEW 4.0.5) date Sun Mar 19 22:32:23 2017*
%MOMM*%
%LPD*%
G01*
G04 APERTURE LIST*
%ADD10C,0.150000*%
%ADD11R,0.500000X0.600000*%
%ADD12C,1.249680*%
%ADD13C,1.600200*%
%ADD14R,0.600000X0.900000*%
%ADD15R,0.600000X0.500000*%
%ADD16C,1.016000*%
%ADD17R,1.016000X1.016000*%
%ADD18C,0.400000*%
%ADD19R,4.200000X1.100000*%
%ADD20R,0.700000X1.300000*%
%ADD21C,0.457200*%
%ADD22C,0.685800*%
%ADD23C,0.203200*%
%ADD24C,0.457200*%
%ADD25C,0.711200*%
%ADD26C,0.330200*%
%ADD27C,0.381000*%
%ADD28C,0.355600*%
%ADD29C,0.304800*%
%ADD30C,0.254000*%
%ADD31C,0.152400*%
%ADD32C,0.177800*%
%ADD33C,0.558800*%
G04 APERTURE END LIST*
D10*
D11*
X206090900Y-78850000D03*
X207090900Y-78850000D03*
D12*
X156390340Y-82971640D03*
D13*
X153690320Y-83972400D03*
X153690320Y-76972160D03*
D12*
X156390340Y-77972920D03*
D11*
X206090900Y-78259940D03*
X207090900Y-78259940D03*
D14*
X167040000Y-74480000D03*
X168540000Y-74480000D03*
D15*
X201350880Y-91802840D03*
X201350880Y-90802840D03*
D16*
X172110400Y-74523600D03*
D17*
X170840400Y-74523600D03*
D16*
X164781000Y-91694800D03*
X163511000Y-91694800D03*
X160971000Y-91694800D03*
X162241000Y-91694800D03*
X159701000Y-91694800D03*
D17*
X158431000Y-91694800D03*
D16*
X191582040Y-78127860D03*
X192857120Y-79496920D03*
X179740000Y-82700000D03*
X180270000Y-80140000D03*
X205945740Y-88092280D03*
X204769720Y-90172540D03*
X204558900Y-92260420D03*
X205999080Y-93024960D03*
D18*
X208853200Y-89630680D03*
X208853200Y-91430680D03*
X210653200Y-90530680D03*
X209753200Y-89630680D03*
X209753200Y-91430680D03*
X208853200Y-90530680D03*
X210653200Y-89630680D03*
X209753200Y-90530680D03*
X210653200Y-91430680D03*
D16*
X163405000Y-73280000D03*
D17*
X162135000Y-73280000D03*
D16*
X182600000Y-72900000D03*
X193992500Y-73126600D03*
X196786500Y-76212700D03*
X210400000Y-75300000D03*
D11*
X160170000Y-74630000D03*
X161170000Y-74630000D03*
D15*
X196075300Y-79095600D03*
X196075300Y-78095600D03*
X197053200Y-79108300D03*
X197053200Y-78108300D03*
D16*
X194513200Y-78930500D03*
X195173600Y-80086200D03*
D19*
X215460000Y-77780000D03*
X215460000Y-72780000D03*
X215460000Y-86800000D03*
X215460000Y-81800000D03*
X215460000Y-95870000D03*
X215460000Y-90870000D03*
D14*
X184200000Y-79950000D03*
X182700000Y-79950000D03*
X182700000Y-92550000D03*
X184200000Y-92550000D03*
D16*
X188620400Y-80200500D03*
X187426600Y-80556100D03*
X184569100Y-81267300D03*
D20*
X168880000Y-89760000D03*
X166980000Y-89760000D03*
X163650000Y-76230000D03*
X161750000Y-76230000D03*
D11*
X167290000Y-87170000D03*
X166290000Y-87170000D03*
D21*
X185150000Y-91101810D03*
D22*
X208950000Y-79150000D03*
D21*
X182553713Y-90986383D03*
X186250000Y-80450000D03*
X186150000Y-79850000D03*
X198950000Y-79900000D03*
D22*
X207100000Y-86800000D03*
D21*
X211850000Y-92200000D03*
X208070000Y-88540000D03*
X212450000Y-91100000D03*
D22*
X203489560Y-87370920D03*
X201335640Y-92374720D03*
D21*
X185100000Y-83630000D03*
X186560000Y-83400000D03*
X178470000Y-72840000D03*
X169400000Y-75030000D03*
X173610000Y-86810000D03*
X168080000Y-84180000D03*
X171970000Y-79080000D03*
X172970000Y-78570000D03*
X188075921Y-94363621D03*
X189344300Y-93726012D03*
X173050000Y-89480000D03*
X169916245Y-91918719D03*
X177930000Y-89180000D03*
X163210000Y-89010000D03*
X177830000Y-88400000D03*
X163320000Y-86830000D03*
X158260000Y-85310000D03*
X164641614Y-89360955D03*
X161230000Y-90660000D03*
X163420000Y-74470000D03*
X189560200Y-81089500D03*
X185089800Y-72948800D03*
X185318400Y-75882500D03*
X209900000Y-73600000D03*
X197500000Y-73000000D03*
X202500000Y-73300000D03*
X198700000Y-81950000D03*
X202300000Y-82600000D03*
X206400000Y-82500000D03*
X184550000Y-86250000D03*
X184600000Y-88500000D03*
X206850000Y-80750010D03*
X191800000Y-88000000D03*
X199500000Y-74300000D03*
X197900000Y-78300000D03*
X211750000Y-81450000D03*
X212250000Y-74400000D03*
X206850000Y-76600000D03*
X206485298Y-78800000D03*
X205950000Y-75700000D03*
X191750000Y-80900000D03*
X191050000Y-79800000D03*
X188150000Y-88400000D03*
D22*
X210822540Y-79369920D03*
X215460000Y-72780000D03*
X215460000Y-77780000D03*
X189943740Y-83200240D03*
X196550000Y-83000000D03*
D21*
X190250000Y-88300000D03*
X189700000Y-88350000D03*
X155140000Y-94440000D03*
X153070000Y-94270000D03*
X166730000Y-72770000D03*
X155384500Y-88798400D03*
X154266900Y-88023700D03*
X204650000Y-79600000D03*
X197777100Y-76657200D03*
X204520800Y-75857100D03*
X198711820Y-90263980D03*
X199194420Y-91600020D03*
X170800002Y-90800000D03*
X168331750Y-91318250D03*
X171330000Y-91230000D03*
X169576617Y-91443383D03*
D22*
X207124300Y-92961460D03*
X188907420Y-92743020D03*
D21*
X162460000Y-86790000D03*
X169410000Y-87920000D03*
X185360000Y-92160000D03*
X184710000Y-91980000D03*
X210261200Y-93433900D03*
X195465700Y-84785200D03*
X198945500Y-84785200D03*
X203009500Y-84772500D03*
X207276700Y-85090000D03*
X215460000Y-81800000D03*
X215460000Y-86800000D03*
X201602340Y-90142060D03*
X203716984Y-91004337D03*
D22*
X215460000Y-95870000D03*
X215460000Y-90870000D03*
X195008500Y-90319860D03*
X197899020Y-90858340D03*
X208681320Y-86288880D03*
X205900020Y-86845140D03*
X203800000Y-86000000D03*
D21*
X170300000Y-87850000D03*
X167610000Y-86890000D03*
X168190000Y-77270000D03*
X169890000Y-80510000D03*
X176910000Y-87960000D03*
X160580000Y-84800000D03*
X161700000Y-75130000D03*
X152895300Y-74726800D03*
X181550000Y-91000000D03*
X182550000Y-86450000D03*
X182400000Y-91550000D03*
X181800000Y-91750000D03*
X181200000Y-90000000D03*
X181250000Y-87400000D03*
X174150000Y-83950000D03*
D22*
X176227740Y-82090260D03*
X174850000Y-73600000D03*
X173500000Y-75050000D03*
D21*
X155969409Y-91450591D03*
X155300000Y-93420000D03*
X153530300Y-85813900D03*
D22*
X178700000Y-76520000D03*
X182740000Y-76620000D03*
X180120000Y-76320000D03*
X182560000Y-75040000D03*
D21*
X153392730Y-93677270D03*
X169560000Y-86380000D03*
X178760000Y-87850000D03*
X168860000Y-89380000D03*
X166500000Y-92620000D03*
X167130000Y-92690000D03*
X167700000Y-92650000D03*
X167551973Y-77255455D03*
X160630000Y-85470000D03*
X169980000Y-79810000D03*
X167850000Y-75550000D03*
X166470000Y-74580000D03*
X161044398Y-75970000D03*
X157740000Y-89240000D03*
X153953000Y-92233100D03*
D22*
X191119760Y-90241120D03*
X178020000Y-93680000D03*
D21*
X162315589Y-75138453D03*
X155510002Y-81100000D03*
X158375290Y-82981910D03*
X166170000Y-86819998D03*
D23*
X208465067Y-79150000D02*
X208950000Y-79150000D01*
X207173240Y-79150000D02*
X208465067Y-79150000D01*
X207090900Y-79067660D02*
X207173240Y-79150000D01*
D24*
X182200000Y-86964618D02*
X182200000Y-90632670D01*
X182200000Y-90632670D02*
X182553713Y-90986383D01*
X179740000Y-82700000D02*
X179740000Y-84504618D01*
X179740000Y-84504618D02*
X182200000Y-86964618D01*
D25*
X186150000Y-79850000D02*
X186150000Y-80350000D01*
X186150000Y-80350000D02*
X186250000Y-80450000D01*
D24*
X203489560Y-87370920D02*
X204760480Y-86100000D01*
X206400000Y-86100000D02*
X207100000Y-86800000D01*
X204760480Y-86100000D02*
X206400000Y-86100000D01*
D26*
X212450000Y-91600000D02*
X212450000Y-91100000D01*
X211850000Y-92200000D02*
X212450000Y-91600000D01*
D27*
X211290000Y-88540000D02*
X208070000Y-88540000D01*
X212140000Y-89390000D02*
X211290000Y-88540000D01*
X212140000Y-90790000D02*
X212140000Y-89390000D01*
X212450000Y-91100000D02*
X212140000Y-90790000D01*
D28*
X207090900Y-79067660D02*
X207090900Y-78259940D01*
D29*
X201350880Y-91802840D02*
X201823700Y-91802840D01*
X201823700Y-91802840D02*
X202300840Y-91325700D01*
X202300840Y-91325700D02*
X202300840Y-88559640D01*
X202300840Y-88559640D02*
X203489560Y-87370920D01*
D23*
X201350880Y-91802840D02*
X201350880Y-92359480D01*
X201350880Y-92359480D02*
X201335640Y-92374720D01*
D30*
X196075300Y-79095600D02*
X194678300Y-79095600D01*
X194678300Y-79095600D02*
X194513200Y-78930500D01*
D23*
X186560000Y-83400000D02*
X185330000Y-83400000D01*
X185330000Y-83400000D02*
X185100000Y-83630000D01*
D30*
X169400000Y-75030000D02*
X169400000Y-74490798D01*
X169400000Y-74490798D02*
X171050798Y-72840000D01*
X171050798Y-72840000D02*
X178470000Y-72840000D01*
D23*
X170290000Y-84180000D02*
X168080000Y-84180000D01*
X173610000Y-86810000D02*
X173286711Y-86810000D01*
X173286711Y-86810000D02*
X170656711Y-84180000D01*
X170656711Y-84180000D02*
X170290000Y-84180000D01*
X172970000Y-78570000D02*
X172480000Y-78570000D01*
X172480000Y-78570000D02*
X171970000Y-79080000D01*
D30*
X188304520Y-94135022D02*
X188075921Y-94363621D01*
X189344300Y-93726012D02*
X188713530Y-93726012D01*
X188713530Y-93726012D02*
X188304520Y-94135022D01*
D31*
X171348138Y-91918719D02*
X171526857Y-91740000D01*
X172821401Y-89708599D02*
X172821401Y-90445456D01*
X173050000Y-89480000D02*
X172821401Y-89708599D01*
X172821401Y-90445456D02*
X171526857Y-91740000D01*
X169916245Y-91918719D02*
X171348138Y-91918719D01*
D23*
X177701401Y-88951401D02*
X177930000Y-89180000D01*
X177537412Y-88787412D02*
X177701401Y-88951401D01*
X163432588Y-88787412D02*
X177537412Y-88787412D01*
X163210000Y-89010000D02*
X163432588Y-88787412D01*
X164947201Y-88457201D02*
X163548599Y-87058599D01*
X177830000Y-88400000D02*
X177506711Y-88400000D01*
X163548599Y-87058599D02*
X163320000Y-86830000D01*
X177506711Y-88400000D02*
X177449510Y-88457201D01*
X177449510Y-88457201D02*
X164947201Y-88457201D01*
X159701000Y-91694800D02*
X159701000Y-86751000D01*
X159701000Y-86751000D02*
X158260000Y-85310000D01*
X164641614Y-89360955D02*
X163342569Y-90660000D01*
X163342569Y-90660000D02*
X161230000Y-90660000D01*
D29*
X160971000Y-91689720D02*
X160971000Y-91694800D01*
D23*
X163096711Y-74470000D02*
X163420000Y-74470000D01*
X162135000Y-73991200D02*
X162613800Y-74470000D01*
X162135000Y-73280000D02*
X162135000Y-73991200D01*
X162613800Y-74470000D02*
X163096711Y-74470000D01*
D29*
X158431000Y-91694800D02*
X158547688Y-91694800D01*
D30*
X185318400Y-75882500D02*
X185089800Y-75653900D01*
X185089800Y-75653900D02*
X185089800Y-72948800D01*
X202500000Y-73300000D02*
X202200000Y-73000000D01*
X202200000Y-73000000D02*
X197500000Y-73000000D01*
D23*
X202300000Y-82600000D02*
X201650000Y-81950000D01*
X201650000Y-81950000D02*
X198700000Y-81950000D01*
X206850000Y-80750010D02*
X206850000Y-82050000D01*
X206850000Y-82050000D02*
X206400000Y-82500000D01*
D31*
X184600000Y-88500000D02*
X184600000Y-86300000D01*
X184600000Y-86300000D02*
X184550000Y-86250000D01*
D23*
X206621401Y-80521411D02*
X206850000Y-80750010D01*
X206485298Y-78800000D02*
X206485298Y-80385308D01*
X206485298Y-80385308D02*
X206621401Y-80521411D01*
D29*
X206090900Y-78259940D02*
X206090900Y-79067660D01*
X189943740Y-83200240D02*
X189943740Y-83012280D01*
X189943740Y-83012280D02*
X190728600Y-82227420D01*
D31*
X189700000Y-88350000D02*
X190200000Y-88350000D01*
X190200000Y-88350000D02*
X190250000Y-88300000D01*
D26*
X152700000Y-90570000D02*
X152700000Y-93900000D01*
X152700000Y-93900000D02*
X153070000Y-94270000D01*
X154243001Y-89026999D02*
X152700000Y-90570000D01*
X155384500Y-88798400D02*
X155155901Y-89026999D01*
X155155901Y-89026999D02*
X154243001Y-89026999D01*
D23*
X204520800Y-75857100D02*
X204520800Y-79470800D01*
X204520800Y-79470800D02*
X204650000Y-79600000D01*
D30*
X197053200Y-78108300D02*
X197053200Y-77381100D01*
X197053200Y-77381100D02*
X197777100Y-76657200D01*
X196075300Y-78095600D02*
X197040500Y-78095600D01*
X197040500Y-78095600D02*
X197053200Y-78108300D01*
D23*
X204769720Y-90909140D02*
X204769720Y-90172540D01*
X202689462Y-92989398D02*
X204769720Y-90909140D01*
X200606636Y-92989398D02*
X202689462Y-92989398D01*
X199798940Y-92181702D02*
X200606636Y-92989398D01*
X199798940Y-91351100D02*
X199798940Y-92181702D01*
X198711820Y-90263980D02*
X199798940Y-91351100D01*
X204558900Y-92260420D02*
X203474320Y-93345000D01*
X199194420Y-92080080D02*
X199194420Y-91600020D01*
X200459340Y-93345000D02*
X199194420Y-92080080D01*
X203474320Y-93345000D02*
X200459340Y-93345000D01*
D32*
X204094080Y-92811600D02*
X204558900Y-92346780D01*
X204558900Y-92346780D02*
X204558900Y-92260420D01*
X204094080Y-92811600D02*
X204162660Y-92743020D01*
D31*
X170476713Y-90800000D02*
X170800002Y-90800000D01*
X168331750Y-91318250D02*
X168850000Y-90800000D01*
X168850000Y-90800000D02*
X170476713Y-90800000D01*
D23*
X205165962Y-93700602D02*
X200540000Y-93700602D01*
X188907420Y-92743020D02*
X189250319Y-93085919D01*
X199733273Y-93085919D02*
X200347956Y-93700602D01*
X189250319Y-93085919D02*
X199733273Y-93085919D01*
X200347956Y-93700602D02*
X200540000Y-93700602D01*
D31*
X171116617Y-91443383D02*
X171330000Y-91230000D01*
X169576617Y-91443383D02*
X171116617Y-91443383D01*
D23*
X207124300Y-92961460D02*
X207124300Y-93007180D01*
X207124300Y-93007180D02*
X206329280Y-93802200D01*
X206329280Y-93802200D02*
X205267560Y-93802200D01*
X205267560Y-93802200D02*
X205165962Y-93700602D01*
D31*
X162871802Y-86378198D02*
X162688599Y-86561401D01*
X162688599Y-86561401D02*
X162460000Y-86790000D01*
X169410000Y-87920000D02*
X167868198Y-86378198D01*
X167868198Y-86378198D02*
X162871802Y-86378198D01*
D30*
X197053200Y-79108300D02*
X197053200Y-79612300D01*
X197053200Y-79612300D02*
X196579300Y-80086200D01*
X196579300Y-80086200D02*
X195892020Y-80086200D01*
X195892020Y-80086200D02*
X195173600Y-80086200D01*
D31*
X184200000Y-92550000D02*
X184200000Y-92490000D01*
X184200000Y-92490000D02*
X184710000Y-91980000D01*
D23*
X198945500Y-84785200D02*
X195465700Y-84785200D01*
X207276700Y-85090000D02*
X206959200Y-84772500D01*
X206959200Y-84772500D02*
X203009500Y-84772500D01*
X201350880Y-90802840D02*
X201350880Y-90393520D01*
X201350880Y-90393520D02*
X201602340Y-90142060D01*
D29*
X197899020Y-90858340D02*
X195546980Y-90858340D01*
X195546980Y-90858340D02*
X195008500Y-90319860D01*
D23*
X167330000Y-87170000D02*
X167381401Y-87118599D01*
X167381401Y-87118599D02*
X167610000Y-86890000D01*
X167290000Y-87170000D02*
X167330000Y-87170000D01*
X161170000Y-74630000D02*
X161200000Y-74630000D01*
X161200000Y-74630000D02*
X161700000Y-75130000D01*
X161750000Y-76230000D02*
X161750000Y-75180000D01*
X161750000Y-75180000D02*
X161700000Y-75130000D01*
D27*
X182500000Y-92550000D02*
X182500000Y-92450000D01*
X182500000Y-92450000D02*
X181800000Y-91750000D01*
D24*
X173842899Y-74607101D02*
X174850000Y-73600000D01*
X173500000Y-75050000D02*
X173842899Y-74707101D01*
X173842899Y-74707101D02*
X173842899Y-74607101D01*
D29*
X178310000Y-76910000D02*
X178700000Y-76520000D01*
X182740000Y-76620000D02*
X180420000Y-76620000D01*
X180420000Y-76620000D02*
X180120000Y-76320000D01*
D32*
X182740000Y-75220000D02*
X182740000Y-76620000D01*
X182560000Y-75040000D02*
X182740000Y-75220000D01*
D23*
X168860000Y-89703289D02*
X168860000Y-89380000D01*
X168860000Y-89740000D02*
X168860000Y-89703289D01*
X168880000Y-89760000D02*
X168860000Y-89740000D01*
D24*
X167130000Y-92690000D02*
X166570000Y-92690000D01*
X166570000Y-92690000D02*
X166500000Y-92620000D01*
X178020000Y-93680000D02*
X168730000Y-93680000D01*
X168730000Y-93680000D02*
X167700000Y-92650000D01*
D23*
X160170000Y-74630000D02*
X160170000Y-75095602D01*
X160170000Y-75095602D02*
X161044398Y-75970000D01*
X166470000Y-74580000D02*
X166880000Y-74580000D01*
X166880000Y-74580000D02*
X167850000Y-75550000D01*
X167040000Y-74480000D02*
X166570000Y-74480000D01*
X166570000Y-74480000D02*
X166470000Y-74580000D01*
D33*
X178020000Y-93680000D02*
X181350000Y-93675200D01*
X181350000Y-93675200D02*
X186724800Y-93675200D01*
X186724800Y-93675200D02*
X190158880Y-90241120D01*
X190634827Y-90241120D02*
X191119760Y-90241120D01*
X190158880Y-90241120D02*
X190634827Y-90241120D01*
D23*
X162315589Y-75448789D02*
X162315589Y-75138453D01*
X163096800Y-76230000D02*
X162315589Y-75448789D01*
X163650000Y-76230000D02*
X163096800Y-76230000D01*
X155833291Y-81100000D02*
X155510002Y-81100000D01*
X156493380Y-81100000D02*
X155833291Y-81100000D01*
X158375290Y-82981910D02*
X156493380Y-81100000D01*
X166196713Y-87170000D02*
X166170000Y-87143287D01*
X166290000Y-87170000D02*
X166196713Y-87170000D01*
X166170000Y-87143287D02*
X166170000Y-86819998D01*
D31*
G36*
X153476630Y-78025452D02*
X153478237Y-78025458D01*
X153479727Y-78026077D01*
X153688272Y-78026259D01*
X153895973Y-78027051D01*
X153897460Y-78026442D01*
X153899074Y-78026443D01*
X154069075Y-77956200D01*
X154923800Y-77956200D01*
X154923800Y-82893800D01*
X152396200Y-82893800D01*
X152396200Y-77956200D01*
X153311227Y-77956200D01*
X153476630Y-78025452D01*
X153476630Y-78025452D01*
G37*
X153476630Y-78025452D02*
X153478237Y-78025458D01*
X153479727Y-78026077D01*
X153688272Y-78026259D01*
X153895973Y-78027051D01*
X153897460Y-78026442D01*
X153899074Y-78026443D01*
X154069075Y-77956200D01*
X154923800Y-77956200D01*
X154923800Y-82893800D01*
X152396200Y-82893800D01*
X152396200Y-77956200D01*
X153311227Y-77956200D01*
X153476630Y-78025452D01*
G36*
X182740161Y-72338390D02*
X182773800Y-72507506D01*
X182773800Y-79246000D01*
X182763550Y-79246000D01*
X182700050Y-79309500D01*
X182700050Y-79949950D01*
X182720050Y-79949950D01*
X182720050Y-79950050D01*
X182700050Y-79950050D01*
X182700050Y-80590500D01*
X182763550Y-80654000D01*
X182773800Y-80654000D01*
X182773800Y-90523970D01*
X182682600Y-90432770D01*
X182682600Y-86964618D01*
X182645864Y-86779935D01*
X182541250Y-86623368D01*
X182541247Y-86623366D01*
X180222600Y-84304718D01*
X180222600Y-83294932D01*
X180385615Y-83132202D01*
X180501867Y-82852236D01*
X180502132Y-82549094D01*
X180386368Y-82268926D01*
X180172202Y-82054385D01*
X179892236Y-81938133D01*
X179589094Y-81937868D01*
X179308926Y-82053632D01*
X179094385Y-82267798D01*
X178978133Y-82547764D01*
X178977868Y-82850906D01*
X179093632Y-83131074D01*
X179257400Y-83295129D01*
X179257400Y-84504618D01*
X179294136Y-84689301D01*
X179398750Y-84845868D01*
X181717400Y-87164517D01*
X181717400Y-90632670D01*
X181754136Y-90817353D01*
X181858750Y-90973920D01*
X182212452Y-91327622D01*
X182279985Y-91395273D01*
X182457297Y-91468899D01*
X182553710Y-91468983D01*
X182553713Y-91468984D01*
X182553716Y-91468983D01*
X182649287Y-91469067D01*
X182773800Y-91417619D01*
X182773800Y-91846000D01*
X182763550Y-91846000D01*
X182700050Y-91909500D01*
X182700050Y-92549950D01*
X182720050Y-92549950D01*
X182720050Y-92550050D01*
X182700050Y-92550050D01*
X182700050Y-92570050D01*
X182699950Y-92570050D01*
X182699950Y-92550050D01*
X182209500Y-92550050D01*
X182146000Y-92613550D01*
X182146000Y-93050524D01*
X182183808Y-93141800D01*
X181350000Y-93141800D01*
X181349614Y-93141877D01*
X181349231Y-93141801D01*
X178290985Y-93146209D01*
X178139252Y-93083204D01*
X177901790Y-93082997D01*
X177682325Y-93173678D01*
X177658562Y-93197400D01*
X168929900Y-93197400D01*
X168041250Y-92308750D01*
X167973728Y-92241110D01*
X167796416Y-92167484D01*
X167604426Y-92167316D01*
X167426986Y-92240633D01*
X167391517Y-92276040D01*
X167226416Y-92207484D01*
X167034426Y-92207316D01*
X167034223Y-92207400D01*
X166764793Y-92207400D01*
X166596416Y-92137484D01*
X166404426Y-92137316D01*
X166226986Y-92210633D01*
X166091110Y-92346272D01*
X166017484Y-92523584D01*
X166017316Y-92715574D01*
X166090633Y-92893014D01*
X166226272Y-93028890D01*
X166226474Y-93028974D01*
X166228750Y-93031250D01*
X166385317Y-93135864D01*
X166570000Y-93172600D01*
X167129579Y-93172600D01*
X167225574Y-93172684D01*
X167403014Y-93099367D01*
X167434968Y-93067468D01*
X168388750Y-94021250D01*
X168545317Y-94125864D01*
X168730000Y-94162600D01*
X177658350Y-94162600D01*
X177681442Y-94185732D01*
X177900748Y-94276796D01*
X178138210Y-94277003D01*
X178293094Y-94213006D01*
X181350074Y-94208600D01*
X182773800Y-94208600D01*
X182773800Y-94492494D01*
X182740161Y-94661610D01*
X182700478Y-94721000D01*
X155541605Y-94721000D01*
X155548890Y-94713728D01*
X155622516Y-94536416D01*
X155622684Y-94344426D01*
X155549367Y-94166986D01*
X155413728Y-94031110D01*
X155236416Y-93957484D01*
X155044426Y-93957316D01*
X154866986Y-94030633D01*
X154731110Y-94166272D01*
X154657484Y-94343584D01*
X154657316Y-94535574D01*
X154730633Y-94713014D01*
X154738605Y-94721000D01*
X153242255Y-94721000D01*
X153343014Y-94679367D01*
X153478890Y-94543728D01*
X153552516Y-94366416D01*
X153552684Y-94174426D01*
X153479367Y-93996986D01*
X153343728Y-93861110D01*
X153189954Y-93797258D01*
X153119100Y-93726404D01*
X153119100Y-92328674D01*
X153470316Y-92328674D01*
X153543633Y-92506114D01*
X153679272Y-92641990D01*
X153856584Y-92715616D01*
X154048574Y-92715784D01*
X154226014Y-92642467D01*
X154361890Y-92506828D01*
X154435516Y-92329516D01*
X154435684Y-92137526D01*
X154362367Y-91960086D01*
X154226728Y-91824210D01*
X154049416Y-91750584D01*
X153857426Y-91750416D01*
X153679986Y-91823733D01*
X153544110Y-91959372D01*
X153470484Y-92136684D01*
X153470316Y-92328674D01*
X153119100Y-92328674D01*
X153119100Y-91186800D01*
X157664024Y-91186800D01*
X157664024Y-92202800D01*
X157681735Y-92296927D01*
X157737364Y-92383376D01*
X157822244Y-92441372D01*
X157923000Y-92461776D01*
X158939000Y-92461776D01*
X159033127Y-92444065D01*
X159119576Y-92388436D01*
X159177572Y-92303556D01*
X159186752Y-92258225D01*
X159268798Y-92340415D01*
X159548764Y-92456667D01*
X159851906Y-92456932D01*
X160132074Y-92341168D01*
X160336168Y-92137430D01*
X160538798Y-92340415D01*
X160818764Y-92456667D01*
X161121906Y-92456932D01*
X161402074Y-92341168D01*
X161606168Y-92137430D01*
X161808798Y-92340415D01*
X162088764Y-92456667D01*
X162391906Y-92456932D01*
X162672074Y-92341168D01*
X162876168Y-92137430D01*
X163078798Y-92340415D01*
X163358764Y-92456667D01*
X163661906Y-92456932D01*
X163942074Y-92341168D01*
X164156615Y-92127002D01*
X164272867Y-91847036D01*
X164273132Y-91543894D01*
X164157368Y-91263726D01*
X163943202Y-91049185D01*
X163663236Y-90932933D01*
X163561993Y-90932844D01*
X163594016Y-90911447D01*
X164661890Y-89843573D01*
X164737188Y-89843639D01*
X164785806Y-89823550D01*
X166376000Y-89823550D01*
X166376000Y-90460524D01*
X166414669Y-90553879D01*
X166486120Y-90625331D01*
X166579476Y-90664000D01*
X166916450Y-90664000D01*
X166979950Y-90600500D01*
X166979950Y-89760050D01*
X166980050Y-89760050D01*
X166980050Y-90600500D01*
X167043550Y-90664000D01*
X167380524Y-90664000D01*
X167473880Y-90625331D01*
X167545331Y-90553879D01*
X167584000Y-90460524D01*
X167584000Y-89823550D01*
X167520500Y-89760050D01*
X166980050Y-89760050D01*
X166979950Y-89760050D01*
X166439500Y-89760050D01*
X166376000Y-89823550D01*
X164785806Y-89823550D01*
X164914628Y-89770322D01*
X165050504Y-89634683D01*
X165124130Y-89457371D01*
X165124298Y-89265381D01*
X165073736Y-89143012D01*
X166376000Y-89143012D01*
X166376000Y-89696450D01*
X166439500Y-89759950D01*
X166979950Y-89759950D01*
X166979950Y-89739950D01*
X166980050Y-89739950D01*
X166980050Y-89759950D01*
X167520500Y-89759950D01*
X167584000Y-89696450D01*
X167584000Y-89143012D01*
X168271024Y-89143012D01*
X168271024Y-90410000D01*
X168288735Y-90504127D01*
X168344364Y-90590576D01*
X168429244Y-90648572D01*
X168516736Y-90666290D01*
X168347363Y-90835663D01*
X168236176Y-90835566D01*
X168058736Y-90908883D01*
X167922860Y-91044522D01*
X167849234Y-91221834D01*
X167849066Y-91413824D01*
X167922383Y-91591264D01*
X168058022Y-91727140D01*
X168235334Y-91800766D01*
X168427324Y-91800934D01*
X168604764Y-91727617D01*
X168740640Y-91591978D01*
X168814266Y-91414666D01*
X168814364Y-91302610D01*
X168986774Y-91130200D01*
X169207251Y-91130200D01*
X169167727Y-91169655D01*
X169094101Y-91346967D01*
X169093933Y-91538957D01*
X169167250Y-91716397D01*
X169302889Y-91852273D01*
X169433655Y-91906572D01*
X169433561Y-92014293D01*
X169506878Y-92191733D01*
X169642517Y-92327609D01*
X169819829Y-92401235D01*
X170011819Y-92401403D01*
X170189259Y-92328086D01*
X170268564Y-92248919D01*
X171348138Y-92248919D01*
X171474500Y-92223784D01*
X171581625Y-92152206D01*
X171684355Y-92049476D01*
X182146000Y-92049476D01*
X182146000Y-92486450D01*
X182209500Y-92549950D01*
X182699950Y-92549950D01*
X182699950Y-91909500D01*
X182636450Y-91846000D01*
X182349476Y-91846000D01*
X182256120Y-91884669D01*
X182184669Y-91956121D01*
X182146000Y-92049476D01*
X171684355Y-92049476D01*
X171760344Y-91973487D01*
X173054885Y-90678945D01*
X173054888Y-90678943D01*
X173126466Y-90571818D01*
X173139931Y-90504127D01*
X173151602Y-90445456D01*
X173151601Y-90445451D01*
X173151601Y-89960194D01*
X173323014Y-89889367D01*
X173458890Y-89753728D01*
X173532516Y-89576416D01*
X173532684Y-89384426D01*
X173459367Y-89206986D01*
X173395505Y-89143012D01*
X177390117Y-89143012D01*
X177447382Y-89200277D01*
X177447316Y-89275574D01*
X177520633Y-89453014D01*
X177656272Y-89588890D01*
X177833584Y-89662516D01*
X178025574Y-89662684D01*
X178203014Y-89589367D01*
X178338890Y-89453728D01*
X178412516Y-89276416D01*
X178412684Y-89084426D01*
X178339367Y-88906986D01*
X178203728Y-88771110D01*
X178159666Y-88752814D01*
X178238890Y-88673728D01*
X178312516Y-88496416D01*
X178312684Y-88304426D01*
X178239367Y-88126986D01*
X178103728Y-87991110D01*
X177994065Y-87945574D01*
X178277316Y-87945574D01*
X178350633Y-88123014D01*
X178486272Y-88258890D01*
X178663584Y-88332516D01*
X178855574Y-88332684D01*
X179033014Y-88259367D01*
X179168890Y-88123728D01*
X179242516Y-87946416D01*
X179242684Y-87754426D01*
X179169367Y-87576986D01*
X179033728Y-87441110D01*
X178856416Y-87367484D01*
X178664426Y-87367316D01*
X178486986Y-87440633D01*
X178351110Y-87576272D01*
X178277484Y-87753584D01*
X178277316Y-87945574D01*
X177994065Y-87945574D01*
X177926416Y-87917484D01*
X177734426Y-87917316D01*
X177556986Y-87990633D01*
X177502233Y-88045291D01*
X177370629Y-88071468D01*
X177370627Y-88071469D01*
X177370628Y-88071469D01*
X177325532Y-88101601D01*
X169857144Y-88101601D01*
X169892516Y-88016416D01*
X169892684Y-87824426D01*
X169819367Y-87646986D01*
X169683728Y-87511110D01*
X169506416Y-87437484D01*
X169394359Y-87437386D01*
X168432548Y-86475574D01*
X169077316Y-86475574D01*
X169150633Y-86653014D01*
X169286272Y-86788890D01*
X169463584Y-86862516D01*
X169655574Y-86862684D01*
X169833014Y-86789367D01*
X169968890Y-86653728D01*
X170042516Y-86476416D01*
X170042684Y-86284426D01*
X169969367Y-86106986D01*
X169833728Y-85971110D01*
X169656416Y-85897484D01*
X169464426Y-85897316D01*
X169286986Y-85970633D01*
X169151110Y-86106272D01*
X169077484Y-86283584D01*
X169077316Y-86475574D01*
X168432548Y-86475574D01*
X168101685Y-86144711D01*
X167994560Y-86073133D01*
X167868198Y-86047998D01*
X162871802Y-86047998D01*
X162745440Y-86073133D01*
X162638315Y-86144711D01*
X162475613Y-86307413D01*
X162364426Y-86307316D01*
X162186986Y-86380633D01*
X162051110Y-86516272D01*
X161977484Y-86693584D01*
X161977316Y-86885574D01*
X162050633Y-87063014D01*
X162186272Y-87198890D01*
X162363584Y-87272516D01*
X162555574Y-87272684D01*
X162733014Y-87199367D01*
X162868890Y-87063728D01*
X162881677Y-87032934D01*
X162910633Y-87103014D01*
X163046272Y-87238890D01*
X163223584Y-87312516D01*
X163299689Y-87312583D01*
X164418918Y-88431812D01*
X163432588Y-88431812D01*
X163296505Y-88458880D01*
X163193981Y-88527386D01*
X163114426Y-88527316D01*
X162936986Y-88600633D01*
X162801110Y-88736272D01*
X162727484Y-88913584D01*
X162727316Y-89105574D01*
X162800633Y-89283014D01*
X162936272Y-89418890D01*
X163113584Y-89492516D01*
X163305574Y-89492684D01*
X163483014Y-89419367D01*
X163618890Y-89283728D01*
X163677320Y-89143012D01*
X164209560Y-89143012D01*
X164159098Y-89264539D01*
X164159031Y-89340644D01*
X163195275Y-90304400D01*
X161556925Y-90304400D01*
X161503728Y-90251110D01*
X161326416Y-90177484D01*
X161134426Y-90177316D01*
X160956986Y-90250633D01*
X160821110Y-90386272D01*
X160747484Y-90563584D01*
X160747316Y-90755574D01*
X160820490Y-90932668D01*
X160539926Y-91048432D01*
X160335832Y-91252170D01*
X160133202Y-91049185D01*
X160056600Y-91017377D01*
X160056600Y-86751000D01*
X160044022Y-86687763D01*
X160029532Y-86614917D01*
X159952447Y-86499553D01*
X159018468Y-85565574D01*
X160147316Y-85565574D01*
X160220633Y-85743014D01*
X160356272Y-85878890D01*
X160533584Y-85952516D01*
X160725574Y-85952684D01*
X160903014Y-85879367D01*
X161038890Y-85743728D01*
X161112516Y-85566416D01*
X161112684Y-85374426D01*
X161039367Y-85196986D01*
X160903728Y-85061110D01*
X160726416Y-84987484D01*
X160534426Y-84987316D01*
X160356986Y-85060633D01*
X160221110Y-85196272D01*
X160147484Y-85373584D01*
X160147316Y-85565574D01*
X159018468Y-85565574D01*
X158742618Y-85289724D01*
X158742684Y-85214426D01*
X158669367Y-85036986D01*
X158533728Y-84901110D01*
X158356416Y-84827484D01*
X158164426Y-84827316D01*
X157986986Y-84900633D01*
X157851110Y-85036272D01*
X157777484Y-85213584D01*
X157777316Y-85405574D01*
X157850633Y-85583014D01*
X157986272Y-85718890D01*
X158163584Y-85792516D01*
X158239689Y-85792583D01*
X159345400Y-86898294D01*
X159345400Y-91017247D01*
X159269926Y-91048432D01*
X159187435Y-91130779D01*
X159180265Y-91092673D01*
X159124636Y-91006224D01*
X159039756Y-90948228D01*
X158939000Y-90927824D01*
X157923000Y-90927824D01*
X157828873Y-90945535D01*
X157742424Y-91001164D01*
X157684428Y-91086044D01*
X157664024Y-91186800D01*
X153119100Y-91186800D01*
X153119100Y-90743596D01*
X154416597Y-89446099D01*
X155155901Y-89446099D01*
X155316284Y-89414197D01*
X155433950Y-89335574D01*
X157257316Y-89335574D01*
X157330633Y-89513014D01*
X157466272Y-89648890D01*
X157643584Y-89722516D01*
X157835574Y-89722684D01*
X158013014Y-89649367D01*
X158148890Y-89513728D01*
X158222516Y-89336416D01*
X158222684Y-89144426D01*
X158149367Y-88966986D01*
X158013728Y-88831110D01*
X157836416Y-88757484D01*
X157644426Y-88757316D01*
X157466986Y-88830633D01*
X157331110Y-88966272D01*
X157257484Y-89143584D01*
X157257316Y-89335574D01*
X155433950Y-89335574D01*
X155452249Y-89323347D01*
X155504679Y-89270917D01*
X155657514Y-89207767D01*
X155793390Y-89072128D01*
X155867016Y-88894816D01*
X155867184Y-88702826D01*
X155793867Y-88525386D01*
X155658228Y-88389510D01*
X155480916Y-88315884D01*
X155288926Y-88315716D01*
X155111486Y-88389033D01*
X154975610Y-88524672D01*
X154941051Y-88607899D01*
X154243001Y-88607899D01*
X154082618Y-88639801D01*
X153949824Y-88728532D01*
X153946653Y-88730651D01*
X152403652Y-90273652D01*
X152312802Y-90409617D01*
X152280900Y-90570000D01*
X152280900Y-93900000D01*
X152312802Y-94060383D01*
X152389004Y-94174426D01*
X152403652Y-94196348D01*
X152597482Y-94390178D01*
X152660633Y-94543014D01*
X152796272Y-94678890D01*
X152897685Y-94721000D01*
X152279000Y-94721000D01*
X152279000Y-88119274D01*
X153784216Y-88119274D01*
X153857533Y-88296714D01*
X153993172Y-88432590D01*
X154170484Y-88506216D01*
X154362474Y-88506384D01*
X154539914Y-88433067D01*
X154675790Y-88297428D01*
X154749416Y-88120116D01*
X154749584Y-87928126D01*
X154676267Y-87750686D01*
X154540628Y-87614810D01*
X154363316Y-87541184D01*
X154171326Y-87541016D01*
X153993886Y-87614333D01*
X153858010Y-87749972D01*
X153784384Y-87927284D01*
X153784216Y-88119274D01*
X152279000Y-88119274D01*
X152279000Y-83215697D01*
X152320000Y-83224000D01*
X152948002Y-83224000D01*
X152797219Y-83374521D01*
X152636403Y-83761807D01*
X152636037Y-84181154D01*
X152796176Y-84568720D01*
X153092441Y-84865501D01*
X153479727Y-85026317D01*
X153899074Y-85026683D01*
X154286640Y-84866544D01*
X154583421Y-84570279D01*
X154705793Y-84275574D01*
X167597316Y-84275574D01*
X167670633Y-84453014D01*
X167806272Y-84588890D01*
X167983584Y-84662516D01*
X168175574Y-84662684D01*
X168353014Y-84589367D01*
X168406875Y-84535600D01*
X170509417Y-84535600D01*
X173035264Y-87061447D01*
X173150629Y-87138532D01*
X173282174Y-87164698D01*
X173336272Y-87218890D01*
X173513584Y-87292516D01*
X173705574Y-87292684D01*
X173883014Y-87219367D01*
X174018890Y-87083728D01*
X174092516Y-86906416D01*
X174092684Y-86714426D01*
X174019367Y-86536986D01*
X173883728Y-86401110D01*
X173706416Y-86327484D01*
X173514426Y-86327316D01*
X173367592Y-86387987D01*
X170908158Y-83928553D01*
X170792794Y-83851468D01*
X170656711Y-83824400D01*
X168406925Y-83824400D01*
X168353728Y-83771110D01*
X168176416Y-83697484D01*
X167984426Y-83697316D01*
X167806986Y-83770633D01*
X167671110Y-83906272D01*
X167597484Y-84083584D01*
X167597316Y-84275574D01*
X154705793Y-84275574D01*
X154744237Y-84182993D01*
X154744603Y-83763646D01*
X154584464Y-83376080D01*
X154432648Y-83224000D01*
X155000000Y-83224000D01*
X155092318Y-83206629D01*
X155177107Y-83152069D01*
X155181468Y-83145685D01*
X155511348Y-83145685D01*
X155644862Y-83468812D01*
X155891867Y-83716249D01*
X156214761Y-83850327D01*
X156564385Y-83850632D01*
X156887512Y-83717118D01*
X157134949Y-83470113D01*
X157269027Y-83147219D01*
X157269332Y-82797595D01*
X157135818Y-82474468D01*
X156888813Y-82227031D01*
X156565919Y-82092953D01*
X156216295Y-82092648D01*
X155893168Y-82226162D01*
X155645731Y-82473167D01*
X155511653Y-82796061D01*
X155511348Y-83145685D01*
X155181468Y-83145685D01*
X155233988Y-83068820D01*
X155254000Y-82970000D01*
X155254000Y-81516250D01*
X155413586Y-81582516D01*
X155605576Y-81582684D01*
X155783016Y-81509367D01*
X155836877Y-81455600D01*
X156346086Y-81455600D01*
X157892672Y-83002186D01*
X157892606Y-83077484D01*
X157965923Y-83254924D01*
X158101562Y-83390800D01*
X158278874Y-83464426D01*
X158470864Y-83464594D01*
X158648304Y-83391277D01*
X158784180Y-83255638D01*
X158857806Y-83078326D01*
X158857974Y-82886336D01*
X158784657Y-82708896D01*
X158649018Y-82573020D01*
X158471706Y-82499394D01*
X158395601Y-82499327D01*
X156744827Y-80848553D01*
X156629463Y-80771468D01*
X156493380Y-80744400D01*
X155836927Y-80744400D01*
X155783730Y-80691110D01*
X155606418Y-80617484D01*
X155414428Y-80617316D01*
X155254000Y-80683604D01*
X155254000Y-79905574D01*
X169497316Y-79905574D01*
X169570633Y-80083014D01*
X169706272Y-80218890D01*
X169883584Y-80292516D01*
X170075574Y-80292684D01*
X170079877Y-80290906D01*
X179507868Y-80290906D01*
X179623632Y-80571074D01*
X179837798Y-80785615D01*
X180117764Y-80901867D01*
X180420906Y-80902132D01*
X180701074Y-80786368D01*
X180915615Y-80572202D01*
X181031867Y-80292236D01*
X181032110Y-80013550D01*
X182146000Y-80013550D01*
X182146000Y-80450524D01*
X182184669Y-80543879D01*
X182256120Y-80615331D01*
X182349476Y-80654000D01*
X182636450Y-80654000D01*
X182699950Y-80590500D01*
X182699950Y-79950050D01*
X182209500Y-79950050D01*
X182146000Y-80013550D01*
X181032110Y-80013550D01*
X181032132Y-79989094D01*
X180916368Y-79708926D01*
X180702202Y-79494385D01*
X180594050Y-79449476D01*
X182146000Y-79449476D01*
X182146000Y-79886450D01*
X182209500Y-79949950D01*
X182699950Y-79949950D01*
X182699950Y-79309500D01*
X182636450Y-79246000D01*
X182349476Y-79246000D01*
X182256120Y-79284669D01*
X182184669Y-79356121D01*
X182146000Y-79449476D01*
X180594050Y-79449476D01*
X180422236Y-79378133D01*
X180119094Y-79377868D01*
X179838926Y-79493632D01*
X179624385Y-79707798D01*
X179508133Y-79987764D01*
X179507868Y-80290906D01*
X170079877Y-80290906D01*
X170253014Y-80219367D01*
X170388890Y-80083728D01*
X170462516Y-79906416D01*
X170462684Y-79714426D01*
X170389367Y-79536986D01*
X170253728Y-79401110D01*
X170076416Y-79327484D01*
X169884426Y-79327316D01*
X169706986Y-79400633D01*
X169571110Y-79536272D01*
X169497484Y-79713584D01*
X169497316Y-79905574D01*
X155254000Y-79905574D01*
X155254000Y-79175574D01*
X171487316Y-79175574D01*
X171560633Y-79353014D01*
X171696272Y-79488890D01*
X171873584Y-79562516D01*
X172065574Y-79562684D01*
X172243014Y-79489367D01*
X172378890Y-79353728D01*
X172452516Y-79176416D01*
X172452583Y-79100311D01*
X172627294Y-78925600D01*
X172643075Y-78925600D01*
X172696272Y-78978890D01*
X172873584Y-79052516D01*
X173065574Y-79052684D01*
X173243014Y-78979367D01*
X173378890Y-78843728D01*
X173452516Y-78666416D01*
X173452684Y-78474426D01*
X173379367Y-78296986D01*
X173243728Y-78161110D01*
X173066416Y-78087484D01*
X172874426Y-78087316D01*
X172696986Y-78160633D01*
X172643125Y-78214400D01*
X172480000Y-78214400D01*
X172343917Y-78241468D01*
X172228553Y-78318553D01*
X171949724Y-78597382D01*
X171874426Y-78597316D01*
X171696986Y-78670633D01*
X171561110Y-78806272D01*
X171487484Y-78983584D01*
X171487316Y-79175574D01*
X155254000Y-79175574D01*
X155254000Y-78146965D01*
X155511348Y-78146965D01*
X155644862Y-78470092D01*
X155891867Y-78717529D01*
X156214761Y-78851607D01*
X156564385Y-78851912D01*
X156887512Y-78718398D01*
X157134949Y-78471393D01*
X157269027Y-78148499D01*
X157269332Y-77798875D01*
X157135818Y-77475748D01*
X157011317Y-77351029D01*
X167069289Y-77351029D01*
X167142606Y-77528469D01*
X167278245Y-77664345D01*
X167455557Y-77737971D01*
X167647547Y-77738139D01*
X167824987Y-77664822D01*
X167960863Y-77529183D01*
X168034489Y-77351871D01*
X168034657Y-77159881D01*
X167961340Y-76982441D01*
X167825701Y-76846565D01*
X167648389Y-76772939D01*
X167456399Y-76772771D01*
X167278959Y-76846088D01*
X167143083Y-76981727D01*
X167069457Y-77159039D01*
X167069289Y-77351029D01*
X157011317Y-77351029D01*
X156888813Y-77228311D01*
X156565919Y-77094233D01*
X156216295Y-77093928D01*
X155893168Y-77227442D01*
X155645731Y-77474447D01*
X155511653Y-77797341D01*
X155511348Y-78146965D01*
X155254000Y-78146965D01*
X155254000Y-77880000D01*
X155236629Y-77787682D01*
X155182069Y-77702893D01*
X155098820Y-77646012D01*
X155000000Y-77626000D01*
X154527363Y-77626000D01*
X154583421Y-77570039D01*
X154744237Y-77182753D01*
X154744603Y-76763406D01*
X154584464Y-76375840D01*
X154288199Y-76079059D01*
X153900913Y-75918243D01*
X153481566Y-75917877D01*
X153094000Y-76078016D01*
X152797219Y-76374281D01*
X152636403Y-76761567D01*
X152636037Y-77180914D01*
X152796176Y-77568480D01*
X152853596Y-77626000D01*
X152320000Y-77626000D01*
X152279000Y-77633715D01*
X152279000Y-74330000D01*
X159661024Y-74330000D01*
X159661024Y-74930000D01*
X159678735Y-75024127D01*
X159734364Y-75110576D01*
X159819244Y-75168572D01*
X159829320Y-75170613D01*
X159841468Y-75231685D01*
X159918553Y-75347049D01*
X160561780Y-75990277D01*
X160561714Y-76065574D01*
X160635031Y-76243014D01*
X160770670Y-76378890D01*
X160947982Y-76452516D01*
X161139972Y-76452684D01*
X161146000Y-76450193D01*
X161146000Y-76930524D01*
X161184669Y-77023879D01*
X161256120Y-77095331D01*
X161349476Y-77134000D01*
X161686450Y-77134000D01*
X161749950Y-77070500D01*
X161749950Y-76230050D01*
X161750050Y-76230050D01*
X161750050Y-77070500D01*
X161813550Y-77134000D01*
X162150524Y-77134000D01*
X162243880Y-77095331D01*
X162315331Y-77023879D01*
X162354000Y-76930524D01*
X162354000Y-76293550D01*
X162290500Y-76230050D01*
X161750050Y-76230050D01*
X161749950Y-76230050D01*
X161729950Y-76230050D01*
X161729950Y-76229950D01*
X161749950Y-76229950D01*
X161749950Y-75389500D01*
X161686450Y-75326000D01*
X161349476Y-75326000D01*
X161256120Y-75364669D01*
X161184669Y-75436121D01*
X161160080Y-75495484D01*
X161140814Y-75487484D01*
X161064710Y-75487417D01*
X160638063Y-75060771D01*
X160658572Y-75030756D01*
X160667843Y-74984974D01*
X160704669Y-75073879D01*
X160776120Y-75145331D01*
X160869476Y-75184000D01*
X161106450Y-75184000D01*
X161169950Y-75120500D01*
X161169950Y-74630050D01*
X161170050Y-74630050D01*
X161170050Y-75120500D01*
X161233550Y-75184000D01*
X161470524Y-75184000D01*
X161563880Y-75145331D01*
X161635331Y-75073879D01*
X161674000Y-74980524D01*
X161674000Y-74693550D01*
X161610500Y-74630050D01*
X161170050Y-74630050D01*
X161169950Y-74630050D01*
X161149950Y-74630050D01*
X161149950Y-74629950D01*
X161169950Y-74629950D01*
X161169950Y-74139500D01*
X161170050Y-74139500D01*
X161170050Y-74629950D01*
X161610500Y-74629950D01*
X161674000Y-74566450D01*
X161674000Y-74279476D01*
X161635331Y-74186121D01*
X161563880Y-74114669D01*
X161470524Y-74076000D01*
X161233550Y-74076000D01*
X161170050Y-74139500D01*
X161169950Y-74139500D01*
X161106450Y-74076000D01*
X160869476Y-74076000D01*
X160776120Y-74114669D01*
X160704669Y-74186121D01*
X160668386Y-74273717D01*
X160661265Y-74235873D01*
X160605636Y-74149424D01*
X160520756Y-74091428D01*
X160420000Y-74071024D01*
X159920000Y-74071024D01*
X159825873Y-74088735D01*
X159739424Y-74144364D01*
X159681428Y-74229244D01*
X159661024Y-74330000D01*
X152279000Y-74330000D01*
X152279000Y-72772000D01*
X161368024Y-72772000D01*
X161368024Y-73788000D01*
X161385735Y-73882127D01*
X161441364Y-73968576D01*
X161526244Y-74026572D01*
X161627000Y-74046976D01*
X161790494Y-74046976D01*
X161806468Y-74127283D01*
X161883553Y-74242647D01*
X162296742Y-74655836D01*
X162220015Y-74655769D01*
X162042575Y-74729086D01*
X161906699Y-74864725D01*
X161833073Y-75042037D01*
X161832905Y-75234027D01*
X161870908Y-75326000D01*
X161813550Y-75326000D01*
X161750050Y-75389500D01*
X161750050Y-76229950D01*
X162290500Y-76229950D01*
X162354000Y-76166450D01*
X162354000Y-75990094D01*
X162845353Y-76481447D01*
X162960717Y-76558532D01*
X163041024Y-76574506D01*
X163041024Y-76880000D01*
X163058735Y-76974127D01*
X163114364Y-77060576D01*
X163199244Y-77118572D01*
X163300000Y-77138976D01*
X164000000Y-77138976D01*
X164094127Y-77121265D01*
X164180576Y-77065636D01*
X164238572Y-76980756D01*
X164258976Y-76880000D01*
X164258976Y-75580000D01*
X164241265Y-75485873D01*
X164185636Y-75399424D01*
X164100756Y-75341428D01*
X164000000Y-75321024D01*
X163300000Y-75321024D01*
X163205873Y-75338735D01*
X163119424Y-75394364D01*
X163061428Y-75479244D01*
X163041024Y-75580000D01*
X163041024Y-75671330D01*
X162741319Y-75371625D01*
X162798105Y-75234869D01*
X162798273Y-75042879D01*
X162724956Y-74865439D01*
X162685186Y-74825600D01*
X163093075Y-74825600D01*
X163146272Y-74878890D01*
X163323584Y-74952516D01*
X163515574Y-74952684D01*
X163693014Y-74879367D01*
X163828890Y-74743728D01*
X163857189Y-74675574D01*
X165987316Y-74675574D01*
X166060633Y-74853014D01*
X166196272Y-74988890D01*
X166373584Y-75062516D01*
X166523522Y-75062647D01*
X166554364Y-75110576D01*
X166639244Y-75168572D01*
X166740000Y-75188976D01*
X166986082Y-75188976D01*
X167367382Y-75570276D01*
X167367316Y-75645574D01*
X167440633Y-75823014D01*
X167576272Y-75958890D01*
X167753584Y-76032516D01*
X167945574Y-76032684D01*
X168123014Y-75959367D01*
X168258890Y-75823728D01*
X168332516Y-75646416D01*
X168332684Y-75454426D01*
X168259367Y-75276986D01*
X168150376Y-75167804D01*
X168189476Y-75184000D01*
X168476450Y-75184000D01*
X168539950Y-75120500D01*
X168539950Y-74480050D01*
X168049500Y-74480050D01*
X167986000Y-74543550D01*
X167986000Y-74980524D01*
X168024669Y-75073879D01*
X168069298Y-75118509D01*
X167946416Y-75067484D01*
X167870311Y-75067417D01*
X167598976Y-74796082D01*
X167598976Y-74030000D01*
X167589470Y-73979476D01*
X167986000Y-73979476D01*
X167986000Y-74416450D01*
X168049500Y-74479950D01*
X168539950Y-74479950D01*
X168539950Y-73839500D01*
X168540050Y-73839500D01*
X168540050Y-74479950D01*
X168560050Y-74479950D01*
X168560050Y-74480050D01*
X168540050Y-74480050D01*
X168540050Y-75120500D01*
X168603550Y-75184000D01*
X168890524Y-75184000D01*
X168934014Y-75165986D01*
X168990633Y-75303014D01*
X169126272Y-75438890D01*
X169303584Y-75512516D01*
X169495574Y-75512684D01*
X169673014Y-75439367D01*
X169808890Y-75303728D01*
X169882516Y-75126416D01*
X169882684Y-74934426D01*
X169809367Y-74756986D01*
X169781000Y-74728569D01*
X169781000Y-74648614D01*
X170073424Y-74356190D01*
X170073424Y-75031600D01*
X170091135Y-75125727D01*
X170146764Y-75212176D01*
X170231644Y-75270172D01*
X170332400Y-75290576D01*
X171348400Y-75290576D01*
X171442527Y-75272865D01*
X171528976Y-75217236D01*
X171586972Y-75132356D01*
X171607376Y-75031600D01*
X171607376Y-74015600D01*
X171589665Y-73921473D01*
X171534036Y-73835024D01*
X171449156Y-73777028D01*
X171348400Y-73756624D01*
X170672990Y-73756624D01*
X171208614Y-73221000D01*
X178168431Y-73221000D01*
X178196272Y-73248890D01*
X178373584Y-73322516D01*
X178565574Y-73322684D01*
X178743014Y-73249367D01*
X178878890Y-73113728D01*
X178952516Y-72936416D01*
X178952684Y-72744426D01*
X178879367Y-72566986D01*
X178743728Y-72431110D01*
X178566416Y-72357484D01*
X178374426Y-72357316D01*
X178196986Y-72430633D01*
X178168569Y-72459000D01*
X171050803Y-72459000D01*
X171050798Y-72458999D01*
X170904995Y-72488002D01*
X170781390Y-72570592D01*
X169130592Y-74221390D01*
X169094000Y-74276154D01*
X169094000Y-73979476D01*
X169055331Y-73886121D01*
X168983880Y-73814669D01*
X168890524Y-73776000D01*
X168603550Y-73776000D01*
X168540050Y-73839500D01*
X168539950Y-73839500D01*
X168476450Y-73776000D01*
X168189476Y-73776000D01*
X168096120Y-73814669D01*
X168024669Y-73886121D01*
X167986000Y-73979476D01*
X167589470Y-73979476D01*
X167581265Y-73935873D01*
X167525636Y-73849424D01*
X167440756Y-73791428D01*
X167340000Y-73771024D01*
X166740000Y-73771024D01*
X166645873Y-73788735D01*
X166559424Y-73844364D01*
X166501428Y-73929244D01*
X166481024Y-74030000D01*
X166481024Y-74097409D01*
X166374426Y-74097316D01*
X166196986Y-74170633D01*
X166061110Y-74306272D01*
X165987484Y-74483584D01*
X165987316Y-74675574D01*
X163857189Y-74675574D01*
X163902516Y-74566416D01*
X163902684Y-74374426D01*
X163829367Y-74196986D01*
X163693728Y-74061110D01*
X163602078Y-74023054D01*
X163836074Y-73926368D01*
X164050615Y-73712202D01*
X164166867Y-73432236D01*
X164167132Y-73129094D01*
X164058247Y-72865574D01*
X166247316Y-72865574D01*
X166320633Y-73043014D01*
X166456272Y-73178890D01*
X166633584Y-73252516D01*
X166825574Y-73252684D01*
X167003014Y-73179367D01*
X167138890Y-73043728D01*
X167212516Y-72866416D01*
X167212684Y-72674426D01*
X167139367Y-72496986D01*
X167003728Y-72361110D01*
X166826416Y-72287484D01*
X166634426Y-72287316D01*
X166456986Y-72360633D01*
X166321110Y-72496272D01*
X166247484Y-72673584D01*
X166247316Y-72865574D01*
X164058247Y-72865574D01*
X164051368Y-72848926D01*
X163837202Y-72634385D01*
X163557236Y-72518133D01*
X163254094Y-72517868D01*
X162973926Y-72633632D01*
X162891435Y-72715979D01*
X162884265Y-72677873D01*
X162828636Y-72591424D01*
X162743756Y-72533428D01*
X162643000Y-72513024D01*
X161627000Y-72513024D01*
X161532873Y-72530735D01*
X161446424Y-72586364D01*
X161388428Y-72671244D01*
X161368024Y-72772000D01*
X152279000Y-72772000D01*
X152279000Y-72279000D01*
X182700478Y-72279000D01*
X182740161Y-72338390D01*
X182740161Y-72338390D01*
G37*
X182740161Y-72338390D02*
X182773800Y-72507506D01*
X182773800Y-79246000D01*
X182763550Y-79246000D01*
X182700050Y-79309500D01*
X182700050Y-79949950D01*
X182720050Y-79949950D01*
X182720050Y-79950050D01*
X182700050Y-79950050D01*
X182700050Y-80590500D01*
X182763550Y-80654000D01*
X182773800Y-80654000D01*
X182773800Y-90523970D01*
X182682600Y-90432770D01*
X182682600Y-86964618D01*
X182645864Y-86779935D01*
X182541250Y-86623368D01*
X182541247Y-86623366D01*
X180222600Y-84304718D01*
X180222600Y-83294932D01*
X180385615Y-83132202D01*
X180501867Y-82852236D01*
X180502132Y-82549094D01*
X180386368Y-82268926D01*
X180172202Y-82054385D01*
X179892236Y-81938133D01*
X179589094Y-81937868D01*
X179308926Y-82053632D01*
X179094385Y-82267798D01*
X178978133Y-82547764D01*
X178977868Y-82850906D01*
X179093632Y-83131074D01*
X179257400Y-83295129D01*
X179257400Y-84504618D01*
X179294136Y-84689301D01*
X179398750Y-84845868D01*
X181717400Y-87164517D01*
X181717400Y-90632670D01*
X181754136Y-90817353D01*
X181858750Y-90973920D01*
X182212452Y-91327622D01*
X182279985Y-91395273D01*
X182457297Y-91468899D01*
X182553710Y-91468983D01*
X182553713Y-91468984D01*
X182553716Y-91468983D01*
X182649287Y-91469067D01*
X182773800Y-91417619D01*
X182773800Y-91846000D01*
X182763550Y-91846000D01*
X182700050Y-91909500D01*
X182700050Y-92549950D01*
X182720050Y-92549950D01*
X182720050Y-92550050D01*
X182700050Y-92550050D01*
X182700050Y-92570050D01*
X182699950Y-92570050D01*
X182699950Y-92550050D01*
X182209500Y-92550050D01*
X182146000Y-92613550D01*
X182146000Y-93050524D01*
X182183808Y-93141800D01*
X181350000Y-93141800D01*
X181349614Y-93141877D01*
X181349231Y-93141801D01*
X178290985Y-93146209D01*
X178139252Y-93083204D01*
X177901790Y-93082997D01*
X177682325Y-93173678D01*
X177658562Y-93197400D01*
X168929900Y-93197400D01*
X168041250Y-92308750D01*
X167973728Y-92241110D01*
X167796416Y-92167484D01*
X167604426Y-92167316D01*
X167426986Y-92240633D01*
X167391517Y-92276040D01*
X167226416Y-92207484D01*
X167034426Y-92207316D01*
X167034223Y-92207400D01*
X166764793Y-92207400D01*
X166596416Y-92137484D01*
X166404426Y-92137316D01*
X166226986Y-92210633D01*
X166091110Y-92346272D01*
X166017484Y-92523584D01*
X166017316Y-92715574D01*
X166090633Y-92893014D01*
X166226272Y-93028890D01*
X166226474Y-93028974D01*
X166228750Y-93031250D01*
X166385317Y-93135864D01*
X166570000Y-93172600D01*
X167129579Y-93172600D01*
X167225574Y-93172684D01*
X167403014Y-93099367D01*
X167434968Y-93067468D01*
X168388750Y-94021250D01*
X168545317Y-94125864D01*
X168730000Y-94162600D01*
X177658350Y-94162600D01*
X177681442Y-94185732D01*
X177900748Y-94276796D01*
X178138210Y-94277003D01*
X178293094Y-94213006D01*
X181350074Y-94208600D01*
X182773800Y-94208600D01*
X182773800Y-94492494D01*
X182740161Y-94661610D01*
X182700478Y-94721000D01*
X155541605Y-94721000D01*
X155548890Y-94713728D01*
X155622516Y-94536416D01*
X155622684Y-94344426D01*
X155549367Y-94166986D01*
X155413728Y-94031110D01*
X155236416Y-93957484D01*
X155044426Y-93957316D01*
X154866986Y-94030633D01*
X154731110Y-94166272D01*
X154657484Y-94343584D01*
X154657316Y-94535574D01*
X154730633Y-94713014D01*
X154738605Y-94721000D01*
X153242255Y-94721000D01*
X153343014Y-94679367D01*
X153478890Y-94543728D01*
X153552516Y-94366416D01*
X153552684Y-94174426D01*
X153479367Y-93996986D01*
X153343728Y-93861110D01*
X153189954Y-93797258D01*
X153119100Y-93726404D01*
X153119100Y-92328674D01*
X153470316Y-92328674D01*
X153543633Y-92506114D01*
X153679272Y-92641990D01*
X153856584Y-92715616D01*
X154048574Y-92715784D01*
X154226014Y-92642467D01*
X154361890Y-92506828D01*
X154435516Y-92329516D01*
X154435684Y-92137526D01*
X154362367Y-91960086D01*
X154226728Y-91824210D01*
X154049416Y-91750584D01*
X153857426Y-91750416D01*
X153679986Y-91823733D01*
X153544110Y-91959372D01*
X153470484Y-92136684D01*
X153470316Y-92328674D01*
X153119100Y-92328674D01*
X153119100Y-91186800D01*
X157664024Y-91186800D01*
X157664024Y-92202800D01*
X157681735Y-92296927D01*
X157737364Y-92383376D01*
X157822244Y-92441372D01*
X157923000Y-92461776D01*
X158939000Y-92461776D01*
X159033127Y-92444065D01*
X159119576Y-92388436D01*
X159177572Y-92303556D01*
X159186752Y-92258225D01*
X159268798Y-92340415D01*
X159548764Y-92456667D01*
X159851906Y-92456932D01*
X160132074Y-92341168D01*
X160336168Y-92137430D01*
X160538798Y-92340415D01*
X160818764Y-92456667D01*
X161121906Y-92456932D01*
X161402074Y-92341168D01*
X161606168Y-92137430D01*
X161808798Y-92340415D01*
X162088764Y-92456667D01*
X162391906Y-92456932D01*
X162672074Y-92341168D01*
X162876168Y-92137430D01*
X163078798Y-92340415D01*
X163358764Y-92456667D01*
X163661906Y-92456932D01*
X163942074Y-92341168D01*
X164156615Y-92127002D01*
X164272867Y-91847036D01*
X164273132Y-91543894D01*
X164157368Y-91263726D01*
X163943202Y-91049185D01*
X163663236Y-90932933D01*
X163561993Y-90932844D01*
X163594016Y-90911447D01*
X164661890Y-89843573D01*
X164737188Y-89843639D01*
X164785806Y-89823550D01*
X166376000Y-89823550D01*
X166376000Y-90460524D01*
X166414669Y-90553879D01*
X166486120Y-90625331D01*
X166579476Y-90664000D01*
X166916450Y-90664000D01*
X166979950Y-90600500D01*
X166979950Y-89760050D01*
X166980050Y-89760050D01*
X166980050Y-90600500D01*
X167043550Y-90664000D01*
X167380524Y-90664000D01*
X167473880Y-90625331D01*
X167545331Y-90553879D01*
X167584000Y-90460524D01*
X167584000Y-89823550D01*
X167520500Y-89760050D01*
X166980050Y-89760050D01*
X166979950Y-89760050D01*
X166439500Y-89760050D01*
X166376000Y-89823550D01*
X164785806Y-89823550D01*
X164914628Y-89770322D01*
X165050504Y-89634683D01*
X165124130Y-89457371D01*
X165124298Y-89265381D01*
X165073736Y-89143012D01*
X166376000Y-89143012D01*
X166376000Y-89696450D01*
X166439500Y-89759950D01*
X166979950Y-89759950D01*
X166979950Y-89739950D01*
X166980050Y-89739950D01*
X166980050Y-89759950D01*
X167520500Y-89759950D01*
X167584000Y-89696450D01*
X167584000Y-89143012D01*
X168271024Y-89143012D01*
X168271024Y-90410000D01*
X168288735Y-90504127D01*
X168344364Y-90590576D01*
X168429244Y-90648572D01*
X168516736Y-90666290D01*
X168347363Y-90835663D01*
X168236176Y-90835566D01*
X168058736Y-90908883D01*
X167922860Y-91044522D01*
X167849234Y-91221834D01*
X167849066Y-91413824D01*
X167922383Y-91591264D01*
X168058022Y-91727140D01*
X168235334Y-91800766D01*
X168427324Y-91800934D01*
X168604764Y-91727617D01*
X168740640Y-91591978D01*
X168814266Y-91414666D01*
X168814364Y-91302610D01*
X168986774Y-91130200D01*
X169207251Y-91130200D01*
X169167727Y-91169655D01*
X169094101Y-91346967D01*
X169093933Y-91538957D01*
X169167250Y-91716397D01*
X169302889Y-91852273D01*
X169433655Y-91906572D01*
X169433561Y-92014293D01*
X169506878Y-92191733D01*
X169642517Y-92327609D01*
X169819829Y-92401235D01*
X170011819Y-92401403D01*
X170189259Y-92328086D01*
X170268564Y-92248919D01*
X171348138Y-92248919D01*
X171474500Y-92223784D01*
X171581625Y-92152206D01*
X171684355Y-92049476D01*
X182146000Y-92049476D01*
X182146000Y-92486450D01*
X182209500Y-92549950D01*
X182699950Y-92549950D01*
X182699950Y-91909500D01*
X182636450Y-91846000D01*
X182349476Y-91846000D01*
X182256120Y-91884669D01*
X182184669Y-91956121D01*
X182146000Y-92049476D01*
X171684355Y-92049476D01*
X171760344Y-91973487D01*
X173054885Y-90678945D01*
X173054888Y-90678943D01*
X173126466Y-90571818D01*
X173139931Y-90504127D01*
X173151602Y-90445456D01*
X173151601Y-90445451D01*
X173151601Y-89960194D01*
X173323014Y-89889367D01*
X173458890Y-89753728D01*
X173532516Y-89576416D01*
X173532684Y-89384426D01*
X173459367Y-89206986D01*
X173395505Y-89143012D01*
X177390117Y-89143012D01*
X177447382Y-89200277D01*
X177447316Y-89275574D01*
X177520633Y-89453014D01*
X177656272Y-89588890D01*
X177833584Y-89662516D01*
X178025574Y-89662684D01*
X178203014Y-89589367D01*
X178338890Y-89453728D01*
X178412516Y-89276416D01*
X178412684Y-89084426D01*
X178339367Y-88906986D01*
X178203728Y-88771110D01*
X178159666Y-88752814D01*
X178238890Y-88673728D01*
X178312516Y-88496416D01*
X178312684Y-88304426D01*
X178239367Y-88126986D01*
X178103728Y-87991110D01*
X177994065Y-87945574D01*
X178277316Y-87945574D01*
X178350633Y-88123014D01*
X178486272Y-88258890D01*
X178663584Y-88332516D01*
X178855574Y-88332684D01*
X179033014Y-88259367D01*
X179168890Y-88123728D01*
X179242516Y-87946416D01*
X179242684Y-87754426D01*
X179169367Y-87576986D01*
X179033728Y-87441110D01*
X178856416Y-87367484D01*
X178664426Y-87367316D01*
X178486986Y-87440633D01*
X178351110Y-87576272D01*
X178277484Y-87753584D01*
X178277316Y-87945574D01*
X177994065Y-87945574D01*
X177926416Y-87917484D01*
X177734426Y-87917316D01*
X177556986Y-87990633D01*
X177502233Y-88045291D01*
X177370629Y-88071468D01*
X177370627Y-88071469D01*
X177370628Y-88071469D01*
X177325532Y-88101601D01*
X169857144Y-88101601D01*
X169892516Y-88016416D01*
X169892684Y-87824426D01*
X169819367Y-87646986D01*
X169683728Y-87511110D01*
X169506416Y-87437484D01*
X169394359Y-87437386D01*
X168432548Y-86475574D01*
X169077316Y-86475574D01*
X169150633Y-86653014D01*
X169286272Y-86788890D01*
X169463584Y-86862516D01*
X169655574Y-86862684D01*
X169833014Y-86789367D01*
X169968890Y-86653728D01*
X170042516Y-86476416D01*
X170042684Y-86284426D01*
X169969367Y-86106986D01*
X169833728Y-85971110D01*
X169656416Y-85897484D01*
X169464426Y-85897316D01*
X169286986Y-85970633D01*
X169151110Y-86106272D01*
X169077484Y-86283584D01*
X169077316Y-86475574D01*
X168432548Y-86475574D01*
X168101685Y-86144711D01*
X167994560Y-86073133D01*
X167868198Y-86047998D01*
X162871802Y-86047998D01*
X162745440Y-86073133D01*
X162638315Y-86144711D01*
X162475613Y-86307413D01*
X162364426Y-86307316D01*
X162186986Y-86380633D01*
X162051110Y-86516272D01*
X161977484Y-86693584D01*
X161977316Y-86885574D01*
X162050633Y-87063014D01*
X162186272Y-87198890D01*
X162363584Y-87272516D01*
X162555574Y-87272684D01*
X162733014Y-87199367D01*
X162868890Y-87063728D01*
X162881677Y-87032934D01*
X162910633Y-87103014D01*
X163046272Y-87238890D01*
X163223584Y-87312516D01*
X163299689Y-87312583D01*
X164418918Y-88431812D01*
X163432588Y-88431812D01*
X163296505Y-88458880D01*
X163193981Y-88527386D01*
X163114426Y-88527316D01*
X162936986Y-88600633D01*
X162801110Y-88736272D01*
X162727484Y-88913584D01*
X162727316Y-89105574D01*
X162800633Y-89283014D01*
X162936272Y-89418890D01*
X163113584Y-89492516D01*
X163305574Y-89492684D01*
X163483014Y-89419367D01*
X163618890Y-89283728D01*
X163677320Y-89143012D01*
X164209560Y-89143012D01*
X164159098Y-89264539D01*
X164159031Y-89340644D01*
X163195275Y-90304400D01*
X161556925Y-90304400D01*
X161503728Y-90251110D01*
X161326416Y-90177484D01*
X161134426Y-90177316D01*
X160956986Y-90250633D01*
X160821110Y-90386272D01*
X160747484Y-90563584D01*
X160747316Y-90755574D01*
X160820490Y-90932668D01*
X160539926Y-91048432D01*
X160335832Y-91252170D01*
X160133202Y-91049185D01*
X160056600Y-91017377D01*
X160056600Y-86751000D01*
X160044022Y-86687763D01*
X160029532Y-86614917D01*
X159952447Y-86499553D01*
X159018468Y-85565574D01*
X160147316Y-85565574D01*
X160220633Y-85743014D01*
X160356272Y-85878890D01*
X160533584Y-85952516D01*
X160725574Y-85952684D01*
X160903014Y-85879367D01*
X161038890Y-85743728D01*
X161112516Y-85566416D01*
X161112684Y-85374426D01*
X161039367Y-85196986D01*
X160903728Y-85061110D01*
X160726416Y-84987484D01*
X160534426Y-84987316D01*
X160356986Y-85060633D01*
X160221110Y-85196272D01*
X160147484Y-85373584D01*
X160147316Y-85565574D01*
X159018468Y-85565574D01*
X158742618Y-85289724D01*
X158742684Y-85214426D01*
X158669367Y-85036986D01*
X158533728Y-84901110D01*
X158356416Y-84827484D01*
X158164426Y-84827316D01*
X157986986Y-84900633D01*
X157851110Y-85036272D01*
X157777484Y-85213584D01*
X157777316Y-85405574D01*
X157850633Y-85583014D01*
X157986272Y-85718890D01*
X158163584Y-85792516D01*
X158239689Y-85792583D01*
X159345400Y-86898294D01*
X159345400Y-91017247D01*
X159269926Y-91048432D01*
X159187435Y-91130779D01*
X159180265Y-91092673D01*
X159124636Y-91006224D01*
X159039756Y-90948228D01*
X158939000Y-90927824D01*
X157923000Y-90927824D01*
X157828873Y-90945535D01*
X157742424Y-91001164D01*
X157684428Y-91086044D01*
X157664024Y-91186800D01*
X153119100Y-91186800D01*
X153119100Y-90743596D01*
X154416597Y-89446099D01*
X155155901Y-89446099D01*
X155316284Y-89414197D01*
X155433950Y-89335574D01*
X157257316Y-89335574D01*
X157330633Y-89513014D01*
X157466272Y-89648890D01*
X157643584Y-89722516D01*
X157835574Y-89722684D01*
X158013014Y-89649367D01*
X158148890Y-89513728D01*
X158222516Y-89336416D01*
X158222684Y-89144426D01*
X158149367Y-88966986D01*
X158013728Y-88831110D01*
X157836416Y-88757484D01*
X157644426Y-88757316D01*
X157466986Y-88830633D01*
X157331110Y-88966272D01*
X157257484Y-89143584D01*
X157257316Y-89335574D01*
X155433950Y-89335574D01*
X155452249Y-89323347D01*
X155504679Y-89270917D01*
X155657514Y-89207767D01*
X155793390Y-89072128D01*
X155867016Y-88894816D01*
X155867184Y-88702826D01*
X155793867Y-88525386D01*
X155658228Y-88389510D01*
X155480916Y-88315884D01*
X155288926Y-88315716D01*
X155111486Y-88389033D01*
X154975610Y-88524672D01*
X154941051Y-88607899D01*
X154243001Y-88607899D01*
X154082618Y-88639801D01*
X153949824Y-88728532D01*
X153946653Y-88730651D01*
X152403652Y-90273652D01*
X152312802Y-90409617D01*
X152280900Y-90570000D01*
X152280900Y-93900000D01*
X152312802Y-94060383D01*
X152389004Y-94174426D01*
X152403652Y-94196348D01*
X152597482Y-94390178D01*
X152660633Y-94543014D01*
X152796272Y-94678890D01*
X152897685Y-94721000D01*
X152279000Y-94721000D01*
X152279000Y-88119274D01*
X153784216Y-88119274D01*
X153857533Y-88296714D01*
X153993172Y-88432590D01*
X154170484Y-88506216D01*
X154362474Y-88506384D01*
X154539914Y-88433067D01*
X154675790Y-88297428D01*
X154749416Y-88120116D01*
X154749584Y-87928126D01*
X154676267Y-87750686D01*
X154540628Y-87614810D01*
X154363316Y-87541184D01*
X154171326Y-87541016D01*
X153993886Y-87614333D01*
X153858010Y-87749972D01*
X153784384Y-87927284D01*
X153784216Y-88119274D01*
X152279000Y-88119274D01*
X152279000Y-83215697D01*
X152320000Y-83224000D01*
X152948002Y-83224000D01*
X152797219Y-83374521D01*
X152636403Y-83761807D01*
X152636037Y-84181154D01*
X152796176Y-84568720D01*
X153092441Y-84865501D01*
X153479727Y-85026317D01*
X153899074Y-85026683D01*
X154286640Y-84866544D01*
X154583421Y-84570279D01*
X154705793Y-84275574D01*
X167597316Y-84275574D01*
X167670633Y-84453014D01*
X167806272Y-84588890D01*
X167983584Y-84662516D01*
X168175574Y-84662684D01*
X168353014Y-84589367D01*
X168406875Y-84535600D01*
X170509417Y-84535600D01*
X173035264Y-87061447D01*
X173150629Y-87138532D01*
X173282174Y-87164698D01*
X173336272Y-87218890D01*
X173513584Y-87292516D01*
X173705574Y-87292684D01*
X173883014Y-87219367D01*
X174018890Y-87083728D01*
X174092516Y-86906416D01*
X174092684Y-86714426D01*
X174019367Y-86536986D01*
X173883728Y-86401110D01*
X173706416Y-86327484D01*
X173514426Y-86327316D01*
X173367592Y-86387987D01*
X170908158Y-83928553D01*
X170792794Y-83851468D01*
X170656711Y-83824400D01*
X168406925Y-83824400D01*
X168353728Y-83771110D01*
X168176416Y-83697484D01*
X167984426Y-83697316D01*
X167806986Y-83770633D01*
X167671110Y-83906272D01*
X167597484Y-84083584D01*
X167597316Y-84275574D01*
X154705793Y-84275574D01*
X154744237Y-84182993D01*
X154744603Y-83763646D01*
X154584464Y-83376080D01*
X154432648Y-83224000D01*
X155000000Y-83224000D01*
X155092318Y-83206629D01*
X155177107Y-83152069D01*
X155181468Y-83145685D01*
X155511348Y-83145685D01*
X155644862Y-83468812D01*
X155891867Y-83716249D01*
X156214761Y-83850327D01*
X156564385Y-83850632D01*
X156887512Y-83717118D01*
X157134949Y-83470113D01*
X157269027Y-83147219D01*
X157269332Y-82797595D01*
X157135818Y-82474468D01*
X156888813Y-82227031D01*
X156565919Y-82092953D01*
X156216295Y-82092648D01*
X155893168Y-82226162D01*
X155645731Y-82473167D01*
X155511653Y-82796061D01*
X155511348Y-83145685D01*
X155181468Y-83145685D01*
X155233988Y-83068820D01*
X155254000Y-82970000D01*
X155254000Y-81516250D01*
X155413586Y-81582516D01*
X155605576Y-81582684D01*
X155783016Y-81509367D01*
X155836877Y-81455600D01*
X156346086Y-81455600D01*
X157892672Y-83002186D01*
X157892606Y-83077484D01*
X157965923Y-83254924D01*
X158101562Y-83390800D01*
X158278874Y-83464426D01*
X158470864Y-83464594D01*
X158648304Y-83391277D01*
X158784180Y-83255638D01*
X158857806Y-83078326D01*
X158857974Y-82886336D01*
X158784657Y-82708896D01*
X158649018Y-82573020D01*
X158471706Y-82499394D01*
X158395601Y-82499327D01*
X156744827Y-80848553D01*
X156629463Y-80771468D01*
X156493380Y-80744400D01*
X155836927Y-80744400D01*
X155783730Y-80691110D01*
X155606418Y-80617484D01*
X155414428Y-80617316D01*
X155254000Y-80683604D01*
X155254000Y-79905574D01*
X169497316Y-79905574D01*
X169570633Y-80083014D01*
X169706272Y-80218890D01*
X169883584Y-80292516D01*
X170075574Y-80292684D01*
X170079877Y-80290906D01*
X179507868Y-80290906D01*
X179623632Y-80571074D01*
X179837798Y-80785615D01*
X180117764Y-80901867D01*
X180420906Y-80902132D01*
X180701074Y-80786368D01*
X180915615Y-80572202D01*
X181031867Y-80292236D01*
X181032110Y-80013550D01*
X182146000Y-80013550D01*
X182146000Y-80450524D01*
X182184669Y-80543879D01*
X182256120Y-80615331D01*
X182349476Y-80654000D01*
X182636450Y-80654000D01*
X182699950Y-80590500D01*
X182699950Y-79950050D01*
X182209500Y-79950050D01*
X182146000Y-80013550D01*
X181032110Y-80013550D01*
X181032132Y-79989094D01*
X180916368Y-79708926D01*
X180702202Y-79494385D01*
X180594050Y-79449476D01*
X182146000Y-79449476D01*
X182146000Y-79886450D01*
X182209500Y-79949950D01*
X182699950Y-79949950D01*
X182699950Y-79309500D01*
X182636450Y-79246000D01*
X182349476Y-79246000D01*
X182256120Y-79284669D01*
X182184669Y-79356121D01*
X182146000Y-79449476D01*
X180594050Y-79449476D01*
X180422236Y-79378133D01*
X180119094Y-79377868D01*
X179838926Y-79493632D01*
X179624385Y-79707798D01*
X179508133Y-79987764D01*
X179507868Y-80290906D01*
X170079877Y-80290906D01*
X170253014Y-80219367D01*
X170388890Y-80083728D01*
X170462516Y-79906416D01*
X170462684Y-79714426D01*
X170389367Y-79536986D01*
X170253728Y-79401110D01*
X170076416Y-79327484D01*
X169884426Y-79327316D01*
X169706986Y-79400633D01*
X169571110Y-79536272D01*
X169497484Y-79713584D01*
X169497316Y-79905574D01*
X155254000Y-79905574D01*
X155254000Y-79175574D01*
X171487316Y-79175574D01*
X171560633Y-79353014D01*
X171696272Y-79488890D01*
X171873584Y-79562516D01*
X172065574Y-79562684D01*
X172243014Y-79489367D01*
X172378890Y-79353728D01*
X172452516Y-79176416D01*
X172452583Y-79100311D01*
X172627294Y-78925600D01*
X172643075Y-78925600D01*
X172696272Y-78978890D01*
X172873584Y-79052516D01*
X173065574Y-79052684D01*
X173243014Y-78979367D01*
X173378890Y-78843728D01*
X173452516Y-78666416D01*
X173452684Y-78474426D01*
X173379367Y-78296986D01*
X173243728Y-78161110D01*
X173066416Y-78087484D01*
X172874426Y-78087316D01*
X172696986Y-78160633D01*
X172643125Y-78214400D01*
X172480000Y-78214400D01*
X172343917Y-78241468D01*
X172228553Y-78318553D01*
X171949724Y-78597382D01*
X171874426Y-78597316D01*
X171696986Y-78670633D01*
X171561110Y-78806272D01*
X171487484Y-78983584D01*
X171487316Y-79175574D01*
X155254000Y-79175574D01*
X155254000Y-78146965D01*
X155511348Y-78146965D01*
X155644862Y-78470092D01*
X155891867Y-78717529D01*
X156214761Y-78851607D01*
X156564385Y-78851912D01*
X156887512Y-78718398D01*
X157134949Y-78471393D01*
X157269027Y-78148499D01*
X157269332Y-77798875D01*
X157135818Y-77475748D01*
X157011317Y-77351029D01*
X167069289Y-77351029D01*
X167142606Y-77528469D01*
X167278245Y-77664345D01*
X167455557Y-77737971D01*
X167647547Y-77738139D01*
X167824987Y-77664822D01*
X167960863Y-77529183D01*
X168034489Y-77351871D01*
X168034657Y-77159881D01*
X167961340Y-76982441D01*
X167825701Y-76846565D01*
X167648389Y-76772939D01*
X167456399Y-76772771D01*
X167278959Y-76846088D01*
X167143083Y-76981727D01*
X167069457Y-77159039D01*
X167069289Y-77351029D01*
X157011317Y-77351029D01*
X156888813Y-77228311D01*
X156565919Y-77094233D01*
X156216295Y-77093928D01*
X155893168Y-77227442D01*
X155645731Y-77474447D01*
X155511653Y-77797341D01*
X155511348Y-78146965D01*
X155254000Y-78146965D01*
X155254000Y-77880000D01*
X155236629Y-77787682D01*
X155182069Y-77702893D01*
X155098820Y-77646012D01*
X155000000Y-77626000D01*
X154527363Y-77626000D01*
X154583421Y-77570039D01*
X154744237Y-77182753D01*
X154744603Y-76763406D01*
X154584464Y-76375840D01*
X154288199Y-76079059D01*
X153900913Y-75918243D01*
X153481566Y-75917877D01*
X153094000Y-76078016D01*
X152797219Y-76374281D01*
X152636403Y-76761567D01*
X152636037Y-77180914D01*
X152796176Y-77568480D01*
X152853596Y-77626000D01*
X152320000Y-77626000D01*
X152279000Y-77633715D01*
X152279000Y-74330000D01*
X159661024Y-74330000D01*
X159661024Y-74930000D01*
X159678735Y-75024127D01*
X159734364Y-75110576D01*
X159819244Y-75168572D01*
X159829320Y-75170613D01*
X159841468Y-75231685D01*
X159918553Y-75347049D01*
X160561780Y-75990277D01*
X160561714Y-76065574D01*
X160635031Y-76243014D01*
X160770670Y-76378890D01*
X160947982Y-76452516D01*
X161139972Y-76452684D01*
X161146000Y-76450193D01*
X161146000Y-76930524D01*
X161184669Y-77023879D01*
X161256120Y-77095331D01*
X161349476Y-77134000D01*
X161686450Y-77134000D01*
X161749950Y-77070500D01*
X161749950Y-76230050D01*
X161750050Y-76230050D01*
X161750050Y-77070500D01*
X161813550Y-77134000D01*
X162150524Y-77134000D01*
X162243880Y-77095331D01*
X162315331Y-77023879D01*
X162354000Y-76930524D01*
X162354000Y-76293550D01*
X162290500Y-76230050D01*
X161750050Y-76230050D01*
X161749950Y-76230050D01*
X161729950Y-76230050D01*
X161729950Y-76229950D01*
X161749950Y-76229950D01*
X161749950Y-75389500D01*
X161686450Y-75326000D01*
X161349476Y-75326000D01*
X161256120Y-75364669D01*
X161184669Y-75436121D01*
X161160080Y-75495484D01*
X161140814Y-75487484D01*
X161064710Y-75487417D01*
X160638063Y-75060771D01*
X160658572Y-75030756D01*
X160667843Y-74984974D01*
X160704669Y-75073879D01*
X160776120Y-75145331D01*
X160869476Y-75184000D01*
X161106450Y-75184000D01*
X161169950Y-75120500D01*
X161169950Y-74630050D01*
X161170050Y-74630050D01*
X161170050Y-75120500D01*
X161233550Y-75184000D01*
X161470524Y-75184000D01*
X161563880Y-75145331D01*
X161635331Y-75073879D01*
X161674000Y-74980524D01*
X161674000Y-74693550D01*
X161610500Y-74630050D01*
X161170050Y-74630050D01*
X161169950Y-74630050D01*
X161149950Y-74630050D01*
X161149950Y-74629950D01*
X161169950Y-74629950D01*
X161169950Y-74139500D01*
X161170050Y-74139500D01*
X161170050Y-74629950D01*
X161610500Y-74629950D01*
X161674000Y-74566450D01*
X161674000Y-74279476D01*
X161635331Y-74186121D01*
X161563880Y-74114669D01*
X161470524Y-74076000D01*
X161233550Y-74076000D01*
X161170050Y-74139500D01*
X161169950Y-74139500D01*
X161106450Y-74076000D01*
X160869476Y-74076000D01*
X160776120Y-74114669D01*
X160704669Y-74186121D01*
X160668386Y-74273717D01*
X160661265Y-74235873D01*
X160605636Y-74149424D01*
X160520756Y-74091428D01*
X160420000Y-74071024D01*
X159920000Y-74071024D01*
X159825873Y-74088735D01*
X159739424Y-74144364D01*
X159681428Y-74229244D01*
X159661024Y-74330000D01*
X152279000Y-74330000D01*
X152279000Y-72772000D01*
X161368024Y-72772000D01*
X161368024Y-73788000D01*
X161385735Y-73882127D01*
X161441364Y-73968576D01*
X161526244Y-74026572D01*
X161627000Y-74046976D01*
X161790494Y-74046976D01*
X161806468Y-74127283D01*
X161883553Y-74242647D01*
X162296742Y-74655836D01*
X162220015Y-74655769D01*
X162042575Y-74729086D01*
X161906699Y-74864725D01*
X161833073Y-75042037D01*
X161832905Y-75234027D01*
X161870908Y-75326000D01*
X161813550Y-75326000D01*
X161750050Y-75389500D01*
X161750050Y-76229950D01*
X162290500Y-76229950D01*
X162354000Y-76166450D01*
X162354000Y-75990094D01*
X162845353Y-76481447D01*
X162960717Y-76558532D01*
X163041024Y-76574506D01*
X163041024Y-76880000D01*
X163058735Y-76974127D01*
X163114364Y-77060576D01*
X163199244Y-77118572D01*
X163300000Y-77138976D01*
X164000000Y-77138976D01*
X164094127Y-77121265D01*
X164180576Y-77065636D01*
X164238572Y-76980756D01*
X164258976Y-76880000D01*
X164258976Y-75580000D01*
X164241265Y-75485873D01*
X164185636Y-75399424D01*
X164100756Y-75341428D01*
X164000000Y-75321024D01*
X163300000Y-75321024D01*
X163205873Y-75338735D01*
X163119424Y-75394364D01*
X163061428Y-75479244D01*
X163041024Y-75580000D01*
X163041024Y-75671330D01*
X162741319Y-75371625D01*
X162798105Y-75234869D01*
X162798273Y-75042879D01*
X162724956Y-74865439D01*
X162685186Y-74825600D01*
X163093075Y-74825600D01*
X163146272Y-74878890D01*
X163323584Y-74952516D01*
X163515574Y-74952684D01*
X163693014Y-74879367D01*
X163828890Y-74743728D01*
X163857189Y-74675574D01*
X165987316Y-74675574D01*
X166060633Y-74853014D01*
X166196272Y-74988890D01*
X166373584Y-75062516D01*
X166523522Y-75062647D01*
X166554364Y-75110576D01*
X166639244Y-75168572D01*
X166740000Y-75188976D01*
X166986082Y-75188976D01*
X167367382Y-75570276D01*
X167367316Y-75645574D01*
X167440633Y-75823014D01*
X167576272Y-75958890D01*
X167753584Y-76032516D01*
X167945574Y-76032684D01*
X168123014Y-75959367D01*
X168258890Y-75823728D01*
X168332516Y-75646416D01*
X168332684Y-75454426D01*
X168259367Y-75276986D01*
X168150376Y-75167804D01*
X168189476Y-75184000D01*
X168476450Y-75184000D01*
X168539950Y-75120500D01*
X168539950Y-74480050D01*
X168049500Y-74480050D01*
X167986000Y-74543550D01*
X167986000Y-74980524D01*
X168024669Y-75073879D01*
X168069298Y-75118509D01*
X167946416Y-75067484D01*
X167870311Y-75067417D01*
X167598976Y-74796082D01*
X167598976Y-74030000D01*
X167589470Y-73979476D01*
X167986000Y-73979476D01*
X167986000Y-74416450D01*
X168049500Y-74479950D01*
X168539950Y-74479950D01*
X168539950Y-73839500D01*
X168540050Y-73839500D01*
X168540050Y-74479950D01*
X168560050Y-74479950D01*
X168560050Y-74480050D01*
X168540050Y-74480050D01*
X168540050Y-75120500D01*
X168603550Y-75184000D01*
X168890524Y-75184000D01*
X168934014Y-75165986D01*
X168990633Y-75303014D01*
X169126272Y-75438890D01*
X169303584Y-75512516D01*
X169495574Y-75512684D01*
X169673014Y-75439367D01*
X169808890Y-75303728D01*
X169882516Y-75126416D01*
X169882684Y-74934426D01*
X169809367Y-74756986D01*
X169781000Y-74728569D01*
X169781000Y-74648614D01*
X170073424Y-74356190D01*
X170073424Y-75031600D01*
X170091135Y-75125727D01*
X170146764Y-75212176D01*
X170231644Y-75270172D01*
X170332400Y-75290576D01*
X171348400Y-75290576D01*
X171442527Y-75272865D01*
X171528976Y-75217236D01*
X171586972Y-75132356D01*
X171607376Y-75031600D01*
X171607376Y-74015600D01*
X171589665Y-73921473D01*
X171534036Y-73835024D01*
X171449156Y-73777028D01*
X171348400Y-73756624D01*
X170672990Y-73756624D01*
X171208614Y-73221000D01*
X178168431Y-73221000D01*
X178196272Y-73248890D01*
X178373584Y-73322516D01*
X178565574Y-73322684D01*
X178743014Y-73249367D01*
X178878890Y-73113728D01*
X178952516Y-72936416D01*
X178952684Y-72744426D01*
X178879367Y-72566986D01*
X178743728Y-72431110D01*
X178566416Y-72357484D01*
X178374426Y-72357316D01*
X178196986Y-72430633D01*
X178168569Y-72459000D01*
X171050803Y-72459000D01*
X171050798Y-72458999D01*
X170904995Y-72488002D01*
X170781390Y-72570592D01*
X169130592Y-74221390D01*
X169094000Y-74276154D01*
X169094000Y-73979476D01*
X169055331Y-73886121D01*
X168983880Y-73814669D01*
X168890524Y-73776000D01*
X168603550Y-73776000D01*
X168540050Y-73839500D01*
X168539950Y-73839500D01*
X168476450Y-73776000D01*
X168189476Y-73776000D01*
X168096120Y-73814669D01*
X168024669Y-73886121D01*
X167986000Y-73979476D01*
X167589470Y-73979476D01*
X167581265Y-73935873D01*
X167525636Y-73849424D01*
X167440756Y-73791428D01*
X167340000Y-73771024D01*
X166740000Y-73771024D01*
X166645873Y-73788735D01*
X166559424Y-73844364D01*
X166501428Y-73929244D01*
X166481024Y-74030000D01*
X166481024Y-74097409D01*
X166374426Y-74097316D01*
X166196986Y-74170633D01*
X166061110Y-74306272D01*
X165987484Y-74483584D01*
X165987316Y-74675574D01*
X163857189Y-74675574D01*
X163902516Y-74566416D01*
X163902684Y-74374426D01*
X163829367Y-74196986D01*
X163693728Y-74061110D01*
X163602078Y-74023054D01*
X163836074Y-73926368D01*
X164050615Y-73712202D01*
X164166867Y-73432236D01*
X164167132Y-73129094D01*
X164058247Y-72865574D01*
X166247316Y-72865574D01*
X166320633Y-73043014D01*
X166456272Y-73178890D01*
X166633584Y-73252516D01*
X166825574Y-73252684D01*
X167003014Y-73179367D01*
X167138890Y-73043728D01*
X167212516Y-72866416D01*
X167212684Y-72674426D01*
X167139367Y-72496986D01*
X167003728Y-72361110D01*
X166826416Y-72287484D01*
X166634426Y-72287316D01*
X166456986Y-72360633D01*
X166321110Y-72496272D01*
X166247484Y-72673584D01*
X166247316Y-72865574D01*
X164058247Y-72865574D01*
X164051368Y-72848926D01*
X163837202Y-72634385D01*
X163557236Y-72518133D01*
X163254094Y-72517868D01*
X162973926Y-72633632D01*
X162891435Y-72715979D01*
X162884265Y-72677873D01*
X162828636Y-72591424D01*
X162743756Y-72533428D01*
X162643000Y-72513024D01*
X161627000Y-72513024D01*
X161532873Y-72530735D01*
X161446424Y-72586364D01*
X161388428Y-72671244D01*
X161368024Y-72772000D01*
X152279000Y-72772000D01*
X152279000Y-72279000D01*
X182700478Y-72279000D01*
X182740161Y-72338390D01*
G36*
X165687484Y-86723582D02*
X165687316Y-86915572D01*
X165760633Y-87093012D01*
X165781024Y-87113439D01*
X165781024Y-87470000D01*
X165798735Y-87564127D01*
X165854364Y-87650576D01*
X165939244Y-87708572D01*
X166040000Y-87728976D01*
X166540000Y-87728976D01*
X166634127Y-87711265D01*
X166720576Y-87655636D01*
X166778572Y-87570756D01*
X166787843Y-87524974D01*
X166824669Y-87613879D01*
X166896120Y-87685331D01*
X166989476Y-87724000D01*
X167226450Y-87724000D01*
X167289950Y-87660500D01*
X167289950Y-87170050D01*
X167290050Y-87170050D01*
X167290050Y-87660500D01*
X167353550Y-87724000D01*
X167590524Y-87724000D01*
X167683880Y-87685331D01*
X167755331Y-87613879D01*
X167794000Y-87520524D01*
X167794000Y-87233550D01*
X167730500Y-87170050D01*
X167290050Y-87170050D01*
X167289950Y-87170050D01*
X167269950Y-87170050D01*
X167269950Y-87169950D01*
X167289950Y-87169950D01*
X167289950Y-87149950D01*
X167290050Y-87149950D01*
X167290050Y-87169950D01*
X167730500Y-87169950D01*
X167794000Y-87106450D01*
X167794000Y-86819476D01*
X167759704Y-86736678D01*
X168927413Y-87904386D01*
X168927316Y-88015574D01*
X168962862Y-88101601D01*
X165094495Y-88101601D01*
X163802618Y-86809724D01*
X163802684Y-86734426D01*
X163791929Y-86708398D01*
X165693789Y-86708398D01*
X165687484Y-86723582D01*
X165687484Y-86723582D01*
G37*
X165687484Y-86723582D02*
X165687316Y-86915572D01*
X165760633Y-87093012D01*
X165781024Y-87113439D01*
X165781024Y-87470000D01*
X165798735Y-87564127D01*
X165854364Y-87650576D01*
X165939244Y-87708572D01*
X166040000Y-87728976D01*
X166540000Y-87728976D01*
X166634127Y-87711265D01*
X166720576Y-87655636D01*
X166778572Y-87570756D01*
X166787843Y-87524974D01*
X166824669Y-87613879D01*
X166896120Y-87685331D01*
X166989476Y-87724000D01*
X167226450Y-87724000D01*
X167289950Y-87660500D01*
X167289950Y-87170050D01*
X167290050Y-87170050D01*
X167290050Y-87660500D01*
X167353550Y-87724000D01*
X167590524Y-87724000D01*
X167683880Y-87685331D01*
X167755331Y-87613879D01*
X167794000Y-87520524D01*
X167794000Y-87233550D01*
X167730500Y-87170050D01*
X167290050Y-87170050D01*
X167289950Y-87170050D01*
X167269950Y-87170050D01*
X167269950Y-87169950D01*
X167289950Y-87169950D01*
X167289950Y-87149950D01*
X167290050Y-87149950D01*
X167290050Y-87169950D01*
X167730500Y-87169950D01*
X167794000Y-87106450D01*
X167794000Y-86819476D01*
X167759704Y-86736678D01*
X168927413Y-87904386D01*
X168927316Y-88015574D01*
X168962862Y-88101601D01*
X165094495Y-88101601D01*
X163802618Y-86809724D01*
X163802684Y-86734426D01*
X163791929Y-86708398D01*
X165693789Y-86708398D01*
X165687484Y-86723582D01*
G36*
X213106000Y-72716450D02*
X213169500Y-72779950D01*
X215459950Y-72779950D01*
X215459950Y-72759950D01*
X215460050Y-72759950D01*
X215460050Y-72779950D01*
X215480050Y-72779950D01*
X215480050Y-72780050D01*
X215460050Y-72780050D01*
X215460050Y-73520500D01*
X215523550Y-73584000D01*
X217610524Y-73584000D01*
X217681000Y-73554808D01*
X217681000Y-77005192D01*
X217610524Y-76976000D01*
X215523550Y-76976000D01*
X215460050Y-77039500D01*
X215460050Y-77779950D01*
X215480050Y-77779950D01*
X215480050Y-77780050D01*
X215460050Y-77780050D01*
X215460050Y-78520500D01*
X215523550Y-78584000D01*
X217610524Y-78584000D01*
X217681000Y-78554808D01*
X217681000Y-80049948D01*
X217621642Y-80089615D01*
X217452545Y-80123268D01*
X213242890Y-80123743D01*
X213230955Y-80124685D01*
X213076257Y-80149237D01*
X213053558Y-80156625D01*
X212914047Y-80227836D01*
X212894748Y-80241885D01*
X212784116Y-80352767D01*
X212770111Y-80372098D01*
X212699214Y-80511768D01*
X212691876Y-80534483D01*
X212667672Y-80689236D01*
X212666757Y-80701174D01*
X212672717Y-83493038D01*
X212651303Y-83629939D01*
X212591331Y-83748067D01*
X212497748Y-83841842D01*
X212379739Y-83902056D01*
X212242888Y-83923749D01*
X195150052Y-83922182D01*
X195138131Y-83923119D01*
X194983612Y-83947579D01*
X194960936Y-83954945D01*
X194821539Y-84025960D01*
X194802250Y-84039973D01*
X194691623Y-84150590D01*
X194677608Y-84169878D01*
X194606580Y-84309268D01*
X194599212Y-84331943D01*
X194574737Y-84486460D01*
X194573799Y-84498381D01*
X194573792Y-89144599D01*
X194552145Y-89281268D01*
X194492082Y-89399145D01*
X194398531Y-89492694D01*
X194280652Y-89552754D01*
X194143985Y-89574397D01*
X184507498Y-89574164D01*
X184338380Y-89540521D01*
X184201380Y-89448977D01*
X184109838Y-89311973D01*
X184076200Y-89142858D01*
X184076200Y-83725574D01*
X184617316Y-83725574D01*
X184690633Y-83903014D01*
X184826272Y-84038890D01*
X185003584Y-84112516D01*
X185195574Y-84112684D01*
X185373014Y-84039367D01*
X185508890Y-83903728D01*
X185570398Y-83755600D01*
X186233075Y-83755600D01*
X186286272Y-83808890D01*
X186463584Y-83882516D01*
X186655574Y-83882684D01*
X186833014Y-83809367D01*
X186968890Y-83673728D01*
X187042516Y-83496416D01*
X187042684Y-83304426D01*
X186969367Y-83126986D01*
X186833728Y-82991110D01*
X186656416Y-82917484D01*
X186464426Y-82917316D01*
X186286986Y-82990633D01*
X186233125Y-83044400D01*
X185330000Y-83044400D01*
X185193917Y-83071468D01*
X185080305Y-83147382D01*
X185004426Y-83147316D01*
X184826986Y-83220633D01*
X184691110Y-83356272D01*
X184617484Y-83533584D01*
X184617316Y-83725574D01*
X184076200Y-83725574D01*
X184076200Y-81852111D01*
X184136898Y-81912915D01*
X184416864Y-82029167D01*
X184720006Y-82029432D01*
X185000174Y-81913668D01*
X185214715Y-81699502D01*
X185330967Y-81419536D01*
X185331232Y-81116394D01*
X185215468Y-80836226D01*
X185001302Y-80621685D01*
X184729800Y-80508948D01*
X184754000Y-80450524D01*
X184754000Y-80013550D01*
X184690500Y-79950050D01*
X184200050Y-79950050D01*
X184200050Y-79970050D01*
X184199950Y-79970050D01*
X184199950Y-79950050D01*
X184179950Y-79950050D01*
X184179950Y-79949950D01*
X184199950Y-79949950D01*
X184199950Y-79309500D01*
X184200050Y-79309500D01*
X184200050Y-79949950D01*
X184690500Y-79949950D01*
X184754000Y-79886450D01*
X184754000Y-79850000D01*
X185540400Y-79850000D01*
X185540400Y-80350000D01*
X185586803Y-80583284D01*
X185718948Y-80781052D01*
X185818947Y-80881052D01*
X186016716Y-81013197D01*
X186250000Y-81059599D01*
X186483283Y-81013197D01*
X186681052Y-80881052D01*
X186715241Y-80829885D01*
X186780232Y-80987174D01*
X186994398Y-81201715D01*
X187274364Y-81317967D01*
X187577506Y-81318232D01*
X187857674Y-81202468D01*
X188072215Y-80988302D01*
X188147984Y-80805830D01*
X188188198Y-80846115D01*
X188468164Y-80962367D01*
X188771306Y-80962632D01*
X189051474Y-80846868D01*
X189266015Y-80632702D01*
X189382267Y-80352736D01*
X189382532Y-80049594D01*
X189266768Y-79769426D01*
X189145381Y-79647826D01*
X192094988Y-79647826D01*
X192210752Y-79927994D01*
X192424918Y-80142535D01*
X192704884Y-80258787D01*
X193008026Y-80259052D01*
X193288194Y-80143288D01*
X193502735Y-79929122D01*
X193618987Y-79649156D01*
X193619252Y-79346014D01*
X193509918Y-79081406D01*
X193751068Y-79081406D01*
X193866832Y-79361574D01*
X194080998Y-79576115D01*
X194360964Y-79692367D01*
X194511998Y-79692499D01*
X194411733Y-79933964D01*
X194411468Y-80237106D01*
X194527232Y-80517274D01*
X194741398Y-80731815D01*
X195021364Y-80848067D01*
X195324506Y-80848332D01*
X195604674Y-80732568D01*
X195819215Y-80518402D01*
X195840476Y-80467200D01*
X196579300Y-80467200D01*
X196725103Y-80438198D01*
X196848708Y-80355608D01*
X197208742Y-79995574D01*
X198467316Y-79995574D01*
X198540633Y-80173014D01*
X198676272Y-80308890D01*
X198853584Y-80382516D01*
X199045574Y-80382684D01*
X199223014Y-80309367D01*
X199358890Y-80173728D01*
X199432516Y-79996416D01*
X199432684Y-79804426D01*
X199359367Y-79626986D01*
X199223728Y-79491110D01*
X199046416Y-79417484D01*
X198854426Y-79417316D01*
X198676986Y-79490633D01*
X198541110Y-79626272D01*
X198467484Y-79803584D01*
X198467316Y-79995574D01*
X197208742Y-79995574D01*
X197322608Y-79881708D01*
X197405198Y-79758102D01*
X197434201Y-79612300D01*
X197434200Y-79612295D01*
X197434200Y-79602035D01*
X197447327Y-79599565D01*
X197533776Y-79543936D01*
X197591772Y-79459056D01*
X197612176Y-79358300D01*
X197612176Y-78858300D01*
X197594465Y-78764173D01*
X197538836Y-78677724D01*
X197453956Y-78619728D01*
X197399152Y-78608630D01*
X197447327Y-78599565D01*
X197533776Y-78543936D01*
X197591772Y-78459056D01*
X197612176Y-78358300D01*
X197612176Y-77858300D01*
X197594465Y-77764173D01*
X197538836Y-77677724D01*
X197453956Y-77619728D01*
X197434200Y-77615727D01*
X197434200Y-77538916D01*
X197833266Y-77139850D01*
X197872674Y-77139884D01*
X198050114Y-77066567D01*
X198185990Y-76930928D01*
X198259616Y-76753616D01*
X198259784Y-76561626D01*
X198186467Y-76384186D01*
X198050828Y-76248310D01*
X197873516Y-76174684D01*
X197681526Y-76174516D01*
X197548485Y-76229487D01*
X197548632Y-76061794D01*
X197503545Y-75952674D01*
X204038116Y-75952674D01*
X204111433Y-76130114D01*
X204165200Y-76183975D01*
X204165200Y-79470800D01*
X204170349Y-79496685D01*
X204167484Y-79503584D01*
X204167316Y-79695574D01*
X204240633Y-79873014D01*
X204376272Y-80008890D01*
X204553584Y-80082516D01*
X204745574Y-80082684D01*
X204923014Y-80009367D01*
X205058890Y-79873728D01*
X205132516Y-79696416D01*
X205132684Y-79504426D01*
X205059367Y-79326986D01*
X204923728Y-79191110D01*
X204876400Y-79171458D01*
X204876400Y-78913550D01*
X205586900Y-78913550D01*
X205586900Y-79200524D01*
X205625569Y-79293879D01*
X205697020Y-79365331D01*
X205790376Y-79404000D01*
X206027350Y-79404000D01*
X206090850Y-79340500D01*
X206090850Y-78850050D01*
X205650400Y-78850050D01*
X205586900Y-78913550D01*
X204876400Y-78913550D01*
X204876400Y-78323490D01*
X205586900Y-78323490D01*
X205586900Y-78786450D01*
X205650400Y-78849950D01*
X206090850Y-78849950D01*
X206090850Y-78259990D01*
X205650400Y-78259990D01*
X205586900Y-78323490D01*
X204876400Y-78323490D01*
X204876400Y-77909416D01*
X205586900Y-77909416D01*
X205586900Y-78196390D01*
X205650400Y-78259890D01*
X206090850Y-78259890D01*
X206090850Y-77769440D01*
X206090950Y-77769440D01*
X206090950Y-78259890D01*
X206110950Y-78259890D01*
X206110950Y-78259990D01*
X206090950Y-78259990D01*
X206090950Y-78849950D01*
X206110950Y-78849950D01*
X206110950Y-78850050D01*
X206090950Y-78850050D01*
X206090950Y-79340500D01*
X206154450Y-79404000D01*
X206391424Y-79404000D01*
X206484780Y-79365331D01*
X206556231Y-79293879D01*
X206592514Y-79206283D01*
X206599635Y-79244127D01*
X206655264Y-79330576D01*
X206740144Y-79388572D01*
X206838790Y-79408549D01*
X206925657Y-79466591D01*
X207090900Y-79499460D01*
X207116636Y-79494341D01*
X207173240Y-79505600D01*
X208461572Y-79505600D01*
X208611442Y-79655732D01*
X208830748Y-79746796D01*
X209068210Y-79747003D01*
X209287675Y-79656322D01*
X209455732Y-79488558D01*
X209546796Y-79269252D01*
X209547003Y-79031790D01*
X209456322Y-78812325D01*
X209288558Y-78644268D01*
X209069252Y-78553204D01*
X208831790Y-78552997D01*
X208612325Y-78643678D01*
X208461340Y-78794400D01*
X207599876Y-78794400D01*
X207599876Y-77959940D01*
X207582165Y-77865813D01*
X207567839Y-77843550D01*
X213106000Y-77843550D01*
X213106000Y-78380524D01*
X213144669Y-78473880D01*
X213216121Y-78545331D01*
X213309476Y-78584000D01*
X215396450Y-78584000D01*
X215459950Y-78520500D01*
X215459950Y-77780050D01*
X213169500Y-77780050D01*
X213106000Y-77843550D01*
X207567839Y-77843550D01*
X207526536Y-77779364D01*
X207441656Y-77721368D01*
X207340900Y-77700964D01*
X206840900Y-77700964D01*
X206746773Y-77718675D01*
X206660324Y-77774304D01*
X206602328Y-77859184D01*
X206593057Y-77904966D01*
X206556231Y-77816061D01*
X206484780Y-77744609D01*
X206391424Y-77705940D01*
X206154450Y-77705940D01*
X206090950Y-77769440D01*
X206090850Y-77769440D01*
X206027350Y-77705940D01*
X205790376Y-77705940D01*
X205697020Y-77744609D01*
X205625569Y-77816061D01*
X205586900Y-77909416D01*
X204876400Y-77909416D01*
X204876400Y-77179476D01*
X213106000Y-77179476D01*
X213106000Y-77716450D01*
X213169500Y-77779950D01*
X215459950Y-77779950D01*
X215459950Y-77039500D01*
X215396450Y-76976000D01*
X213309476Y-76976000D01*
X213216121Y-77014669D01*
X213144669Y-77086120D01*
X213106000Y-77179476D01*
X204876400Y-77179476D01*
X204876400Y-76184025D01*
X204929690Y-76130828D01*
X205003316Y-75953516D01*
X205003484Y-75761526D01*
X204930167Y-75584086D01*
X204797220Y-75450906D01*
X209637868Y-75450906D01*
X209753632Y-75731074D01*
X209967798Y-75945615D01*
X210247764Y-76061867D01*
X210550906Y-76062132D01*
X210831074Y-75946368D01*
X211045615Y-75732202D01*
X211161867Y-75452236D01*
X211162132Y-75149094D01*
X211046368Y-74868926D01*
X210832202Y-74654385D01*
X210552236Y-74538133D01*
X210249094Y-74537868D01*
X209968926Y-74653632D01*
X209754385Y-74867798D01*
X209638133Y-75147764D01*
X209637868Y-75450906D01*
X204797220Y-75450906D01*
X204794528Y-75448210D01*
X204617216Y-75374584D01*
X204425226Y-75374416D01*
X204247786Y-75447733D01*
X204111910Y-75583372D01*
X204038284Y-75760684D01*
X204038116Y-75952674D01*
X197503545Y-75952674D01*
X197432868Y-75781626D01*
X197218702Y-75567085D01*
X196938736Y-75450833D01*
X196635594Y-75450568D01*
X196355426Y-75566332D01*
X196140885Y-75780498D01*
X196024633Y-76060464D01*
X196024368Y-76363606D01*
X196140132Y-76643774D01*
X196354298Y-76858315D01*
X196634264Y-76974567D01*
X196920667Y-76974817D01*
X196783792Y-77111692D01*
X196701202Y-77235297D01*
X196701202Y-77235298D01*
X196672200Y-77381100D01*
X196672200Y-77614565D01*
X196659073Y-77617035D01*
X196572624Y-77672664D01*
X196569137Y-77677768D01*
X196560936Y-77665024D01*
X196476056Y-77607028D01*
X196375300Y-77586624D01*
X195775300Y-77586624D01*
X195681173Y-77604335D01*
X195594724Y-77659964D01*
X195536728Y-77744844D01*
X195516324Y-77845600D01*
X195516324Y-78345600D01*
X195534035Y-78439727D01*
X195589664Y-78526176D01*
X195674544Y-78584172D01*
X195729348Y-78595270D01*
X195681173Y-78604335D01*
X195594724Y-78659964D01*
X195557393Y-78714600D01*
X195248477Y-78714600D01*
X195159568Y-78499426D01*
X194945402Y-78284885D01*
X194665436Y-78168633D01*
X194362294Y-78168368D01*
X194082126Y-78284132D01*
X193867585Y-78498298D01*
X193751333Y-78778264D01*
X193751068Y-79081406D01*
X193509918Y-79081406D01*
X193503488Y-79065846D01*
X193289322Y-78851305D01*
X193009356Y-78735053D01*
X192706214Y-78734788D01*
X192426046Y-78850552D01*
X192211505Y-79064718D01*
X192095253Y-79344684D01*
X192094988Y-79647826D01*
X189145381Y-79647826D01*
X189052602Y-79554885D01*
X188772636Y-79438633D01*
X188469494Y-79438368D01*
X188189326Y-79554132D01*
X187974785Y-79768298D01*
X187899016Y-79950770D01*
X187858802Y-79910485D01*
X187578836Y-79794233D01*
X187275694Y-79793968D01*
X186995526Y-79909732D01*
X186780985Y-80123898D01*
X186769561Y-80151410D01*
X186759600Y-80136502D01*
X186759600Y-79850000D01*
X186713197Y-79616716D01*
X186581052Y-79418948D01*
X186383284Y-79286803D01*
X186150000Y-79240400D01*
X185916716Y-79286803D01*
X185718948Y-79418948D01*
X185586803Y-79616716D01*
X185540400Y-79850000D01*
X184754000Y-79850000D01*
X184754000Y-79449476D01*
X184715331Y-79356121D01*
X184643880Y-79284669D01*
X184550524Y-79246000D01*
X184263550Y-79246000D01*
X184200050Y-79309500D01*
X184199950Y-79309500D01*
X184136450Y-79246000D01*
X184076200Y-79246000D01*
X184076200Y-78278766D01*
X190819908Y-78278766D01*
X190935672Y-78558934D01*
X191149838Y-78773475D01*
X191429804Y-78889727D01*
X191732946Y-78889992D01*
X192013114Y-78774228D01*
X192227655Y-78560062D01*
X192343907Y-78280096D01*
X192344172Y-77976954D01*
X192228408Y-77696786D01*
X192014242Y-77482245D01*
X191734276Y-77365993D01*
X191431134Y-77365728D01*
X191150966Y-77481492D01*
X190936425Y-77695658D01*
X190820173Y-77975624D01*
X190819908Y-78278766D01*
X184076200Y-78278766D01*
X184076200Y-72843550D01*
X213106000Y-72843550D01*
X213106000Y-73380524D01*
X213144669Y-73473880D01*
X213216121Y-73545331D01*
X213309476Y-73584000D01*
X215396450Y-73584000D01*
X215459950Y-73520500D01*
X215459950Y-72780050D01*
X213169500Y-72780050D01*
X213106000Y-72843550D01*
X184076200Y-72843550D01*
X184076200Y-72507506D01*
X184109839Y-72338390D01*
X184149522Y-72279000D01*
X213106000Y-72279000D01*
X213106000Y-72716450D01*
X213106000Y-72716450D01*
G37*
X213106000Y-72716450D02*
X213169500Y-72779950D01*
X215459950Y-72779950D01*
X215459950Y-72759950D01*
X215460050Y-72759950D01*
X215460050Y-72779950D01*
X215480050Y-72779950D01*
X215480050Y-72780050D01*
X215460050Y-72780050D01*
X215460050Y-73520500D01*
X215523550Y-73584000D01*
X217610524Y-73584000D01*
X217681000Y-73554808D01*
X217681000Y-77005192D01*
X217610524Y-76976000D01*
X215523550Y-76976000D01*
X215460050Y-77039500D01*
X215460050Y-77779950D01*
X215480050Y-77779950D01*
X215480050Y-77780050D01*
X215460050Y-77780050D01*
X215460050Y-78520500D01*
X215523550Y-78584000D01*
X217610524Y-78584000D01*
X217681000Y-78554808D01*
X217681000Y-80049948D01*
X217621642Y-80089615D01*
X217452545Y-80123268D01*
X213242890Y-80123743D01*
X213230955Y-80124685D01*
X213076257Y-80149237D01*
X213053558Y-80156625D01*
X212914047Y-80227836D01*
X212894748Y-80241885D01*
X212784116Y-80352767D01*
X212770111Y-80372098D01*
X212699214Y-80511768D01*
X212691876Y-80534483D01*
X212667672Y-80689236D01*
X212666757Y-80701174D01*
X212672717Y-83493038D01*
X212651303Y-83629939D01*
X212591331Y-83748067D01*
X212497748Y-83841842D01*
X212379739Y-83902056D01*
X212242888Y-83923749D01*
X195150052Y-83922182D01*
X195138131Y-83923119D01*
X194983612Y-83947579D01*
X194960936Y-83954945D01*
X194821539Y-84025960D01*
X194802250Y-84039973D01*
X194691623Y-84150590D01*
X194677608Y-84169878D01*
X194606580Y-84309268D01*
X194599212Y-84331943D01*
X194574737Y-84486460D01*
X194573799Y-84498381D01*
X194573792Y-89144599D01*
X194552145Y-89281268D01*
X194492082Y-89399145D01*
X194398531Y-89492694D01*
X194280652Y-89552754D01*
X194143985Y-89574397D01*
X184507498Y-89574164D01*
X184338380Y-89540521D01*
X184201380Y-89448977D01*
X184109838Y-89311973D01*
X184076200Y-89142858D01*
X184076200Y-83725574D01*
X184617316Y-83725574D01*
X184690633Y-83903014D01*
X184826272Y-84038890D01*
X185003584Y-84112516D01*
X185195574Y-84112684D01*
X185373014Y-84039367D01*
X185508890Y-83903728D01*
X185570398Y-83755600D01*
X186233075Y-83755600D01*
X186286272Y-83808890D01*
X186463584Y-83882516D01*
X186655574Y-83882684D01*
X186833014Y-83809367D01*
X186968890Y-83673728D01*
X187042516Y-83496416D01*
X187042684Y-83304426D01*
X186969367Y-83126986D01*
X186833728Y-82991110D01*
X186656416Y-82917484D01*
X186464426Y-82917316D01*
X186286986Y-82990633D01*
X186233125Y-83044400D01*
X185330000Y-83044400D01*
X185193917Y-83071468D01*
X185080305Y-83147382D01*
X185004426Y-83147316D01*
X184826986Y-83220633D01*
X184691110Y-83356272D01*
X184617484Y-83533584D01*
X184617316Y-83725574D01*
X184076200Y-83725574D01*
X184076200Y-81852111D01*
X184136898Y-81912915D01*
X184416864Y-82029167D01*
X184720006Y-82029432D01*
X185000174Y-81913668D01*
X185214715Y-81699502D01*
X185330967Y-81419536D01*
X185331232Y-81116394D01*
X185215468Y-80836226D01*
X185001302Y-80621685D01*
X184729800Y-80508948D01*
X184754000Y-80450524D01*
X184754000Y-80013550D01*
X184690500Y-79950050D01*
X184200050Y-79950050D01*
X184200050Y-79970050D01*
X184199950Y-79970050D01*
X184199950Y-79950050D01*
X184179950Y-79950050D01*
X184179950Y-79949950D01*
X184199950Y-79949950D01*
X184199950Y-79309500D01*
X184200050Y-79309500D01*
X184200050Y-79949950D01*
X184690500Y-79949950D01*
X184754000Y-79886450D01*
X184754000Y-79850000D01*
X185540400Y-79850000D01*
X185540400Y-80350000D01*
X185586803Y-80583284D01*
X185718948Y-80781052D01*
X185818947Y-80881052D01*
X186016716Y-81013197D01*
X186250000Y-81059599D01*
X186483283Y-81013197D01*
X186681052Y-80881052D01*
X186715241Y-80829885D01*
X186780232Y-80987174D01*
X186994398Y-81201715D01*
X187274364Y-81317967D01*
X187577506Y-81318232D01*
X187857674Y-81202468D01*
X188072215Y-80988302D01*
X188147984Y-80805830D01*
X188188198Y-80846115D01*
X188468164Y-80962367D01*
X188771306Y-80962632D01*
X189051474Y-80846868D01*
X189266015Y-80632702D01*
X189382267Y-80352736D01*
X189382532Y-80049594D01*
X189266768Y-79769426D01*
X189145381Y-79647826D01*
X192094988Y-79647826D01*
X192210752Y-79927994D01*
X192424918Y-80142535D01*
X192704884Y-80258787D01*
X193008026Y-80259052D01*
X193288194Y-80143288D01*
X193502735Y-79929122D01*
X193618987Y-79649156D01*
X193619252Y-79346014D01*
X193509918Y-79081406D01*
X193751068Y-79081406D01*
X193866832Y-79361574D01*
X194080998Y-79576115D01*
X194360964Y-79692367D01*
X194511998Y-79692499D01*
X194411733Y-79933964D01*
X194411468Y-80237106D01*
X194527232Y-80517274D01*
X194741398Y-80731815D01*
X195021364Y-80848067D01*
X195324506Y-80848332D01*
X195604674Y-80732568D01*
X195819215Y-80518402D01*
X195840476Y-80467200D01*
X196579300Y-80467200D01*
X196725103Y-80438198D01*
X196848708Y-80355608D01*
X197208742Y-79995574D01*
X198467316Y-79995574D01*
X198540633Y-80173014D01*
X198676272Y-80308890D01*
X198853584Y-80382516D01*
X199045574Y-80382684D01*
X199223014Y-80309367D01*
X199358890Y-80173728D01*
X199432516Y-79996416D01*
X199432684Y-79804426D01*
X199359367Y-79626986D01*
X199223728Y-79491110D01*
X199046416Y-79417484D01*
X198854426Y-79417316D01*
X198676986Y-79490633D01*
X198541110Y-79626272D01*
X198467484Y-79803584D01*
X198467316Y-79995574D01*
X197208742Y-79995574D01*
X197322608Y-79881708D01*
X197405198Y-79758102D01*
X197434201Y-79612300D01*
X197434200Y-79612295D01*
X197434200Y-79602035D01*
X197447327Y-79599565D01*
X197533776Y-79543936D01*
X197591772Y-79459056D01*
X197612176Y-79358300D01*
X197612176Y-78858300D01*
X197594465Y-78764173D01*
X197538836Y-78677724D01*
X197453956Y-78619728D01*
X197399152Y-78608630D01*
X197447327Y-78599565D01*
X197533776Y-78543936D01*
X197591772Y-78459056D01*
X197612176Y-78358300D01*
X197612176Y-77858300D01*
X197594465Y-77764173D01*
X197538836Y-77677724D01*
X197453956Y-77619728D01*
X197434200Y-77615727D01*
X197434200Y-77538916D01*
X197833266Y-77139850D01*
X197872674Y-77139884D01*
X198050114Y-77066567D01*
X198185990Y-76930928D01*
X198259616Y-76753616D01*
X198259784Y-76561626D01*
X198186467Y-76384186D01*
X198050828Y-76248310D01*
X197873516Y-76174684D01*
X197681526Y-76174516D01*
X197548485Y-76229487D01*
X197548632Y-76061794D01*
X197503545Y-75952674D01*
X204038116Y-75952674D01*
X204111433Y-76130114D01*
X204165200Y-76183975D01*
X204165200Y-79470800D01*
X204170349Y-79496685D01*
X204167484Y-79503584D01*
X204167316Y-79695574D01*
X204240633Y-79873014D01*
X204376272Y-80008890D01*
X204553584Y-80082516D01*
X204745574Y-80082684D01*
X204923014Y-80009367D01*
X205058890Y-79873728D01*
X205132516Y-79696416D01*
X205132684Y-79504426D01*
X205059367Y-79326986D01*
X204923728Y-79191110D01*
X204876400Y-79171458D01*
X204876400Y-78913550D01*
X205586900Y-78913550D01*
X205586900Y-79200524D01*
X205625569Y-79293879D01*
X205697020Y-79365331D01*
X205790376Y-79404000D01*
X206027350Y-79404000D01*
X206090850Y-79340500D01*
X206090850Y-78850050D01*
X205650400Y-78850050D01*
X205586900Y-78913550D01*
X204876400Y-78913550D01*
X204876400Y-78323490D01*
X205586900Y-78323490D01*
X205586900Y-78786450D01*
X205650400Y-78849950D01*
X206090850Y-78849950D01*
X206090850Y-78259990D01*
X205650400Y-78259990D01*
X205586900Y-78323490D01*
X204876400Y-78323490D01*
X204876400Y-77909416D01*
X205586900Y-77909416D01*
X205586900Y-78196390D01*
X205650400Y-78259890D01*
X206090850Y-78259890D01*
X206090850Y-77769440D01*
X206090950Y-77769440D01*
X206090950Y-78259890D01*
X206110950Y-78259890D01*
X206110950Y-78259990D01*
X206090950Y-78259990D01*
X206090950Y-78849950D01*
X206110950Y-78849950D01*
X206110950Y-78850050D01*
X206090950Y-78850050D01*
X206090950Y-79340500D01*
X206154450Y-79404000D01*
X206391424Y-79404000D01*
X206484780Y-79365331D01*
X206556231Y-79293879D01*
X206592514Y-79206283D01*
X206599635Y-79244127D01*
X206655264Y-79330576D01*
X206740144Y-79388572D01*
X206838790Y-79408549D01*
X206925657Y-79466591D01*
X207090900Y-79499460D01*
X207116636Y-79494341D01*
X207173240Y-79505600D01*
X208461572Y-79505600D01*
X208611442Y-79655732D01*
X208830748Y-79746796D01*
X209068210Y-79747003D01*
X209287675Y-79656322D01*
X209455732Y-79488558D01*
X209546796Y-79269252D01*
X209547003Y-79031790D01*
X209456322Y-78812325D01*
X209288558Y-78644268D01*
X209069252Y-78553204D01*
X208831790Y-78552997D01*
X208612325Y-78643678D01*
X208461340Y-78794400D01*
X207599876Y-78794400D01*
X207599876Y-77959940D01*
X207582165Y-77865813D01*
X207567839Y-77843550D01*
X213106000Y-77843550D01*
X213106000Y-78380524D01*
X213144669Y-78473880D01*
X213216121Y-78545331D01*
X213309476Y-78584000D01*
X215396450Y-78584000D01*
X215459950Y-78520500D01*
X215459950Y-77780050D01*
X213169500Y-77780050D01*
X213106000Y-77843550D01*
X207567839Y-77843550D01*
X207526536Y-77779364D01*
X207441656Y-77721368D01*
X207340900Y-77700964D01*
X206840900Y-77700964D01*
X206746773Y-77718675D01*
X206660324Y-77774304D01*
X206602328Y-77859184D01*
X206593057Y-77904966D01*
X206556231Y-77816061D01*
X206484780Y-77744609D01*
X206391424Y-77705940D01*
X206154450Y-77705940D01*
X206090950Y-77769440D01*
X206090850Y-77769440D01*
X206027350Y-77705940D01*
X205790376Y-77705940D01*
X205697020Y-77744609D01*
X205625569Y-77816061D01*
X205586900Y-77909416D01*
X204876400Y-77909416D01*
X204876400Y-77179476D01*
X213106000Y-77179476D01*
X213106000Y-77716450D01*
X213169500Y-77779950D01*
X215459950Y-77779950D01*
X215459950Y-77039500D01*
X215396450Y-76976000D01*
X213309476Y-76976000D01*
X213216121Y-77014669D01*
X213144669Y-77086120D01*
X213106000Y-77179476D01*
X204876400Y-77179476D01*
X204876400Y-76184025D01*
X204929690Y-76130828D01*
X205003316Y-75953516D01*
X205003484Y-75761526D01*
X204930167Y-75584086D01*
X204797220Y-75450906D01*
X209637868Y-75450906D01*
X209753632Y-75731074D01*
X209967798Y-75945615D01*
X210247764Y-76061867D01*
X210550906Y-76062132D01*
X210831074Y-75946368D01*
X211045615Y-75732202D01*
X211161867Y-75452236D01*
X211162132Y-75149094D01*
X211046368Y-74868926D01*
X210832202Y-74654385D01*
X210552236Y-74538133D01*
X210249094Y-74537868D01*
X209968926Y-74653632D01*
X209754385Y-74867798D01*
X209638133Y-75147764D01*
X209637868Y-75450906D01*
X204797220Y-75450906D01*
X204794528Y-75448210D01*
X204617216Y-75374584D01*
X204425226Y-75374416D01*
X204247786Y-75447733D01*
X204111910Y-75583372D01*
X204038284Y-75760684D01*
X204038116Y-75952674D01*
X197503545Y-75952674D01*
X197432868Y-75781626D01*
X197218702Y-75567085D01*
X196938736Y-75450833D01*
X196635594Y-75450568D01*
X196355426Y-75566332D01*
X196140885Y-75780498D01*
X196024633Y-76060464D01*
X196024368Y-76363606D01*
X196140132Y-76643774D01*
X196354298Y-76858315D01*
X196634264Y-76974567D01*
X196920667Y-76974817D01*
X196783792Y-77111692D01*
X196701202Y-77235297D01*
X196701202Y-77235298D01*
X196672200Y-77381100D01*
X196672200Y-77614565D01*
X196659073Y-77617035D01*
X196572624Y-77672664D01*
X196569137Y-77677768D01*
X196560936Y-77665024D01*
X196476056Y-77607028D01*
X196375300Y-77586624D01*
X195775300Y-77586624D01*
X195681173Y-77604335D01*
X195594724Y-77659964D01*
X195536728Y-77744844D01*
X195516324Y-77845600D01*
X195516324Y-78345600D01*
X195534035Y-78439727D01*
X195589664Y-78526176D01*
X195674544Y-78584172D01*
X195729348Y-78595270D01*
X195681173Y-78604335D01*
X195594724Y-78659964D01*
X195557393Y-78714600D01*
X195248477Y-78714600D01*
X195159568Y-78499426D01*
X194945402Y-78284885D01*
X194665436Y-78168633D01*
X194362294Y-78168368D01*
X194082126Y-78284132D01*
X193867585Y-78498298D01*
X193751333Y-78778264D01*
X193751068Y-79081406D01*
X193509918Y-79081406D01*
X193503488Y-79065846D01*
X193289322Y-78851305D01*
X193009356Y-78735053D01*
X192706214Y-78734788D01*
X192426046Y-78850552D01*
X192211505Y-79064718D01*
X192095253Y-79344684D01*
X192094988Y-79647826D01*
X189145381Y-79647826D01*
X189052602Y-79554885D01*
X188772636Y-79438633D01*
X188469494Y-79438368D01*
X188189326Y-79554132D01*
X187974785Y-79768298D01*
X187899016Y-79950770D01*
X187858802Y-79910485D01*
X187578836Y-79794233D01*
X187275694Y-79793968D01*
X186995526Y-79909732D01*
X186780985Y-80123898D01*
X186769561Y-80151410D01*
X186759600Y-80136502D01*
X186759600Y-79850000D01*
X186713197Y-79616716D01*
X186581052Y-79418948D01*
X186383284Y-79286803D01*
X186150000Y-79240400D01*
X185916716Y-79286803D01*
X185718948Y-79418948D01*
X185586803Y-79616716D01*
X185540400Y-79850000D01*
X184754000Y-79850000D01*
X184754000Y-79449476D01*
X184715331Y-79356121D01*
X184643880Y-79284669D01*
X184550524Y-79246000D01*
X184263550Y-79246000D01*
X184200050Y-79309500D01*
X184199950Y-79309500D01*
X184136450Y-79246000D01*
X184076200Y-79246000D01*
X184076200Y-78278766D01*
X190819908Y-78278766D01*
X190935672Y-78558934D01*
X191149838Y-78773475D01*
X191429804Y-78889727D01*
X191732946Y-78889992D01*
X192013114Y-78774228D01*
X192227655Y-78560062D01*
X192343907Y-78280096D01*
X192344172Y-77976954D01*
X192228408Y-77696786D01*
X192014242Y-77482245D01*
X191734276Y-77365993D01*
X191431134Y-77365728D01*
X191150966Y-77481492D01*
X190936425Y-77695658D01*
X190820173Y-77975624D01*
X190819908Y-78278766D01*
X184076200Y-78278766D01*
X184076200Y-72843550D01*
X213106000Y-72843550D01*
X213106000Y-73380524D01*
X213144669Y-73473880D01*
X213216121Y-73545331D01*
X213309476Y-73584000D01*
X215396450Y-73584000D01*
X215459950Y-73520500D01*
X215459950Y-72780050D01*
X213169500Y-72780050D01*
X213106000Y-72843550D01*
X184076200Y-72843550D01*
X184076200Y-72507506D01*
X184109839Y-72338390D01*
X184149522Y-72279000D01*
X213106000Y-72279000D01*
X213106000Y-72716450D01*
G36*
X217681000Y-81025192D02*
X217610524Y-80996000D01*
X215523550Y-80996000D01*
X215460050Y-81059500D01*
X215460050Y-81799950D01*
X215480050Y-81799950D01*
X215480050Y-81800050D01*
X215460050Y-81800050D01*
X215460050Y-82540500D01*
X215523550Y-82604000D01*
X217610524Y-82604000D01*
X217681000Y-82574808D01*
X217681000Y-86025192D01*
X217610524Y-85996000D01*
X215523550Y-85996000D01*
X215460050Y-86059500D01*
X215460050Y-86799950D01*
X215480050Y-86799950D01*
X215480050Y-86800050D01*
X215460050Y-86800050D01*
X215460050Y-87540500D01*
X215523550Y-87604000D01*
X217610524Y-87604000D01*
X217681000Y-87574808D01*
X217681000Y-90095192D01*
X217610524Y-90066000D01*
X215523550Y-90066000D01*
X215460050Y-90129500D01*
X215460050Y-90869950D01*
X215480050Y-90869950D01*
X215480050Y-90870050D01*
X215460050Y-90870050D01*
X215460050Y-91610500D01*
X215523550Y-91674000D01*
X217610524Y-91674000D01*
X217681000Y-91644808D01*
X217681000Y-95095192D01*
X217610524Y-95066000D01*
X215523550Y-95066000D01*
X215460050Y-95129500D01*
X215460050Y-95869950D01*
X215480050Y-95869950D01*
X215480050Y-95870050D01*
X215460050Y-95870050D01*
X215460050Y-95890050D01*
X215459950Y-95890050D01*
X215459950Y-95870050D01*
X213169500Y-95870050D01*
X213106000Y-95933550D01*
X213106000Y-96470524D01*
X213131050Y-96531000D01*
X212815565Y-96531000D01*
X211554042Y-95269476D01*
X213106000Y-95269476D01*
X213106000Y-95806450D01*
X213169500Y-95869950D01*
X215459950Y-95869950D01*
X215459950Y-95129500D01*
X215396450Y-95066000D01*
X213309476Y-95066000D01*
X213216121Y-95104669D01*
X213144669Y-95176120D01*
X213106000Y-95269476D01*
X211554042Y-95269476D01*
X211087283Y-94802717D01*
X211042076Y-94772511D01*
X210996769Y-94742238D01*
X210890000Y-94721000D01*
X188401014Y-94721000D01*
X188484811Y-94637349D01*
X188558437Y-94460037D01*
X188558472Y-94419886D01*
X188573928Y-94404430D01*
X188871345Y-94107012D01*
X189042731Y-94107012D01*
X189070572Y-94134902D01*
X189247884Y-94208528D01*
X189439874Y-94208696D01*
X189617314Y-94135379D01*
X189753190Y-93999740D01*
X189826816Y-93822428D01*
X189826984Y-93630438D01*
X189753667Y-93452998D01*
X189742208Y-93441519D01*
X199585979Y-93441519D01*
X200096509Y-93952049D01*
X200211873Y-94029134D01*
X200347956Y-94056202D01*
X205019937Y-94056202D01*
X205131477Y-94130732D01*
X205267560Y-94157800D01*
X206329280Y-94157800D01*
X206465363Y-94130732D01*
X206580727Y-94053647D01*
X207076056Y-93558318D01*
X207242510Y-93558463D01*
X207461975Y-93467782D01*
X207630032Y-93300018D01*
X207721096Y-93080712D01*
X207721303Y-92843250D01*
X207630622Y-92623785D01*
X207462858Y-92455728D01*
X207243552Y-92364664D01*
X207006090Y-92364457D01*
X206786625Y-92455138D01*
X206646087Y-92595431D01*
X206645448Y-92593886D01*
X206431282Y-92379345D01*
X206151316Y-92263093D01*
X205848174Y-92262828D01*
X205568006Y-92378592D01*
X205353465Y-92592758D01*
X205237213Y-92872724D01*
X205236948Y-93175866D01*
X205324111Y-93386814D01*
X205302045Y-93372070D01*
X205165962Y-93345002D01*
X203977212Y-93345002D01*
X204185998Y-93136216D01*
X204225302Y-93128398D01*
X204336547Y-93054067D01*
X204379575Y-93011039D01*
X204406664Y-93022287D01*
X204709806Y-93022552D01*
X204989974Y-92906788D01*
X205204515Y-92692622D01*
X205320767Y-92412656D01*
X205321032Y-92109514D01*
X205205268Y-91829346D01*
X205089256Y-91713130D01*
X208570821Y-91713130D01*
X208581158Y-91805198D01*
X208745188Y-91880796D01*
X208925661Y-91887867D01*
X209095103Y-91825335D01*
X209125242Y-91805198D01*
X209135579Y-91713130D01*
X209470821Y-91713130D01*
X209481158Y-91805198D01*
X209645188Y-91880796D01*
X209825661Y-91887867D01*
X209995103Y-91825335D01*
X210025242Y-91805198D01*
X210035579Y-91713130D01*
X210370821Y-91713130D01*
X210381158Y-91805198D01*
X210545188Y-91880796D01*
X210725661Y-91887867D01*
X210895103Y-91825335D01*
X210925242Y-91805198D01*
X210935579Y-91713130D01*
X210653200Y-91430751D01*
X210370821Y-91713130D01*
X210035579Y-91713130D01*
X209753200Y-91430751D01*
X209470821Y-91713130D01*
X209135579Y-91713130D01*
X208853200Y-91430751D01*
X208570821Y-91713130D01*
X205089256Y-91713130D01*
X204991102Y-91614805D01*
X204722186Y-91503141D01*
X208396013Y-91503141D01*
X208458545Y-91672583D01*
X208478682Y-91702722D01*
X208570750Y-91713059D01*
X208853129Y-91430680D01*
X208853271Y-91430680D01*
X209135650Y-91713059D01*
X209227718Y-91702722D01*
X209303316Y-91538692D01*
X209303874Y-91524443D01*
X209358545Y-91672583D01*
X209378682Y-91702722D01*
X209470750Y-91713059D01*
X209753129Y-91430680D01*
X209753271Y-91430680D01*
X210035650Y-91713059D01*
X210127718Y-91702722D01*
X210203316Y-91538692D01*
X210203874Y-91524443D01*
X210258545Y-91672583D01*
X210278682Y-91702722D01*
X210370750Y-91713059D01*
X210653129Y-91430680D01*
X210653271Y-91430680D01*
X210935650Y-91713059D01*
X211027718Y-91702722D01*
X211103316Y-91538692D01*
X211110387Y-91358219D01*
X211047855Y-91188777D01*
X211027718Y-91158638D01*
X210935650Y-91148301D01*
X210653271Y-91430680D01*
X210653129Y-91430680D01*
X210370750Y-91148301D01*
X210278682Y-91158638D01*
X210203084Y-91322668D01*
X210202526Y-91336917D01*
X210147855Y-91188777D01*
X210127718Y-91158638D01*
X210035650Y-91148301D01*
X209753271Y-91430680D01*
X209753129Y-91430680D01*
X209470750Y-91148301D01*
X209378682Y-91158638D01*
X209303084Y-91322668D01*
X209302526Y-91336917D01*
X209247855Y-91188777D01*
X209227718Y-91158638D01*
X209135650Y-91148301D01*
X208853271Y-91430680D01*
X208853129Y-91430680D01*
X208570750Y-91148301D01*
X208478682Y-91158638D01*
X208403084Y-91322668D01*
X208396013Y-91503141D01*
X204722186Y-91503141D01*
X204711136Y-91498553D01*
X204683225Y-91498529D01*
X205021167Y-91160587D01*
X205098252Y-91045223D01*
X205125320Y-90909140D01*
X205125320Y-90850093D01*
X205200794Y-90818908D01*
X205206582Y-90813130D01*
X208570821Y-90813130D01*
X208581158Y-90905198D01*
X208745188Y-90980796D01*
X208759437Y-90981354D01*
X208611297Y-91036025D01*
X208581158Y-91056162D01*
X208570821Y-91148230D01*
X208853200Y-91430609D01*
X209135579Y-91148230D01*
X209125242Y-91056162D01*
X208961212Y-90980564D01*
X208946963Y-90980006D01*
X209095103Y-90925335D01*
X209125242Y-90905198D01*
X209135579Y-90813130D01*
X209470821Y-90813130D01*
X209481158Y-90905198D01*
X209645188Y-90980796D01*
X209659437Y-90981354D01*
X209511297Y-91036025D01*
X209481158Y-91056162D01*
X209470821Y-91148230D01*
X209753200Y-91430609D01*
X210035579Y-91148230D01*
X210025242Y-91056162D01*
X209861212Y-90980564D01*
X209846963Y-90980006D01*
X209995103Y-90925335D01*
X210025242Y-90905198D01*
X210035579Y-90813130D01*
X210370821Y-90813130D01*
X210381158Y-90905198D01*
X210545188Y-90980796D01*
X210559437Y-90981354D01*
X210411297Y-91036025D01*
X210381158Y-91056162D01*
X210370821Y-91148230D01*
X210653200Y-91430609D01*
X210935579Y-91148230D01*
X210925242Y-91056162D01*
X210761212Y-90980564D01*
X210746963Y-90980006D01*
X210895103Y-90925335D01*
X210925242Y-90905198D01*
X210935579Y-90813130D01*
X210653200Y-90530751D01*
X210370821Y-90813130D01*
X210035579Y-90813130D01*
X209753200Y-90530751D01*
X209470821Y-90813130D01*
X209135579Y-90813130D01*
X208853200Y-90530751D01*
X208570821Y-90813130D01*
X205206582Y-90813130D01*
X205415335Y-90604742D01*
X205415999Y-90603141D01*
X208396013Y-90603141D01*
X208458545Y-90772583D01*
X208478682Y-90802722D01*
X208570750Y-90813059D01*
X208853129Y-90530680D01*
X208853271Y-90530680D01*
X209135650Y-90813059D01*
X209227718Y-90802722D01*
X209303316Y-90638692D01*
X209303874Y-90624443D01*
X209358545Y-90772583D01*
X209378682Y-90802722D01*
X209470750Y-90813059D01*
X209753129Y-90530680D01*
X209753271Y-90530680D01*
X210035650Y-90813059D01*
X210127718Y-90802722D01*
X210203316Y-90638692D01*
X210203874Y-90624443D01*
X210258545Y-90772583D01*
X210278682Y-90802722D01*
X210370750Y-90813059D01*
X210653129Y-90530680D01*
X210653271Y-90530680D01*
X210935650Y-90813059D01*
X211027718Y-90802722D01*
X211103316Y-90638692D01*
X211110387Y-90458219D01*
X211047855Y-90288777D01*
X211027718Y-90258638D01*
X210935650Y-90248301D01*
X210653271Y-90530680D01*
X210653129Y-90530680D01*
X210370750Y-90248301D01*
X210278682Y-90258638D01*
X210203084Y-90422668D01*
X210202526Y-90436917D01*
X210147855Y-90288777D01*
X210127718Y-90258638D01*
X210035650Y-90248301D01*
X209753271Y-90530680D01*
X209753129Y-90530680D01*
X209470750Y-90248301D01*
X209378682Y-90258638D01*
X209303084Y-90422668D01*
X209302526Y-90436917D01*
X209247855Y-90288777D01*
X209227718Y-90258638D01*
X209135650Y-90248301D01*
X208853271Y-90530680D01*
X208853129Y-90530680D01*
X208570750Y-90248301D01*
X208478682Y-90258638D01*
X208403084Y-90422668D01*
X208396013Y-90603141D01*
X205415999Y-90603141D01*
X205531587Y-90324776D01*
X205531852Y-90021634D01*
X205487019Y-89913130D01*
X208570821Y-89913130D01*
X208581158Y-90005198D01*
X208745188Y-90080796D01*
X208759437Y-90081354D01*
X208611297Y-90136025D01*
X208581158Y-90156162D01*
X208570821Y-90248230D01*
X208853200Y-90530609D01*
X209135579Y-90248230D01*
X209125242Y-90156162D01*
X208961212Y-90080564D01*
X208946963Y-90080006D01*
X209095103Y-90025335D01*
X209125242Y-90005198D01*
X209135579Y-89913130D01*
X209470821Y-89913130D01*
X209481158Y-90005198D01*
X209645188Y-90080796D01*
X209659437Y-90081354D01*
X209511297Y-90136025D01*
X209481158Y-90156162D01*
X209470821Y-90248230D01*
X209753200Y-90530609D01*
X210035579Y-90248230D01*
X210025242Y-90156162D01*
X209861212Y-90080564D01*
X209846963Y-90080006D01*
X209995103Y-90025335D01*
X210025242Y-90005198D01*
X210035579Y-89913130D01*
X210370821Y-89913130D01*
X210381158Y-90005198D01*
X210545188Y-90080796D01*
X210559437Y-90081354D01*
X210411297Y-90136025D01*
X210381158Y-90156162D01*
X210370821Y-90248230D01*
X210653200Y-90530609D01*
X210935579Y-90248230D01*
X210925242Y-90156162D01*
X210761212Y-90080564D01*
X210746963Y-90080006D01*
X210895103Y-90025335D01*
X210925242Y-90005198D01*
X210935579Y-89913130D01*
X210653200Y-89630751D01*
X210370821Y-89913130D01*
X210035579Y-89913130D01*
X209753200Y-89630751D01*
X209470821Y-89913130D01*
X209135579Y-89913130D01*
X208853200Y-89630751D01*
X208570821Y-89913130D01*
X205487019Y-89913130D01*
X205416088Y-89741466D01*
X205377830Y-89703141D01*
X208396013Y-89703141D01*
X208458545Y-89872583D01*
X208478682Y-89902722D01*
X208570750Y-89913059D01*
X208853129Y-89630680D01*
X208853271Y-89630680D01*
X209135650Y-89913059D01*
X209227718Y-89902722D01*
X209303316Y-89738692D01*
X209303874Y-89724443D01*
X209358545Y-89872583D01*
X209378682Y-89902722D01*
X209470750Y-89913059D01*
X209753129Y-89630680D01*
X209753271Y-89630680D01*
X210035650Y-89913059D01*
X210127718Y-89902722D01*
X210203316Y-89738692D01*
X210203874Y-89724443D01*
X210258545Y-89872583D01*
X210278682Y-89902722D01*
X210370750Y-89913059D01*
X210653129Y-89630680D01*
X210653271Y-89630680D01*
X210935650Y-89913059D01*
X211027718Y-89902722D01*
X211103316Y-89738692D01*
X211110387Y-89558219D01*
X211047855Y-89388777D01*
X211027718Y-89358638D01*
X210935650Y-89348301D01*
X210653271Y-89630680D01*
X210653129Y-89630680D01*
X210370750Y-89348301D01*
X210278682Y-89358638D01*
X210203084Y-89522668D01*
X210202526Y-89536917D01*
X210147855Y-89388777D01*
X210127718Y-89358638D01*
X210035650Y-89348301D01*
X209753271Y-89630680D01*
X209753129Y-89630680D01*
X209470750Y-89348301D01*
X209378682Y-89358638D01*
X209303084Y-89522668D01*
X209302526Y-89536917D01*
X209247855Y-89388777D01*
X209227718Y-89358638D01*
X209135650Y-89348301D01*
X208853271Y-89630680D01*
X208853129Y-89630680D01*
X208570750Y-89348301D01*
X208478682Y-89358638D01*
X208403084Y-89522668D01*
X208396013Y-89703141D01*
X205377830Y-89703141D01*
X205201922Y-89526925D01*
X204921956Y-89410673D01*
X204618814Y-89410408D01*
X204338646Y-89526172D01*
X204124105Y-89740338D01*
X204007853Y-90020304D01*
X204007588Y-90323446D01*
X204123352Y-90603614D01*
X204337518Y-90818155D01*
X204351857Y-90824109D01*
X202542168Y-92633798D01*
X201874375Y-92633798D01*
X201932436Y-92493972D01*
X201932643Y-92256510D01*
X201906321Y-92192806D01*
X201979223Y-92178305D01*
X202111068Y-92090208D01*
X202588208Y-91613068D01*
X202608622Y-91582516D01*
X202676305Y-91481223D01*
X202707240Y-91325700D01*
X202707240Y-89348230D01*
X208570821Y-89348230D01*
X208853200Y-89630609D01*
X209135579Y-89348230D01*
X209470821Y-89348230D01*
X209753200Y-89630609D01*
X210035579Y-89348230D01*
X210370821Y-89348230D01*
X210653200Y-89630609D01*
X210935579Y-89348230D01*
X210925242Y-89256162D01*
X210761212Y-89180564D01*
X210580739Y-89173493D01*
X210411297Y-89236025D01*
X210381158Y-89256162D01*
X210370821Y-89348230D01*
X210035579Y-89348230D01*
X210025242Y-89256162D01*
X209861212Y-89180564D01*
X209680739Y-89173493D01*
X209511297Y-89236025D01*
X209481158Y-89256162D01*
X209470821Y-89348230D01*
X209135579Y-89348230D01*
X209125242Y-89256162D01*
X208961212Y-89180564D01*
X208780739Y-89173493D01*
X208611297Y-89236025D01*
X208581158Y-89256162D01*
X208570821Y-89348230D01*
X202707240Y-89348230D01*
X202707240Y-88727976D01*
X203192030Y-88243186D01*
X205183608Y-88243186D01*
X205299372Y-88523354D01*
X205513538Y-88737895D01*
X205793504Y-88854147D01*
X206096646Y-88854412D01*
X206376814Y-88738648D01*
X206480068Y-88635574D01*
X207587316Y-88635574D01*
X207660633Y-88813014D01*
X207796272Y-88948890D01*
X207973584Y-89022516D01*
X208165574Y-89022684D01*
X208257986Y-88984500D01*
X211105882Y-88984500D01*
X211695500Y-89574118D01*
X211695500Y-90790000D01*
X211729336Y-90960103D01*
X211822580Y-91099653D01*
X211825691Y-91104309D01*
X212002776Y-91281394D01*
X212030900Y-91349458D01*
X212030900Y-91426403D01*
X211729821Y-91727483D01*
X211576986Y-91790633D01*
X211441110Y-91926272D01*
X211367484Y-92103584D01*
X211367316Y-92295574D01*
X211440633Y-92473014D01*
X211576272Y-92608890D01*
X211753584Y-92682516D01*
X211945574Y-92682684D01*
X212123014Y-92609367D01*
X212258890Y-92473728D01*
X212322742Y-92319954D01*
X212746348Y-91896349D01*
X212837198Y-91760383D01*
X212842824Y-91732100D01*
X212869100Y-91600000D01*
X212869100Y-91349139D01*
X212932516Y-91196416D01*
X212932684Y-91004426D01*
X212903399Y-90933550D01*
X213106000Y-90933550D01*
X213106000Y-91470524D01*
X213144669Y-91563880D01*
X213216121Y-91635331D01*
X213309476Y-91674000D01*
X215396450Y-91674000D01*
X215459950Y-91610500D01*
X215459950Y-90870050D01*
X213169500Y-90870050D01*
X213106000Y-90933550D01*
X212903399Y-90933550D01*
X212859367Y-90826986D01*
X212723728Y-90691110D01*
X212631383Y-90652765D01*
X212584500Y-90605882D01*
X212584500Y-90269476D01*
X213106000Y-90269476D01*
X213106000Y-90806450D01*
X213169500Y-90869950D01*
X215459950Y-90869950D01*
X215459950Y-90129500D01*
X215396450Y-90066000D01*
X213309476Y-90066000D01*
X213216121Y-90104669D01*
X213144669Y-90176120D01*
X213106000Y-90269476D01*
X212584500Y-90269476D01*
X212584500Y-89390000D01*
X212578262Y-89358638D01*
X212550665Y-89219898D01*
X212454309Y-89075691D01*
X211604309Y-88225691D01*
X211601236Y-88223638D01*
X211460103Y-88129336D01*
X211290000Y-88095500D01*
X208257969Y-88095500D01*
X208166416Y-88057484D01*
X207974426Y-88057316D01*
X207796986Y-88130633D01*
X207661110Y-88266272D01*
X207587484Y-88443584D01*
X207587316Y-88635574D01*
X206480068Y-88635574D01*
X206591355Y-88524482D01*
X206707607Y-88244516D01*
X206707872Y-87941374D01*
X206592108Y-87661206D01*
X206377942Y-87446665D01*
X206097976Y-87330413D01*
X205794834Y-87330148D01*
X205514666Y-87445912D01*
X205300125Y-87660078D01*
X205183873Y-87940044D01*
X205183608Y-88243186D01*
X203192030Y-88243186D01*
X203467415Y-87967801D01*
X203607770Y-87967923D01*
X203827235Y-87877242D01*
X203995292Y-87709478D01*
X204086356Y-87490172D01*
X204086385Y-87456595D01*
X204960380Y-86582600D01*
X206200100Y-86582600D01*
X206503025Y-86885525D01*
X206502997Y-86918210D01*
X206593678Y-87137675D01*
X206761442Y-87305732D01*
X206980748Y-87396796D01*
X207218210Y-87397003D01*
X207437675Y-87306322D01*
X207605732Y-87138558D01*
X207696796Y-86919252D01*
X207696844Y-86863550D01*
X213106000Y-86863550D01*
X213106000Y-87400524D01*
X213144669Y-87493880D01*
X213216121Y-87565331D01*
X213309476Y-87604000D01*
X215396450Y-87604000D01*
X215459950Y-87540500D01*
X215459950Y-86800050D01*
X213169500Y-86800050D01*
X213106000Y-86863550D01*
X207696844Y-86863550D01*
X207697003Y-86681790D01*
X207606322Y-86462325D01*
X207438558Y-86294268D01*
X207219252Y-86203204D01*
X207185674Y-86203175D01*
X207181976Y-86199476D01*
X213106000Y-86199476D01*
X213106000Y-86736450D01*
X213169500Y-86799950D01*
X215459950Y-86799950D01*
X215459950Y-86059500D01*
X215396450Y-85996000D01*
X213309476Y-85996000D01*
X213216121Y-86034669D01*
X213144669Y-86106120D01*
X213106000Y-86199476D01*
X207181976Y-86199476D01*
X206741250Y-85758750D01*
X206584683Y-85654136D01*
X206400000Y-85617400D01*
X204760480Y-85617400D01*
X204575797Y-85654136D01*
X204419230Y-85758750D01*
X203404035Y-86773945D01*
X203371350Y-86773917D01*
X203151885Y-86864598D01*
X202983828Y-87032362D01*
X202892764Y-87251668D01*
X202892641Y-87393103D01*
X202013472Y-88272272D01*
X201925375Y-88404117D01*
X201894440Y-88559640D01*
X201894440Y-90477111D01*
X201866211Y-90408960D01*
X201794759Y-90337509D01*
X201701404Y-90298840D01*
X201414430Y-90298840D01*
X201350930Y-90362340D01*
X201350930Y-90802790D01*
X201370930Y-90802790D01*
X201370930Y-90802890D01*
X201350930Y-90802890D01*
X201350930Y-90822890D01*
X201350830Y-90822890D01*
X201350830Y-90802890D01*
X200860380Y-90802890D01*
X200796880Y-90866390D01*
X200796880Y-91103364D01*
X200835549Y-91196720D01*
X200907001Y-91268171D01*
X200994597Y-91304454D01*
X200956753Y-91311575D01*
X200870304Y-91367204D01*
X200812308Y-91452084D01*
X200791904Y-91552840D01*
X200791904Y-92052840D01*
X200801595Y-92104346D01*
X200738844Y-92255468D01*
X200738637Y-92492930D01*
X200796842Y-92633798D01*
X200753930Y-92633798D01*
X200154540Y-92034408D01*
X200154540Y-91351100D01*
X200154037Y-91348573D01*
X200127472Y-91215017D01*
X200050387Y-91099653D01*
X199453050Y-90502316D01*
X200796880Y-90502316D01*
X200796880Y-90739290D01*
X200860380Y-90802790D01*
X201350830Y-90802790D01*
X201350830Y-90362340D01*
X201287330Y-90298840D01*
X201000356Y-90298840D01*
X200907001Y-90337509D01*
X200835549Y-90408960D01*
X200796880Y-90502316D01*
X199453050Y-90502316D01*
X199194438Y-90243704D01*
X199194504Y-90168406D01*
X199121187Y-89990966D01*
X198985548Y-89855090D01*
X198808236Y-89781464D01*
X198616246Y-89781296D01*
X198438806Y-89854613D01*
X198302930Y-89990252D01*
X198229304Y-90167564D01*
X198229136Y-90359554D01*
X198302453Y-90536994D01*
X198438092Y-90672870D01*
X198615404Y-90746496D01*
X198691509Y-90746563D01*
X199072973Y-91128027D01*
X198921406Y-91190653D01*
X198785530Y-91326292D01*
X198711904Y-91503604D01*
X198711736Y-91695594D01*
X198785053Y-91873034D01*
X198838820Y-91926895D01*
X198838820Y-92080080D01*
X198865888Y-92216163D01*
X198942973Y-92331527D01*
X199341765Y-92730319D01*
X189504331Y-92730319D01*
X189504423Y-92624810D01*
X189413742Y-92405345D01*
X189245978Y-92237288D01*
X189026672Y-92146224D01*
X189008134Y-92146208D01*
X190379821Y-90774520D01*
X190847834Y-90774520D01*
X191000508Y-90837916D01*
X191237970Y-90838123D01*
X191457435Y-90747442D01*
X191625492Y-90579678D01*
X191716556Y-90360372D01*
X191716763Y-90122910D01*
X191626533Y-89904536D01*
X194149974Y-89904597D01*
X194189709Y-89901471D01*
X194344220Y-89877002D01*
X194419800Y-89852446D01*
X194559187Y-89781428D01*
X194623481Y-89734718D01*
X194734100Y-89624102D01*
X194780812Y-89559809D01*
X194851834Y-89420423D01*
X194876392Y-89344844D01*
X194900865Y-89190334D01*
X194903992Y-89150598D01*
X194903999Y-84518370D01*
X194919052Y-84423338D01*
X194953548Y-84355641D01*
X195007276Y-84301917D01*
X195074977Y-84267428D01*
X195170011Y-84252384D01*
X212248862Y-84253950D01*
X212288651Y-84250818D01*
X212443374Y-84226292D01*
X212519052Y-84201673D01*
X212658591Y-84130473D01*
X212722936Y-84083645D01*
X212833594Y-83972760D01*
X212880289Y-83908321D01*
X212951204Y-83768637D01*
X212975668Y-83692909D01*
X212999878Y-83538137D01*
X213002929Y-83498341D01*
X212999440Y-81863550D01*
X213106000Y-81863550D01*
X213106000Y-82400524D01*
X213144669Y-82493880D01*
X213216121Y-82565331D01*
X213309476Y-82604000D01*
X215396450Y-82604000D01*
X215459950Y-82540500D01*
X215459950Y-81800050D01*
X213169500Y-81800050D01*
X213106000Y-81863550D01*
X212999440Y-81863550D01*
X212998022Y-81199476D01*
X213106000Y-81199476D01*
X213106000Y-81736450D01*
X213169500Y-81799950D01*
X215459950Y-81799950D01*
X215459950Y-81059500D01*
X215396450Y-80996000D01*
X213309476Y-80996000D01*
X213216121Y-81034669D01*
X213144669Y-81106120D01*
X213106000Y-81199476D01*
X212998022Y-81199476D01*
X212996999Y-80720486D01*
X213011885Y-80625306D01*
X213046316Y-80557476D01*
X213100044Y-80503626D01*
X213167802Y-80469041D01*
X213262943Y-80453941D01*
X217460085Y-80453467D01*
X217509633Y-80448582D01*
X217681000Y-80414478D01*
X217681000Y-81025192D01*
X217681000Y-81025192D01*
G37*
X217681000Y-81025192D02*
X217610524Y-80996000D01*
X215523550Y-80996000D01*
X215460050Y-81059500D01*
X215460050Y-81799950D01*
X215480050Y-81799950D01*
X215480050Y-81800050D01*
X215460050Y-81800050D01*
X215460050Y-82540500D01*
X215523550Y-82604000D01*
X217610524Y-82604000D01*
X217681000Y-82574808D01*
X217681000Y-86025192D01*
X217610524Y-85996000D01*
X215523550Y-85996000D01*
X215460050Y-86059500D01*
X215460050Y-86799950D01*
X215480050Y-86799950D01*
X215480050Y-86800050D01*
X215460050Y-86800050D01*
X215460050Y-87540500D01*
X215523550Y-87604000D01*
X217610524Y-87604000D01*
X217681000Y-87574808D01*
X217681000Y-90095192D01*
X217610524Y-90066000D01*
X215523550Y-90066000D01*
X215460050Y-90129500D01*
X215460050Y-90869950D01*
X215480050Y-90869950D01*
X215480050Y-90870050D01*
X215460050Y-90870050D01*
X215460050Y-91610500D01*
X215523550Y-91674000D01*
X217610524Y-91674000D01*
X217681000Y-91644808D01*
X217681000Y-95095192D01*
X217610524Y-95066000D01*
X215523550Y-95066000D01*
X215460050Y-95129500D01*
X215460050Y-95869950D01*
X215480050Y-95869950D01*
X215480050Y-95870050D01*
X215460050Y-95870050D01*
X215460050Y-95890050D01*
X215459950Y-95890050D01*
X215459950Y-95870050D01*
X213169500Y-95870050D01*
X213106000Y-95933550D01*
X213106000Y-96470524D01*
X213131050Y-96531000D01*
X212815565Y-96531000D01*
X211554042Y-95269476D01*
X213106000Y-95269476D01*
X213106000Y-95806450D01*
X213169500Y-95869950D01*
X215459950Y-95869950D01*
X215459950Y-95129500D01*
X215396450Y-95066000D01*
X213309476Y-95066000D01*
X213216121Y-95104669D01*
X213144669Y-95176120D01*
X213106000Y-95269476D01*
X211554042Y-95269476D01*
X211087283Y-94802717D01*
X211042076Y-94772511D01*
X210996769Y-94742238D01*
X210890000Y-94721000D01*
X188401014Y-94721000D01*
X188484811Y-94637349D01*
X188558437Y-94460037D01*
X188558472Y-94419886D01*
X188573928Y-94404430D01*
X188871345Y-94107012D01*
X189042731Y-94107012D01*
X189070572Y-94134902D01*
X189247884Y-94208528D01*
X189439874Y-94208696D01*
X189617314Y-94135379D01*
X189753190Y-93999740D01*
X189826816Y-93822428D01*
X189826984Y-93630438D01*
X189753667Y-93452998D01*
X189742208Y-93441519D01*
X199585979Y-93441519D01*
X200096509Y-93952049D01*
X200211873Y-94029134D01*
X200347956Y-94056202D01*
X205019937Y-94056202D01*
X205131477Y-94130732D01*
X205267560Y-94157800D01*
X206329280Y-94157800D01*
X206465363Y-94130732D01*
X206580727Y-94053647D01*
X207076056Y-93558318D01*
X207242510Y-93558463D01*
X207461975Y-93467782D01*
X207630032Y-93300018D01*
X207721096Y-93080712D01*
X207721303Y-92843250D01*
X207630622Y-92623785D01*
X207462858Y-92455728D01*
X207243552Y-92364664D01*
X207006090Y-92364457D01*
X206786625Y-92455138D01*
X206646087Y-92595431D01*
X206645448Y-92593886D01*
X206431282Y-92379345D01*
X206151316Y-92263093D01*
X205848174Y-92262828D01*
X205568006Y-92378592D01*
X205353465Y-92592758D01*
X205237213Y-92872724D01*
X205236948Y-93175866D01*
X205324111Y-93386814D01*
X205302045Y-93372070D01*
X205165962Y-93345002D01*
X203977212Y-93345002D01*
X204185998Y-93136216D01*
X204225302Y-93128398D01*
X204336547Y-93054067D01*
X204379575Y-93011039D01*
X204406664Y-93022287D01*
X204709806Y-93022552D01*
X204989974Y-92906788D01*
X205204515Y-92692622D01*
X205320767Y-92412656D01*
X205321032Y-92109514D01*
X205205268Y-91829346D01*
X205089256Y-91713130D01*
X208570821Y-91713130D01*
X208581158Y-91805198D01*
X208745188Y-91880796D01*
X208925661Y-91887867D01*
X209095103Y-91825335D01*
X209125242Y-91805198D01*
X209135579Y-91713130D01*
X209470821Y-91713130D01*
X209481158Y-91805198D01*
X209645188Y-91880796D01*
X209825661Y-91887867D01*
X209995103Y-91825335D01*
X210025242Y-91805198D01*
X210035579Y-91713130D01*
X210370821Y-91713130D01*
X210381158Y-91805198D01*
X210545188Y-91880796D01*
X210725661Y-91887867D01*
X210895103Y-91825335D01*
X210925242Y-91805198D01*
X210935579Y-91713130D01*
X210653200Y-91430751D01*
X210370821Y-91713130D01*
X210035579Y-91713130D01*
X209753200Y-91430751D01*
X209470821Y-91713130D01*
X209135579Y-91713130D01*
X208853200Y-91430751D01*
X208570821Y-91713130D01*
X205089256Y-91713130D01*
X204991102Y-91614805D01*
X204722186Y-91503141D01*
X208396013Y-91503141D01*
X208458545Y-91672583D01*
X208478682Y-91702722D01*
X208570750Y-91713059D01*
X208853129Y-91430680D01*
X208853271Y-91430680D01*
X209135650Y-91713059D01*
X209227718Y-91702722D01*
X209303316Y-91538692D01*
X209303874Y-91524443D01*
X209358545Y-91672583D01*
X209378682Y-91702722D01*
X209470750Y-91713059D01*
X209753129Y-91430680D01*
X209753271Y-91430680D01*
X210035650Y-91713059D01*
X210127718Y-91702722D01*
X210203316Y-91538692D01*
X210203874Y-91524443D01*
X210258545Y-91672583D01*
X210278682Y-91702722D01*
X210370750Y-91713059D01*
X210653129Y-91430680D01*
X210653271Y-91430680D01*
X210935650Y-91713059D01*
X211027718Y-91702722D01*
X211103316Y-91538692D01*
X211110387Y-91358219D01*
X211047855Y-91188777D01*
X211027718Y-91158638D01*
X210935650Y-91148301D01*
X210653271Y-91430680D01*
X210653129Y-91430680D01*
X210370750Y-91148301D01*
X210278682Y-91158638D01*
X210203084Y-91322668D01*
X210202526Y-91336917D01*
X210147855Y-91188777D01*
X210127718Y-91158638D01*
X210035650Y-91148301D01*
X209753271Y-91430680D01*
X209753129Y-91430680D01*
X209470750Y-91148301D01*
X209378682Y-91158638D01*
X209303084Y-91322668D01*
X209302526Y-91336917D01*
X209247855Y-91188777D01*
X209227718Y-91158638D01*
X209135650Y-91148301D01*
X208853271Y-91430680D01*
X208853129Y-91430680D01*
X208570750Y-91148301D01*
X208478682Y-91158638D01*
X208403084Y-91322668D01*
X208396013Y-91503141D01*
X204722186Y-91503141D01*
X204711136Y-91498553D01*
X204683225Y-91498529D01*
X205021167Y-91160587D01*
X205098252Y-91045223D01*
X205125320Y-90909140D01*
X205125320Y-90850093D01*
X205200794Y-90818908D01*
X205206582Y-90813130D01*
X208570821Y-90813130D01*
X208581158Y-90905198D01*
X208745188Y-90980796D01*
X208759437Y-90981354D01*
X208611297Y-91036025D01*
X208581158Y-91056162D01*
X208570821Y-91148230D01*
X208853200Y-91430609D01*
X209135579Y-91148230D01*
X209125242Y-91056162D01*
X208961212Y-90980564D01*
X208946963Y-90980006D01*
X209095103Y-90925335D01*
X209125242Y-90905198D01*
X209135579Y-90813130D01*
X209470821Y-90813130D01*
X209481158Y-90905198D01*
X209645188Y-90980796D01*
X209659437Y-90981354D01*
X209511297Y-91036025D01*
X209481158Y-91056162D01*
X209470821Y-91148230D01*
X209753200Y-91430609D01*
X210035579Y-91148230D01*
X210025242Y-91056162D01*
X209861212Y-90980564D01*
X209846963Y-90980006D01*
X209995103Y-90925335D01*
X210025242Y-90905198D01*
X210035579Y-90813130D01*
X210370821Y-90813130D01*
X210381158Y-90905198D01*
X210545188Y-90980796D01*
X210559437Y-90981354D01*
X210411297Y-91036025D01*
X210381158Y-91056162D01*
X210370821Y-91148230D01*
X210653200Y-91430609D01*
X210935579Y-91148230D01*
X210925242Y-91056162D01*
X210761212Y-90980564D01*
X210746963Y-90980006D01*
X210895103Y-90925335D01*
X210925242Y-90905198D01*
X210935579Y-90813130D01*
X210653200Y-90530751D01*
X210370821Y-90813130D01*
X210035579Y-90813130D01*
X209753200Y-90530751D01*
X209470821Y-90813130D01*
X209135579Y-90813130D01*
X208853200Y-90530751D01*
X208570821Y-90813130D01*
X205206582Y-90813130D01*
X205415335Y-90604742D01*
X205415999Y-90603141D01*
X208396013Y-90603141D01*
X208458545Y-90772583D01*
X208478682Y-90802722D01*
X208570750Y-90813059D01*
X208853129Y-90530680D01*
X208853271Y-90530680D01*
X209135650Y-90813059D01*
X209227718Y-90802722D01*
X209303316Y-90638692D01*
X209303874Y-90624443D01*
X209358545Y-90772583D01*
X209378682Y-90802722D01*
X209470750Y-90813059D01*
X209753129Y-90530680D01*
X209753271Y-90530680D01*
X210035650Y-90813059D01*
X210127718Y-90802722D01*
X210203316Y-90638692D01*
X210203874Y-90624443D01*
X210258545Y-90772583D01*
X210278682Y-90802722D01*
X210370750Y-90813059D01*
X210653129Y-90530680D01*
X210653271Y-90530680D01*
X210935650Y-90813059D01*
X211027718Y-90802722D01*
X211103316Y-90638692D01*
X211110387Y-90458219D01*
X211047855Y-90288777D01*
X211027718Y-90258638D01*
X210935650Y-90248301D01*
X210653271Y-90530680D01*
X210653129Y-90530680D01*
X210370750Y-90248301D01*
X210278682Y-90258638D01*
X210203084Y-90422668D01*
X210202526Y-90436917D01*
X210147855Y-90288777D01*
X210127718Y-90258638D01*
X210035650Y-90248301D01*
X209753271Y-90530680D01*
X209753129Y-90530680D01*
X209470750Y-90248301D01*
X209378682Y-90258638D01*
X209303084Y-90422668D01*
X209302526Y-90436917D01*
X209247855Y-90288777D01*
X209227718Y-90258638D01*
X209135650Y-90248301D01*
X208853271Y-90530680D01*
X208853129Y-90530680D01*
X208570750Y-90248301D01*
X208478682Y-90258638D01*
X208403084Y-90422668D01*
X208396013Y-90603141D01*
X205415999Y-90603141D01*
X205531587Y-90324776D01*
X205531852Y-90021634D01*
X205487019Y-89913130D01*
X208570821Y-89913130D01*
X208581158Y-90005198D01*
X208745188Y-90080796D01*
X208759437Y-90081354D01*
X208611297Y-90136025D01*
X208581158Y-90156162D01*
X208570821Y-90248230D01*
X208853200Y-90530609D01*
X209135579Y-90248230D01*
X209125242Y-90156162D01*
X208961212Y-90080564D01*
X208946963Y-90080006D01*
X209095103Y-90025335D01*
X209125242Y-90005198D01*
X209135579Y-89913130D01*
X209470821Y-89913130D01*
X209481158Y-90005198D01*
X209645188Y-90080796D01*
X209659437Y-90081354D01*
X209511297Y-90136025D01*
X209481158Y-90156162D01*
X209470821Y-90248230D01*
X209753200Y-90530609D01*
X210035579Y-90248230D01*
X210025242Y-90156162D01*
X209861212Y-90080564D01*
X209846963Y-90080006D01*
X209995103Y-90025335D01*
X210025242Y-90005198D01*
X210035579Y-89913130D01*
X210370821Y-89913130D01*
X210381158Y-90005198D01*
X210545188Y-90080796D01*
X210559437Y-90081354D01*
X210411297Y-90136025D01*
X210381158Y-90156162D01*
X210370821Y-90248230D01*
X210653200Y-90530609D01*
X210935579Y-90248230D01*
X210925242Y-90156162D01*
X210761212Y-90080564D01*
X210746963Y-90080006D01*
X210895103Y-90025335D01*
X210925242Y-90005198D01*
X210935579Y-89913130D01*
X210653200Y-89630751D01*
X210370821Y-89913130D01*
X210035579Y-89913130D01*
X209753200Y-89630751D01*
X209470821Y-89913130D01*
X209135579Y-89913130D01*
X208853200Y-89630751D01*
X208570821Y-89913130D01*
X205487019Y-89913130D01*
X205416088Y-89741466D01*
X205377830Y-89703141D01*
X208396013Y-89703141D01*
X208458545Y-89872583D01*
X208478682Y-89902722D01*
X208570750Y-89913059D01*
X208853129Y-89630680D01*
X208853271Y-89630680D01*
X209135650Y-89913059D01*
X209227718Y-89902722D01*
X209303316Y-89738692D01*
X209303874Y-89724443D01*
X209358545Y-89872583D01*
X209378682Y-89902722D01*
X209470750Y-89913059D01*
X209753129Y-89630680D01*
X209753271Y-89630680D01*
X210035650Y-89913059D01*
X210127718Y-89902722D01*
X210203316Y-89738692D01*
X210203874Y-89724443D01*
X210258545Y-89872583D01*
X210278682Y-89902722D01*
X210370750Y-89913059D01*
X210653129Y-89630680D01*
X210653271Y-89630680D01*
X210935650Y-89913059D01*
X211027718Y-89902722D01*
X211103316Y-89738692D01*
X211110387Y-89558219D01*
X211047855Y-89388777D01*
X211027718Y-89358638D01*
X210935650Y-89348301D01*
X210653271Y-89630680D01*
X210653129Y-89630680D01*
X210370750Y-89348301D01*
X210278682Y-89358638D01*
X210203084Y-89522668D01*
X210202526Y-89536917D01*
X210147855Y-89388777D01*
X210127718Y-89358638D01*
X210035650Y-89348301D01*
X209753271Y-89630680D01*
X209753129Y-89630680D01*
X209470750Y-89348301D01*
X209378682Y-89358638D01*
X209303084Y-89522668D01*
X209302526Y-89536917D01*
X209247855Y-89388777D01*
X209227718Y-89358638D01*
X209135650Y-89348301D01*
X208853271Y-89630680D01*
X208853129Y-89630680D01*
X208570750Y-89348301D01*
X208478682Y-89358638D01*
X208403084Y-89522668D01*
X208396013Y-89703141D01*
X205377830Y-89703141D01*
X205201922Y-89526925D01*
X204921956Y-89410673D01*
X204618814Y-89410408D01*
X204338646Y-89526172D01*
X204124105Y-89740338D01*
X204007853Y-90020304D01*
X204007588Y-90323446D01*
X204123352Y-90603614D01*
X204337518Y-90818155D01*
X204351857Y-90824109D01*
X202542168Y-92633798D01*
X201874375Y-92633798D01*
X201932436Y-92493972D01*
X201932643Y-92256510D01*
X201906321Y-92192806D01*
X201979223Y-92178305D01*
X202111068Y-92090208D01*
X202588208Y-91613068D01*
X202608622Y-91582516D01*
X202676305Y-91481223D01*
X202707240Y-91325700D01*
X202707240Y-89348230D01*
X208570821Y-89348230D01*
X208853200Y-89630609D01*
X209135579Y-89348230D01*
X209470821Y-89348230D01*
X209753200Y-89630609D01*
X210035579Y-89348230D01*
X210370821Y-89348230D01*
X210653200Y-89630609D01*
X210935579Y-89348230D01*
X210925242Y-89256162D01*
X210761212Y-89180564D01*
X210580739Y-89173493D01*
X210411297Y-89236025D01*
X210381158Y-89256162D01*
X210370821Y-89348230D01*
X210035579Y-89348230D01*
X210025242Y-89256162D01*
X209861212Y-89180564D01*
X209680739Y-89173493D01*
X209511297Y-89236025D01*
X209481158Y-89256162D01*
X209470821Y-89348230D01*
X209135579Y-89348230D01*
X209125242Y-89256162D01*
X208961212Y-89180564D01*
X208780739Y-89173493D01*
X208611297Y-89236025D01*
X208581158Y-89256162D01*
X208570821Y-89348230D01*
X202707240Y-89348230D01*
X202707240Y-88727976D01*
X203192030Y-88243186D01*
X205183608Y-88243186D01*
X205299372Y-88523354D01*
X205513538Y-88737895D01*
X205793504Y-88854147D01*
X206096646Y-88854412D01*
X206376814Y-88738648D01*
X206480068Y-88635574D01*
X207587316Y-88635574D01*
X207660633Y-88813014D01*
X207796272Y-88948890D01*
X207973584Y-89022516D01*
X208165574Y-89022684D01*
X208257986Y-88984500D01*
X211105882Y-88984500D01*
X211695500Y-89574118D01*
X211695500Y-90790000D01*
X211729336Y-90960103D01*
X211822580Y-91099653D01*
X211825691Y-91104309D01*
X212002776Y-91281394D01*
X212030900Y-91349458D01*
X212030900Y-91426403D01*
X211729821Y-91727483D01*
X211576986Y-91790633D01*
X211441110Y-91926272D01*
X211367484Y-92103584D01*
X211367316Y-92295574D01*
X211440633Y-92473014D01*
X211576272Y-92608890D01*
X211753584Y-92682516D01*
X211945574Y-92682684D01*
X212123014Y-92609367D01*
X212258890Y-92473728D01*
X212322742Y-92319954D01*
X212746348Y-91896349D01*
X212837198Y-91760383D01*
X212842824Y-91732100D01*
X212869100Y-91600000D01*
X212869100Y-91349139D01*
X212932516Y-91196416D01*
X212932684Y-91004426D01*
X212903399Y-90933550D01*
X213106000Y-90933550D01*
X213106000Y-91470524D01*
X213144669Y-91563880D01*
X213216121Y-91635331D01*
X213309476Y-91674000D01*
X215396450Y-91674000D01*
X215459950Y-91610500D01*
X215459950Y-90870050D01*
X213169500Y-90870050D01*
X213106000Y-90933550D01*
X212903399Y-90933550D01*
X212859367Y-90826986D01*
X212723728Y-90691110D01*
X212631383Y-90652765D01*
X212584500Y-90605882D01*
X212584500Y-90269476D01*
X213106000Y-90269476D01*
X213106000Y-90806450D01*
X213169500Y-90869950D01*
X215459950Y-90869950D01*
X215459950Y-90129500D01*
X215396450Y-90066000D01*
X213309476Y-90066000D01*
X213216121Y-90104669D01*
X213144669Y-90176120D01*
X213106000Y-90269476D01*
X212584500Y-90269476D01*
X212584500Y-89390000D01*
X212578262Y-89358638D01*
X212550665Y-89219898D01*
X212454309Y-89075691D01*
X211604309Y-88225691D01*
X211601236Y-88223638D01*
X211460103Y-88129336D01*
X211290000Y-88095500D01*
X208257969Y-88095500D01*
X208166416Y-88057484D01*
X207974426Y-88057316D01*
X207796986Y-88130633D01*
X207661110Y-88266272D01*
X207587484Y-88443584D01*
X207587316Y-88635574D01*
X206480068Y-88635574D01*
X206591355Y-88524482D01*
X206707607Y-88244516D01*
X206707872Y-87941374D01*
X206592108Y-87661206D01*
X206377942Y-87446665D01*
X206097976Y-87330413D01*
X205794834Y-87330148D01*
X205514666Y-87445912D01*
X205300125Y-87660078D01*
X205183873Y-87940044D01*
X205183608Y-88243186D01*
X203192030Y-88243186D01*
X203467415Y-87967801D01*
X203607770Y-87967923D01*
X203827235Y-87877242D01*
X203995292Y-87709478D01*
X204086356Y-87490172D01*
X204086385Y-87456595D01*
X204960380Y-86582600D01*
X206200100Y-86582600D01*
X206503025Y-86885525D01*
X206502997Y-86918210D01*
X206593678Y-87137675D01*
X206761442Y-87305732D01*
X206980748Y-87396796D01*
X207218210Y-87397003D01*
X207437675Y-87306322D01*
X207605732Y-87138558D01*
X207696796Y-86919252D01*
X207696844Y-86863550D01*
X213106000Y-86863550D01*
X213106000Y-87400524D01*
X213144669Y-87493880D01*
X213216121Y-87565331D01*
X213309476Y-87604000D01*
X215396450Y-87604000D01*
X215459950Y-87540500D01*
X215459950Y-86800050D01*
X213169500Y-86800050D01*
X213106000Y-86863550D01*
X207696844Y-86863550D01*
X207697003Y-86681790D01*
X207606322Y-86462325D01*
X207438558Y-86294268D01*
X207219252Y-86203204D01*
X207185674Y-86203175D01*
X207181976Y-86199476D01*
X213106000Y-86199476D01*
X213106000Y-86736450D01*
X213169500Y-86799950D01*
X215459950Y-86799950D01*
X215459950Y-86059500D01*
X215396450Y-85996000D01*
X213309476Y-85996000D01*
X213216121Y-86034669D01*
X213144669Y-86106120D01*
X213106000Y-86199476D01*
X207181976Y-86199476D01*
X206741250Y-85758750D01*
X206584683Y-85654136D01*
X206400000Y-85617400D01*
X204760480Y-85617400D01*
X204575797Y-85654136D01*
X204419230Y-85758750D01*
X203404035Y-86773945D01*
X203371350Y-86773917D01*
X203151885Y-86864598D01*
X202983828Y-87032362D01*
X202892764Y-87251668D01*
X202892641Y-87393103D01*
X202013472Y-88272272D01*
X201925375Y-88404117D01*
X201894440Y-88559640D01*
X201894440Y-90477111D01*
X201866211Y-90408960D01*
X201794759Y-90337509D01*
X201701404Y-90298840D01*
X201414430Y-90298840D01*
X201350930Y-90362340D01*
X201350930Y-90802790D01*
X201370930Y-90802790D01*
X201370930Y-90802890D01*
X201350930Y-90802890D01*
X201350930Y-90822890D01*
X201350830Y-90822890D01*
X201350830Y-90802890D01*
X200860380Y-90802890D01*
X200796880Y-90866390D01*
X200796880Y-91103364D01*
X200835549Y-91196720D01*
X200907001Y-91268171D01*
X200994597Y-91304454D01*
X200956753Y-91311575D01*
X200870304Y-91367204D01*
X200812308Y-91452084D01*
X200791904Y-91552840D01*
X200791904Y-92052840D01*
X200801595Y-92104346D01*
X200738844Y-92255468D01*
X200738637Y-92492930D01*
X200796842Y-92633798D01*
X200753930Y-92633798D01*
X200154540Y-92034408D01*
X200154540Y-91351100D01*
X200154037Y-91348573D01*
X200127472Y-91215017D01*
X200050387Y-91099653D01*
X199453050Y-90502316D01*
X200796880Y-90502316D01*
X200796880Y-90739290D01*
X200860380Y-90802790D01*
X201350830Y-90802790D01*
X201350830Y-90362340D01*
X201287330Y-90298840D01*
X201000356Y-90298840D01*
X200907001Y-90337509D01*
X200835549Y-90408960D01*
X200796880Y-90502316D01*
X199453050Y-90502316D01*
X199194438Y-90243704D01*
X199194504Y-90168406D01*
X199121187Y-89990966D01*
X198985548Y-89855090D01*
X198808236Y-89781464D01*
X198616246Y-89781296D01*
X198438806Y-89854613D01*
X198302930Y-89990252D01*
X198229304Y-90167564D01*
X198229136Y-90359554D01*
X198302453Y-90536994D01*
X198438092Y-90672870D01*
X198615404Y-90746496D01*
X198691509Y-90746563D01*
X199072973Y-91128027D01*
X198921406Y-91190653D01*
X198785530Y-91326292D01*
X198711904Y-91503604D01*
X198711736Y-91695594D01*
X198785053Y-91873034D01*
X198838820Y-91926895D01*
X198838820Y-92080080D01*
X198865888Y-92216163D01*
X198942973Y-92331527D01*
X199341765Y-92730319D01*
X189504331Y-92730319D01*
X189504423Y-92624810D01*
X189413742Y-92405345D01*
X189245978Y-92237288D01*
X189026672Y-92146224D01*
X189008134Y-92146208D01*
X190379821Y-90774520D01*
X190847834Y-90774520D01*
X191000508Y-90837916D01*
X191237970Y-90838123D01*
X191457435Y-90747442D01*
X191625492Y-90579678D01*
X191716556Y-90360372D01*
X191716763Y-90122910D01*
X191626533Y-89904536D01*
X194149974Y-89904597D01*
X194189709Y-89901471D01*
X194344220Y-89877002D01*
X194419800Y-89852446D01*
X194559187Y-89781428D01*
X194623481Y-89734718D01*
X194734100Y-89624102D01*
X194780812Y-89559809D01*
X194851834Y-89420423D01*
X194876392Y-89344844D01*
X194900865Y-89190334D01*
X194903992Y-89150598D01*
X194903999Y-84518370D01*
X194919052Y-84423338D01*
X194953548Y-84355641D01*
X195007276Y-84301917D01*
X195074977Y-84267428D01*
X195170011Y-84252384D01*
X212248862Y-84253950D01*
X212288651Y-84250818D01*
X212443374Y-84226292D01*
X212519052Y-84201673D01*
X212658591Y-84130473D01*
X212722936Y-84083645D01*
X212833594Y-83972760D01*
X212880289Y-83908321D01*
X212951204Y-83768637D01*
X212975668Y-83692909D01*
X212999878Y-83538137D01*
X213002929Y-83498341D01*
X212999440Y-81863550D01*
X213106000Y-81863550D01*
X213106000Y-82400524D01*
X213144669Y-82493880D01*
X213216121Y-82565331D01*
X213309476Y-82604000D01*
X215396450Y-82604000D01*
X215459950Y-82540500D01*
X215459950Y-81800050D01*
X213169500Y-81800050D01*
X213106000Y-81863550D01*
X212999440Y-81863550D01*
X212998022Y-81199476D01*
X213106000Y-81199476D01*
X213106000Y-81736450D01*
X213169500Y-81799950D01*
X215459950Y-81799950D01*
X215459950Y-81059500D01*
X215396450Y-80996000D01*
X213309476Y-80996000D01*
X213216121Y-81034669D01*
X213144669Y-81106120D01*
X213106000Y-81199476D01*
X212998022Y-81199476D01*
X212996999Y-80720486D01*
X213011885Y-80625306D01*
X213046316Y-80557476D01*
X213100044Y-80503626D01*
X213167802Y-80469041D01*
X213262943Y-80453941D01*
X217460085Y-80453467D01*
X217509633Y-80448582D01*
X217681000Y-80414478D01*
X217681000Y-81025192D01*
G36*
X184167532Y-89823491D02*
X184259091Y-89861418D01*
X184450429Y-89899482D01*
X184499982Y-89904364D01*
X189741168Y-89904491D01*
X186503858Y-93141800D01*
X184716192Y-93141800D01*
X184754000Y-93050524D01*
X184754000Y-92613550D01*
X184690500Y-92550050D01*
X184200050Y-92550050D01*
X184200050Y-92570050D01*
X184199950Y-92570050D01*
X184199950Y-92550050D01*
X184179950Y-92550050D01*
X184179950Y-92549950D01*
X184199950Y-92549950D01*
X184199950Y-91909500D01*
X184200050Y-91909500D01*
X184200050Y-92549950D01*
X184690500Y-92549950D01*
X184754000Y-92486450D01*
X184754000Y-92049476D01*
X184715331Y-91956121D01*
X184643880Y-91884669D01*
X184550524Y-91846000D01*
X184263550Y-91846000D01*
X184200050Y-91909500D01*
X184199950Y-91909500D01*
X184136450Y-91846000D01*
X184076200Y-91846000D01*
X184076200Y-91197384D01*
X184667316Y-91197384D01*
X184740633Y-91374824D01*
X184876272Y-91510700D01*
X185053584Y-91584326D01*
X185245574Y-91584494D01*
X185423014Y-91511177D01*
X185558890Y-91375538D01*
X185632516Y-91198226D01*
X185632684Y-91006236D01*
X185559367Y-90828796D01*
X185423728Y-90692920D01*
X185246416Y-90619294D01*
X185054426Y-90619126D01*
X184876986Y-90692443D01*
X184741110Y-90828082D01*
X184667484Y-91005394D01*
X184667316Y-91197384D01*
X184076200Y-91197384D01*
X184076200Y-89762463D01*
X184167532Y-89823491D01*
X184167532Y-89823491D01*
G37*
X184167532Y-89823491D02*
X184259091Y-89861418D01*
X184450429Y-89899482D01*
X184499982Y-89904364D01*
X189741168Y-89904491D01*
X186503858Y-93141800D01*
X184716192Y-93141800D01*
X184754000Y-93050524D01*
X184754000Y-92613550D01*
X184690500Y-92550050D01*
X184200050Y-92550050D01*
X184200050Y-92570050D01*
X184199950Y-92570050D01*
X184199950Y-92550050D01*
X184179950Y-92550050D01*
X184179950Y-92549950D01*
X184199950Y-92549950D01*
X184199950Y-91909500D01*
X184200050Y-91909500D01*
X184200050Y-92549950D01*
X184690500Y-92549950D01*
X184754000Y-92486450D01*
X184754000Y-92049476D01*
X184715331Y-91956121D01*
X184643880Y-91884669D01*
X184550524Y-91846000D01*
X184263550Y-91846000D01*
X184200050Y-91909500D01*
X184199950Y-91909500D01*
X184136450Y-91846000D01*
X184076200Y-91846000D01*
X184076200Y-91197384D01*
X184667316Y-91197384D01*
X184740633Y-91374824D01*
X184876272Y-91510700D01*
X185053584Y-91584326D01*
X185245574Y-91584494D01*
X185423014Y-91511177D01*
X185558890Y-91375538D01*
X185632516Y-91198226D01*
X185632684Y-91006236D01*
X185559367Y-90828796D01*
X185423728Y-90692920D01*
X185246416Y-90619294D01*
X185054426Y-90619126D01*
X184876986Y-90692443D01*
X184741110Y-90828082D01*
X184667484Y-91005394D01*
X184667316Y-91197384D01*
X184076200Y-91197384D01*
X184076200Y-89762463D01*
X184167532Y-89823491D01*
M02*
