G04 (created by PCBNEW (2013-may-18)-stable) date Tue 15 Oct 2013 04:41:00 PM EDT*
%MOIN*%
G04 Gerber Fmt 3.4, Leading zero omitted, Abs format*
%FSLAX34Y34*%
G01*
G70*
G90*
G04 APERTURE LIST*
%ADD10C,0.00590551*%
%ADD11R,0.0275591X0.0511811*%
%ADD12R,0.0354331X0.023622*%
%ADD13R,0.023622X0.019685*%
%ADD14R,0.019685X0.023622*%
%ADD15C,0.0492*%
%ADD16C,0.063*%
%ADD17C,0.07*%
%ADD18R,0.07X0.07*%
%ADD19C,0.04*%
%ADD20R,0.04X0.04*%
%ADD21C,0.055*%
%ADD22C,0.015748*%
%ADD23C,0.086*%
%ADD24C,0.027*%
%ADD25C,0.01*%
%ADD26C,0.012*%
%ADD27C,0.014*%
%ADD28C,0.018*%
%ADD29C,0.008*%
%ADD30C,0.007*%
G04 APERTURE END LIST*
G54D10*
G54D11*
X55188Y-38260D03*
X54439Y-38260D03*
X51904Y-37610D03*
X51155Y-37610D03*
X49975Y-35700D03*
X50724Y-35700D03*
G54D12*
X59900Y-38810D03*
X59900Y-38219D03*
G54D13*
X61645Y-35941D03*
X61645Y-35548D03*
X53000Y-39436D03*
X53000Y-39043D03*
X60100Y-41228D03*
X60100Y-41621D03*
X58395Y-38816D03*
X58395Y-38423D03*
X57170Y-43838D03*
X57170Y-44231D03*
G54D14*
X59518Y-44430D03*
X59911Y-44430D03*
X59523Y-45135D03*
X59916Y-45135D03*
X56928Y-43330D03*
X57321Y-43330D03*
X54048Y-37805D03*
X54441Y-37805D03*
X54048Y-37500D03*
X54441Y-37500D03*
X53333Y-39270D03*
X53726Y-39270D03*
X61086Y-39900D03*
X60693Y-39900D03*
G54D15*
X54303Y-45094D03*
G54D16*
X53240Y-45488D03*
X53240Y-42732D03*
G54D15*
X54303Y-43126D03*
G54D17*
X63652Y-39483D03*
G54D18*
X63652Y-40483D03*
G54D19*
X50940Y-34940D03*
G54D20*
X50440Y-34940D03*
G54D19*
X53719Y-34937D03*
G54D20*
X53219Y-34937D03*
G54D19*
X59816Y-35764D03*
G54D20*
X59816Y-36264D03*
G54D19*
X58820Y-35510D03*
G54D20*
X58820Y-35010D03*
G54D19*
X54700Y-41680D03*
G54D20*
X54200Y-41680D03*
G54D19*
X56625Y-47110D03*
X57125Y-47110D03*
X58125Y-47110D03*
X57625Y-47110D03*
X58625Y-47110D03*
G54D20*
X59125Y-47110D03*
G54D21*
X50437Y-37003D03*
X49937Y-36629D03*
X50937Y-36629D03*
X50437Y-38814D03*
X49937Y-38440D03*
X50937Y-38440D03*
G54D19*
X55960Y-42040D03*
X62138Y-42538D03*
X55020Y-45350D03*
X54740Y-42400D03*
X62614Y-42094D03*
X62670Y-41328D03*
G54D22*
X62820Y-36026D03*
X62820Y-35317D03*
X62112Y-35672D03*
X62466Y-36026D03*
X62466Y-35317D03*
X62820Y-35672D03*
X62112Y-36026D03*
X62466Y-35672D03*
X62112Y-35317D03*
G54D19*
X55615Y-46375D03*
G54D20*
X55115Y-46375D03*
G54D23*
X64220Y-46768D03*
X56948Y-35096D03*
X48614Y-35096D03*
X53550Y-46768D03*
G54D13*
X63156Y-41471D03*
X63156Y-41864D03*
X63496Y-41864D03*
X63496Y-41471D03*
X63826Y-41864D03*
X63826Y-41471D03*
G54D24*
X62190Y-42088D03*
X62110Y-41506D03*
X56840Y-44085D03*
X59523Y-44760D03*
X59245Y-43550D03*
X59595Y-39105D03*
X59275Y-39635D03*
X56710Y-43530D03*
X60585Y-42260D03*
X59040Y-42970D03*
X57100Y-43700D03*
X60885Y-41220D03*
X59670Y-42720D03*
X60960Y-40465D03*
X59795Y-39810D03*
X58065Y-38415D03*
X61580Y-39560D03*
X59590Y-39455D03*
X61230Y-36160D03*
X61720Y-36700D03*
X63345Y-36575D03*
X61300Y-35425D03*
X53800Y-36700D03*
X51362Y-40508D03*
X53630Y-39354D03*
X54300Y-39435D03*
X53620Y-37600D03*
X51067Y-35724D03*
X59910Y-43000D03*
X60230Y-42230D03*
X58100Y-39585D03*
X58285Y-40600D03*
X59075Y-41300D03*
X59610Y-43150D03*
X63254Y-34946D03*
X64145Y-41210D03*
X62435Y-34540D03*
X60150Y-44985D03*
X64560Y-41780D03*
X63586Y-34928D03*
X60170Y-44635D03*
X64405Y-41435D03*
X56160Y-45700D03*
X56500Y-44125D03*
X56420Y-45075D03*
X56410Y-44460D03*
X60075Y-45820D03*
X60065Y-40370D03*
X58550Y-41115D03*
X60420Y-40370D03*
X58160Y-41155D03*
X57810Y-41245D03*
X60320Y-40695D03*
X55115Y-43530D03*
X55670Y-43690D03*
X48652Y-36534D03*
X64358Y-42120D03*
X63736Y-42798D03*
X63180Y-43312D03*
X62608Y-43870D03*
X60130Y-43882D03*
X62310Y-44180D03*
X62000Y-44490D03*
X63140Y-44540D03*
X63398Y-45136D03*
X62834Y-45986D03*
X60520Y-45868D03*
X60988Y-45986D03*
X55215Y-38855D03*
X55725Y-39170D03*
X60485Y-46510D03*
X59680Y-45820D03*
X60895Y-39540D03*
X64840Y-34730D03*
X64830Y-35400D03*
X64865Y-36700D03*
X64900Y-37645D03*
X64865Y-38590D03*
X54450Y-36280D03*
X50570Y-36190D03*
X51190Y-36130D03*
X60445Y-35285D03*
X58060Y-36560D03*
X56360Y-37390D03*
X55715Y-36160D03*
X56058Y-35272D03*
X56875Y-35985D03*
X56855Y-36780D03*
X56955Y-37425D03*
X56955Y-38765D03*
X62820Y-37685D03*
X62790Y-37360D03*
X62225Y-39095D03*
X62105Y-39905D03*
X62350Y-40090D03*
X62605Y-39905D03*
X56760Y-45925D03*
X55715Y-45625D03*
X55295Y-44940D03*
X58030Y-38750D03*
X58370Y-39360D03*
X61140Y-41495D03*
X61330Y-40460D03*
X61515Y-41170D03*
X61000Y-42825D03*
X60570Y-41890D03*
X60310Y-39105D03*
X60345Y-38325D03*
X55160Y-42740D03*
X55330Y-43260D03*
X56430Y-43155D03*
X56320Y-38340D03*
X56325Y-40045D03*
X56350Y-39570D03*
X56280Y-38885D03*
X56100Y-37340D03*
X50600Y-39334D03*
X51200Y-40210D03*
X50610Y-40124D03*
X51114Y-38994D03*
X53200Y-38754D03*
X52630Y-39170D03*
X52270Y-38680D03*
X54290Y-39055D03*
X52790Y-39950D03*
X51500Y-36078D03*
X52000Y-38180D03*
X52720Y-40500D03*
X54600Y-37070D03*
X53960Y-40460D03*
X53380Y-40610D03*
X52860Y-39530D03*
X48740Y-37100D03*
X50810Y-37900D03*
X50160Y-37690D03*
X54860Y-35880D03*
X49620Y-35670D03*
X52915Y-37600D03*
X48862Y-35776D03*
X63044Y-42196D03*
X55000Y-44305D03*
X53560Y-37930D03*
X53560Y-37270D03*
X53840Y-38120D03*
X54515Y-38780D03*
X55380Y-37490D03*
X55180Y-36490D03*
X61565Y-36230D03*
X63090Y-41040D03*
X55680Y-37645D03*
X51760Y-40010D03*
G54D25*
X62190Y-42088D02*
X62110Y-42008D01*
X62110Y-42008D02*
X62110Y-41506D01*
G54D26*
X56840Y-43660D02*
X56710Y-43530D01*
X56840Y-44085D02*
X56840Y-43660D01*
G54D25*
X59523Y-45135D02*
X59523Y-44760D01*
X59523Y-44760D02*
X59523Y-44435D01*
X59523Y-44435D02*
X59518Y-44430D01*
X56928Y-43330D02*
X56910Y-43330D01*
X56910Y-43330D02*
X56710Y-43530D01*
G54D26*
X59900Y-38810D02*
X59889Y-38810D01*
X59889Y-38810D02*
X59595Y-39105D01*
X59375Y-43420D02*
X59375Y-43305D01*
X59245Y-43550D02*
X59375Y-43420D01*
G54D27*
X59275Y-39635D02*
X59275Y-39320D01*
X59490Y-39105D02*
X59595Y-39105D01*
X59275Y-39320D02*
X59490Y-39105D01*
G54D25*
X60585Y-42260D02*
X60585Y-42830D01*
X60585Y-42830D02*
X59920Y-43495D01*
X59920Y-43495D02*
X59565Y-43495D01*
X59565Y-43495D02*
X59375Y-43305D01*
X59375Y-43305D02*
X59040Y-42970D01*
X60693Y-39900D02*
X60505Y-39900D01*
X60505Y-39900D02*
X60450Y-39955D01*
G54D26*
X57170Y-43838D02*
X57170Y-43745D01*
X57170Y-43745D02*
X57100Y-43700D01*
X60100Y-41621D02*
X60100Y-41625D01*
X60100Y-41625D02*
X60277Y-41802D01*
G54D25*
X60165Y-41915D02*
X60277Y-41802D01*
X60277Y-41802D02*
X60860Y-41220D01*
X60860Y-41220D02*
X60885Y-41220D01*
X59670Y-42720D02*
X59930Y-42460D01*
X59930Y-42460D02*
X59930Y-42150D01*
X59930Y-42150D02*
X60165Y-41915D01*
X60165Y-41915D02*
X60170Y-41910D01*
G54D27*
X60450Y-39955D02*
X60429Y-39934D01*
G54D25*
X60960Y-40465D02*
X60450Y-39955D01*
G54D27*
X60429Y-39934D02*
X59919Y-39934D01*
X59919Y-39934D02*
X59795Y-39810D01*
G54D25*
X58395Y-38423D02*
X58073Y-38423D01*
X58073Y-38423D02*
X58065Y-38415D01*
G54D28*
X60760Y-39240D02*
X60515Y-39485D01*
X61260Y-39240D02*
X60760Y-39240D01*
X61580Y-39560D02*
X61260Y-39240D01*
X60515Y-39485D02*
X59620Y-39485D01*
X59620Y-39485D02*
X59590Y-39455D01*
G54D26*
X61335Y-35700D02*
X61335Y-36055D01*
X61335Y-36055D02*
X61230Y-36160D01*
X61335Y-35670D02*
X61335Y-35700D01*
X61720Y-36700D02*
X61880Y-36860D01*
X61880Y-36860D02*
X63060Y-36860D01*
X63060Y-36860D02*
X63345Y-36575D01*
X61335Y-35460D02*
X61335Y-35670D01*
X61300Y-35425D02*
X61335Y-35460D01*
G54D25*
X53310Y-37430D02*
X53480Y-37600D01*
X53800Y-36700D02*
X53460Y-37040D01*
X53460Y-37040D02*
X53430Y-37040D01*
X53430Y-37040D02*
X53310Y-37160D01*
X53310Y-37160D02*
X53310Y-37430D01*
X50866Y-39044D02*
X50866Y-38512D01*
X50866Y-38512D02*
X50937Y-38440D01*
X51083Y-40508D02*
X50866Y-40291D01*
X50866Y-40291D02*
X50866Y-39044D01*
X51083Y-40508D02*
X51362Y-40508D01*
X54300Y-39435D02*
X54135Y-39270D01*
X54135Y-39270D02*
X53726Y-39270D01*
G54D27*
X53422Y-38942D02*
X53592Y-38773D01*
X53592Y-38472D02*
X53280Y-38160D01*
X53592Y-38773D02*
X53592Y-38472D01*
G54D29*
X53726Y-39270D02*
X53706Y-39270D01*
X53456Y-39020D02*
X53345Y-39020D01*
X53706Y-39270D02*
X53456Y-39020D01*
G54D30*
X53714Y-39270D02*
X53726Y-39270D01*
X53630Y-39354D02*
X53714Y-39270D01*
G54D27*
X53422Y-38942D02*
X53345Y-39020D01*
X52893Y-38890D02*
X52480Y-38890D01*
X52340Y-39030D02*
X52480Y-38890D01*
X51526Y-39030D02*
X52340Y-39030D01*
X50937Y-38440D02*
X51526Y-39030D01*
X53345Y-39020D02*
X53023Y-39020D01*
X53023Y-39020D02*
X52893Y-38890D01*
G54D25*
X54080Y-39270D02*
X54135Y-39270D01*
X54100Y-39270D02*
X54230Y-39400D01*
X54080Y-39270D02*
X54100Y-39270D01*
X51155Y-37610D02*
X51155Y-37310D01*
X51155Y-37310D02*
X50937Y-37092D01*
G54D27*
X53480Y-37600D02*
X53280Y-37800D01*
X53280Y-37800D02*
X53280Y-38160D01*
X53620Y-37600D02*
X53480Y-37600D01*
G54D25*
X50937Y-38440D02*
X50870Y-38440D01*
X50937Y-37092D02*
X50937Y-36629D01*
X50550Y-37480D02*
X50937Y-37092D01*
X50550Y-38120D02*
X50550Y-37480D01*
X50870Y-38440D02*
X50550Y-38120D01*
X50724Y-35700D02*
X51043Y-35700D01*
X51043Y-35700D02*
X51067Y-35724D01*
X50937Y-36629D02*
X50937Y-35854D01*
X50937Y-35854D02*
X51067Y-35724D01*
X59910Y-43000D02*
X60230Y-42680D01*
X60230Y-42680D02*
X60230Y-42230D01*
X58100Y-40415D02*
X58100Y-39585D01*
X58285Y-40600D02*
X58100Y-40415D01*
X59730Y-41950D02*
X59080Y-41300D01*
X59080Y-41300D02*
X59075Y-41300D01*
X59730Y-42290D02*
X59730Y-41950D01*
X59350Y-42670D02*
X59730Y-42290D01*
X59350Y-42890D02*
X59350Y-42670D01*
X59610Y-43150D02*
X59350Y-42890D01*
X64244Y-35988D02*
X64244Y-35936D01*
X64244Y-35936D02*
X63254Y-34946D01*
X64244Y-41110D02*
X64244Y-35988D01*
X64145Y-41210D02*
X64244Y-41110D01*
X64565Y-36126D02*
X64565Y-35804D01*
X62575Y-34680D02*
X62435Y-34540D01*
X63680Y-34680D02*
X62575Y-34680D01*
X63692Y-34680D02*
X63680Y-34680D01*
X63908Y-34896D02*
X63692Y-34680D01*
X63908Y-35147D02*
X63908Y-34896D01*
X64565Y-35804D02*
X63908Y-35147D01*
X60000Y-45135D02*
X59916Y-45135D01*
X60150Y-44985D02*
X60000Y-45135D01*
X64565Y-41180D02*
X64565Y-36126D01*
X64655Y-41269D02*
X64565Y-41180D01*
X64655Y-41685D02*
X64655Y-41269D01*
X64560Y-41780D02*
X64655Y-41685D01*
X64405Y-36040D02*
X64405Y-35870D01*
X63586Y-35051D02*
X63586Y-34928D01*
X64405Y-35870D02*
X63586Y-35051D01*
X59965Y-44430D02*
X59911Y-44430D01*
X60170Y-44635D02*
X59965Y-44430D01*
X64405Y-41435D02*
X64405Y-36040D01*
G54D26*
X56685Y-45175D02*
X56160Y-45700D01*
X56685Y-44310D02*
X56685Y-45175D01*
X56500Y-44125D02*
X56685Y-44310D01*
G54D25*
X56420Y-44470D02*
X56420Y-45075D01*
X56410Y-44460D02*
X56420Y-44470D01*
X59125Y-46860D02*
X59125Y-47110D01*
X60075Y-45910D02*
X59125Y-46860D01*
X60075Y-45820D02*
X60075Y-45910D01*
X59295Y-40370D02*
X60065Y-40370D01*
X58550Y-41115D02*
X59295Y-40370D01*
X60165Y-40115D02*
X60420Y-40370D01*
X59200Y-40115D02*
X60165Y-40115D01*
X58160Y-41155D02*
X59200Y-40115D01*
X59990Y-40720D02*
X60295Y-40720D01*
X57810Y-41245D02*
X57980Y-41415D01*
X57980Y-41415D02*
X58190Y-41415D01*
X58600Y-41415D02*
X59295Y-40720D01*
X59295Y-40720D02*
X59990Y-40720D01*
X58190Y-41415D02*
X58600Y-41415D01*
X60295Y-40720D02*
X60320Y-40695D01*
X55510Y-43530D02*
X55115Y-43530D01*
X55670Y-43690D02*
X55510Y-43530D01*
X63826Y-41471D02*
X63496Y-41471D01*
X64358Y-42176D02*
X64358Y-42120D01*
X63736Y-42798D02*
X64358Y-42176D01*
X63166Y-43312D02*
X63180Y-43312D01*
X62608Y-43870D02*
X63166Y-43312D01*
X62012Y-43882D02*
X60130Y-43882D01*
X62310Y-44180D02*
X62012Y-43882D01*
X63090Y-44490D02*
X62000Y-44490D01*
X63140Y-44540D02*
X63090Y-44490D01*
X63180Y-45640D02*
X63398Y-45136D01*
X62834Y-45986D02*
X63180Y-45640D01*
X60870Y-45868D02*
X60520Y-45868D01*
X60988Y-45986D02*
X60870Y-45868D01*
X55188Y-38828D02*
X55215Y-38855D01*
X55188Y-38260D02*
X55188Y-38828D01*
X60895Y-39540D02*
X60895Y-39580D01*
X61086Y-39771D02*
X61086Y-39900D01*
X60895Y-39580D02*
X61086Y-39771D01*
G54D27*
X64830Y-36665D02*
X64830Y-35400D01*
X64865Y-36700D02*
X64830Y-36665D01*
X64900Y-38555D02*
X64900Y-37645D01*
X64865Y-38590D02*
X64900Y-38555D01*
G54D25*
X50080Y-35700D02*
X50570Y-36190D01*
X50080Y-35700D02*
X49975Y-35700D01*
G54D26*
X56360Y-37390D02*
X56920Y-37390D01*
X55715Y-36050D02*
X55715Y-36160D01*
X56058Y-35272D02*
X55715Y-36050D01*
X56875Y-36760D02*
X56875Y-35985D01*
X56855Y-36780D02*
X56875Y-36760D01*
X56920Y-37390D02*
X56955Y-37425D01*
X56955Y-38765D02*
X56950Y-38765D01*
X62820Y-37390D02*
X62820Y-37685D01*
X62790Y-37360D02*
X62820Y-37390D01*
X62350Y-40090D02*
X62165Y-39905D01*
X62165Y-39905D02*
X62105Y-39905D01*
X62605Y-39905D02*
X62420Y-40090D01*
X62420Y-40090D02*
X62350Y-40090D01*
X63652Y-40483D02*
X63593Y-40483D01*
X63593Y-40483D02*
X63015Y-39905D01*
X63015Y-39905D02*
X62605Y-39905D01*
X56760Y-45925D02*
X56750Y-45925D01*
X55720Y-45620D02*
X55715Y-45620D01*
X55720Y-45625D02*
X55720Y-45620D01*
X55715Y-45625D02*
X55720Y-45625D01*
G54D25*
X58395Y-38816D02*
X58096Y-38816D01*
X58096Y-38816D02*
X58030Y-38750D01*
X60965Y-41495D02*
X61140Y-41495D01*
X60570Y-41890D02*
X60965Y-41495D01*
X61330Y-40985D02*
X61330Y-40460D01*
X61515Y-41170D02*
X61330Y-40985D01*
X61000Y-42825D02*
X60905Y-42730D01*
X60905Y-42225D02*
X60570Y-41890D01*
X60905Y-42730D02*
X60905Y-42225D01*
X56320Y-38340D02*
X56320Y-38845D01*
X56325Y-39595D02*
X56325Y-40045D01*
X56350Y-39570D02*
X56325Y-39595D01*
X56320Y-38845D02*
X56280Y-38885D01*
X50600Y-40114D02*
X50600Y-39334D01*
X52310Y-39950D02*
X51955Y-39595D01*
X51955Y-39595D02*
X51580Y-39595D01*
X51580Y-39595D02*
X51200Y-39975D01*
X51200Y-39975D02*
X51200Y-40210D01*
X52790Y-39950D02*
X52310Y-39950D01*
X50610Y-40124D02*
X50600Y-40114D01*
G54D27*
X52272Y-38678D02*
X53124Y-38678D01*
X53124Y-38678D02*
X53200Y-38754D01*
G54D25*
X52860Y-39400D02*
X52630Y-39170D01*
X52860Y-39530D02*
X52860Y-39400D01*
G54D27*
X52270Y-38680D02*
X52272Y-38678D01*
G54D25*
X53000Y-39436D02*
X52953Y-39436D01*
X52953Y-39436D02*
X52860Y-39530D01*
X54290Y-39055D02*
X54355Y-39055D01*
X54355Y-39055D02*
X54560Y-39260D01*
X54560Y-39260D02*
X54560Y-39595D01*
X54560Y-39595D02*
X54205Y-39950D01*
X54205Y-39950D02*
X53910Y-39950D01*
X53910Y-39950D02*
X52790Y-39950D01*
X55188Y-38458D02*
X55188Y-38260D01*
X51800Y-38180D02*
X51570Y-37950D01*
X51570Y-37950D02*
X51570Y-37860D01*
X52860Y-39530D02*
X53073Y-39530D01*
X53073Y-39530D02*
X53333Y-39270D01*
X51570Y-37390D02*
X51570Y-36990D01*
X51570Y-36990D02*
X51500Y-36920D01*
X51904Y-37610D02*
X51640Y-37610D01*
X51640Y-37610D02*
X51570Y-37540D01*
X51500Y-36078D02*
X51500Y-36920D01*
X51570Y-37860D02*
X51570Y-37540D01*
X51570Y-37540D02*
X51570Y-37390D01*
G54D27*
X51800Y-38180D02*
X52000Y-38180D01*
G54D25*
X54760Y-37600D02*
X54760Y-37230D01*
X55188Y-38028D02*
X54760Y-37600D01*
X55188Y-38260D02*
X55188Y-38028D01*
X54760Y-37230D02*
X54600Y-37070D01*
X48740Y-37100D02*
X49570Y-37100D01*
X49570Y-37100D02*
X50160Y-37690D01*
X63496Y-41864D02*
X63826Y-41864D01*
X63156Y-41864D02*
X63496Y-41864D01*
X63156Y-41864D02*
X63156Y-42084D01*
X63156Y-42084D02*
X63044Y-42196D01*
X55020Y-44325D02*
X55000Y-44305D01*
X55020Y-45350D02*
X55020Y-44325D01*
G54D30*
X54013Y-37840D02*
X54048Y-37805D01*
X53650Y-37840D02*
X54013Y-37840D01*
X53560Y-37930D02*
X53650Y-37840D01*
G54D25*
X53878Y-37330D02*
X54048Y-37500D01*
X53620Y-37330D02*
X53878Y-37330D01*
X53560Y-37270D02*
X53620Y-37330D01*
X54170Y-38540D02*
X54410Y-38780D01*
X54010Y-38290D02*
X53840Y-38120D01*
X54170Y-38450D02*
X54170Y-38540D01*
X54010Y-38290D02*
X54170Y-38450D01*
X54410Y-38780D02*
X54515Y-38780D01*
X55430Y-36650D02*
X55270Y-36490D01*
X55430Y-37440D02*
X55430Y-36650D01*
X55380Y-37490D02*
X55430Y-37440D01*
X55270Y-36490D02*
X55180Y-36490D01*
G54D26*
X61645Y-36150D02*
X61645Y-35941D01*
X61565Y-36230D02*
X61645Y-36150D01*
G54D25*
X63090Y-41405D02*
X63156Y-41471D01*
X63090Y-41040D02*
X63090Y-41405D01*
X54765Y-39260D02*
X55255Y-39260D01*
X55255Y-39260D02*
X55880Y-38635D01*
G54D26*
X55880Y-38635D02*
X55880Y-37845D01*
X55880Y-37845D02*
X55680Y-37645D01*
G54D25*
X54765Y-39395D02*
X54765Y-39925D01*
X51970Y-40220D02*
X51760Y-40010D01*
X52910Y-40220D02*
X51970Y-40220D01*
X52930Y-40200D02*
X52910Y-40220D01*
X53960Y-40200D02*
X52930Y-40200D01*
X54515Y-38260D02*
X54765Y-38510D01*
X54765Y-38510D02*
X54765Y-38955D01*
X54765Y-38955D02*
X54765Y-39260D01*
X54765Y-39260D02*
X54765Y-39395D01*
X54515Y-38260D02*
X54439Y-38260D01*
X54490Y-40200D02*
X53960Y-40200D01*
X54765Y-39925D02*
X54490Y-40200D01*
X54441Y-37805D02*
X54441Y-38258D01*
X54441Y-38258D02*
X54439Y-38260D01*
X54441Y-37500D02*
X54441Y-37805D01*
G54D10*
G36*
X65020Y-47380D02*
X64785Y-47380D01*
X64785Y-46656D01*
X64699Y-46448D01*
X64540Y-46289D01*
X64332Y-46203D01*
X64108Y-46202D01*
X64079Y-46214D01*
X63900Y-46288D01*
X63741Y-46447D01*
X63655Y-46655D01*
X63654Y-46879D01*
X63740Y-47087D01*
X63899Y-47246D01*
X64107Y-47332D01*
X64331Y-47333D01*
X64539Y-47247D01*
X64698Y-47088D01*
X64784Y-46880D01*
X64785Y-46656D01*
X64785Y-47380D01*
X61320Y-47380D01*
X61320Y-39991D01*
X61320Y-39808D01*
X61320Y-39754D01*
X61299Y-39705D01*
X61261Y-39667D01*
X61212Y-39646D01*
X61125Y-39646D01*
X61091Y-39680D01*
X61091Y-39895D01*
X61286Y-39895D01*
X61320Y-39861D01*
X61320Y-39808D01*
X61320Y-39991D01*
X61320Y-39938D01*
X61286Y-39905D01*
X61091Y-39905D01*
X61091Y-40119D01*
X61125Y-40153D01*
X61212Y-40153D01*
X61261Y-40132D01*
X61299Y-40094D01*
X61320Y-40045D01*
X61320Y-39991D01*
X61320Y-47380D01*
X60440Y-47380D01*
X60440Y-44581D01*
X60399Y-44482D01*
X60323Y-44406D01*
X60223Y-44365D01*
X60161Y-44364D01*
X60145Y-44348D01*
X60145Y-44285D01*
X60124Y-44235D01*
X60086Y-44197D01*
X60037Y-44176D01*
X59983Y-44176D01*
X59786Y-44176D01*
X59737Y-44197D01*
X59714Y-44219D01*
X59693Y-44197D01*
X59643Y-44176D01*
X59589Y-44176D01*
X59392Y-44176D01*
X59343Y-44197D01*
X59305Y-44235D01*
X59284Y-44284D01*
X59284Y-44338D01*
X59284Y-44574D01*
X59296Y-44604D01*
X59294Y-44606D01*
X59253Y-44706D01*
X59253Y-44813D01*
X59294Y-44912D01*
X59316Y-44934D01*
X59310Y-44940D01*
X59289Y-44989D01*
X59289Y-45043D01*
X59289Y-45279D01*
X59310Y-45329D01*
X59348Y-45367D01*
X59397Y-45388D01*
X59451Y-45388D01*
X59648Y-45388D01*
X59697Y-45367D01*
X59720Y-45345D01*
X59741Y-45367D01*
X59791Y-45388D01*
X59845Y-45388D01*
X60042Y-45388D01*
X60091Y-45367D01*
X60129Y-45329D01*
X60150Y-45280D01*
X60150Y-45255D01*
X60203Y-45255D01*
X60302Y-45214D01*
X60378Y-45138D01*
X60419Y-45038D01*
X60420Y-44931D01*
X60379Y-44832D01*
X60366Y-44820D01*
X60398Y-44788D01*
X60439Y-44688D01*
X60440Y-44581D01*
X60440Y-47380D01*
X59441Y-47380D01*
X59459Y-47336D01*
X59460Y-47283D01*
X59460Y-46883D01*
X59439Y-46833D01*
X59426Y-46820D01*
X60176Y-46070D01*
X60227Y-46049D01*
X60303Y-45973D01*
X60344Y-45873D01*
X60345Y-45766D01*
X60304Y-45667D01*
X60228Y-45591D01*
X60128Y-45550D01*
X60021Y-45549D01*
X59922Y-45590D01*
X59846Y-45666D01*
X59805Y-45766D01*
X59804Y-45873D01*
X59818Y-45905D01*
X58994Y-46729D01*
X58963Y-46774D01*
X58898Y-46774D01*
X58848Y-46795D01*
X58816Y-46827D01*
X58815Y-46826D01*
X58691Y-46775D01*
X58558Y-46774D01*
X58435Y-46825D01*
X58374Y-46886D01*
X58315Y-46826D01*
X58191Y-46775D01*
X58058Y-46774D01*
X57935Y-46825D01*
X57874Y-46886D01*
X57815Y-46826D01*
X57691Y-46775D01*
X57558Y-46774D01*
X57555Y-46776D01*
X57555Y-43421D01*
X57555Y-43238D01*
X57555Y-43184D01*
X57534Y-43135D01*
X57496Y-43097D01*
X57447Y-43076D01*
X57360Y-43076D01*
X57326Y-43110D01*
X57326Y-43325D01*
X57521Y-43325D01*
X57555Y-43291D01*
X57555Y-43238D01*
X57555Y-43421D01*
X57555Y-43368D01*
X57521Y-43335D01*
X57326Y-43335D01*
X57326Y-43342D01*
X57316Y-43342D01*
X57316Y-43335D01*
X57308Y-43335D01*
X57308Y-43325D01*
X57316Y-43325D01*
X57316Y-43110D01*
X57283Y-43076D01*
X57196Y-43076D01*
X57147Y-43097D01*
X57124Y-43119D01*
X57103Y-43097D01*
X57053Y-43076D01*
X56999Y-43076D01*
X56802Y-43076D01*
X56753Y-43097D01*
X56715Y-43135D01*
X56694Y-43184D01*
X56694Y-43238D01*
X56694Y-43259D01*
X56656Y-43259D01*
X56557Y-43300D01*
X56481Y-43376D01*
X56440Y-43476D01*
X56439Y-43583D01*
X56480Y-43682D01*
X56556Y-43758D01*
X56645Y-43795D01*
X56645Y-43892D01*
X56553Y-43855D01*
X56446Y-43854D01*
X56347Y-43895D01*
X56295Y-43948D01*
X56295Y-41973D01*
X56244Y-41850D01*
X56150Y-41756D01*
X56026Y-41705D01*
X55893Y-41704D01*
X55770Y-41755D01*
X55676Y-41849D01*
X55625Y-41973D01*
X55624Y-42106D01*
X55675Y-42229D01*
X55769Y-42323D01*
X55893Y-42374D01*
X56026Y-42375D01*
X56149Y-42324D01*
X56243Y-42230D01*
X56294Y-42106D01*
X56295Y-41973D01*
X56295Y-43948D01*
X56271Y-43971D01*
X56230Y-44071D01*
X56229Y-44178D01*
X56253Y-44234D01*
X56181Y-44306D01*
X56140Y-44406D01*
X56139Y-44513D01*
X56180Y-44612D01*
X56235Y-44666D01*
X56235Y-44878D01*
X56191Y-44921D01*
X56150Y-45021D01*
X56149Y-45128D01*
X56190Y-45227D01*
X56266Y-45303D01*
X56276Y-45307D01*
X56154Y-45429D01*
X56106Y-45429D01*
X56007Y-45470D01*
X55940Y-45538D01*
X55940Y-43636D01*
X55899Y-43537D01*
X55823Y-43461D01*
X55723Y-43420D01*
X55661Y-43419D01*
X55640Y-43399D01*
X55580Y-43359D01*
X55510Y-43345D01*
X55311Y-43345D01*
X55268Y-43301D01*
X55168Y-43260D01*
X55075Y-43259D01*
X55075Y-42333D01*
X55035Y-42236D01*
X55035Y-41613D01*
X54984Y-41490D01*
X54890Y-41396D01*
X54766Y-41345D01*
X54633Y-41344D01*
X54510Y-41395D01*
X54508Y-41397D01*
X54476Y-41365D01*
X54426Y-41345D01*
X54373Y-41344D01*
X53973Y-41344D01*
X53923Y-41365D01*
X53885Y-41403D01*
X53865Y-41453D01*
X53864Y-41506D01*
X53864Y-41906D01*
X53885Y-41956D01*
X53923Y-41994D01*
X53973Y-42014D01*
X54026Y-42015D01*
X54426Y-42015D01*
X54476Y-41994D01*
X54508Y-41962D01*
X54509Y-41963D01*
X54633Y-42014D01*
X54766Y-42015D01*
X54889Y-41964D01*
X54983Y-41870D01*
X55034Y-41746D01*
X55035Y-41613D01*
X55035Y-42236D01*
X55024Y-42210D01*
X54930Y-42116D01*
X54806Y-42065D01*
X54673Y-42064D01*
X54550Y-42115D01*
X54456Y-42209D01*
X54405Y-42333D01*
X54404Y-42466D01*
X54455Y-42589D01*
X54549Y-42683D01*
X54673Y-42734D01*
X54806Y-42735D01*
X54929Y-42684D01*
X55023Y-42590D01*
X55074Y-42466D01*
X55075Y-42333D01*
X55075Y-43259D01*
X55061Y-43259D01*
X54962Y-43300D01*
X54886Y-43376D01*
X54845Y-43476D01*
X54844Y-43583D01*
X54885Y-43682D01*
X54961Y-43758D01*
X55061Y-43799D01*
X55168Y-43800D01*
X55267Y-43759D01*
X55311Y-43715D01*
X55399Y-43715D01*
X55399Y-43743D01*
X55440Y-43842D01*
X55516Y-43918D01*
X55616Y-43959D01*
X55723Y-43960D01*
X55822Y-43919D01*
X55898Y-43843D01*
X55939Y-43743D01*
X55940Y-43636D01*
X55940Y-45538D01*
X55931Y-45546D01*
X55890Y-45646D01*
X55889Y-45753D01*
X55930Y-45852D01*
X56006Y-45928D01*
X56106Y-45969D01*
X56213Y-45970D01*
X56312Y-45929D01*
X56388Y-45853D01*
X56429Y-45753D01*
X56429Y-45705D01*
X56822Y-45312D01*
X56822Y-45312D01*
X56822Y-45312D01*
X56865Y-45249D01*
X56865Y-45249D01*
X56879Y-45175D01*
X56880Y-45175D01*
X56880Y-44355D01*
X56893Y-44355D01*
X56916Y-44345D01*
X56916Y-44357D01*
X56937Y-44406D01*
X56975Y-44444D01*
X57024Y-44465D01*
X57078Y-44465D01*
X57131Y-44465D01*
X57165Y-44431D01*
X57165Y-44236D01*
X57157Y-44236D01*
X57157Y-44226D01*
X57165Y-44226D01*
X57165Y-44218D01*
X57175Y-44218D01*
X57175Y-44226D01*
X57389Y-44226D01*
X57423Y-44193D01*
X57423Y-44106D01*
X57402Y-44057D01*
X57380Y-44034D01*
X57402Y-44013D01*
X57423Y-43963D01*
X57423Y-43909D01*
X57423Y-43712D01*
X57402Y-43663D01*
X57364Y-43625D01*
X57360Y-43623D01*
X57332Y-43554D01*
X57360Y-43583D01*
X57447Y-43583D01*
X57496Y-43562D01*
X57534Y-43524D01*
X57555Y-43475D01*
X57555Y-43421D01*
X57555Y-46776D01*
X57435Y-46825D01*
X57423Y-46838D01*
X57423Y-44357D01*
X57423Y-44270D01*
X57389Y-44236D01*
X57175Y-44236D01*
X57175Y-44431D01*
X57208Y-44465D01*
X57261Y-44465D01*
X57315Y-44465D01*
X57364Y-44444D01*
X57402Y-44406D01*
X57423Y-44357D01*
X57423Y-46838D01*
X57374Y-46886D01*
X57315Y-46826D01*
X57191Y-46775D01*
X57058Y-46774D01*
X56935Y-46825D01*
X56841Y-46919D01*
X56790Y-47043D01*
X56789Y-47176D01*
X56840Y-47299D01*
X56921Y-47380D01*
X55950Y-47380D01*
X55950Y-46308D01*
X55899Y-46185D01*
X55805Y-46091D01*
X55681Y-46040D01*
X55548Y-46039D01*
X55425Y-46090D01*
X55423Y-46092D01*
X55391Y-46060D01*
X55355Y-46045D01*
X55355Y-45283D01*
X55304Y-45160D01*
X55210Y-45066D01*
X55205Y-45064D01*
X55205Y-44481D01*
X55228Y-44458D01*
X55269Y-44358D01*
X55270Y-44251D01*
X55229Y-44152D01*
X55153Y-44076D01*
X55053Y-44035D01*
X54946Y-44034D01*
X54847Y-44075D01*
X54771Y-44151D01*
X54730Y-44251D01*
X54729Y-44358D01*
X54770Y-44457D01*
X54835Y-44521D01*
X54835Y-45063D01*
X54830Y-45065D01*
X54736Y-45159D01*
X54685Y-45283D01*
X54684Y-45416D01*
X54735Y-45539D01*
X54829Y-45633D01*
X54953Y-45684D01*
X55086Y-45685D01*
X55209Y-45634D01*
X55303Y-45540D01*
X55354Y-45416D01*
X55355Y-45283D01*
X55355Y-46045D01*
X55341Y-46040D01*
X55288Y-46039D01*
X54888Y-46039D01*
X54838Y-46060D01*
X54800Y-46098D01*
X54780Y-46148D01*
X54779Y-46201D01*
X54779Y-46601D01*
X54800Y-46651D01*
X54838Y-46689D01*
X54888Y-46709D01*
X54941Y-46710D01*
X55341Y-46710D01*
X55391Y-46689D01*
X55423Y-46657D01*
X55424Y-46658D01*
X55548Y-46709D01*
X55681Y-46710D01*
X55804Y-46659D01*
X55898Y-46565D01*
X55949Y-46441D01*
X55950Y-46308D01*
X55950Y-47380D01*
X54115Y-47380D01*
X54115Y-46656D01*
X54029Y-46448D01*
X53870Y-46289D01*
X53662Y-46203D01*
X53438Y-46202D01*
X53230Y-46288D01*
X53071Y-46447D01*
X52985Y-46655D01*
X52984Y-46879D01*
X53070Y-47087D01*
X53229Y-47246D01*
X53437Y-47332D01*
X53661Y-47333D01*
X53869Y-47247D01*
X54028Y-47088D01*
X54114Y-46880D01*
X54115Y-46656D01*
X54115Y-47380D01*
X52889Y-47380D01*
X52889Y-45774D01*
X52984Y-45869D01*
X53150Y-45937D01*
X53329Y-45938D01*
X53494Y-45869D01*
X53621Y-45743D01*
X53689Y-45577D01*
X53690Y-45398D01*
X53631Y-45257D01*
X53958Y-45257D01*
X53979Y-45309D01*
X54086Y-45416D01*
X54226Y-45474D01*
X54378Y-45475D01*
X54518Y-45417D01*
X54625Y-45310D01*
X54683Y-45170D01*
X54684Y-45018D01*
X54626Y-44878D01*
X54519Y-44771D01*
X54379Y-44713D01*
X54227Y-44712D01*
X54087Y-44770D01*
X54076Y-44781D01*
X54075Y-43437D01*
X54086Y-43448D01*
X54226Y-43506D01*
X54378Y-43507D01*
X54518Y-43449D01*
X54625Y-43342D01*
X54683Y-43202D01*
X54684Y-43050D01*
X54626Y-42910D01*
X54519Y-42803D01*
X54379Y-42745D01*
X54227Y-42744D01*
X54087Y-42802D01*
X53980Y-42909D01*
X53954Y-42971D01*
X53628Y-42971D01*
X53689Y-42821D01*
X53690Y-42642D01*
X53621Y-42477D01*
X53495Y-42350D01*
X53329Y-42282D01*
X53150Y-42281D01*
X52985Y-42350D01*
X52889Y-42445D01*
X52889Y-41125D01*
X57494Y-41125D01*
X57535Y-39185D01*
X57513Y-39185D01*
X57513Y-34984D01*
X57427Y-34776D01*
X57268Y-34617D01*
X57060Y-34531D01*
X56836Y-34530D01*
X56628Y-34616D01*
X56469Y-34775D01*
X56383Y-34983D01*
X56382Y-35207D01*
X56468Y-35415D01*
X56627Y-35574D01*
X56835Y-35660D01*
X57059Y-35661D01*
X57267Y-35575D01*
X57426Y-35416D01*
X57512Y-35208D01*
X57513Y-34984D01*
X57513Y-39185D01*
X57305Y-39185D01*
X57305Y-40935D01*
X56075Y-40935D01*
X56075Y-38635D01*
X56075Y-37845D01*
X56060Y-37770D01*
X56060Y-37770D01*
X56017Y-37707D01*
X55950Y-37639D01*
X55950Y-37591D01*
X55909Y-37492D01*
X55833Y-37416D01*
X55733Y-37375D01*
X55626Y-37374D01*
X55624Y-37375D01*
X55615Y-37351D01*
X55615Y-36650D01*
X55600Y-36579D01*
X55560Y-36519D01*
X55560Y-36519D01*
X55430Y-36388D01*
X55409Y-36337D01*
X55333Y-36261D01*
X55233Y-36220D01*
X55126Y-36219D01*
X55027Y-36260D01*
X54951Y-36336D01*
X54910Y-36436D01*
X54909Y-36543D01*
X54950Y-36642D01*
X55026Y-36718D01*
X55126Y-36759D01*
X55233Y-36760D01*
X55245Y-36755D01*
X55245Y-37253D01*
X55227Y-37260D01*
X55151Y-37336D01*
X55110Y-37436D01*
X55109Y-37543D01*
X55150Y-37642D01*
X55226Y-37718D01*
X55326Y-37759D01*
X55433Y-37760D01*
X55435Y-37759D01*
X55450Y-37797D01*
X55526Y-37873D01*
X55626Y-37914D01*
X55674Y-37914D01*
X55685Y-37925D01*
X55685Y-38568D01*
X55460Y-38792D01*
X55460Y-38489D01*
X55460Y-38030D01*
X55460Y-37977D01*
X55440Y-37927D01*
X55402Y-37889D01*
X55352Y-37869D01*
X55226Y-37869D01*
X55193Y-37902D01*
X55193Y-38255D01*
X55427Y-38255D01*
X55460Y-38221D01*
X55460Y-38030D01*
X55460Y-38489D01*
X55460Y-38298D01*
X55427Y-38265D01*
X55193Y-38265D01*
X55193Y-38617D01*
X55226Y-38650D01*
X55352Y-38650D01*
X55402Y-38630D01*
X55440Y-38592D01*
X55460Y-38542D01*
X55460Y-38489D01*
X55460Y-38792D01*
X55178Y-39075D01*
X54950Y-39075D01*
X54950Y-38955D01*
X54950Y-38606D01*
X54973Y-38630D01*
X55023Y-38650D01*
X55149Y-38650D01*
X55183Y-38617D01*
X55183Y-38265D01*
X55183Y-38255D01*
X55183Y-37902D01*
X55149Y-37869D01*
X55023Y-37869D01*
X54973Y-37889D01*
X54935Y-37927D01*
X54915Y-37977D01*
X54915Y-38030D01*
X54915Y-38221D01*
X54948Y-38255D01*
X55183Y-38255D01*
X55183Y-38265D01*
X54948Y-38265D01*
X54915Y-38298D01*
X54915Y-38408D01*
X54895Y-38379D01*
X54895Y-38379D01*
X54712Y-38196D01*
X54712Y-37977D01*
X54692Y-37927D01*
X54675Y-37910D01*
X54675Y-37896D01*
X54675Y-37660D01*
X54672Y-37652D01*
X54675Y-37645D01*
X54675Y-37591D01*
X54675Y-37355D01*
X54654Y-37305D01*
X54616Y-37267D01*
X54567Y-37246D01*
X54513Y-37246D01*
X54316Y-37246D01*
X54267Y-37267D01*
X54244Y-37289D01*
X54223Y-37267D01*
X54173Y-37246D01*
X54119Y-37246D01*
X54056Y-37246D01*
X54008Y-37199D01*
X53948Y-37159D01*
X53878Y-37145D01*
X53800Y-37145D01*
X53789Y-37117D01*
X53716Y-37044D01*
X53791Y-36969D01*
X53853Y-36970D01*
X53952Y-36929D01*
X54028Y-36853D01*
X54069Y-36753D01*
X54070Y-36646D01*
X54054Y-36608D01*
X54054Y-34870D01*
X54003Y-34747D01*
X53909Y-34653D01*
X53786Y-34602D01*
X53652Y-34601D01*
X53529Y-34652D01*
X53435Y-34746D01*
X53384Y-34870D01*
X53384Y-35003D01*
X53435Y-35126D01*
X53529Y-35220D01*
X53652Y-35271D01*
X53785Y-35272D01*
X53908Y-35221D01*
X54003Y-35127D01*
X54054Y-35003D01*
X54054Y-34870D01*
X54054Y-36608D01*
X54029Y-36547D01*
X53953Y-36471D01*
X53853Y-36430D01*
X53746Y-36429D01*
X53647Y-36470D01*
X53571Y-36546D01*
X53530Y-36646D01*
X53529Y-36708D01*
X53371Y-36866D01*
X53359Y-36869D01*
X53299Y-36909D01*
X53179Y-37029D01*
X53139Y-37089D01*
X53125Y-37160D01*
X53125Y-37430D01*
X53139Y-37500D01*
X53179Y-37560D01*
X53204Y-37585D01*
X53135Y-37655D01*
X53090Y-37721D01*
X53074Y-37800D01*
X53075Y-37800D01*
X53075Y-38159D01*
X53074Y-38160D01*
X53090Y-38238D01*
X53135Y-38304D01*
X53387Y-38556D01*
X53387Y-38688D01*
X53277Y-38797D01*
X53277Y-38797D01*
X53260Y-38815D01*
X53157Y-38815D01*
X53145Y-38809D01*
X53102Y-38809D01*
X53038Y-38745D01*
X52971Y-38700D01*
X52893Y-38684D01*
X52893Y-38685D01*
X52480Y-38685D01*
X52401Y-38700D01*
X52374Y-38718D01*
X52335Y-38745D01*
X52335Y-38745D01*
X52255Y-38825D01*
X52176Y-38825D01*
X52176Y-37839D01*
X52176Y-37380D01*
X52176Y-37327D01*
X52156Y-37277D01*
X52118Y-37239D01*
X52068Y-37219D01*
X51942Y-37219D01*
X51909Y-37252D01*
X51909Y-37605D01*
X52143Y-37605D01*
X52176Y-37571D01*
X52176Y-37380D01*
X52176Y-37839D01*
X52176Y-37648D01*
X52143Y-37615D01*
X51909Y-37615D01*
X51909Y-37967D01*
X51942Y-38000D01*
X52068Y-38000D01*
X52118Y-37980D01*
X52156Y-37942D01*
X52176Y-37892D01*
X52176Y-37839D01*
X52176Y-38825D01*
X51899Y-38825D01*
X51899Y-37967D01*
X51899Y-37615D01*
X51899Y-37605D01*
X51899Y-37252D01*
X51865Y-37219D01*
X51739Y-37219D01*
X51689Y-37239D01*
X51651Y-37277D01*
X51631Y-37327D01*
X51631Y-37380D01*
X51631Y-37571D01*
X51664Y-37605D01*
X51899Y-37605D01*
X51899Y-37615D01*
X51664Y-37615D01*
X51631Y-37648D01*
X51631Y-37839D01*
X51631Y-37892D01*
X51651Y-37942D01*
X51689Y-37980D01*
X51739Y-38000D01*
X51865Y-38000D01*
X51899Y-37967D01*
X51899Y-38825D01*
X51611Y-38825D01*
X51336Y-38549D01*
X51347Y-38522D01*
X51347Y-38359D01*
X51285Y-38209D01*
X51170Y-38093D01*
X51019Y-38031D01*
X50856Y-38030D01*
X50761Y-38070D01*
X50735Y-38043D01*
X50735Y-37556D01*
X50883Y-37408D01*
X50883Y-37892D01*
X50903Y-37942D01*
X50941Y-37980D01*
X50991Y-38000D01*
X51044Y-38000D01*
X51320Y-38000D01*
X51370Y-37980D01*
X51408Y-37942D01*
X51428Y-37892D01*
X51428Y-37839D01*
X51428Y-37327D01*
X51408Y-37277D01*
X51370Y-37239D01*
X51320Y-37219D01*
X51313Y-37219D01*
X51313Y-37219D01*
X51286Y-37179D01*
X51286Y-37179D01*
X51122Y-37015D01*
X51122Y-36997D01*
X51169Y-36977D01*
X51285Y-36862D01*
X51347Y-36711D01*
X51347Y-36548D01*
X51285Y-36397D01*
X51170Y-36282D01*
X51122Y-36262D01*
X51122Y-35993D01*
X51220Y-35953D01*
X51296Y-35877D01*
X51337Y-35778D01*
X51337Y-35670D01*
X51296Y-35571D01*
X51275Y-35549D01*
X51275Y-34873D01*
X51224Y-34750D01*
X51130Y-34656D01*
X51006Y-34605D01*
X50873Y-34604D01*
X50750Y-34655D01*
X50656Y-34749D01*
X50605Y-34873D01*
X50604Y-35006D01*
X50655Y-35129D01*
X50749Y-35223D01*
X50873Y-35274D01*
X51006Y-35275D01*
X51129Y-35224D01*
X51223Y-35130D01*
X51274Y-35006D01*
X51275Y-34873D01*
X51275Y-35549D01*
X51220Y-35495D01*
X51121Y-35454D01*
X51014Y-35454D01*
X50996Y-35461D01*
X50996Y-35417D01*
X50976Y-35367D01*
X50938Y-35329D01*
X50888Y-35309D01*
X50835Y-35309D01*
X50559Y-35309D01*
X50509Y-35329D01*
X50471Y-35367D01*
X50451Y-35417D01*
X50451Y-35470D01*
X50451Y-35982D01*
X50471Y-36032D01*
X50509Y-36070D01*
X50559Y-36090D01*
X50612Y-36090D01*
X50752Y-36090D01*
X50752Y-36262D01*
X50705Y-36282D01*
X50590Y-36397D01*
X50527Y-36548D01*
X50527Y-36597D01*
X50519Y-36594D01*
X50356Y-36593D01*
X50347Y-36597D01*
X50347Y-36548D01*
X50285Y-36397D01*
X50248Y-36361D01*
X50248Y-35929D01*
X50248Y-35470D01*
X50248Y-35417D01*
X50228Y-35367D01*
X50190Y-35329D01*
X50140Y-35309D01*
X50014Y-35309D01*
X49980Y-35342D01*
X49980Y-35695D01*
X50215Y-35695D01*
X50248Y-35661D01*
X50248Y-35470D01*
X50248Y-35929D01*
X50248Y-35738D01*
X50215Y-35705D01*
X49980Y-35705D01*
X49980Y-36057D01*
X50014Y-36090D01*
X50140Y-36090D01*
X50190Y-36070D01*
X50228Y-36032D01*
X50248Y-35982D01*
X50248Y-35929D01*
X50248Y-36361D01*
X50170Y-36282D01*
X50019Y-36219D01*
X49970Y-36219D01*
X49970Y-36057D01*
X49970Y-35705D01*
X49970Y-35695D01*
X49970Y-35342D01*
X49937Y-35309D01*
X49811Y-35309D01*
X49761Y-35329D01*
X49723Y-35367D01*
X49703Y-35417D01*
X49703Y-35470D01*
X49703Y-35661D01*
X49736Y-35695D01*
X49970Y-35695D01*
X49970Y-35705D01*
X49736Y-35705D01*
X49703Y-35738D01*
X49703Y-35929D01*
X49703Y-35982D01*
X49723Y-36032D01*
X49761Y-36070D01*
X49811Y-36090D01*
X49937Y-36090D01*
X49970Y-36057D01*
X49970Y-36219D01*
X49856Y-36219D01*
X49705Y-36282D01*
X49590Y-36397D01*
X49527Y-36548D01*
X49527Y-36711D01*
X49590Y-36861D01*
X49705Y-36977D01*
X49855Y-37039D01*
X50018Y-37039D01*
X50027Y-37036D01*
X50027Y-37085D01*
X50090Y-37235D01*
X50205Y-37351D01*
X50355Y-37413D01*
X50378Y-37413D01*
X50365Y-37480D01*
X50365Y-38120D01*
X50379Y-38190D01*
X50419Y-38250D01*
X50527Y-38359D01*
X50527Y-38408D01*
X50519Y-38405D01*
X50356Y-38404D01*
X50347Y-38408D01*
X50347Y-38359D01*
X50285Y-38209D01*
X50170Y-38093D01*
X50019Y-38031D01*
X49856Y-38030D01*
X49705Y-38093D01*
X49590Y-38208D01*
X49527Y-38359D01*
X49527Y-38522D01*
X49590Y-38672D01*
X49705Y-38788D01*
X49855Y-38850D01*
X50018Y-38851D01*
X50027Y-38847D01*
X50027Y-38896D01*
X50090Y-39046D01*
X50205Y-39162D01*
X50355Y-39224D01*
X50518Y-39225D01*
X50669Y-39162D01*
X50681Y-39151D01*
X50681Y-40291D01*
X50695Y-40361D01*
X50735Y-40421D01*
X50952Y-40638D01*
X50952Y-40638D01*
X51012Y-40678D01*
X51083Y-40693D01*
X51165Y-40693D01*
X51208Y-40736D01*
X51308Y-40777D01*
X51415Y-40778D01*
X51514Y-40737D01*
X51590Y-40661D01*
X51631Y-40561D01*
X51632Y-40454D01*
X51591Y-40355D01*
X51515Y-40279D01*
X51415Y-40238D01*
X51308Y-40237D01*
X51209Y-40278D01*
X51165Y-40323D01*
X51159Y-40323D01*
X51051Y-40214D01*
X51051Y-39044D01*
X51051Y-38844D01*
X51381Y-39174D01*
X51381Y-39174D01*
X51421Y-39201D01*
X51448Y-39219D01*
X51448Y-39219D01*
X51526Y-39235D01*
X52339Y-39235D01*
X52340Y-39235D01*
X52340Y-39235D01*
X52418Y-39219D01*
X52484Y-39174D01*
X52564Y-39095D01*
X52746Y-39095D01*
X52746Y-39168D01*
X52767Y-39217D01*
X52789Y-39240D01*
X52767Y-39262D01*
X52746Y-39311D01*
X52746Y-39398D01*
X52780Y-39431D01*
X52995Y-39431D01*
X52995Y-39423D01*
X53005Y-39423D01*
X53005Y-39431D01*
X53012Y-39431D01*
X53012Y-39441D01*
X53005Y-39441D01*
X53005Y-39636D01*
X53038Y-39670D01*
X53091Y-39670D01*
X53145Y-39670D01*
X53194Y-39649D01*
X53232Y-39611D01*
X53253Y-39562D01*
X53253Y-39523D01*
X53294Y-39523D01*
X53328Y-39489D01*
X53328Y-39275D01*
X53320Y-39275D01*
X53320Y-39265D01*
X53328Y-39265D01*
X53328Y-39257D01*
X53338Y-39257D01*
X53338Y-39265D01*
X53346Y-39265D01*
X53346Y-39275D01*
X53338Y-39275D01*
X53338Y-39489D01*
X53371Y-39523D01*
X53417Y-39523D01*
X53476Y-39582D01*
X53576Y-39623D01*
X53683Y-39624D01*
X53782Y-39583D01*
X53842Y-39523D01*
X53852Y-39523D01*
X53901Y-39502D01*
X53939Y-39464D01*
X53943Y-39455D01*
X54023Y-39455D01*
X54029Y-39461D01*
X54029Y-39488D01*
X54070Y-39587D01*
X54146Y-39663D01*
X54246Y-39704D01*
X54353Y-39705D01*
X54452Y-39664D01*
X54528Y-39588D01*
X54569Y-39488D01*
X54570Y-39381D01*
X54529Y-39282D01*
X54453Y-39206D01*
X54353Y-39165D01*
X54291Y-39164D01*
X54265Y-39139D01*
X54205Y-39099D01*
X54135Y-39085D01*
X54100Y-39085D01*
X54080Y-39085D01*
X53943Y-39085D01*
X53939Y-39075D01*
X53901Y-39037D01*
X53852Y-39016D01*
X53798Y-39016D01*
X53700Y-39016D01*
X53669Y-38985D01*
X53736Y-38917D01*
X53736Y-38917D01*
X53736Y-38917D01*
X53763Y-38878D01*
X53781Y-38851D01*
X53781Y-38851D01*
X53797Y-38773D01*
X53797Y-38472D01*
X53796Y-38471D01*
X53797Y-38471D01*
X53793Y-38456D01*
X53781Y-38393D01*
X53781Y-38393D01*
X53776Y-38385D01*
X53786Y-38389D01*
X53848Y-38390D01*
X53879Y-38420D01*
X53879Y-38420D01*
X53879Y-38420D01*
X53985Y-38526D01*
X53985Y-38540D01*
X53999Y-38610D01*
X54039Y-38670D01*
X54275Y-38906D01*
X54285Y-38932D01*
X54361Y-39008D01*
X54461Y-39049D01*
X54568Y-39050D01*
X54580Y-39045D01*
X54580Y-39260D01*
X54580Y-39395D01*
X54580Y-39848D01*
X54413Y-40015D01*
X53960Y-40015D01*
X52995Y-40015D01*
X52995Y-39636D01*
X52995Y-39441D01*
X52780Y-39441D01*
X52746Y-39475D01*
X52746Y-39562D01*
X52767Y-39611D01*
X52805Y-39649D01*
X52854Y-39670D01*
X52908Y-39670D01*
X52961Y-39670D01*
X52995Y-39636D01*
X52995Y-40015D01*
X52930Y-40015D01*
X52859Y-40029D01*
X52850Y-40035D01*
X52046Y-40035D01*
X52029Y-40018D01*
X52030Y-39956D01*
X51989Y-39857D01*
X51913Y-39781D01*
X51813Y-39740D01*
X51706Y-39739D01*
X51607Y-39780D01*
X51531Y-39856D01*
X51490Y-39956D01*
X51489Y-40063D01*
X51530Y-40162D01*
X51606Y-40238D01*
X51706Y-40279D01*
X51768Y-40280D01*
X51839Y-40350D01*
X51839Y-40350D01*
X51899Y-40390D01*
X51970Y-40405D01*
X52910Y-40405D01*
X52910Y-40404D01*
X52980Y-40390D01*
X52989Y-40385D01*
X53960Y-40385D01*
X54490Y-40385D01*
X54490Y-40384D01*
X54560Y-40370D01*
X54620Y-40330D01*
X54895Y-40055D01*
X54895Y-40055D01*
X54935Y-39995D01*
X54949Y-39925D01*
X54950Y-39925D01*
X54950Y-39445D01*
X55255Y-39445D01*
X55255Y-39444D01*
X55325Y-39430D01*
X55385Y-39390D01*
X55975Y-38801D01*
X56017Y-38772D01*
X56060Y-38709D01*
X56075Y-38635D01*
X56075Y-40935D01*
X52860Y-40935D01*
X52844Y-40910D01*
X52794Y-40877D01*
X52735Y-40865D01*
X49179Y-40865D01*
X49179Y-34984D01*
X49093Y-34776D01*
X48934Y-34617D01*
X48726Y-34531D01*
X48502Y-34530D01*
X48294Y-34616D01*
X48135Y-34775D01*
X48049Y-34983D01*
X48048Y-35207D01*
X48134Y-35415D01*
X48293Y-35574D01*
X48501Y-35660D01*
X48725Y-35661D01*
X48933Y-35575D01*
X49092Y-35416D01*
X49178Y-35208D01*
X49179Y-34984D01*
X49179Y-40865D01*
X47889Y-40865D01*
X47889Y-34504D01*
X58055Y-34504D01*
X58055Y-35825D01*
X58275Y-35825D01*
X58275Y-37125D01*
X58565Y-37125D01*
X58554Y-35555D01*
X58324Y-35555D01*
X58298Y-34504D01*
X62165Y-34504D01*
X62164Y-34593D01*
X62205Y-34692D01*
X62281Y-34768D01*
X62381Y-34809D01*
X62443Y-34810D01*
X62444Y-34810D01*
X62444Y-34810D01*
X62504Y-34850D01*
X62575Y-34865D01*
X62995Y-34865D01*
X62984Y-34892D01*
X62983Y-34999D01*
X63024Y-35098D01*
X63100Y-35174D01*
X63200Y-35215D01*
X63262Y-35216D01*
X64059Y-36013D01*
X64059Y-39205D01*
X63927Y-39072D01*
X63748Y-38998D01*
X63615Y-38997D01*
X63615Y-36521D01*
X63574Y-36422D01*
X63498Y-36346D01*
X63398Y-36305D01*
X63291Y-36304D01*
X63192Y-36345D01*
X63116Y-36421D01*
X63075Y-36521D01*
X63075Y-36569D01*
X63035Y-36608D01*
X63035Y-35987D01*
X63035Y-35632D01*
X63035Y-35278D01*
X63003Y-35199D01*
X63000Y-35193D01*
X62954Y-35191D01*
X62947Y-35198D01*
X62947Y-35183D01*
X62944Y-35138D01*
X62866Y-35104D01*
X62781Y-35103D01*
X62702Y-35134D01*
X62696Y-35138D01*
X62694Y-35183D01*
X62820Y-35310D01*
X62947Y-35183D01*
X62947Y-35198D01*
X62827Y-35317D01*
X62954Y-35444D01*
X63000Y-35441D01*
X63033Y-35363D01*
X63035Y-35278D01*
X63035Y-35632D01*
X63003Y-35553D01*
X63000Y-35547D01*
X62954Y-35545D01*
X62947Y-35552D01*
X62947Y-35538D01*
X62944Y-35494D01*
X62947Y-35451D01*
X62820Y-35324D01*
X62813Y-35331D01*
X62813Y-35317D01*
X62687Y-35191D01*
X62643Y-35193D01*
X62600Y-35191D01*
X62593Y-35198D01*
X62593Y-35183D01*
X62590Y-35138D01*
X62512Y-35104D01*
X62427Y-35103D01*
X62348Y-35134D01*
X62342Y-35138D01*
X62339Y-35183D01*
X62466Y-35310D01*
X62593Y-35183D01*
X62593Y-35198D01*
X62473Y-35317D01*
X62600Y-35444D01*
X62643Y-35441D01*
X62687Y-35444D01*
X62813Y-35317D01*
X62813Y-35331D01*
X62694Y-35451D01*
X62696Y-35494D01*
X62694Y-35538D01*
X62820Y-35664D01*
X62947Y-35538D01*
X62947Y-35552D01*
X62827Y-35672D01*
X62954Y-35798D01*
X63000Y-35796D01*
X63033Y-35717D01*
X63035Y-35632D01*
X63035Y-35987D01*
X63003Y-35908D01*
X63000Y-35902D01*
X62954Y-35899D01*
X62947Y-35906D01*
X62947Y-35892D01*
X62944Y-35849D01*
X62947Y-35805D01*
X62820Y-35679D01*
X62813Y-35686D01*
X62813Y-35672D01*
X62687Y-35545D01*
X62643Y-35547D01*
X62600Y-35545D01*
X62593Y-35552D01*
X62593Y-35538D01*
X62590Y-35494D01*
X62593Y-35451D01*
X62466Y-35324D01*
X62459Y-35331D01*
X62459Y-35317D01*
X62332Y-35191D01*
X62289Y-35193D01*
X62245Y-35191D01*
X62238Y-35198D01*
X62238Y-35183D01*
X62236Y-35138D01*
X62158Y-35104D01*
X62073Y-35103D01*
X61994Y-35134D01*
X61988Y-35138D01*
X61985Y-35183D01*
X62112Y-35310D01*
X62238Y-35183D01*
X62238Y-35198D01*
X62119Y-35317D01*
X62245Y-35444D01*
X62289Y-35441D01*
X62332Y-35444D01*
X62459Y-35317D01*
X62459Y-35331D01*
X62339Y-35451D01*
X62342Y-35494D01*
X62339Y-35538D01*
X62466Y-35664D01*
X62593Y-35538D01*
X62593Y-35552D01*
X62473Y-35672D01*
X62600Y-35798D01*
X62643Y-35796D01*
X62687Y-35798D01*
X62813Y-35672D01*
X62813Y-35686D01*
X62694Y-35805D01*
X62696Y-35849D01*
X62694Y-35892D01*
X62820Y-36019D01*
X62947Y-35892D01*
X62947Y-35906D01*
X62827Y-36026D01*
X62954Y-36152D01*
X63000Y-36150D01*
X63033Y-36072D01*
X63035Y-35987D01*
X63035Y-36608D01*
X62979Y-36665D01*
X62947Y-36665D01*
X62947Y-36160D01*
X62820Y-36033D01*
X62813Y-36040D01*
X62813Y-36026D01*
X62687Y-35899D01*
X62643Y-35902D01*
X62600Y-35899D01*
X62593Y-35906D01*
X62593Y-35892D01*
X62590Y-35849D01*
X62593Y-35805D01*
X62466Y-35679D01*
X62459Y-35686D01*
X62459Y-35672D01*
X62332Y-35545D01*
X62289Y-35547D01*
X62245Y-35545D01*
X62238Y-35552D01*
X62238Y-35538D01*
X62236Y-35494D01*
X62238Y-35451D01*
X62112Y-35324D01*
X62105Y-35331D01*
X62105Y-35317D01*
X61978Y-35191D01*
X61932Y-35193D01*
X61899Y-35271D01*
X61897Y-35356D01*
X61929Y-35435D01*
X61932Y-35441D01*
X61978Y-35444D01*
X62105Y-35317D01*
X62105Y-35331D01*
X61985Y-35451D01*
X61988Y-35494D01*
X61985Y-35538D01*
X62112Y-35664D01*
X62238Y-35538D01*
X62238Y-35552D01*
X62119Y-35672D01*
X62245Y-35798D01*
X62289Y-35796D01*
X62332Y-35798D01*
X62459Y-35672D01*
X62459Y-35686D01*
X62339Y-35805D01*
X62342Y-35849D01*
X62339Y-35892D01*
X62466Y-36019D01*
X62593Y-35892D01*
X62593Y-35906D01*
X62473Y-36026D01*
X62600Y-36152D01*
X62643Y-36150D01*
X62687Y-36152D01*
X62813Y-36026D01*
X62813Y-36040D01*
X62694Y-36160D01*
X62696Y-36205D01*
X62774Y-36239D01*
X62859Y-36240D01*
X62938Y-36209D01*
X62944Y-36205D01*
X62947Y-36160D01*
X62947Y-36665D01*
X62593Y-36665D01*
X62593Y-36160D01*
X62466Y-36033D01*
X62459Y-36040D01*
X62459Y-36026D01*
X62332Y-35899D01*
X62289Y-35902D01*
X62245Y-35899D01*
X62238Y-35906D01*
X62238Y-35892D01*
X62236Y-35849D01*
X62238Y-35805D01*
X62112Y-35679D01*
X62105Y-35686D01*
X62105Y-35672D01*
X61978Y-35545D01*
X61932Y-35547D01*
X61899Y-35626D01*
X61897Y-35711D01*
X61929Y-35790D01*
X61932Y-35796D01*
X61978Y-35798D01*
X62105Y-35672D01*
X62105Y-35686D01*
X61985Y-35805D01*
X61988Y-35849D01*
X61985Y-35892D01*
X62112Y-36019D01*
X62238Y-35892D01*
X62238Y-35906D01*
X62119Y-36026D01*
X62245Y-36152D01*
X62289Y-36150D01*
X62332Y-36152D01*
X62459Y-36026D01*
X62459Y-36040D01*
X62339Y-36160D01*
X62342Y-36205D01*
X62420Y-36239D01*
X62505Y-36240D01*
X62584Y-36209D01*
X62590Y-36205D01*
X62593Y-36160D01*
X62593Y-36665D01*
X62238Y-36665D01*
X62238Y-36160D01*
X62112Y-36033D01*
X61985Y-36160D01*
X61988Y-36205D01*
X62066Y-36239D01*
X62151Y-36240D01*
X62230Y-36209D01*
X62236Y-36205D01*
X62238Y-36160D01*
X62238Y-36665D01*
X61990Y-36665D01*
X61990Y-36646D01*
X61949Y-36547D01*
X61873Y-36471D01*
X61773Y-36430D01*
X61746Y-36430D01*
X61793Y-36383D01*
X61834Y-36283D01*
X61835Y-36176D01*
X61834Y-36176D01*
X61839Y-36154D01*
X61839Y-36154D01*
X61877Y-36116D01*
X61898Y-36067D01*
X61898Y-36066D01*
X61929Y-36144D01*
X61932Y-36150D01*
X61978Y-36152D01*
X62105Y-36026D01*
X61978Y-35899D01*
X61932Y-35902D01*
X61899Y-35980D01*
X61898Y-36044D01*
X61898Y-36013D01*
X61898Y-35816D01*
X61877Y-35767D01*
X61855Y-35745D01*
X61877Y-35722D01*
X61898Y-35673D01*
X61898Y-35422D01*
X61877Y-35373D01*
X61839Y-35335D01*
X61790Y-35314D01*
X61736Y-35314D01*
X61683Y-35314D01*
X61650Y-35348D01*
X61650Y-35543D01*
X61864Y-35543D01*
X61898Y-35509D01*
X61898Y-35422D01*
X61898Y-35673D01*
X61898Y-35586D01*
X61864Y-35553D01*
X61650Y-35553D01*
X61650Y-35561D01*
X61640Y-35561D01*
X61640Y-35553D01*
X61632Y-35553D01*
X61632Y-35543D01*
X61640Y-35543D01*
X61640Y-35348D01*
X61606Y-35314D01*
X61553Y-35314D01*
X61546Y-35314D01*
X61529Y-35272D01*
X61453Y-35196D01*
X61353Y-35155D01*
X61246Y-35154D01*
X61147Y-35195D01*
X61071Y-35271D01*
X61030Y-35371D01*
X61029Y-35478D01*
X61070Y-35577D01*
X61140Y-35646D01*
X61140Y-35670D01*
X61140Y-35700D01*
X61140Y-35905D01*
X61077Y-35930D01*
X61001Y-36006D01*
X60960Y-36106D01*
X60959Y-36213D01*
X61000Y-36312D01*
X61076Y-36388D01*
X61176Y-36429D01*
X61283Y-36430D01*
X61354Y-36400D01*
X61411Y-36458D01*
X61511Y-36499D01*
X61538Y-36499D01*
X61491Y-36546D01*
X61450Y-36646D01*
X61449Y-36753D01*
X61490Y-36852D01*
X61566Y-36928D01*
X61666Y-36969D01*
X61714Y-36969D01*
X61742Y-36997D01*
X61805Y-37040D01*
X61805Y-37040D01*
X61880Y-37055D01*
X63060Y-37055D01*
X63134Y-37040D01*
X63134Y-37040D01*
X63197Y-36997D01*
X63350Y-36845D01*
X63398Y-36845D01*
X63497Y-36804D01*
X63573Y-36728D01*
X63614Y-36628D01*
X63615Y-36521D01*
X63615Y-38997D01*
X63555Y-38997D01*
X63377Y-39071D01*
X63241Y-39207D01*
X63167Y-39386D01*
X63166Y-39579D01*
X63240Y-39757D01*
X63376Y-39893D01*
X63555Y-39967D01*
X63748Y-39968D01*
X63926Y-39894D01*
X64059Y-39761D01*
X64059Y-40952D01*
X63992Y-40980D01*
X63916Y-41056D01*
X63875Y-41156D01*
X63874Y-41237D01*
X63864Y-41237D01*
X63831Y-41271D01*
X63831Y-41466D01*
X63838Y-41466D01*
X63838Y-41476D01*
X63831Y-41476D01*
X63831Y-41484D01*
X63821Y-41484D01*
X63821Y-41476D01*
X63821Y-41466D01*
X63821Y-41271D01*
X63787Y-41237D01*
X63734Y-41237D01*
X63680Y-41237D01*
X63661Y-41246D01*
X63641Y-41237D01*
X63587Y-41237D01*
X63534Y-41237D01*
X63501Y-41271D01*
X63501Y-41466D01*
X63606Y-41466D01*
X63715Y-41466D01*
X63821Y-41466D01*
X63821Y-41476D01*
X63715Y-41476D01*
X63606Y-41476D01*
X63501Y-41476D01*
X63501Y-41484D01*
X63491Y-41484D01*
X63491Y-41476D01*
X63483Y-41476D01*
X63483Y-41466D01*
X63491Y-41466D01*
X63491Y-41271D01*
X63457Y-41237D01*
X63404Y-41237D01*
X63350Y-41237D01*
X63326Y-41248D01*
X63301Y-41237D01*
X63275Y-41237D01*
X63275Y-41236D01*
X63318Y-41193D01*
X63359Y-41093D01*
X63360Y-40986D01*
X63319Y-40887D01*
X63243Y-40811D01*
X63143Y-40770D01*
X63036Y-40769D01*
X62937Y-40810D01*
X62861Y-40886D01*
X62820Y-40986D01*
X62820Y-41027D01*
X62736Y-40993D01*
X62603Y-40992D01*
X62480Y-41043D01*
X62386Y-41137D01*
X62335Y-41261D01*
X62334Y-41349D01*
X62263Y-41277D01*
X62163Y-41236D01*
X62056Y-41235D01*
X61957Y-41276D01*
X61881Y-41352D01*
X61850Y-41427D01*
X61850Y-39506D01*
X61809Y-39407D01*
X61733Y-39331D01*
X61633Y-39290D01*
X61628Y-39290D01*
X61419Y-39080D01*
X61346Y-39032D01*
X61331Y-39029D01*
X61260Y-39014D01*
X61259Y-39015D01*
X60760Y-39015D01*
X60760Y-39014D01*
X60688Y-39029D01*
X60673Y-39032D01*
X60600Y-39080D01*
X60600Y-39080D01*
X60421Y-39260D01*
X59821Y-39260D01*
X59823Y-39258D01*
X59864Y-39158D01*
X59864Y-39110D01*
X59912Y-39063D01*
X60103Y-39063D01*
X60153Y-39042D01*
X60191Y-39004D01*
X60212Y-38955D01*
X60212Y-38901D01*
X60212Y-38665D01*
X60212Y-38364D01*
X60212Y-38074D01*
X60191Y-38025D01*
X60153Y-37987D01*
X60151Y-37986D01*
X60151Y-36437D01*
X60151Y-36037D01*
X60130Y-35987D01*
X60092Y-35949D01*
X60042Y-35929D01*
X59989Y-35928D01*
X59589Y-35928D01*
X59539Y-35949D01*
X59501Y-35987D01*
X59481Y-36037D01*
X59480Y-36090D01*
X59480Y-36490D01*
X59501Y-36540D01*
X59539Y-36578D01*
X59589Y-36598D01*
X59642Y-36599D01*
X60042Y-36599D01*
X60092Y-36578D01*
X60130Y-36540D01*
X60150Y-36490D01*
X60151Y-36437D01*
X60151Y-37986D01*
X60104Y-37966D01*
X60050Y-37966D01*
X59938Y-37966D01*
X59905Y-38000D01*
X59905Y-38214D01*
X60178Y-38214D01*
X60212Y-38180D01*
X60212Y-38074D01*
X60212Y-38364D01*
X60212Y-38258D01*
X60178Y-38224D01*
X59905Y-38224D01*
X59905Y-38439D01*
X59938Y-38472D01*
X60050Y-38472D01*
X60104Y-38472D01*
X60153Y-38452D01*
X60191Y-38414D01*
X60212Y-38364D01*
X60212Y-38665D01*
X60191Y-38615D01*
X60153Y-38577D01*
X60104Y-38557D01*
X60050Y-38557D01*
X59895Y-38557D01*
X59895Y-38439D01*
X59895Y-38224D01*
X59895Y-38214D01*
X59895Y-38000D01*
X59861Y-37966D01*
X59749Y-37966D01*
X59695Y-37966D01*
X59646Y-37987D01*
X59608Y-38025D01*
X59587Y-38074D01*
X59587Y-38180D01*
X59621Y-38214D01*
X59895Y-38214D01*
X59895Y-38224D01*
X59621Y-38224D01*
X59587Y-38258D01*
X59587Y-38364D01*
X59608Y-38414D01*
X59646Y-38452D01*
X59695Y-38472D01*
X59749Y-38472D01*
X59861Y-38472D01*
X59895Y-38439D01*
X59895Y-38557D01*
X59696Y-38557D01*
X59646Y-38577D01*
X59608Y-38615D01*
X59587Y-38665D01*
X59587Y-38718D01*
X59587Y-38834D01*
X59541Y-38834D01*
X59442Y-38875D01*
X59384Y-38933D01*
X59384Y-38933D01*
X59345Y-38960D01*
X59345Y-38960D01*
X59155Y-39150D01*
X59155Y-35183D01*
X59155Y-34783D01*
X59134Y-34733D01*
X59096Y-34695D01*
X59046Y-34675D01*
X58993Y-34674D01*
X58593Y-34674D01*
X58543Y-34695D01*
X58505Y-34733D01*
X58485Y-34783D01*
X58484Y-34836D01*
X58484Y-35236D01*
X58505Y-35286D01*
X58543Y-35324D01*
X58593Y-35344D01*
X58646Y-35345D01*
X59046Y-35345D01*
X59096Y-35324D01*
X59134Y-35286D01*
X59154Y-35236D01*
X59155Y-35183D01*
X59155Y-39150D01*
X59130Y-39175D01*
X59085Y-39241D01*
X59069Y-39320D01*
X59070Y-39320D01*
X59070Y-39458D01*
X59046Y-39481D01*
X59005Y-39581D01*
X59004Y-39688D01*
X59045Y-39787D01*
X59121Y-39863D01*
X59221Y-39904D01*
X59328Y-39905D01*
X59427Y-39864D01*
X59503Y-39788D01*
X59530Y-39722D01*
X59536Y-39724D01*
X59537Y-39724D01*
X59525Y-39756D01*
X59524Y-39863D01*
X59552Y-39930D01*
X59200Y-39930D01*
X59129Y-39944D01*
X59069Y-39984D01*
X58648Y-40405D01*
X58648Y-38942D01*
X58648Y-38691D01*
X58627Y-38642D01*
X58605Y-38619D01*
X58627Y-38598D01*
X58648Y-38548D01*
X58648Y-38494D01*
X58648Y-38297D01*
X58627Y-38248D01*
X58589Y-38210D01*
X58540Y-38189D01*
X58486Y-38189D01*
X58250Y-38189D01*
X58229Y-38198D01*
X58218Y-38186D01*
X58118Y-38145D01*
X58011Y-38144D01*
X57912Y-38185D01*
X57836Y-38261D01*
X57795Y-38361D01*
X57794Y-38468D01*
X57835Y-38567D01*
X57911Y-38643D01*
X58011Y-38684D01*
X58118Y-38685D01*
X58149Y-38672D01*
X58141Y-38691D01*
X58141Y-38778D01*
X58175Y-38811D01*
X58390Y-38811D01*
X58390Y-38803D01*
X58400Y-38803D01*
X58400Y-38811D01*
X58614Y-38811D01*
X58648Y-38778D01*
X58648Y-38691D01*
X58648Y-38942D01*
X58648Y-38855D01*
X58614Y-38821D01*
X58400Y-38821D01*
X58400Y-39016D01*
X58433Y-39050D01*
X58486Y-39050D01*
X58540Y-39050D01*
X58589Y-39029D01*
X58627Y-38991D01*
X58648Y-38942D01*
X58648Y-40405D01*
X58540Y-40512D01*
X58514Y-40447D01*
X58438Y-40371D01*
X58390Y-40351D01*
X58390Y-39016D01*
X58390Y-38821D01*
X58175Y-38821D01*
X58141Y-38855D01*
X58141Y-38942D01*
X58162Y-38991D01*
X58200Y-39029D01*
X58249Y-39050D01*
X58303Y-39050D01*
X58356Y-39050D01*
X58390Y-39016D01*
X58390Y-40351D01*
X58338Y-40330D01*
X58285Y-40329D01*
X58285Y-39781D01*
X58328Y-39738D01*
X58369Y-39638D01*
X58370Y-39531D01*
X58329Y-39432D01*
X58253Y-39356D01*
X58153Y-39315D01*
X58046Y-39314D01*
X57947Y-39355D01*
X57871Y-39431D01*
X57830Y-39531D01*
X57829Y-39638D01*
X57870Y-39737D01*
X57915Y-39781D01*
X57915Y-40415D01*
X57929Y-40485D01*
X57969Y-40545D01*
X58015Y-40591D01*
X58014Y-40653D01*
X58055Y-40752D01*
X58131Y-40828D01*
X58197Y-40855D01*
X58168Y-40885D01*
X58106Y-40884D01*
X58007Y-40925D01*
X57931Y-41001D01*
X57930Y-41002D01*
X57863Y-40975D01*
X57756Y-40974D01*
X57657Y-41015D01*
X57581Y-41091D01*
X57540Y-41191D01*
X57539Y-41298D01*
X57580Y-41397D01*
X57656Y-41473D01*
X57756Y-41514D01*
X57818Y-41515D01*
X57849Y-41545D01*
X57849Y-41545D01*
X57909Y-41585D01*
X57980Y-41600D01*
X58190Y-41600D01*
X58600Y-41600D01*
X58600Y-41599D01*
X58670Y-41585D01*
X58730Y-41545D01*
X58839Y-41437D01*
X58845Y-41452D01*
X58921Y-41528D01*
X59021Y-41569D01*
X59088Y-41570D01*
X59545Y-42026D01*
X59545Y-42213D01*
X59219Y-42539D01*
X59179Y-42599D01*
X59165Y-42670D01*
X59165Y-42729D01*
X59093Y-42700D01*
X58986Y-42699D01*
X58887Y-42740D01*
X58811Y-42816D01*
X58770Y-42916D01*
X58769Y-43023D01*
X58810Y-43122D01*
X58886Y-43198D01*
X58986Y-43239D01*
X59048Y-43240D01*
X59118Y-43310D01*
X59092Y-43320D01*
X59016Y-43396D01*
X58975Y-43496D01*
X58974Y-43603D01*
X59015Y-43702D01*
X59091Y-43778D01*
X59191Y-43819D01*
X59298Y-43820D01*
X59397Y-43779D01*
X59473Y-43703D01*
X59490Y-43663D01*
X59494Y-43665D01*
X59565Y-43680D01*
X59920Y-43680D01*
X59920Y-43679D01*
X59990Y-43665D01*
X60050Y-43625D01*
X60715Y-42960D01*
X60715Y-42960D01*
X60755Y-42900D01*
X60769Y-42830D01*
X60770Y-42830D01*
X60770Y-42456D01*
X60813Y-42413D01*
X60854Y-42313D01*
X60855Y-42206D01*
X60814Y-42107D01*
X60738Y-42031D01*
X60638Y-41990D01*
X60531Y-41989D01*
X60432Y-42030D01*
X60422Y-42040D01*
X60383Y-42001D01*
X60352Y-41988D01*
X60372Y-41968D01*
X60415Y-41940D01*
X60443Y-41897D01*
X60851Y-41489D01*
X60938Y-41490D01*
X61037Y-41449D01*
X61113Y-41373D01*
X61154Y-41273D01*
X61155Y-41166D01*
X61114Y-41067D01*
X61038Y-40991D01*
X60938Y-40950D01*
X60831Y-40949D01*
X60732Y-40990D01*
X60656Y-41066D01*
X60615Y-41166D01*
X60615Y-41203D01*
X60343Y-41474D01*
X60332Y-41447D01*
X60310Y-41425D01*
X60332Y-41402D01*
X60353Y-41353D01*
X60353Y-41102D01*
X60332Y-41053D01*
X60294Y-41015D01*
X60245Y-40994D01*
X60191Y-40994D01*
X60138Y-40994D01*
X60105Y-41028D01*
X60105Y-41223D01*
X60319Y-41223D01*
X60353Y-41189D01*
X60353Y-41102D01*
X60353Y-41353D01*
X60353Y-41266D01*
X60319Y-41233D01*
X60105Y-41233D01*
X60105Y-41241D01*
X60095Y-41241D01*
X60095Y-41233D01*
X60095Y-41223D01*
X60095Y-41028D01*
X60061Y-40994D01*
X60008Y-40994D01*
X59954Y-40994D01*
X59905Y-41015D01*
X59867Y-41053D01*
X59846Y-41102D01*
X59846Y-41189D01*
X59880Y-41223D01*
X60095Y-41223D01*
X60095Y-41233D01*
X59880Y-41233D01*
X59846Y-41266D01*
X59846Y-41353D01*
X59867Y-41402D01*
X59889Y-41425D01*
X59867Y-41446D01*
X59846Y-41496D01*
X59846Y-41550D01*
X59846Y-41747D01*
X59867Y-41796D01*
X59905Y-41834D01*
X59954Y-41855D01*
X59963Y-41855D01*
X59907Y-41911D01*
X59900Y-41879D01*
X59860Y-41819D01*
X59860Y-41819D01*
X59344Y-41303D01*
X59345Y-41246D01*
X59304Y-41147D01*
X59228Y-41071D01*
X59212Y-41064D01*
X59371Y-40905D01*
X59990Y-40905D01*
X60148Y-40905D01*
X60166Y-40923D01*
X60266Y-40964D01*
X60373Y-40965D01*
X60472Y-40924D01*
X60548Y-40848D01*
X60589Y-40748D01*
X60590Y-40641D01*
X60572Y-40599D01*
X60572Y-40599D01*
X60648Y-40523D01*
X60680Y-40447D01*
X60690Y-40456D01*
X60689Y-40518D01*
X60730Y-40617D01*
X60806Y-40693D01*
X60906Y-40734D01*
X61013Y-40735D01*
X61112Y-40694D01*
X61188Y-40618D01*
X61229Y-40518D01*
X61230Y-40411D01*
X61189Y-40312D01*
X61113Y-40236D01*
X61013Y-40195D01*
X60951Y-40194D01*
X60878Y-40121D01*
X60890Y-40110D01*
X60912Y-40132D01*
X60961Y-40153D01*
X61048Y-40153D01*
X61081Y-40119D01*
X61081Y-39905D01*
X61073Y-39905D01*
X61073Y-39895D01*
X61081Y-39895D01*
X61081Y-39680D01*
X61048Y-39646D01*
X60961Y-39646D01*
X60912Y-39667D01*
X60889Y-39689D01*
X60868Y-39667D01*
X60818Y-39646D01*
X60764Y-39646D01*
X60669Y-39646D01*
X60674Y-39644D01*
X60853Y-39465D01*
X61166Y-39465D01*
X61309Y-39608D01*
X61309Y-39613D01*
X61350Y-39712D01*
X61426Y-39788D01*
X61526Y-39829D01*
X61633Y-39830D01*
X61732Y-39789D01*
X61808Y-39713D01*
X61849Y-39613D01*
X61850Y-39506D01*
X61850Y-41427D01*
X61840Y-41452D01*
X61839Y-41559D01*
X61880Y-41658D01*
X61925Y-41702D01*
X61925Y-42008D01*
X61926Y-42017D01*
X61920Y-42034D01*
X61919Y-42141D01*
X61960Y-42240D01*
X61966Y-42246D01*
X61948Y-42253D01*
X61854Y-42347D01*
X61803Y-42471D01*
X61802Y-42604D01*
X61853Y-42727D01*
X61947Y-42821D01*
X62071Y-42872D01*
X62204Y-42873D01*
X62327Y-42822D01*
X62421Y-42728D01*
X62472Y-42604D01*
X62473Y-42471D01*
X62436Y-42382D01*
X62547Y-42428D01*
X62680Y-42429D01*
X62803Y-42378D01*
X62823Y-42357D01*
X62890Y-42424D01*
X62990Y-42465D01*
X63097Y-42466D01*
X63196Y-42425D01*
X63272Y-42349D01*
X63313Y-42249D01*
X63314Y-42174D01*
X63326Y-42154D01*
X63339Y-42093D01*
X63350Y-42098D01*
X63404Y-42098D01*
X63640Y-42098D01*
X63660Y-42089D01*
X63680Y-42098D01*
X63734Y-42098D01*
X63970Y-42098D01*
X64020Y-42077D01*
X64058Y-42039D01*
X64079Y-41990D01*
X64079Y-41936D01*
X64079Y-41739D01*
X64058Y-41690D01*
X64036Y-41668D01*
X64058Y-41645D01*
X64079Y-41596D01*
X64079Y-41509D01*
X64045Y-41476D01*
X64079Y-41476D01*
X64079Y-41474D01*
X64091Y-41479D01*
X64134Y-41479D01*
X64134Y-41488D01*
X64175Y-41587D01*
X64251Y-41663D01*
X64306Y-41686D01*
X64290Y-41726D01*
X64289Y-41833D01*
X64330Y-41932D01*
X64406Y-42008D01*
X64506Y-42049D01*
X64613Y-42050D01*
X64712Y-42009D01*
X64788Y-41933D01*
X64829Y-41833D01*
X64830Y-41735D01*
X64830Y-41735D01*
X64839Y-41685D01*
X64840Y-41685D01*
X64840Y-41269D01*
X64825Y-41199D01*
X64785Y-41139D01*
X64785Y-41139D01*
X64750Y-41103D01*
X64750Y-36126D01*
X64750Y-35804D01*
X64735Y-35733D01*
X64695Y-35673D01*
X64695Y-35673D01*
X64093Y-35070D01*
X64093Y-34896D01*
X64078Y-34825D01*
X64038Y-34765D01*
X64038Y-34765D01*
X63822Y-34549D01*
X63762Y-34509D01*
X63740Y-34504D01*
X65020Y-34504D01*
X65020Y-47380D01*
X65020Y-47380D01*
G37*
G54D30*
X65020Y-47380D02*
X64785Y-47380D01*
X64785Y-46656D01*
X64699Y-46448D01*
X64540Y-46289D01*
X64332Y-46203D01*
X64108Y-46202D01*
X64079Y-46214D01*
X63900Y-46288D01*
X63741Y-46447D01*
X63655Y-46655D01*
X63654Y-46879D01*
X63740Y-47087D01*
X63899Y-47246D01*
X64107Y-47332D01*
X64331Y-47333D01*
X64539Y-47247D01*
X64698Y-47088D01*
X64784Y-46880D01*
X64785Y-46656D01*
X64785Y-47380D01*
X61320Y-47380D01*
X61320Y-39991D01*
X61320Y-39808D01*
X61320Y-39754D01*
X61299Y-39705D01*
X61261Y-39667D01*
X61212Y-39646D01*
X61125Y-39646D01*
X61091Y-39680D01*
X61091Y-39895D01*
X61286Y-39895D01*
X61320Y-39861D01*
X61320Y-39808D01*
X61320Y-39991D01*
X61320Y-39938D01*
X61286Y-39905D01*
X61091Y-39905D01*
X61091Y-40119D01*
X61125Y-40153D01*
X61212Y-40153D01*
X61261Y-40132D01*
X61299Y-40094D01*
X61320Y-40045D01*
X61320Y-39991D01*
X61320Y-47380D01*
X60440Y-47380D01*
X60440Y-44581D01*
X60399Y-44482D01*
X60323Y-44406D01*
X60223Y-44365D01*
X60161Y-44364D01*
X60145Y-44348D01*
X60145Y-44285D01*
X60124Y-44235D01*
X60086Y-44197D01*
X60037Y-44176D01*
X59983Y-44176D01*
X59786Y-44176D01*
X59737Y-44197D01*
X59714Y-44219D01*
X59693Y-44197D01*
X59643Y-44176D01*
X59589Y-44176D01*
X59392Y-44176D01*
X59343Y-44197D01*
X59305Y-44235D01*
X59284Y-44284D01*
X59284Y-44338D01*
X59284Y-44574D01*
X59296Y-44604D01*
X59294Y-44606D01*
X59253Y-44706D01*
X59253Y-44813D01*
X59294Y-44912D01*
X59316Y-44934D01*
X59310Y-44940D01*
X59289Y-44989D01*
X59289Y-45043D01*
X59289Y-45279D01*
X59310Y-45329D01*
X59348Y-45367D01*
X59397Y-45388D01*
X59451Y-45388D01*
X59648Y-45388D01*
X59697Y-45367D01*
X59720Y-45345D01*
X59741Y-45367D01*
X59791Y-45388D01*
X59845Y-45388D01*
X60042Y-45388D01*
X60091Y-45367D01*
X60129Y-45329D01*
X60150Y-45280D01*
X60150Y-45255D01*
X60203Y-45255D01*
X60302Y-45214D01*
X60378Y-45138D01*
X60419Y-45038D01*
X60420Y-44931D01*
X60379Y-44832D01*
X60366Y-44820D01*
X60398Y-44788D01*
X60439Y-44688D01*
X60440Y-44581D01*
X60440Y-47380D01*
X59441Y-47380D01*
X59459Y-47336D01*
X59460Y-47283D01*
X59460Y-46883D01*
X59439Y-46833D01*
X59426Y-46820D01*
X60176Y-46070D01*
X60227Y-46049D01*
X60303Y-45973D01*
X60344Y-45873D01*
X60345Y-45766D01*
X60304Y-45667D01*
X60228Y-45591D01*
X60128Y-45550D01*
X60021Y-45549D01*
X59922Y-45590D01*
X59846Y-45666D01*
X59805Y-45766D01*
X59804Y-45873D01*
X59818Y-45905D01*
X58994Y-46729D01*
X58963Y-46774D01*
X58898Y-46774D01*
X58848Y-46795D01*
X58816Y-46827D01*
X58815Y-46826D01*
X58691Y-46775D01*
X58558Y-46774D01*
X58435Y-46825D01*
X58374Y-46886D01*
X58315Y-46826D01*
X58191Y-46775D01*
X58058Y-46774D01*
X57935Y-46825D01*
X57874Y-46886D01*
X57815Y-46826D01*
X57691Y-46775D01*
X57558Y-46774D01*
X57555Y-46776D01*
X57555Y-43421D01*
X57555Y-43238D01*
X57555Y-43184D01*
X57534Y-43135D01*
X57496Y-43097D01*
X57447Y-43076D01*
X57360Y-43076D01*
X57326Y-43110D01*
X57326Y-43325D01*
X57521Y-43325D01*
X57555Y-43291D01*
X57555Y-43238D01*
X57555Y-43421D01*
X57555Y-43368D01*
X57521Y-43335D01*
X57326Y-43335D01*
X57326Y-43342D01*
X57316Y-43342D01*
X57316Y-43335D01*
X57308Y-43335D01*
X57308Y-43325D01*
X57316Y-43325D01*
X57316Y-43110D01*
X57283Y-43076D01*
X57196Y-43076D01*
X57147Y-43097D01*
X57124Y-43119D01*
X57103Y-43097D01*
X57053Y-43076D01*
X56999Y-43076D01*
X56802Y-43076D01*
X56753Y-43097D01*
X56715Y-43135D01*
X56694Y-43184D01*
X56694Y-43238D01*
X56694Y-43259D01*
X56656Y-43259D01*
X56557Y-43300D01*
X56481Y-43376D01*
X56440Y-43476D01*
X56439Y-43583D01*
X56480Y-43682D01*
X56556Y-43758D01*
X56645Y-43795D01*
X56645Y-43892D01*
X56553Y-43855D01*
X56446Y-43854D01*
X56347Y-43895D01*
X56295Y-43948D01*
X56295Y-41973D01*
X56244Y-41850D01*
X56150Y-41756D01*
X56026Y-41705D01*
X55893Y-41704D01*
X55770Y-41755D01*
X55676Y-41849D01*
X55625Y-41973D01*
X55624Y-42106D01*
X55675Y-42229D01*
X55769Y-42323D01*
X55893Y-42374D01*
X56026Y-42375D01*
X56149Y-42324D01*
X56243Y-42230D01*
X56294Y-42106D01*
X56295Y-41973D01*
X56295Y-43948D01*
X56271Y-43971D01*
X56230Y-44071D01*
X56229Y-44178D01*
X56253Y-44234D01*
X56181Y-44306D01*
X56140Y-44406D01*
X56139Y-44513D01*
X56180Y-44612D01*
X56235Y-44666D01*
X56235Y-44878D01*
X56191Y-44921D01*
X56150Y-45021D01*
X56149Y-45128D01*
X56190Y-45227D01*
X56266Y-45303D01*
X56276Y-45307D01*
X56154Y-45429D01*
X56106Y-45429D01*
X56007Y-45470D01*
X55940Y-45538D01*
X55940Y-43636D01*
X55899Y-43537D01*
X55823Y-43461D01*
X55723Y-43420D01*
X55661Y-43419D01*
X55640Y-43399D01*
X55580Y-43359D01*
X55510Y-43345D01*
X55311Y-43345D01*
X55268Y-43301D01*
X55168Y-43260D01*
X55075Y-43259D01*
X55075Y-42333D01*
X55035Y-42236D01*
X55035Y-41613D01*
X54984Y-41490D01*
X54890Y-41396D01*
X54766Y-41345D01*
X54633Y-41344D01*
X54510Y-41395D01*
X54508Y-41397D01*
X54476Y-41365D01*
X54426Y-41345D01*
X54373Y-41344D01*
X53973Y-41344D01*
X53923Y-41365D01*
X53885Y-41403D01*
X53865Y-41453D01*
X53864Y-41506D01*
X53864Y-41906D01*
X53885Y-41956D01*
X53923Y-41994D01*
X53973Y-42014D01*
X54026Y-42015D01*
X54426Y-42015D01*
X54476Y-41994D01*
X54508Y-41962D01*
X54509Y-41963D01*
X54633Y-42014D01*
X54766Y-42015D01*
X54889Y-41964D01*
X54983Y-41870D01*
X55034Y-41746D01*
X55035Y-41613D01*
X55035Y-42236D01*
X55024Y-42210D01*
X54930Y-42116D01*
X54806Y-42065D01*
X54673Y-42064D01*
X54550Y-42115D01*
X54456Y-42209D01*
X54405Y-42333D01*
X54404Y-42466D01*
X54455Y-42589D01*
X54549Y-42683D01*
X54673Y-42734D01*
X54806Y-42735D01*
X54929Y-42684D01*
X55023Y-42590D01*
X55074Y-42466D01*
X55075Y-42333D01*
X55075Y-43259D01*
X55061Y-43259D01*
X54962Y-43300D01*
X54886Y-43376D01*
X54845Y-43476D01*
X54844Y-43583D01*
X54885Y-43682D01*
X54961Y-43758D01*
X55061Y-43799D01*
X55168Y-43800D01*
X55267Y-43759D01*
X55311Y-43715D01*
X55399Y-43715D01*
X55399Y-43743D01*
X55440Y-43842D01*
X55516Y-43918D01*
X55616Y-43959D01*
X55723Y-43960D01*
X55822Y-43919D01*
X55898Y-43843D01*
X55939Y-43743D01*
X55940Y-43636D01*
X55940Y-45538D01*
X55931Y-45546D01*
X55890Y-45646D01*
X55889Y-45753D01*
X55930Y-45852D01*
X56006Y-45928D01*
X56106Y-45969D01*
X56213Y-45970D01*
X56312Y-45929D01*
X56388Y-45853D01*
X56429Y-45753D01*
X56429Y-45705D01*
X56822Y-45312D01*
X56822Y-45312D01*
X56822Y-45312D01*
X56865Y-45249D01*
X56865Y-45249D01*
X56879Y-45175D01*
X56880Y-45175D01*
X56880Y-44355D01*
X56893Y-44355D01*
X56916Y-44345D01*
X56916Y-44357D01*
X56937Y-44406D01*
X56975Y-44444D01*
X57024Y-44465D01*
X57078Y-44465D01*
X57131Y-44465D01*
X57165Y-44431D01*
X57165Y-44236D01*
X57157Y-44236D01*
X57157Y-44226D01*
X57165Y-44226D01*
X57165Y-44218D01*
X57175Y-44218D01*
X57175Y-44226D01*
X57389Y-44226D01*
X57423Y-44193D01*
X57423Y-44106D01*
X57402Y-44057D01*
X57380Y-44034D01*
X57402Y-44013D01*
X57423Y-43963D01*
X57423Y-43909D01*
X57423Y-43712D01*
X57402Y-43663D01*
X57364Y-43625D01*
X57360Y-43623D01*
X57332Y-43554D01*
X57360Y-43583D01*
X57447Y-43583D01*
X57496Y-43562D01*
X57534Y-43524D01*
X57555Y-43475D01*
X57555Y-43421D01*
X57555Y-46776D01*
X57435Y-46825D01*
X57423Y-46838D01*
X57423Y-44357D01*
X57423Y-44270D01*
X57389Y-44236D01*
X57175Y-44236D01*
X57175Y-44431D01*
X57208Y-44465D01*
X57261Y-44465D01*
X57315Y-44465D01*
X57364Y-44444D01*
X57402Y-44406D01*
X57423Y-44357D01*
X57423Y-46838D01*
X57374Y-46886D01*
X57315Y-46826D01*
X57191Y-46775D01*
X57058Y-46774D01*
X56935Y-46825D01*
X56841Y-46919D01*
X56790Y-47043D01*
X56789Y-47176D01*
X56840Y-47299D01*
X56921Y-47380D01*
X55950Y-47380D01*
X55950Y-46308D01*
X55899Y-46185D01*
X55805Y-46091D01*
X55681Y-46040D01*
X55548Y-46039D01*
X55425Y-46090D01*
X55423Y-46092D01*
X55391Y-46060D01*
X55355Y-46045D01*
X55355Y-45283D01*
X55304Y-45160D01*
X55210Y-45066D01*
X55205Y-45064D01*
X55205Y-44481D01*
X55228Y-44458D01*
X55269Y-44358D01*
X55270Y-44251D01*
X55229Y-44152D01*
X55153Y-44076D01*
X55053Y-44035D01*
X54946Y-44034D01*
X54847Y-44075D01*
X54771Y-44151D01*
X54730Y-44251D01*
X54729Y-44358D01*
X54770Y-44457D01*
X54835Y-44521D01*
X54835Y-45063D01*
X54830Y-45065D01*
X54736Y-45159D01*
X54685Y-45283D01*
X54684Y-45416D01*
X54735Y-45539D01*
X54829Y-45633D01*
X54953Y-45684D01*
X55086Y-45685D01*
X55209Y-45634D01*
X55303Y-45540D01*
X55354Y-45416D01*
X55355Y-45283D01*
X55355Y-46045D01*
X55341Y-46040D01*
X55288Y-46039D01*
X54888Y-46039D01*
X54838Y-46060D01*
X54800Y-46098D01*
X54780Y-46148D01*
X54779Y-46201D01*
X54779Y-46601D01*
X54800Y-46651D01*
X54838Y-46689D01*
X54888Y-46709D01*
X54941Y-46710D01*
X55341Y-46710D01*
X55391Y-46689D01*
X55423Y-46657D01*
X55424Y-46658D01*
X55548Y-46709D01*
X55681Y-46710D01*
X55804Y-46659D01*
X55898Y-46565D01*
X55949Y-46441D01*
X55950Y-46308D01*
X55950Y-47380D01*
X54115Y-47380D01*
X54115Y-46656D01*
X54029Y-46448D01*
X53870Y-46289D01*
X53662Y-46203D01*
X53438Y-46202D01*
X53230Y-46288D01*
X53071Y-46447D01*
X52985Y-46655D01*
X52984Y-46879D01*
X53070Y-47087D01*
X53229Y-47246D01*
X53437Y-47332D01*
X53661Y-47333D01*
X53869Y-47247D01*
X54028Y-47088D01*
X54114Y-46880D01*
X54115Y-46656D01*
X54115Y-47380D01*
X52889Y-47380D01*
X52889Y-45774D01*
X52984Y-45869D01*
X53150Y-45937D01*
X53329Y-45938D01*
X53494Y-45869D01*
X53621Y-45743D01*
X53689Y-45577D01*
X53690Y-45398D01*
X53631Y-45257D01*
X53958Y-45257D01*
X53979Y-45309D01*
X54086Y-45416D01*
X54226Y-45474D01*
X54378Y-45475D01*
X54518Y-45417D01*
X54625Y-45310D01*
X54683Y-45170D01*
X54684Y-45018D01*
X54626Y-44878D01*
X54519Y-44771D01*
X54379Y-44713D01*
X54227Y-44712D01*
X54087Y-44770D01*
X54076Y-44781D01*
X54075Y-43437D01*
X54086Y-43448D01*
X54226Y-43506D01*
X54378Y-43507D01*
X54518Y-43449D01*
X54625Y-43342D01*
X54683Y-43202D01*
X54684Y-43050D01*
X54626Y-42910D01*
X54519Y-42803D01*
X54379Y-42745D01*
X54227Y-42744D01*
X54087Y-42802D01*
X53980Y-42909D01*
X53954Y-42971D01*
X53628Y-42971D01*
X53689Y-42821D01*
X53690Y-42642D01*
X53621Y-42477D01*
X53495Y-42350D01*
X53329Y-42282D01*
X53150Y-42281D01*
X52985Y-42350D01*
X52889Y-42445D01*
X52889Y-41125D01*
X57494Y-41125D01*
X57535Y-39185D01*
X57513Y-39185D01*
X57513Y-34984D01*
X57427Y-34776D01*
X57268Y-34617D01*
X57060Y-34531D01*
X56836Y-34530D01*
X56628Y-34616D01*
X56469Y-34775D01*
X56383Y-34983D01*
X56382Y-35207D01*
X56468Y-35415D01*
X56627Y-35574D01*
X56835Y-35660D01*
X57059Y-35661D01*
X57267Y-35575D01*
X57426Y-35416D01*
X57512Y-35208D01*
X57513Y-34984D01*
X57513Y-39185D01*
X57305Y-39185D01*
X57305Y-40935D01*
X56075Y-40935D01*
X56075Y-38635D01*
X56075Y-37845D01*
X56060Y-37770D01*
X56060Y-37770D01*
X56017Y-37707D01*
X55950Y-37639D01*
X55950Y-37591D01*
X55909Y-37492D01*
X55833Y-37416D01*
X55733Y-37375D01*
X55626Y-37374D01*
X55624Y-37375D01*
X55615Y-37351D01*
X55615Y-36650D01*
X55600Y-36579D01*
X55560Y-36519D01*
X55560Y-36519D01*
X55430Y-36388D01*
X55409Y-36337D01*
X55333Y-36261D01*
X55233Y-36220D01*
X55126Y-36219D01*
X55027Y-36260D01*
X54951Y-36336D01*
X54910Y-36436D01*
X54909Y-36543D01*
X54950Y-36642D01*
X55026Y-36718D01*
X55126Y-36759D01*
X55233Y-36760D01*
X55245Y-36755D01*
X55245Y-37253D01*
X55227Y-37260D01*
X55151Y-37336D01*
X55110Y-37436D01*
X55109Y-37543D01*
X55150Y-37642D01*
X55226Y-37718D01*
X55326Y-37759D01*
X55433Y-37760D01*
X55435Y-37759D01*
X55450Y-37797D01*
X55526Y-37873D01*
X55626Y-37914D01*
X55674Y-37914D01*
X55685Y-37925D01*
X55685Y-38568D01*
X55460Y-38792D01*
X55460Y-38489D01*
X55460Y-38030D01*
X55460Y-37977D01*
X55440Y-37927D01*
X55402Y-37889D01*
X55352Y-37869D01*
X55226Y-37869D01*
X55193Y-37902D01*
X55193Y-38255D01*
X55427Y-38255D01*
X55460Y-38221D01*
X55460Y-38030D01*
X55460Y-38489D01*
X55460Y-38298D01*
X55427Y-38265D01*
X55193Y-38265D01*
X55193Y-38617D01*
X55226Y-38650D01*
X55352Y-38650D01*
X55402Y-38630D01*
X55440Y-38592D01*
X55460Y-38542D01*
X55460Y-38489D01*
X55460Y-38792D01*
X55178Y-39075D01*
X54950Y-39075D01*
X54950Y-38955D01*
X54950Y-38606D01*
X54973Y-38630D01*
X55023Y-38650D01*
X55149Y-38650D01*
X55183Y-38617D01*
X55183Y-38265D01*
X55183Y-38255D01*
X55183Y-37902D01*
X55149Y-37869D01*
X55023Y-37869D01*
X54973Y-37889D01*
X54935Y-37927D01*
X54915Y-37977D01*
X54915Y-38030D01*
X54915Y-38221D01*
X54948Y-38255D01*
X55183Y-38255D01*
X55183Y-38265D01*
X54948Y-38265D01*
X54915Y-38298D01*
X54915Y-38408D01*
X54895Y-38379D01*
X54895Y-38379D01*
X54712Y-38196D01*
X54712Y-37977D01*
X54692Y-37927D01*
X54675Y-37910D01*
X54675Y-37896D01*
X54675Y-37660D01*
X54672Y-37652D01*
X54675Y-37645D01*
X54675Y-37591D01*
X54675Y-37355D01*
X54654Y-37305D01*
X54616Y-37267D01*
X54567Y-37246D01*
X54513Y-37246D01*
X54316Y-37246D01*
X54267Y-37267D01*
X54244Y-37289D01*
X54223Y-37267D01*
X54173Y-37246D01*
X54119Y-37246D01*
X54056Y-37246D01*
X54008Y-37199D01*
X53948Y-37159D01*
X53878Y-37145D01*
X53800Y-37145D01*
X53789Y-37117D01*
X53716Y-37044D01*
X53791Y-36969D01*
X53853Y-36970D01*
X53952Y-36929D01*
X54028Y-36853D01*
X54069Y-36753D01*
X54070Y-36646D01*
X54054Y-36608D01*
X54054Y-34870D01*
X54003Y-34747D01*
X53909Y-34653D01*
X53786Y-34602D01*
X53652Y-34601D01*
X53529Y-34652D01*
X53435Y-34746D01*
X53384Y-34870D01*
X53384Y-35003D01*
X53435Y-35126D01*
X53529Y-35220D01*
X53652Y-35271D01*
X53785Y-35272D01*
X53908Y-35221D01*
X54003Y-35127D01*
X54054Y-35003D01*
X54054Y-34870D01*
X54054Y-36608D01*
X54029Y-36547D01*
X53953Y-36471D01*
X53853Y-36430D01*
X53746Y-36429D01*
X53647Y-36470D01*
X53571Y-36546D01*
X53530Y-36646D01*
X53529Y-36708D01*
X53371Y-36866D01*
X53359Y-36869D01*
X53299Y-36909D01*
X53179Y-37029D01*
X53139Y-37089D01*
X53125Y-37160D01*
X53125Y-37430D01*
X53139Y-37500D01*
X53179Y-37560D01*
X53204Y-37585D01*
X53135Y-37655D01*
X53090Y-37721D01*
X53074Y-37800D01*
X53075Y-37800D01*
X53075Y-38159D01*
X53074Y-38160D01*
X53090Y-38238D01*
X53135Y-38304D01*
X53387Y-38556D01*
X53387Y-38688D01*
X53277Y-38797D01*
X53277Y-38797D01*
X53260Y-38815D01*
X53157Y-38815D01*
X53145Y-38809D01*
X53102Y-38809D01*
X53038Y-38745D01*
X52971Y-38700D01*
X52893Y-38684D01*
X52893Y-38685D01*
X52480Y-38685D01*
X52401Y-38700D01*
X52374Y-38718D01*
X52335Y-38745D01*
X52335Y-38745D01*
X52255Y-38825D01*
X52176Y-38825D01*
X52176Y-37839D01*
X52176Y-37380D01*
X52176Y-37327D01*
X52156Y-37277D01*
X52118Y-37239D01*
X52068Y-37219D01*
X51942Y-37219D01*
X51909Y-37252D01*
X51909Y-37605D01*
X52143Y-37605D01*
X52176Y-37571D01*
X52176Y-37380D01*
X52176Y-37839D01*
X52176Y-37648D01*
X52143Y-37615D01*
X51909Y-37615D01*
X51909Y-37967D01*
X51942Y-38000D01*
X52068Y-38000D01*
X52118Y-37980D01*
X52156Y-37942D01*
X52176Y-37892D01*
X52176Y-37839D01*
X52176Y-38825D01*
X51899Y-38825D01*
X51899Y-37967D01*
X51899Y-37615D01*
X51899Y-37605D01*
X51899Y-37252D01*
X51865Y-37219D01*
X51739Y-37219D01*
X51689Y-37239D01*
X51651Y-37277D01*
X51631Y-37327D01*
X51631Y-37380D01*
X51631Y-37571D01*
X51664Y-37605D01*
X51899Y-37605D01*
X51899Y-37615D01*
X51664Y-37615D01*
X51631Y-37648D01*
X51631Y-37839D01*
X51631Y-37892D01*
X51651Y-37942D01*
X51689Y-37980D01*
X51739Y-38000D01*
X51865Y-38000D01*
X51899Y-37967D01*
X51899Y-38825D01*
X51611Y-38825D01*
X51336Y-38549D01*
X51347Y-38522D01*
X51347Y-38359D01*
X51285Y-38209D01*
X51170Y-38093D01*
X51019Y-38031D01*
X50856Y-38030D01*
X50761Y-38070D01*
X50735Y-38043D01*
X50735Y-37556D01*
X50883Y-37408D01*
X50883Y-37892D01*
X50903Y-37942D01*
X50941Y-37980D01*
X50991Y-38000D01*
X51044Y-38000D01*
X51320Y-38000D01*
X51370Y-37980D01*
X51408Y-37942D01*
X51428Y-37892D01*
X51428Y-37839D01*
X51428Y-37327D01*
X51408Y-37277D01*
X51370Y-37239D01*
X51320Y-37219D01*
X51313Y-37219D01*
X51313Y-37219D01*
X51286Y-37179D01*
X51286Y-37179D01*
X51122Y-37015D01*
X51122Y-36997D01*
X51169Y-36977D01*
X51285Y-36862D01*
X51347Y-36711D01*
X51347Y-36548D01*
X51285Y-36397D01*
X51170Y-36282D01*
X51122Y-36262D01*
X51122Y-35993D01*
X51220Y-35953D01*
X51296Y-35877D01*
X51337Y-35778D01*
X51337Y-35670D01*
X51296Y-35571D01*
X51275Y-35549D01*
X51275Y-34873D01*
X51224Y-34750D01*
X51130Y-34656D01*
X51006Y-34605D01*
X50873Y-34604D01*
X50750Y-34655D01*
X50656Y-34749D01*
X50605Y-34873D01*
X50604Y-35006D01*
X50655Y-35129D01*
X50749Y-35223D01*
X50873Y-35274D01*
X51006Y-35275D01*
X51129Y-35224D01*
X51223Y-35130D01*
X51274Y-35006D01*
X51275Y-34873D01*
X51275Y-35549D01*
X51220Y-35495D01*
X51121Y-35454D01*
X51014Y-35454D01*
X50996Y-35461D01*
X50996Y-35417D01*
X50976Y-35367D01*
X50938Y-35329D01*
X50888Y-35309D01*
X50835Y-35309D01*
X50559Y-35309D01*
X50509Y-35329D01*
X50471Y-35367D01*
X50451Y-35417D01*
X50451Y-35470D01*
X50451Y-35982D01*
X50471Y-36032D01*
X50509Y-36070D01*
X50559Y-36090D01*
X50612Y-36090D01*
X50752Y-36090D01*
X50752Y-36262D01*
X50705Y-36282D01*
X50590Y-36397D01*
X50527Y-36548D01*
X50527Y-36597D01*
X50519Y-36594D01*
X50356Y-36593D01*
X50347Y-36597D01*
X50347Y-36548D01*
X50285Y-36397D01*
X50248Y-36361D01*
X50248Y-35929D01*
X50248Y-35470D01*
X50248Y-35417D01*
X50228Y-35367D01*
X50190Y-35329D01*
X50140Y-35309D01*
X50014Y-35309D01*
X49980Y-35342D01*
X49980Y-35695D01*
X50215Y-35695D01*
X50248Y-35661D01*
X50248Y-35470D01*
X50248Y-35929D01*
X50248Y-35738D01*
X50215Y-35705D01*
X49980Y-35705D01*
X49980Y-36057D01*
X50014Y-36090D01*
X50140Y-36090D01*
X50190Y-36070D01*
X50228Y-36032D01*
X50248Y-35982D01*
X50248Y-35929D01*
X50248Y-36361D01*
X50170Y-36282D01*
X50019Y-36219D01*
X49970Y-36219D01*
X49970Y-36057D01*
X49970Y-35705D01*
X49970Y-35695D01*
X49970Y-35342D01*
X49937Y-35309D01*
X49811Y-35309D01*
X49761Y-35329D01*
X49723Y-35367D01*
X49703Y-35417D01*
X49703Y-35470D01*
X49703Y-35661D01*
X49736Y-35695D01*
X49970Y-35695D01*
X49970Y-35705D01*
X49736Y-35705D01*
X49703Y-35738D01*
X49703Y-35929D01*
X49703Y-35982D01*
X49723Y-36032D01*
X49761Y-36070D01*
X49811Y-36090D01*
X49937Y-36090D01*
X49970Y-36057D01*
X49970Y-36219D01*
X49856Y-36219D01*
X49705Y-36282D01*
X49590Y-36397D01*
X49527Y-36548D01*
X49527Y-36711D01*
X49590Y-36861D01*
X49705Y-36977D01*
X49855Y-37039D01*
X50018Y-37039D01*
X50027Y-37036D01*
X50027Y-37085D01*
X50090Y-37235D01*
X50205Y-37351D01*
X50355Y-37413D01*
X50378Y-37413D01*
X50365Y-37480D01*
X50365Y-38120D01*
X50379Y-38190D01*
X50419Y-38250D01*
X50527Y-38359D01*
X50527Y-38408D01*
X50519Y-38405D01*
X50356Y-38404D01*
X50347Y-38408D01*
X50347Y-38359D01*
X50285Y-38209D01*
X50170Y-38093D01*
X50019Y-38031D01*
X49856Y-38030D01*
X49705Y-38093D01*
X49590Y-38208D01*
X49527Y-38359D01*
X49527Y-38522D01*
X49590Y-38672D01*
X49705Y-38788D01*
X49855Y-38850D01*
X50018Y-38851D01*
X50027Y-38847D01*
X50027Y-38896D01*
X50090Y-39046D01*
X50205Y-39162D01*
X50355Y-39224D01*
X50518Y-39225D01*
X50669Y-39162D01*
X50681Y-39151D01*
X50681Y-40291D01*
X50695Y-40361D01*
X50735Y-40421D01*
X50952Y-40638D01*
X50952Y-40638D01*
X51012Y-40678D01*
X51083Y-40693D01*
X51165Y-40693D01*
X51208Y-40736D01*
X51308Y-40777D01*
X51415Y-40778D01*
X51514Y-40737D01*
X51590Y-40661D01*
X51631Y-40561D01*
X51632Y-40454D01*
X51591Y-40355D01*
X51515Y-40279D01*
X51415Y-40238D01*
X51308Y-40237D01*
X51209Y-40278D01*
X51165Y-40323D01*
X51159Y-40323D01*
X51051Y-40214D01*
X51051Y-39044D01*
X51051Y-38844D01*
X51381Y-39174D01*
X51381Y-39174D01*
X51421Y-39201D01*
X51448Y-39219D01*
X51448Y-39219D01*
X51526Y-39235D01*
X52339Y-39235D01*
X52340Y-39235D01*
X52340Y-39235D01*
X52418Y-39219D01*
X52484Y-39174D01*
X52564Y-39095D01*
X52746Y-39095D01*
X52746Y-39168D01*
X52767Y-39217D01*
X52789Y-39240D01*
X52767Y-39262D01*
X52746Y-39311D01*
X52746Y-39398D01*
X52780Y-39431D01*
X52995Y-39431D01*
X52995Y-39423D01*
X53005Y-39423D01*
X53005Y-39431D01*
X53012Y-39431D01*
X53012Y-39441D01*
X53005Y-39441D01*
X53005Y-39636D01*
X53038Y-39670D01*
X53091Y-39670D01*
X53145Y-39670D01*
X53194Y-39649D01*
X53232Y-39611D01*
X53253Y-39562D01*
X53253Y-39523D01*
X53294Y-39523D01*
X53328Y-39489D01*
X53328Y-39275D01*
X53320Y-39275D01*
X53320Y-39265D01*
X53328Y-39265D01*
X53328Y-39257D01*
X53338Y-39257D01*
X53338Y-39265D01*
X53346Y-39265D01*
X53346Y-39275D01*
X53338Y-39275D01*
X53338Y-39489D01*
X53371Y-39523D01*
X53417Y-39523D01*
X53476Y-39582D01*
X53576Y-39623D01*
X53683Y-39624D01*
X53782Y-39583D01*
X53842Y-39523D01*
X53852Y-39523D01*
X53901Y-39502D01*
X53939Y-39464D01*
X53943Y-39455D01*
X54023Y-39455D01*
X54029Y-39461D01*
X54029Y-39488D01*
X54070Y-39587D01*
X54146Y-39663D01*
X54246Y-39704D01*
X54353Y-39705D01*
X54452Y-39664D01*
X54528Y-39588D01*
X54569Y-39488D01*
X54570Y-39381D01*
X54529Y-39282D01*
X54453Y-39206D01*
X54353Y-39165D01*
X54291Y-39164D01*
X54265Y-39139D01*
X54205Y-39099D01*
X54135Y-39085D01*
X54100Y-39085D01*
X54080Y-39085D01*
X53943Y-39085D01*
X53939Y-39075D01*
X53901Y-39037D01*
X53852Y-39016D01*
X53798Y-39016D01*
X53700Y-39016D01*
X53669Y-38985D01*
X53736Y-38917D01*
X53736Y-38917D01*
X53736Y-38917D01*
X53763Y-38878D01*
X53781Y-38851D01*
X53781Y-38851D01*
X53797Y-38773D01*
X53797Y-38472D01*
X53796Y-38471D01*
X53797Y-38471D01*
X53793Y-38456D01*
X53781Y-38393D01*
X53781Y-38393D01*
X53776Y-38385D01*
X53786Y-38389D01*
X53848Y-38390D01*
X53879Y-38420D01*
X53879Y-38420D01*
X53879Y-38420D01*
X53985Y-38526D01*
X53985Y-38540D01*
X53999Y-38610D01*
X54039Y-38670D01*
X54275Y-38906D01*
X54285Y-38932D01*
X54361Y-39008D01*
X54461Y-39049D01*
X54568Y-39050D01*
X54580Y-39045D01*
X54580Y-39260D01*
X54580Y-39395D01*
X54580Y-39848D01*
X54413Y-40015D01*
X53960Y-40015D01*
X52995Y-40015D01*
X52995Y-39636D01*
X52995Y-39441D01*
X52780Y-39441D01*
X52746Y-39475D01*
X52746Y-39562D01*
X52767Y-39611D01*
X52805Y-39649D01*
X52854Y-39670D01*
X52908Y-39670D01*
X52961Y-39670D01*
X52995Y-39636D01*
X52995Y-40015D01*
X52930Y-40015D01*
X52859Y-40029D01*
X52850Y-40035D01*
X52046Y-40035D01*
X52029Y-40018D01*
X52030Y-39956D01*
X51989Y-39857D01*
X51913Y-39781D01*
X51813Y-39740D01*
X51706Y-39739D01*
X51607Y-39780D01*
X51531Y-39856D01*
X51490Y-39956D01*
X51489Y-40063D01*
X51530Y-40162D01*
X51606Y-40238D01*
X51706Y-40279D01*
X51768Y-40280D01*
X51839Y-40350D01*
X51839Y-40350D01*
X51899Y-40390D01*
X51970Y-40405D01*
X52910Y-40405D01*
X52910Y-40404D01*
X52980Y-40390D01*
X52989Y-40385D01*
X53960Y-40385D01*
X54490Y-40385D01*
X54490Y-40384D01*
X54560Y-40370D01*
X54620Y-40330D01*
X54895Y-40055D01*
X54895Y-40055D01*
X54935Y-39995D01*
X54949Y-39925D01*
X54950Y-39925D01*
X54950Y-39445D01*
X55255Y-39445D01*
X55255Y-39444D01*
X55325Y-39430D01*
X55385Y-39390D01*
X55975Y-38801D01*
X56017Y-38772D01*
X56060Y-38709D01*
X56075Y-38635D01*
X56075Y-40935D01*
X52860Y-40935D01*
X52844Y-40910D01*
X52794Y-40877D01*
X52735Y-40865D01*
X49179Y-40865D01*
X49179Y-34984D01*
X49093Y-34776D01*
X48934Y-34617D01*
X48726Y-34531D01*
X48502Y-34530D01*
X48294Y-34616D01*
X48135Y-34775D01*
X48049Y-34983D01*
X48048Y-35207D01*
X48134Y-35415D01*
X48293Y-35574D01*
X48501Y-35660D01*
X48725Y-35661D01*
X48933Y-35575D01*
X49092Y-35416D01*
X49178Y-35208D01*
X49179Y-34984D01*
X49179Y-40865D01*
X47889Y-40865D01*
X47889Y-34504D01*
X58055Y-34504D01*
X58055Y-35825D01*
X58275Y-35825D01*
X58275Y-37125D01*
X58565Y-37125D01*
X58554Y-35555D01*
X58324Y-35555D01*
X58298Y-34504D01*
X62165Y-34504D01*
X62164Y-34593D01*
X62205Y-34692D01*
X62281Y-34768D01*
X62381Y-34809D01*
X62443Y-34810D01*
X62444Y-34810D01*
X62444Y-34810D01*
X62504Y-34850D01*
X62575Y-34865D01*
X62995Y-34865D01*
X62984Y-34892D01*
X62983Y-34999D01*
X63024Y-35098D01*
X63100Y-35174D01*
X63200Y-35215D01*
X63262Y-35216D01*
X64059Y-36013D01*
X64059Y-39205D01*
X63927Y-39072D01*
X63748Y-38998D01*
X63615Y-38997D01*
X63615Y-36521D01*
X63574Y-36422D01*
X63498Y-36346D01*
X63398Y-36305D01*
X63291Y-36304D01*
X63192Y-36345D01*
X63116Y-36421D01*
X63075Y-36521D01*
X63075Y-36569D01*
X63035Y-36608D01*
X63035Y-35987D01*
X63035Y-35632D01*
X63035Y-35278D01*
X63003Y-35199D01*
X63000Y-35193D01*
X62954Y-35191D01*
X62947Y-35198D01*
X62947Y-35183D01*
X62944Y-35138D01*
X62866Y-35104D01*
X62781Y-35103D01*
X62702Y-35134D01*
X62696Y-35138D01*
X62694Y-35183D01*
X62820Y-35310D01*
X62947Y-35183D01*
X62947Y-35198D01*
X62827Y-35317D01*
X62954Y-35444D01*
X63000Y-35441D01*
X63033Y-35363D01*
X63035Y-35278D01*
X63035Y-35632D01*
X63003Y-35553D01*
X63000Y-35547D01*
X62954Y-35545D01*
X62947Y-35552D01*
X62947Y-35538D01*
X62944Y-35494D01*
X62947Y-35451D01*
X62820Y-35324D01*
X62813Y-35331D01*
X62813Y-35317D01*
X62687Y-35191D01*
X62643Y-35193D01*
X62600Y-35191D01*
X62593Y-35198D01*
X62593Y-35183D01*
X62590Y-35138D01*
X62512Y-35104D01*
X62427Y-35103D01*
X62348Y-35134D01*
X62342Y-35138D01*
X62339Y-35183D01*
X62466Y-35310D01*
X62593Y-35183D01*
X62593Y-35198D01*
X62473Y-35317D01*
X62600Y-35444D01*
X62643Y-35441D01*
X62687Y-35444D01*
X62813Y-35317D01*
X62813Y-35331D01*
X62694Y-35451D01*
X62696Y-35494D01*
X62694Y-35538D01*
X62820Y-35664D01*
X62947Y-35538D01*
X62947Y-35552D01*
X62827Y-35672D01*
X62954Y-35798D01*
X63000Y-35796D01*
X63033Y-35717D01*
X63035Y-35632D01*
X63035Y-35987D01*
X63003Y-35908D01*
X63000Y-35902D01*
X62954Y-35899D01*
X62947Y-35906D01*
X62947Y-35892D01*
X62944Y-35849D01*
X62947Y-35805D01*
X62820Y-35679D01*
X62813Y-35686D01*
X62813Y-35672D01*
X62687Y-35545D01*
X62643Y-35547D01*
X62600Y-35545D01*
X62593Y-35552D01*
X62593Y-35538D01*
X62590Y-35494D01*
X62593Y-35451D01*
X62466Y-35324D01*
X62459Y-35331D01*
X62459Y-35317D01*
X62332Y-35191D01*
X62289Y-35193D01*
X62245Y-35191D01*
X62238Y-35198D01*
X62238Y-35183D01*
X62236Y-35138D01*
X62158Y-35104D01*
X62073Y-35103D01*
X61994Y-35134D01*
X61988Y-35138D01*
X61985Y-35183D01*
X62112Y-35310D01*
X62238Y-35183D01*
X62238Y-35198D01*
X62119Y-35317D01*
X62245Y-35444D01*
X62289Y-35441D01*
X62332Y-35444D01*
X62459Y-35317D01*
X62459Y-35331D01*
X62339Y-35451D01*
X62342Y-35494D01*
X62339Y-35538D01*
X62466Y-35664D01*
X62593Y-35538D01*
X62593Y-35552D01*
X62473Y-35672D01*
X62600Y-35798D01*
X62643Y-35796D01*
X62687Y-35798D01*
X62813Y-35672D01*
X62813Y-35686D01*
X62694Y-35805D01*
X62696Y-35849D01*
X62694Y-35892D01*
X62820Y-36019D01*
X62947Y-35892D01*
X62947Y-35906D01*
X62827Y-36026D01*
X62954Y-36152D01*
X63000Y-36150D01*
X63033Y-36072D01*
X63035Y-35987D01*
X63035Y-36608D01*
X62979Y-36665D01*
X62947Y-36665D01*
X62947Y-36160D01*
X62820Y-36033D01*
X62813Y-36040D01*
X62813Y-36026D01*
X62687Y-35899D01*
X62643Y-35902D01*
X62600Y-35899D01*
X62593Y-35906D01*
X62593Y-35892D01*
X62590Y-35849D01*
X62593Y-35805D01*
X62466Y-35679D01*
X62459Y-35686D01*
X62459Y-35672D01*
X62332Y-35545D01*
X62289Y-35547D01*
X62245Y-35545D01*
X62238Y-35552D01*
X62238Y-35538D01*
X62236Y-35494D01*
X62238Y-35451D01*
X62112Y-35324D01*
X62105Y-35331D01*
X62105Y-35317D01*
X61978Y-35191D01*
X61932Y-35193D01*
X61899Y-35271D01*
X61897Y-35356D01*
X61929Y-35435D01*
X61932Y-35441D01*
X61978Y-35444D01*
X62105Y-35317D01*
X62105Y-35331D01*
X61985Y-35451D01*
X61988Y-35494D01*
X61985Y-35538D01*
X62112Y-35664D01*
X62238Y-35538D01*
X62238Y-35552D01*
X62119Y-35672D01*
X62245Y-35798D01*
X62289Y-35796D01*
X62332Y-35798D01*
X62459Y-35672D01*
X62459Y-35686D01*
X62339Y-35805D01*
X62342Y-35849D01*
X62339Y-35892D01*
X62466Y-36019D01*
X62593Y-35892D01*
X62593Y-35906D01*
X62473Y-36026D01*
X62600Y-36152D01*
X62643Y-36150D01*
X62687Y-36152D01*
X62813Y-36026D01*
X62813Y-36040D01*
X62694Y-36160D01*
X62696Y-36205D01*
X62774Y-36239D01*
X62859Y-36240D01*
X62938Y-36209D01*
X62944Y-36205D01*
X62947Y-36160D01*
X62947Y-36665D01*
X62593Y-36665D01*
X62593Y-36160D01*
X62466Y-36033D01*
X62459Y-36040D01*
X62459Y-36026D01*
X62332Y-35899D01*
X62289Y-35902D01*
X62245Y-35899D01*
X62238Y-35906D01*
X62238Y-35892D01*
X62236Y-35849D01*
X62238Y-35805D01*
X62112Y-35679D01*
X62105Y-35686D01*
X62105Y-35672D01*
X61978Y-35545D01*
X61932Y-35547D01*
X61899Y-35626D01*
X61897Y-35711D01*
X61929Y-35790D01*
X61932Y-35796D01*
X61978Y-35798D01*
X62105Y-35672D01*
X62105Y-35686D01*
X61985Y-35805D01*
X61988Y-35849D01*
X61985Y-35892D01*
X62112Y-36019D01*
X62238Y-35892D01*
X62238Y-35906D01*
X62119Y-36026D01*
X62245Y-36152D01*
X62289Y-36150D01*
X62332Y-36152D01*
X62459Y-36026D01*
X62459Y-36040D01*
X62339Y-36160D01*
X62342Y-36205D01*
X62420Y-36239D01*
X62505Y-36240D01*
X62584Y-36209D01*
X62590Y-36205D01*
X62593Y-36160D01*
X62593Y-36665D01*
X62238Y-36665D01*
X62238Y-36160D01*
X62112Y-36033D01*
X61985Y-36160D01*
X61988Y-36205D01*
X62066Y-36239D01*
X62151Y-36240D01*
X62230Y-36209D01*
X62236Y-36205D01*
X62238Y-36160D01*
X62238Y-36665D01*
X61990Y-36665D01*
X61990Y-36646D01*
X61949Y-36547D01*
X61873Y-36471D01*
X61773Y-36430D01*
X61746Y-36430D01*
X61793Y-36383D01*
X61834Y-36283D01*
X61835Y-36176D01*
X61834Y-36176D01*
X61839Y-36154D01*
X61839Y-36154D01*
X61877Y-36116D01*
X61898Y-36067D01*
X61898Y-36066D01*
X61929Y-36144D01*
X61932Y-36150D01*
X61978Y-36152D01*
X62105Y-36026D01*
X61978Y-35899D01*
X61932Y-35902D01*
X61899Y-35980D01*
X61898Y-36044D01*
X61898Y-36013D01*
X61898Y-35816D01*
X61877Y-35767D01*
X61855Y-35745D01*
X61877Y-35722D01*
X61898Y-35673D01*
X61898Y-35422D01*
X61877Y-35373D01*
X61839Y-35335D01*
X61790Y-35314D01*
X61736Y-35314D01*
X61683Y-35314D01*
X61650Y-35348D01*
X61650Y-35543D01*
X61864Y-35543D01*
X61898Y-35509D01*
X61898Y-35422D01*
X61898Y-35673D01*
X61898Y-35586D01*
X61864Y-35553D01*
X61650Y-35553D01*
X61650Y-35561D01*
X61640Y-35561D01*
X61640Y-35553D01*
X61632Y-35553D01*
X61632Y-35543D01*
X61640Y-35543D01*
X61640Y-35348D01*
X61606Y-35314D01*
X61553Y-35314D01*
X61546Y-35314D01*
X61529Y-35272D01*
X61453Y-35196D01*
X61353Y-35155D01*
X61246Y-35154D01*
X61147Y-35195D01*
X61071Y-35271D01*
X61030Y-35371D01*
X61029Y-35478D01*
X61070Y-35577D01*
X61140Y-35646D01*
X61140Y-35670D01*
X61140Y-35700D01*
X61140Y-35905D01*
X61077Y-35930D01*
X61001Y-36006D01*
X60960Y-36106D01*
X60959Y-36213D01*
X61000Y-36312D01*
X61076Y-36388D01*
X61176Y-36429D01*
X61283Y-36430D01*
X61354Y-36400D01*
X61411Y-36458D01*
X61511Y-36499D01*
X61538Y-36499D01*
X61491Y-36546D01*
X61450Y-36646D01*
X61449Y-36753D01*
X61490Y-36852D01*
X61566Y-36928D01*
X61666Y-36969D01*
X61714Y-36969D01*
X61742Y-36997D01*
X61805Y-37040D01*
X61805Y-37040D01*
X61880Y-37055D01*
X63060Y-37055D01*
X63134Y-37040D01*
X63134Y-37040D01*
X63197Y-36997D01*
X63350Y-36845D01*
X63398Y-36845D01*
X63497Y-36804D01*
X63573Y-36728D01*
X63614Y-36628D01*
X63615Y-36521D01*
X63615Y-38997D01*
X63555Y-38997D01*
X63377Y-39071D01*
X63241Y-39207D01*
X63167Y-39386D01*
X63166Y-39579D01*
X63240Y-39757D01*
X63376Y-39893D01*
X63555Y-39967D01*
X63748Y-39968D01*
X63926Y-39894D01*
X64059Y-39761D01*
X64059Y-40952D01*
X63992Y-40980D01*
X63916Y-41056D01*
X63875Y-41156D01*
X63874Y-41237D01*
X63864Y-41237D01*
X63831Y-41271D01*
X63831Y-41466D01*
X63838Y-41466D01*
X63838Y-41476D01*
X63831Y-41476D01*
X63831Y-41484D01*
X63821Y-41484D01*
X63821Y-41476D01*
X63821Y-41466D01*
X63821Y-41271D01*
X63787Y-41237D01*
X63734Y-41237D01*
X63680Y-41237D01*
X63661Y-41246D01*
X63641Y-41237D01*
X63587Y-41237D01*
X63534Y-41237D01*
X63501Y-41271D01*
X63501Y-41466D01*
X63606Y-41466D01*
X63715Y-41466D01*
X63821Y-41466D01*
X63821Y-41476D01*
X63715Y-41476D01*
X63606Y-41476D01*
X63501Y-41476D01*
X63501Y-41484D01*
X63491Y-41484D01*
X63491Y-41476D01*
X63483Y-41476D01*
X63483Y-41466D01*
X63491Y-41466D01*
X63491Y-41271D01*
X63457Y-41237D01*
X63404Y-41237D01*
X63350Y-41237D01*
X63326Y-41248D01*
X63301Y-41237D01*
X63275Y-41237D01*
X63275Y-41236D01*
X63318Y-41193D01*
X63359Y-41093D01*
X63360Y-40986D01*
X63319Y-40887D01*
X63243Y-40811D01*
X63143Y-40770D01*
X63036Y-40769D01*
X62937Y-40810D01*
X62861Y-40886D01*
X62820Y-40986D01*
X62820Y-41027D01*
X62736Y-40993D01*
X62603Y-40992D01*
X62480Y-41043D01*
X62386Y-41137D01*
X62335Y-41261D01*
X62334Y-41349D01*
X62263Y-41277D01*
X62163Y-41236D01*
X62056Y-41235D01*
X61957Y-41276D01*
X61881Y-41352D01*
X61850Y-41427D01*
X61850Y-39506D01*
X61809Y-39407D01*
X61733Y-39331D01*
X61633Y-39290D01*
X61628Y-39290D01*
X61419Y-39080D01*
X61346Y-39032D01*
X61331Y-39029D01*
X61260Y-39014D01*
X61259Y-39015D01*
X60760Y-39015D01*
X60760Y-39014D01*
X60688Y-39029D01*
X60673Y-39032D01*
X60600Y-39080D01*
X60600Y-39080D01*
X60421Y-39260D01*
X59821Y-39260D01*
X59823Y-39258D01*
X59864Y-39158D01*
X59864Y-39110D01*
X59912Y-39063D01*
X60103Y-39063D01*
X60153Y-39042D01*
X60191Y-39004D01*
X60212Y-38955D01*
X60212Y-38901D01*
X60212Y-38665D01*
X60212Y-38364D01*
X60212Y-38074D01*
X60191Y-38025D01*
X60153Y-37987D01*
X60151Y-37986D01*
X60151Y-36437D01*
X60151Y-36037D01*
X60130Y-35987D01*
X60092Y-35949D01*
X60042Y-35929D01*
X59989Y-35928D01*
X59589Y-35928D01*
X59539Y-35949D01*
X59501Y-35987D01*
X59481Y-36037D01*
X59480Y-36090D01*
X59480Y-36490D01*
X59501Y-36540D01*
X59539Y-36578D01*
X59589Y-36598D01*
X59642Y-36599D01*
X60042Y-36599D01*
X60092Y-36578D01*
X60130Y-36540D01*
X60150Y-36490D01*
X60151Y-36437D01*
X60151Y-37986D01*
X60104Y-37966D01*
X60050Y-37966D01*
X59938Y-37966D01*
X59905Y-38000D01*
X59905Y-38214D01*
X60178Y-38214D01*
X60212Y-38180D01*
X60212Y-38074D01*
X60212Y-38364D01*
X60212Y-38258D01*
X60178Y-38224D01*
X59905Y-38224D01*
X59905Y-38439D01*
X59938Y-38472D01*
X60050Y-38472D01*
X60104Y-38472D01*
X60153Y-38452D01*
X60191Y-38414D01*
X60212Y-38364D01*
X60212Y-38665D01*
X60191Y-38615D01*
X60153Y-38577D01*
X60104Y-38557D01*
X60050Y-38557D01*
X59895Y-38557D01*
X59895Y-38439D01*
X59895Y-38224D01*
X59895Y-38214D01*
X59895Y-38000D01*
X59861Y-37966D01*
X59749Y-37966D01*
X59695Y-37966D01*
X59646Y-37987D01*
X59608Y-38025D01*
X59587Y-38074D01*
X59587Y-38180D01*
X59621Y-38214D01*
X59895Y-38214D01*
X59895Y-38224D01*
X59621Y-38224D01*
X59587Y-38258D01*
X59587Y-38364D01*
X59608Y-38414D01*
X59646Y-38452D01*
X59695Y-38472D01*
X59749Y-38472D01*
X59861Y-38472D01*
X59895Y-38439D01*
X59895Y-38557D01*
X59696Y-38557D01*
X59646Y-38577D01*
X59608Y-38615D01*
X59587Y-38665D01*
X59587Y-38718D01*
X59587Y-38834D01*
X59541Y-38834D01*
X59442Y-38875D01*
X59384Y-38933D01*
X59384Y-38933D01*
X59345Y-38960D01*
X59345Y-38960D01*
X59155Y-39150D01*
X59155Y-35183D01*
X59155Y-34783D01*
X59134Y-34733D01*
X59096Y-34695D01*
X59046Y-34675D01*
X58993Y-34674D01*
X58593Y-34674D01*
X58543Y-34695D01*
X58505Y-34733D01*
X58485Y-34783D01*
X58484Y-34836D01*
X58484Y-35236D01*
X58505Y-35286D01*
X58543Y-35324D01*
X58593Y-35344D01*
X58646Y-35345D01*
X59046Y-35345D01*
X59096Y-35324D01*
X59134Y-35286D01*
X59154Y-35236D01*
X59155Y-35183D01*
X59155Y-39150D01*
X59130Y-39175D01*
X59085Y-39241D01*
X59069Y-39320D01*
X59070Y-39320D01*
X59070Y-39458D01*
X59046Y-39481D01*
X59005Y-39581D01*
X59004Y-39688D01*
X59045Y-39787D01*
X59121Y-39863D01*
X59221Y-39904D01*
X59328Y-39905D01*
X59427Y-39864D01*
X59503Y-39788D01*
X59530Y-39722D01*
X59536Y-39724D01*
X59537Y-39724D01*
X59525Y-39756D01*
X59524Y-39863D01*
X59552Y-39930D01*
X59200Y-39930D01*
X59129Y-39944D01*
X59069Y-39984D01*
X58648Y-40405D01*
X58648Y-38942D01*
X58648Y-38691D01*
X58627Y-38642D01*
X58605Y-38619D01*
X58627Y-38598D01*
X58648Y-38548D01*
X58648Y-38494D01*
X58648Y-38297D01*
X58627Y-38248D01*
X58589Y-38210D01*
X58540Y-38189D01*
X58486Y-38189D01*
X58250Y-38189D01*
X58229Y-38198D01*
X58218Y-38186D01*
X58118Y-38145D01*
X58011Y-38144D01*
X57912Y-38185D01*
X57836Y-38261D01*
X57795Y-38361D01*
X57794Y-38468D01*
X57835Y-38567D01*
X57911Y-38643D01*
X58011Y-38684D01*
X58118Y-38685D01*
X58149Y-38672D01*
X58141Y-38691D01*
X58141Y-38778D01*
X58175Y-38811D01*
X58390Y-38811D01*
X58390Y-38803D01*
X58400Y-38803D01*
X58400Y-38811D01*
X58614Y-38811D01*
X58648Y-38778D01*
X58648Y-38691D01*
X58648Y-38942D01*
X58648Y-38855D01*
X58614Y-38821D01*
X58400Y-38821D01*
X58400Y-39016D01*
X58433Y-39050D01*
X58486Y-39050D01*
X58540Y-39050D01*
X58589Y-39029D01*
X58627Y-38991D01*
X58648Y-38942D01*
X58648Y-40405D01*
X58540Y-40512D01*
X58514Y-40447D01*
X58438Y-40371D01*
X58390Y-40351D01*
X58390Y-39016D01*
X58390Y-38821D01*
X58175Y-38821D01*
X58141Y-38855D01*
X58141Y-38942D01*
X58162Y-38991D01*
X58200Y-39029D01*
X58249Y-39050D01*
X58303Y-39050D01*
X58356Y-39050D01*
X58390Y-39016D01*
X58390Y-40351D01*
X58338Y-40330D01*
X58285Y-40329D01*
X58285Y-39781D01*
X58328Y-39738D01*
X58369Y-39638D01*
X58370Y-39531D01*
X58329Y-39432D01*
X58253Y-39356D01*
X58153Y-39315D01*
X58046Y-39314D01*
X57947Y-39355D01*
X57871Y-39431D01*
X57830Y-39531D01*
X57829Y-39638D01*
X57870Y-39737D01*
X57915Y-39781D01*
X57915Y-40415D01*
X57929Y-40485D01*
X57969Y-40545D01*
X58015Y-40591D01*
X58014Y-40653D01*
X58055Y-40752D01*
X58131Y-40828D01*
X58197Y-40855D01*
X58168Y-40885D01*
X58106Y-40884D01*
X58007Y-40925D01*
X57931Y-41001D01*
X57930Y-41002D01*
X57863Y-40975D01*
X57756Y-40974D01*
X57657Y-41015D01*
X57581Y-41091D01*
X57540Y-41191D01*
X57539Y-41298D01*
X57580Y-41397D01*
X57656Y-41473D01*
X57756Y-41514D01*
X57818Y-41515D01*
X57849Y-41545D01*
X57849Y-41545D01*
X57909Y-41585D01*
X57980Y-41600D01*
X58190Y-41600D01*
X58600Y-41600D01*
X58600Y-41599D01*
X58670Y-41585D01*
X58730Y-41545D01*
X58839Y-41437D01*
X58845Y-41452D01*
X58921Y-41528D01*
X59021Y-41569D01*
X59088Y-41570D01*
X59545Y-42026D01*
X59545Y-42213D01*
X59219Y-42539D01*
X59179Y-42599D01*
X59165Y-42670D01*
X59165Y-42729D01*
X59093Y-42700D01*
X58986Y-42699D01*
X58887Y-42740D01*
X58811Y-42816D01*
X58770Y-42916D01*
X58769Y-43023D01*
X58810Y-43122D01*
X58886Y-43198D01*
X58986Y-43239D01*
X59048Y-43240D01*
X59118Y-43310D01*
X59092Y-43320D01*
X59016Y-43396D01*
X58975Y-43496D01*
X58974Y-43603D01*
X59015Y-43702D01*
X59091Y-43778D01*
X59191Y-43819D01*
X59298Y-43820D01*
X59397Y-43779D01*
X59473Y-43703D01*
X59490Y-43663D01*
X59494Y-43665D01*
X59565Y-43680D01*
X59920Y-43680D01*
X59920Y-43679D01*
X59990Y-43665D01*
X60050Y-43625D01*
X60715Y-42960D01*
X60715Y-42960D01*
X60755Y-42900D01*
X60769Y-42830D01*
X60770Y-42830D01*
X60770Y-42456D01*
X60813Y-42413D01*
X60854Y-42313D01*
X60855Y-42206D01*
X60814Y-42107D01*
X60738Y-42031D01*
X60638Y-41990D01*
X60531Y-41989D01*
X60432Y-42030D01*
X60422Y-42040D01*
X60383Y-42001D01*
X60352Y-41988D01*
X60372Y-41968D01*
X60415Y-41940D01*
X60443Y-41897D01*
X60851Y-41489D01*
X60938Y-41490D01*
X61037Y-41449D01*
X61113Y-41373D01*
X61154Y-41273D01*
X61155Y-41166D01*
X61114Y-41067D01*
X61038Y-40991D01*
X60938Y-40950D01*
X60831Y-40949D01*
X60732Y-40990D01*
X60656Y-41066D01*
X60615Y-41166D01*
X60615Y-41203D01*
X60343Y-41474D01*
X60332Y-41447D01*
X60310Y-41425D01*
X60332Y-41402D01*
X60353Y-41353D01*
X60353Y-41102D01*
X60332Y-41053D01*
X60294Y-41015D01*
X60245Y-40994D01*
X60191Y-40994D01*
X60138Y-40994D01*
X60105Y-41028D01*
X60105Y-41223D01*
X60319Y-41223D01*
X60353Y-41189D01*
X60353Y-41102D01*
X60353Y-41353D01*
X60353Y-41266D01*
X60319Y-41233D01*
X60105Y-41233D01*
X60105Y-41241D01*
X60095Y-41241D01*
X60095Y-41233D01*
X60095Y-41223D01*
X60095Y-41028D01*
X60061Y-40994D01*
X60008Y-40994D01*
X59954Y-40994D01*
X59905Y-41015D01*
X59867Y-41053D01*
X59846Y-41102D01*
X59846Y-41189D01*
X59880Y-41223D01*
X60095Y-41223D01*
X60095Y-41233D01*
X59880Y-41233D01*
X59846Y-41266D01*
X59846Y-41353D01*
X59867Y-41402D01*
X59889Y-41425D01*
X59867Y-41446D01*
X59846Y-41496D01*
X59846Y-41550D01*
X59846Y-41747D01*
X59867Y-41796D01*
X59905Y-41834D01*
X59954Y-41855D01*
X59963Y-41855D01*
X59907Y-41911D01*
X59900Y-41879D01*
X59860Y-41819D01*
X59860Y-41819D01*
X59344Y-41303D01*
X59345Y-41246D01*
X59304Y-41147D01*
X59228Y-41071D01*
X59212Y-41064D01*
X59371Y-40905D01*
X59990Y-40905D01*
X60148Y-40905D01*
X60166Y-40923D01*
X60266Y-40964D01*
X60373Y-40965D01*
X60472Y-40924D01*
X60548Y-40848D01*
X60589Y-40748D01*
X60590Y-40641D01*
X60572Y-40599D01*
X60572Y-40599D01*
X60648Y-40523D01*
X60680Y-40447D01*
X60690Y-40456D01*
X60689Y-40518D01*
X60730Y-40617D01*
X60806Y-40693D01*
X60906Y-40734D01*
X61013Y-40735D01*
X61112Y-40694D01*
X61188Y-40618D01*
X61229Y-40518D01*
X61230Y-40411D01*
X61189Y-40312D01*
X61113Y-40236D01*
X61013Y-40195D01*
X60951Y-40194D01*
X60878Y-40121D01*
X60890Y-40110D01*
X60912Y-40132D01*
X60961Y-40153D01*
X61048Y-40153D01*
X61081Y-40119D01*
X61081Y-39905D01*
X61073Y-39905D01*
X61073Y-39895D01*
X61081Y-39895D01*
X61081Y-39680D01*
X61048Y-39646D01*
X60961Y-39646D01*
X60912Y-39667D01*
X60889Y-39689D01*
X60868Y-39667D01*
X60818Y-39646D01*
X60764Y-39646D01*
X60669Y-39646D01*
X60674Y-39644D01*
X60853Y-39465D01*
X61166Y-39465D01*
X61309Y-39608D01*
X61309Y-39613D01*
X61350Y-39712D01*
X61426Y-39788D01*
X61526Y-39829D01*
X61633Y-39830D01*
X61732Y-39789D01*
X61808Y-39713D01*
X61849Y-39613D01*
X61850Y-39506D01*
X61850Y-41427D01*
X61840Y-41452D01*
X61839Y-41559D01*
X61880Y-41658D01*
X61925Y-41702D01*
X61925Y-42008D01*
X61926Y-42017D01*
X61920Y-42034D01*
X61919Y-42141D01*
X61960Y-42240D01*
X61966Y-42246D01*
X61948Y-42253D01*
X61854Y-42347D01*
X61803Y-42471D01*
X61802Y-42604D01*
X61853Y-42727D01*
X61947Y-42821D01*
X62071Y-42872D01*
X62204Y-42873D01*
X62327Y-42822D01*
X62421Y-42728D01*
X62472Y-42604D01*
X62473Y-42471D01*
X62436Y-42382D01*
X62547Y-42428D01*
X62680Y-42429D01*
X62803Y-42378D01*
X62823Y-42357D01*
X62890Y-42424D01*
X62990Y-42465D01*
X63097Y-42466D01*
X63196Y-42425D01*
X63272Y-42349D01*
X63313Y-42249D01*
X63314Y-42174D01*
X63326Y-42154D01*
X63339Y-42093D01*
X63350Y-42098D01*
X63404Y-42098D01*
X63640Y-42098D01*
X63660Y-42089D01*
X63680Y-42098D01*
X63734Y-42098D01*
X63970Y-42098D01*
X64020Y-42077D01*
X64058Y-42039D01*
X64079Y-41990D01*
X64079Y-41936D01*
X64079Y-41739D01*
X64058Y-41690D01*
X64036Y-41668D01*
X64058Y-41645D01*
X64079Y-41596D01*
X64079Y-41509D01*
X64045Y-41476D01*
X64079Y-41476D01*
X64079Y-41474D01*
X64091Y-41479D01*
X64134Y-41479D01*
X64134Y-41488D01*
X64175Y-41587D01*
X64251Y-41663D01*
X64306Y-41686D01*
X64290Y-41726D01*
X64289Y-41833D01*
X64330Y-41932D01*
X64406Y-42008D01*
X64506Y-42049D01*
X64613Y-42050D01*
X64712Y-42009D01*
X64788Y-41933D01*
X64829Y-41833D01*
X64830Y-41735D01*
X64830Y-41735D01*
X64839Y-41685D01*
X64840Y-41685D01*
X64840Y-41269D01*
X64825Y-41199D01*
X64785Y-41139D01*
X64785Y-41139D01*
X64750Y-41103D01*
X64750Y-36126D01*
X64750Y-35804D01*
X64735Y-35733D01*
X64695Y-35673D01*
X64695Y-35673D01*
X64093Y-35070D01*
X64093Y-34896D01*
X64078Y-34825D01*
X64038Y-34765D01*
X64038Y-34765D01*
X63822Y-34549D01*
X63762Y-34509D01*
X63740Y-34504D01*
X65020Y-34504D01*
X65020Y-47380D01*
G54D10*
G36*
X53906Y-45087D02*
X53447Y-45087D01*
X53418Y-45074D01*
X53342Y-45040D01*
X53335Y-45040D01*
X53329Y-45038D01*
X53246Y-45038D01*
X53163Y-45035D01*
X53157Y-45037D01*
X53150Y-45037D01*
X53073Y-45069D01*
X53028Y-45087D01*
X52889Y-45087D01*
X52889Y-43141D01*
X53051Y-43141D01*
X53061Y-43145D01*
X53137Y-43179D01*
X53144Y-43179D01*
X53150Y-43181D01*
X53233Y-43181D01*
X53316Y-43184D01*
X53322Y-43182D01*
X53329Y-43182D01*
X53406Y-43150D01*
X53430Y-43141D01*
X53905Y-43141D01*
X53906Y-45087D01*
X53906Y-45087D01*
G37*
G54D30*
X53906Y-45087D02*
X53447Y-45087D01*
X53418Y-45074D01*
X53342Y-45040D01*
X53335Y-45040D01*
X53329Y-45038D01*
X53246Y-45038D01*
X53163Y-45035D01*
X53157Y-45037D01*
X53150Y-45037D01*
X53073Y-45069D01*
X53028Y-45087D01*
X52889Y-45087D01*
X52889Y-43141D01*
X53051Y-43141D01*
X53061Y-43145D01*
X53137Y-43179D01*
X53144Y-43179D01*
X53150Y-43181D01*
X53233Y-43181D01*
X53316Y-43184D01*
X53322Y-43182D01*
X53329Y-43182D01*
X53406Y-43150D01*
X53430Y-43141D01*
X53905Y-43141D01*
X53906Y-45087D01*
M02*
