G04 (created by PCBNEW (2013-may-18)-stable) date Tue 15 Oct 2013 04:41:00 PM EDT*
%MOIN*%
G04 Gerber Fmt 3.4, Leading zero omitted, Abs format*
%FSLAX34Y34*%
G01*
G70*
G90*
G04 APERTURE LIST*
%ADD10C,0.00590551*%
%ADD11C,0.0108268*%
%ADD12C,0.0001*%
%ADD13R,0.0511811X0.0275591*%
%ADD14R,0.0275591X0.0511811*%
%ADD15R,0.023622X0.0354331*%
%ADD16R,0.0354331X0.023622*%
%ADD17R,0.019685X0.023622*%
%ADD18R,0.023622X0.019685*%
%ADD19R,0.019685X0.00984252*%
%ADD20C,0.0492*%
%ADD21R,0.063X0.0591*%
%ADD22R,0.0591X0.0157*%
%ADD23C,0.063*%
%ADD24C,0.07*%
%ADD25R,0.07X0.07*%
%ADD26C,0.04*%
%ADD27R,0.04X0.04*%
%ADD28R,0.0255906X0.00984252*%
%ADD29R,0.0649606X0.173228*%
%ADD30R,0.0275591X0.00984252*%
%ADD31R,0.0629921X0.0925197*%
%ADD32R,0.024X0.009*%
%ADD33R,0.0354331X0.102362*%
%ADD34C,0.055*%
%ADD35R,0.0334646X0.0110236*%
%ADD36R,0.0110236X0.0334646*%
%ADD37R,0.106299X0.106299*%
%ADD38R,0.011811X0.0314961*%
%ADD39R,0.0314961X0.011811*%
%ADD40R,0.0137795X0.019685*%
%ADD41R,0.0755905X0.0472441*%
%ADD42R,0.0944882X0.0669291*%
%ADD43C,0.086*%
G04 APERTURE END LIST*
G54D10*
G54D11*
X63960Y-45921D02*
X63960Y-45632D01*
X63960Y-45715D02*
X63981Y-45673D01*
X64002Y-45653D01*
X64043Y-45632D01*
X64084Y-45632D01*
X64455Y-45921D02*
X64208Y-45921D01*
X64332Y-45921D02*
X64332Y-45488D01*
X64290Y-45550D01*
X64249Y-45591D01*
X64208Y-45611D01*
X64827Y-45921D02*
X64827Y-45694D01*
X64806Y-45653D01*
X64765Y-45632D01*
X64682Y-45632D01*
X64641Y-45653D01*
X64827Y-45900D02*
X64785Y-45921D01*
X64682Y-45921D01*
X64641Y-45900D01*
X64620Y-45859D01*
X64620Y-45818D01*
X64641Y-45776D01*
X64682Y-45756D01*
X64785Y-45756D01*
X64827Y-45735D01*
G54D12*
G36*
X65082Y-44376D02*
X65074Y-44401D01*
X65040Y-44416D01*
X64969Y-44421D01*
X64848Y-44420D01*
X64782Y-44417D01*
X64482Y-44406D01*
X64482Y-44506D01*
X64471Y-44635D01*
X64444Y-44719D01*
X64409Y-44755D01*
X64373Y-44737D01*
X64341Y-44660D01*
X64330Y-44605D01*
X64307Y-44492D01*
X64277Y-44444D01*
X64240Y-44459D01*
X64196Y-44530D01*
X64147Y-44618D01*
X64126Y-44649D01*
X64126Y-44453D01*
X64105Y-44429D01*
X64034Y-44423D01*
X63971Y-44423D01*
X63866Y-44425D01*
X63808Y-44438D01*
X63780Y-44471D01*
X63767Y-44514D01*
X63708Y-44640D01*
X63601Y-44730D01*
X63439Y-44789D01*
X63410Y-44796D01*
X63216Y-44836D01*
X63216Y-45060D01*
X63218Y-45182D01*
X63230Y-45259D01*
X63258Y-45312D01*
X63310Y-45363D01*
X63318Y-45370D01*
X63427Y-45438D01*
X63533Y-45449D01*
X63653Y-45402D01*
X63676Y-45388D01*
X63767Y-45308D01*
X63840Y-45186D01*
X63899Y-45012D01*
X63927Y-44890D01*
X63962Y-44765D01*
X64008Y-44652D01*
X64035Y-44606D01*
X64101Y-44508D01*
X64126Y-44453D01*
X64126Y-44649D01*
X64102Y-44685D01*
X64099Y-44689D01*
X64072Y-44745D01*
X64039Y-44846D01*
X64006Y-44971D01*
X64003Y-44986D01*
X63933Y-45212D01*
X63834Y-45379D01*
X63707Y-45487D01*
X63662Y-45509D01*
X63533Y-45549D01*
X63422Y-45543D01*
X63366Y-45524D01*
X63298Y-45483D01*
X63219Y-45417D01*
X63207Y-45405D01*
X63163Y-45357D01*
X63136Y-45307D01*
X63122Y-45239D01*
X63116Y-45136D01*
X63116Y-45018D01*
X63116Y-44723D01*
X63224Y-44722D01*
X63409Y-44702D01*
X63551Y-44644D01*
X63644Y-44553D01*
X63682Y-44433D01*
X63682Y-44415D01*
X63682Y-44323D01*
X63930Y-44323D01*
X64177Y-44323D01*
X64200Y-44216D01*
X64218Y-44086D01*
X64222Y-43931D01*
X64215Y-43778D01*
X64197Y-43651D01*
X64183Y-43606D01*
X64094Y-43453D01*
X63972Y-43346D01*
X63829Y-43287D01*
X63678Y-43276D01*
X63531Y-43315D01*
X63401Y-43406D01*
X63309Y-43532D01*
X63274Y-43611D01*
X63250Y-43701D01*
X63234Y-43819D01*
X63224Y-43981D01*
X63222Y-44048D01*
X63208Y-44423D01*
X63098Y-44423D01*
X63009Y-44408D01*
X62972Y-44364D01*
X62960Y-44350D01*
X62953Y-44395D01*
X62952Y-44406D01*
X62940Y-44555D01*
X62917Y-44671D01*
X62887Y-44741D01*
X62864Y-44756D01*
X62833Y-44726D01*
X62800Y-44651D01*
X62782Y-44589D01*
X62742Y-44423D01*
X62529Y-44423D01*
X62410Y-44419D01*
X62344Y-44408D01*
X62318Y-44385D01*
X62316Y-44370D01*
X62325Y-44344D01*
X62362Y-44329D01*
X62440Y-44325D01*
X62571Y-44328D01*
X62581Y-44328D01*
X62846Y-44339D01*
X62868Y-44164D01*
X62885Y-44062D01*
X62906Y-43991D01*
X62918Y-43971D01*
X62954Y-43982D01*
X62991Y-44047D01*
X63025Y-44158D01*
X63033Y-44198D01*
X63056Y-44290D01*
X63076Y-44318D01*
X63094Y-44281D01*
X63109Y-44182D01*
X63120Y-44022D01*
X63121Y-43995D01*
X63148Y-43727D01*
X63208Y-43515D01*
X63303Y-43359D01*
X63433Y-43254D01*
X63601Y-43199D01*
X63733Y-43189D01*
X63919Y-43211D01*
X64067Y-43280D01*
X64185Y-43404D01*
X64269Y-43556D01*
X64299Y-43664D01*
X64318Y-43813D01*
X64324Y-43976D01*
X64316Y-44128D01*
X64304Y-44206D01*
X64297Y-44286D01*
X64331Y-44336D01*
X64348Y-44348D01*
X64390Y-44369D01*
X64409Y-44354D01*
X64415Y-44292D01*
X64416Y-44242D01*
X64425Y-44101D01*
X64450Y-44015D01*
X64485Y-43987D01*
X64526Y-44019D01*
X64567Y-44113D01*
X64579Y-44156D01*
X64622Y-44323D01*
X64852Y-44323D01*
X64976Y-44325D01*
X65047Y-44335D01*
X65078Y-44356D01*
X65082Y-44376D01*
X65082Y-44376D01*
X65082Y-44376D01*
G37*
G54D13*
X49177Y-38775D03*
X49177Y-38027D03*
X55370Y-42315D03*
X55370Y-43064D03*
G54D14*
X57295Y-36150D03*
X58044Y-36150D03*
G54D13*
X64560Y-39575D03*
X64560Y-40324D03*
G54D14*
X53635Y-40540D03*
X54384Y-40540D03*
G54D13*
X56240Y-37184D03*
X56240Y-36435D03*
X54495Y-35539D03*
X54495Y-34790D03*
X61155Y-40854D03*
X61155Y-40105D03*
G54D15*
X64344Y-39130D03*
X64935Y-39130D03*
G54D16*
X61690Y-41494D03*
X61690Y-42085D03*
X55520Y-44034D03*
X55520Y-44625D03*
G54D17*
X63117Y-36887D03*
X62724Y-36887D03*
X61398Y-37169D03*
X61004Y-37169D03*
X62008Y-36890D03*
X62401Y-36890D03*
G54D18*
X61254Y-46109D03*
X61254Y-46502D03*
G54D17*
X61398Y-37484D03*
X61004Y-37484D03*
X61398Y-38114D03*
X61004Y-38114D03*
X61398Y-37799D03*
X61004Y-37799D03*
X57743Y-36900D03*
X58136Y-36900D03*
X60886Y-35690D03*
X60493Y-35690D03*
G54D18*
X57165Y-39161D03*
X57165Y-38768D03*
X59740Y-46953D03*
X59740Y-47346D03*
G54D17*
X62643Y-40890D03*
X63036Y-40890D03*
X54256Y-36150D03*
X53863Y-36150D03*
G54D18*
X51455Y-36383D03*
X51455Y-36776D03*
G54D17*
X61903Y-40890D03*
X62296Y-40890D03*
X62891Y-39110D03*
X62498Y-39110D03*
X61636Y-45365D03*
X61243Y-45365D03*
X61031Y-35285D03*
X60638Y-35285D03*
G54D18*
X61638Y-46106D03*
X61638Y-45713D03*
X51422Y-35921D03*
X51422Y-35527D03*
X61070Y-42253D03*
X61070Y-42646D03*
X55640Y-45013D03*
X55640Y-45406D03*
G54D17*
X59853Y-46605D03*
X60246Y-46605D03*
X48193Y-36787D03*
X48587Y-36787D03*
X57016Y-38070D03*
X56623Y-38070D03*
X57016Y-38385D03*
X56623Y-38385D03*
G54D18*
X55380Y-38366D03*
X55380Y-37973D03*
G54D17*
X53103Y-37600D03*
X53496Y-37600D03*
G54D18*
X53120Y-38063D03*
X53120Y-38456D03*
X53420Y-38063D03*
X53420Y-38456D03*
X52820Y-38456D03*
X52820Y-38063D03*
X53130Y-37116D03*
X53130Y-36723D03*
X53435Y-37116D03*
X53435Y-36723D03*
G54D17*
X53476Y-36440D03*
X53083Y-36440D03*
G54D18*
X55690Y-37973D03*
X55690Y-38366D03*
G54D17*
X48193Y-36393D03*
X48587Y-36393D03*
X49296Y-36393D03*
X48902Y-36393D03*
X49650Y-36000D03*
X49256Y-36000D03*
G54D18*
X50938Y-39491D03*
X50938Y-39884D03*
X55990Y-38366D03*
X55990Y-37973D03*
X51910Y-39948D03*
X51910Y-40341D03*
X51596Y-40340D03*
X51596Y-39947D03*
X51910Y-39283D03*
X51910Y-39676D03*
X51605Y-39283D03*
X51605Y-39676D03*
X51300Y-39676D03*
X51300Y-39283D03*
X51620Y-35186D03*
X51620Y-34793D03*
G54D17*
X55636Y-35160D03*
X55243Y-35160D03*
X54988Y-35565D03*
X55381Y-35565D03*
X57016Y-37755D03*
X56623Y-37755D03*
G54D18*
X57350Y-38441D03*
X57350Y-38048D03*
X57350Y-37781D03*
X57350Y-37388D03*
G54D17*
X56256Y-37610D03*
X55863Y-37610D03*
G54D18*
X55790Y-36793D03*
X55790Y-37186D03*
X55420Y-37186D03*
X55420Y-36793D03*
G54D17*
X55381Y-35870D03*
X54988Y-35870D03*
X52276Y-40695D03*
X51883Y-40695D03*
X48902Y-36787D03*
X49296Y-36787D03*
G54D18*
X50083Y-35960D03*
X50083Y-35566D03*
G54D17*
X53583Y-38952D03*
X53976Y-38952D03*
G54D18*
X51885Y-38966D03*
X51885Y-38573D03*
X53690Y-39679D03*
X53690Y-40072D03*
X53996Y-40072D03*
X53996Y-39679D03*
G54D17*
X50831Y-35606D03*
X50437Y-35606D03*
G54D18*
X61650Y-42826D03*
X61650Y-42433D03*
G54D19*
X57747Y-37278D03*
X57747Y-37534D03*
X57747Y-38046D03*
X57747Y-37790D03*
X57747Y-38814D03*
X57747Y-39070D03*
X57747Y-38558D03*
X57747Y-38302D03*
X57747Y-40349D03*
X57747Y-40605D03*
X57747Y-40861D03*
X57747Y-39837D03*
X57747Y-40093D03*
X57747Y-39581D03*
X57747Y-39325D03*
X60582Y-39325D03*
X60582Y-39581D03*
X60582Y-40093D03*
X60582Y-39837D03*
X60582Y-40861D03*
X60582Y-40605D03*
X60582Y-40349D03*
X60582Y-38302D03*
X60582Y-38558D03*
X60582Y-39070D03*
X60582Y-38814D03*
X60582Y-37790D03*
X60582Y-38046D03*
X60582Y-37534D03*
X60582Y-37278D03*
G54D20*
X54303Y-45094D03*
G54D21*
X53240Y-45192D03*
X53240Y-43027D03*
X53240Y-44503D03*
G54D22*
X54319Y-43610D03*
X54319Y-43860D03*
X54319Y-44110D03*
X54319Y-44360D03*
X54319Y-44610D03*
G54D23*
X53240Y-45488D03*
X53240Y-42732D03*
G54D21*
X53240Y-43716D03*
G54D20*
X54303Y-43126D03*
G54D24*
X63652Y-39483D03*
G54D25*
X63652Y-40483D03*
G54D26*
X50940Y-34940D03*
G54D27*
X50440Y-34940D03*
G54D26*
X53719Y-34937D03*
G54D27*
X53219Y-34937D03*
G54D26*
X59816Y-35764D03*
G54D27*
X59816Y-36264D03*
G54D26*
X58820Y-35510D03*
G54D27*
X58820Y-35010D03*
G54D26*
X54700Y-41680D03*
G54D27*
X54200Y-41680D03*
G54D26*
X56625Y-47110D03*
X57125Y-47110D03*
X58125Y-47110D03*
X57625Y-47110D03*
X58625Y-47110D03*
G54D27*
X59125Y-47110D03*
G54D28*
X55029Y-38393D03*
X53887Y-38393D03*
X53887Y-38000D03*
X53887Y-38197D03*
X55029Y-37606D03*
X55029Y-37803D03*
X55029Y-38000D03*
X55029Y-38197D03*
X53887Y-37803D03*
X53887Y-37606D03*
X53887Y-37212D03*
X53887Y-37409D03*
X53887Y-37015D03*
X55029Y-37409D03*
X55029Y-37212D03*
X55029Y-37015D03*
G54D29*
X54458Y-37704D03*
G54D30*
X52258Y-39494D03*
X52258Y-39691D03*
X52258Y-40085D03*
X52258Y-39888D03*
X53361Y-39888D03*
X53361Y-40085D03*
X53361Y-39691D03*
G54D31*
X52810Y-39790D03*
G54D30*
X53361Y-39494D03*
G54D32*
X61025Y-39085D03*
X61025Y-38574D03*
X61025Y-38830D03*
G54D10*
G36*
X51661Y-37988D02*
X51653Y-37773D01*
X51730Y-37728D01*
X51912Y-37843D01*
X51661Y-37988D01*
X51661Y-37988D01*
G37*
G36*
X51912Y-37443D02*
X51730Y-37558D01*
X51653Y-37513D01*
X51661Y-37298D01*
X51912Y-37443D01*
X51912Y-37443D01*
G37*
G36*
X51314Y-37498D02*
X51504Y-37598D01*
X51504Y-37688D01*
X51314Y-37788D01*
X51314Y-37498D01*
X51314Y-37498D01*
G37*
G54D33*
X62364Y-37655D03*
X63505Y-37655D03*
X55910Y-39940D03*
X54769Y-39940D03*
X48889Y-39970D03*
X50030Y-39970D03*
G54D34*
X50437Y-37003D03*
X49937Y-36629D03*
X50937Y-36629D03*
X50437Y-38814D03*
X49937Y-38440D03*
X50937Y-38440D03*
G54D26*
X55960Y-42040D03*
X62138Y-42538D03*
X55020Y-45350D03*
X54740Y-42400D03*
X62614Y-42094D03*
X62670Y-41328D03*
G54D35*
X61679Y-36065D03*
X61679Y-35868D03*
X61679Y-35475D03*
X61679Y-35672D03*
X61679Y-35278D03*
G54D36*
X62072Y-36459D03*
X62466Y-36459D03*
X62269Y-36459D03*
X62663Y-36459D03*
X62860Y-36459D03*
X62860Y-34884D03*
X62663Y-34884D03*
X62269Y-34884D03*
X62466Y-34884D03*
X62072Y-34884D03*
G54D35*
X63253Y-35278D03*
X63253Y-35672D03*
X63253Y-35475D03*
X63253Y-35868D03*
X63253Y-36065D03*
G54D37*
X62466Y-35672D03*
G54D38*
X58413Y-46193D03*
X58610Y-46193D03*
X59003Y-46193D03*
X58807Y-46193D03*
X59594Y-46193D03*
X59791Y-46193D03*
X59397Y-46193D03*
X59200Y-46193D03*
X57626Y-46193D03*
X57822Y-46193D03*
X58216Y-46193D03*
X58019Y-46193D03*
X57232Y-46193D03*
X57429Y-46193D03*
X57035Y-46193D03*
X56838Y-46193D03*
X56838Y-41666D03*
X57035Y-41666D03*
X57429Y-41666D03*
X57232Y-41666D03*
X58019Y-41666D03*
X58216Y-41666D03*
X57822Y-41666D03*
X57626Y-41666D03*
X59200Y-41666D03*
X59397Y-41666D03*
X59791Y-41666D03*
X59594Y-41666D03*
X58807Y-41666D03*
X59003Y-41666D03*
X58610Y-41666D03*
X58413Y-41666D03*
G54D39*
X60578Y-42453D03*
X60578Y-42650D03*
X60578Y-43044D03*
X60578Y-42847D03*
X60578Y-43634D03*
X60578Y-43831D03*
X60578Y-43437D03*
X60578Y-43241D03*
X60578Y-44815D03*
X60578Y-45012D03*
X60578Y-45406D03*
X60578Y-45209D03*
X60578Y-44422D03*
X60578Y-44618D03*
X60578Y-44225D03*
X60578Y-44028D03*
X56051Y-44028D03*
X56051Y-44225D03*
X56051Y-44618D03*
X56051Y-44422D03*
X56051Y-45209D03*
X56051Y-45406D03*
X56051Y-45012D03*
X56051Y-44815D03*
X56051Y-43241D03*
X56051Y-43437D03*
X56051Y-43831D03*
X56051Y-43634D03*
X56051Y-42847D03*
X56051Y-43044D03*
X56051Y-42650D03*
X56051Y-42453D03*
G54D40*
X62724Y-39488D03*
X62350Y-39488D03*
X61975Y-39488D03*
G54D41*
X62350Y-40000D03*
G54D40*
X61975Y-40511D03*
X62350Y-40511D03*
X62724Y-40511D03*
G54D26*
X55615Y-46375D03*
G54D27*
X55115Y-46375D03*
G54D42*
X62420Y-46678D03*
X62420Y-45221D03*
G54D43*
X64220Y-46768D03*
X56948Y-35096D03*
X48614Y-35096D03*
X53550Y-46768D03*
M02*
