M48
;DRILL file {Pcbnew (2013-may-18)-stable} date Tue 15 Oct 2013 04:41:03 PM EDT
;FORMAT={2:4/ absolute / inch / keep zeros}
FMAT,2
INCH,TZ
T1C0.012
T2C0.013
T3C0.028
T4C0.032
T5C0.034
T6C0.042
T7C0.045
T8C0.086
%
G90
G05
M72
T1
X062112Y-035318
X062112Y-035672
X062112Y-036026
X062467Y-035318
X062467Y-035672
X062467Y-036026
X062821Y-035318
X062821Y-035672
X062821Y-036026
T2
X048652Y-036534
X048740Y-037100
X048862Y-035776
X049620Y-035670
X050160Y-037690
X050570Y-036190
X050600Y-039334
X050610Y-040124
X050810Y-037900
X051068Y-035724
X051114Y-038994
X051190Y-036130
X051200Y-040210
X051362Y-040508
X051501Y-036079
X051760Y-040010
X052000Y-038180
X052270Y-038680
X052630Y-039170
X052720Y-040500
X052790Y-039950
X052860Y-039530
X052915Y-037600
X053200Y-038754
X053380Y-040610
X053560Y-037270
X053560Y-037930
X053620Y-037600
X053630Y-039354
X053800Y-036700
X053840Y-038120
X053960Y-040460
X054290Y-039055
X054300Y-039435
X054450Y-036280
X054515Y-038780
X054600Y-037070
X054860Y-035880
X055000Y-044305
X055115Y-043530
X055160Y-042740
X055180Y-036490
X055215Y-038855
X055295Y-044940
X055330Y-043260
X055380Y-037490
X055670Y-043690
X055680Y-037645
X055715Y-036160
X055715Y-045625
X055725Y-039170
X056058Y-035272
X056100Y-037340
X056160Y-045700
X056280Y-038885
X056320Y-038340
X056325Y-040045
X056350Y-039570
X056360Y-037390
X056410Y-044460
X056420Y-045075
X056430Y-043155
X056500Y-044125
X056710Y-043530
X056760Y-045925
X056840Y-044085
X056855Y-036780
X056875Y-035985
X056955Y-037425
X056955Y-038765
X057100Y-043700
X057810Y-041245
X058030Y-038750
X058060Y-036560
X058065Y-038415
X058100Y-039585
X058160Y-041155
X058285Y-040600
X058370Y-039360
X058550Y-041115
X059040Y-042970
X059075Y-041300
X059245Y-043550
X059275Y-039635
X059523Y-044760
X059590Y-039455
X059595Y-039105
X059610Y-043150
X059670Y-042720
X059680Y-045820
X059795Y-039810
X059910Y-043000
X060065Y-040370
X060075Y-045820
X060130Y-043882
X060150Y-044985
X060170Y-044635
X060230Y-042230
X060310Y-039105
X060320Y-040695
X060345Y-038325
X060420Y-040370
X060445Y-035285
X060485Y-046510
X060520Y-045868
X060570Y-041890
X060585Y-042260
X060885Y-041220
X060895Y-039540
X060960Y-040465
X060988Y-045986
X061000Y-042825
X061140Y-041495
X061230Y-036160
X061300Y-035425
X061330Y-040460
X061515Y-041170
X061565Y-036230
X061580Y-039560
X061720Y-036700
X062000Y-044490
X062105Y-039905
X062110Y-041506
X062190Y-042088
X062225Y-039095
X062310Y-044180
X062350Y-040090
X062435Y-034540
X062605Y-039905
X062608Y-043870
X062790Y-037360
X062820Y-037685
X062834Y-045986
X063044Y-042196
X063090Y-041040
X063140Y-044540
X063180Y-043312
X063254Y-034946
X063345Y-036575
X063398Y-045136
X063586Y-034928
X063736Y-042798
X064145Y-041210
X064358Y-042120
X064405Y-041435
X064560Y-041780
X064830Y-035400
X064840Y-034730
X064865Y-036700
X064865Y-038590
X064900Y-037645
T3
X050440Y-034940
X050940Y-034940
X053219Y-034937
X053719Y-034937
X054200Y-041680
X054700Y-041680
X054740Y-042400
X055020Y-045350
X055115Y-046375
X055615Y-046375
X055960Y-042040
X056625Y-047110
X057125Y-047110
X057625Y-047110
X058125Y-047110
X058625Y-047110
X058820Y-035010
X058820Y-035510
X059125Y-047110
X059816Y-035764
X059816Y-036264
X062138Y-042538
X062614Y-042094
X062670Y-041328
T4
X049938Y-036630
X049938Y-038441
X050438Y-037004
X050438Y-038815
X050938Y-036630
X050938Y-038441
T5
X054303Y-043126
X054303Y-045094
T6
X063652Y-039483
X063652Y-040483
T7
X053240Y-042732
X053240Y-045488
T8
X048614Y-035096
X053550Y-046768
X056948Y-035096
X064220Y-046768
T0
M30
