G04 (created by PCBNEW (2013-may-18)-stable) date Tue 15 Oct 2013 04:41:00 PM EDT*
%MOIN*%
G04 Gerber Fmt 3.4, Leading zero omitted, Abs format*
%FSLAX34Y34*%
G01*
G70*
G90*
G04 APERTURE LIST*
%ADD10C,0.00590551*%
%ADD11C,0.011811*%
%ADD12C,0.005*%
G04 APERTURE END LIST*
G54D10*
G54D11*
X64854Y-41158D02*
X64405Y-41158D01*
X64434Y-38322D02*
X63985Y-38322D01*
X64210Y-38547D02*
X64210Y-38097D01*
G54D10*
X49463Y-38037D02*
X49463Y-38785D01*
X48892Y-38037D02*
X48892Y-38785D01*
X55084Y-43054D02*
X55084Y-42306D01*
X55655Y-43054D02*
X55655Y-42306D01*
X58034Y-36435D02*
X57286Y-36435D01*
X58034Y-35864D02*
X57286Y-35864D01*
X64274Y-40314D02*
X64274Y-39566D01*
X64845Y-40314D02*
X64845Y-39566D01*
X54374Y-40825D02*
X53626Y-40825D01*
X54374Y-40254D02*
X53626Y-40254D01*
X56525Y-36445D02*
X56525Y-37193D01*
X55954Y-36445D02*
X55954Y-37193D01*
X54780Y-34800D02*
X54780Y-35548D01*
X54209Y-34800D02*
X54209Y-35548D01*
X61440Y-40115D02*
X61440Y-40863D01*
X60869Y-40115D02*
X60869Y-40863D01*
X64935Y-38923D02*
X64344Y-38923D01*
X64935Y-39336D02*
X64344Y-39336D01*
X61896Y-42085D02*
X61896Y-41494D01*
X61483Y-42085D02*
X61483Y-41494D01*
X55726Y-44625D02*
X55726Y-44034D01*
X55313Y-44625D02*
X55313Y-44034D01*
X62724Y-37034D02*
X63117Y-37034D01*
X62724Y-36739D02*
X63117Y-36739D01*
X61004Y-37316D02*
X61398Y-37316D01*
X61004Y-37021D02*
X61398Y-37021D01*
X62401Y-36742D02*
X62008Y-36742D01*
X62401Y-37037D02*
X62008Y-37037D01*
X61401Y-46502D02*
X61401Y-46109D01*
X61106Y-46502D02*
X61106Y-46109D01*
X61004Y-37631D02*
X61398Y-37631D01*
X61004Y-37336D02*
X61398Y-37336D01*
X61004Y-38261D02*
X61398Y-38261D01*
X61004Y-37966D02*
X61398Y-37966D01*
X61004Y-37946D02*
X61398Y-37946D01*
X61004Y-37651D02*
X61398Y-37651D01*
X58136Y-36752D02*
X57743Y-36752D01*
X58136Y-37047D02*
X57743Y-37047D01*
X60493Y-35837D02*
X60886Y-35837D01*
X60493Y-35542D02*
X60886Y-35542D01*
X57017Y-38768D02*
X57017Y-39161D01*
X57312Y-38768D02*
X57312Y-39161D01*
X59887Y-47346D02*
X59887Y-46953D01*
X59592Y-47346D02*
X59592Y-46953D01*
X63036Y-40742D02*
X62643Y-40742D01*
X63036Y-41037D02*
X62643Y-41037D01*
X53863Y-36297D02*
X54256Y-36297D01*
X53863Y-36002D02*
X54256Y-36002D01*
X51602Y-36776D02*
X51602Y-36383D01*
X51307Y-36776D02*
X51307Y-36383D01*
X62296Y-40742D02*
X61903Y-40742D01*
X62296Y-41037D02*
X61903Y-41037D01*
X62498Y-39257D02*
X62891Y-39257D01*
X62498Y-38962D02*
X62891Y-38962D01*
X61243Y-45512D02*
X61636Y-45512D01*
X61243Y-45217D02*
X61636Y-45217D01*
X60638Y-35432D02*
X61031Y-35432D01*
X60638Y-35137D02*
X61031Y-35137D01*
X61490Y-45713D02*
X61490Y-46106D01*
X61785Y-45713D02*
X61785Y-46106D01*
X51274Y-35527D02*
X51274Y-35921D01*
X51569Y-35527D02*
X51569Y-35921D01*
X61217Y-42646D02*
X61217Y-42253D01*
X60922Y-42646D02*
X60922Y-42253D01*
X55787Y-45406D02*
X55787Y-45013D01*
X55492Y-45406D02*
X55492Y-45013D01*
X60246Y-46457D02*
X59853Y-46457D01*
X60246Y-46752D02*
X59853Y-46752D01*
X48587Y-36639D02*
X48193Y-36639D01*
X48587Y-36935D02*
X48193Y-36935D01*
X56623Y-38217D02*
X57016Y-38217D01*
X56623Y-37922D02*
X57016Y-37922D01*
X56623Y-38532D02*
X57016Y-38532D01*
X56623Y-38237D02*
X57016Y-38237D01*
X55232Y-37973D02*
X55232Y-38366D01*
X55527Y-37973D02*
X55527Y-38366D01*
X53496Y-37452D02*
X53103Y-37452D01*
X53496Y-37747D02*
X53103Y-37747D01*
X53267Y-38456D02*
X53267Y-38063D01*
X52972Y-38456D02*
X52972Y-38063D01*
X53567Y-38456D02*
X53567Y-38063D01*
X53272Y-38456D02*
X53272Y-38063D01*
X52672Y-38063D02*
X52672Y-38456D01*
X52967Y-38063D02*
X52967Y-38456D01*
X52982Y-36723D02*
X52982Y-37116D01*
X53277Y-36723D02*
X53277Y-37116D01*
X53287Y-36723D02*
X53287Y-37116D01*
X53582Y-36723D02*
X53582Y-37116D01*
X53083Y-36587D02*
X53476Y-36587D01*
X53083Y-36292D02*
X53476Y-36292D01*
X55837Y-38366D02*
X55837Y-37973D01*
X55542Y-38366D02*
X55542Y-37973D01*
X48587Y-36246D02*
X48193Y-36246D01*
X48587Y-36541D02*
X48193Y-36541D01*
X48902Y-36541D02*
X49296Y-36541D01*
X48902Y-36246D02*
X49296Y-36246D01*
X49256Y-36147D02*
X49650Y-36147D01*
X49256Y-35852D02*
X49650Y-35852D01*
X51085Y-39884D02*
X51085Y-39491D01*
X50790Y-39884D02*
X50790Y-39491D01*
X55842Y-37973D02*
X55842Y-38366D01*
X56137Y-37973D02*
X56137Y-38366D01*
X52057Y-40341D02*
X52057Y-39948D01*
X51762Y-40341D02*
X51762Y-39948D01*
X51448Y-39947D02*
X51448Y-40340D01*
X51743Y-39947D02*
X51743Y-40340D01*
X52057Y-39676D02*
X52057Y-39283D01*
X51762Y-39676D02*
X51762Y-39283D01*
X51752Y-39676D02*
X51752Y-39283D01*
X51457Y-39676D02*
X51457Y-39283D01*
X51152Y-39283D02*
X51152Y-39676D01*
X51447Y-39283D02*
X51447Y-39676D01*
X51472Y-34793D02*
X51472Y-35186D01*
X51767Y-34793D02*
X51767Y-35186D01*
X55243Y-35307D02*
X55636Y-35307D01*
X55243Y-35012D02*
X55636Y-35012D01*
X55381Y-35417D02*
X54988Y-35417D01*
X55381Y-35712D02*
X54988Y-35712D01*
X56623Y-37902D02*
X57016Y-37902D01*
X56623Y-37607D02*
X57016Y-37607D01*
X57202Y-38048D02*
X57202Y-38441D01*
X57497Y-38048D02*
X57497Y-38441D01*
X57202Y-37388D02*
X57202Y-37781D01*
X57497Y-37388D02*
X57497Y-37781D01*
X55863Y-37757D02*
X56256Y-37757D01*
X55863Y-37462D02*
X56256Y-37462D01*
X55937Y-37186D02*
X55937Y-36793D01*
X55642Y-37186D02*
X55642Y-36793D01*
X55272Y-36793D02*
X55272Y-37186D01*
X55567Y-36793D02*
X55567Y-37186D01*
X54988Y-36017D02*
X55381Y-36017D01*
X54988Y-35722D02*
X55381Y-35722D01*
X51883Y-40842D02*
X52276Y-40842D01*
X51883Y-40547D02*
X52276Y-40547D01*
X49296Y-36639D02*
X48902Y-36639D01*
X49296Y-36935D02*
X48902Y-36935D01*
X49935Y-35566D02*
X49935Y-35960D01*
X50231Y-35566D02*
X50231Y-35960D01*
X53976Y-38804D02*
X53583Y-38804D01*
X53976Y-39099D02*
X53583Y-39099D01*
X51737Y-38573D02*
X51737Y-38966D01*
X52032Y-38573D02*
X52032Y-38966D01*
X53837Y-40072D02*
X53837Y-39679D01*
X53542Y-40072D02*
X53542Y-39679D01*
X53848Y-39679D02*
X53848Y-40072D01*
X54143Y-39679D02*
X54143Y-40072D01*
X50437Y-35753D02*
X50831Y-35753D01*
X50437Y-35458D02*
X50831Y-35458D01*
X61502Y-42433D02*
X61502Y-42826D01*
X61797Y-42433D02*
X61797Y-42826D01*
X58519Y-37455D02*
G75*
G03X58519Y-37455I-141J0D01*
G74*
G01*
X60267Y-37160D02*
X60267Y-40979D01*
X60267Y-40979D02*
X58062Y-40979D01*
X58062Y-40979D02*
X58062Y-37160D01*
X58062Y-37160D02*
X60267Y-37160D01*
X64052Y-40883D02*
X64052Y-40113D01*
X64092Y-40883D02*
X63202Y-40883D01*
X64072Y-40093D02*
X64072Y-40903D01*
X63252Y-40093D02*
X63252Y-40903D01*
X63202Y-40033D02*
X64102Y-40033D01*
X64102Y-40033D02*
X64102Y-40083D01*
X64102Y-40083D02*
X63202Y-40083D01*
X63202Y-40933D02*
X63202Y-39013D01*
X63202Y-39013D02*
X64122Y-39013D01*
X64122Y-39013D02*
X64122Y-40933D01*
X64122Y-40933D02*
X63202Y-40933D01*
X50690Y-35190D02*
X50190Y-35190D01*
X50190Y-34690D02*
X50690Y-34690D01*
X50690Y-34640D02*
X50190Y-34640D01*
X50190Y-34590D02*
X50690Y-34590D01*
X50690Y-35240D02*
X50190Y-35240D01*
X50190Y-35290D02*
X50640Y-35290D01*
X50190Y-34540D02*
X50190Y-35340D01*
X50090Y-35340D02*
X50090Y-34540D01*
X50690Y-34540D02*
X50690Y-35340D01*
X50140Y-34540D02*
X50140Y-35340D01*
X50040Y-34540D02*
X51340Y-34540D01*
X51340Y-34540D02*
X51340Y-35340D01*
X51340Y-35340D02*
X50040Y-35340D01*
X50040Y-35340D02*
X50040Y-34540D01*
X53469Y-35187D02*
X52969Y-35187D01*
X52969Y-34687D02*
X53469Y-34687D01*
X53469Y-34637D02*
X52969Y-34637D01*
X52969Y-34587D02*
X53469Y-34587D01*
X53469Y-35237D02*
X52969Y-35237D01*
X52969Y-35287D02*
X53419Y-35287D01*
X52969Y-34537D02*
X52969Y-35337D01*
X52869Y-35337D02*
X52869Y-34537D01*
X53469Y-34537D02*
X53469Y-35337D01*
X52919Y-34537D02*
X52919Y-35337D01*
X52819Y-34537D02*
X54119Y-34537D01*
X54119Y-34537D02*
X54119Y-35337D01*
X54119Y-35337D02*
X52819Y-35337D01*
X52819Y-35337D02*
X52819Y-34537D01*
X60066Y-36014D02*
X60066Y-36514D01*
X59566Y-36514D02*
X59566Y-36014D01*
X59516Y-36014D02*
X59516Y-36514D01*
X59466Y-36514D02*
X59466Y-36014D01*
X60116Y-36014D02*
X60116Y-36514D01*
X60166Y-36514D02*
X60166Y-36064D01*
X59416Y-36514D02*
X60216Y-36514D01*
X60216Y-36614D02*
X59416Y-36614D01*
X59416Y-36014D02*
X60216Y-36014D01*
X59416Y-36564D02*
X60216Y-36564D01*
X59416Y-36664D02*
X59416Y-35364D01*
X59416Y-35364D02*
X60216Y-35364D01*
X60216Y-35364D02*
X60216Y-36664D01*
X60216Y-36664D02*
X59416Y-36664D01*
X58570Y-35260D02*
X58570Y-34760D01*
X59070Y-34760D02*
X59070Y-35260D01*
X59120Y-35260D02*
X59120Y-34760D01*
X59170Y-34760D02*
X59170Y-35260D01*
X58520Y-35260D02*
X58520Y-34760D01*
X58470Y-34760D02*
X58470Y-35210D01*
X59220Y-34760D02*
X58420Y-34760D01*
X58420Y-34660D02*
X59220Y-34660D01*
X59220Y-35260D02*
X58420Y-35260D01*
X59220Y-34710D02*
X58420Y-34710D01*
X59220Y-34610D02*
X59220Y-35910D01*
X59220Y-35910D02*
X58420Y-35910D01*
X58420Y-35910D02*
X58420Y-34610D01*
X58420Y-34610D02*
X59220Y-34610D01*
X54450Y-41930D02*
X53950Y-41930D01*
X53950Y-41430D02*
X54450Y-41430D01*
X54450Y-41380D02*
X53950Y-41380D01*
X53950Y-41330D02*
X54450Y-41330D01*
X54450Y-41980D02*
X53950Y-41980D01*
X53950Y-42030D02*
X54400Y-42030D01*
X53950Y-41280D02*
X53950Y-42080D01*
X53850Y-42080D02*
X53850Y-41280D01*
X54450Y-41280D02*
X54450Y-42080D01*
X53900Y-41280D02*
X53900Y-42080D01*
X53800Y-41280D02*
X55100Y-41280D01*
X55100Y-41280D02*
X55100Y-42080D01*
X55100Y-42080D02*
X53800Y-42080D01*
X53800Y-42080D02*
X53800Y-41280D01*
X58875Y-46860D02*
X59375Y-46860D01*
X59375Y-47360D02*
X58875Y-47360D01*
X58875Y-47410D02*
X59375Y-47410D01*
X59375Y-47460D02*
X58875Y-47460D01*
X58875Y-46810D02*
X59375Y-46810D01*
X59375Y-46760D02*
X58925Y-46760D01*
X59375Y-47510D02*
X59375Y-46710D01*
X59475Y-46710D02*
X59475Y-47510D01*
X58875Y-47510D02*
X58875Y-46710D01*
X59425Y-47510D02*
X59425Y-46710D01*
X59525Y-47510D02*
X56225Y-47510D01*
X56225Y-47510D02*
X56225Y-46710D01*
X56225Y-46710D02*
X59525Y-46710D01*
X59525Y-46710D02*
X59525Y-47510D01*
X54192Y-36523D02*
G75*
G03X54192Y-36523I-88J0D01*
G74*
G01*
X55049Y-36720D02*
X53868Y-36720D01*
X53868Y-36720D02*
X53868Y-38689D01*
X53868Y-38689D02*
X55049Y-38689D01*
X55049Y-38689D02*
X55049Y-36720D01*
X52554Y-38982D02*
G75*
G03X52554Y-38982I-98J0D01*
G74*
G01*
X53400Y-39199D02*
X53400Y-40380D01*
X53400Y-40380D02*
X52219Y-40380D01*
X52219Y-40380D02*
X52219Y-39199D01*
X52219Y-39199D02*
X53400Y-39199D01*
X61221Y-38436D02*
X61221Y-39223D01*
X61221Y-39223D02*
X60828Y-39223D01*
X60828Y-39223D02*
X60828Y-38436D01*
X60828Y-38436D02*
X61221Y-38436D01*
X63105Y-38195D02*
X63105Y-37125D01*
X63105Y-37125D02*
X63055Y-37125D01*
X63055Y-37125D02*
X63055Y-38195D01*
X63055Y-38195D02*
X63005Y-38195D01*
X63005Y-38195D02*
X63005Y-37125D01*
X63155Y-38195D02*
X63155Y-37115D01*
X63155Y-37115D02*
X63205Y-37115D01*
X63205Y-37115D02*
X63205Y-38195D01*
X63205Y-38195D02*
X63255Y-38195D01*
X63255Y-38195D02*
X63255Y-37115D01*
X63255Y-37115D02*
X63305Y-37115D01*
X63305Y-37115D02*
X63305Y-38195D01*
X63505Y-38196D02*
X62364Y-38196D01*
X63505Y-37113D02*
X62364Y-37113D01*
X55170Y-39400D02*
X55170Y-40470D01*
X55170Y-40470D02*
X55220Y-40470D01*
X55220Y-40470D02*
X55220Y-39400D01*
X55220Y-39400D02*
X55270Y-39400D01*
X55270Y-39400D02*
X55270Y-40470D01*
X55120Y-39400D02*
X55120Y-40480D01*
X55120Y-40480D02*
X55070Y-40480D01*
X55070Y-40480D02*
X55070Y-39400D01*
X55070Y-39400D02*
X55020Y-39400D01*
X55020Y-39400D02*
X55020Y-40480D01*
X55020Y-40480D02*
X54970Y-40480D01*
X54970Y-40480D02*
X54970Y-39400D01*
X54769Y-39398D02*
X55910Y-39398D01*
X54769Y-40481D02*
X55910Y-40481D01*
X49630Y-40510D02*
X49630Y-39440D01*
X49630Y-39440D02*
X49580Y-39440D01*
X49580Y-39440D02*
X49580Y-40510D01*
X49580Y-40510D02*
X49530Y-40510D01*
X49530Y-40510D02*
X49530Y-39440D01*
X49680Y-40510D02*
X49680Y-39430D01*
X49680Y-39430D02*
X49730Y-39430D01*
X49730Y-39430D02*
X49730Y-40510D01*
X49730Y-40510D02*
X49780Y-40510D01*
X49780Y-40510D02*
X49780Y-39430D01*
X49780Y-39430D02*
X49830Y-39430D01*
X49830Y-39430D02*
X49830Y-40510D01*
X50030Y-40511D02*
X48889Y-40511D01*
X50030Y-39428D02*
X48889Y-39428D01*
X51157Y-36189D02*
X51339Y-36629D01*
X49727Y-36189D02*
X49536Y-36629D01*
X51339Y-36629D02*
G75*
G02X49536Y-36629I-901J0D01*
G74*
G01*
X51146Y-36189D02*
X49729Y-36189D01*
X51157Y-38000D02*
X51339Y-38440D01*
X49727Y-38000D02*
X49536Y-38440D01*
X51339Y-38440D02*
G75*
G02X49536Y-38440I-901J0D01*
G74*
G01*
X51146Y-38000D02*
X49729Y-38000D01*
X63253Y-36459D02*
X61679Y-36459D01*
X61679Y-36459D02*
X61679Y-34884D01*
X61679Y-34884D02*
X63253Y-34884D01*
X63253Y-34884D02*
X63253Y-36459D01*
X63549Y-36656D02*
G75*
G03X63549Y-36656I-98J0D01*
G74*
G01*
X57058Y-42453D02*
G75*
G03X57058Y-42453I-220J0D01*
G74*
G01*
X56346Y-41961D02*
X60283Y-41961D01*
X60283Y-41961D02*
X60283Y-45898D01*
X60283Y-45898D02*
X56346Y-45898D01*
X56346Y-45898D02*
X56346Y-41961D01*
X61661Y-40669D02*
G75*
G03X61661Y-40669I-98J0D01*
G74*
G01*
X61779Y-39350D02*
X62920Y-39350D01*
X62920Y-39350D02*
X62920Y-40649D01*
X62920Y-40649D02*
X61779Y-40649D01*
X61779Y-40649D02*
X61779Y-39350D01*
X55365Y-46625D02*
X54865Y-46625D01*
X54865Y-46125D02*
X55365Y-46125D01*
X55365Y-46075D02*
X54865Y-46075D01*
X54865Y-46025D02*
X55365Y-46025D01*
X55365Y-46675D02*
X54865Y-46675D01*
X54865Y-46725D02*
X55315Y-46725D01*
X54865Y-45975D02*
X54865Y-46775D01*
X54765Y-46775D02*
X54765Y-45975D01*
X55365Y-45975D02*
X55365Y-46775D01*
X54815Y-45975D02*
X54815Y-46775D01*
X54715Y-45975D02*
X56015Y-45975D01*
X56015Y-45975D02*
X56015Y-46775D01*
X56015Y-46775D02*
X54715Y-46775D01*
X54715Y-46775D02*
X54715Y-45975D01*
X62912Y-44965D02*
X62912Y-46934D01*
X62912Y-46934D02*
X61927Y-46934D01*
X61927Y-46934D02*
X61927Y-44965D01*
X61927Y-44965D02*
X62912Y-44965D01*
X54519Y-45094D02*
G75*
G03X54519Y-45094I-216J0D01*
G74*
G01*
X53525Y-45488D02*
G75*
G03X53525Y-45488I-285J0D01*
G74*
G01*
X53525Y-42732D02*
G75*
G03X53525Y-42732I-285J0D01*
G74*
G01*
X54519Y-43126D02*
G75*
G03X54519Y-43126I-216J0D01*
G74*
G01*
X63972Y-39483D02*
G75*
G03X63972Y-39483I-320J0D01*
G74*
G01*
X63331Y-40162D02*
X63331Y-40803D01*
X63972Y-40803D01*
X63972Y-40162D01*
X63331Y-40162D01*
X51110Y-34940D02*
G75*
G03X51110Y-34940I-170J0D01*
G74*
G01*
X50269Y-34769D02*
X50269Y-35110D01*
X50610Y-35110D01*
X50610Y-34769D01*
X50269Y-34769D01*
X53889Y-34937D02*
G75*
G03X53889Y-34937I-170J0D01*
G74*
G01*
X53048Y-34766D02*
X53048Y-35107D01*
X53389Y-35107D01*
X53389Y-34766D01*
X53048Y-34766D01*
X59986Y-35764D02*
G75*
G03X59986Y-35764I-170J0D01*
G74*
G01*
X59645Y-36093D02*
X59645Y-36434D01*
X59986Y-36434D01*
X59986Y-36093D01*
X59645Y-36093D01*
X58990Y-35510D02*
G75*
G03X58990Y-35510I-170J0D01*
G74*
G01*
X58649Y-34839D02*
X58649Y-35180D01*
X58990Y-35180D01*
X58990Y-34839D01*
X58649Y-34839D01*
X54870Y-41680D02*
G75*
G03X54870Y-41680I-170J0D01*
G74*
G01*
X54029Y-41509D02*
X54029Y-41850D01*
X54370Y-41850D01*
X54370Y-41509D01*
X54029Y-41509D01*
X56795Y-47110D02*
G75*
G03X56795Y-47110I-170J0D01*
G74*
G01*
X57295Y-47110D02*
G75*
G03X57295Y-47110I-170J0D01*
G74*
G01*
X58295Y-47110D02*
G75*
G03X58295Y-47110I-170J0D01*
G74*
G01*
X57795Y-47110D02*
G75*
G03X57795Y-47110I-170J0D01*
G74*
G01*
X58795Y-47110D02*
G75*
G03X58795Y-47110I-170J0D01*
G74*
G01*
X58954Y-46939D02*
X58954Y-47280D01*
X59295Y-47280D01*
X59295Y-46939D01*
X58954Y-46939D01*
X50683Y-37003D02*
G75*
G03X50683Y-37003I-245J0D01*
G74*
G01*
X50183Y-36629D02*
G75*
G03X50183Y-36629I-245J0D01*
G74*
G01*
X51183Y-36629D02*
G75*
G03X51183Y-36629I-245J0D01*
G74*
G01*
X50683Y-38814D02*
G75*
G03X50683Y-38814I-245J0D01*
G74*
G01*
X50183Y-38440D02*
G75*
G03X50183Y-38440I-245J0D01*
G74*
G01*
X51183Y-38440D02*
G75*
G03X51183Y-38440I-245J0D01*
G74*
G01*
X56130Y-42040D02*
G75*
G03X56130Y-42040I-170J0D01*
G74*
G01*
X62308Y-42538D02*
G75*
G03X62308Y-42538I-170J0D01*
G74*
G01*
X55190Y-45350D02*
G75*
G03X55190Y-45350I-170J0D01*
G74*
G01*
X54910Y-42400D02*
G75*
G03X54910Y-42400I-170J0D01*
G74*
G01*
X62784Y-42094D02*
G75*
G03X62784Y-42094I-170J0D01*
G74*
G01*
X62840Y-41328D02*
G75*
G03X62840Y-41328I-170J0D01*
G74*
G01*
X55785Y-46375D02*
G75*
G03X55785Y-46375I-170J0D01*
G74*
G01*
X54944Y-46204D02*
X54944Y-46545D01*
X55285Y-46545D01*
X55285Y-46204D01*
X54944Y-46204D01*
X64620Y-46768D02*
G75*
G03X64620Y-46768I-400J0D01*
G74*
G01*
X57348Y-35096D02*
G75*
G03X57348Y-35096I-400J0D01*
G74*
G01*
X49014Y-35096D02*
G75*
G03X49014Y-35096I-400J0D01*
G74*
G01*
X53950Y-46768D02*
G75*
G03X53950Y-46768I-400J0D01*
G74*
G01*
G54D12*
X48756Y-38628D02*
X48766Y-38638D01*
X48775Y-38666D01*
X48775Y-38685D01*
X48766Y-38714D01*
X48747Y-38733D01*
X48728Y-38743D01*
X48690Y-38752D01*
X48661Y-38752D01*
X48623Y-38743D01*
X48604Y-38733D01*
X48585Y-38714D01*
X48575Y-38685D01*
X48575Y-38666D01*
X48585Y-38638D01*
X48595Y-38628D01*
X48595Y-38552D02*
X48585Y-38543D01*
X48575Y-38524D01*
X48575Y-38476D01*
X48585Y-38457D01*
X48595Y-38447D01*
X48614Y-38438D01*
X48633Y-38438D01*
X48661Y-38447D01*
X48775Y-38562D01*
X48775Y-38438D01*
X48575Y-38314D02*
X48575Y-38295D01*
X48585Y-38276D01*
X48595Y-38266D01*
X48614Y-38257D01*
X48652Y-38247D01*
X48699Y-38247D01*
X48737Y-38257D01*
X48756Y-38266D01*
X48766Y-38276D01*
X48775Y-38295D01*
X48775Y-38314D01*
X48766Y-38333D01*
X48756Y-38343D01*
X48737Y-38352D01*
X48699Y-38362D01*
X48652Y-38362D01*
X48614Y-38352D01*
X48595Y-38343D01*
X48585Y-38333D01*
X48575Y-38314D01*
X48575Y-38181D02*
X48575Y-38057D01*
X48652Y-38124D01*
X48652Y-38095D01*
X48661Y-38076D01*
X48671Y-38066D01*
X48690Y-38057D01*
X48737Y-38057D01*
X48756Y-38066D01*
X48766Y-38076D01*
X48775Y-38095D01*
X48775Y-38152D01*
X48766Y-38171D01*
X48756Y-38181D01*
X54981Y-43273D02*
X54991Y-43283D01*
X55000Y-43311D01*
X55000Y-43330D01*
X54991Y-43359D01*
X54972Y-43378D01*
X54953Y-43388D01*
X54915Y-43397D01*
X54886Y-43397D01*
X54848Y-43388D01*
X54829Y-43378D01*
X54810Y-43359D01*
X54800Y-43330D01*
X54800Y-43311D01*
X54810Y-43283D01*
X54820Y-43273D01*
X54800Y-43092D02*
X54800Y-43188D01*
X54896Y-43197D01*
X54886Y-43188D01*
X54877Y-43169D01*
X54877Y-43121D01*
X54886Y-43102D01*
X54896Y-43092D01*
X54915Y-43083D01*
X54962Y-43083D01*
X54981Y-43092D01*
X54991Y-43102D01*
X55000Y-43121D01*
X55000Y-43169D01*
X54991Y-43188D01*
X54981Y-43197D01*
X54800Y-42959D02*
X54800Y-42940D01*
X54810Y-42921D01*
X54820Y-42911D01*
X54839Y-42902D01*
X54877Y-42892D01*
X54924Y-42892D01*
X54962Y-42902D01*
X54981Y-42911D01*
X54991Y-42921D01*
X55000Y-42940D01*
X55000Y-42959D01*
X54991Y-42978D01*
X54981Y-42988D01*
X54962Y-42997D01*
X54924Y-43007D01*
X54877Y-43007D01*
X54839Y-42997D01*
X54820Y-42988D01*
X54810Y-42978D01*
X54800Y-42959D01*
X55000Y-42797D02*
X55000Y-42759D01*
X54991Y-42740D01*
X54981Y-42730D01*
X54953Y-42711D01*
X54915Y-42702D01*
X54839Y-42702D01*
X54820Y-42711D01*
X54810Y-42721D01*
X54800Y-42740D01*
X54800Y-42778D01*
X54810Y-42797D01*
X54820Y-42807D01*
X54839Y-42816D01*
X54886Y-42816D01*
X54905Y-42807D01*
X54915Y-42797D01*
X54924Y-42778D01*
X54924Y-42740D01*
X54915Y-42721D01*
X54905Y-42711D01*
X54886Y-42702D01*
X57446Y-35751D02*
X57436Y-35761D01*
X57408Y-35770D01*
X57389Y-35770D01*
X57360Y-35761D01*
X57341Y-35742D01*
X57331Y-35723D01*
X57322Y-35685D01*
X57322Y-35656D01*
X57331Y-35618D01*
X57341Y-35599D01*
X57360Y-35580D01*
X57389Y-35570D01*
X57408Y-35570D01*
X57436Y-35580D01*
X57446Y-35590D01*
X57512Y-35570D02*
X57636Y-35570D01*
X57569Y-35647D01*
X57598Y-35647D01*
X57617Y-35656D01*
X57627Y-35666D01*
X57636Y-35685D01*
X57636Y-35732D01*
X57627Y-35751D01*
X57617Y-35761D01*
X57598Y-35770D01*
X57541Y-35770D01*
X57522Y-35761D01*
X57512Y-35751D01*
X57760Y-35570D02*
X57779Y-35570D01*
X57798Y-35580D01*
X57808Y-35590D01*
X57817Y-35609D01*
X57827Y-35647D01*
X57827Y-35694D01*
X57817Y-35732D01*
X57808Y-35751D01*
X57798Y-35761D01*
X57779Y-35770D01*
X57760Y-35770D01*
X57741Y-35761D01*
X57731Y-35751D01*
X57722Y-35732D01*
X57712Y-35694D01*
X57712Y-35647D01*
X57722Y-35609D01*
X57731Y-35590D01*
X57741Y-35580D01*
X57760Y-35570D01*
X57893Y-35570D02*
X58017Y-35570D01*
X57950Y-35647D01*
X57979Y-35647D01*
X57998Y-35656D01*
X58008Y-35666D01*
X58017Y-35685D01*
X58017Y-35732D01*
X58008Y-35751D01*
X57998Y-35761D01*
X57979Y-35770D01*
X57922Y-35770D01*
X57903Y-35761D01*
X57893Y-35751D01*
X64331Y-40766D02*
X64321Y-40776D01*
X64293Y-40785D01*
X64274Y-40785D01*
X64245Y-40776D01*
X64226Y-40757D01*
X64216Y-40738D01*
X64207Y-40700D01*
X64207Y-40671D01*
X64216Y-40633D01*
X64226Y-40614D01*
X64245Y-40595D01*
X64274Y-40585D01*
X64293Y-40585D01*
X64321Y-40595D01*
X64331Y-40605D01*
X64502Y-40585D02*
X64464Y-40585D01*
X64445Y-40595D01*
X64435Y-40605D01*
X64416Y-40633D01*
X64407Y-40671D01*
X64407Y-40747D01*
X64416Y-40766D01*
X64426Y-40776D01*
X64445Y-40785D01*
X64483Y-40785D01*
X64502Y-40776D01*
X64512Y-40766D01*
X64521Y-40747D01*
X64521Y-40700D01*
X64512Y-40681D01*
X64502Y-40671D01*
X64483Y-40662D01*
X64445Y-40662D01*
X64426Y-40671D01*
X64416Y-40681D01*
X64407Y-40700D01*
X64645Y-40585D02*
X64664Y-40585D01*
X64683Y-40595D01*
X64693Y-40605D01*
X64702Y-40624D01*
X64712Y-40662D01*
X64712Y-40709D01*
X64702Y-40747D01*
X64693Y-40766D01*
X64683Y-40776D01*
X64664Y-40785D01*
X64645Y-40785D01*
X64626Y-40776D01*
X64616Y-40766D01*
X64607Y-40747D01*
X64597Y-40709D01*
X64597Y-40662D01*
X64607Y-40624D01*
X64616Y-40605D01*
X64626Y-40595D01*
X64645Y-40585D01*
X64902Y-40785D02*
X64788Y-40785D01*
X64845Y-40785D02*
X64845Y-40585D01*
X64826Y-40614D01*
X64807Y-40633D01*
X64788Y-40643D01*
X53756Y-41116D02*
X53746Y-41126D01*
X53718Y-41135D01*
X53699Y-41135D01*
X53670Y-41126D01*
X53651Y-41107D01*
X53641Y-41088D01*
X53632Y-41050D01*
X53632Y-41021D01*
X53641Y-40983D01*
X53651Y-40964D01*
X53670Y-40945D01*
X53699Y-40935D01*
X53718Y-40935D01*
X53746Y-40945D01*
X53756Y-40955D01*
X53832Y-40955D02*
X53841Y-40945D01*
X53860Y-40935D01*
X53908Y-40935D01*
X53927Y-40945D01*
X53937Y-40955D01*
X53946Y-40974D01*
X53946Y-40993D01*
X53937Y-41021D01*
X53822Y-41135D01*
X53946Y-41135D01*
X54070Y-40935D02*
X54089Y-40935D01*
X54108Y-40945D01*
X54118Y-40955D01*
X54127Y-40974D01*
X54137Y-41012D01*
X54137Y-41059D01*
X54127Y-41097D01*
X54118Y-41116D01*
X54108Y-41126D01*
X54089Y-41135D01*
X54070Y-41135D01*
X54051Y-41126D01*
X54041Y-41116D01*
X54032Y-41097D01*
X54022Y-41059D01*
X54022Y-41012D01*
X54032Y-40974D01*
X54041Y-40955D01*
X54051Y-40945D01*
X54070Y-40935D01*
X54308Y-41002D02*
X54308Y-41135D01*
X54260Y-40926D02*
X54213Y-41069D01*
X54337Y-41069D01*
X56785Y-37021D02*
X56795Y-37031D01*
X56804Y-37059D01*
X56804Y-37078D01*
X56795Y-37107D01*
X56776Y-37126D01*
X56757Y-37136D01*
X56719Y-37145D01*
X56690Y-37145D01*
X56652Y-37136D01*
X56633Y-37126D01*
X56614Y-37107D01*
X56604Y-37078D01*
X56604Y-37059D01*
X56614Y-37031D01*
X56624Y-37021D01*
X56624Y-36945D02*
X56614Y-36936D01*
X56604Y-36917D01*
X56604Y-36869D01*
X56614Y-36850D01*
X56624Y-36840D01*
X56643Y-36831D01*
X56662Y-36831D01*
X56690Y-36840D01*
X56804Y-36955D01*
X56804Y-36831D01*
X56624Y-36755D02*
X56614Y-36745D01*
X56604Y-36726D01*
X56604Y-36678D01*
X56614Y-36659D01*
X56624Y-36650D01*
X56643Y-36640D01*
X56662Y-36640D01*
X56690Y-36650D01*
X56804Y-36764D01*
X56804Y-36640D01*
X56804Y-36450D02*
X56804Y-36564D01*
X56804Y-36507D02*
X56604Y-36507D01*
X56633Y-36526D01*
X56652Y-36545D01*
X56662Y-36564D01*
X53546Y-35591D02*
X53536Y-35601D01*
X53508Y-35610D01*
X53489Y-35610D01*
X53460Y-35601D01*
X53441Y-35582D01*
X53431Y-35563D01*
X53422Y-35525D01*
X53422Y-35496D01*
X53431Y-35458D01*
X53441Y-35439D01*
X53460Y-35420D01*
X53489Y-35410D01*
X53508Y-35410D01*
X53536Y-35420D01*
X53546Y-35430D01*
X53622Y-35430D02*
X53631Y-35420D01*
X53650Y-35410D01*
X53698Y-35410D01*
X53717Y-35420D01*
X53727Y-35430D01*
X53736Y-35449D01*
X53736Y-35468D01*
X53727Y-35496D01*
X53612Y-35610D01*
X53736Y-35610D01*
X53927Y-35610D02*
X53812Y-35610D01*
X53870Y-35610D02*
X53870Y-35410D01*
X53850Y-35439D01*
X53831Y-35458D01*
X53812Y-35468D01*
X53993Y-35410D02*
X54127Y-35410D01*
X54041Y-35610D01*
X61612Y-40417D02*
X61612Y-40483D01*
X61716Y-40483D02*
X61516Y-40483D01*
X61516Y-40388D01*
X61612Y-40245D02*
X61621Y-40217D01*
X61631Y-40207D01*
X61650Y-40198D01*
X61678Y-40198D01*
X61697Y-40207D01*
X61707Y-40217D01*
X61716Y-40236D01*
X61716Y-40312D01*
X61516Y-40312D01*
X61516Y-40245D01*
X61526Y-40226D01*
X61536Y-40217D01*
X61555Y-40207D01*
X61574Y-40207D01*
X61593Y-40217D01*
X61602Y-40226D01*
X61612Y-40245D01*
X61612Y-40312D01*
X61516Y-40026D02*
X61516Y-40064D01*
X61526Y-40083D01*
X61536Y-40093D01*
X61564Y-40112D01*
X61602Y-40121D01*
X61678Y-40121D01*
X61697Y-40112D01*
X61707Y-40102D01*
X61716Y-40083D01*
X61716Y-40045D01*
X61707Y-40026D01*
X61697Y-40017D01*
X61678Y-40007D01*
X61631Y-40007D01*
X61612Y-40017D01*
X61602Y-40026D01*
X61593Y-40045D01*
X61593Y-40083D01*
X61602Y-40102D01*
X61612Y-40112D01*
X61631Y-40121D01*
X61516Y-39883D02*
X61516Y-39864D01*
X61526Y-39845D01*
X61536Y-39836D01*
X61555Y-39826D01*
X61593Y-39817D01*
X61640Y-39817D01*
X61678Y-39826D01*
X61697Y-39836D01*
X61707Y-39845D01*
X61716Y-39864D01*
X61716Y-39883D01*
X61707Y-39902D01*
X61697Y-39912D01*
X61678Y-39921D01*
X61640Y-39931D01*
X61593Y-39931D01*
X61555Y-39921D01*
X61536Y-39912D01*
X61526Y-39902D01*
X61516Y-39883D01*
X61716Y-39626D02*
X61716Y-39740D01*
X61716Y-39683D02*
X61516Y-39683D01*
X61545Y-39702D01*
X61564Y-39721D01*
X61574Y-39740D01*
X64251Y-38861D02*
X64241Y-38871D01*
X64213Y-38880D01*
X64194Y-38880D01*
X64165Y-38871D01*
X64146Y-38852D01*
X64136Y-38833D01*
X64127Y-38795D01*
X64127Y-38766D01*
X64136Y-38728D01*
X64146Y-38709D01*
X64165Y-38690D01*
X64194Y-38680D01*
X64213Y-38680D01*
X64241Y-38690D01*
X64251Y-38700D01*
X64422Y-38680D02*
X64384Y-38680D01*
X64365Y-38690D01*
X64355Y-38700D01*
X64336Y-38728D01*
X64327Y-38766D01*
X64327Y-38842D01*
X64336Y-38861D01*
X64346Y-38871D01*
X64365Y-38880D01*
X64403Y-38880D01*
X64422Y-38871D01*
X64432Y-38861D01*
X64441Y-38842D01*
X64441Y-38795D01*
X64432Y-38776D01*
X64422Y-38766D01*
X64403Y-38757D01*
X64365Y-38757D01*
X64346Y-38766D01*
X64336Y-38776D01*
X64327Y-38795D01*
X64565Y-38680D02*
X64584Y-38680D01*
X64603Y-38690D01*
X64613Y-38700D01*
X64622Y-38719D01*
X64632Y-38757D01*
X64632Y-38804D01*
X64622Y-38842D01*
X64613Y-38861D01*
X64603Y-38871D01*
X64584Y-38880D01*
X64565Y-38880D01*
X64546Y-38871D01*
X64536Y-38861D01*
X64527Y-38842D01*
X64517Y-38804D01*
X64517Y-38757D01*
X64527Y-38719D01*
X64536Y-38700D01*
X64546Y-38690D01*
X64565Y-38680D01*
X64708Y-38700D02*
X64717Y-38690D01*
X64736Y-38680D01*
X64784Y-38680D01*
X64803Y-38690D01*
X64813Y-38700D01*
X64822Y-38719D01*
X64822Y-38738D01*
X64813Y-38766D01*
X64698Y-38880D01*
X64822Y-38880D01*
X61259Y-42128D02*
X61059Y-42128D01*
X61059Y-42080D01*
X61068Y-42051D01*
X61087Y-42032D01*
X61106Y-42023D01*
X61144Y-42013D01*
X61173Y-42013D01*
X61211Y-42023D01*
X61230Y-42032D01*
X61249Y-42051D01*
X61259Y-42080D01*
X61259Y-42128D01*
X61059Y-41832D02*
X61059Y-41928D01*
X61154Y-41937D01*
X61144Y-41928D01*
X61135Y-41909D01*
X61135Y-41861D01*
X61144Y-41842D01*
X61154Y-41832D01*
X61173Y-41823D01*
X61221Y-41823D01*
X61240Y-41832D01*
X61249Y-41842D01*
X61259Y-41861D01*
X61259Y-41909D01*
X61249Y-41928D01*
X61240Y-41937D01*
X61059Y-41699D02*
X61059Y-41680D01*
X61068Y-41661D01*
X61078Y-41651D01*
X61097Y-41642D01*
X61135Y-41632D01*
X61182Y-41632D01*
X61221Y-41642D01*
X61240Y-41651D01*
X61249Y-41661D01*
X61259Y-41680D01*
X61259Y-41699D01*
X61249Y-41718D01*
X61240Y-41728D01*
X61221Y-41737D01*
X61182Y-41747D01*
X61135Y-41747D01*
X61097Y-41737D01*
X61078Y-41728D01*
X61068Y-41718D01*
X61059Y-41699D01*
X61259Y-41442D02*
X61259Y-41556D01*
X61259Y-41499D02*
X61059Y-41499D01*
X61087Y-41518D01*
X61106Y-41537D01*
X61116Y-41556D01*
X54981Y-43841D02*
X54971Y-43851D01*
X54943Y-43860D01*
X54924Y-43860D01*
X54895Y-43851D01*
X54876Y-43832D01*
X54866Y-43813D01*
X54857Y-43775D01*
X54857Y-43746D01*
X54866Y-43708D01*
X54876Y-43689D01*
X54895Y-43670D01*
X54924Y-43660D01*
X54943Y-43660D01*
X54971Y-43670D01*
X54981Y-43680D01*
X55162Y-43660D02*
X55066Y-43660D01*
X55057Y-43756D01*
X55066Y-43746D01*
X55085Y-43737D01*
X55133Y-43737D01*
X55152Y-43746D01*
X55162Y-43756D01*
X55171Y-43775D01*
X55171Y-43822D01*
X55162Y-43841D01*
X55152Y-43851D01*
X55133Y-43860D01*
X55085Y-43860D01*
X55066Y-43851D01*
X55057Y-43841D01*
X55295Y-43660D02*
X55314Y-43660D01*
X55333Y-43670D01*
X55343Y-43680D01*
X55352Y-43699D01*
X55362Y-43737D01*
X55362Y-43784D01*
X55352Y-43822D01*
X55343Y-43841D01*
X55333Y-43851D01*
X55314Y-43860D01*
X55295Y-43860D01*
X55276Y-43851D01*
X55266Y-43841D01*
X55257Y-43822D01*
X55247Y-43784D01*
X55247Y-43737D01*
X55257Y-43699D01*
X55266Y-43680D01*
X55276Y-43670D01*
X55295Y-43660D01*
X55552Y-43860D02*
X55438Y-43860D01*
X55495Y-43860D02*
X55495Y-43660D01*
X55476Y-43689D01*
X55457Y-43708D01*
X55438Y-43718D01*
X63446Y-36971D02*
X63436Y-36981D01*
X63408Y-36990D01*
X63389Y-36990D01*
X63360Y-36981D01*
X63341Y-36962D01*
X63331Y-36943D01*
X63322Y-36905D01*
X63322Y-36876D01*
X63331Y-36838D01*
X63341Y-36819D01*
X63360Y-36800D01*
X63389Y-36790D01*
X63408Y-36790D01*
X63436Y-36800D01*
X63446Y-36810D01*
X63617Y-36857D02*
X63617Y-36990D01*
X63569Y-36781D02*
X63522Y-36924D01*
X63646Y-36924D01*
X63760Y-36790D02*
X63779Y-36790D01*
X63798Y-36800D01*
X63808Y-36810D01*
X63817Y-36829D01*
X63827Y-36867D01*
X63827Y-36914D01*
X63817Y-36952D01*
X63808Y-36971D01*
X63798Y-36981D01*
X63779Y-36990D01*
X63760Y-36990D01*
X63741Y-36981D01*
X63731Y-36971D01*
X63722Y-36952D01*
X63712Y-36914D01*
X63712Y-36867D01*
X63722Y-36829D01*
X63731Y-36810D01*
X63741Y-36800D01*
X63760Y-36790D01*
X64008Y-36790D02*
X63912Y-36790D01*
X63903Y-36886D01*
X63912Y-36876D01*
X63931Y-36867D01*
X63979Y-36867D01*
X63998Y-36876D01*
X64008Y-36886D01*
X64017Y-36905D01*
X64017Y-36952D01*
X64008Y-36971D01*
X63998Y-36981D01*
X63979Y-36990D01*
X63931Y-36990D01*
X63912Y-36981D01*
X63903Y-36971D01*
X60136Y-37071D02*
X60126Y-37081D01*
X60098Y-37090D01*
X60079Y-37090D01*
X60050Y-37081D01*
X60031Y-37062D01*
X60021Y-37043D01*
X60012Y-37005D01*
X60012Y-36976D01*
X60021Y-36938D01*
X60031Y-36919D01*
X60050Y-36900D01*
X60079Y-36890D01*
X60098Y-36890D01*
X60126Y-36900D01*
X60136Y-36910D01*
X60307Y-36957D02*
X60307Y-37090D01*
X60259Y-36881D02*
X60212Y-37024D01*
X60336Y-37024D01*
X60450Y-36890D02*
X60469Y-36890D01*
X60488Y-36900D01*
X60498Y-36910D01*
X60507Y-36929D01*
X60517Y-36967D01*
X60517Y-37014D01*
X60507Y-37052D01*
X60498Y-37071D01*
X60488Y-37081D01*
X60469Y-37090D01*
X60450Y-37090D01*
X60431Y-37081D01*
X60421Y-37071D01*
X60412Y-37052D01*
X60402Y-37014D01*
X60402Y-36967D01*
X60412Y-36929D01*
X60421Y-36910D01*
X60431Y-36900D01*
X60450Y-36890D01*
X60688Y-36957D02*
X60688Y-37090D01*
X60640Y-36881D02*
X60593Y-37024D01*
X60717Y-37024D01*
X61126Y-36761D02*
X61116Y-36771D01*
X61088Y-36780D01*
X61069Y-36780D01*
X61040Y-36771D01*
X61021Y-36752D01*
X61011Y-36733D01*
X61002Y-36695D01*
X61002Y-36666D01*
X61011Y-36628D01*
X61021Y-36609D01*
X61040Y-36590D01*
X61069Y-36580D01*
X61088Y-36580D01*
X61116Y-36590D01*
X61126Y-36600D01*
X61297Y-36647D02*
X61297Y-36780D01*
X61249Y-36571D02*
X61202Y-36714D01*
X61326Y-36714D01*
X61440Y-36580D02*
X61459Y-36580D01*
X61478Y-36590D01*
X61488Y-36600D01*
X61497Y-36619D01*
X61507Y-36657D01*
X61507Y-36704D01*
X61497Y-36742D01*
X61488Y-36761D01*
X61478Y-36771D01*
X61459Y-36780D01*
X61440Y-36780D01*
X61421Y-36771D01*
X61411Y-36761D01*
X61402Y-36742D01*
X61392Y-36704D01*
X61392Y-36657D01*
X61402Y-36619D01*
X61411Y-36600D01*
X61421Y-36590D01*
X61440Y-36580D01*
X61678Y-36580D02*
X61640Y-36580D01*
X61621Y-36590D01*
X61611Y-36600D01*
X61592Y-36628D01*
X61583Y-36666D01*
X61583Y-36742D01*
X61592Y-36761D01*
X61602Y-36771D01*
X61621Y-36780D01*
X61659Y-36780D01*
X61678Y-36771D01*
X61688Y-36761D01*
X61697Y-36742D01*
X61697Y-36695D01*
X61688Y-36676D01*
X61678Y-36666D01*
X61659Y-36657D01*
X61621Y-36657D01*
X61602Y-36666D01*
X61592Y-36676D01*
X61583Y-36695D01*
X60842Y-46889D02*
X60832Y-46899D01*
X60804Y-46908D01*
X60785Y-46908D01*
X60756Y-46899D01*
X60737Y-46880D01*
X60727Y-46861D01*
X60718Y-46823D01*
X60718Y-46794D01*
X60727Y-46756D01*
X60737Y-46737D01*
X60756Y-46718D01*
X60785Y-46708D01*
X60804Y-46708D01*
X60832Y-46718D01*
X60842Y-46728D01*
X61023Y-46708D02*
X60927Y-46708D01*
X60918Y-46804D01*
X60927Y-46794D01*
X60946Y-46785D01*
X60994Y-46785D01*
X61013Y-46794D01*
X61023Y-46804D01*
X61032Y-46823D01*
X61032Y-46870D01*
X61023Y-46889D01*
X61013Y-46899D01*
X60994Y-46908D01*
X60946Y-46908D01*
X60927Y-46899D01*
X60918Y-46889D01*
X61223Y-46908D02*
X61108Y-46908D01*
X61166Y-46908D02*
X61166Y-46708D01*
X61146Y-46737D01*
X61127Y-46756D01*
X61108Y-46766D01*
X61346Y-46708D02*
X61366Y-46708D01*
X61385Y-46718D01*
X61394Y-46728D01*
X61404Y-46747D01*
X61413Y-46785D01*
X61413Y-46832D01*
X61404Y-46870D01*
X61394Y-46889D01*
X61385Y-46899D01*
X61366Y-46908D01*
X61346Y-46908D01*
X61327Y-46899D01*
X61318Y-46889D01*
X61308Y-46870D01*
X61299Y-46832D01*
X61299Y-46785D01*
X61308Y-46747D01*
X61318Y-46728D01*
X61327Y-46718D01*
X61346Y-46708D01*
X62066Y-37508D02*
X62076Y-37518D01*
X62085Y-37546D01*
X62085Y-37565D01*
X62076Y-37594D01*
X62057Y-37613D01*
X62038Y-37623D01*
X62000Y-37632D01*
X61971Y-37632D01*
X61933Y-37623D01*
X61914Y-37613D01*
X61895Y-37594D01*
X61885Y-37565D01*
X61885Y-37546D01*
X61895Y-37518D01*
X61905Y-37508D01*
X61952Y-37337D02*
X62085Y-37337D01*
X61876Y-37385D02*
X62019Y-37432D01*
X62019Y-37308D01*
X61885Y-37194D02*
X61885Y-37175D01*
X61895Y-37156D01*
X61905Y-37146D01*
X61924Y-37137D01*
X61962Y-37127D01*
X62009Y-37127D01*
X62047Y-37137D01*
X62066Y-37146D01*
X62076Y-37156D01*
X62085Y-37175D01*
X62085Y-37194D01*
X62076Y-37213D01*
X62066Y-37223D01*
X62047Y-37232D01*
X62009Y-37242D01*
X61962Y-37242D01*
X61924Y-37232D01*
X61905Y-37223D01*
X61895Y-37213D01*
X61885Y-37194D01*
X61905Y-37051D02*
X61895Y-37042D01*
X61885Y-37023D01*
X61885Y-36975D01*
X61895Y-36956D01*
X61905Y-36946D01*
X61924Y-36937D01*
X61943Y-36937D01*
X61971Y-36946D01*
X62085Y-37061D01*
X62085Y-36937D01*
X62086Y-38333D02*
X62096Y-38343D01*
X62105Y-38371D01*
X62105Y-38390D01*
X62096Y-38419D01*
X62077Y-38438D01*
X62058Y-38448D01*
X62020Y-38457D01*
X61991Y-38457D01*
X61953Y-38448D01*
X61934Y-38438D01*
X61915Y-38419D01*
X61905Y-38390D01*
X61905Y-38371D01*
X61915Y-38343D01*
X61925Y-38333D01*
X61972Y-38162D02*
X62105Y-38162D01*
X61896Y-38210D02*
X62039Y-38257D01*
X62039Y-38133D01*
X61905Y-38019D02*
X61905Y-38000D01*
X61915Y-37981D01*
X61925Y-37971D01*
X61944Y-37962D01*
X61982Y-37952D01*
X62029Y-37952D01*
X62067Y-37962D01*
X62086Y-37971D01*
X62096Y-37981D01*
X62105Y-38000D01*
X62105Y-38019D01*
X62096Y-38038D01*
X62086Y-38048D01*
X62067Y-38057D01*
X62029Y-38067D01*
X61982Y-38067D01*
X61944Y-38057D01*
X61925Y-38048D01*
X61915Y-38038D01*
X61905Y-38019D01*
X61905Y-37886D02*
X61905Y-37762D01*
X61982Y-37829D01*
X61982Y-37800D01*
X61991Y-37781D01*
X62001Y-37771D01*
X62020Y-37762D01*
X62067Y-37762D01*
X62086Y-37771D01*
X62096Y-37781D01*
X62105Y-37800D01*
X62105Y-37857D01*
X62096Y-37876D01*
X62086Y-37886D01*
X61781Y-38023D02*
X61791Y-38033D01*
X61800Y-38061D01*
X61800Y-38080D01*
X61791Y-38109D01*
X61772Y-38128D01*
X61753Y-38138D01*
X61715Y-38147D01*
X61686Y-38147D01*
X61648Y-38138D01*
X61629Y-38128D01*
X61610Y-38109D01*
X61600Y-38080D01*
X61600Y-38061D01*
X61610Y-38033D01*
X61620Y-38023D01*
X61667Y-37852D02*
X61800Y-37852D01*
X61591Y-37900D02*
X61734Y-37947D01*
X61734Y-37823D01*
X61600Y-37709D02*
X61600Y-37690D01*
X61610Y-37671D01*
X61620Y-37661D01*
X61639Y-37652D01*
X61677Y-37642D01*
X61724Y-37642D01*
X61762Y-37652D01*
X61781Y-37661D01*
X61791Y-37671D01*
X61800Y-37690D01*
X61800Y-37709D01*
X61791Y-37728D01*
X61781Y-37738D01*
X61762Y-37747D01*
X61724Y-37757D01*
X61677Y-37757D01*
X61639Y-37747D01*
X61620Y-37738D01*
X61610Y-37728D01*
X61600Y-37709D01*
X61800Y-37452D02*
X61800Y-37566D01*
X61800Y-37509D02*
X61600Y-37509D01*
X61629Y-37528D01*
X61648Y-37547D01*
X61658Y-37566D01*
X58501Y-36938D02*
X58511Y-36948D01*
X58520Y-36976D01*
X58520Y-36995D01*
X58511Y-37024D01*
X58492Y-37043D01*
X58473Y-37053D01*
X58435Y-37062D01*
X58406Y-37062D01*
X58368Y-37053D01*
X58349Y-37043D01*
X58330Y-37024D01*
X58320Y-36995D01*
X58320Y-36976D01*
X58330Y-36948D01*
X58340Y-36938D01*
X58320Y-36872D02*
X58320Y-36748D01*
X58397Y-36815D01*
X58397Y-36786D01*
X58406Y-36767D01*
X58416Y-36757D01*
X58435Y-36748D01*
X58482Y-36748D01*
X58501Y-36757D01*
X58511Y-36767D01*
X58520Y-36786D01*
X58520Y-36843D01*
X58511Y-36862D01*
X58501Y-36872D01*
X58320Y-36624D02*
X58320Y-36605D01*
X58330Y-36586D01*
X58340Y-36576D01*
X58359Y-36567D01*
X58397Y-36557D01*
X58444Y-36557D01*
X58482Y-36567D01*
X58501Y-36576D01*
X58511Y-36586D01*
X58520Y-36605D01*
X58520Y-36624D01*
X58511Y-36643D01*
X58501Y-36653D01*
X58482Y-36662D01*
X58444Y-36672D01*
X58397Y-36672D01*
X58359Y-36662D01*
X58340Y-36653D01*
X58330Y-36643D01*
X58320Y-36624D01*
X58387Y-36386D02*
X58520Y-36386D01*
X58311Y-36434D02*
X58454Y-36481D01*
X58454Y-36357D01*
X60421Y-36111D02*
X60411Y-36121D01*
X60383Y-36130D01*
X60364Y-36130D01*
X60335Y-36121D01*
X60316Y-36102D01*
X60306Y-36083D01*
X60297Y-36045D01*
X60297Y-36016D01*
X60306Y-35978D01*
X60316Y-35959D01*
X60335Y-35940D01*
X60364Y-35930D01*
X60383Y-35930D01*
X60411Y-35940D01*
X60421Y-35950D01*
X60487Y-35930D02*
X60611Y-35930D01*
X60544Y-36007D01*
X60573Y-36007D01*
X60592Y-36016D01*
X60602Y-36026D01*
X60611Y-36045D01*
X60611Y-36092D01*
X60602Y-36111D01*
X60592Y-36121D01*
X60573Y-36130D01*
X60516Y-36130D01*
X60497Y-36121D01*
X60487Y-36111D01*
X60735Y-35930D02*
X60754Y-35930D01*
X60773Y-35940D01*
X60783Y-35950D01*
X60792Y-35969D01*
X60802Y-36007D01*
X60802Y-36054D01*
X60792Y-36092D01*
X60783Y-36111D01*
X60773Y-36121D01*
X60754Y-36130D01*
X60735Y-36130D01*
X60716Y-36121D01*
X60706Y-36111D01*
X60697Y-36092D01*
X60687Y-36054D01*
X60687Y-36007D01*
X60697Y-35969D01*
X60706Y-35950D01*
X60716Y-35940D01*
X60735Y-35930D01*
X60992Y-36130D02*
X60878Y-36130D01*
X60935Y-36130D02*
X60935Y-35930D01*
X60916Y-35959D01*
X60897Y-35978D01*
X60878Y-35988D01*
X57231Y-39953D02*
X57241Y-39963D01*
X57250Y-39991D01*
X57250Y-40010D01*
X57241Y-40039D01*
X57222Y-40058D01*
X57203Y-40068D01*
X57165Y-40077D01*
X57136Y-40077D01*
X57098Y-40068D01*
X57079Y-40058D01*
X57060Y-40039D01*
X57050Y-40010D01*
X57050Y-39991D01*
X57060Y-39963D01*
X57070Y-39953D01*
X57050Y-39887D02*
X57050Y-39763D01*
X57127Y-39830D01*
X57127Y-39801D01*
X57136Y-39782D01*
X57146Y-39772D01*
X57165Y-39763D01*
X57212Y-39763D01*
X57231Y-39772D01*
X57241Y-39782D01*
X57250Y-39801D01*
X57250Y-39858D01*
X57241Y-39877D01*
X57231Y-39887D01*
X57050Y-39639D02*
X57050Y-39620D01*
X57060Y-39601D01*
X57070Y-39591D01*
X57089Y-39582D01*
X57127Y-39572D01*
X57174Y-39572D01*
X57212Y-39582D01*
X57231Y-39591D01*
X57241Y-39601D01*
X57250Y-39620D01*
X57250Y-39639D01*
X57241Y-39658D01*
X57231Y-39668D01*
X57212Y-39677D01*
X57174Y-39687D01*
X57127Y-39687D01*
X57089Y-39677D01*
X57070Y-39668D01*
X57060Y-39658D01*
X57050Y-39639D01*
X57070Y-39496D02*
X57060Y-39487D01*
X57050Y-39468D01*
X57050Y-39420D01*
X57060Y-39401D01*
X57070Y-39391D01*
X57089Y-39382D01*
X57108Y-39382D01*
X57136Y-39391D01*
X57250Y-39506D01*
X57250Y-39382D01*
X60081Y-47340D02*
X60014Y-47245D01*
X59966Y-47340D02*
X59966Y-47140D01*
X60043Y-47140D01*
X60062Y-47150D01*
X60071Y-47160D01*
X60081Y-47179D01*
X60081Y-47207D01*
X60071Y-47226D01*
X60062Y-47236D01*
X60043Y-47245D01*
X59966Y-47245D01*
X60262Y-47140D02*
X60166Y-47140D01*
X60157Y-47236D01*
X60166Y-47226D01*
X60185Y-47217D01*
X60233Y-47217D01*
X60252Y-47226D01*
X60262Y-47236D01*
X60271Y-47255D01*
X60271Y-47302D01*
X60262Y-47321D01*
X60252Y-47331D01*
X60233Y-47340D01*
X60185Y-47340D01*
X60166Y-47331D01*
X60157Y-47321D01*
X60395Y-47140D02*
X60414Y-47140D01*
X60433Y-47150D01*
X60443Y-47160D01*
X60452Y-47179D01*
X60462Y-47217D01*
X60462Y-47264D01*
X60452Y-47302D01*
X60443Y-47321D01*
X60433Y-47331D01*
X60414Y-47340D01*
X60395Y-47340D01*
X60376Y-47331D01*
X60366Y-47321D01*
X60357Y-47302D01*
X60347Y-47264D01*
X60347Y-47217D01*
X60357Y-47179D01*
X60366Y-47160D01*
X60376Y-47150D01*
X60395Y-47140D01*
X60652Y-47340D02*
X60538Y-47340D01*
X60595Y-47340D02*
X60595Y-47140D01*
X60576Y-47169D01*
X60557Y-47188D01*
X60538Y-47198D01*
X63076Y-41295D02*
X63009Y-41200D01*
X62961Y-41295D02*
X62961Y-41095D01*
X63038Y-41095D01*
X63057Y-41105D01*
X63066Y-41115D01*
X63076Y-41134D01*
X63076Y-41162D01*
X63066Y-41181D01*
X63057Y-41191D01*
X63038Y-41200D01*
X62961Y-41200D01*
X63247Y-41095D02*
X63209Y-41095D01*
X63190Y-41105D01*
X63180Y-41115D01*
X63161Y-41143D01*
X63152Y-41181D01*
X63152Y-41257D01*
X63161Y-41276D01*
X63171Y-41286D01*
X63190Y-41295D01*
X63228Y-41295D01*
X63247Y-41286D01*
X63257Y-41276D01*
X63266Y-41257D01*
X63266Y-41210D01*
X63257Y-41191D01*
X63247Y-41181D01*
X63228Y-41172D01*
X63190Y-41172D01*
X63171Y-41181D01*
X63161Y-41191D01*
X63152Y-41210D01*
X63390Y-41095D02*
X63409Y-41095D01*
X63428Y-41105D01*
X63438Y-41115D01*
X63447Y-41134D01*
X63457Y-41172D01*
X63457Y-41219D01*
X63447Y-41257D01*
X63438Y-41276D01*
X63428Y-41286D01*
X63409Y-41295D01*
X63390Y-41295D01*
X63371Y-41286D01*
X63361Y-41276D01*
X63352Y-41257D01*
X63342Y-41219D01*
X63342Y-41172D01*
X63352Y-41134D01*
X63361Y-41115D01*
X63371Y-41105D01*
X63390Y-41095D01*
X63647Y-41295D02*
X63533Y-41295D01*
X63590Y-41295D02*
X63590Y-41095D01*
X63571Y-41124D01*
X63552Y-41143D01*
X63533Y-41153D01*
X53841Y-35931D02*
X53831Y-35941D01*
X53803Y-35950D01*
X53784Y-35950D01*
X53755Y-35941D01*
X53736Y-35922D01*
X53726Y-35903D01*
X53717Y-35865D01*
X53717Y-35836D01*
X53726Y-35798D01*
X53736Y-35779D01*
X53755Y-35760D01*
X53784Y-35750D01*
X53803Y-35750D01*
X53831Y-35760D01*
X53841Y-35770D01*
X54012Y-35750D02*
X53974Y-35750D01*
X53955Y-35760D01*
X53945Y-35770D01*
X53926Y-35798D01*
X53917Y-35836D01*
X53917Y-35912D01*
X53926Y-35931D01*
X53936Y-35941D01*
X53955Y-35950D01*
X53993Y-35950D01*
X54012Y-35941D01*
X54022Y-35931D01*
X54031Y-35912D01*
X54031Y-35865D01*
X54022Y-35846D01*
X54012Y-35836D01*
X53993Y-35827D01*
X53955Y-35827D01*
X53936Y-35836D01*
X53926Y-35846D01*
X53917Y-35865D01*
X54155Y-35750D02*
X54174Y-35750D01*
X54193Y-35760D01*
X54203Y-35770D01*
X54212Y-35789D01*
X54222Y-35827D01*
X54222Y-35874D01*
X54212Y-35912D01*
X54203Y-35931D01*
X54193Y-35941D01*
X54174Y-35950D01*
X54155Y-35950D01*
X54136Y-35941D01*
X54126Y-35931D01*
X54117Y-35912D01*
X54107Y-35874D01*
X54107Y-35827D01*
X54117Y-35789D01*
X54126Y-35770D01*
X54136Y-35760D01*
X54155Y-35750D01*
X54393Y-35750D02*
X54355Y-35750D01*
X54336Y-35760D01*
X54326Y-35770D01*
X54307Y-35798D01*
X54298Y-35836D01*
X54298Y-35912D01*
X54307Y-35931D01*
X54317Y-35941D01*
X54336Y-35950D01*
X54374Y-35950D01*
X54393Y-35941D01*
X54403Y-35931D01*
X54412Y-35912D01*
X54412Y-35865D01*
X54403Y-35846D01*
X54393Y-35836D01*
X54374Y-35827D01*
X54336Y-35827D01*
X54317Y-35836D01*
X54307Y-35846D01*
X54298Y-35865D01*
X51851Y-36903D02*
X51861Y-36913D01*
X51870Y-36941D01*
X51870Y-36960D01*
X51861Y-36989D01*
X51842Y-37008D01*
X51823Y-37018D01*
X51785Y-37027D01*
X51756Y-37027D01*
X51718Y-37018D01*
X51699Y-37008D01*
X51680Y-36989D01*
X51670Y-36960D01*
X51670Y-36941D01*
X51680Y-36913D01*
X51690Y-36903D01*
X51670Y-36732D02*
X51670Y-36770D01*
X51680Y-36789D01*
X51690Y-36799D01*
X51718Y-36818D01*
X51756Y-36827D01*
X51832Y-36827D01*
X51851Y-36818D01*
X51861Y-36808D01*
X51870Y-36789D01*
X51870Y-36751D01*
X51861Y-36732D01*
X51851Y-36722D01*
X51832Y-36713D01*
X51785Y-36713D01*
X51766Y-36722D01*
X51756Y-36732D01*
X51747Y-36751D01*
X51747Y-36789D01*
X51756Y-36808D01*
X51766Y-36818D01*
X51785Y-36827D01*
X51670Y-36589D02*
X51670Y-36570D01*
X51680Y-36551D01*
X51690Y-36541D01*
X51709Y-36532D01*
X51747Y-36522D01*
X51794Y-36522D01*
X51832Y-36532D01*
X51851Y-36541D01*
X51861Y-36551D01*
X51870Y-36570D01*
X51870Y-36589D01*
X51861Y-36608D01*
X51851Y-36618D01*
X51832Y-36627D01*
X51794Y-36637D01*
X51747Y-36637D01*
X51709Y-36627D01*
X51690Y-36618D01*
X51680Y-36608D01*
X51670Y-36589D01*
X51670Y-36341D02*
X51670Y-36437D01*
X51766Y-36446D01*
X51756Y-36437D01*
X51747Y-36418D01*
X51747Y-36370D01*
X51756Y-36351D01*
X51766Y-36341D01*
X51785Y-36332D01*
X51832Y-36332D01*
X51851Y-36341D01*
X51861Y-36351D01*
X51870Y-36370D01*
X51870Y-36418D01*
X51861Y-36437D01*
X51851Y-36446D01*
X61821Y-41271D02*
X61811Y-41281D01*
X61783Y-41290D01*
X61764Y-41290D01*
X61735Y-41281D01*
X61716Y-41262D01*
X61706Y-41243D01*
X61697Y-41205D01*
X61697Y-41176D01*
X61706Y-41138D01*
X61716Y-41119D01*
X61735Y-41100D01*
X61764Y-41090D01*
X61783Y-41090D01*
X61811Y-41100D01*
X61821Y-41110D01*
X61992Y-41090D02*
X61954Y-41090D01*
X61935Y-41100D01*
X61925Y-41110D01*
X61906Y-41138D01*
X61897Y-41176D01*
X61897Y-41252D01*
X61906Y-41271D01*
X61916Y-41281D01*
X61935Y-41290D01*
X61973Y-41290D01*
X61992Y-41281D01*
X62002Y-41271D01*
X62011Y-41252D01*
X62011Y-41205D01*
X62002Y-41186D01*
X61992Y-41176D01*
X61973Y-41167D01*
X61935Y-41167D01*
X61916Y-41176D01*
X61906Y-41186D01*
X61897Y-41205D01*
X62135Y-41090D02*
X62154Y-41090D01*
X62173Y-41100D01*
X62183Y-41110D01*
X62192Y-41129D01*
X62202Y-41167D01*
X62202Y-41214D01*
X62192Y-41252D01*
X62183Y-41271D01*
X62173Y-41281D01*
X62154Y-41290D01*
X62135Y-41290D01*
X62116Y-41281D01*
X62106Y-41271D01*
X62097Y-41252D01*
X62087Y-41214D01*
X62087Y-41167D01*
X62097Y-41129D01*
X62106Y-41110D01*
X62116Y-41100D01*
X62135Y-41090D01*
X62373Y-41157D02*
X62373Y-41290D01*
X62325Y-41081D02*
X62278Y-41224D01*
X62402Y-41224D01*
X62471Y-38876D02*
X62461Y-38886D01*
X62433Y-38895D01*
X62414Y-38895D01*
X62385Y-38886D01*
X62366Y-38867D01*
X62356Y-38848D01*
X62347Y-38810D01*
X62347Y-38781D01*
X62356Y-38743D01*
X62366Y-38724D01*
X62385Y-38705D01*
X62414Y-38695D01*
X62433Y-38695D01*
X62461Y-38705D01*
X62471Y-38715D01*
X62642Y-38695D02*
X62604Y-38695D01*
X62585Y-38705D01*
X62575Y-38715D01*
X62556Y-38743D01*
X62547Y-38781D01*
X62547Y-38857D01*
X62556Y-38876D01*
X62566Y-38886D01*
X62585Y-38895D01*
X62623Y-38895D01*
X62642Y-38886D01*
X62652Y-38876D01*
X62661Y-38857D01*
X62661Y-38810D01*
X62652Y-38791D01*
X62642Y-38781D01*
X62623Y-38772D01*
X62585Y-38772D01*
X62566Y-38781D01*
X62556Y-38791D01*
X62547Y-38810D01*
X62785Y-38695D02*
X62804Y-38695D01*
X62823Y-38705D01*
X62833Y-38715D01*
X62842Y-38734D01*
X62852Y-38772D01*
X62852Y-38819D01*
X62842Y-38857D01*
X62833Y-38876D01*
X62823Y-38886D01*
X62804Y-38895D01*
X62785Y-38895D01*
X62766Y-38886D01*
X62756Y-38876D01*
X62747Y-38857D01*
X62737Y-38819D01*
X62737Y-38772D01*
X62747Y-38734D01*
X62756Y-38715D01*
X62766Y-38705D01*
X62785Y-38695D01*
X62918Y-38695D02*
X63042Y-38695D01*
X62975Y-38772D01*
X63004Y-38772D01*
X63023Y-38781D01*
X63033Y-38791D01*
X63042Y-38810D01*
X63042Y-38857D01*
X63033Y-38876D01*
X63023Y-38886D01*
X63004Y-38895D01*
X62947Y-38895D01*
X62928Y-38886D01*
X62918Y-38876D01*
X61210Y-45095D02*
X61200Y-45105D01*
X61172Y-45114D01*
X61153Y-45114D01*
X61124Y-45105D01*
X61105Y-45086D01*
X61095Y-45067D01*
X61086Y-45029D01*
X61086Y-45000D01*
X61095Y-44962D01*
X61105Y-44943D01*
X61124Y-44924D01*
X61153Y-44914D01*
X61172Y-44914D01*
X61200Y-44924D01*
X61210Y-44934D01*
X61391Y-44914D02*
X61295Y-44914D01*
X61286Y-45010D01*
X61295Y-45000D01*
X61314Y-44991D01*
X61362Y-44991D01*
X61381Y-45000D01*
X61391Y-45010D01*
X61400Y-45029D01*
X61400Y-45076D01*
X61391Y-45095D01*
X61381Y-45105D01*
X61362Y-45114D01*
X61314Y-45114D01*
X61295Y-45105D01*
X61286Y-45095D01*
X61524Y-44914D02*
X61543Y-44914D01*
X61562Y-44924D01*
X61572Y-44934D01*
X61581Y-44953D01*
X61591Y-44991D01*
X61591Y-45038D01*
X61581Y-45076D01*
X61572Y-45095D01*
X61562Y-45105D01*
X61543Y-45114D01*
X61524Y-45114D01*
X61505Y-45105D01*
X61495Y-45095D01*
X61486Y-45076D01*
X61476Y-45038D01*
X61476Y-44991D01*
X61486Y-44953D01*
X61495Y-44934D01*
X61505Y-44924D01*
X61524Y-44914D01*
X61772Y-44914D02*
X61676Y-44914D01*
X61667Y-45010D01*
X61676Y-45000D01*
X61695Y-44991D01*
X61743Y-44991D01*
X61762Y-45000D01*
X61772Y-45010D01*
X61781Y-45029D01*
X61781Y-45076D01*
X61772Y-45095D01*
X61762Y-45105D01*
X61743Y-45114D01*
X61695Y-45114D01*
X61676Y-45105D01*
X61667Y-45095D01*
X60611Y-35021D02*
X60601Y-35031D01*
X60573Y-35040D01*
X60554Y-35040D01*
X60525Y-35031D01*
X60506Y-35012D01*
X60496Y-34993D01*
X60487Y-34955D01*
X60487Y-34926D01*
X60496Y-34888D01*
X60506Y-34869D01*
X60525Y-34850D01*
X60554Y-34840D01*
X60573Y-34840D01*
X60601Y-34850D01*
X60611Y-34860D01*
X60782Y-34907D02*
X60782Y-35040D01*
X60734Y-34831D02*
X60687Y-34974D01*
X60811Y-34974D01*
X60925Y-34840D02*
X60944Y-34840D01*
X60963Y-34850D01*
X60973Y-34860D01*
X60982Y-34879D01*
X60992Y-34917D01*
X60992Y-34964D01*
X60982Y-35002D01*
X60973Y-35021D01*
X60963Y-35031D01*
X60944Y-35040D01*
X60925Y-35040D01*
X60906Y-35031D01*
X60896Y-35021D01*
X60887Y-35002D01*
X60877Y-34964D01*
X60877Y-34917D01*
X60887Y-34879D01*
X60896Y-34860D01*
X60906Y-34850D01*
X60925Y-34840D01*
X61058Y-34840D02*
X61192Y-34840D01*
X61106Y-35040D01*
X61711Y-46879D02*
X61721Y-46889D01*
X61730Y-46917D01*
X61730Y-46936D01*
X61721Y-46965D01*
X61702Y-46984D01*
X61683Y-46994D01*
X61645Y-47003D01*
X61616Y-47003D01*
X61578Y-46994D01*
X61559Y-46984D01*
X61540Y-46965D01*
X61530Y-46936D01*
X61530Y-46917D01*
X61540Y-46889D01*
X61550Y-46879D01*
X61530Y-46698D02*
X61530Y-46794D01*
X61626Y-46803D01*
X61616Y-46794D01*
X61607Y-46775D01*
X61607Y-46727D01*
X61616Y-46708D01*
X61626Y-46698D01*
X61645Y-46689D01*
X61692Y-46689D01*
X61711Y-46698D01*
X61721Y-46708D01*
X61730Y-46727D01*
X61730Y-46775D01*
X61721Y-46794D01*
X61711Y-46803D01*
X61730Y-46498D02*
X61730Y-46613D01*
X61730Y-46556D02*
X61530Y-46556D01*
X61559Y-46575D01*
X61578Y-46594D01*
X61588Y-46613D01*
X61730Y-46308D02*
X61730Y-46422D01*
X61730Y-46365D02*
X61530Y-46365D01*
X61559Y-46384D01*
X61578Y-46403D01*
X61588Y-46422D01*
X51851Y-36023D02*
X51861Y-36033D01*
X51870Y-36061D01*
X51870Y-36080D01*
X51861Y-36109D01*
X51842Y-36128D01*
X51823Y-36138D01*
X51785Y-36147D01*
X51756Y-36147D01*
X51718Y-36138D01*
X51699Y-36128D01*
X51680Y-36109D01*
X51670Y-36080D01*
X51670Y-36061D01*
X51680Y-36033D01*
X51690Y-36023D01*
X51690Y-35947D02*
X51680Y-35938D01*
X51670Y-35919D01*
X51670Y-35871D01*
X51680Y-35852D01*
X51690Y-35842D01*
X51709Y-35833D01*
X51728Y-35833D01*
X51756Y-35842D01*
X51870Y-35957D01*
X51870Y-35833D01*
X51870Y-35642D02*
X51870Y-35757D01*
X51870Y-35700D02*
X51670Y-35700D01*
X51699Y-35719D01*
X51718Y-35738D01*
X51728Y-35757D01*
X51690Y-35566D02*
X51680Y-35557D01*
X51670Y-35538D01*
X51670Y-35490D01*
X51680Y-35471D01*
X51690Y-35461D01*
X51709Y-35452D01*
X51728Y-35452D01*
X51756Y-35461D01*
X51870Y-35576D01*
X51870Y-35452D01*
X61063Y-43577D02*
X61073Y-43587D01*
X61082Y-43615D01*
X61082Y-43634D01*
X61073Y-43663D01*
X61054Y-43682D01*
X61035Y-43692D01*
X60997Y-43701D01*
X60968Y-43701D01*
X60930Y-43692D01*
X60911Y-43682D01*
X60892Y-43663D01*
X60882Y-43634D01*
X60882Y-43615D01*
X60892Y-43587D01*
X60902Y-43577D01*
X60882Y-43396D02*
X60882Y-43492D01*
X60978Y-43501D01*
X60968Y-43492D01*
X60959Y-43473D01*
X60959Y-43425D01*
X60968Y-43406D01*
X60978Y-43396D01*
X60997Y-43387D01*
X61044Y-43387D01*
X61063Y-43396D01*
X61073Y-43406D01*
X61082Y-43425D01*
X61082Y-43473D01*
X61073Y-43492D01*
X61063Y-43501D01*
X60882Y-43263D02*
X60882Y-43244D01*
X60892Y-43225D01*
X60902Y-43215D01*
X60921Y-43206D01*
X60959Y-43196D01*
X61006Y-43196D01*
X61044Y-43206D01*
X61063Y-43215D01*
X61073Y-43225D01*
X61082Y-43244D01*
X61082Y-43263D01*
X61073Y-43282D01*
X61063Y-43292D01*
X61044Y-43301D01*
X61006Y-43311D01*
X60959Y-43311D01*
X60921Y-43301D01*
X60902Y-43292D01*
X60892Y-43282D01*
X60882Y-43263D01*
X60882Y-43025D02*
X60882Y-43063D01*
X60892Y-43082D01*
X60902Y-43092D01*
X60930Y-43111D01*
X60968Y-43120D01*
X61044Y-43120D01*
X61063Y-43111D01*
X61073Y-43101D01*
X61082Y-43082D01*
X61082Y-43044D01*
X61073Y-43025D01*
X61063Y-43015D01*
X61044Y-43006D01*
X60997Y-43006D01*
X60978Y-43015D01*
X60968Y-43025D01*
X60959Y-43044D01*
X60959Y-43082D01*
X60968Y-43101D01*
X60978Y-43111D01*
X60997Y-43120D01*
X54936Y-45846D02*
X54926Y-45856D01*
X54898Y-45865D01*
X54879Y-45865D01*
X54850Y-45856D01*
X54831Y-45837D01*
X54821Y-45818D01*
X54812Y-45780D01*
X54812Y-45751D01*
X54821Y-45713D01*
X54831Y-45694D01*
X54850Y-45675D01*
X54879Y-45665D01*
X54898Y-45665D01*
X54926Y-45675D01*
X54936Y-45685D01*
X55117Y-45665D02*
X55021Y-45665D01*
X55012Y-45761D01*
X55021Y-45751D01*
X55040Y-45742D01*
X55088Y-45742D01*
X55107Y-45751D01*
X55117Y-45761D01*
X55126Y-45780D01*
X55126Y-45827D01*
X55117Y-45846D01*
X55107Y-45856D01*
X55088Y-45865D01*
X55040Y-45865D01*
X55021Y-45856D01*
X55012Y-45846D01*
X55250Y-45665D02*
X55269Y-45665D01*
X55288Y-45675D01*
X55298Y-45685D01*
X55307Y-45704D01*
X55317Y-45742D01*
X55317Y-45789D01*
X55307Y-45827D01*
X55298Y-45846D01*
X55288Y-45856D01*
X55269Y-45865D01*
X55250Y-45865D01*
X55231Y-45856D01*
X55221Y-45846D01*
X55212Y-45827D01*
X55202Y-45789D01*
X55202Y-45742D01*
X55212Y-45704D01*
X55221Y-45685D01*
X55231Y-45675D01*
X55250Y-45665D01*
X55488Y-45732D02*
X55488Y-45865D01*
X55440Y-45656D02*
X55393Y-45799D01*
X55517Y-45799D01*
X60072Y-47001D02*
X60062Y-47011D01*
X60034Y-47020D01*
X60015Y-47020D01*
X59986Y-47011D01*
X59967Y-46992D01*
X59957Y-46973D01*
X59948Y-46935D01*
X59948Y-46906D01*
X59957Y-46868D01*
X59967Y-46849D01*
X59986Y-46830D01*
X60015Y-46820D01*
X60034Y-46820D01*
X60062Y-46830D01*
X60072Y-46840D01*
X60253Y-46820D02*
X60157Y-46820D01*
X60148Y-46916D01*
X60157Y-46906D01*
X60176Y-46897D01*
X60224Y-46897D01*
X60243Y-46906D01*
X60253Y-46916D01*
X60262Y-46935D01*
X60262Y-46982D01*
X60253Y-47001D01*
X60243Y-47011D01*
X60224Y-47020D01*
X60176Y-47020D01*
X60157Y-47011D01*
X60148Y-47001D01*
X60386Y-46820D02*
X60405Y-46820D01*
X60424Y-46830D01*
X60434Y-46840D01*
X60443Y-46859D01*
X60453Y-46897D01*
X60453Y-46944D01*
X60443Y-46982D01*
X60434Y-47001D01*
X60424Y-47011D01*
X60405Y-47020D01*
X60386Y-47020D01*
X60367Y-47011D01*
X60357Y-47001D01*
X60348Y-46982D01*
X60338Y-46944D01*
X60338Y-46897D01*
X60348Y-46859D01*
X60357Y-46840D01*
X60367Y-46830D01*
X60386Y-46820D01*
X60519Y-46820D02*
X60653Y-46820D01*
X60567Y-47020D01*
X48041Y-37191D02*
X48031Y-37201D01*
X48003Y-37210D01*
X47984Y-37210D01*
X47955Y-37201D01*
X47936Y-37182D01*
X47926Y-37163D01*
X47917Y-37125D01*
X47917Y-37096D01*
X47926Y-37058D01*
X47936Y-37039D01*
X47955Y-37020D01*
X47984Y-37010D01*
X48003Y-37010D01*
X48031Y-37020D01*
X48041Y-37030D01*
X48117Y-37030D02*
X48126Y-37020D01*
X48145Y-37010D01*
X48193Y-37010D01*
X48212Y-37020D01*
X48222Y-37030D01*
X48231Y-37049D01*
X48231Y-37068D01*
X48222Y-37096D01*
X48107Y-37210D01*
X48231Y-37210D01*
X48355Y-37010D02*
X48374Y-37010D01*
X48393Y-37020D01*
X48403Y-37030D01*
X48412Y-37049D01*
X48422Y-37087D01*
X48422Y-37134D01*
X48412Y-37172D01*
X48403Y-37191D01*
X48393Y-37201D01*
X48374Y-37210D01*
X48355Y-37210D01*
X48336Y-37201D01*
X48326Y-37191D01*
X48317Y-37172D01*
X48307Y-37134D01*
X48307Y-37087D01*
X48317Y-37049D01*
X48326Y-37030D01*
X48336Y-37020D01*
X48355Y-37010D01*
X48498Y-37030D02*
X48507Y-37020D01*
X48526Y-37010D01*
X48574Y-37010D01*
X48593Y-37020D01*
X48603Y-37030D01*
X48612Y-37049D01*
X48612Y-37068D01*
X48603Y-37096D01*
X48488Y-37210D01*
X48612Y-37210D01*
X56371Y-39180D02*
X56304Y-39085D01*
X56256Y-39180D02*
X56256Y-38980D01*
X56333Y-38980D01*
X56352Y-38990D01*
X56361Y-39000D01*
X56371Y-39019D01*
X56371Y-39047D01*
X56361Y-39066D01*
X56352Y-39076D01*
X56333Y-39085D01*
X56256Y-39085D01*
X56447Y-39000D02*
X56456Y-38990D01*
X56475Y-38980D01*
X56523Y-38980D01*
X56542Y-38990D01*
X56552Y-39000D01*
X56561Y-39019D01*
X56561Y-39038D01*
X56552Y-39066D01*
X56437Y-39180D01*
X56561Y-39180D01*
X56637Y-39000D02*
X56647Y-38990D01*
X56666Y-38980D01*
X56714Y-38980D01*
X56733Y-38990D01*
X56742Y-39000D01*
X56752Y-39019D01*
X56752Y-39038D01*
X56742Y-39066D01*
X56628Y-39180D01*
X56752Y-39180D01*
X56866Y-39066D02*
X56847Y-39057D01*
X56837Y-39047D01*
X56828Y-39028D01*
X56828Y-39019D01*
X56837Y-39000D01*
X56847Y-38990D01*
X56866Y-38980D01*
X56904Y-38980D01*
X56923Y-38990D01*
X56933Y-39000D01*
X56942Y-39019D01*
X56942Y-39028D01*
X56933Y-39047D01*
X56923Y-39057D01*
X56904Y-39066D01*
X56866Y-39066D01*
X56847Y-39076D01*
X56837Y-39085D01*
X56828Y-39104D01*
X56828Y-39142D01*
X56837Y-39161D01*
X56847Y-39171D01*
X56866Y-39180D01*
X56904Y-39180D01*
X56923Y-39171D01*
X56933Y-39161D01*
X56942Y-39142D01*
X56942Y-39104D01*
X56933Y-39085D01*
X56923Y-39076D01*
X56904Y-39066D01*
X56366Y-39475D02*
X56299Y-39380D01*
X56251Y-39475D02*
X56251Y-39275D01*
X56328Y-39275D01*
X56347Y-39285D01*
X56356Y-39295D01*
X56366Y-39314D01*
X56366Y-39342D01*
X56356Y-39361D01*
X56347Y-39371D01*
X56328Y-39380D01*
X56251Y-39380D01*
X56442Y-39295D02*
X56451Y-39285D01*
X56470Y-39275D01*
X56518Y-39275D01*
X56537Y-39285D01*
X56547Y-39295D01*
X56556Y-39314D01*
X56556Y-39333D01*
X56547Y-39361D01*
X56432Y-39475D01*
X56556Y-39475D01*
X56632Y-39295D02*
X56642Y-39285D01*
X56661Y-39275D01*
X56709Y-39275D01*
X56728Y-39285D01*
X56737Y-39295D01*
X56747Y-39314D01*
X56747Y-39333D01*
X56737Y-39361D01*
X56623Y-39475D01*
X56747Y-39475D01*
X56813Y-39275D02*
X56947Y-39275D01*
X56861Y-39475D01*
X55470Y-39143D02*
X55375Y-39210D01*
X55470Y-39258D02*
X55270Y-39258D01*
X55270Y-39181D01*
X55280Y-39162D01*
X55290Y-39153D01*
X55309Y-39143D01*
X55337Y-39143D01*
X55356Y-39153D01*
X55366Y-39162D01*
X55375Y-39181D01*
X55375Y-39258D01*
X55290Y-39067D02*
X55280Y-39058D01*
X55270Y-39039D01*
X55270Y-38991D01*
X55280Y-38972D01*
X55290Y-38962D01*
X55309Y-38953D01*
X55328Y-38953D01*
X55356Y-38962D01*
X55470Y-39077D01*
X55470Y-38953D01*
X55290Y-38877D02*
X55280Y-38867D01*
X55270Y-38848D01*
X55270Y-38800D01*
X55280Y-38781D01*
X55290Y-38772D01*
X55309Y-38762D01*
X55328Y-38762D01*
X55356Y-38772D01*
X55470Y-38886D01*
X55470Y-38762D01*
X55270Y-38581D02*
X55270Y-38677D01*
X55366Y-38686D01*
X55356Y-38677D01*
X55347Y-38658D01*
X55347Y-38610D01*
X55356Y-38591D01*
X55366Y-38581D01*
X55385Y-38572D01*
X55432Y-38572D01*
X55451Y-38581D01*
X55461Y-38591D01*
X55470Y-38610D01*
X55470Y-38658D01*
X55461Y-38677D01*
X55451Y-38686D01*
X52204Y-37679D02*
X52194Y-37689D01*
X52166Y-37698D01*
X52147Y-37698D01*
X52118Y-37689D01*
X52099Y-37670D01*
X52089Y-37651D01*
X52080Y-37613D01*
X52080Y-37584D01*
X52089Y-37546D01*
X52099Y-37527D01*
X52118Y-37508D01*
X52147Y-37498D01*
X52166Y-37498D01*
X52194Y-37508D01*
X52204Y-37518D01*
X52280Y-37518D02*
X52289Y-37508D01*
X52308Y-37498D01*
X52356Y-37498D01*
X52375Y-37508D01*
X52385Y-37518D01*
X52394Y-37537D01*
X52394Y-37556D01*
X52385Y-37584D01*
X52270Y-37698D01*
X52394Y-37698D01*
X52585Y-37698D02*
X52470Y-37698D01*
X52528Y-37698D02*
X52528Y-37498D01*
X52508Y-37527D01*
X52489Y-37546D01*
X52470Y-37556D01*
X52651Y-37498D02*
X52775Y-37498D01*
X52708Y-37575D01*
X52737Y-37575D01*
X52756Y-37584D01*
X52766Y-37594D01*
X52775Y-37613D01*
X52775Y-37660D01*
X52766Y-37679D01*
X52756Y-37689D01*
X52737Y-37698D01*
X52680Y-37698D01*
X52661Y-37689D01*
X52651Y-37679D01*
X52531Y-37001D02*
X52541Y-37011D01*
X52550Y-37039D01*
X52550Y-37058D01*
X52541Y-37087D01*
X52522Y-37106D01*
X52503Y-37116D01*
X52465Y-37125D01*
X52436Y-37125D01*
X52398Y-37116D01*
X52379Y-37106D01*
X52360Y-37087D01*
X52350Y-37058D01*
X52350Y-37039D01*
X52360Y-37011D01*
X52370Y-37001D01*
X52370Y-36925D02*
X52360Y-36916D01*
X52350Y-36897D01*
X52350Y-36849D01*
X52360Y-36830D01*
X52370Y-36820D01*
X52389Y-36811D01*
X52408Y-36811D01*
X52436Y-36820D01*
X52550Y-36935D01*
X52550Y-36811D01*
X52550Y-36620D02*
X52550Y-36735D01*
X52550Y-36678D02*
X52350Y-36678D01*
X52379Y-36697D01*
X52398Y-36716D01*
X52408Y-36735D01*
X52350Y-36497D02*
X52350Y-36478D01*
X52360Y-36458D01*
X52370Y-36449D01*
X52389Y-36439D01*
X52427Y-36430D01*
X52474Y-36430D01*
X52512Y-36439D01*
X52531Y-36449D01*
X52541Y-36458D01*
X52550Y-36478D01*
X52550Y-36497D01*
X52541Y-36516D01*
X52531Y-36525D01*
X52512Y-36535D01*
X52474Y-36544D01*
X52427Y-36544D01*
X52389Y-36535D01*
X52370Y-36525D01*
X52360Y-36516D01*
X52350Y-36497D01*
X52860Y-36995D02*
X52765Y-37062D01*
X52860Y-37110D02*
X52660Y-37110D01*
X52660Y-37033D01*
X52670Y-37014D01*
X52680Y-37005D01*
X52699Y-36995D01*
X52727Y-36995D01*
X52746Y-37005D01*
X52756Y-37014D01*
X52765Y-37033D01*
X52765Y-37110D01*
X52680Y-36919D02*
X52670Y-36910D01*
X52660Y-36891D01*
X52660Y-36843D01*
X52670Y-36824D01*
X52680Y-36814D01*
X52699Y-36805D01*
X52718Y-36805D01*
X52746Y-36814D01*
X52860Y-36929D01*
X52860Y-36805D01*
X52860Y-36614D02*
X52860Y-36729D01*
X52860Y-36672D02*
X52660Y-36672D01*
X52689Y-36691D01*
X52708Y-36710D01*
X52718Y-36729D01*
X52660Y-36548D02*
X52660Y-36414D01*
X52860Y-36500D01*
X53056Y-36230D02*
X52989Y-36135D01*
X52941Y-36230D02*
X52941Y-36030D01*
X53018Y-36030D01*
X53037Y-36040D01*
X53046Y-36050D01*
X53056Y-36069D01*
X53056Y-36097D01*
X53046Y-36116D01*
X53037Y-36126D01*
X53018Y-36135D01*
X52941Y-36135D01*
X53132Y-36050D02*
X53141Y-36040D01*
X53160Y-36030D01*
X53208Y-36030D01*
X53227Y-36040D01*
X53237Y-36050D01*
X53246Y-36069D01*
X53246Y-36088D01*
X53237Y-36116D01*
X53122Y-36230D01*
X53246Y-36230D01*
X53437Y-36230D02*
X53322Y-36230D01*
X53380Y-36230D02*
X53380Y-36030D01*
X53360Y-36059D01*
X53341Y-36078D01*
X53322Y-36088D01*
X53608Y-36030D02*
X53570Y-36030D01*
X53551Y-36040D01*
X53541Y-36050D01*
X53522Y-36078D01*
X53513Y-36116D01*
X53513Y-36192D01*
X53522Y-36211D01*
X53532Y-36221D01*
X53551Y-36230D01*
X53589Y-36230D01*
X53608Y-36221D01*
X53618Y-36211D01*
X53627Y-36192D01*
X53627Y-36145D01*
X53618Y-36126D01*
X53608Y-36116D01*
X53589Y-36107D01*
X53551Y-36107D01*
X53532Y-36116D01*
X53522Y-36126D01*
X53513Y-36145D01*
X55775Y-39138D02*
X55680Y-39205D01*
X55775Y-39253D02*
X55575Y-39253D01*
X55575Y-39176D01*
X55585Y-39157D01*
X55595Y-39148D01*
X55614Y-39138D01*
X55642Y-39138D01*
X55661Y-39148D01*
X55671Y-39157D01*
X55680Y-39176D01*
X55680Y-39253D01*
X55595Y-39062D02*
X55585Y-39053D01*
X55575Y-39034D01*
X55575Y-38986D01*
X55585Y-38967D01*
X55595Y-38957D01*
X55614Y-38948D01*
X55633Y-38948D01*
X55661Y-38957D01*
X55775Y-39072D01*
X55775Y-38948D01*
X55595Y-38872D02*
X55585Y-38862D01*
X55575Y-38843D01*
X55575Y-38795D01*
X55585Y-38776D01*
X55595Y-38767D01*
X55614Y-38757D01*
X55633Y-38757D01*
X55661Y-38767D01*
X55775Y-38881D01*
X55775Y-38757D01*
X55642Y-38586D02*
X55775Y-38586D01*
X55566Y-38634D02*
X55709Y-38681D01*
X55709Y-38557D01*
X48240Y-36081D02*
X48145Y-36148D01*
X48240Y-36196D02*
X48040Y-36196D01*
X48040Y-36119D01*
X48050Y-36100D01*
X48060Y-36091D01*
X48079Y-36081D01*
X48107Y-36081D01*
X48126Y-36091D01*
X48136Y-36100D01*
X48145Y-36119D01*
X48145Y-36196D01*
X48060Y-36005D02*
X48050Y-35996D01*
X48040Y-35977D01*
X48040Y-35929D01*
X48050Y-35910D01*
X48060Y-35900D01*
X48079Y-35891D01*
X48098Y-35891D01*
X48126Y-35900D01*
X48240Y-36015D01*
X48240Y-35891D01*
X48040Y-35767D02*
X48040Y-35748D01*
X48050Y-35729D01*
X48060Y-35719D01*
X48079Y-35710D01*
X48117Y-35700D01*
X48164Y-35700D01*
X48202Y-35710D01*
X48221Y-35719D01*
X48231Y-35729D01*
X48240Y-35748D01*
X48240Y-35767D01*
X48231Y-35786D01*
X48221Y-35796D01*
X48202Y-35805D01*
X48164Y-35815D01*
X48117Y-35815D01*
X48079Y-35805D01*
X48060Y-35796D01*
X48050Y-35786D01*
X48040Y-35767D01*
X48040Y-35519D02*
X48040Y-35615D01*
X48136Y-35624D01*
X48126Y-35615D01*
X48117Y-35596D01*
X48117Y-35548D01*
X48126Y-35529D01*
X48136Y-35519D01*
X48155Y-35510D01*
X48202Y-35510D01*
X48221Y-35519D01*
X48231Y-35529D01*
X48240Y-35548D01*
X48240Y-35596D01*
X48231Y-35615D01*
X48221Y-35624D01*
X48518Y-36143D02*
X48508Y-36153D01*
X48480Y-36162D01*
X48461Y-36162D01*
X48432Y-36153D01*
X48413Y-36134D01*
X48403Y-36115D01*
X48394Y-36077D01*
X48394Y-36048D01*
X48403Y-36010D01*
X48413Y-35991D01*
X48432Y-35972D01*
X48461Y-35962D01*
X48480Y-35962D01*
X48508Y-35972D01*
X48518Y-35982D01*
X48594Y-35982D02*
X48603Y-35972D01*
X48622Y-35962D01*
X48670Y-35962D01*
X48689Y-35972D01*
X48699Y-35982D01*
X48708Y-36001D01*
X48708Y-36020D01*
X48699Y-36048D01*
X48584Y-36162D01*
X48708Y-36162D01*
X48832Y-35962D02*
X48851Y-35962D01*
X48870Y-35972D01*
X48880Y-35982D01*
X48889Y-36001D01*
X48899Y-36039D01*
X48899Y-36086D01*
X48889Y-36124D01*
X48880Y-36143D01*
X48870Y-36153D01*
X48851Y-36162D01*
X48832Y-36162D01*
X48813Y-36153D01*
X48803Y-36143D01*
X48794Y-36124D01*
X48784Y-36086D01*
X48784Y-36039D01*
X48794Y-36001D01*
X48803Y-35982D01*
X48813Y-35972D01*
X48832Y-35962D01*
X49089Y-36162D02*
X48975Y-36162D01*
X49032Y-36162D02*
X49032Y-35962D01*
X49013Y-35991D01*
X48994Y-36010D01*
X48975Y-36020D01*
X49161Y-35585D02*
X49094Y-35490D01*
X49046Y-35585D02*
X49046Y-35385D01*
X49123Y-35385D01*
X49142Y-35395D01*
X49151Y-35405D01*
X49161Y-35424D01*
X49161Y-35452D01*
X49151Y-35471D01*
X49142Y-35481D01*
X49123Y-35490D01*
X49046Y-35490D01*
X49237Y-35405D02*
X49246Y-35395D01*
X49265Y-35385D01*
X49313Y-35385D01*
X49332Y-35395D01*
X49342Y-35405D01*
X49351Y-35424D01*
X49351Y-35443D01*
X49342Y-35471D01*
X49227Y-35585D01*
X49351Y-35585D01*
X49475Y-35385D02*
X49494Y-35385D01*
X49513Y-35395D01*
X49523Y-35405D01*
X49532Y-35424D01*
X49542Y-35462D01*
X49542Y-35509D01*
X49532Y-35547D01*
X49523Y-35566D01*
X49513Y-35576D01*
X49494Y-35585D01*
X49475Y-35585D01*
X49456Y-35576D01*
X49446Y-35566D01*
X49437Y-35547D01*
X49427Y-35509D01*
X49427Y-35462D01*
X49437Y-35424D01*
X49446Y-35405D01*
X49456Y-35395D01*
X49475Y-35385D01*
X49608Y-35385D02*
X49732Y-35385D01*
X49665Y-35462D01*
X49694Y-35462D01*
X49713Y-35471D01*
X49723Y-35481D01*
X49732Y-35500D01*
X49732Y-35547D01*
X49723Y-35566D01*
X49713Y-35576D01*
X49694Y-35585D01*
X49637Y-35585D01*
X49618Y-35576D01*
X49608Y-35566D01*
X56077Y-39135D02*
X56087Y-39145D01*
X56096Y-39173D01*
X56096Y-39192D01*
X56087Y-39221D01*
X56068Y-39240D01*
X56049Y-39250D01*
X56011Y-39259D01*
X55982Y-39259D01*
X55944Y-39250D01*
X55925Y-39240D01*
X55906Y-39221D01*
X55896Y-39192D01*
X55896Y-39173D01*
X55906Y-39145D01*
X55916Y-39135D01*
X55916Y-39059D02*
X55906Y-39050D01*
X55896Y-39031D01*
X55896Y-38983D01*
X55906Y-38964D01*
X55916Y-38954D01*
X55935Y-38945D01*
X55954Y-38945D01*
X55982Y-38954D01*
X56096Y-39069D01*
X56096Y-38945D01*
X56096Y-38754D02*
X56096Y-38869D01*
X56096Y-38812D02*
X55896Y-38812D01*
X55925Y-38831D01*
X55944Y-38850D01*
X55954Y-38869D01*
X56096Y-38564D02*
X56096Y-38678D01*
X56096Y-38621D02*
X55896Y-38621D01*
X55925Y-38640D01*
X55944Y-38659D01*
X55954Y-38678D01*
X52090Y-35198D02*
X51995Y-35265D01*
X52090Y-35313D02*
X51890Y-35313D01*
X51890Y-35236D01*
X51900Y-35217D01*
X51910Y-35208D01*
X51929Y-35198D01*
X51957Y-35198D01*
X51976Y-35208D01*
X51986Y-35217D01*
X51995Y-35236D01*
X51995Y-35313D01*
X52090Y-35008D02*
X52090Y-35122D01*
X52090Y-35065D02*
X51890Y-35065D01*
X51919Y-35084D01*
X51938Y-35103D01*
X51948Y-35122D01*
X51890Y-34884D02*
X51890Y-34865D01*
X51900Y-34846D01*
X51910Y-34836D01*
X51929Y-34827D01*
X51967Y-34817D01*
X52014Y-34817D01*
X52052Y-34827D01*
X52071Y-34836D01*
X52081Y-34846D01*
X52090Y-34865D01*
X52090Y-34884D01*
X52081Y-34903D01*
X52071Y-34913D01*
X52052Y-34922D01*
X52014Y-34932D01*
X51967Y-34932D01*
X51929Y-34922D01*
X51910Y-34913D01*
X51900Y-34903D01*
X51890Y-34884D01*
X52090Y-34627D02*
X52090Y-34741D01*
X52090Y-34684D02*
X51890Y-34684D01*
X51919Y-34703D01*
X51938Y-34722D01*
X51948Y-34741D01*
X55221Y-34925D02*
X55154Y-34830D01*
X55106Y-34925D02*
X55106Y-34725D01*
X55183Y-34725D01*
X55202Y-34735D01*
X55211Y-34745D01*
X55221Y-34764D01*
X55221Y-34792D01*
X55211Y-34811D01*
X55202Y-34821D01*
X55183Y-34830D01*
X55106Y-34830D01*
X55297Y-34745D02*
X55306Y-34735D01*
X55325Y-34725D01*
X55373Y-34725D01*
X55392Y-34735D01*
X55402Y-34745D01*
X55411Y-34764D01*
X55411Y-34783D01*
X55402Y-34811D01*
X55287Y-34925D01*
X55411Y-34925D01*
X55602Y-34925D02*
X55487Y-34925D01*
X55545Y-34925D02*
X55545Y-34725D01*
X55525Y-34754D01*
X55506Y-34773D01*
X55487Y-34783D01*
X55716Y-34811D02*
X55697Y-34802D01*
X55687Y-34792D01*
X55678Y-34773D01*
X55678Y-34764D01*
X55687Y-34745D01*
X55697Y-34735D01*
X55716Y-34725D01*
X55754Y-34725D01*
X55773Y-34735D01*
X55783Y-34745D01*
X55792Y-34764D01*
X55792Y-34773D01*
X55783Y-34792D01*
X55773Y-34802D01*
X55754Y-34811D01*
X55716Y-34811D01*
X55697Y-34821D01*
X55687Y-34830D01*
X55678Y-34849D01*
X55678Y-34887D01*
X55687Y-34906D01*
X55697Y-34916D01*
X55716Y-34925D01*
X55754Y-34925D01*
X55773Y-34916D01*
X55783Y-34906D01*
X55792Y-34887D01*
X55792Y-34849D01*
X55783Y-34830D01*
X55773Y-34821D01*
X55754Y-34811D01*
X55686Y-35640D02*
X55619Y-35545D01*
X55571Y-35640D02*
X55571Y-35440D01*
X55648Y-35440D01*
X55667Y-35450D01*
X55676Y-35460D01*
X55686Y-35479D01*
X55686Y-35507D01*
X55676Y-35526D01*
X55667Y-35536D01*
X55648Y-35545D01*
X55571Y-35545D01*
X55762Y-35460D02*
X55771Y-35450D01*
X55790Y-35440D01*
X55838Y-35440D01*
X55857Y-35450D01*
X55867Y-35460D01*
X55876Y-35479D01*
X55876Y-35498D01*
X55867Y-35526D01*
X55752Y-35640D01*
X55876Y-35640D01*
X55952Y-35460D02*
X55962Y-35450D01*
X55981Y-35440D01*
X56029Y-35440D01*
X56048Y-35450D01*
X56057Y-35460D01*
X56067Y-35479D01*
X56067Y-35498D01*
X56057Y-35526D01*
X55943Y-35640D01*
X56067Y-35640D01*
X56143Y-35460D02*
X56152Y-35450D01*
X56171Y-35440D01*
X56219Y-35440D01*
X56238Y-35450D01*
X56248Y-35460D01*
X56257Y-35479D01*
X56257Y-35498D01*
X56248Y-35526D01*
X56133Y-35640D01*
X56257Y-35640D01*
X56386Y-38865D02*
X56319Y-38770D01*
X56271Y-38865D02*
X56271Y-38665D01*
X56348Y-38665D01*
X56367Y-38675D01*
X56376Y-38685D01*
X56386Y-38704D01*
X56386Y-38732D01*
X56376Y-38751D01*
X56367Y-38761D01*
X56348Y-38770D01*
X56271Y-38770D01*
X56462Y-38685D02*
X56471Y-38675D01*
X56490Y-38665D01*
X56538Y-38665D01*
X56557Y-38675D01*
X56567Y-38685D01*
X56576Y-38704D01*
X56576Y-38723D01*
X56567Y-38751D01*
X56452Y-38865D01*
X56576Y-38865D01*
X56652Y-38685D02*
X56662Y-38675D01*
X56681Y-38665D01*
X56729Y-38665D01*
X56748Y-38675D01*
X56757Y-38685D01*
X56767Y-38704D01*
X56767Y-38723D01*
X56757Y-38751D01*
X56643Y-38865D01*
X56767Y-38865D01*
X56862Y-38865D02*
X56900Y-38865D01*
X56919Y-38856D01*
X56929Y-38846D01*
X56948Y-38818D01*
X56957Y-38780D01*
X56957Y-38704D01*
X56948Y-38685D01*
X56938Y-38675D01*
X56919Y-38665D01*
X56881Y-38665D01*
X56862Y-38675D01*
X56852Y-38685D01*
X56843Y-38704D01*
X56843Y-38751D01*
X56852Y-38770D01*
X56862Y-38780D01*
X56881Y-38789D01*
X56919Y-38789D01*
X56938Y-38780D01*
X56948Y-38770D01*
X56957Y-38751D01*
X57536Y-39193D02*
X57546Y-39203D01*
X57555Y-39231D01*
X57555Y-39250D01*
X57546Y-39279D01*
X57527Y-39298D01*
X57508Y-39308D01*
X57470Y-39317D01*
X57441Y-39317D01*
X57403Y-39308D01*
X57384Y-39298D01*
X57365Y-39279D01*
X57355Y-39250D01*
X57355Y-39231D01*
X57365Y-39203D01*
X57375Y-39193D01*
X57375Y-39117D02*
X57365Y-39108D01*
X57355Y-39089D01*
X57355Y-39041D01*
X57365Y-39022D01*
X57375Y-39012D01*
X57394Y-39003D01*
X57413Y-39003D01*
X57441Y-39012D01*
X57555Y-39127D01*
X57555Y-39003D01*
X57375Y-38927D02*
X57365Y-38917D01*
X57355Y-38898D01*
X57355Y-38850D01*
X57365Y-38831D01*
X57375Y-38822D01*
X57394Y-38812D01*
X57413Y-38812D01*
X57441Y-38822D01*
X57555Y-38936D01*
X57555Y-38812D01*
X57375Y-38736D02*
X57365Y-38727D01*
X57355Y-38708D01*
X57355Y-38660D01*
X57365Y-38641D01*
X57375Y-38631D01*
X57394Y-38622D01*
X57413Y-38622D01*
X57441Y-38631D01*
X57555Y-38746D01*
X57555Y-38622D01*
X57401Y-37065D02*
X57411Y-37075D01*
X57420Y-37103D01*
X57420Y-37122D01*
X57411Y-37151D01*
X57392Y-37170D01*
X57373Y-37180D01*
X57335Y-37189D01*
X57306Y-37189D01*
X57268Y-37180D01*
X57249Y-37170D01*
X57230Y-37151D01*
X57220Y-37122D01*
X57220Y-37103D01*
X57230Y-37075D01*
X57240Y-37065D01*
X57240Y-36989D02*
X57230Y-36980D01*
X57220Y-36961D01*
X57220Y-36913D01*
X57230Y-36894D01*
X57240Y-36884D01*
X57259Y-36875D01*
X57278Y-36875D01*
X57306Y-36884D01*
X57420Y-36999D01*
X57420Y-36875D01*
X57240Y-36799D02*
X57230Y-36789D01*
X57220Y-36770D01*
X57220Y-36722D01*
X57230Y-36703D01*
X57240Y-36694D01*
X57259Y-36684D01*
X57278Y-36684D01*
X57306Y-36694D01*
X57420Y-36808D01*
X57420Y-36684D01*
X57220Y-36618D02*
X57220Y-36494D01*
X57297Y-36561D01*
X57297Y-36532D01*
X57306Y-36513D01*
X57316Y-36503D01*
X57335Y-36494D01*
X57382Y-36494D01*
X57401Y-36503D01*
X57411Y-36513D01*
X57420Y-36532D01*
X57420Y-36589D01*
X57411Y-36608D01*
X57401Y-36618D01*
X55701Y-35965D02*
X55634Y-35870D01*
X55586Y-35965D02*
X55586Y-35765D01*
X55663Y-35765D01*
X55682Y-35775D01*
X55691Y-35785D01*
X55701Y-35804D01*
X55701Y-35832D01*
X55691Y-35851D01*
X55682Y-35861D01*
X55663Y-35870D01*
X55586Y-35870D01*
X55777Y-35785D02*
X55786Y-35775D01*
X55805Y-35765D01*
X55853Y-35765D01*
X55872Y-35775D01*
X55882Y-35785D01*
X55891Y-35804D01*
X55891Y-35823D01*
X55882Y-35851D01*
X55767Y-35965D01*
X55891Y-35965D01*
X56082Y-35965D02*
X55967Y-35965D01*
X56025Y-35965D02*
X56025Y-35765D01*
X56005Y-35794D01*
X55986Y-35813D01*
X55967Y-35823D01*
X56177Y-35965D02*
X56215Y-35965D01*
X56234Y-35956D01*
X56244Y-35946D01*
X56263Y-35918D01*
X56272Y-35880D01*
X56272Y-35804D01*
X56263Y-35785D01*
X56253Y-35775D01*
X56234Y-35765D01*
X56196Y-35765D01*
X56177Y-35775D01*
X56167Y-35785D01*
X56158Y-35804D01*
X56158Y-35851D01*
X56167Y-35870D01*
X56177Y-35880D01*
X56196Y-35889D01*
X56234Y-35889D01*
X56253Y-35880D01*
X56263Y-35870D01*
X56272Y-35851D01*
X52606Y-40945D02*
X52539Y-40850D01*
X52491Y-40945D02*
X52491Y-40745D01*
X52568Y-40745D01*
X52587Y-40755D01*
X52596Y-40765D01*
X52606Y-40784D01*
X52606Y-40812D01*
X52596Y-40831D01*
X52587Y-40841D01*
X52568Y-40850D01*
X52491Y-40850D01*
X52682Y-40765D02*
X52691Y-40755D01*
X52710Y-40745D01*
X52758Y-40745D01*
X52777Y-40755D01*
X52787Y-40765D01*
X52796Y-40784D01*
X52796Y-40803D01*
X52787Y-40831D01*
X52672Y-40945D01*
X52796Y-40945D01*
X52920Y-40745D02*
X52939Y-40745D01*
X52958Y-40755D01*
X52968Y-40765D01*
X52977Y-40784D01*
X52987Y-40822D01*
X52987Y-40869D01*
X52977Y-40907D01*
X52968Y-40926D01*
X52958Y-40936D01*
X52939Y-40945D01*
X52920Y-40945D01*
X52901Y-40936D01*
X52891Y-40926D01*
X52882Y-40907D01*
X52872Y-40869D01*
X52872Y-40822D01*
X52882Y-40784D01*
X52891Y-40765D01*
X52901Y-40755D01*
X52920Y-40745D01*
X53082Y-40945D02*
X53120Y-40945D01*
X53139Y-40936D01*
X53149Y-40926D01*
X53168Y-40898D01*
X53177Y-40860D01*
X53177Y-40784D01*
X53168Y-40765D01*
X53158Y-40755D01*
X53139Y-40745D01*
X53101Y-40745D01*
X53082Y-40755D01*
X53072Y-40765D01*
X53063Y-40784D01*
X53063Y-40831D01*
X53072Y-40850D01*
X53082Y-40860D01*
X53101Y-40869D01*
X53139Y-40869D01*
X53158Y-40860D01*
X53168Y-40850D01*
X53177Y-40831D01*
X49031Y-37230D02*
X48964Y-37135D01*
X48916Y-37230D02*
X48916Y-37030D01*
X48993Y-37030D01*
X49012Y-37040D01*
X49021Y-37050D01*
X49031Y-37069D01*
X49031Y-37097D01*
X49021Y-37116D01*
X49012Y-37126D01*
X48993Y-37135D01*
X48916Y-37135D01*
X49107Y-37050D02*
X49116Y-37040D01*
X49135Y-37030D01*
X49183Y-37030D01*
X49202Y-37040D01*
X49212Y-37050D01*
X49221Y-37069D01*
X49221Y-37088D01*
X49212Y-37116D01*
X49097Y-37230D01*
X49221Y-37230D01*
X49345Y-37030D02*
X49364Y-37030D01*
X49383Y-37040D01*
X49393Y-37050D01*
X49402Y-37069D01*
X49412Y-37107D01*
X49412Y-37154D01*
X49402Y-37192D01*
X49393Y-37211D01*
X49383Y-37221D01*
X49364Y-37230D01*
X49345Y-37230D01*
X49326Y-37221D01*
X49316Y-37211D01*
X49307Y-37192D01*
X49297Y-37154D01*
X49297Y-37107D01*
X49307Y-37069D01*
X49316Y-37050D01*
X49326Y-37040D01*
X49345Y-37030D01*
X49583Y-37097D02*
X49583Y-37230D01*
X49535Y-37021D02*
X49488Y-37164D01*
X49612Y-37164D01*
X49390Y-35264D02*
X49323Y-35169D01*
X49275Y-35264D02*
X49275Y-35064D01*
X49352Y-35064D01*
X49371Y-35074D01*
X49380Y-35084D01*
X49390Y-35103D01*
X49390Y-35131D01*
X49380Y-35150D01*
X49371Y-35160D01*
X49352Y-35169D01*
X49275Y-35169D01*
X49466Y-35084D02*
X49475Y-35074D01*
X49494Y-35064D01*
X49542Y-35064D01*
X49561Y-35074D01*
X49571Y-35084D01*
X49580Y-35103D01*
X49580Y-35122D01*
X49571Y-35150D01*
X49456Y-35264D01*
X49580Y-35264D01*
X49704Y-35064D02*
X49723Y-35064D01*
X49742Y-35074D01*
X49752Y-35084D01*
X49761Y-35103D01*
X49771Y-35141D01*
X49771Y-35188D01*
X49761Y-35226D01*
X49752Y-35245D01*
X49742Y-35255D01*
X49723Y-35264D01*
X49704Y-35264D01*
X49685Y-35255D01*
X49675Y-35245D01*
X49666Y-35226D01*
X49656Y-35188D01*
X49656Y-35141D01*
X49666Y-35103D01*
X49675Y-35084D01*
X49685Y-35074D01*
X49704Y-35064D01*
X49847Y-35084D02*
X49856Y-35074D01*
X49875Y-35064D01*
X49923Y-35064D01*
X49942Y-35074D01*
X49952Y-35084D01*
X49961Y-35103D01*
X49961Y-35122D01*
X49952Y-35150D01*
X49837Y-35264D01*
X49961Y-35264D01*
X54458Y-40071D02*
X54363Y-40138D01*
X54458Y-40186D02*
X54258Y-40186D01*
X54258Y-40109D01*
X54268Y-40090D01*
X54278Y-40081D01*
X54297Y-40071D01*
X54325Y-40071D01*
X54344Y-40081D01*
X54354Y-40090D01*
X54363Y-40109D01*
X54363Y-40186D01*
X54278Y-39995D02*
X54268Y-39986D01*
X54258Y-39967D01*
X54258Y-39919D01*
X54268Y-39900D01*
X54278Y-39890D01*
X54297Y-39881D01*
X54316Y-39881D01*
X54344Y-39890D01*
X54458Y-40005D01*
X54458Y-39881D01*
X54258Y-39757D02*
X54258Y-39738D01*
X54268Y-39719D01*
X54278Y-39709D01*
X54297Y-39700D01*
X54335Y-39690D01*
X54382Y-39690D01*
X54420Y-39700D01*
X54439Y-39709D01*
X54449Y-39719D01*
X54458Y-39738D01*
X54458Y-39757D01*
X54449Y-39776D01*
X54439Y-39786D01*
X54420Y-39795D01*
X54382Y-39805D01*
X54335Y-39805D01*
X54297Y-39795D01*
X54278Y-39786D01*
X54268Y-39776D01*
X54258Y-39757D01*
X54258Y-39624D02*
X54258Y-39490D01*
X54458Y-39576D01*
X50418Y-36022D02*
X50351Y-35927D01*
X50303Y-36022D02*
X50303Y-35822D01*
X50380Y-35822D01*
X50399Y-35832D01*
X50408Y-35842D01*
X50418Y-35861D01*
X50418Y-35889D01*
X50408Y-35908D01*
X50399Y-35918D01*
X50380Y-35927D01*
X50303Y-35927D01*
X50494Y-35842D02*
X50503Y-35832D01*
X50522Y-35822D01*
X50570Y-35822D01*
X50589Y-35832D01*
X50599Y-35842D01*
X50608Y-35861D01*
X50608Y-35880D01*
X50599Y-35908D01*
X50484Y-36022D01*
X50608Y-36022D01*
X50732Y-35822D02*
X50751Y-35822D01*
X50770Y-35832D01*
X50780Y-35842D01*
X50789Y-35861D01*
X50799Y-35899D01*
X50799Y-35946D01*
X50789Y-35984D01*
X50780Y-36003D01*
X50770Y-36013D01*
X50751Y-36022D01*
X50732Y-36022D01*
X50713Y-36013D01*
X50703Y-36003D01*
X50694Y-35984D01*
X50684Y-35946D01*
X50684Y-35899D01*
X50694Y-35861D01*
X50703Y-35842D01*
X50713Y-35832D01*
X50732Y-35822D01*
X50989Y-36022D02*
X50875Y-36022D01*
X50932Y-36022D02*
X50932Y-35822D01*
X50913Y-35851D01*
X50894Y-35870D01*
X50875Y-35880D01*
X61388Y-43433D02*
X61293Y-43500D01*
X61388Y-43548D02*
X61188Y-43548D01*
X61188Y-43471D01*
X61198Y-43452D01*
X61208Y-43443D01*
X61227Y-43433D01*
X61255Y-43433D01*
X61274Y-43443D01*
X61284Y-43452D01*
X61293Y-43471D01*
X61293Y-43548D01*
X61188Y-43252D02*
X61188Y-43348D01*
X61284Y-43357D01*
X61274Y-43348D01*
X61265Y-43329D01*
X61265Y-43281D01*
X61274Y-43262D01*
X61284Y-43252D01*
X61303Y-43243D01*
X61350Y-43243D01*
X61369Y-43252D01*
X61379Y-43262D01*
X61388Y-43281D01*
X61388Y-43329D01*
X61379Y-43348D01*
X61369Y-43357D01*
X61188Y-43119D02*
X61188Y-43100D01*
X61198Y-43081D01*
X61208Y-43071D01*
X61227Y-43062D01*
X61265Y-43052D01*
X61312Y-43052D01*
X61350Y-43062D01*
X61369Y-43071D01*
X61379Y-43081D01*
X61388Y-43100D01*
X61388Y-43119D01*
X61379Y-43138D01*
X61369Y-43148D01*
X61350Y-43157D01*
X61312Y-43167D01*
X61265Y-43167D01*
X61227Y-43157D01*
X61208Y-43148D01*
X61198Y-43138D01*
X61188Y-43119D01*
X61255Y-42881D02*
X61388Y-42881D01*
X61179Y-42929D02*
X61322Y-42976D01*
X61322Y-42852D01*
X58822Y-36920D02*
X58822Y-37082D01*
X58831Y-37101D01*
X58841Y-37111D01*
X58860Y-37120D01*
X58898Y-37120D01*
X58917Y-37111D01*
X58926Y-37101D01*
X58936Y-37082D01*
X58936Y-36920D01*
X59012Y-36920D02*
X59136Y-36920D01*
X59069Y-36997D01*
X59098Y-36997D01*
X59117Y-37006D01*
X59126Y-37016D01*
X59136Y-37035D01*
X59136Y-37082D01*
X59126Y-37101D01*
X59117Y-37111D01*
X59098Y-37120D01*
X59041Y-37120D01*
X59022Y-37111D01*
X59012Y-37101D01*
X59260Y-36920D02*
X59279Y-36920D01*
X59298Y-36930D01*
X59307Y-36940D01*
X59317Y-36959D01*
X59326Y-36997D01*
X59326Y-37044D01*
X59317Y-37082D01*
X59307Y-37101D01*
X59298Y-37111D01*
X59279Y-37120D01*
X59260Y-37120D01*
X59241Y-37111D01*
X59231Y-37101D01*
X59222Y-37082D01*
X59212Y-37044D01*
X59212Y-36997D01*
X59222Y-36959D01*
X59231Y-36940D01*
X59241Y-36930D01*
X59260Y-36920D01*
X59517Y-37120D02*
X59403Y-37120D01*
X59460Y-37120D02*
X59460Y-36920D01*
X59441Y-36949D01*
X59422Y-36968D01*
X59403Y-36978D01*
X53002Y-46030D02*
X53002Y-46173D01*
X52993Y-46202D01*
X52974Y-46221D01*
X52945Y-46230D01*
X52926Y-46230D01*
X53202Y-46230D02*
X53088Y-46230D01*
X53145Y-46230D02*
X53145Y-46030D01*
X53126Y-46059D01*
X53107Y-46078D01*
X53088Y-46088D01*
X53326Y-46030D02*
X53345Y-46030D01*
X53364Y-46040D01*
X53374Y-46050D01*
X53383Y-46069D01*
X53393Y-46107D01*
X53393Y-46154D01*
X53383Y-46192D01*
X53374Y-46211D01*
X53364Y-46221D01*
X53345Y-46230D01*
X53326Y-46230D01*
X53307Y-46221D01*
X53298Y-46211D01*
X53288Y-46192D01*
X53279Y-46154D01*
X53279Y-46107D01*
X53288Y-46069D01*
X53298Y-46050D01*
X53307Y-46040D01*
X53326Y-46030D01*
X53460Y-46030D02*
X53593Y-46030D01*
X53507Y-46230D01*
X63482Y-38770D02*
X63482Y-38913D01*
X63473Y-38942D01*
X63454Y-38961D01*
X63425Y-38970D01*
X63406Y-38970D01*
X63663Y-38770D02*
X63625Y-38770D01*
X63606Y-38780D01*
X63597Y-38790D01*
X63578Y-38818D01*
X63568Y-38856D01*
X63568Y-38932D01*
X63578Y-38951D01*
X63587Y-38961D01*
X63606Y-38970D01*
X63644Y-38970D01*
X63663Y-38961D01*
X63673Y-38951D01*
X63682Y-38932D01*
X63682Y-38885D01*
X63673Y-38866D01*
X63663Y-38856D01*
X63644Y-38847D01*
X63606Y-38847D01*
X63587Y-38856D01*
X63578Y-38866D01*
X63568Y-38885D01*
X63806Y-38770D02*
X63825Y-38770D01*
X63844Y-38780D01*
X63854Y-38790D01*
X63863Y-38809D01*
X63873Y-38847D01*
X63873Y-38894D01*
X63863Y-38932D01*
X63854Y-38951D01*
X63844Y-38961D01*
X63825Y-38970D01*
X63806Y-38970D01*
X63787Y-38961D01*
X63778Y-38951D01*
X63768Y-38932D01*
X63759Y-38894D01*
X63759Y-38847D01*
X63768Y-38809D01*
X63778Y-38790D01*
X63787Y-38780D01*
X63806Y-38770D01*
X64063Y-38970D02*
X63949Y-38970D01*
X64006Y-38970D02*
X64006Y-38770D01*
X63987Y-38799D01*
X63968Y-38818D01*
X63949Y-38828D01*
X49397Y-34765D02*
X49397Y-34908D01*
X49388Y-34937D01*
X49369Y-34956D01*
X49340Y-34965D01*
X49321Y-34965D01*
X49597Y-34965D02*
X49483Y-34965D01*
X49540Y-34965D02*
X49540Y-34765D01*
X49521Y-34794D01*
X49502Y-34813D01*
X49483Y-34823D01*
X49721Y-34765D02*
X49740Y-34765D01*
X49759Y-34775D01*
X49769Y-34785D01*
X49778Y-34804D01*
X49788Y-34842D01*
X49788Y-34889D01*
X49778Y-34927D01*
X49769Y-34946D01*
X49759Y-34956D01*
X49740Y-34965D01*
X49721Y-34965D01*
X49702Y-34956D01*
X49693Y-34946D01*
X49683Y-34927D01*
X49674Y-34889D01*
X49674Y-34842D01*
X49683Y-34804D01*
X49693Y-34785D01*
X49702Y-34775D01*
X49721Y-34765D01*
X49978Y-34965D02*
X49864Y-34965D01*
X49921Y-34965D02*
X49921Y-34765D01*
X49902Y-34794D01*
X49883Y-34813D01*
X49864Y-34823D01*
X52564Y-35412D02*
X52564Y-35555D01*
X52555Y-35584D01*
X52536Y-35603D01*
X52507Y-35612D01*
X52488Y-35612D01*
X52764Y-35612D02*
X52650Y-35612D01*
X52707Y-35612D02*
X52707Y-35412D01*
X52688Y-35441D01*
X52669Y-35460D01*
X52650Y-35470D01*
X52888Y-35412D02*
X52907Y-35412D01*
X52926Y-35422D01*
X52936Y-35432D01*
X52945Y-35451D01*
X52955Y-35489D01*
X52955Y-35536D01*
X52945Y-35574D01*
X52936Y-35593D01*
X52926Y-35603D01*
X52907Y-35612D01*
X52888Y-35612D01*
X52869Y-35603D01*
X52860Y-35593D01*
X52850Y-35574D01*
X52841Y-35536D01*
X52841Y-35489D01*
X52850Y-35451D01*
X52860Y-35432D01*
X52869Y-35422D01*
X52888Y-35412D01*
X53031Y-35432D02*
X53041Y-35422D01*
X53060Y-35412D01*
X53107Y-35412D01*
X53126Y-35422D01*
X53136Y-35432D01*
X53145Y-35451D01*
X53145Y-35470D01*
X53136Y-35498D01*
X53022Y-35612D01*
X53145Y-35612D01*
X58732Y-36275D02*
X58732Y-36418D01*
X58723Y-36447D01*
X58704Y-36466D01*
X58675Y-36475D01*
X58656Y-36475D01*
X58932Y-36475D02*
X58818Y-36475D01*
X58875Y-36475D02*
X58875Y-36275D01*
X58856Y-36304D01*
X58837Y-36323D01*
X58818Y-36333D01*
X59056Y-36275D02*
X59075Y-36275D01*
X59094Y-36285D01*
X59104Y-36295D01*
X59113Y-36314D01*
X59123Y-36352D01*
X59123Y-36399D01*
X59113Y-36437D01*
X59104Y-36456D01*
X59094Y-36466D01*
X59075Y-36475D01*
X59056Y-36475D01*
X59037Y-36466D01*
X59028Y-36456D01*
X59018Y-36437D01*
X59009Y-36399D01*
X59009Y-36352D01*
X59018Y-36314D01*
X59028Y-36295D01*
X59037Y-36285D01*
X59056Y-36275D01*
X59294Y-36342D02*
X59294Y-36475D01*
X59247Y-36266D02*
X59199Y-36409D01*
X59323Y-36409D01*
X59382Y-34690D02*
X59382Y-34833D01*
X59373Y-34862D01*
X59354Y-34881D01*
X59325Y-34890D01*
X59306Y-34890D01*
X59582Y-34890D02*
X59468Y-34890D01*
X59525Y-34890D02*
X59525Y-34690D01*
X59506Y-34719D01*
X59487Y-34738D01*
X59468Y-34748D01*
X59706Y-34690D02*
X59725Y-34690D01*
X59744Y-34700D01*
X59754Y-34710D01*
X59763Y-34729D01*
X59773Y-34767D01*
X59773Y-34814D01*
X59763Y-34852D01*
X59754Y-34871D01*
X59744Y-34881D01*
X59725Y-34890D01*
X59706Y-34890D01*
X59687Y-34881D01*
X59678Y-34871D01*
X59668Y-34852D01*
X59659Y-34814D01*
X59659Y-34767D01*
X59668Y-34729D01*
X59678Y-34710D01*
X59687Y-34700D01*
X59706Y-34690D01*
X59954Y-34690D02*
X59859Y-34690D01*
X59849Y-34786D01*
X59859Y-34776D01*
X59878Y-34767D01*
X59925Y-34767D01*
X59944Y-34776D01*
X59954Y-34786D01*
X59963Y-34805D01*
X59963Y-34852D01*
X59954Y-34871D01*
X59944Y-34881D01*
X59925Y-34890D01*
X59878Y-34890D01*
X59859Y-34881D01*
X59849Y-34871D01*
X53425Y-41957D02*
X53568Y-41957D01*
X53597Y-41966D01*
X53616Y-41985D01*
X53625Y-42014D01*
X53625Y-42033D01*
X53625Y-41757D02*
X53625Y-41871D01*
X53625Y-41814D02*
X53425Y-41814D01*
X53454Y-41833D01*
X53473Y-41852D01*
X53483Y-41871D01*
X53425Y-41633D02*
X53425Y-41614D01*
X53435Y-41595D01*
X53445Y-41585D01*
X53464Y-41576D01*
X53502Y-41566D01*
X53549Y-41566D01*
X53587Y-41576D01*
X53606Y-41585D01*
X53616Y-41595D01*
X53625Y-41614D01*
X53625Y-41633D01*
X53616Y-41652D01*
X53606Y-41661D01*
X53587Y-41671D01*
X53549Y-41680D01*
X53502Y-41680D01*
X53464Y-41671D01*
X53445Y-41661D01*
X53435Y-41652D01*
X53425Y-41633D01*
X53425Y-41500D02*
X53425Y-41376D01*
X53502Y-41442D01*
X53502Y-41414D01*
X53511Y-41395D01*
X53521Y-41385D01*
X53540Y-41376D01*
X53587Y-41376D01*
X53606Y-41385D01*
X53616Y-41395D01*
X53625Y-41414D01*
X53625Y-41471D01*
X53616Y-41490D01*
X53606Y-41500D01*
X55584Y-47154D02*
X55584Y-47297D01*
X55575Y-47326D01*
X55556Y-47345D01*
X55527Y-47354D01*
X55508Y-47354D01*
X55775Y-47154D02*
X55680Y-47154D01*
X55670Y-47250D01*
X55680Y-47240D01*
X55699Y-47231D01*
X55746Y-47231D01*
X55765Y-47240D01*
X55775Y-47250D01*
X55784Y-47269D01*
X55784Y-47316D01*
X55775Y-47335D01*
X55765Y-47345D01*
X55746Y-47354D01*
X55699Y-47354D01*
X55680Y-47345D01*
X55670Y-47335D01*
X55908Y-47154D02*
X55927Y-47154D01*
X55946Y-47164D01*
X55956Y-47174D01*
X55965Y-47193D01*
X55975Y-47231D01*
X55975Y-47278D01*
X55965Y-47316D01*
X55956Y-47335D01*
X55946Y-47345D01*
X55927Y-47354D01*
X55908Y-47354D01*
X55889Y-47345D01*
X55880Y-47335D01*
X55870Y-47316D01*
X55861Y-47278D01*
X55861Y-47231D01*
X55870Y-47193D01*
X55880Y-47174D01*
X55889Y-47164D01*
X55908Y-47154D01*
X56165Y-47354D02*
X56051Y-47354D01*
X56108Y-47354D02*
X56108Y-47154D01*
X56089Y-47183D01*
X56070Y-47202D01*
X56051Y-47212D01*
X54293Y-36478D02*
X54293Y-36640D01*
X54302Y-36659D01*
X54312Y-36669D01*
X54331Y-36678D01*
X54369Y-36678D01*
X54388Y-36669D01*
X54397Y-36659D01*
X54407Y-36640D01*
X54407Y-36478D01*
X54493Y-36498D02*
X54502Y-36488D01*
X54521Y-36478D01*
X54569Y-36478D01*
X54588Y-36488D01*
X54597Y-36498D01*
X54607Y-36517D01*
X54607Y-36536D01*
X54597Y-36564D01*
X54483Y-36678D01*
X54607Y-36678D01*
X54731Y-36478D02*
X54750Y-36478D01*
X54769Y-36488D01*
X54778Y-36498D01*
X54788Y-36517D01*
X54797Y-36555D01*
X54797Y-36602D01*
X54788Y-36640D01*
X54778Y-36659D01*
X54769Y-36669D01*
X54750Y-36678D01*
X54731Y-36678D01*
X54712Y-36669D01*
X54702Y-36659D01*
X54693Y-36640D01*
X54683Y-36602D01*
X54683Y-36555D01*
X54693Y-36517D01*
X54702Y-36498D01*
X54712Y-36488D01*
X54731Y-36478D01*
X54874Y-36498D02*
X54883Y-36488D01*
X54902Y-36478D01*
X54950Y-36478D01*
X54969Y-36488D01*
X54978Y-36498D01*
X54988Y-36517D01*
X54988Y-36536D01*
X54978Y-36564D01*
X54864Y-36678D01*
X54988Y-36678D01*
X61588Y-39272D02*
X61598Y-39244D01*
X61598Y-39196D01*
X61588Y-39177D01*
X61579Y-39168D01*
X61559Y-39158D01*
X61540Y-39158D01*
X61521Y-39168D01*
X61512Y-39177D01*
X61502Y-39196D01*
X61493Y-39234D01*
X61483Y-39253D01*
X61474Y-39263D01*
X61455Y-39272D01*
X61436Y-39272D01*
X61417Y-39263D01*
X61407Y-39253D01*
X61398Y-39234D01*
X61398Y-39187D01*
X61407Y-39158D01*
X61493Y-39006D02*
X61502Y-38977D01*
X61512Y-38968D01*
X61531Y-38958D01*
X61559Y-38958D01*
X61579Y-38968D01*
X61588Y-38977D01*
X61598Y-38996D01*
X61598Y-39072D01*
X61398Y-39072D01*
X61398Y-39006D01*
X61407Y-38987D01*
X61417Y-38977D01*
X61436Y-38968D01*
X61455Y-38968D01*
X61474Y-38977D01*
X61483Y-38987D01*
X61493Y-39006D01*
X61493Y-39072D01*
X61398Y-38891D02*
X61398Y-38768D01*
X61474Y-38834D01*
X61474Y-38806D01*
X61483Y-38787D01*
X61493Y-38777D01*
X61512Y-38768D01*
X61559Y-38768D01*
X61579Y-38777D01*
X61588Y-38787D01*
X61598Y-38806D01*
X61598Y-38863D01*
X61588Y-38882D01*
X61579Y-38891D01*
X61398Y-38644D02*
X61398Y-38625D01*
X61407Y-38606D01*
X61417Y-38596D01*
X61436Y-38587D01*
X61474Y-38577D01*
X61521Y-38577D01*
X61559Y-38587D01*
X61579Y-38596D01*
X61588Y-38606D01*
X61598Y-38625D01*
X61598Y-38644D01*
X61588Y-38663D01*
X61579Y-38672D01*
X61559Y-38682D01*
X61521Y-38691D01*
X61474Y-38691D01*
X61436Y-38682D01*
X61417Y-38672D01*
X61407Y-38663D01*
X61398Y-38644D01*
X61598Y-38387D02*
X61598Y-38501D01*
X61598Y-38444D02*
X61398Y-38444D01*
X61426Y-38463D01*
X61445Y-38482D01*
X61455Y-38501D01*
X52049Y-37391D02*
X52077Y-37400D01*
X52125Y-37400D01*
X52144Y-37391D01*
X52153Y-37381D01*
X52163Y-37362D01*
X52163Y-37343D01*
X52153Y-37324D01*
X52144Y-37315D01*
X52125Y-37305D01*
X52087Y-37296D01*
X52068Y-37286D01*
X52058Y-37277D01*
X52049Y-37258D01*
X52049Y-37239D01*
X52058Y-37220D01*
X52068Y-37210D01*
X52087Y-37200D01*
X52134Y-37200D01*
X52163Y-37210D01*
X52315Y-37296D02*
X52344Y-37305D01*
X52353Y-37315D01*
X52363Y-37334D01*
X52363Y-37362D01*
X52353Y-37381D01*
X52344Y-37391D01*
X52325Y-37400D01*
X52249Y-37400D01*
X52249Y-37200D01*
X52315Y-37200D01*
X52334Y-37210D01*
X52344Y-37220D01*
X52353Y-37239D01*
X52353Y-37258D01*
X52344Y-37277D01*
X52334Y-37286D01*
X52315Y-37296D01*
X52249Y-37296D01*
X52439Y-37220D02*
X52449Y-37210D01*
X52468Y-37200D01*
X52515Y-37200D01*
X52534Y-37210D01*
X52544Y-37220D01*
X52553Y-37239D01*
X52553Y-37258D01*
X52544Y-37286D01*
X52430Y-37400D01*
X52553Y-37400D01*
X52677Y-37200D02*
X52696Y-37200D01*
X52715Y-37210D01*
X52725Y-37220D01*
X52734Y-37239D01*
X52744Y-37277D01*
X52744Y-37324D01*
X52734Y-37362D01*
X52725Y-37381D01*
X52715Y-37391D01*
X52696Y-37400D01*
X52677Y-37400D01*
X52658Y-37391D01*
X52649Y-37381D01*
X52639Y-37362D01*
X52630Y-37324D01*
X52630Y-37277D01*
X52639Y-37239D01*
X52649Y-37220D01*
X52658Y-37210D01*
X52677Y-37200D01*
X52934Y-37400D02*
X52820Y-37400D01*
X52877Y-37400D02*
X52877Y-37200D01*
X52858Y-37229D01*
X52839Y-37248D01*
X52820Y-37258D01*
X62711Y-38451D02*
X62701Y-38461D01*
X62673Y-38470D01*
X62654Y-38470D01*
X62625Y-38461D01*
X62606Y-38442D01*
X62596Y-38423D01*
X62587Y-38385D01*
X62587Y-38356D01*
X62596Y-38318D01*
X62606Y-38299D01*
X62625Y-38280D01*
X62654Y-38270D01*
X62673Y-38270D01*
X62701Y-38280D01*
X62711Y-38290D01*
X62882Y-38270D02*
X62844Y-38270D01*
X62825Y-38280D01*
X62815Y-38290D01*
X62796Y-38318D01*
X62787Y-38356D01*
X62787Y-38432D01*
X62796Y-38451D01*
X62806Y-38461D01*
X62825Y-38470D01*
X62863Y-38470D01*
X62882Y-38461D01*
X62892Y-38451D01*
X62901Y-38432D01*
X62901Y-38385D01*
X62892Y-38366D01*
X62882Y-38356D01*
X62863Y-38347D01*
X62825Y-38347D01*
X62806Y-38356D01*
X62796Y-38366D01*
X62787Y-38385D01*
X63025Y-38270D02*
X63044Y-38270D01*
X63063Y-38280D01*
X63073Y-38290D01*
X63082Y-38309D01*
X63092Y-38347D01*
X63092Y-38394D01*
X63082Y-38432D01*
X63073Y-38451D01*
X63063Y-38461D01*
X63044Y-38470D01*
X63025Y-38470D01*
X63006Y-38461D01*
X62996Y-38451D01*
X62987Y-38432D01*
X62977Y-38394D01*
X62977Y-38347D01*
X62987Y-38309D01*
X62996Y-38290D01*
X63006Y-38280D01*
X63025Y-38270D01*
X63187Y-38470D02*
X63225Y-38470D01*
X63244Y-38461D01*
X63254Y-38451D01*
X63273Y-38423D01*
X63282Y-38385D01*
X63282Y-38309D01*
X63273Y-38290D01*
X63263Y-38280D01*
X63244Y-38270D01*
X63206Y-38270D01*
X63187Y-38280D01*
X63177Y-38290D01*
X63168Y-38309D01*
X63168Y-38356D01*
X63177Y-38375D01*
X63187Y-38385D01*
X63206Y-38394D01*
X63244Y-38394D01*
X63263Y-38385D01*
X63273Y-38375D01*
X63282Y-38356D01*
X55131Y-40771D02*
X55121Y-40781D01*
X55093Y-40790D01*
X55074Y-40790D01*
X55045Y-40781D01*
X55026Y-40762D01*
X55016Y-40743D01*
X55007Y-40705D01*
X55007Y-40676D01*
X55016Y-40638D01*
X55026Y-40619D01*
X55045Y-40600D01*
X55074Y-40590D01*
X55093Y-40590D01*
X55121Y-40600D01*
X55131Y-40610D01*
X55207Y-40610D02*
X55216Y-40600D01*
X55235Y-40590D01*
X55283Y-40590D01*
X55302Y-40600D01*
X55312Y-40610D01*
X55321Y-40629D01*
X55321Y-40648D01*
X55312Y-40676D01*
X55197Y-40790D01*
X55321Y-40790D01*
X55512Y-40790D02*
X55397Y-40790D01*
X55455Y-40790D02*
X55455Y-40590D01*
X55435Y-40619D01*
X55416Y-40638D01*
X55397Y-40648D01*
X55626Y-40676D02*
X55607Y-40667D01*
X55597Y-40657D01*
X55588Y-40638D01*
X55588Y-40629D01*
X55597Y-40610D01*
X55607Y-40600D01*
X55626Y-40590D01*
X55664Y-40590D01*
X55683Y-40600D01*
X55693Y-40610D01*
X55702Y-40629D01*
X55702Y-40638D01*
X55693Y-40657D01*
X55683Y-40667D01*
X55664Y-40676D01*
X55626Y-40676D01*
X55607Y-40686D01*
X55597Y-40695D01*
X55588Y-40714D01*
X55588Y-40752D01*
X55597Y-40771D01*
X55607Y-40781D01*
X55626Y-40790D01*
X55664Y-40790D01*
X55683Y-40781D01*
X55693Y-40771D01*
X55702Y-40752D01*
X55702Y-40714D01*
X55693Y-40695D01*
X55683Y-40686D01*
X55664Y-40676D01*
X49236Y-40791D02*
X49226Y-40801D01*
X49198Y-40810D01*
X49179Y-40810D01*
X49150Y-40801D01*
X49131Y-40782D01*
X49121Y-40763D01*
X49112Y-40725D01*
X49112Y-40696D01*
X49121Y-40658D01*
X49131Y-40639D01*
X49150Y-40620D01*
X49179Y-40610D01*
X49198Y-40610D01*
X49226Y-40620D01*
X49236Y-40630D01*
X49312Y-40630D02*
X49321Y-40620D01*
X49340Y-40610D01*
X49388Y-40610D01*
X49407Y-40620D01*
X49417Y-40630D01*
X49426Y-40649D01*
X49426Y-40668D01*
X49417Y-40696D01*
X49302Y-40810D01*
X49426Y-40810D01*
X49550Y-40610D02*
X49569Y-40610D01*
X49588Y-40620D01*
X49598Y-40630D01*
X49607Y-40649D01*
X49617Y-40687D01*
X49617Y-40734D01*
X49607Y-40772D01*
X49598Y-40791D01*
X49588Y-40801D01*
X49569Y-40810D01*
X49550Y-40810D01*
X49531Y-40801D01*
X49521Y-40791D01*
X49512Y-40772D01*
X49502Y-40734D01*
X49502Y-40687D01*
X49512Y-40649D01*
X49521Y-40630D01*
X49531Y-40620D01*
X49550Y-40610D01*
X49788Y-40610D02*
X49750Y-40610D01*
X49731Y-40620D01*
X49721Y-40630D01*
X49702Y-40658D01*
X49693Y-40696D01*
X49693Y-40772D01*
X49702Y-40791D01*
X49712Y-40801D01*
X49731Y-40810D01*
X49769Y-40810D01*
X49788Y-40801D01*
X49798Y-40791D01*
X49807Y-40772D01*
X49807Y-40725D01*
X49798Y-40706D01*
X49788Y-40696D01*
X49769Y-40687D01*
X49731Y-40687D01*
X49712Y-40696D01*
X49702Y-40706D01*
X49693Y-40725D01*
X49280Y-37610D02*
X49261Y-37600D01*
X49242Y-37581D01*
X49213Y-37552D01*
X49194Y-37543D01*
X49175Y-37543D01*
X49185Y-37590D02*
X49166Y-37581D01*
X49147Y-37562D01*
X49137Y-37524D01*
X49137Y-37457D01*
X49147Y-37419D01*
X49166Y-37400D01*
X49185Y-37390D01*
X49223Y-37390D01*
X49242Y-37400D01*
X49261Y-37419D01*
X49270Y-37457D01*
X49270Y-37524D01*
X49261Y-37562D01*
X49242Y-37581D01*
X49223Y-37590D01*
X49185Y-37590D01*
X49347Y-37410D02*
X49356Y-37400D01*
X49375Y-37390D01*
X49423Y-37390D01*
X49442Y-37400D01*
X49451Y-37410D01*
X49461Y-37429D01*
X49461Y-37448D01*
X49451Y-37476D01*
X49337Y-37590D01*
X49461Y-37590D01*
X49585Y-37390D02*
X49604Y-37390D01*
X49623Y-37400D01*
X49632Y-37410D01*
X49642Y-37429D01*
X49651Y-37467D01*
X49651Y-37514D01*
X49642Y-37552D01*
X49632Y-37571D01*
X49623Y-37581D01*
X49604Y-37590D01*
X49585Y-37590D01*
X49566Y-37581D01*
X49556Y-37571D01*
X49547Y-37552D01*
X49537Y-37514D01*
X49537Y-37467D01*
X49547Y-37429D01*
X49556Y-37410D01*
X49566Y-37400D01*
X49585Y-37390D01*
X49842Y-37590D02*
X49728Y-37590D01*
X49785Y-37590D02*
X49785Y-37390D01*
X49766Y-37419D01*
X49747Y-37438D01*
X49728Y-37448D01*
X49175Y-39305D02*
X49156Y-39295D01*
X49137Y-39276D01*
X49108Y-39247D01*
X49089Y-39238D01*
X49070Y-39238D01*
X49080Y-39285D02*
X49061Y-39276D01*
X49042Y-39257D01*
X49032Y-39219D01*
X49032Y-39152D01*
X49042Y-39114D01*
X49061Y-39095D01*
X49080Y-39085D01*
X49118Y-39085D01*
X49137Y-39095D01*
X49156Y-39114D01*
X49165Y-39152D01*
X49165Y-39219D01*
X49156Y-39257D01*
X49137Y-39276D01*
X49118Y-39285D01*
X49080Y-39285D01*
X49242Y-39105D02*
X49251Y-39095D01*
X49270Y-39085D01*
X49318Y-39085D01*
X49337Y-39095D01*
X49346Y-39105D01*
X49356Y-39124D01*
X49356Y-39143D01*
X49346Y-39171D01*
X49232Y-39285D01*
X49356Y-39285D01*
X49480Y-39085D02*
X49499Y-39085D01*
X49518Y-39095D01*
X49527Y-39105D01*
X49537Y-39124D01*
X49546Y-39162D01*
X49546Y-39209D01*
X49537Y-39247D01*
X49527Y-39266D01*
X49518Y-39276D01*
X49499Y-39285D01*
X49480Y-39285D01*
X49461Y-39276D01*
X49451Y-39266D01*
X49442Y-39247D01*
X49432Y-39209D01*
X49432Y-39162D01*
X49442Y-39124D01*
X49451Y-39105D01*
X49461Y-39095D01*
X49480Y-39085D01*
X49623Y-39105D02*
X49632Y-39095D01*
X49651Y-39085D01*
X49699Y-39085D01*
X49718Y-39095D01*
X49727Y-39105D01*
X49737Y-39124D01*
X49737Y-39143D01*
X49727Y-39171D01*
X49613Y-39285D01*
X49737Y-39285D01*
X55517Y-41330D02*
X55631Y-41330D01*
X55574Y-41530D02*
X55574Y-41330D01*
X55698Y-41530D02*
X55698Y-41330D01*
X55774Y-41330D01*
X55793Y-41339D01*
X55802Y-41349D01*
X55812Y-41368D01*
X55812Y-41397D01*
X55802Y-41416D01*
X55793Y-41425D01*
X55774Y-41435D01*
X55698Y-41435D01*
X55993Y-41330D02*
X55898Y-41330D01*
X55888Y-41425D01*
X55898Y-41416D01*
X55917Y-41406D01*
X55964Y-41406D01*
X55983Y-41416D01*
X55993Y-41425D01*
X56002Y-41444D01*
X56002Y-41492D01*
X55993Y-41511D01*
X55983Y-41520D01*
X55964Y-41530D01*
X55917Y-41530D01*
X55898Y-41520D01*
X55888Y-41511D01*
X56126Y-41330D02*
X56145Y-41330D01*
X56164Y-41339D01*
X56174Y-41349D01*
X56183Y-41368D01*
X56193Y-41406D01*
X56193Y-41454D01*
X56183Y-41492D01*
X56174Y-41511D01*
X56164Y-41520D01*
X56145Y-41530D01*
X56126Y-41530D01*
X56107Y-41520D01*
X56098Y-41511D01*
X56088Y-41492D01*
X56079Y-41454D01*
X56079Y-41406D01*
X56088Y-41368D01*
X56098Y-41349D01*
X56107Y-41339D01*
X56126Y-41330D01*
X56260Y-41330D02*
X56383Y-41330D01*
X56317Y-41406D01*
X56345Y-41406D01*
X56364Y-41416D01*
X56374Y-41425D01*
X56383Y-41444D01*
X56383Y-41492D01*
X56374Y-41511D01*
X56364Y-41520D01*
X56345Y-41530D01*
X56288Y-41530D01*
X56269Y-41520D01*
X56260Y-41511D01*
X62249Y-42806D02*
X62363Y-42806D01*
X62306Y-43006D02*
X62306Y-42806D01*
X62430Y-43006D02*
X62430Y-42806D01*
X62506Y-42806D01*
X62525Y-42816D01*
X62534Y-42826D01*
X62544Y-42845D01*
X62544Y-42873D01*
X62534Y-42892D01*
X62525Y-42902D01*
X62506Y-42911D01*
X62430Y-42911D01*
X62725Y-42806D02*
X62630Y-42806D01*
X62620Y-42902D01*
X62630Y-42892D01*
X62649Y-42883D01*
X62696Y-42883D01*
X62715Y-42892D01*
X62725Y-42902D01*
X62734Y-42921D01*
X62734Y-42968D01*
X62725Y-42987D01*
X62715Y-42997D01*
X62696Y-43006D01*
X62649Y-43006D01*
X62630Y-42997D01*
X62620Y-42987D01*
X62858Y-42806D02*
X62877Y-42806D01*
X62896Y-42816D01*
X62906Y-42826D01*
X62915Y-42845D01*
X62925Y-42883D01*
X62925Y-42930D01*
X62915Y-42968D01*
X62906Y-42987D01*
X62896Y-42997D01*
X62877Y-43006D01*
X62858Y-43006D01*
X62839Y-42997D01*
X62830Y-42987D01*
X62820Y-42968D01*
X62811Y-42930D01*
X62811Y-42883D01*
X62820Y-42845D01*
X62830Y-42826D01*
X62839Y-42816D01*
X62858Y-42806D01*
X63115Y-43006D02*
X63001Y-43006D01*
X63058Y-43006D02*
X63058Y-42806D01*
X63039Y-42835D01*
X63020Y-42854D01*
X63001Y-42864D01*
X53682Y-45770D02*
X53796Y-45770D01*
X53739Y-45970D02*
X53739Y-45770D01*
X53863Y-45970D02*
X53863Y-45770D01*
X53939Y-45770D01*
X53958Y-45780D01*
X53967Y-45790D01*
X53977Y-45809D01*
X53977Y-45837D01*
X53967Y-45856D01*
X53958Y-45866D01*
X53939Y-45875D01*
X53863Y-45875D01*
X54167Y-45970D02*
X54053Y-45970D01*
X54110Y-45970D02*
X54110Y-45770D01*
X54091Y-45799D01*
X54072Y-45818D01*
X54053Y-45828D01*
X54291Y-45770D02*
X54310Y-45770D01*
X54329Y-45780D01*
X54339Y-45790D01*
X54348Y-45809D01*
X54358Y-45847D01*
X54358Y-45894D01*
X54348Y-45932D01*
X54339Y-45951D01*
X54329Y-45961D01*
X54310Y-45970D01*
X54291Y-45970D01*
X54272Y-45961D01*
X54263Y-45951D01*
X54253Y-45932D01*
X54244Y-45894D01*
X54244Y-45847D01*
X54253Y-45809D01*
X54263Y-45790D01*
X54272Y-45780D01*
X54291Y-45770D01*
X54434Y-45790D02*
X54444Y-45780D01*
X54463Y-45770D01*
X54510Y-45770D01*
X54529Y-45780D01*
X54539Y-45790D01*
X54548Y-45809D01*
X54548Y-45828D01*
X54539Y-45856D01*
X54425Y-45970D01*
X54548Y-45970D01*
X53577Y-42230D02*
X53691Y-42230D01*
X53634Y-42430D02*
X53634Y-42230D01*
X53758Y-42430D02*
X53758Y-42230D01*
X53834Y-42230D01*
X53853Y-42240D01*
X53862Y-42250D01*
X53872Y-42269D01*
X53872Y-42297D01*
X53862Y-42316D01*
X53853Y-42326D01*
X53834Y-42335D01*
X53758Y-42335D01*
X54062Y-42430D02*
X53948Y-42430D01*
X54005Y-42430D02*
X54005Y-42230D01*
X53986Y-42259D01*
X53967Y-42278D01*
X53948Y-42288D01*
X54186Y-42230D02*
X54205Y-42230D01*
X54224Y-42240D01*
X54234Y-42250D01*
X54243Y-42269D01*
X54253Y-42307D01*
X54253Y-42354D01*
X54243Y-42392D01*
X54234Y-42411D01*
X54224Y-42421D01*
X54205Y-42430D01*
X54186Y-42430D01*
X54167Y-42421D01*
X54158Y-42411D01*
X54148Y-42392D01*
X54139Y-42354D01*
X54139Y-42307D01*
X54148Y-42269D01*
X54158Y-42250D01*
X54167Y-42240D01*
X54186Y-42230D01*
X54443Y-42430D02*
X54329Y-42430D01*
X54386Y-42430D02*
X54386Y-42230D01*
X54367Y-42259D01*
X54348Y-42278D01*
X54329Y-42288D01*
X62567Y-42428D02*
X62681Y-42428D01*
X62624Y-42628D02*
X62624Y-42428D01*
X62748Y-42628D02*
X62748Y-42428D01*
X62824Y-42428D01*
X62843Y-42438D01*
X62852Y-42448D01*
X62862Y-42467D01*
X62862Y-42495D01*
X62852Y-42514D01*
X62843Y-42524D01*
X62824Y-42533D01*
X62748Y-42533D01*
X63043Y-42428D02*
X62948Y-42428D01*
X62938Y-42524D01*
X62948Y-42514D01*
X62967Y-42505D01*
X63014Y-42505D01*
X63033Y-42514D01*
X63043Y-42524D01*
X63052Y-42543D01*
X63052Y-42590D01*
X63043Y-42609D01*
X63033Y-42619D01*
X63014Y-42628D01*
X62967Y-42628D01*
X62948Y-42619D01*
X62938Y-42609D01*
X63176Y-42428D02*
X63195Y-42428D01*
X63214Y-42438D01*
X63224Y-42448D01*
X63233Y-42467D01*
X63243Y-42505D01*
X63243Y-42552D01*
X63233Y-42590D01*
X63224Y-42609D01*
X63214Y-42619D01*
X63195Y-42628D01*
X63176Y-42628D01*
X63157Y-42619D01*
X63148Y-42609D01*
X63138Y-42590D01*
X63129Y-42552D01*
X63129Y-42505D01*
X63138Y-42467D01*
X63148Y-42448D01*
X63157Y-42438D01*
X63176Y-42428D01*
X63319Y-42448D02*
X63329Y-42438D01*
X63348Y-42428D01*
X63395Y-42428D01*
X63414Y-42438D01*
X63424Y-42448D01*
X63433Y-42467D01*
X63433Y-42486D01*
X63424Y-42514D01*
X63310Y-42628D01*
X63433Y-42628D01*
X62929Y-41454D02*
X63043Y-41454D01*
X62986Y-41654D02*
X62986Y-41454D01*
X63110Y-41654D02*
X63110Y-41454D01*
X63186Y-41454D01*
X63205Y-41464D01*
X63214Y-41474D01*
X63224Y-41493D01*
X63224Y-41521D01*
X63214Y-41540D01*
X63205Y-41550D01*
X63186Y-41559D01*
X63110Y-41559D01*
X63395Y-41454D02*
X63357Y-41454D01*
X63338Y-41464D01*
X63329Y-41474D01*
X63310Y-41502D01*
X63300Y-41540D01*
X63300Y-41616D01*
X63310Y-41635D01*
X63319Y-41645D01*
X63338Y-41654D01*
X63376Y-41654D01*
X63395Y-41645D01*
X63405Y-41635D01*
X63414Y-41616D01*
X63414Y-41569D01*
X63405Y-41550D01*
X63395Y-41540D01*
X63376Y-41531D01*
X63338Y-41531D01*
X63319Y-41540D01*
X63310Y-41550D01*
X63300Y-41569D01*
X63538Y-41454D02*
X63557Y-41454D01*
X63576Y-41464D01*
X63586Y-41474D01*
X63595Y-41493D01*
X63605Y-41531D01*
X63605Y-41578D01*
X63595Y-41616D01*
X63586Y-41635D01*
X63576Y-41645D01*
X63557Y-41654D01*
X63538Y-41654D01*
X63519Y-41645D01*
X63510Y-41635D01*
X63500Y-41616D01*
X63491Y-41578D01*
X63491Y-41531D01*
X63500Y-41493D01*
X63510Y-41474D01*
X63519Y-41464D01*
X63538Y-41454D01*
X63795Y-41654D02*
X63681Y-41654D01*
X63738Y-41654D02*
X63738Y-41454D01*
X63719Y-41483D01*
X63700Y-41502D01*
X63681Y-41512D01*
X63467Y-36245D02*
X63467Y-36407D01*
X63476Y-36426D01*
X63486Y-36436D01*
X63505Y-36445D01*
X63543Y-36445D01*
X63562Y-36436D01*
X63571Y-36426D01*
X63581Y-36407D01*
X63581Y-36245D01*
X63762Y-36312D02*
X63762Y-36445D01*
X63714Y-36236D02*
X63667Y-36379D01*
X63790Y-36379D01*
X63905Y-36245D02*
X63924Y-36245D01*
X63943Y-36255D01*
X63952Y-36265D01*
X63962Y-36284D01*
X63971Y-36322D01*
X63971Y-36369D01*
X63962Y-36407D01*
X63952Y-36426D01*
X63943Y-36436D01*
X63924Y-36445D01*
X63905Y-36445D01*
X63886Y-36436D01*
X63876Y-36426D01*
X63867Y-36407D01*
X63857Y-36369D01*
X63857Y-36322D01*
X63867Y-36284D01*
X63876Y-36265D01*
X63886Y-36255D01*
X63905Y-36245D01*
X64162Y-36445D02*
X64048Y-36445D01*
X64105Y-36445D02*
X64105Y-36245D01*
X64086Y-36274D01*
X64067Y-36293D01*
X64048Y-36303D01*
X57972Y-40956D02*
X57972Y-41118D01*
X57981Y-41137D01*
X57991Y-41147D01*
X58010Y-41156D01*
X58048Y-41156D01*
X58067Y-41147D01*
X58076Y-41137D01*
X58086Y-41118D01*
X58086Y-40956D01*
X58276Y-40956D02*
X58181Y-40956D01*
X58172Y-41051D01*
X58181Y-41042D01*
X58200Y-41032D01*
X58248Y-41032D01*
X58267Y-41042D01*
X58276Y-41051D01*
X58286Y-41070D01*
X58286Y-41118D01*
X58276Y-41137D01*
X58267Y-41147D01*
X58248Y-41156D01*
X58200Y-41156D01*
X58181Y-41147D01*
X58172Y-41137D01*
X58410Y-40956D02*
X58429Y-40956D01*
X58448Y-40966D01*
X58457Y-40975D01*
X58467Y-40994D01*
X58476Y-41032D01*
X58476Y-41080D01*
X58467Y-41118D01*
X58457Y-41137D01*
X58448Y-41147D01*
X58429Y-41156D01*
X58410Y-41156D01*
X58391Y-41147D01*
X58381Y-41137D01*
X58372Y-41118D01*
X58362Y-41080D01*
X58362Y-41032D01*
X58372Y-40994D01*
X58381Y-40975D01*
X58391Y-40966D01*
X58410Y-40956D01*
X58667Y-41156D02*
X58553Y-41156D01*
X58610Y-41156D02*
X58610Y-40956D01*
X58591Y-40985D01*
X58572Y-41004D01*
X58553Y-41013D01*
X61785Y-39257D02*
X61947Y-39257D01*
X61966Y-39248D01*
X61976Y-39238D01*
X61985Y-39219D01*
X61985Y-39181D01*
X61976Y-39162D01*
X61966Y-39153D01*
X61947Y-39143D01*
X61785Y-39143D01*
X61785Y-38962D02*
X61785Y-39000D01*
X61795Y-39019D01*
X61805Y-39029D01*
X61833Y-39048D01*
X61871Y-39057D01*
X61947Y-39057D01*
X61966Y-39048D01*
X61976Y-39038D01*
X61985Y-39019D01*
X61985Y-38981D01*
X61976Y-38962D01*
X61966Y-38953D01*
X61947Y-38943D01*
X61900Y-38943D01*
X61881Y-38953D01*
X61871Y-38962D01*
X61862Y-38981D01*
X61862Y-39019D01*
X61871Y-39038D01*
X61881Y-39048D01*
X61900Y-39057D01*
X61785Y-38819D02*
X61785Y-38800D01*
X61795Y-38781D01*
X61805Y-38772D01*
X61824Y-38762D01*
X61862Y-38753D01*
X61909Y-38753D01*
X61947Y-38762D01*
X61966Y-38772D01*
X61976Y-38781D01*
X61985Y-38800D01*
X61985Y-38819D01*
X61976Y-38838D01*
X61966Y-38848D01*
X61947Y-38857D01*
X61909Y-38867D01*
X61862Y-38867D01*
X61824Y-38857D01*
X61805Y-38848D01*
X61795Y-38838D01*
X61785Y-38819D01*
X61985Y-38562D02*
X61985Y-38676D01*
X61985Y-38619D02*
X61785Y-38619D01*
X61814Y-38638D01*
X61833Y-38657D01*
X61843Y-38676D01*
X55124Y-46870D02*
X55124Y-47013D01*
X55115Y-47042D01*
X55096Y-47061D01*
X55067Y-47070D01*
X55048Y-47070D01*
X55324Y-47070D02*
X55210Y-47070D01*
X55267Y-47070D02*
X55267Y-46870D01*
X55248Y-46899D01*
X55229Y-46918D01*
X55210Y-46928D01*
X55448Y-46870D02*
X55467Y-46870D01*
X55486Y-46880D01*
X55496Y-46890D01*
X55505Y-46909D01*
X55515Y-46947D01*
X55515Y-46994D01*
X55505Y-47032D01*
X55496Y-47051D01*
X55486Y-47061D01*
X55467Y-47070D01*
X55448Y-47070D01*
X55429Y-47061D01*
X55420Y-47051D01*
X55410Y-47032D01*
X55401Y-46994D01*
X55401Y-46947D01*
X55410Y-46909D01*
X55420Y-46890D01*
X55429Y-46880D01*
X55448Y-46870D01*
X55686Y-46870D02*
X55648Y-46870D01*
X55629Y-46880D01*
X55620Y-46890D01*
X55601Y-46918D01*
X55591Y-46956D01*
X55591Y-47032D01*
X55601Y-47051D01*
X55610Y-47061D01*
X55629Y-47070D01*
X55667Y-47070D01*
X55686Y-47061D01*
X55696Y-47051D01*
X55705Y-47032D01*
X55705Y-46985D01*
X55696Y-46966D01*
X55686Y-46956D01*
X55667Y-46947D01*
X55629Y-46947D01*
X55610Y-46956D01*
X55601Y-46966D01*
X55591Y-46985D01*
X63088Y-46302D02*
X63288Y-46169D01*
X63088Y-46169D02*
X63288Y-46302D01*
X63088Y-45997D02*
X63088Y-46092D01*
X63183Y-46102D01*
X63174Y-46092D01*
X63164Y-46073D01*
X63164Y-46026D01*
X63174Y-46007D01*
X63183Y-45997D01*
X63202Y-45988D01*
X63250Y-45988D01*
X63269Y-45997D01*
X63278Y-46007D01*
X63288Y-46026D01*
X63288Y-46073D01*
X63278Y-46092D01*
X63269Y-46102D01*
X63088Y-45864D02*
X63088Y-45845D01*
X63097Y-45826D01*
X63107Y-45816D01*
X63126Y-45807D01*
X63164Y-45797D01*
X63212Y-45797D01*
X63250Y-45807D01*
X63269Y-45816D01*
X63278Y-45826D01*
X63288Y-45845D01*
X63288Y-45864D01*
X63278Y-45883D01*
X63269Y-45892D01*
X63250Y-45902D01*
X63212Y-45911D01*
X63164Y-45911D01*
X63126Y-45902D01*
X63107Y-45892D01*
X63097Y-45883D01*
X63088Y-45864D01*
X63288Y-45607D02*
X63288Y-45721D01*
X63288Y-45664D02*
X63088Y-45664D01*
X63116Y-45683D01*
X63135Y-45702D01*
X63145Y-45721D01*
M02*
